<?xml version="1.0" standalone="no"?>
<!DOCTYPE svg PUBLIC "-//W3C//DTD SVG 20010904//EN"
 "http://www.w3.org/TR/2001/REC-SVG-20010904/DTD/svg10.dtd">
<svg version="1.0" xmlns="http://www.w3.org/2000/svg"
 width="572.000000pt" height="572.000000pt" viewBox="0 0 572.000000 572.000000"
 preserveAspectRatio="xMidYMid meet">
<metadata>
Created by potrace 1.11, written by Peter Selinger 2001-2013
</metadata>
<g transform="translate(0.000000,572.000000) scale(0.100000,-0.100000)"
fill="#000000" stroke="none">
<path d="M2146 5495 c-3 -16 -8 -57 -11 -90 -4 -33 -8 -67 -10 -75 -2 -8 -7
-44 -10 -80 -4 -36 -9 -73 -11 -84 -2 -10 -6 -44 -10 -75 -3 -31 -8 -63 -9
-71 -6 -29 -19 -155 -17 -162 1 -5 -280 -166 -448 -256 -25 -13 -50 -28 -57
-33 -7 -6 -13 -6 -17 -1 -3 6 -17 13 -32 16 -14 4 -56 21 -92 37 -69 32 -74
34 -202 89 -41 18 -91 39 -110 47 -19 8 -63 28 -98 44 -35 16 -69 29 -75 29
-7 0 -19 6 -26 13 -10 10 -17 6 -37 -18 -13 -16 -24 -35 -24 -41 0 -6 -8 -22
-18 -35 -11 -13 -32 -49 -49 -79 -27 -48 -58 -104 -123 -215 -9 -16 -31 -54
-49 -83 -17 -29 -31 -57 -31 -62 0 -6 -3 -10 -7 -10 -5 0 -13 -10 -19 -23 -5
-12 -70 -125 -143 -252 -73 -126 -142 -246 -153 -265 -11 -19 -35 -60 -54 -91
-19 -31 -34 -59 -34 -62 0 -3 60 -49 133 -103 72 -54 134 -101 137 -104 3 -3
68 -52 145 -110 77 -57 145 -108 150 -112 14 -13 15 -575 1 -592 -6 -8 -63
-53 -126 -100 -63 -47 -126 -95 -140 -105 -14 -11 -61 -46 -105 -80 -44 -33
-84 -64 -90 -68 -5 -5 -28 -22 -50 -38 -22 -16 -44 -32 -49 -36 -8 -7 57 -134
75 -145 5 -3 7 -10 4 -15 -4 -5 -1 -9 4 -9 6 0 11 -4 11 -9 0 -4 29 -57 64
-117 36 -60 76 -129 89 -154 14 -25 33 -59 43 -77 70 -119 312 -538 337 -583
16 -30 38 -67 49 -82 10 -14 18 -30 18 -36 0 -27 26 -29 72 -7 26 12 49 20 52
17 4 -3 6 -1 6 5 0 5 6 10 13 10 9 0 296 119 452 188 81 36 88 37 127 18 21
-10 38 -22 38 -26 0 -5 4 -6 9 -3 5 3 14 -1 21 -9 7 -8 19 -15 26 -15 8 0 14
-4 14 -10 0 -5 9 -10 20 -10 11 0 20 -4 20 -9 0 -5 8 -11 18 -15 9 -3 40 -20
67 -36 28 -17 61 -36 75 -43 14 -6 27 -14 30 -17 3 -3 32 -21 65 -39 33 -19
61 -35 63 -36 2 -2 5 -23 8 -47 2 -23 6 -61 9 -83 3 -22 7 -58 9 -80 2 -22 7
-58 10 -81 4 -23 8 -59 11 -80 2 -21 7 -59 10 -84 8 -54 11 -75 20 -160 4 -36
9 -72 11 -80 1 -8 3 -20 3 -25 1 -7 247 -10 725 -10 l723 0 1 25 c1 23 27 240
37 300 4 26 16 127 20 170 3 31 15 125 21 164 3 16 8 34 11 39 4 6 1 7 -8 1
-11 -6 -11 -3 1 15 9 13 36 35 60 48 25 14 82 47 128 74 45 27 85 49 88 49 3
0 17 8 32 19 52 35 87 55 94 54 3 -2 12 4 18 12 7 8 18 15 25 15 7 0 23 9 36
19 24 18 26 18 62 1 21 -10 40 -19 42 -20 11 -2 303 -125 370 -155 17 -7 59
-25 95 -40 36 -14 78 -32 95 -40 32 -15 32 -16 91 93 14 26 36 65 50 87 13 22
27 47 31 55 3 8 14 26 23 40 10 14 28 45 42 70 14 25 35 62 47 83 11 20 30 52
40 71 11 19 31 52 44 73 13 21 27 48 31 61 4 12 12 22 17 22 5 0 9 4 9 10 0 5
56 106 125 225 69 118 129 223 132 233 4 9 9 19 13 22 9 8 50 80 50 89 0 5
-33 33 -72 63 -165 123 -254 191 -273 207 -11 9 -45 34 -75 56 -30 21 -57 42
-60 45 -3 3 -23 18 -45 34 -22 16 -42 31 -44 32 -3 3 -4 111 0 129 1 6 1 14 0
19 -3 13 -3 129 -1 141 1 6 1 14 0 20 -2 12 -2 127 0 140 2 6 1 15 0 20 -6 30
0 108 10 120 6 7 57 48 113 90 56 42 109 82 117 88 9 7 42 32 75 57 33 25 69
53 79 63 11 9 23 17 26 17 4 0 20 11 36 25 33 29 36 32 82 63 17 13 32 28 32
33 0 5 -18 39 -40 75 -22 36 -40 68 -40 70 0 1 -36 64 -80 140 -44 75 -80 138
-80 140 0 2 -16 28 -35 59 -20 30 -39 63 -42 73 -4 9 -21 40 -38 67 -17 28
-36 59 -42 70 -110 196 -249 431 -256 436 -5 3 -9 10 -9 15 0 5 -11 30 -26 55
l-26 46 -125 -52 c-69 -29 -147 -62 -173 -74 -26 -11 -51 -21 -57 -21 -5 0
-22 -7 -38 -15 -15 -8 -49 -24 -75 -35 -64 -27 -136 -58 -173 -74 -27 -12 -34
-10 -85 19 -30 18 -100 56 -155 85 -311 164 -298 155 -301 192 -4 48 -18 162
-30 248 -3 25 -8 59 -9 75 -3 31 -14 111 -20 155 -2 14 -7 50 -10 80 -3 30 -8
62 -11 70 -3 14 -88 15 -723 15 l-720 0 -5 -30z m839 -1754 c98 -15 136 -24
200 -51 17 -7 36 -14 44 -16 7 -1 41 -19 75 -40 226 -137 359 -322 420 -583
23 -97 15 -320 -14 -396 -5 -14 -8 -25 -5 -25 12 0 -68 -167 -108 -227 -112
-168 -265 -285 -453 -348 -98 -33 -129 -37 -274 -38 -116 0 -143 2 -210 20
-14 3 -27 7 -30 8 -131 32 -302 139 -398 250 -82 95 -87 101 -108 142 -10 21
-22 40 -26 41 -5 2 -8 7 -8 12 0 4 -8 25 -17 46 -9 22 -16 42 -15 47 1 4 -3 7
-9 7 -5 0 -7 5 -4 10 3 6 3 16 -2 23 -4 6 -8 14 -8 17 -1 3 -7 32 -14 65 -34
154 -13 364 51 512 49 112 141 244 213 304 6 5 26 22 45 39 19 16 43 33 52 36
10 3 18 10 18 15 0 5 5 9 10 9 6 0 27 10 48 23 48 30 169 74 252 91 84 17 187
19 275 7z"/>
</g>
</svg>
