<svg xmlns="http://www.w3.org/2000/svg" viewBox="0 0 83.45 93.07"><g id="102f2a79-56ba-4858-98f1-773a2efc8b85" data-name="Layer 2"><g id="c7a94528-da7c-4c9b-8cfe-2cf7a3c900e7" data-name="Layer 1"><path d="M74.59,22.77A34.87,34.87,0,0,0,81.72,22l.16,0c.92-.2,1.48-.38,1.48-1s-.61-.82-1.54-1l-.14,0a46.79,46.79,0,0,0-4.92-.58,132.72,132.72,0,0,0-15.68-.17,2.52,2.52,0,0,1-2.82-1.6,45.23,45.23,0,0,0-2.2-4.46A56.66,56.66,0,0,0,48.2,1.95l-.05-.06a7.24,7.24,0,0,0-2-1.66.88.88,0,0,0-.82,0,.63.63,0,0,0-.28.63,4.62,4.62,0,0,0,.41,1.6,76.29,76.29,0,0,0,9.9,16,2.5,2.5,0,0,1,.43,2,2.88,2.88,0,0,0,.05,1.11c.07.21-.1.37-.22.48l0,0,0,0A86.86,86.86,0,0,0,45.49,36.43a7.63,7.63,0,0,0-1,2.36.74.74,0,0,0,.34.87.89.89,0,0,0,1-.08,10.24,10.24,0,0,0,1.4-1,42.6,42.6,0,0,0,7.67-9.49.82.82,0,0,0,.07-.15.76.76,0,0,1,.86-.61c.66.12.6.7.58.95,0,.07,0,.12,0,.16q-.08,10.47-.17,20.93l-.08,9.07c-.08,8.46-.16,17.2-.23,25.79a1.25,1.25,0,0,1-.34,1,1.56,1.56,0,0,1-1.06.28c-2.29,0-4.65,0-6.87,0H38.4c-1.36,0-2.25.71-2.26,1.8a1.56,1.56,0,0,0,.53,1.21,2.56,2.56,0,0,0,1.72.58h7.38a2.6,2.6,0,0,1,1.83.48.9.9,0,0,1,.26.78c-.14,1.14-1.15,1.13-1.82,1.11H17.56c-2.12,0-2.27-.13-2.29-2l-.12-10.26q-.23-20.36-.47-40.72,0-2.32-.06-4.65c0-1.91-.05-3.8-.07-5.69v-.16a1.1,1.1,0,0,1,.3-1,1.3,1.3,0,0,1,1-.15,76.15,76.15,0,0,0,15.59.91,23.24,23.24,0,0,0,6.84-1c.33-.11.71-.34.72-.76s-.22-.52-.75-.74a9,9,0,0,0-2.35-.48h-.13a121.48,121.48,0,0,0-19.28-.49,2.59,2.59,0,0,1-2.55-1.45,46,46,0,0,0-3.39-6.54,48.22,48.22,0,0,0-7.44-10,4.73,4.73,0,0,0-1.25-1A1,1,0,0,0,1,6.17a.78.78,0,0,0-.32.74A3.14,3.14,0,0,0,1,8.15,75.93,75.93,0,0,0,11,24.46l.08.1a1.15,1.15,0,0,1,.36.77v.3c0,1.31,0,2.66-1.45,3.68a3.89,3.89,0,0,0-.78.88L9,30.58A109.13,109.13,0,0,0,2.21,40.5l-.12.2A12.79,12.79,0,0,0,.14,44.81a.73.73,0,0,0,.19.78,1.06,1.06,0,0,0,.95,0,5,5,0,0,0,1.62-1.07,42.61,42.61,0,0,0,7.68-9.59l.07-.13a1.08,1.08,0,0,1,.76-.65l.19,0,.13.12A1.21,1.21,0,0,1,12,35.32c0,.08,0,.14,0,.2Q12,41.34,11.9,47.15q-.1,8.5-.19,17c-.08,8.23-.15,17.08-.2,27.06a1.15,1.15,0,0,1-.33.93,1.42,1.42,0,0,1-1,.27c-1.45,0-2.93,0-4.44,0h-2a.89.89,0,0,0-.55.12.29.29,0,0,0-.08.23c0,.11,0,.29.58.29H4.84l6.54,0a.94.94,0,0,0,.62-.14.83.83,0,0,0,.18-.64c0-2.37,0-4.85,0-7l.11-12.75q.12-14.5.24-29,0-3.18,0-6.36v-.48q0-2.4,0-4.8v-.07a.83.83,0,0,1,.21-.68.62.62,0,0,1,.47-.16.6.6,0,0,1,.41.15.75.75,0,0,1,.18.61s0,.07,0,.1c0,1.39.07,2.62.08,3.77q0,4.21.09,8.42,0,4,.09,8l.24,21.31q.11,9.31.21,18.63c0,1.06,0,1.06,1.23,1.06l30.39,0c1.34,0,2.29-.73,2.31-1.77A1.61,1.61,0,0,0,48,90a2.61,2.61,0,0,0-1.76-.59h-.75c-2.47,0-4.69,0-6.92,0h-.06c-1.48,0-1.67-.83-1.68-1.18a1,1,0,0,1,.34-.85A1.9,1.9,0,0,1,38.56,87h4.82c4,0,8.12,0,12.19,0a1.54,1.54,0,0,0,.8-.15c.09-.07.22-.2.22-.63q0-6.07.11-12.14v-.53q0-4.66.09-9.32.09-10.23.17-20.47.07-8.9.15-17.81s0-.07,0-.1a.84.84,0,0,1,.19-.71.81.81,0,0,1,.5-.16.62.62,0,0,1,.43.16.85.85,0,0,1,.18.68V26l.11,11.89q.08,9,.17,18,.07,6.83.14,13.65.09,8.41.17,16.83a.71.71,0,0,0,.17.56.88.88,0,0,0,.61.14l6,0H69.8a2.13,2.13,0,0,0,.49-.05c.23-.05.23-.16.23-.21a.26.26,0,0,0-.24-.29,2.32,2.32,0,0,0-.49,0H67.67c-1.94,0-4.35,0-6.64,0a1.67,1.67,0,0,1-1.09-.29,1.1,1.1,0,0,1-.31-.91c0-.75,0-1.52,0-2.26v-.1c0-.38,0-.76,0-1.14l-.08-7.17q-.14-12.49-.28-25-.06-5.49-.11-11Q59,30.79,59,22.93a1.12,1.12,0,0,1,.35-1,1.37,1.37,0,0,1,1.07-.14A74.06,74.06,0,0,0,74.59,22.77Zm-57.83,3v0l1.34-.06c.84,0,1.69-.09,2.54-.09a129.87,129.87,0,0,1,15.53.69h.15c.28,0,.92.06.91.64s-.66.63-.94.66l-.12,0a49.51,49.51,0,0,1-6.82.55l-1.06,0h-.63a76.69,76.69,0,0,1-10.36-.76l-.4-.06-.19,0c-.29,0-1.07-.17-1-.9S16.45,25.76,16.76,25.75Zm-5.9-2.57c-.7-.9-1.42-1.82-2.08-2.77A95.26,95.26,0,0,1,1.93,8.79l-.06-.11c-.11-.19-.4-.69.12-1a.88.88,0,0,1,1.11.37l.08.09a51.07,51.07,0,0,1,6,8,67.41,67.41,0,0,1,3.73,6.76l.23.5.1.22v.06a.75.75,0,0,1-.51.76,1.06,1.06,0,0,1-.32.05,1.13,1.13,0,0,1-.87-.52ZM13,29.26l-.1,0,.1,0,0,.05c-.86,1.76-1.73,3.33-2.64,4.81A48.12,48.12,0,0,1,2.9,43.65l-.09.09a2.54,2.54,0,0,1-.94.67l-.12,0-.12,0a.67.67,0,0,1-.45-.34.69.69,0,0,1,.12-.64l.43-.75c.47-.84.95-1.68,1.46-2.49A86.18,86.18,0,0,1,11.32,28.8l.08-.1.17-.19.08-.08a.88.88,0,0,1,1.16-.27C13.37,28.5,13.11,29,13,29.26Zm.6-1.63h-.16c-.92-.14-1.46-.68-1.42-1.42s.58-1.18,1.52-1.32h.08l.07,0c1.1.28,1.36.93,1.38,1.42a1.23,1.23,0,0,1-.53,1A1.57,1.57,0,0,1,13.58,27.63ZM55.83,18A70.07,70.07,0,0,1,50,9.51c-1.23-2-2.43-4.2-3.55-6.46l-.08-.15a1,1,0,0,1-.14-1.08l.08-.15.19,0a1.14,1.14,0,0,1,1.05.51l.09.11a62.47,62.47,0,0,1,9.74,14.92l0,0c.13.26.42.86-.28,1.18a1,1,0,0,1-.41.09A1.21,1.21,0,0,1,55.83,18Zm1.63,5.14-.1,0,.1,0c0,.12-.1.26-.17.4a51.69,51.69,0,0,1-10,14.21l-.15.16a1.3,1.3,0,0,1-.88.56.72.72,0,0,1-.38-.11c-.61-.36-.18-.94,0-1.18L46,37a92.76,92.76,0,0,1,9.72-14.09l0-.05a2.67,2.67,0,0,1,.63-.58.8.8,0,0,1,.75-.09.75.75,0,0,1,.4.73v.06Zm2-2.61A1.34,1.34,0,0,1,58,21.66h0A2,2,0,0,1,56.65,21a1,1,0,0,1-.24-.9A1.49,1.49,0,0,1,58,18.95h0a1.59,1.59,0,0,1,1.11.51A1.2,1.2,0,0,1,59.42,20.49Zm2.25,1H61.6l-.35-.06-.19,0c-.31-.05-.94-.17-.91-.81s.81-.74,1.14-.75h.09l1.53,0h.26c1.34,0,2.74-.08,4.11-.07a110,110,0,0,1,13,.64l.15,0,.46.06c.23,0,.66.12.72.52s-.06.6-.73.7l-.55.09a19.94,19.94,0,0,1-2,.25L76.93,22h0c-1.18.08-2.41.17-3.63.17h-.78A87.54,87.54,0,0,1,61.67,21.45Z" fill="#fff"/><path d="M58.91,22.08a2.69,2.69,0,0,1,1.43-.19,74.56,74.56,0,0,0,14.23,1,34.91,34.91,0,0,0,7.16-.76l.16,0c.95-.21,1.57-.4,1.56-1.13s-.68-.92-1.63-1.07l-.14,0a47.05,47.05,0,0,0-4.94-.58,133.44,133.44,0,0,0-15.69-.17,2.41,2.41,0,0,1-2.71-1.54,45.23,45.23,0,0,0-2.2-4.46A56.73,56.73,0,0,0,48.27,1.88l-.05-.05a7.32,7.32,0,0,0-2-1.68,1,1,0,0,0-.93,0,.72.72,0,0,0-.33.72,4.71,4.71,0,0,0,.41,1.63,76.43,76.43,0,0,0,9.91,16,2.42,2.42,0,0,1,.41,1.91,2.94,2.94,0,0,0,.06,1.14c.05.16-.08.28-.19.38l-.07.07A87,87,0,0,0,45.37,36.38a7.72,7.72,0,0,0-1,2.39.84.84,0,0,0,.38,1,1,1,0,0,0,1.13-.08,10.38,10.38,0,0,0,1.42-1A42.69,42.69,0,0,0,55,29.12c0-.05,3.89-7,3.91-7m.17-1.65a1,1,0,0,1-1.07.92c-.81-.07-1.42-.65-1.29-1.19a1.19,1.19,0,0,1,2.36.27Z" fill="#f12535"/><path d="M14.56,28.11A2.69,2.69,0,0,1,16,27.92a74.56,74.56,0,0,0,14.23,1,34.91,34.91,0,0,0,7.16-.76l.16,0c.95-.21,1.57-.4,1.56-1.13s-.68-.92-1.63-1.07l-.14,0a47.05,47.05,0,0,0-4.94-.58,133.44,133.44,0,0,0-15.69-.17A2.41,2.41,0,0,1,14,23.58a45.23,45.23,0,0,0-2.2-4.46A56.73,56.73,0,0,0,3.92,7.9l-.05-.05a7.32,7.32,0,0,0-2-1.68,1,1,0,0,0-.93,0,.72.72,0,0,0-.33.72A4.71,4.71,0,0,0,1,8.47a76.43,76.43,0,0,0,9.91,16,2.42,2.42,0,0,1,.41,1.91,2.94,2.94,0,0,0,.06,1.14c.05.16-.08.28-.19.38l-.07.07A87,87,0,0,0,1,42.4a7.72,7.72,0,0,0-1,2.39.84.84,0,0,0,.38,1,1,1,0,0,0,1.13-.08,10.38,10.38,0,0,0,1.42-1,42.69,42.69,0,0,0,7.69-9.51c0-.05,3.89-7,3.91-7m.17-1.65a1,1,0,0,1-1.07.92c-.81-.07-1.42-.65-1.29-1.19a1.19,1.19,0,0,1,2.36.27Z" fill="#f12535"/><path d="M42.42,79.82h3.23c.77,0,.78-.28.78-.4a.32.32,0,0,0-.1-.27,1,1,0,0,0-.65-.16H38.81c-.66,0-.79.14-.79.38a.35.35,0,0,0,.1.28,1.3,1.3,0,0,0,.75.14h3.55Z" fill="#fff"/><path d="M63.43,92.15H56.71c-.53,0-.71,0-.72.38a.4.4,0,0,0,.09.31,1.12,1.12,0,0,0,.67.11h6.87c.59,0,.73,0,.74-.38a.4.4,0,0,0-.1-.31,1.1,1.1,0,0,0-.66-.11Z" fill="#fff"/><path d="M68.06,92.94h7c.55,0,.72,0,.73-.34a.38.38,0,0,0-.1-.31.93.93,0,0,0-.61-.15h-7a.94.94,0,0,0-.61.14.36.36,0,0,0-.1.3C67.35,92.81,67.47,92.94,68.06,92.94Z" fill="#fff"/><path d="M22.85,75.78c0,.24.12.38.7.38h7c.55,0,.7,0,.71-.34a.38.38,0,0,0-.11-.31.83.83,0,0,0-.52-.14H23.52a.92.92,0,0,0-.57.15A.34.34,0,0,0,22.85,75.78Z" fill="#fff"/><path d="M26.85,79a1,1,0,0,0-.63.16.34.34,0,0,0-.09.29c0,.1,0,.37.73.37h6.87a1.1,1.1,0,0,0,.68-.14.33.33,0,0,0,.1-.27c0-.26-.13-.41-.78-.41Z" fill="#fff"/><path d="M42,75.36H34.84a.77.77,0,0,0-.52.15.36.36,0,0,0-.09.31c0,.25.17.33.65.33h7.06a.88.88,0,0,0,.57-.13.34.34,0,0,0,.1-.27C42.6,75.42,42.22,75.36,42,75.36Z" fill="#fff"/></g></g></svg>