<svg xmlns="http://www.w3.org/2000/svg" viewBox="0 0 103.42 91.69"><g id="b9331910-d709-44cd-8185-cc0aad03276f" data-name="Layer 2"><g id="40b6835e-3c98-472b-b73b-0f473f0cc4aa" data-name="Layer 1"><path fill="#fff" d="M38.66 59.94L27.73 49.01 27.2 49.54 38.35 60.69 53.15 60.69 53.15 59.94 38.66 59.94z"/><path d="M25.28,43.08a3.67,3.67,0,1,0,3.67,3.67A3.67,3.67,0,0,0,25.28,43.08Zm0,6.59a2.92,2.92,0,1,1,2.92-2.92A2.92,2.92,0,0,1,25.28,49.66Z" fill="#ee1944"/><path fill="#fff" d="M36.29 69.57H53.019999999999996V70.32H36.29z"/><path d="M32.85,66.59A3.39,3.39,0,1,0,36.24,70,3.39,3.39,0,0,0,32.85,66.59Zm0,6A2.64,2.64,0,1,1,35.49,70,2.64,2.64,0,0,1,32.85,72.62Z" fill="#ee1944"/><path fill="#fff" d="M24.89 16.25L14.84 6.19 14.31 6.72 24.58 17 38.22 17 38.22 16.25 24.89 16.25z"/><path d="M12.55.53A3.41,3.41,0,1,0,16,3.94,3.41,3.41,0,0,0,12.55.53Zm0,6.07a2.66,2.66,0,1,1,2.66-2.66A2.66,2.66,0,0,1,12.55,6.6Z" fill="#ee1944"/><path fill="#fff" d="M45.92 8.44L45.92 7.69 30.69 7.69 24.98 21.8 6.73 21.8 6.73 22.55 25.48 22.55 31.19 8.44 45.92 8.44z"/><path d="M3.41,18.77a3.41,3.41,0,1,0,3.41,3.41A3.41,3.41,0,0,0,3.41,18.77Zm0,6.07a2.66,2.66,0,1,1,2.66-2.66A2.66,2.66,0,0,1,3.41,24.84Z" fill="#ee1944"/><path d="M80.45,5.74C70.58-1.59,58.9.1,57.57.32l.14.74C59,.84,70.37-.81,80,6.34,87.65,12,92.22,21.69,93.58,35.07L102.37,52l-7.6,3L97,58.44,93,60.76l3.78,2.3-2.34,3,.13.22c.11.2,2.79,4.86,1.15,7.62C94.87,75.28,93,76,90,75.86c-10.68-.37-14.14,0-14.5,0l-.33,0v15H48.1v.75H75.94V76.59h.12c1.29-.09,5.23-.27,13.93,0,3.22.11,5.37-.68,6.38-2.36,1.63-2.74-.33-6.88-1-8.09l0-.07,2.56-3.23-3.44-2.09L98,58.7l-2.11-3.36,7.53-3-9.1-17.44C92.93,21.36,88.26,11.54,80.45,5.74Z" fill="#fff"/><path d="M73.68,32.42,77,29.88l-4.16-7.21L69,24.31l-3-1.64-.51-4H57.11l-.51,4-3.05,1.7L49.68,22.7,45.51,29.9l3.36,2.53v3.5l-3.36,2.54,4.16,7.21L53.56,44l3,1.73L57.11,50h8.32L66,45.77,69,44l3.88,1.65L77,38.47l-3.36-2.54Zm-12.4,6.94a5.19,5.19,0,1,1,5.19-5.19A5.19,5.19,0,0,1,61.28,39.36Z" fill="#ee1944"/></g></g></svg>