<svg xmlns="http://www.w3.org/2000/svg" viewBox="0 0 82.52 93.24"><g id="35259048-bbb6-4f95-9dd1-f2760c0285f3" data-name="Layer 2"><g id="5df16e5e-4521-489a-8385-0bb84e862e61" data-name="Layer 1"><path id="61cd77ef-bb6e-433f-842a-9cc59f2030e5" data-name="&lt;Path&gt;" d="M12.13,0C5.74.56-2.61,42.83.78,54.12c3,9.87,11.34,11.7,11.34,11.7S20.51,64,23.47,54.12C26.86,42.83,18.51.56,12.13,0Z" fill="#f12535"/><path d="M12.13,19.51a.43.43,0,0,0-.43.43V92.52a.43.43,0,0,0,.87,0V19.94A.43.43,0,0,0,12.13,19.51Z" fill="#fff"/><path d="M5.36,27.5a.43.43,0,0,0,.14.3l6.33,5.94a.45.45,0,0,0,.61,0,.43.43,0,0,0,0-.61L6.09,27.17a.43.43,0,0,0-.61,0A.43.43,0,0,0,5.36,27.5Z" fill="#fff"/><path d="M11.78,44.26a.43.43,0,0,0-.08.32.43.43,0,0,0,.17.28.41.41,0,0,0,.32.08.43.43,0,0,0,.29-.17l6.94-9.37a.43.43,0,0,0-.09-.61.45.45,0,0,0-.61.09Z" fill="#fff"/><path d="M78.44,73.59H76.55V69.41H79a1.61,1.61,0,0,0,1.6-1.6V60.08a1.61,1.61,0,0,0-1.6-1.6H29.68a1.61,1.61,0,0,0-1.6,1.6v7.73a1.61,1.61,0,0,0,1.6,1.6H32.1v4.18H30.24a4.08,4.08,0,1,0,0,8.16h2.37L28.89,92.64a.45.45,0,1,0,.85.29l3.82-11.18H75.77l3.37,11.16a.45.45,0,0,0,.22.27.44.44,0,0,0,.34,0,.45.45,0,0,0,.3-.56L76.7,81.75h1.74a4.08,4.08,0,1,0,0-8.16ZM29,60.08a.71.71,0,0,1,.71-.71H79a.71.71,0,0,1,.71.71V63.5H29Zm.71,8.44a.71.71,0,0,1-.71-.71V64.39H79.71v3.42a.71.71,0,0,1-.71.71Zm46,.89v4.18H33V69.41Zm5,10.51a3.17,3.17,0,0,1-2.25.93H76.22a.44.44,0,0,0-.25,0H30.24a3.19,3.19,0,1,1,0-6.38h48.2a3.19,3.19,0,0,1,2.25,5.44Z" fill="#fff"/></g></g></svg>