<svg xmlns="http://www.w3.org/2000/svg" viewBox="0 0 94.86 29.28" width="94.86" height="29.28"><g id="bf62b22f-d4bd-49f6-bfcf-76f6e7d04437" data-name="Layer 2"><g id="85890c93-9cef-4f59-a24e-e72561ebb48d" data-name="Layer 1"><path d="M55.77,18.31V11a1.73,1.73,0,0,0-.86-1.49L50.39,6.88a.74.74,0,1,0-.74,1.29l4.64,2.67v7.6l-6.58,3.81-6.59-3.8v-7.6l4.64-2.68A.74.74,0,0,0,45,6.88L40.5,9.49A1.73,1.73,0,0,0,39.63,11v7.32a1.73,1.73,0,0,0,.86,1.49l6.34,3.66a1.76,1.76,0,0,0,1.72,0l6.34-3.66A1.73,1.73,0,0,0,55.77,18.31Z" fill="#141933"/><path d="M60.62,21.1V17a.74.74,0,0,0-1.49,0v4.28l-11.43,6.6L36.27,21.25V8L47.7,1.44,59.13,8v4.29a.74.74,0,0,0,1.49,0V8.18a1.73,1.73,0,0,0-.86-1.49L48.56.23a1.73,1.73,0,0,0-1.72,0L35.65,6.69a1.73,1.73,0,0,0-.86,1.49V21.1a1.73,1.73,0,0,0,.86,1.49l11.19,6.46a1.76,1.76,0,0,0,1.72,0L59.75,22.6A1.73,1.73,0,0,0,60.62,21.1Z" fill="#ee1944"/><path d="M21,18.31V11a1.73,1.73,0,0,0-.86-1.49L15.6,6.88a.74.74,0,1,0-.74,1.29l4.64,2.67v7.6l-6.58,3.81-6.59-3.8v-7.6L11,8.17a.74.74,0,0,0-.74-1.29L5.71,9.49A1.73,1.73,0,0,0,4.85,11v7.32a1.73,1.73,0,0,0,.86,1.49l6.34,3.66a1.76,1.76,0,0,0,1.72,0l6.34-3.66A1.73,1.73,0,0,0,21,18.31Z" fill="#ee1944"/><path d="M25.83,21.1V17a.74.74,0,0,0-1.49,0v4.28l-11.43,6.6L1.48,21.25V8l11.43-6.6L24.34,8v4.29a.74.74,0,0,0,1.49,0V8.18A1.73,1.73,0,0,0,25,6.69L13.78.23a1.73,1.73,0,0,0-1.72,0L.86,6.69A1.73,1.73,0,0,0,0,8.18V21.1A1.73,1.73,0,0,0,.86,22.6l11.19,6.46a1.76,1.76,0,0,0,1.72,0L25,22.6A1.73,1.73,0,0,0,25.83,21.1Z" fill="#141933"/><path d="M90,18.31V11a1.73,1.73,0,0,0-.86-1.49L84.64,6.88a.74.74,0,1,0-.74,1.29l4.64,2.67v7.6L82,22.25l-6.59-3.8v-7.6L80,8.17a.74.74,0,0,0-.74-1.29L74.75,9.49A1.73,1.73,0,0,0,73.88,11v7.32a1.73,1.73,0,0,0,.86,1.49l6.34,3.66a1.76,1.76,0,0,0,1.72,0l6.34-3.66A1.73,1.73,0,0,0,90,18.31Z" fill="#ee1944"/><path d="M94.86,21.1V17a.74.74,0,0,0-1.49,0v4.28L82,27.84,70.52,21.25V8l11.43-6.6L93.38,8v4.29a.74.74,0,0,0,1.49,0V8.18A1.73,1.73,0,0,0,94,6.69L82.81.23a1.73,1.73,0,0,0-1.72,0L69.9,6.69A1.73,1.73,0,0,0,69,8.18V21.1a1.73,1.73,0,0,0,.86,1.49l11.19,6.46a1.76,1.76,0,0,0,1.72,0L94,22.6A1.73,1.73,0,0,0,94.86,21.1Z" fill="#141933"/></g></g></svg>