<svg xmlns="http://www.w3.org/2000/svg" viewBox="0 0 25.83 29.28" width="25.83" height="29.28"><g id="1e13edff-41e0-495a-8e2d-b1e8c25c0280" data-name="Layer 2"><g id="38be0b45-3af0-4987-beaf-033d0091a5e1" data-name="Layer 1"><path d="M21,18.31V11a1.73,1.73,0,0,0-.86-1.49L15.6,6.88a.74.74,0,1,0-.74,1.29l4.64,2.67v7.6l-6.58,3.81-6.59-3.8v-7.6L11,8.17a.74.74,0,0,0-.74-1.29L5.71,9.49A1.73,1.73,0,0,0,4.85,11v7.32a1.73,1.73,0,0,0,.86,1.49l6.34,3.66a1.76,1.76,0,0,0,1.72,0l6.34-3.66A1.73,1.73,0,0,0,21,18.31Z" fill="#ee1944"/><path d="M25.83,21.1V17a.74.74,0,0,0-1.49,0v4.28l-11.43,6.6L1.48,21.25V8l11.43-6.6L24.34,8v4.29a.74.74,0,0,0,1.49,0V8.18A1.73,1.73,0,0,0,25,6.69L13.78.23a1.73,1.73,0,0,0-1.72,0L.86,6.69A1.73,1.73,0,0,0,0,8.18V21.1A1.73,1.73,0,0,0,.86,22.6l11.19,6.46a1.76,1.76,0,0,0,1.72,0L25,22.6A1.73,1.73,0,0,0,25.83,21.1Z" fill="#141933"/></g></g></svg>