<svg xmlns="http://www.w3.org/2000/svg" viewBox="0 0 59.4 67.27" width="59.4" height="67.27"><g id="75836a94-9b56-4051-8f36-cf408e966985" data-name="Layer 2"><g id="8b2faee0-49e3-485d-b41f-1349dcd32073" data-name="Layer 1"><path d="M29.7,7a.74.74,0,0,0-.74.74V19.73a.74.74,0,1,0,1.49,0V7.79A.74.74,0,0,0,29.7,7Z" fill="#141933"/><path d="M29.7,0A4.27,4.27,0,1,0,34,4.27,4.27,4.27,0,0,0,29.7,0Zm0,7a2.78,2.78,0,1,1,2.78-2.78A2.78,2.78,0,0,1,29.7,7Z" fill="#141933"/><path d="M29.7,46.79a.74.74,0,0,0-.74.74V59.48a.74.74,0,1,0,1.49,0V47.54A.74.74,0,0,0,29.7,46.79Z" fill="#141933"/><path d="M29.7,58.73A4.27,4.27,0,1,0,34,63,4.27,4.27,0,0,0,29.7,58.73Zm0,7A2.78,2.78,0,1,1,32.48,63,2.78,2.78,0,0,1,29.7,65.78Z" fill="#141933"/><path d="M7.69,47.2l10.34-6a.74.74,0,0,0-.74-1.29l-10.34,6a.74.74,0,0,0-.27,1A.76.76,0,0,0,7.69,47.2Z" fill="#141933"/><path d="M.15,47.21a4.24,4.24,0,0,0,.43,3.24A4.27,4.27,0,0,0,6.4,52a4.27,4.27,0,0,0-1-7.81A4.29,4.29,0,0,0,4.26,44,4.27,4.27,0,0,0,.15,47.21Zm1.43.38a2.78,2.78,0,1,1,.28,2.11A2.76,2.76,0,0,1,1.58,47.6Z" fill="#141933"/><path d="M42.11,27.33l10.34-6A.74.74,0,0,0,52.27,20l-.19,0a.74.74,0,0,0-.37.1L41.37,26a.74.74,0,0,0-.27,1A.76.76,0,0,0,42.11,27.33Z" fill="#141933"/><path d="M56.23,14.83a4.31,4.31,0,0,0-1.11-.15,4.27,4.27,0,0,0-3.68,6.4,4.27,4.27,0,1,0,7.39-4.27A4.24,4.24,0,0,0,56.23,14.83Zm1.58,4.84a2.78,2.78,0,0,1-2.68,2.06,2.8,2.8,0,0,1-.73-.1,2.78,2.78,0,0,1,.71-5.46,2.79,2.79,0,0,1,2.41,1.39A2.76,2.76,0,0,1,57.82,19.67Z" fill="#141933"/><path d="M37.77,37.3V30a1.73,1.73,0,0,0-.86-1.49l-4.52-2.61a.74.74,0,1,0-.74,1.29l4.64,2.67v7.6l-6.58,3.81-6.59-3.8v-7.6l4.64-2.68A.74.74,0,0,0,27,25.87l-4.52,2.61A1.73,1.73,0,0,0,21.63,30V37.3a1.73,1.73,0,0,0,.86,1.49l6.34,3.66a1.76,1.76,0,0,0,1.72,0l6.34-3.66A1.73,1.73,0,0,0,37.77,37.3Z" fill="#ee1944"/><path d="M42.61,40.09V35.95a.74.74,0,0,0-1.49,0v4.28l-11.43,6.6L18.27,40.24V27l11.43-6.6L41.13,27v4.29a.74.74,0,0,0,1.49,0V27.17a1.73,1.73,0,0,0-.86-1.49L30.56,19.22a1.73,1.73,0,0,0-1.72,0L17.65,25.68a1.73,1.73,0,0,0-.86,1.49V40.09a1.73,1.73,0,0,0,.86,1.49L28.84,48a1.76,1.76,0,0,0,1.72,0l11.19-6.46A1.73,1.73,0,0,0,42.61,40.09Z" fill="#141933"/></g></g></svg>