<svg width="555" height="184" viewBox="0 0 555 184" fill="none" xmlns="http://www.w3.org/2000/svg"><path fill-rule="evenodd" clip-rule="evenodd" d="M290.803 40.7698H298.418L295.473 30.8876H293.748L290.803 40.7698ZM299.985 45.956H289.315L287.044 53.6483H281.273L290.178 25.1875H299.241L308.185 53.6483H302.257L299.985 45.956Z" fill="#000"/><path fill-rule="evenodd" clip-rule="evenodd" d="M318.097 30.4922V53.6482H312.145V25.1874H332.725V30.4922H318.097Z" fill="#000"/><path fill-rule="evenodd" clip-rule="evenodd" d="M358.846 48.3434V53.6482H337.475V25.1874H358.411V30.4922H343.379V36.4689H355.078V41.6472H343.379V48.3434H358.846Z" fill="#000"/><path fill-rule="evenodd" clip-rule="evenodd" d="M388.923 25.1874V53.6482H382.971V41.7263H370.338V53.6482H364.385V25.1874H370.338V36.2713H382.971V25.1874H388.923Z" fill="#000"/><path fill-rule="evenodd" clip-rule="evenodd" d="M415.835 30.4131H406.947V53.6482H400.978V30.4131H392.09V25.1874H415.835V30.4131Z" fill="#000"/><path fill-rule="evenodd" clip-rule="evenodd" d="M443.537 44.9123C442.666 50.5254 438.352 54.4388 431.743 54.4388C423.115 54.4388 418.208 48.4304 418.208 39.8131C418.208 31.1958 423.155 25.1874 431.743 25.1874C438.036 25.1874 442.271 28.745 443.26 33.9233H437.086C436.413 31.6701 434.553 30.4447 431.743 30.4447C426.677 30.4447 424.263 34.5557 424.263 39.8131C424.263 45.0309 426.677 49.1814 431.743 49.1814C434.791 49.1814 436.849 47.6003 437.403 44.9123H443.537Z" fill="#000"/><path fill-rule="evenodd" clip-rule="evenodd" d="M469.658 30.4131H460.769V53.6482H454.801V30.4131H445.912V25.1874H469.658V30.4131Z" fill="#000"/><path fill-rule="evenodd" clip-rule="evenodd" d="M491.204 45.0783C491.204 42.6829 489.716 41.4496 486.653 41.4496H479.608V48.5885H486.574C489.558 48.5885 491.204 47.4659 491.204 45.0783ZM490.397 33.2829C490.397 31.1721 489.027 30.1364 486.328 30.1364H479.608V36.4768H486.368C489.075 36.4689 490.397 35.4333 490.397 33.2829ZM497.362 45.3946C497.362 50.138 494.259 53.6482 487.46 53.6482H473.616V25.1874H487.096C493.46 25.1874 496.555 28.658 496.555 32.7216C496.555 35.3147 495.391 37.5441 493.539 38.4612V39.2597C495.589 40.0977 497.362 42.5643 497.362 45.3946Z" fill="#000"/><path fill-rule="evenodd" clip-rule="evenodd" d="M522.937 39.8131C522.937 34.5953 520.507 30.4447 515.172 30.4447C509.877 30.4447 507.407 34.5953 507.407 39.8131C507.407 45.0309 509.877 49.1814 515.172 49.1814C520.507 49.1814 522.937 45.0309 522.937 39.8131ZM529.024 39.8131C529.024 48.1142 524.164 54.4388 515.172 54.4388C506.172 54.4388 501.32 48.1142 501.32 39.8131C501.32 31.512 506.172 25.1874 515.172 25.1874C524.164 25.1874 529.024 31.512 529.024 39.8131Z" fill="#000"/><path fill-rule="evenodd" clip-rule="evenodd" d="M289.125 77.3633V97.2543H289.909L300.508 77.3633H308.185V105.824H302.668V85.4984H301.885L291.049 105.824H283.648V77.3633H289.125Z" fill="#000"/><path fill-rule="evenodd" clip-rule="evenodd" d="M339.846 77.3633V105.824H333.894V93.9022H321.261V105.824H315.309V77.3633H321.261V88.4473H333.894V77.3633H339.846Z" fill="#000"/><path fill-rule="evenodd" clip-rule="evenodd" d="M370.718 77.3633V105.824H364.766V93.9022H352.133V105.824H346.181V77.3633H352.133V88.4473H364.766V77.3633H370.718Z" fill="#000"/><path fill-rule="evenodd" clip-rule="evenodd" d="M397.083 91.989C397.083 86.7712 394.653 82.6207 389.318 82.6207C384.023 82.6207 381.553 86.7712 381.553 91.989C381.553 97.2069 384.023 101.357 389.318 101.357C394.653 101.357 397.083 97.2069 397.083 91.989ZM403.17 91.989C403.17 100.29 398.31 106.615 389.318 106.615C380.319 106.615 375.466 100.29 375.466 91.989C375.466 83.688 380.319 77.3633 389.318 77.3633C398.31 77.3633 403.17 83.688 403.17 91.989Z" fill="#000"/><path fill-rule="evenodd" clip-rule="evenodd" d="M426.297 97.2543C426.297 94.8589 424.809 93.6255 421.745 93.6255H414.701V100.764H421.666C424.65 100.764 426.297 99.6418 426.297 97.2543ZM425.489 85.4589C425.489 83.348 424.12 82.3124 421.421 82.3124H414.701V88.6528H421.461C424.168 88.6449 425.489 87.6092 425.489 85.4589ZM432.455 97.5705C432.455 102.314 429.352 105.824 422.553 105.824H408.709V77.3633H422.189C428.553 77.3633 431.648 80.834 431.648 84.8976C431.648 87.4907 430.484 89.7201 428.632 90.6372V91.4356C430.682 92.2737 432.455 94.7403 432.455 97.5705Z" fill="#000"/><path fill-rule="evenodd" clip-rule="evenodd" d="M444.361 92.9456H451.976L449.031 83.0634H447.306L444.361 92.9456ZM453.543 98.1318H442.873L440.601 105.824H434.831L443.736 77.3633H452.799L461.743 105.824H455.815L453.543 98.1318Z" fill="#000"/><path fill-rule="evenodd" clip-rule="evenodd" d="M487.696 105.935H465.699V77.3633H471.564V100.614H483.524V77.3633H489.389V100.614H493.403V112.939H487.696V105.935Z" fill="#000"/><path fill-rule="evenodd" clip-rule="evenodd" d="M503.63 77.3633V97.2543H504.413L515.004 77.3633H522.69V105.824H517.173V85.4984H516.389L505.553 105.824H498.152V77.3633H503.63Z" fill="#000"/><path fill-rule="evenodd" clip-rule="evenodd" d="M549.506 70.2452C549.19 73.9847 546.514 76.309 542.058 76.309C537.61 76.309 534.926 73.9847 534.618 70.2452H538.947C539.106 71.5813 540.127 72.6881 542.058 72.6881C543.95 72.6881 544.971 71.6288 545.169 70.2452H549.506ZM535.291 77.7241V97.3621H536.074L546.673 77.7241H554.351V105.821H548.834V85.7485H548.042L537.214 105.821H529.813V77.7241H535.291Z" fill="#000"/><path fill-rule="evenodd" clip-rule="evenodd" d="M283.648 130.343H292.949L297.579 141.703H298.371L303.001 130.343H312.143V158.804H306.595V136.604H305.795L300.611 149.277H295.181L289.996 136.604H289.197V158.804H283.648V130.343Z" fill="#000"/><path fill-rule="evenodd" clip-rule="evenodd" d="M338.511 144.181C338.511 138.964 336.081 134.813 330.747 134.813C325.451 134.813 322.982 138.964 322.982 144.181C322.982 149.399 325.451 153.55 330.747 153.55C336.081 153.55 338.511 149.399 338.511 144.181ZM344.598 144.181C344.598 152.483 339.738 158.807 330.747 158.807C321.747 158.807 316.895 152.483 316.895 144.181C316.895 135.88 321.747 129.556 330.747 129.556C339.738 129.556 344.598 135.88 344.598 144.181Z" fill="#000"/><path fill-rule="evenodd" clip-rule="evenodd" d="M373.884 149.281C373.014 154.894 368.7 158.807 362.091 158.807C353.463 158.807 348.555 152.799 348.555 144.181C348.555 135.564 353.502 129.556 362.091 129.556C368.383 129.556 372.618 133.113 373.607 138.292H367.433C366.761 136.038 364.9 134.813 362.091 134.813C357.025 134.813 354.611 138.924 354.611 144.181C354.611 149.399 357.025 153.55 362.091 153.55C365.138 153.55 367.196 151.969 367.75 149.281H373.884Z" fill="#000"/><path fill-rule="evenodd" clip-rule="evenodd" d="M379.423 130.343H385.399V141.466H392.008L397.43 130.343H403.596L397.027 144.178L403.961 158.804H397.787L392.056 146.842H385.399V158.804H379.423V130.343Z" fill="#000"/><path fill-rule="evenodd" clip-rule="evenodd" d="M425.508 150.234C425.508 147.838 424.02 146.605 420.957 146.605H413.912V153.744H420.877C423.861 153.744 425.508 152.621 425.508 150.234ZM424.7 138.438C424.7 136.327 423.331 135.292 420.632 135.292H413.912V141.632H420.672C423.379 141.624 424.7 140.589 424.7 138.438ZM431.666 150.55C431.666 155.293 428.563 158.804 421.764 158.804H407.92V130.343H421.4C427.764 130.343 430.859 133.813 430.859 137.877C430.859 140.47 429.695 142.699 427.843 143.616V144.415C429.893 145.253 431.666 147.72 431.666 150.55Z" fill="#000"/><path fill-rule="evenodd" clip-rule="evenodd" d="M462.114 158.804H468.074V130.343H462.114V158.804ZM452.821 149.396C452.821 146.723 451.381 145.213 447.415 145.213H442.373V153.586H447.415C451.381 153.586 452.821 152.107 452.821 149.396ZM436.413 158.804V130.343H442.373V139.988H448.333C455.022 139.988 458.94 143.537 458.94 149.356C458.94 155.254 455.014 158.804 448.333 158.804H436.413Z" fill="#000"/><path fill-rule="evenodd" clip-rule="evenodd" d="M47.618 163.529C46.3763 165.066 44.4801 165.585 43.3599 164.689C42.3747 163.9 42.3477 162.262 43.2047 160.833C42.4962 161.015 41.8686 161.4 41.4503 162.006C40.3908 163.536 41.0049 165.814 42.8403 167.095C44.6758 168.382 47.0309 168.173 48.0903 166.65C48.8326 165.592 48.7449 164.163 48.0093 162.963C47.8946 163.152 47.7664 163.347 47.618 163.529ZM110.435 55.0165C108.222 52.9002 108.877 48.7214 108.877 48.7214C107.945 49.5033 106.758 54.9626 108.728 57.726C111.009 60.9342 113.054 61.379 114.862 64.8703C115.085 64.3715 114.801 63.1246 114.329 62.1878C113.621 60.7657 113.344 59.5862 115.017 59.1009C119.748 57.726 124.148 64.5468 126.732 64.4322C130.349 64.2772 131.159 61.0353 131.314 60.8803C131.469 60.7252 129.411 62.2822 127.083 62.0058C123.398 61.561 121.691 57.4227 117.548 56.5734C114.896 56.041 112.656 57.1396 110.435 55.0165ZM107.918 131.009C106.69 132.809 107.628 135.35 110.888 136.3C113.823 137.156 115.766 138.046 117.204 139.495C119.316 141.604 120.301 141.867 120.807 141.854L30.6264 16.8348L29.432 17.7043C29.432 17.7043 81.4729 89.8552 104.619 121.957C105.482 123.15 109.005 129.412 107.918 131.009ZM107.568 136.704C104.14 136.792 100.205 138.012 96.2444 134.345C91.1091 129.601 85.7579 132.634 85.7579 132.634C85.7579 132.634 89.1387 136.003 87.256 137.392C84.1924 139.657 86.4462 142.312 86.1763 143.35C85.8996 144.381 82.8158 144.597 77.6535 142.238C74.7181 140.883 72.0324 140.93 70.2644 141.213C68.9283 141.436 69.3736 142.406 69.6706 142.683C69.6706 142.683 71.8434 144.671 72.6869 145.224C73.3685 145.655 75.096 147.091 75.7438 146.626C76.3714 146.174 75.0015 143.633 75.0015 143.633C75.0015 143.633 85.1776 147.03 88.7338 147.03C92.8703 147.03 88.997 140.149 92.2495 139.825C93.8893 139.657 95.9407 142.218 99.3147 142.703C101.67 143.047 103.937 142.042 106.252 141.463C108.715 140.85 109.646 143.903 109.99 146.592C110.051 147.03 110.139 148.142 110.611 148.958C111.421 145.082 112.507 136.59 107.568 136.704ZM133.318 144.664C131.975 141.052 129.418 142.609 128.271 142.211C127.123 141.813 125.639 140.384 125.16 136.549C124.681 132.708 121.421 134.784 121.421 134.784C121.421 134.784 125.193 142.353 126.712 146.383C128.237 150.407 129.519 147.286 131.375 149.497C133.244 151.708 133.028 163.058 131.969 166.711C130.558 171.55 127.731 174.96 124.849 177.259C127.474 176.955 132.367 171.806 133.743 168.429C135.322 164.554 134.418 160.975 134.418 160.975L136.625 160.779L135.275 157.261L137.407 156.938C137.421 156.938 134.654 148.263 133.318 144.664ZM45.6408 151.842C42.9416 151.101 40.0332 150.966 37.1517 151.35C34.1759 151.795 31.7803 152.638 29.2903 152.51C26.8137 152.449 24.4924 151.478 22.9809 149.686C22.2993 148.897 21.8067 147.974 21.4491 146.996C22.6435 144.523 24.9715 142.016 29.1148 139.71C43.6029 131.656 38.8118 122.571 37.9075 112.043C37.4487 106.698 38.5351 101.825 41.2816 99.3585C45.1617 95.8605 51.6803 96.2918 51.6803 96.2918C50.938 95.3415 42.206 92.2142 35.539 94.1485C28.3995 96.2244 27.0769 101.394 25.8488 105.067C24.7893 108.255 23.3992 112.003 17.0898 114.651C6.47515 119.106 7.19044 127.457 7.19044 127.457C7.19044 127.457 3.34405 119.208 13.6551 112.239C26.753 103.389 21.7122 96.5884 26.0917 92.531C29.513 89.3699 33.6023 89.8754 39.851 91.5806C38.7308 90.2529 22.1306 83.2905 20.2074 98.0779C18.5744 110.648 6.56962 108.896 4.48447 120.724C3.02015 129.115 10.9558 136.145 10.9558 136.145C10.9558 136.145 4.61269 123.44 17.0898 118.304C25.7206 114.759 30.6399 110.661 31.922 106.617C31.8478 107.911 31.8613 109.286 31.895 110.789C32.03 116.478 34.7359 120.92 33.9059 128.92C33.4471 133.321 25.4034 137.715 20.916 142.238C21.0712 140.209 21.6178 138.241 22.63 136.617C23.7636 134.885 25.6193 133.024 26.4291 130.976C27.3536 128.954 27.4818 126.803 27.1849 125.065C26.942 123.649 26.4426 122.524 25.9095 121.573C25.7071 121.654 25.5181 121.735 25.3292 121.796C26.2402 123.926 26.7463 127.161 24.9918 130.302C24.1213 132.101 22.576 133.375 20.9295 135.485C19.4314 137.574 18.3922 140.202 18.2572 143.067C18.2167 143.977 18.3045 144.907 18.4597 145.844C16.6242 150.649 18.7161 156.857 20.3896 159.728C22.3938 163.145 24.2765 165.646 23.298 169.616C22.3128 173.585 25.7611 172.21 28.2038 172.251C28.9731 172.258 29.7761 172.264 30.5049 172.264C32.111 172.258 32.7723 171.092 31.7871 169.514C30.0798 166.791 27.3671 162.761 25.2077 161.036C23.2778 159.492 20.1264 155.435 20.4166 150.737C23.2643 154.12 26.4696 155.185 29.1148 155.428C32.2257 155.704 35.1611 154.532 37.5499 154.154C40.0602 153.756 42.6312 153.824 44.9592 154.39C47.2806 154.97 49.3927 156.035 51.019 157.457C52.6722 158.872 53.5832 160.753 54.0623 162.566C54.9598 166.138 52.5035 169.487 50.5196 171.247C50.6411 171.381 50.7963 171.509 50.9313 171.631C54.3997 169.541 56.269 165.895 55.5941 161.541C54.9598 157.261 51.0865 153.163 45.6408 151.842ZM42.8134 84.9283C47.0714 89.4239 51.6465 87.6175 53.6912 87.8602C55.7359 88.0961 58.0909 93.3398 56.8493 98.4217C55.6076 103.504 55.115 102.627 54.2648 105.815C53.1986 109.832 58.1719 112.71 57.018 116.411C56.7008 117.442 55.9855 118.918 56.8493 120.07C58.1921 121.877 60.3718 119.497 63.1182 119.902C65.2708 120.212 67.167 119.491 68.105 118.925C67.7811 117.354 61.5797 118.318 60.1896 115.784C59.5822 114.665 57.956 103.113 61.5527 97.9499C64.8592 93.2184 61.7889 91.7356 59.5283 87.9141C62.6256 86.2089 69.9202 82.5828 69.9202 82.5828C72.3091 85.3327 73.9961 87.7052 75.4469 91.0212C76.2162 92.6658 76.7425 94.4384 76.6818 96.2177C76.729 98.024 76.0542 99.8033 74.9138 101.414C76.4254 101.178 77.8087 98.4756 78.2271 96.3929C78.6252 94.3036 78.3216 92.1535 77.7547 90.1652C75.6493 83.7219 70.7503 79.1118 70.7503 79.1118C70.7503 79.1118 64.1237 81.3831 57.9762 84.7194C56.0395 81.0798 54.0893 81.7269 51.6668 81.9358C49.2645 82.1447 47.8137 79.6105 47.8137 79.6105C49.6761 80.2036 52.2674 80.3047 55.7426 78.9365C63.5298 75.8631 60.5742 69.4265 60.5742 69.4265C60.5742 69.4265 60.7362 74.0973 56.08 74.7578C53.1851 75.1622 45.5868 73.2817 45.5868 73.2817C45.5868 73.2817 51.6735 72.574 52.9152 69.0693C54.6022 64.2704 59.4338 66.1576 59.4338 66.1576C59.4338 66.1576 56.856 63.1247 52.8814 65.4971C50.4589 66.9597 46.4371 67.4247 41.5042 64.9242C36.5782 62.4304 34.7899 66.5688 33.7912 66.6699C32.7993 66.7844 32.0232 65.1534 32.5766 63.4549C33.1367 61.7497 38.7983 60.1456 47.321 59.8221C52.9489 59.6064 55.7089 60.7118 56.9303 61.4936C56.9438 61.0285 55.4254 58.9459 50.7895 57.8068C46.1536 56.6611 46.4573 54.7671 46.6732 51.4983C46.8892 48.2294 42.1386 49.537 40.9846 49.1258C39.8307 48.7147 40.9037 46.1468 40.9037 46.1468C39.2436 46.6253 37.975 47.9666 38.0357 49.9683C38.0695 51.3028 39.3516 52.2666 40.627 52.8934C41.9024 53.527 42.1116 54.6728 39.8172 56.0073C37.9615 57.0857 35.3028 58.4876 31.7398 60.0175C23.8109 63.4145 33.7102 69.2715 30.2283 71.0643C26.7328 72.8571 25.8825 75.2026 25.6868 76.4832C25.2549 79.3881 27.1984 81.5516 27.1984 81.5516C34.0139 77.8514 38.5553 80.4395 42.8134 84.9283ZM83.1599 74.5421C83.1599 71.6304 83.9089 70.2285 84.712 70.1948C87.1682 70.0937 87.6946 73.5715 87.7283 74.5151C87.8295 77.2852 85.7849 78.613 85.7849 78.613C87.5394 78.7613 88.9227 76.3349 89.1522 74.7915C89.4828 72.5066 89.0779 71.7181 88.2682 70.2016C88.2682 70.2016 93.4034 75.1689 92.8568 80.6822C92.236 86.9301 85.1911 90.2057 85.1911 90.2057C87.2762 90.9538 93.3157 90.3472 97.1756 85.4271C99.308 82.7109 100.239 78.5793 97.6547 72.0618C95.3131 66.1441 90.8459 61.1364 95.5965 49.7998C100.226 38.7463 112.473 37.304 119.842 42.5544C120.321 42.8914 120.598 43.3025 120.76 43.7339C121.239 45.0414 117.798 46.7534 119.302 47.5419C120.342 48.0879 121.698 48.2294 122.872 49.1191C123.945 49.9346 124.161 50.6288 124.708 51.1343C125.119 51.5185 125.301 51.5926 125.7 51.5926C122.366 47.6902 121.813 43.2419 121.273 38.5441C118.655 37.8701 114.505 35.7471 110.402 35.2685C107.831 34.9652 101.609 34.5608 95.3671 37.6275C88.3357 41.0784 80.8993 47.7981 80.8993 63.374C80.8926 70.0735 83.1599 74.9263 83.1599 74.5421ZM4.90285 110.803C8.52655 109.819 8.52655 107.13 8.57379 106.577C9.15412 107.345 9.35656 108.188 9.37006 109.28C10.9693 107.197 10.5847 103.584 6.66409 101.428C6.66409 101.428 6.88678 106.173 3.85016 107.844C0.685324 109.583 0.192717 110.695 0.0172679 112.414C-0.0569606 113.256 0.104992 114.132 0.563859 114.806C0.97549 115.487 1.67054 115.966 2.3251 116.127C1.36688 114.84 1.17793 111.814 4.90285 110.803ZM80.6969 44.482C71.8164 44.9875 68.7123 41.8063 62.6459 38.8811C56.5591 35.9493 51.3294 38.0926 50.4117 39.4742C53.2391 39.6495 56.4512 40.7751 62.5446 44.5966C74.8396 52.3205 80.6969 44.482 80.6969 44.482ZM76.7155 25.6439C75.4267 25.9877 72.3023 26.4931 73.7599 33.6981C75.2242 40.9099 79.1178 39.1642 80.1638 38.2408C80.1638 38.2408 74.8733 37.6882 74.7181 31.4403C74.5696 25.1789 81.79 26.3314 81.79 26.3314C81.3582 25.8461 78.7602 25.098 76.7155 25.6439ZM155.843 117.287C154.095 111.066 148.521 98.3812 144.709 92.5984C140.876 86.8088 138.919 90.9605 137.394 92.2681C135.862 93.5756 131.381 101.118 129.418 91.3987C127.447 81.6729 117.413 73.2548 117.413 73.2548C119.485 80.5743 118.931 85.9326 118.391 90.6303C117.852 95.3213 119.046 96.9658 119.046 99.7966C119.046 102.641 110.543 104.501 110.091 106.685C109.659 108.869 122.757 117.839 135.228 108.848C138.98 106.146 141.315 116.633 142.509 119.47C143.717 122.315 141.308 123.191 144.149 126.466C146.99 129.742 144.803 132.505 144.803 134.548C144.803 136.462 150.431 141.274 151.464 140.223C153.279 138.416 149.169 127.659 147.536 123.946C145.896 120.225 143.278 108.208 141.429 104.932C140.363 103.059 134.884 104.386 134.884 104.386L134.499 102.931C134.499 102.931 135.262 101.96 135.963 101.219C141.652 95.3145 141.207 97.7207 147.104 104.932C152.995 112.137 145.896 114.988 151.025 118.702C156.16 122.423 157.584 123.514 155.843 117.287ZM62.3692 20.6159C62.3692 20.6159 63.4624 20.9866 65.5543 21.0338C67.6462 21.0742 68.6853 19.1331 68.6853 19.1331C63.5906 18.6277 62.0993 16.8281 62.0993 16.8281C62.0993 16.8281 66.9579 16.5787 69.4141 16.2552C71.8704 15.9249 76.3511 14.7252 76.3511 14.7252C76.3511 14.7252 76.1824 18.7422 76.1487 21.0742C76.1284 23.4063 79.1246 22.894 80.1233 22.5773C81.3852 22.1796 81.5809 17.529 81.79 13.5525C81.9453 10.5465 79.7184 10.5195 78.443 11.052C76.5671 11.8338 73.0041 13.6671 69.151 14.8466C65.2978 16.0193 59.2651 15.1633 59.2651 15.1633L58.9344 16.417L64.009 19.5375L62.3692 20.6159ZM70.7165 39.6899L72.0931 39.1036C72.0931 39.1036 71.0404 36.0234 70.9662 33.3005C70.9055 30.5641 72.0256 24.5184 72.0256 24.5184H70.7233C70.7233 24.5184 70.1294 28.96 69.3602 32.8489C68.5976 36.7378 66.5597 35.9762 65.561 35.9021C64.5623 35.8279 56.6401 34.6889 56.6401 34.6889V35.8549C56.6401 35.8549 57.1395 35.9223 61.1478 36.5019C65.1561 37.0816 70.7165 39.6899 70.7165 39.6899ZM75.6561 56.8093C72.39 58.9055 67.0186 57.8675 67.0186 57.8675C67.7406 58.8785 71.6342 60.0782 73.5979 60.0445C75.2984 60.0108 76.8032 59.3368 78.1394 57.8675C81.0545 54.6795 79.8669 49.3685 79.1583 48.7012C79.1651 48.7012 78.8412 54.7671 75.6561 56.8093ZM68.0983 151.377C60.5877 143.882 63.3274 144.637 68.0983 137.951C71.6275 132.997 88.8552 128.623 97.5332 126.702L97.3645 125.907C92.9648 126.103 86.372 126.332 79.7521 126.325C68.4087 126.318 63.8335 121.998 60.8914 122.544C49.6154 124.653 57.6321 137.587 44.4059 135.754C31.173 133.928 31.6116 147.643 31.6116 147.643C35.3635 140.014 39.2436 141.085 42.233 140.957C45.6948 140.809 49.0688 143.363 53.9274 139.279C54.9936 138.389 59.8252 130.564 59.1301 134.474C58.7252 136.758 56.7481 139.367 55.169 141.16C54.0421 142.44 53.3875 143.417 55.6819 144.711C56.4984 145.177 57.5713 145.797 58.9614 146.599C64.3194 149.679 63.4286 153.177 59.9399 153.002C57.4566 152.867 54.5212 151.647 52.0582 151.391C51.0595 151.29 49.9258 151.701 51.5048 152.456C52.3348 152.853 53.2728 153.426 54.0961 154.242C58.0234 158.171 53.3268 156.621 64.5758 156.014C66.9713 155.88 68.6719 155.657 69.8798 155.408C74.3537 154.43 69.0835 152.355 68.0983 151.377ZM125.949 157.915C125.045 156.506 124.316 154.532 123.473 152.766C121.678 149.012 123.439 149.733 122.332 147.569C121.091 145.177 120.47 147.522 117.345 142.737C116.731 141.786 115.49 142.204 115.341 144.496C115.179 146.781 119.012 148.937 120.76 154.478C122.521 160.031 123.965 160.672 122.535 164.075C121.124 167.486 114.167 167.277 114.167 167.277C119.599 172.932 130.646 165.221 125.949 157.915Z" fill="#000"/><path fill-rule="evenodd" clip-rule="evenodd" d="M184.453 184L182.193 183.178L248.769 0L251.023 0.822271L184.453 184Z" fill="#000"/></svg>