<svg xmlns="http://www.w3.org/2000/svg" viewBox="0 0 154.52 91.42"><defs><style>.cls-1{fill:#164c9b}</style></defs><g id="Слой_2" data-name="Слой 2"><g id="Layer_1" data-name="Layer 1"><path class="cls-1" d="M78.38,91.21a14.65,14.65,0,0,0,4.9-2.4l26.49-19,3.21-2.3,3.29-2.37a3.31,3.31,0,0,1,3.64-.38l4.72,1.87c1.89.79,3.74,1.53,5.59,2.28s3.7,1.49,5.58,2.28a29.42,29.42,0,0,0,8.18,2,18.43,18.43,0,0,0,6.28-.29,4.85,4.85,0,0,0,4.24-4.21,7.29,7.29,0,0,0-1.32-4.63A19.65,19.65,0,0,0,145.73,58c-2.71-1.25-6-2.68-9.7-4.24l-5.47-2.1c-.6-.19-1.19-.4-1.78-.62s-1.14-.42-1.75-.61A3.93,3.93,0,0,1,124.47,48c-.12-.67-.29-1.39-.47-2.11L119.34,9.25c-.18-1.12-.37-2.26-.64-3.56a5.13,5.13,0,0,0-3-4A15.8,15.8,0,0,0,109,0a3.67,3.67,0,0,0-4.11,3,12.57,12.57,0,0,0-.51,2.47c-.5,3.82-.94,7.7-1.37,11.45s-.87,7.67-1.37,11.48l-.06.49a27.85,27.85,0,0,1-1.64,7.65c-.17.33-.28.59-.4.84s-.25.57-.41.88l-.28.51L82.6,33.37c-.87-.27-1.71-.56-2.54-.86s-1.65-.58-2.52-.85l-.27-.08-.13-.25a1.25,1.25,0,0,1-.13-.6l-.07-.13,0-.13-.13-2.22c-.07-.93-.06-1.84-.06-2.73s0-1.75-.06-2.63a4.6,4.6,0,0,0-3-4.28,35,35,0,0,0-3.54-1.23A3.17,3.17,0,0,0,66,19.25a7.86,7.86,0,0,0-.6,1.51L63.09,26c-2.75,5.86-5.5,12.07-8.19,18.47a4.62,4.62,0,0,0-.56,2.12v.27a4.22,4.22,0,0,0,1,3.2,6.26,6.26,0,0,0,5.47,1.82,7.86,7.86,0,0,0,5.08-2.47l1.35-1.15L71,44.94l.41.18c2.08.94,4.13,1.89,6.18,2.84,3.54,1.64,7.19,3.33,10.8,4.88l3.47,1.6L90.9,56a28.72,28.72,0,0,1-4.18,5.81L71.44,79.45c-.37.45-.77.9-1.15,1.32a19.73,19.73,0,0,0-1.39,1.66,4.09,4.09,0,0,0-.75,4.49,4.2,4.2,0,0,0,1.31,1.46,3.47,3.47,0,0,0,1.15.86l.19.1A9.11,9.11,0,0,0,78.38,91.21ZM72,87.53a8.89,8.89,0,0,1-1.16-1c-1.09-1-1.16-1.85-.26-2.91A21.12,21.12,0,0,1,72,81.94c.37-.41.75-.83,1.12-1.29l15.5-17.34A47.36,47.36,0,0,0,93,57.12l1.11-1.83,1-1.91L89.32,50.6c-4.78-2.26-9.69-4.48-14.45-6.63l-3.12-1.41a1.65,1.65,0,0,0-2.13.36c-.65.55-1.27,1.14-1.89,1.72s-1.27,1.2-1.93,1.75l-1.3,1.1a6.08,6.08,0,0,1-3.94,1.81,4.65,4.65,0,0,1-3.68-1.47l-.11-.15a2.64,2.64,0,0,1-.18-1.38,2.84,2.84,0,0,1,.47-1.51C59.45,39.37,62.3,33,65.32,26.51l2.28-5.15a5.08,5.08,0,0,1,.5-1.06l.24-.41a1,1,0,0,1,.52-.62l.25-.13.77.24a26.75,26.75,0,0,1,3.17,1.13,2.26,2.26,0,0,1,1.5,2.31c.12,1.8.16,3.47.11,5.39l.16,3.43a1.88,1.88,0,0,0,1.29,1.83c.93.28,1.89.62,2.86,1s1.89.65,2.88,1l18,6.12.45-.89.29-.48a4.73,4.73,0,0,1,.32-.54c.09-.22.26-.52.42-.81a6.55,6.55,0,0,0,.59-1.24,29.66,29.66,0,0,0,1.93-8.81c1-8.64,1.85-16.14,2.74-22.94A10.83,10.83,0,0,1,107,3.61a1.89,1.89,0,0,1,.6-1,1.2,1.2,0,0,1,1.06-.13,15.72,15.72,0,0,1,6,1.59c.79.23,1.3,1,1.59,2.35s.47,2.52.58,3.53l4.64,36.52a14.28,14.28,0,0,0,.42,2.09L122,49a6,6,0,0,0,3.7,3.8c.6.19,1.19.4,1.78.62s1.15.42,1.76.61l5.53,2.13,3.22,1.34c2.43,1,4.53,1.87,6.48,2.77A16.92,16.92,0,0,1,151,65.71a4.11,4.11,0,0,1,.91,2.61,1.77,1.77,0,0,1-.29,1.3,3,3,0,0,1-2.05,1.23,21.21,21.21,0,0,1-5.7.21,23,23,0,0,1-7.42-1.88c-3.64-1.4-7.43-3-11.1-4.53l-4.54-1.82a5.59,5.59,0,0,0-6.09.56c-2.12,1.53-4.23,3.06-6.51,4.67L81.7,87A11.07,11.07,0,0,1,77.58,89a8.32,8.32,0,0,1-1.2.1A7.37,7.37,0,0,1,72,87.53Z"/><path class="cls-1" d="M.79,4.27l52,24.17a.89.89,0,0,0,.82.1,1.7,1.7,0,0,0,.74-.68,1.32,1.32,0,0,0-.56-1.51L1.68,2.12A.9.9,0,0,0,1.28,2a1.35,1.35,0,0,0-1.15.63,1,1,0,0,0,0,1A2.11,2.11,0,0,0,.79,4.27Z"/><path class="cls-1" d="M16.12,23.08,48,37.86a1.31,1.31,0,0,0,1.54-.55,1.53,1.53,0,0,0-.66-1.72L17,20.94a.9.9,0,0,0-.4-.09,1.33,1.33,0,0,0-1.15.63,1,1,0,0,0,0,1A2.3,2.3,0,0,0,16.12,23.08Z"/><path class="cls-1" d="M5.53,18l5.14,2.38a1.33,1.33,0,0,0,1.55-.55,1.32,1.32,0,0,0-.55-1.54L6.42,15.88A.87.87,0,0,0,6,15.8a1.31,1.31,0,0,0-1.14.62,1,1,0,0,0,0,1A2.4,2.4,0,0,0,5.53,18Z"/><path class="cls-1" d="M20.34,2.45A2.4,2.4,0,0,0,21,3L26.12,5.4a1.29,1.29,0,0,0,1.54-.55,1.31,1.31,0,0,0-.55-1.54L21.86.87a.83.83,0,0,0-.39-.08,1.31,1.31,0,0,0-1.15.63,1,1,0,0,0,0,1Z"/><path class="cls-1" d="M30.93,7.51a2.1,2.1,0,0,0,.63.56L56.37,19.7a1.31,1.31,0,0,0,1.54-.55,1.31,1.31,0,0,0-.55-1.54L32.45,5.92a1.06,1.06,0,0,0-.4-.08,1.35,1.35,0,0,0-1.15.63,1.59,1.59,0,0,0,0,1Z"/></g></g></svg>