<svg xmlns="http://www.w3.org/2000/svg" viewBox="0 0 111.43 107.22"><g fill="#164c9b"><path class="cls-1" d="M54.9,42.64l2.77-2V38.29l-2.52,2.13a27.91,27.91,0,0,1-18.08,6.35,28.64,28.64,0,0,1-16.53-5.14l-4.19-3,5.43.45c.6,0,1.2.08,1.78.08h4.28a.75.75,0,1,0,0-1.49H23.56c-7,0-13.25-3.82-15.5-9.52L6.75,24.83l3.66,1.59a21.44,21.44,0,0,0,8.53,1.74h5.28a.82.82,0,0,0,.87-.74.68.68,0,0,0-.26-.53.93.93,0,0,0-.61-.22H18.94c-8,0-15-4.84-16.79-11.5l-.6-2.28L12.8,15.33a32.28,32.28,0,0,0,6.81.73H37.42c4.08,0,7.49,2.5,8.1,5.94.75,4.17,4.88,7.21,9.82,7.21h2.33V27.72H55.34c-4.08,0-7.48-2.5-8.1-5.94-.74-4.18-4.87-7.21-9.82-7.21H19.61a30.42,30.42,0,0,1-6.39-.68L1.08,11.25a1,1,0,0,0-.74.13A.7.7,0,0,0,0,12a14.92,14.92,0,0,0,5,11l.43.4v.55a14.75,14.75,0,0,0,6.9,12l.18.12,2.53,2.89A29,29,0,0,0,33.86,48.1h6.26A30.07,30.07,0,0,0,54.9,42.64Z"/><path class="cls-1" d="M64.53,42.64l-2.38-2V38.29l2.16,2.13a21.82,21.82,0,0,0,15.45,6.35,22.1,22.1,0,0,0,14.12-5.14l3.58-3-4.64.45c-.51,0-1,.08-1.52.08H87.65a.75.75,0,0,1-.75-.74.76.76,0,0,1,.75-.75H91.3a14,14,0,0,0,13.24-9.52l1.13-3.33-3.14,1.59a16,16,0,0,1-7.28,1.74H90.74a.75.75,0,1,1,0-1.49h4.51a14.79,14.79,0,0,0,14.34-11.5l.51-2.28-9.6,2.44a23.8,23.8,0,0,1-5.82.73H79.45A7,7,0,0,0,72.54,22a8.45,8.45,0,0,1-8.39,7.21h-2V27.72h2a7,7,0,0,0,6.92-5.94,8.43,8.43,0,0,1,8.38-7.21H94.68a22.23,22.23,0,0,0,5.45-.68l10.38-2.64a.74.74,0,0,1,.92.72,16.15,16.15,0,0,1-4.29,11l-.38.4v.55a15.42,15.42,0,0,1-5.9,12l-.15.12-2.16,2.89a23.65,23.65,0,0,1-16,9.25H77.15A23.47,23.47,0,0,1,64.53,42.64Z"/><path class="cls-1" d="M60.77,85.52V77.84h2.85a12.48,12.48,0,1,0,0-25H60.77V21.3l.69-.42a11.23,11.23,0,1,0-11.45,0l.69.42v4h0V48.1h0v4.78H47.36a12.49,12.49,0,0,0-10.94,18.5.7.7,0,0,0,1,.28.71.71,0,0,0,.35-.43.69.69,0,0,0-.06-.56,11,11,0,0,1,9.66-16.33H50.7v22H44.24a8.87,8.87,0,1,0,0,17.73h7.15l.21,1.16a54.28,54.28,0,0,0,3.49,11.5.76.76,0,0,0,1.35,0l0-.1a54.37,54.37,0,0,0,3.41-11.4l.21-1.16h3.62a5.82,5.82,0,1,1,0,11.64h-.14a.74.74,0,0,0,0,1.47h.14a7.29,7.29,0,1,0,0-14.58h-3.4l.16-1.56A54.34,54.34,0,0,0,60.77,85.52Zm2.85-31.18a11,11,0,0,1,0,22H60.77v-22ZM44.24,92.64a7.4,7.4,0,0,1,0-14.8H50.7v7.55a54.22,54.22,0,0,0,.3,5.69l.16,1.56ZM59.3,85.52a52.78,52.78,0,0,1-2.19,15.07l-1.35,4.53-1.36-4.53a52.61,52.61,0,0,1-2.23-15.2V77.84H59.3Zm0-9.14H52.17V22l1.66.28a11.08,11.08,0,0,0,3.81,0L59.3,22ZM55.74,21a9.77,9.77,0,1,1,9.76-9.76A9.78,9.78,0,0,1,55.74,21Z"/></g></svg>