<svg xmlns="http://www.w3.org/2000/svg" viewBox="0 0 99.59 105.75"><defs><style>.cls-1{fill:#164c9b}</style></defs><g id="Слой_2" data-name="Слой 2"><g id="Layer_1" data-name="Layer 1"><path class="cls-1" d="M36.9,47.29,39.64,46l.58-2.18-2.56,1.46A21.34,21.34,0,0,1,9.58,39L7,35.27l4.24,1.59c.47.18.94.33,1.41.46l3.43.91a.74.74,0,0,0,.89-.51.72.72,0,0,0-.52-.88L13,35.92a13.58,13.58,0,0,1-10-12.27l-.22-3.41,2.55,2.28A15.56,15.56,0,0,0,11.67,26l4.24,1.13a.72.72,0,0,0,.88-.51.71.71,0,0,0-.51-.88l-4.23-1.14A14.37,14.37,0,0,1,1.46,10.18l.09-2.27L10,12.61a23.4,23.4,0,0,0,5.29,2.15l14.3,3.82a6.75,6.75,0,0,1,5,7.31,8.21,8.21,0,0,0,6.08,8.88l1.87.5.37-1.4L41,33.37a6.77,6.77,0,0,1-5-7.32,8.2,8.2,0,0,0-6.07-8.87l-14.3-3.82a21.52,21.52,0,0,1-4.95-2L1.58,6.27a.73.73,0,0,0-.63,0,.77.77,0,0,0-.42.48A15.68,15.68,0,0,0,1.82,18.09l.24.48-.13.52a15,15,0,0,0,2.54,12.7l.11.15L5.89,35.2A23,23,0,0,0,18.64,47.91l5,1.34A22.69,22.69,0,0,0,36.9,47.29Z"/><path class="cls-1" d="M54.44,84.35V76.78h2.81a12.31,12.31,0,0,0,0-24.62H54.44V21l.68-.4a11.08,11.08,0,1,0-11.29,0l.68.4v4h0V47.44h0v4.72h-3.3A12.31,12.31,0,0,0,30.42,70.4a.73.73,0,0,0,1.33-.15.75.75,0,0,0-.06-.55,10.87,10.87,0,0,1,9.52-16.1h3.3V75.33H38.13a8.75,8.75,0,0,0,0,17.49h7.06L45.4,94a53.79,53.79,0,0,0,3.44,11.35.75.75,0,0,0,1.33,0l0-.1A53.44,53.44,0,0,0,53.57,94l.21-1.15h3.58a5.75,5.75,0,0,1,0,11.49h-.15a.72.72,0,0,0,0,1.44h.15a7.19,7.19,0,0,0,0-14.37H54l.16-1.54C54.34,88,54.44,86.18,54.44,84.35ZM57.25,53.6a10.87,10.87,0,1,1,0,21.73H54.44V53.6ZM38.13,91.38a7.3,7.3,0,0,1,0-14.6h6.38v7.45a52.53,52.53,0,0,0,.3,5.6L45,91.38Zm14.86-7a51.79,51.79,0,0,1-2.16,14.87l-1.33,4.46-1.34-4.46a52,52,0,0,1-2.2-15V76.78h7Zm0-9H46V21.71l1.63.28a11.36,11.36,0,0,0,3.77,0L53,21.71ZM49.48,20.71a9.64,9.64,0,1,1,9.63-9.63A9.64,9.64,0,0,1,49.48,20.71Z"/><path class="cls-1" d="M62.69,47.29,60,46l-.58-2.18,2.56,1.46A21.34,21.34,0,0,0,90,39l2.61-3.7-4.24,1.59c-.47.18-.95.33-1.41.46l-3.43.91a.72.72,0,1,1-.38-1.39l3.43-.92A13.61,13.61,0,0,0,96.65,23.65l.22-3.41-2.55,2.28A15.59,15.59,0,0,1,87.91,26l-4.23,1.13a.74.74,0,0,1-.89-.51.71.71,0,0,1,.08-.55.72.72,0,0,1,.43-.33l4.24-1.14a14.37,14.37,0,0,0,10.59-14.4L98,7.91l-8.41,4.7a23.4,23.4,0,0,1-5.29,2.15L70,18.58a6.76,6.76,0,0,0-5,7.31A8.2,8.2,0,0,1,59,34.77l-1.87.5-.37-1.4,1.87-.5a6.77,6.77,0,0,0,5-7.32,8.2,8.2,0,0,1,6.07-8.87L84,13.36a21.52,21.52,0,0,0,5-2L98,6.27a.76.76,0,0,1,.64,0,.73.73,0,0,1,.41.48,15.63,15.63,0,0,1-1.28,11.38l-.25.48.14.52a15,15,0,0,1-2.55,12.7l-.1.15L93.7,35.2A23,23,0,0,1,81,47.91l-5,1.34A22.69,22.69,0,0,1,62.69,47.29Z"/></g></g></svg>