<svg xmlns="http://www.w3.org/2000/svg" viewBox="0 0 88.78 143.79"><defs><style>.cls-1{fill:#164c9b}</style></defs><g id="Слой_2" data-name="Слой 2"><g id="Layer_1" data-name="Layer 1"><path class="cls-1" d="M49.06,11.59,52.54,11a6.28,6.28,0,0,1,.94-.08A3.73,3.73,0,0,1,56.88,13l1.83,3.11a5.39,5.39,0,0,0-9.65-4.55Z"/><path class="cls-1" d="M73.52,88.76h13.7c.84,0,1.33-.2,1.44-.4s0-.74-.38-1.48a77,77,0,0,0-7.62-11.1c-2.88-3.43-6.06-6.93-10.45-8.72A2,2,0,0,1,69,64.34l.33-1.12c.26-.86.51-1.72.72-2.59.31-1.28.7-2.56,1.07-3.79,1-3.2,1.85-6.19,1.64-9.42-.18-2.7-1-4.32-2.56-5.43-2.08-1.43-1.47-3.09-.83-4.21s1.42-2.45,2.13-3.67c3.54-6,7.2-12.25,8.74-19.21A10.48,10.48,0,0,1,85.46,8l1.19-.74C88.77,6,88.77,6,88.76,4c0-.66,0-1.33,0-2.14A2.33,2.33,0,0,0,88.26,0H82.53A2.24,2.24,0,0,1,82,.2a8.92,8.92,0,0,0-6.63,5.6l-.14.33c-.48,1.17-1,2.38-1.52,3.54-.68,1.47-1.31,3-1.93,4.47l0,.12a49.74,49.74,0,0,1-5.62,10.91,17.23,17.23,0,0,0-1,1.47c.26.2.92.66,1.4,1a51.86,51.86,0,0,0,6.29-11.52c.63-1.69,1.39-3.38,2-4.88l.62-1.38A1.79,1.79,0,0,1,77.6,8.31,2.57,2.57,0,0,1,79,9.19a2.32,2.32,0,0,1,.5,2.74H79l.46.14C77,20.51,74.16,27,70.53,32.41a9.59,9.59,0,0,0-.51.88l-3.18,5.52-1.26-.74a11.44,11.44,0,0,1-5.82-7.33,39.53,39.53,0,0,1-.84-4.69,30.24,30.24,0,0,0-1.08-5.42,4.12,4.12,0,0,1,.41-3.43,4.66,4.66,0,0,0,.25-.5l-9.76-4.55c-.06.12-.12.24-.17.37A5,5,0,0,1,46.5,15a6.37,6.37,0,0,0-2.68,7.13l1.23,4.49c.29,1.08.59,2.16.88,3.24a5.09,5.09,0,0,0,3.58,3.73,2,2,0,0,1,1.64,1.64l.18,1.12-1.22.53a3,3,0,0,1-.92.33c-5.3.88-10.27,3.17-15.07,5.38l-2.33,1.07c-2.45,1.11-4.88,2.26-7.31,3.41a174.53,174.53,0,0,1-19.55,8.3c-.92.31-1.89.64-2.82,1A3.44,3.44,0,0,0,0,59.74a3.57,3.57,0,0,0,2.48,3,3.36,3.36,0,0,0,2.94-.31A2.77,2.77,0,0,1,9.15,63c.51.53.78.57.85.57s.36,0,.93-.59q2.7-2.66,5.34-5.35a5.05,5.05,0,0,1,2.3-1.42q14.16-4,28.31-8.08a2.9,2.9,0,0,1,3.2.83c1.2,1.26,2.43,2.48,3.67,3.71l1.66,1.65a3.69,3.69,0,0,1,.92,3.36A3,3,0,0,1,54.39,60c-.46.16-.92.34-1.37.52a15.21,15.21,0,0,1-5.65,1.4H26.87c-1.29,0-1.41.17-1.57.51s-.24.51.64,1.5l3.14,3.58c3.75,4.25,7.63,8.66,11.36,13.06,1.24,1.46,2,1.5,3,1.06a2.44,2.44,0,0,1,2.09,0,2.76,2.76,0,0,1,1.32,1.93L47.26,85c.7,2.78,1.42,5.66,2.22,8.49a26,26,0,0,1,1,7.61l0,2.28a90.22,90.22,0,0,0,.13,9.59c.26,3.05.7,6.12,1.13,9.08.32,2.22.65,4.51.9,6.78.4,3.53.53,7.3-1.16,11a3.16,3.16,0,0,1-6.16-1.13q0-.78,0-1.56a27.61,27.61,0,0,0,0-3.17,18.78,18.78,0,0,1,2.65-12.29,4.33,4.33,0,0,1-1.29-.81l-.09-.07c-.59,1-1.13,2.16-1.65,3.23l-.11.24c-.27.55-.54,1.11-.82,1.66a2.53,2.53,0,0,0-.36,1.25v4.91c0,2.27,0,4.54,0,6.81a4.49,4.49,0,0,0,2.75,4.32,4.36,4.36,0,0,0,5-.58,2.63,2.63,0,0,1,3.65,0,4.72,4.72,0,0,0,4.49.79,4.83,4.83,0,0,0,3-3.66c.27-1.2.52-2.4.76-3.61.73-3.74.5-6.8-.71-9.34a14.61,14.61,0,0,1-1.23-6.37c0-2.53,0-5.11,0-7.6A129.16,129.16,0,0,0,61,99.1a3.67,3.67,0,0,1,.66-2.34q1.85-3.06,3.68-6.12l.2-.36a3.37,3.37,0,0,1,2.08-2,2.79,2.79,0,0,1,2.18.45h0a3.56,3.56,0,0,1,.44,0ZM78.29,4.93h0c.12-1.18,1.15-1.87,2.14-2.39a8.9,8.9,0,0,1,4.62-.85,2.08,2.08,0,0,1,1.59.66,1.83,1.83,0,0,1,.42,1.33,2.25,2.25,0,0,1-1.2,2.11c-1,.67-2,1.34-3,2a2.41,2.41,0,0,1-1.37.47A2.3,2.3,0,0,1,80,7.71C79,7,78.18,6.11,78.29,4.93ZM13.45,58.08l-.57.55a6.06,6.06,0,0,0-.51.53A3.3,3.3,0,0,1,10,60.61h0a2.68,2.68,0,0,1-2-1H7.37a9.23,9.23,0,0,1-1.79,1c-.32.15-.64.29-.94.45a2,2,0,0,1-1,.27,1.67,1.67,0,0,1-.55-.09A1.8,1.8,0,0,1,2,60.22a1.7,1.7,0,0,1,0-1.46,1.89,1.89,0,0,1,1.27-1,8,8,0,0,0,.9-.33,8.1,8.1,0,0,1,2.07-.66l0,0,.29-.06h0a18.39,18.39,0,0,1,3.24-1.32c.5-.17,1-.34,1.51-.53a2.1,2.1,0,0,1,2.7,1A1.81,1.81,0,0,1,13.45,58.08ZM69,68l1.48.89c6.36,3.86,10.35,9.72,14.21,15.38l1.06,1.56L83.65,87a6.91,6.91,0,0,1-1.31.13c-2.15,0-3.67-1.12-4.77-3.53a32.8,32.8,0,0,0-8.49-11.47,2.06,2.06,0,0,1-.67-2.57ZM50.81,32.05a3,3,0,0,1-1.51-.37C48,31,47.6,29.54,47,27.24l-1.46-5.38a4.73,4.73,0,0,1,3.08-6.08A6.06,6.06,0,0,1,53.2,16a4.59,4.59,0,0,1,2.34,2.64A41.59,41.59,0,0,1,57.29,27c.25,2.1-.77,3.57-3,4.25A13.21,13.21,0,0,1,50.81,32.05Zm4.53,16.23h0a2.52,2.52,0,0,1-1.77.9,2.62,2.62,0,0,1-1.79-.87l-.9-.92c-1.66-1.7-1.66-1.7-3.92-1l-.16,0-1.36.41-16,4.56L22.63,53.3a2.67,2.67,0,0,1-1,.2,2.17,2.17,0,0,1-1.06-.29l-2.28-1.33,2.77-1.43L22,50l7.24-3.33,11.58-5.33a32.37,32.37,0,0,1,6.9-2.06L50,38.74c1.51-.37,2.18-.88,2.56-2A13.35,13.35,0,0,1,53.43,35c.17-.31.33-.6.47-.91a3.68,3.68,0,0,1,3.18-1.92c.62-.07,1.76.1,2.14,2.08a1.16,1.16,0,0,0,.05.24,3.51,3.51,0,0,0,1.38,2c2,1.52,4,3.17,5.75,4.6l.12.07c1.85,1.07,1.33,2.47,1,3a2,2,0,0,1-3,.69l-.11-.06c-1.09-.29-2.24-.67-3.49-1.14a1.11,1.11,0,0,0-1.42.35c-.52.53-1.05,1.06-1.58,1.58l-.17.16C57,46.6,56.15,47.43,55.34,48.28ZM55.69,51a4.19,4.19,0,0,1,1.75-2.51,7,7,0,0,0,.82-.79,4,4,0,0,1,5.59-1.31,6.17,6.17,0,0,0,1.06.37,10.16,10.16,0,0,1,1.25.41c1.2.51,1.61.32,2.17-.46l2.26-3.11L71,47.45a15.35,15.35,0,0,1-.58,6.1c-.87,2.81-1.74,5.84-2.75,9.56a2.36,2.36,0,0,1-1.31,1.73,1.84,1.84,0,0,1-.66.12,2.77,2.77,0,0,1-1.44-.49c-1.88-1.19-3.55-2.18-5.08-3a2.75,2.75,0,0,1-1.48-1.69,2.5,2.5,0,0,1,.48-2,5.36,5.36,0,0,0,.41-.79l.27-.56a.93.93,0,0,0-.22-1.25,3.63,3.63,0,0,1-.36-.38,6.38,6.38,0,0,0-.75-.65C56.65,53.41,55.5,52.5,55.69,51ZM53.38,62.44a2.92,2.92,0,0,1,3.73-.3c2.11,1.3,4.25,2.58,6.39,3.86l1.42.86c.52.3,2.1,1.21,1.37,3a2,2,0,0,1-1.91,1.24c-.23,0-.43,0-.55,0l-.17,0a1.83,1.83,0,0,1-1.28-.38L51.92,63.69Zm8.47,14.43c0,.16,0,.32,0,.49v1.57c0,3.67-.44,4.24-4,5.13a3,3,0,0,1-.81.11,2.26,2.26,0,0,1-2-1.17c-.69-1.07-1.4-2.13-2.11-3.15a2.56,2.56,0,0,1-.24-2.57c.83-2,1.64-4,2.42-6.08A2.09,2.09,0,0,1,58.38,70c2.9,1.45,4.07,3.61,3.46,6.4A2.79,2.79,0,0,0,61.85,76.87ZM36.53,72.36a2.13,2.13,0,0,1-1.63-.8c-1-1.14-2-2.26-3-3.45l-4-4.56h8.79c3.5,0,7,0,10.49,0a3.93,3.93,0,0,1,3.48,1.64l1.18,1.65-1.94.58a98.76,98.76,0,0,0-12.32,4.71A2.58,2.58,0,0,1,36.53,72.36ZM44,79.7h0a3.07,3.07,0,0,1-.82.12,2.41,2.41,0,0,1-1.92-1c-.4-.48-.81-1-1.23-1.42l-.17-.2c-.28-.32-.56-.63-.83-.95a2.06,2.06,0,0,1-.67-1.87,1.92,1.92,0,0,1,1.24-1.36A75.39,75.39,0,0,1,51.9,68.68L54.64,68l-1.76,4.35c-.59,1.48-1.14,2.85-1.67,4.22a2.83,2.83,0,0,1-2.13,1.85C47.44,78.82,45.71,79.23,44,79.7Zm17.51,56.11c-.13.73-.29,1.47-.45,2.2-.11.49-.22,1-.32,1.46A3.05,3.05,0,0,1,58.4,142a2.79,2.79,0,0,1-.63.08,3.25,3.25,0,0,1-2.49-1.45,4,4,0,0,1-.89-2.86c.34-6.14-.53-12.33-1.36-18.32l0-.23c-.26-1.93-.53-3.86-.76-5.79a22.09,22.09,0,0,1-.12-4.13,64.4,64.4,0,0,0-3.2-24.63,9.22,9.22,0,0,1-.46-1.77,1.88,1.88,0,0,1,.82-2.65,1.85,1.85,0,0,1,1.46-.13A2.19,2.19,0,0,1,52,81.32c1,1.52,2,3,3,4.49a3.17,3.17,0,0,0,.36.49A2.79,2.79,0,0,1,58,89.19l0,.23c1,7.26,2,15.47,1.51,22.06v5c0,2.73,0,5.06,0,7.38a2.57,2.57,0,0,0,.28,1.41C61.75,128.25,62.3,131.7,61.53,135.81Zm3.11-47.37c-.45.79-.86,1.46-1.27,2.13l-1,1.66-1.91-.4-.55-1.12-.15-1.2c-.08-.67-.16-1.34-.25-2A2.35,2.35,0,0,1,61,84.77a3.07,3.07,0,0,1,3.23.58,2.13,2.13,0,0,1,1,1.47A2.09,2.09,0,0,1,64.64,88.44Zm.91-4.19c-.33-.23-.67-.47-1-.69a2.36,2.36,0,0,1-1-2.21v-1.1c0-1.59,0-3.19,0-4.78l0-.13a2,2,0,0,1,1.28-2.48,3.19,3.19,0,0,1,3.13.55,24.38,24.38,0,0,1,3.3,3.35,41.72,41.72,0,0,1,5,7.95L77,86.18l-1.56.55a8.69,8.69,0,0,1-2.8.49C69.8,87.22,67.54,85.64,65.55,84.25Z"/></g></g></svg>