<svg xmlns="http://www.w3.org/2000/svg" viewBox="0 0 54.69 60.85"><defs><style>.cls-1{fill:#fff}</style></defs><g id="Слой_2" data-name="Слой 2"><g id="Layer_1" data-name="Layer 1"><path class="cls-1" d="M42.17,39.54A1.41,1.41,0,0,0,43.58,41h4.29a1.41,1.41,0,0,0,1.41-1.41V35.25a1.41,1.41,0,0,0-1.41-1.41H43.58a1.41,1.41,0,0,0-1.41,1.41Zm1.1-4.61h4.91v4.92H43.27Z"/><path class="cls-1" d="M31.32,51.83h4.3a1.4,1.4,0,0,0,1.4-1.4v-4.3a1.4,1.4,0,0,0-1.4-1.4h-4.3a1.4,1.4,0,0,0-1.4,1.4v1.24a.55.55,0,1,0,1.09,0V45.82h4.92v4.92H31l0-.34a.54.54,0,0,0-.54-.52.55.55,0,0,0-.55.55A1.4,1.4,0,0,0,31.32,51.83Z"/><path class="cls-1" d="M37,35a1.41,1.41,0,0,0-1.4-1.41h-4.3A1.41,1.41,0,0,0,29.92,35v4.29a1.41,1.41,0,0,0,1.4,1.41h4.3A1.41,1.41,0,0,0,37,39.27Zm-1.09,4.6H31V34.67h4.92Z"/><path class="cls-1" d="M6.82,51.83h4.29a1.41,1.41,0,0,0,1.41-1.4v-4.3a1.41,1.41,0,0,0-1.41-1.4H6.82a1.41,1.41,0,0,0-1.41,1.4v4.3A1.41,1.41,0,0,0,6.82,51.83Zm-.32-6h4.92v4.92H6.5Z"/><path d="M12.52,23.82a1.41,1.41,0,0,0-1.41-1.4H6.82a1.41,1.41,0,0,0-1.41,1.4v4.3a1.41,1.41,0,0,0,1.41,1.4h4.29a1.41,1.41,0,0,0,1.41-1.4Zm-1.1,4.61H6.5V23.51h4.92Z" fill="#ee1944"/><path class="cls-1" d="M37,23.82a1.4,1.4,0,0,0-1.4-1.4h-4.3a1.4,1.4,0,0,0-1.4,1.4v4.3a1.4,1.4,0,0,0,1.4,1.4h4.3a1.4,1.4,0,0,0,1.4-1.4Zm-1.09,4.61H31V23.51h4.92Z"/><path class="cls-1" d="M49.28,23.82a1.41,1.41,0,0,0-1.41-1.4H43.58a1.41,1.41,0,0,0-1.41,1.4v4.3a1.41,1.41,0,0,0,1.41,1.4h4.29a1.41,1.41,0,0,0,1.41-1.4Zm-1.1,4.61H43.27V23.51h4.91Z"/><path class="cls-1" d="M12.52,35a1.41,1.41,0,0,0-1.41-1.41H6.82A1.41,1.41,0,0,0,5.41,35v4.29a1.41,1.41,0,0,0,1.41,1.41h4.29a1.41,1.41,0,0,0,1.41-1.41Zm-1.1,4.6H6.5V34.67h4.92Z"/><path class="cls-1" d="M24.77,23.82a1.41,1.41,0,0,0-1.41-1.4H19.07a1.41,1.41,0,0,0-1.41,1.4v4.3a1.41,1.41,0,0,0,1.41,1.4h4.29a1.41,1.41,0,0,0,1.41-1.4Zm-1.09,4.61H18.76V23.51h4.92Z"/><path class="cls-1" d="M24.77,35a1.41,1.41,0,0,0-1.41-1.41H19.07A1.41,1.41,0,0,0,17.66,35v4.29a1.41,1.41,0,0,0,1.41,1.41h4.29a1.41,1.41,0,0,0,1.41-1.41Zm-1.09,4.6H18.76V34.67h4.92Z"/><path class="cls-1" d="M11.17,0h-.41A2.39,2.39,0,0,0,8.37,2.39V4.12H4.16A4.17,4.17,0,0,0,0,8.28V56.7a4.15,4.15,0,0,0,4.15,4.15H50.53a4.16,4.16,0,0,0,4.16-4.15V8.28a4.17,4.17,0,0,0-4.16-4.16H46.32V2.39A2.39,2.39,0,0,0,43.93,0h-.41a2.39,2.39,0,0,0-2.39,2.39V4.12H13.56V2.39A2.39,2.39,0,0,0,11.17,0ZM9.46,2.39a1.3,1.3,0,0,1,1.3-1.3h.41a1.3,1.3,0,0,1,1.29,1.3V4.12h-3ZM53.59,56.7a3.07,3.07,0,0,1-3.06,3.06H4.15A3.07,3.07,0,0,1,1.09,56.7V56l.57.42a4.17,4.17,0,0,0,2.5.83H40.72A4.14,4.14,0,0,0,43.66,56l9.93-9.94Zm-11.24-.91.3-1.23a3.83,3.83,0,0,0,.1-.82v-6a2.42,2.42,0,0,1,2.41-2.42h6a3.31,3.31,0,0,0,.83-.1l1.22-.29Zm-.13-53.4a1.3,1.3,0,0,1,1.3-1.3h.41a1.3,1.3,0,0,1,1.29,1.3V4.12h-3ZM41.13,5.21v3a2.39,2.39,0,0,0,2.39,2.39.55.55,0,0,0,0-1.1,1.3,1.3,0,0,1-1.3-1.29v-3h8.31a3.07,3.07,0,0,1,3.06,3.07V17H14.82a.55.55,0,1,0,0,1.09H53.59V41.8a2.41,2.41,0,0,1-2.41,2.41h-6a3.51,3.51,0,0,0-3.51,3.51v6a2.41,2.41,0,0,1-2.41,2.41H4.16a3.08,3.08,0,0,1-3.07-3.07v-35H11.21a.55.55,0,1,0,0-1.09H1.09V8.28A3.08,3.08,0,0,1,4.16,5.21H8.37v3a2.39,2.39,0,0,0,2.39,2.39.55.55,0,0,0,0-1.1,1.3,1.3,0,0,1-1.3-1.29v-3Z"/><path class="cls-1" d="M17.66,50.43a1.41,1.41,0,0,0,1.41,1.4h4.29a1.41,1.41,0,0,0,1.41-1.4v-4.3a1.41,1.41,0,0,0-1.41-1.4H19.07a1.41,1.41,0,0,0-1.41,1.4Zm1.1-4.61h4.92v4.92H18.76Z"/></g></g></svg>