<svg xmlns="http://www.w3.org/2000/svg" viewBox="0 0 97.14 38.05"><defs><style>.cls-1{fill:#164c9b}</style></defs><g id="Слой_2" data-name="Слой 2"><g id="Layer_1" data-name="Layer 1"><path class="cls-1" d="M41.04 14.77H46.26V16.7H41.04z"/><path class="cls-1" d="M97.14,24.11V10.81a1,1,0,0,0-.83-1L84.9,8.17a56.38,56.38,0,0,0-6.24-3.31A54.39,54.39,0,0,0,56.13,0h-2A55.36,55.36,0,0,0,27.81,6.71L22,9.86h-.12a38.23,38.23,0,0,0-18.44,5A6.83,6.83,0,0,0,0,20.77v9.74a1,1,0,0,0,1,1H7l.16.45a9.13,9.13,0,0,0,17.24,0l.16-.45H69.33l.16.45a9.14,9.14,0,0,0,17.25,0l.16-.45H88a.86.86,0,0,0,.36-.07l5.32-2.13A5.54,5.54,0,0,0,97.14,24.11ZM22.83,30.32A7.23,7.23,0,1,1,23,28.87,7.19,7.19,0,0,1,22.83,30.32Zm29.7-.78H24.91v-.67a9.17,9.17,0,0,0-18.34,0v.67H1.93V20.77a4.9,4.9,0,0,1,2.46-4.23,36.18,36.18,0,0,1,17.92-4.76H52.53Zm0-19.69H26.11l2.63-1.44A53.37,53.37,0,0,1,51.82,2l.71,0Zm1.93-7.92h1.66A52.4,52.4,0,0,1,75.63,5.68l1,.38L72.79,9.85H54.46ZM85.21,30.32v0a7.25,7.25,0,0,1-7.08,5.77,7.24,7.24,0,1,1,1.44-14.34,7.27,7.27,0,0,1,5.79,7.1A7.13,7.13,0,0,1,85.21,30.32Zm2.08-.58v-1a2,2,0,0,0,0-.23l0-.36c0-.12,0-.2,0-.28a2.89,2.89,0,0,0,0-.29l0-.32c0-.12,0-.21,0-.29s0-.21-.08-.32l-.08-.3-.07-.25c0-.09-.06-.18-.1-.27l-.22-.6a.93.93,0,0,0-.1-.2l-.15-.31c-.05-.11-.09-.19-.13-.26l-.1-.17-.13-.21a2.67,2.67,0,0,0-.22-.36l-.15-.2-.17-.23c-.08-.1-.14-.19-.22-.28a3.08,3.08,0,0,0-.24-.26l-.2-.22-.15-.16a1.62,1.62,0,0,0-.19-.18L84.12,22l-.2-.18-.18-.14-.27-.2-.24-.18-.17-.1L82.82,21a3,3,0,0,0-.34-.2,2.24,2.24,0,0,0-.27-.13l-.3-.15-.24-.11-.31-.12L81,20.18l-.21-.08L80.46,20l-.33-.09-.17,0c-.13,0-.26,0-.4-.06l-.34-.05-.16,0c-.33,0-.63,0-.94,0A9.2,9.2,0,0,0,69,28.87v.67H54.46V11.78H73.19a1,1,0,0,0,.68-.28l4.6-4.6.43.21A56,56,0,0,1,84.17,10a1,1,0,0,0,.37.14L95.2,11.65v3.12H90.28v1.94H95.2v7.4a3.58,3.58,0,0,1-2.28,3.37Z"/></g></g></svg>