<svg xmlns="http://www.w3.org/2000/svg" xmlns:xlink="http://www.w3.org/1999/xlink" viewBox="0 0 230.49 96.55"><defs><linearGradient id="b" x1="-702.4" y1="561.61" x2="-701.4" y2="561.61" gradientTransform="translate(41551.59 -33157.64) scale(59.13)" gradientUnits="userSpaceOnUse"><stop offset="0" stop-color="#5fba46"/><stop offset="1" stop-color="#6fc9ca"/></linearGradient><linearGradient id="d" x1="-702.4" y1="561.62" x2="-701.4" y2="561.62" gradientTransform="translate(3780171.84 -3024387.53) scale(5385.2)" xlink:href="#b"/><clipPath id="a"><path d="M53.75,24a30.08,30.08,0,0,1-8.62,21.11A29.29,29.29,0,0,1,24.3,53.85V72.57A47.68,47.68,0,0,0,58.19,58.32,49,49,0,0,0,72.24,24Z" fill="none"/></clipPath><clipPath id="c"><path d="M83.2,24a30.08,30.08,0,0,1-8.62,21.11,29.29,29.29,0,0,1-20.83,8.76V72.57A47.68,47.68,0,0,0,87.64,58.32,49,49,0,0,0,101.7,24Z" fill="none"/></clipPath></defs><path fill="#333" d="M112.35 40.46L112.35 29.47 114.49 29.47 117.59 36.52 118.25 36.52 121.35 29.47 123.49 29.47 123.49 40.46 122.16 40.46 122.16 31.04 122.16 30.88 122.14 30.88 119.12 37.79 116.69 37.79 113.69 30.88 113.66 30.88 113.66 31.04 113.66 40.46 112.35 40.46z"/><path d="M127,39.41a3.75,3.75,0,0,1-1-1.26,3.31,3.31,0,0,1-.31-1.49,3.43,3.43,0,0,1,.33-1.49,3.87,3.87,0,0,1,1-1.26,4.55,4.55,0,0,1,1.44-.85,5.08,5.08,0,0,1,3.41,0,4.55,4.55,0,0,1,1.45.84,3.85,3.85,0,0,1,1,1.26,3.45,3.45,0,0,1,.35,1.48,3.59,3.59,0,0,1-.79,2.12,4.45,4.45,0,0,1-2,1.41,5.14,5.14,0,0,1-2.55.23,4.78,4.78,0,0,1-2.29-1Zm1-4.75a2.7,2.7,0,0,0-.66.91,2.77,2.77,0,0,0,0,2.12,2.72,2.72,0,0,0,.66.91,3.55,3.55,0,0,0,4.41,0,2.7,2.7,0,0,0,.66-.91,2.82,2.82,0,0,0,0-2.12,2.69,2.69,0,0,0-.66-.91,3.51,3.51,0,0,0-4.41,0Z" fill="#333"/><path d="M136.88,39.38A3.78,3.78,0,0,1,136,38.1a4.25,4.25,0,0,1,0-3,3.77,3.77,0,0,1,.86-1.26,4,4,0,0,1,1.37-.84,4.26,4.26,0,0,1,3.21.11,4,4,0,0,1,1.3.93,3.74,3.74,0,0,1,.71,1.29h-1.25a2.41,2.41,0,0,0-.52-.74,2.68,2.68,0,0,0-.92-.57,2.81,2.81,0,0,0-1.09-.17,2.67,2.67,0,0,0-1,.19,2.51,2.51,0,0,0-.87.59,2.68,2.68,0,0,0-.79,1.94,2.65,2.65,0,0,0,.79,2,2.53,2.53,0,0,0,.86.58,2.66,2.66,0,0,0,1,.2,2.77,2.77,0,0,0,1.14-.19,2.63,2.63,0,0,0,.94-.63,2.41,2.41,0,0,0,.54-.81h1.25a3.62,3.62,0,0,1-1.42,2,4,4,0,0,1-2.45.73,4,4,0,0,1-1.52-.26,3.76,3.76,0,0,1-1.28-.82" fill="#333"/><path fill="#333" d="M144.67 40.45L144.67 32.77 146.04 32.77 146.04 35.84 147.77 35.84 150.54 32.77 152.21 32.77 149.01 36.38 152.47 40.44 150.74 40.44 147.79 37 146.06 37 146.06 40.46 144.67 40.45z"/><path d="M153.58,39.4a3.68,3.68,0,0,1-.84-1.24,3.59,3.59,0,0,1-.27-1.46,3.72,3.72,0,0,1,.26-1.49,3.78,3.78,0,0,1,.84-1.28,3.91,3.91,0,0,1,1.28-.86,4,4,0,0,1,3,0,3.89,3.89,0,0,1,1.28.86A3.79,3.79,0,0,1,160,35.2a3.71,3.71,0,0,1,.26,1.49,3.8,3.8,0,0,1-.69,2.09,4,4,0,0,1-1.75,1.38,4.07,4.07,0,0,1-2.24.23,4,4,0,0,1-2-1m.86-4.67a2.68,2.68,0,0,0-.58.89,3.06,3.06,0,0,0,0,2.08,2.67,2.67,0,0,0,.58.89,2.85,2.85,0,0,0,3.87,0,2.7,2.7,0,0,0,.58-.89,2.76,2.76,0,0,0-.58-3,2.82,2.82,0,0,0-3.87,0" fill="#333"/><path d="M162.5,40.46V32.77h3.95a2.71,2.71,0,0,1,1.77.54,1.78,1.78,0,0,1,.49.62,1.72,1.72,0,0,1,.16.76,2.13,2.13,0,0,1-.11.7,1.48,1.48,0,0,1-.28.49,1.59,1.59,0,0,1-.35.29,1.29,1.29,0,0,1-.31.15l-.17,0,.19,0a1.66,1.66,0,0,1,.38.17,2.82,2.82,0,0,1,.45.32,1.52,1.52,0,0,1,.36.54,2.27,2.27,0,0,1,0,1.68,2,2,0,0,1-.55.73,3,3,0,0,1-2,.62Zm1.28-4.53h2.58c.8,0,1.21-.33,1.21-1s-.4-1-1.21-1h-2.58Zm0,3.38h2.66a1.67,1.67,0,0,0,1.08-.31,1.06,1.06,0,0,0,.28-.38,1,1,0,0,0,.08-.46,1,1,0,0,0-.08-.46,1.05,1.05,0,0,0-.28-.38,1.66,1.66,0,0,0-1.08-.3h-2.66Z" fill="#333"/><path d="M171.43,39.34a3.74,3.74,0,0,1-.86-1.26,4.15,4.15,0,0,1,0-3,3.75,3.75,0,0,1,.86-1.26A4.06,4.06,0,0,1,172.8,33a4.25,4.25,0,0,1,3.2.11,4,4,0,0,1,1.3.93,3.65,3.65,0,0,1,.71,1.29h-1.25a2.37,2.37,0,0,0-.52-.74,2.68,2.68,0,0,0-.92-.57,2.78,2.78,0,0,0-1.08-.17,2.63,2.63,0,0,0-1,.19,2.5,2.5,0,0,0-.87.59,2.69,2.69,0,0,0-.76,2,2.65,2.65,0,0,0,.78,2,2.53,2.53,0,0,0,.85.58,2.67,2.67,0,0,0,1,.2,2.78,2.78,0,0,0,1.14-.19,2.64,2.64,0,0,0,.94-.63,2.28,2.28,0,0,0,.53-.81h1.25a3.61,3.61,0,0,1-.72,1.38,3.84,3.84,0,0,1-1.4,1,4.09,4.09,0,0,1-1.74.33,4,4,0,0,1-1.54-.28,3.74,3.74,0,0,1-1.28-.84" fill="#333"/><path fill="#333" d="M179.22 40.45L179.22 32.77 180.59 32.77 180.59 35.84 182.33 35.84 185.1 32.77 186.75 32.77 183.55 36.38 187.02 40.44 185.28 40.44 182.34 37 180.61 37 180.61 40.46 179.22 40.45z"/><path fill="#333" d="M188.14 40.46L188.14 32.77 189.34 32.77 189.34 38.53 189.34 38.69 189.37 38.69 193.46 32.77 194.82 32.77 194.82 40.46 193.62 40.46 193.62 34.69 193.62 34.54 193.59 34.54 189.5 40.46 188.14 40.46z"/><path d="M197.05,40.46V32.61h1.2v6h0l4.09-6h1.37v7.85h-1.2v-6h0l-4.09,6Zm1.09-11h1.13a.89.89,0,0,0,.07.38.87.87,0,0,0,.22.31,1.57,1.57,0,0,0,1.72,0,.88.88,0,0,0,.28-.68h1.14a1.83,1.83,0,0,1-.16.78,1.79,1.79,0,0,1-.47.63,2.83,2.83,0,0,1-3.34,0,1.8,1.8,0,0,1-.45-.64,1.85,1.85,0,0,1-.14-.78" fill="#333"/><path fill="#333" d="M112.35 53.65L112.35 45.95 113.55 45.95 113.55 51.72 113.55 51.88 113.58 51.88 117.67 45.95 119.03 45.95 119.03 53.65 117.83 53.65 117.83 47.88 117.83 47.72 117.8 47.72 113.72 53.65 112.35 53.65z"/><path fill="#333" d="M121.26 53.65L121.26 45.95 122.47 45.95 122.47 49.11 126.74 49.11 126.74 45.95 127.95 45.95 127.95 53.65 126.74 53.65 126.74 50.26 122.48 50.26 122.48 53.65 121.26 53.65z"/><path fill="#333" d="M130.18 53.65L130.18 45.95 131.39 45.95 131.39 49.11 135.66 49.11 135.66 45.95 136.87 45.95 136.87 53.65 135.66 53.65 135.66 50.26 131.39 50.26 131.39 53.65 130.18 53.65z"/><path d="M140.21,52.58a3.65,3.65,0,0,1-.84-1.24,3.6,3.6,0,0,1-.27-1.46,3.7,3.7,0,0,1,.26-1.49,3.8,3.8,0,0,1,.84-1.28,3.92,3.92,0,0,1,1.28-.86,4,4,0,0,1,3,0,3.9,3.9,0,0,1,1.28.86,3.77,3.77,0,0,1,.84,1.28,3.72,3.72,0,0,1,.26,1.49A3.8,3.8,0,0,1,146.2,52a4,4,0,0,1-1.75,1.38,4.06,4.06,0,0,1-2.24.23,4,4,0,0,1-2-1m.86-4.67a2.76,2.76,0,0,0,0,3.86,2.82,2.82,0,0,0,3.87,0,2.64,2.64,0,0,0,.58-.89,3.07,3.07,0,0,0,0-2.08,2.63,2.63,0,0,0-.58-.89,2.82,2.82,0,0,0-3.87,0" fill="#333"/><path d="M149.13,53.65V46h4a2.7,2.7,0,0,1,1.78.54,1.74,1.74,0,0,1,.49.62,1.68,1.68,0,0,1,.16.76,2.13,2.13,0,0,1-.11.7,1.4,1.4,0,0,1-.62.78,1.37,1.37,0,0,1-.31.16l-.17,0,.2,0a1.64,1.64,0,0,1,.38.17,2.66,2.66,0,0,1,.43.31,1.51,1.51,0,0,1,.36.54,1.94,1.94,0,0,1,.15.78,2,2,0,0,1-.17.89,2.07,2.07,0,0,1-.55.74,3,3,0,0,1-2,.61Zm1.28-4.54H153c.81,0,1.21-.33,1.21-1s-.39-1-1.2-1h-2.58Zm0,3.38h2.66a1.65,1.65,0,0,0,1.08-.31,1.21,1.21,0,0,0,.28-.39,1.14,1.14,0,0,0,0-.92,1.23,1.23,0,0,0-.28-.39,1.66,1.66,0,0,0-1.08-.31h-2.66Z" fill="#333"/><path d="M158,52.55a4,4,0,0,1,0-5.49,3.54,3.54,0,0,1,1.21-.83,3.72,3.72,0,0,1,1.46-.28,3.55,3.55,0,0,1,1.66.36,2.84,2.84,0,0,1,1,.78l.14.22V46.08h1.24v7.42h-1.24v-1.2l-.14.21a2.68,2.68,0,0,1-1,.76,3.61,3.61,0,0,1-1.69.37,3.7,3.7,0,0,1-1.45-.28,3.53,3.53,0,0,1-1.2-.82m.93-4.73a2.91,2.91,0,0,0,0,3.92,2.65,2.65,0,0,0,.87.57,2.78,2.78,0,0,0,2.07,0,2.63,2.63,0,0,0,.87-.57,2.91,2.91,0,0,0,0-3.92,2.65,2.65,0,0,0-.87-.57,2.78,2.78,0,0,0-2.07,0,2.67,2.67,0,0,0-.87.57" fill="#333"/><path fill="#333" d="M166.96 54L166.96 45.95 168.22 45.95 168.22 52.79 172.38 52.79 172.38 45.95 173.65 45.95 173.65 52.79 174.76 52.79 174.76 55.84 173.5 55.84 173.5 54 166.96 54z"/><path fill="#333" d="M175.88 53.65L175.88 45.95 177.08 45.95 177.08 51.72 177.08 51.88 177.11 51.88 181.19 45.95 182.56 45.95 182.56 53.65 181.36 53.65 181.36 47.88 181.36 47.72 181.33 47.72 177.24 53.65 175.88 53.65z"/><path d="M185.9,52.58a3.69,3.69,0,0,1-.84-1.24,3.6,3.6,0,0,1-.27-1.46,3.72,3.72,0,0,1,.26-1.49,3.79,3.79,0,0,1,.84-1.28,3.91,3.91,0,0,1,1.28-.86,4,4,0,0,1,3,0,3.9,3.9,0,0,1,1.28.86,3.78,3.78,0,0,1,.84,1.28,3.69,3.69,0,0,1,.26,1.49A3.8,3.8,0,0,1,191.9,52a4,4,0,0,1-1.75,1.38,4.07,4.07,0,0,1-2.24.23,4,4,0,0,1-2-1m.86-4.67a2.64,2.64,0,0,0-.58.89,3.07,3.07,0,0,0,0,2.08,2.65,2.65,0,0,0,.58.89,2.82,2.82,0,0,0,3.87,0,2.64,2.64,0,0,0,.58-.89,3.08,3.08,0,0,0,0-2.08,2.64,2.64,0,0,0-.58-.89,2.82,2.82,0,0,0-3.87,0" fill="#333"/><path fill="#333" d="M194.82 53.65L194.82 45.95 196.03 45.95 196.03 49.11 200.3 49.11 200.3 45.95 201.51 45.95 201.51 53.65 200.3 53.65 200.3 50.26 196.04 50.26 196.04 53.65 194.82 53.65z"/><path fill="#333" d="M203.74 53.65L203.74 45.95 204.95 45.95 204.95 49.11 209.22 49.11 209.22 45.95 210.43 45.95 210.43 53.65 209.22 53.65 209.22 50.26 204.95 50.26 204.95 53.65 203.74 53.65z"/><path d="M212.66,53.64V46H214v2.61h2a3.49,3.49,0,0,1,2.29.73,2.43,2.43,0,0,1,.65.82,2.23,2.23,0,0,1,0,2,2.43,2.43,0,0,1-.65.82,3.48,3.48,0,0,1-2.29.73ZM214,52.49h2a2.12,2.12,0,0,0,1.35-.39,1.36,1.36,0,0,0,.36-.45,1.25,1.25,0,0,0,0-1.1,1.36,1.36,0,0,0-.36-.45A2.13,2.13,0,0,0,216,49.7h-2ZM220.25,46h1.32v7.69h-1.32Z" fill="#333"/><path d="M223.8,53.65V45.8H225v6h0l4.09-6h1.37v7.85h-1.2v-6h0l-4.09,6Zm1.1-11H226a.88.88,0,0,0,.07.38.86.86,0,0,0,.22.31,1.52,1.52,0,0,0,1.7,0,.83.83,0,0,0,.22-.31.88.88,0,0,0,.07-.38h1.14a1.85,1.85,0,0,1-.15.79,1.81,1.81,0,0,1-.46.64,2.81,2.81,0,0,1-3.34,0,1.78,1.78,0,0,1-.46-.64,1.82,1.82,0,0,1-.14-.79" fill="#333"/><path fill="#333" d="M112.35 66.83L112.35 59.14 113.53 59.14 113.53 62.22 115.02 62.22 117.4 59.14 118.81 59.14 116.06 62.76 119.03 66.82 117.56 66.82 115.03 63.36 113.53 63.36 113.53 66.82 112.35 66.83z"/><path fill="#333" d="M119.03 66.83L121.26 59.14 124.61 59.14 126.84 66.83 125.47 66.83 123.64 60.29 122.21 60.29 120.39 66.83 119.03 66.83z"/><path d="M129,65.73a4,4,0,0,1,0-5.48,3.52,3.52,0,0,1,1.21-.83,3.71,3.71,0,0,1,1.46-.28,3.63,3.63,0,0,1,1.66.36,3,3,0,0,1,1,.78l.14.22V59.27h1.24v7.42h-1.24V65.51l-.14.21a2.72,2.72,0,0,1-1,.75,3.65,3.65,0,0,1-1.7.36,3.7,3.7,0,0,1-1.47-.28,3.52,3.52,0,0,1-1.21-.83M130,61A2.95,2.95,0,0,0,130,65a2.67,2.67,0,0,0,.87.57,2.8,2.8,0,0,0,2.08,0,2.68,2.68,0,0,0,.87-.57,2.93,2.93,0,0,0,0-3.95,2.66,2.66,0,0,0-.87-.57,2.78,2.78,0,0,0-2.08,0A2.64,2.64,0,0,0,130,61" fill="#333"/><path d="M139.12,65.74a3.89,3.89,0,0,1,0-5.5,4.07,4.07,0,0,1,1.37-.84,4.29,4.29,0,0,1,1.62-.26,4.24,4.24,0,0,1,1.59.37,4,4,0,0,1,1.3.93,3.63,3.63,0,0,1,.71,1.28h-1.25a2.4,2.4,0,0,0-.53-.75,2.69,2.69,0,0,0-.92-.57,2.82,2.82,0,0,0-1.09-.17,2.64,2.64,0,0,0-1,.19A2.5,2.5,0,0,0,140,61a2.83,2.83,0,0,0,0,3.9,2.53,2.53,0,0,0,.86.58,2.69,2.69,0,0,0,1,.2,2.79,2.79,0,0,0,1.14-.19,2.64,2.64,0,0,0,.94-.63,2.29,2.29,0,0,0,.52-.79h1.25a3.59,3.59,0,0,1-.72,1.37,3.86,3.86,0,0,1-1.39,1,4.1,4.1,0,0,1-1.73.34,4,4,0,0,1-1.53-.27,3.77,3.77,0,0,1-1.28-.83" fill="#333"/><path fill="#333" d="M145.78 60.3L145.78 59.14 152.47 59.14 152.47 60.3 149.75 60.3 149.75 66.83 148.52 66.83 148.52 60.3 145.78 60.3z"/><path d="M154.7,65.74a3.95,3.95,0,0,1,0-5.5,3.76,3.76,0,0,1,1.27-.83,3.88,3.88,0,0,1,1.51-.27,3.93,3.93,0,0,1,1.51.27,3.83,3.83,0,0,1,1.28.82,3.7,3.7,0,0,1,.84,1.24,3.57,3.57,0,0,1,.27,1.46v.43h-6.57a2.63,2.63,0,0,0,2.67,2.36,3,3,0,0,0,1.94-.66,2.35,2.35,0,0,0,.58-.66h1.21a3.78,3.78,0,0,1-1.47,1.8,4,4,0,0,1-2.27.64,3.85,3.85,0,0,1-1.51-.27,3.76,3.76,0,0,1-1.27-.83m.14-3.41h5.25a2.37,2.37,0,0,0-.83-1.47,2.62,2.62,0,0,0-1.76-.6,2.69,2.69,0,0,0-1.77.6,2.43,2.43,0,0,0-.88,1.47" fill="#333"/><path d="M163.62,70.13V59.31h1.24v1.24l.16-.24a2.71,2.71,0,0,1,1-.79,3.42,3.42,0,0,1,1.69-.39,3.53,3.53,0,0,1,2.67,1.17,4.4,4.4,0,0,1,0,5.8,3.75,3.75,0,0,1-4.37.79,2.43,2.43,0,0,1-.95-.81l-.16-.22v4.26Zm2-9a3.24,3.24,0,0,0,0,4.17,2.64,2.64,0,0,0,3.81,0,3.24,3.24,0,0,0,0-4.17,2.63,2.63,0,0,0-3.81,0" fill="#333"/><path fill="#333" d="M83.2 23.99H101.7V71.81H83.2z"/><path fill="#333" d="M53.75 23.99H72.25V67.51H53.75z"/><g clip-path="url(#a)"><path transform="rotate(-45.2 48.269 48.278)" fill="url(#b)" d="M14.14 14.14H82.41V82.41H14.14z"/></g><g clip-path="url(#c)"><path transform="rotate(-45.2 77.711 48.273)" fill="url(#d)" d="M43.59 14.14H111.86V82.41H43.59z"/></g></svg>