<svg xmlns="http://www.w3.org/2000/svg" viewBox="0 0 160.78 40.18"><g id="484353ee-aa7e-406c-9e76-acece05b2e2b" data-name="Layer 2"><g id="b18730e0-0ed1-46e4-99ad-70f3f5760948" data-name="Layer 1"><path d="M18.58,20.24a0,0,0,0,0,0,0s0,0,0,0,0,0,0,0a0,0,0,0,0,0,0" fill="#e52045"/><path d="M19,29h0Z" fill="#e52045"/><path d="M18.14,20.57v-.24l-.12,0,.05.23h.06" fill="#e52045"/><path d="M18.55,20.18c.05,0,.09,0,.08-.08s-.05,0-.1,0-.09.05-.08.06.05.05.1,0" fill="#e52045"/><path d="M18.37,20.29h0v.19h0c.09-.1.09-.15,0-.18" fill="#e52045"/><path d="M18.27,20.51v-.2h-.05v.22l0,0" fill="#e52045"/><path d="M20.62,16.14c0,.09.27.31.42.57s.15.32.22.37a1.28,1.28,0,0,0-.64-.94" fill="#e52045"/><path d="M22.23,10.68a4.19,4.19,0,0,1-.08-.75c0-.1,0-.14-.05-.17a3,3,0,0,0,0,.42.68.68,0,0,0,.06.38c.05.13.08.15.08.11" fill="#e52045"/><path d="M23.12,11.15c.05.06.08.08.06.05a1.77,1.77,0,0,1-.12-.38.09.09,0,0,0-.05-.09s0,.15,0,.23a.28.28,0,0,0,.08.19" fill="#e52045"/><path d="M20.34,12.68c0-.14-.5-.55-.74-1s-.28-.66-.37-.77a2.78,2.78,0,0,0,1.11,1.72" fill="#e52045"/><path d="M21.83,10.36a2,2,0,0,1,0-.47.14.14,0,0,0,0-.12s0,.18,0,.27a.42.42,0,0,0,0,.24c0,.09.05.1.05.08" fill="#e52045"/><path d="M22,10.52a3.58,3.58,0,0,1-.05-.6c0-.09,0-.12,0-.14a3,3,0,0,0,0,.33.55.55,0,0,0,.05.32c0,.1.06.13.06.09" fill="#e52045"/><path d="M22.42,10.78a3.5,3.5,0,0,1-.08-.68.19.19,0,0,0-.05-.15,2.7,2.7,0,0,0,0,.38.65.65,0,0,0,.06.35c.05.11.09.14.08.1" fill="#e52045"/><path d="M22.74,10.92c.05.08.08.1.06.06a2.84,2.84,0,0,1-.1-.52c0-.08,0-.1-.05-.11s0,.19,0,.29a.44.44,0,0,0,.08.28" fill="#e52045"/><path d="M22.53,10.81c.06.09.09.12.08.08a4.09,4.09,0,0,1-.09-.6c0-.09,0-.11-.05-.13s0,.22,0,.33a.57.57,0,0,0,.06.32" fill="#e52045"/><path d="M20.34,13.07c-.05-.15-.55-.6-.82-1s-.29-.7-.38-.8a3,3,0,0,0,1.2,1.85" fill="#e52045"/><path d="M19.73,10a1.8,1.8,0,0,0,.73,1.23c0-.09-.31-.38-.46-.68s-.2-.48-.27-.55" fill="#e52045"/><path d="M19.88,9.76a1.51,1.51,0,0,0,.64,1.1c0-.08-.25-.34-.4-.6a4.44,4.44,0,0,0-.24-.5" fill="#e52045"/><path d="M19.59,10.23a2,2,0,0,0,.83,1.35c0-.1-.36-.43-.54-.75s-.23-.54-.29-.6" fill="#e52045"/><path d="M22.93,11c.05.06.08.09.06.06a1.78,1.78,0,0,1-.1-.46.19.19,0,0,0-.05-.1s0,.18,0,.27a.41.41,0,0,0,.08.23" fill="#e52045"/><path d="M19,11.46a3.61,3.61,0,0,0,1.34,2c-.05-.17-.64-.69-.92-1.16s-.32-.74-.42-.87" fill="#e52045"/><path d="M19.46,10.48a2.3,2.3,0,0,0,.92,1.47c0-.12-.41-.46-.6-.82s-.24-.57-.32-.65" fill="#e52045"/><path d="M20.35,12.31c0-.13-.45-.51-.68-.89s-.26-.61-.35-.7a2.59,2.59,0,0,0,1,1.59" fill="#e52045"/><path d="M43,1.16H41.57c0,.09,0,.21,0,.35s0,.31,0,.48,0,.37-.05.57-.05.42-.09.63-.08.44-.14.66a5.91,5.91,0,0,1-.21.65h2ZM39.54,4.51H40l.16-.44c.05-.15.1-.31.15-.49s.09-.37.13-.58.07-.45.1-.72.05-.56.07-.89,0-.7,0-1.11h3.48V4.51h.5v2h-.92V5.4H40.46V6.5h-.92Z"/><path d="M45.3 0.27L49.05 0.27 49.05 1.16 46.32 1.16 46.32 2.29 48.83 2.29 48.83 3.18 46.32 3.18 46.32 4.47 49.17 4.47 49.17 5.4 45.3 5.4 45.3 0.27z"/><path d="M49.98 0.27L54.12 0.27 54.12 5.4 53.05 5.4 53.05 1.16 51.05 1.16 51.05 5.4 49.98 5.4 49.98 0.27z"/><path d="M56.55,3.46h1.3l-.63-2h0ZM56.61.27h1.22L59.64,5.4H58.48l-.33-1.06H56.27L55.91,5.4H54.79Z"/><path d="M61.46,2.67h1A.84.84,0,0,0,63,2.5a.72.72,0,0,0,.21-.58,1,1,0,0,0-.05-.34A.62.62,0,0,0,63,1.34a.6.6,0,0,0-.24-.14,1.09,1.09,0,0,0-.33,0h-1ZM60.39.27h2.32a2.05,2.05,0,0,1,.71.11,1.28,1.28,0,0,1,.5.32,1.36,1.36,0,0,1,.3.52,2.28,2.28,0,0,1,.1.69,1.83,1.83,0,0,1-.11.66,1.45,1.45,0,0,1-.33.52,1.5,1.5,0,0,1-.53.34,1.93,1.93,0,0,1-.71.12H61.46V5.4H60.39Z"/><path d="M64.66 0.27L68.84 0.27 68.84 1.16 67.28 1.16 67.28 5.4 66.22 5.4 66.22 1.16 64.66 1.16 64.66 0.27z"/><path d="M70.86,3.46h1.3l-.64-2h0ZM70.92.27h1.22L73.94,5.4H72.78l-.33-1.06H70.57L70.22,5.4H69.09Z"/><path d="M74.61 0.27L76.17 0.27 77.06 4.26 77.08 4.26 77.97 0.27 79.54 0.27 79.54 5.4 78.56 5.4 78.56 1.11 78.54 1.11 77.57 5.4 76.53 5.4 75.6 1.11 75.59 1.11 75.59 5.4 74.61 5.4 74.61 0.27z"/><path d="M80.64 0.27L84.39 0.27 84.39 1.16 81.67 1.16 81.67 2.29 84.17 2.29 84.17 3.18 81.67 3.18 81.67 4.47 84.51 4.47 84.51 5.4 80.64 5.4 80.64 0.27z"/><path d="M85.32 0.27L86.39 0.27 86.39 2.22 88.4 2.22 88.4 0.27 89.47 0.27 89.47 5.4 88.4 5.4 88.4 3.11 86.39 3.11 86.39 5.4 85.32 5.4 85.32 0.27z"/><path d="M90.08 0.27L94.26 0.27 94.26 1.16 92.7 1.16 92.7 5.4 91.63 5.4 91.63 1.16 90.08 1.16 90.08 0.27z"/><path d="M39.95 8.84L44.09 8.84 44.09 13.97 43.02 13.97 43.02 9.72 41.02 9.72 41.02 13.97 39.95 13.97 39.95 8.84z"/><path d="M46.26,11.24h1a.84.84,0,0,0,.57-.18.72.72,0,0,0,.21-.58,1,1,0,0,0-.05-.35.62.62,0,0,0-.15-.24.61.61,0,0,0-.24-.14,1.13,1.13,0,0,0-.33,0h-1Zm-1.07-2.4h2.32a2,2,0,0,1,.71.11,1.28,1.28,0,0,1,.5.32,1.35,1.35,0,0,1,.3.52,2.29,2.29,0,0,1,.1.69,1.83,1.83,0,0,1-.12.66,1.45,1.45,0,0,1-.33.52,1.5,1.5,0,0,1-.53.34,2,2,0,0,1-.71.12H46.26V14H45.19Z"/><path d="M49.96 8.84L53.71 8.84 53.71 9.72 50.99 9.72 50.99 10.86 53.49 10.86 53.49 11.75 50.99 11.75 50.99 13.04 53.83 13.04 53.83 13.97 49.96 13.97 49.96 8.84z"/><path d="M57.74,9.73H56.27c0,.09,0,.21,0,.35s0,.31,0,.48,0,.37-.05.57-.05.42-.09.64-.08.44-.14.66a5.91,5.91,0,0,1-.21.65h2Zm-3.51,3.36h.45l.16-.44c.05-.15.1-.31.15-.49s.09-.37.13-.58.07-.45.1-.72.05-.56.07-.89,0-.7,0-1.11h3.48v4.24h.5v2h-.92V14H55.16v1.1h-.92Z"/><path d="M59.91 8.84L64.05 8.84 64.05 13.97 62.98 13.97 62.98 9.72 60.98 9.72 60.98 13.97 59.91 13.97 59.91 8.84z"/><path d="M66.22,11.24h1a.84.84,0,0,0,.57-.18.72.72,0,0,0,.21-.58,1,1,0,0,0-.05-.35.62.62,0,0,0-.15-.24.61.61,0,0,0-.24-.14,1.13,1.13,0,0,0-.33,0h-1Zm-1.07-2.4h2.32a2,2,0,0,1,.71.11,1.28,1.28,0,0,1,.5.32,1.35,1.35,0,0,1,.3.52,2.29,2.29,0,0,1,.1.69,1.83,1.83,0,0,1-.11.66,1.45,1.45,0,0,1-.33.52,1.5,1.5,0,0,1-.53.34,2,2,0,0,1-.71.12H66.22V14H65.16Z"/><path d="M69.84 8.84L70.86 8.84 70.86 12.33 70.88 12.33 72.9 8.84 73.98 8.84 73.98 13.97 72.95 13.97 72.95 10.5 72.94 10.5 70.92 13.97 69.84 13.97 69.84 8.84z"/><path d="M75 8.84L76.07 8.84 76.07 10.79 78.07 10.79 78.07 8.84 79.14 8.84 79.14 13.97 78.07 13.97 78.07 11.68 76.07 11.68 76.07 13.97 75 13.97 75 8.84z"/><path d="M80.16 8.84L81.19 8.84 81.19 12.33 81.2 12.33 83.22 8.84 84.3 8.84 84.3 13.97 83.28 13.97 83.28 10.5 83.26 10.5 81.24 13.97 80.16 13.97 80.16 8.84z"/><path d="M85.32 8.84L86.88 8.84 87.78 12.83 87.79 12.83 88.69 8.84 90.25 8.84 90.25 13.97 89.27 13.97 89.27 9.68 89.26 9.68 88.29 13.97 87.25 13.97 86.32 9.68 86.31 9.68 86.31 13.97 85.32 13.97 85.32 8.84z"/><path d="M92.68,12H94l-.64-2h0Zm.06-3.18H94L95.77,14H94.61l-.33-1.06H92.4L92,14H90.92Z"/><path d="M96.02 8.84L100.2 8.84 100.2 9.72 98.64 9.72 98.64 13.97 97.58 13.97 97.58 9.72 96.02 9.72 96.02 8.84z"/><path d="M100.89 8.84L104.64 8.84 104.64 9.72 101.92 9.72 101.92 10.86 104.42 10.86 104.42 11.75 101.92 11.75 101.92 13.04 104.77 13.04 104.77 13.97 100.89 13.97 100.89 8.84z"/><path d="M108.73,9.72h-1.5v.77c0,.47,0,.88,0,1.24a8.25,8.25,0,0,1-.1.93,3.34,3.34,0,0,1-.18.66,1.4,1.4,0,0,1-.26.43.86.86,0,0,1-.34.23,1.25,1.25,0,0,1-.42.07l-.33,0a1.22,1.22,0,0,1-.29-.08V13l.1,0,.11,0h.16l.18,0a.3.3,0,0,0,.15-.11.83.83,0,0,0,.11-.25,2.67,2.67,0,0,0,.08-.44c0-.18,0-.41,0-.67s0-.59,0-1V8.84h3.57V14h-1.07Z"/><path d="M111.88,13.08h.9l.3,0a.83.83,0,0,0,.29-.09.56.56,0,0,0,.21-.21.71.71,0,0,0,.08-.37.76.76,0,0,0-.08-.38.53.53,0,0,0-.21-.21.78.78,0,0,0-.3-.09l-.33,0h-.86Zm-1.07-4.24h1.07v2h1.31a2.34,2.34,0,0,1,.38.05,2,2,0,0,1,.41.14,1.23,1.23,0,0,1,.37.27,1.3,1.3,0,0,1,.27.44,1.8,1.8,0,0,1,.11.66,1.77,1.77,0,0,1-.11.65,1.36,1.36,0,0,1-.26.44,1.19,1.19,0,0,1-.36.27,2,2,0,0,1-.38.14,1.92,1.92,0,0,1-.34.05h-2.47Z"/><path d="M118.8,10.53l-.05-.17a1.13,1.13,0,0,0-.09-.19,1.15,1.15,0,0,0-.14-.19.85.85,0,0,0-.2-.17,1.16,1.16,0,0,0-.29-.12,1.58,1.58,0,0,0-.4,0l-.23,0a1,1,0,0,0-.27.09,1.27,1.27,0,0,0-.27.19,1.2,1.2,0,0,0-.24.32,2,2,0,0,0-.17.48,3.28,3.28,0,0,0,0,1.41,1.67,1.67,0,0,0,.25.55,1.08,1.08,0,0,0,.92.47,1.23,1.23,0,0,0,.55-.1,1,1,0,0,0,.34-.25,1.09,1.09,0,0,0,.19-.31c0-.11.07-.2.1-.29h1.06a2.62,2.62,0,0,1-.29.83,2,2,0,0,1-.49.59,2,2,0,0,1-.65.35,2.7,2.7,0,0,1-1.78-.07,2,2,0,0,1-.74-.54,2.39,2.39,0,0,1-.46-.85,4,4,0,0,1-.07-2,2.77,2.77,0,0,1,.25-.68,2.21,2.21,0,0,1,.38-.52,2.1,2.1,0,0,1,.48-.36,2.21,2.21,0,0,1,.54-.21,2.46,2.46,0,0,1,.58-.07,2.8,2.8,0,0,1,.74.09,2.17,2.17,0,0,1,.57.23,1.79,1.79,0,0,1,.42.33,2,2,0,0,1,.28.39,1.84,1.84,0,0,1,.16.4,2.08,2.08,0,0,1,.07.37Z"/><path d="M120.24 8.84L124.43 8.84 124.43 9.72 122.87 9.72 122.87 13.97 121.8 13.97 121.8 9.72 120.24 9.72 120.24 8.84z"/><path d="M126.14,13.08h1.33a1.2,1.2,0,0,0,.33,0,.75.75,0,0,0,.26-.13.58.58,0,0,0,.17-.22.73.73,0,0,0,.06-.31.74.74,0,0,0-.07-.36.54.54,0,0,0-.19-.21.71.71,0,0,0-.27-.1l-.31,0h-1.3Zm0-2.22h1.32a1.12,1.12,0,0,0,.27,0,.64.64,0,0,0,.23-.1.53.53,0,0,0,.16-.18.57.57,0,0,0,.06-.27.59.59,0,0,0-.05-.27.44.44,0,0,0-.15-.17.6.6,0,0,0-.22-.09l-.26,0h-1.35Zm-1-2h2.5a2.26,2.26,0,0,1,.55.06,1.57,1.57,0,0,1,.41.16,1.19,1.19,0,0,1,.29.23,1.21,1.21,0,0,1,.19.28,1.27,1.27,0,0,1,.1.29,1.55,1.55,0,0,1,0,.29,1.68,1.68,0,0,1,0,.35,1,1,0,0,1-.11.28.94.94,0,0,1-.19.23,1.47,1.47,0,0,1-.29.19,1.26,1.26,0,0,1,.41.24,1.08,1.08,0,0,1,.24.31,1.14,1.14,0,0,1,.11.34,2.11,2.11,0,0,1,0,.34,1.53,1.53,0,0,1-.14.66,1.32,1.32,0,0,1-.38.48,1.74,1.74,0,0,1-.6.29,2.82,2.82,0,0,1-.78.1h-2.34Z"/><path d="M131.6,12h1.3l-.64-2h0Zm.06-3.18h1.22L134.69,14h-1.16l-.33-1.06h-1.89L131,14h-1.13Z"/><path d="M39.95 17.41L40.97 17.41 40.97 20.9 40.99 20.9 43.01 17.41 44.09 17.41 44.09 22.54 43.06 22.54 43.06 19.07 43.05 19.07 41.03 22.54 39.95 22.54 39.95 17.41z"/><path d="M47.11 17.41L48.13 17.41 48.13 20.9 48.15 20.9 50.17 17.41 51.25 17.41 51.25 22.54 50.22 22.54 50.22 19.07 50.21 19.07 48.19 22.54 47.11 22.54 47.11 17.41z"/><path d="M52.27 17.41L53.34 17.41 53.34 19.36 55.34 19.36 55.34 17.41 56.41 17.41 56.41 22.54 55.34 22.54 55.34 20.25 53.34 20.25 53.34 22.54 52.27 22.54 52.27 17.41z"/><path d="M57.43 17.41L58.5 17.41 58.5 19.36 60.5 19.36 60.5 17.41 61.57 17.41 61.57 22.54 60.5 22.54 60.5 20.25 58.5 20.25 58.5 22.54 57.43 22.54 57.43 17.41z"/><path d="M64.86,21.74a1.26,1.26,0,0,0,.58-.13,1.3,1.3,0,0,0,.44-.37,1.68,1.68,0,0,0,.27-.56,2.7,2.7,0,0,0,0-1.41,1.68,1.68,0,0,0-.27-.56,1.28,1.28,0,0,0-.44-.37,1.35,1.35,0,0,0-1.17,0,1.27,1.27,0,0,0-.44.37,1.71,1.71,0,0,0-.27.56,2.67,2.67,0,0,0,0,1.41,1.71,1.71,0,0,0,.27.56,1.28,1.28,0,0,0,.44.37,1.26,1.26,0,0,0,.58.13M62.4,20a3.57,3.57,0,0,1,.15-1.07,2.4,2.4,0,0,1,.46-.85,2.11,2.11,0,0,1,.77-.57,2.64,2.64,0,0,1,1.08-.21,2.46,2.46,0,0,1,1,.21,2.25,2.25,0,0,1,.77.57,2.52,2.52,0,0,1,.49.85,3.43,3.43,0,0,1,0,2.13,2.52,2.52,0,0,1-.49.85,2.25,2.25,0,0,1-.77.57,2.46,2.46,0,0,1-1,.21,2.64,2.64,0,0,1-1.08-.21,2.11,2.11,0,0,1-.77-.57,2.4,2.4,0,0,1-.46-.85A3.58,3.58,0,0,1,62.4,20"/><path d="M69.26,21.65h1.33a1.2,1.2,0,0,0,.33,0,.75.75,0,0,0,.26-.13.58.58,0,0,0,.17-.22.73.73,0,0,0,.06-.31.75.75,0,0,0-.07-.36.54.54,0,0,0-.19-.21.71.71,0,0,0-.27-.1l-.31,0h-1.3Zm0-2.22h1.32a1.18,1.18,0,0,0,.27,0,.64.64,0,0,0,.23-.1.52.52,0,0,0,.16-.18.57.57,0,0,0,.06-.27.59.59,0,0,0-.05-.27.44.44,0,0,0-.15-.17.59.59,0,0,0-.22-.09l-.26,0H69.26Zm-1-2h2.5a2.26,2.26,0,0,1,.55.06,1.57,1.57,0,0,1,.41.16,1.19,1.19,0,0,1,.48.51,1.24,1.24,0,0,1,.1.29,1.53,1.53,0,0,1,0,.29,1.68,1.68,0,0,1,0,.35,1,1,0,0,1-.11.28.93.93,0,0,1-.19.23,1.42,1.42,0,0,1-.29.19,1.25,1.25,0,0,1,.41.24,1.06,1.06,0,0,1,.24.31,1.15,1.15,0,0,1,.11.34,2.11,2.11,0,0,1,0,.34,1.53,1.53,0,0,1-.14.66,1.31,1.31,0,0,1-.38.48,1.7,1.7,0,0,1-.6.29,2.82,2.82,0,0,1-.78.1H68.23Z"/><path d="M74.72,20.59H76l-.64-2h0Zm.06-3.18H76l1.81,5.13H76.65l-.33-1.06H74.43l-.36,1.06H73Z"/><path d="M78.47 17.41L79.54 17.41 79.54 21.65 81.54 21.65 81.54 17.41 82.61 17.41 82.61 21.65 83.14 21.65 83.14 23.63 82.22 23.63 82.22 22.54 78.47 22.54 78.47 17.41z"/><path d="M83.73 17.41L84.76 17.41 84.76 20.9 84.77 20.9 86.79 17.41 87.88 17.41 87.88 22.54 86.85 22.54 86.85 19.07 86.84 19.07 84.82 22.54 83.73 22.54 83.73 17.41z"/><path d="M91.17,21.74a1.27,1.27,0,0,0,.58-.13,1.3,1.3,0,0,0,.44-.37,1.7,1.7,0,0,0,.27-.56,2.73,2.73,0,0,0,0-1.41,1.7,1.7,0,0,0-.27-.56,1.29,1.29,0,0,0-.44-.37,1.35,1.35,0,0,0-1.17,0,1.27,1.27,0,0,0-.44.37,1.71,1.71,0,0,0-.27.56,2.64,2.64,0,0,0,0,1.41,1.71,1.71,0,0,0,.27.56,1.28,1.28,0,0,0,.44.37,1.26,1.26,0,0,0,.58.13M88.71,20a3.57,3.57,0,0,1,.15-1.07,2.4,2.4,0,0,1,.46-.85,2.11,2.11,0,0,1,.77-.57,2.63,2.63,0,0,1,1.08-.21,2.46,2.46,0,0,1,1,.21,2.25,2.25,0,0,1,.77.57,2.52,2.52,0,0,1,.49.85,3.43,3.43,0,0,1,0,2.13,2.52,2.52,0,0,1-.49.85,2.25,2.25,0,0,1-.77.57,2.46,2.46,0,0,1-1,.21,2.63,2.63,0,0,1-1.08-.21,2.11,2.11,0,0,1-.77-.57,2.4,2.4,0,0,1-.46-.85A3.58,3.58,0,0,1,88.71,20"/><path d="M94.45 17.41L95.52 17.41 95.52 19.36 97.53 19.36 97.53 17.41 98.59 17.41 98.59 22.54 97.53 22.54 97.53 20.25 95.52 20.25 95.52 22.54 94.45 22.54 94.45 17.41z"/><path d="M99.61 17.41L100.68 17.41 100.68 19.36 102.69 19.36 102.69 17.41 103.75 17.41 103.75 22.54 102.69 22.54 102.69 20.25 100.68 20.25 100.68 22.54 99.61 22.54 99.61 17.41z"/><path d="M107,21.74a1.26,1.26,0,0,0,.58-.13,1.3,1.3,0,0,0,.44-.37,1.7,1.7,0,0,0,.27-.56,2.73,2.73,0,0,0,0-1.41,1.7,1.7,0,0,0-.27-.56,1.28,1.28,0,0,0-.44-.37,1.35,1.35,0,0,0-1.17,0,1.27,1.27,0,0,0-.44.37,1.71,1.71,0,0,0-.27.56,2.64,2.64,0,0,0,0,1.41,1.71,1.71,0,0,0,.27.56,1.28,1.28,0,0,0,.44.37,1.26,1.26,0,0,0,.58.13M104.59,20a3.57,3.57,0,0,1,.15-1.07,2.4,2.4,0,0,1,.46-.85,2.1,2.1,0,0,1,.77-.57,2.63,2.63,0,0,1,1.08-.21,2.46,2.46,0,0,1,1,.21,2.25,2.25,0,0,1,.77.57,2.52,2.52,0,0,1,.49.85,3.43,3.43,0,0,1,0,2.13,2.52,2.52,0,0,1-.49.85,2.25,2.25,0,0,1-.77.57,2.46,2.46,0,0,1-1,.21,2.63,2.63,0,0,1-1.08-.21,2.1,2.1,0,0,1-.77-.57,2.4,2.4,0,0,1-.46-.85,3.58,3.58,0,0,1-.15-1.07"/><path d="M110.42 17.41L113.85 17.41 113.85 18.29 111.48 18.29 111.48 22.54 110.42 22.54 110.42 17.41z"/><path d="M116.74,21.74a1.26,1.26,0,0,0,.58-.13,1.3,1.3,0,0,0,.44-.37,1.7,1.7,0,0,0,.27-.56,2.73,2.73,0,0,0,0-1.41,1.7,1.7,0,0,0-.27-.56,1.28,1.28,0,0,0-.44-.37,1.35,1.35,0,0,0-1.17,0,1.27,1.27,0,0,0-.44.37,1.73,1.73,0,0,0-.27.56,2.67,2.67,0,0,0,0,1.41,1.73,1.73,0,0,0,.27.56,1.29,1.29,0,0,0,.44.37,1.26,1.26,0,0,0,.58.13M114.28,20a3.57,3.57,0,0,1,.15-1.07,2.4,2.4,0,0,1,.46-.85,2.1,2.1,0,0,1,.77-.57,2.63,2.63,0,0,1,1.08-.21,2.47,2.47,0,0,1,1,.21,2.26,2.26,0,0,1,.77.57,2.52,2.52,0,0,1,.49.85A3.43,3.43,0,0,1,119,21a2.52,2.52,0,0,1-.49.85,2.26,2.26,0,0,1-.77.57,2.47,2.47,0,0,1-1,.21,2.63,2.63,0,0,1-1.08-.21,2.1,2.1,0,0,1-.77-.57,2.4,2.4,0,0,1-.46-.85,3.58,3.58,0,0,1-.15-1.07"/><path d="M123.17,19.81h1a.84.84,0,0,0,.57-.18.72.72,0,0,0,.21-.58,1,1,0,0,0-.05-.34.61.61,0,0,0-.15-.24.59.59,0,0,0-.24-.14,1.1,1.1,0,0,0-.33,0h-1Zm-1.07-2.4h2.32a2.05,2.05,0,0,1,.71.11,1.28,1.28,0,0,1,.5.32,1.36,1.36,0,0,1,.3.52,2.28,2.28,0,0,1,.1.69,1.83,1.83,0,0,1-.11.66,1.45,1.45,0,0,1-.33.52,1.5,1.5,0,0,1-.53.34,1.93,1.93,0,0,1-.71.12h-1.17v1.84h-1.07Z"/><path d="M128.2,20.59h1.3l-.64-2h0Zm.06-3.18h1.22l1.81,5.13h-1.16l-.33-1.06h-1.89l-.36,1.06h-1.13Z"/><path d="M133.12,19.51H134a1,1,0,0,0,.28,0,.63.63,0,0,0,.23-.13.62.62,0,0,0,.16-.21.77.77,0,0,0,0-.64.63.63,0,0,0-.22-.22.89.89,0,0,0-.3-.11,1.71,1.71,0,0,0-.33,0,1.41,1.41,0,0,0-.37,0,1,1,0,0,0-.27.11.81.81,0,0,0-.19.16.79.79,0,0,0-.12.17.71.71,0,0,0-.06.16.53.53,0,0,0,0,.12h-1a1.78,1.78,0,0,1,0-.27,1.47,1.47,0,0,1,.1-.34,1.67,1.67,0,0,1,.22-.35,1.42,1.42,0,0,1,.37-.32,2.19,2.19,0,0,1,.57-.23,3.17,3.17,0,0,1,.8-.09,2.43,2.43,0,0,1,.84.13,1.8,1.8,0,0,1,.58.33,1.32,1.32,0,0,1,.33.46,1.24,1.24,0,0,1,.11.49,1.34,1.34,0,0,1,0,.29.93.93,0,0,1-.12.29,1.07,1.07,0,0,1-.24.27,1.18,1.18,0,0,1-.39.2v0l.18.05.21.09a1.16,1.16,0,0,1,.21.15.94.94,0,0,1,.18.23,1.33,1.33,0,0,1,.13.33,1.76,1.76,0,0,1,.05.44,1.45,1.45,0,0,1-.14.63,1.51,1.51,0,0,1-.41.52,2.08,2.08,0,0,1-.68.35,3,3,0,0,1-.92.13l-.52,0a2.8,2.8,0,0,1-.49-.1,2,2,0,0,1-.44-.19,1.31,1.31,0,0,1-.58-.72,1.76,1.76,0,0,1-.08-.57h1a.66.66,0,0,0,.06.27.71.71,0,0,0,.2.25,1.09,1.09,0,0,0,.35.19,1.72,1.72,0,0,0,.53.07,1.59,1.59,0,0,0,.5-.07,1,1,0,0,0,.33-.18.7.7,0,0,0,.19-.26.87.87,0,0,0,0-.68.6.6,0,0,0-.21-.22.71.71,0,0,0-.27-.1l-.28,0h-.91Z"/><path d="M137.88,21.65h1.33a1.2,1.2,0,0,0,.33,0,.75.75,0,0,0,.26-.13.58.58,0,0,0,.17-.22A.73.73,0,0,0,140,21a.75.75,0,0,0-.07-.36.54.54,0,0,0-.19-.21.71.71,0,0,0-.27-.1l-.31,0h-1.3Zm0-2.22h1.32a1.18,1.18,0,0,0,.27,0,.64.64,0,0,0,.23-.1.52.52,0,0,0,.16-.18.57.57,0,0,0,.06-.27.59.59,0,0,0-.05-.27.44.44,0,0,0-.15-.17.59.59,0,0,0-.22-.09l-.26,0h-1.35Zm-1-2h2.5a2.26,2.26,0,0,1,.55.06,1.57,1.57,0,0,1,.41.16,1.19,1.19,0,0,1,.48.51,1.24,1.24,0,0,1,.1.29,1.53,1.53,0,0,1,0,.29,1.68,1.68,0,0,1,0,.35,1,1,0,0,1-.11.28.93.93,0,0,1-.19.23,1.43,1.43,0,0,1-.29.19,1.25,1.25,0,0,1,.41.24,1.08,1.08,0,0,1,.24.31,1.15,1.15,0,0,1,.11.34,2.11,2.11,0,0,1,0,.34,1.53,1.53,0,0,1-.14.66,1.31,1.31,0,0,1-.38.48,1.72,1.72,0,0,1-.6.29,2.82,2.82,0,0,1-.78.1h-2.34Z"/><path d="M141.93 17.41L142.95 17.41 142.95 20.9 142.97 20.9 144.99 17.41 146.07 17.41 146.07 22.54 145.04 22.54 145.04 19.07 145.03 19.07 143.01 22.54 141.93 22.54 141.93 17.41z"/><path d="M146.68 17.41L150.86 17.41 150.86 18.29 149.3 18.29 149.3 22.54 148.24 22.54 148.24 18.29 146.68 18.29 146.68 17.41z"/><path d="M151.46 17.41L152.49 17.41 152.49 20.9 152.5 20.9 154.53 17.41 155.61 17.41 155.61 22.54 154.58 22.54 154.58 19.07 154.57 19.07 152.55 22.54 151.46 22.54 151.46 17.41z"/><path d="M159.75,18.31h-1.43l-.16,0-.14,0-.14.07a.54.54,0,0,0-.13.12.65.65,0,0,0-.1.19.79.79,0,0,0,0,.26.75.75,0,0,0,0,.28.54.54,0,0,0,.3.3l.2.06.2,0h1.38Zm1,4.22h-1v-2h-1.39a.88.88,0,0,0-.35.09.58.58,0,0,0-.24.25,1.3,1.3,0,0,0-.12.49l0,.48c0,.11,0,.2,0,.28s0,.14,0,.19l0,.13,0,.09h-1.11l.08-.17a1,1,0,0,0,0-.15,1.44,1.44,0,0,0,0-.18q0-.1,0-.27l0-.48c0-.15,0-.28.06-.41a1.15,1.15,0,0,1,.11-.33.79.79,0,0,1,.22-.25,1.21,1.21,0,0,1,.37-.18l-.22-.09a.86.86,0,0,1-.24-.19,1.21,1.21,0,0,1-.26-.41,1.41,1.41,0,0,1-.1-.53,1.58,1.58,0,0,1,0-.35,1.6,1.6,0,0,1,.11-.31,1.5,1.5,0,0,1,.16-.27,1.47,1.47,0,0,1,.21-.22,1.24,1.24,0,0,1,.35-.21,2.16,2.16,0,0,1,.39-.11l.42,0h2.56Z"/><path d="M39.98 25.98L42.98 25.98 42.98 26.58 40.66 26.58 40.66 31.1 39.98 31.1 39.98 25.98z"/><path d="M47.74,28.54a2.79,2.79,0,0,0-.12-.84,1.91,1.91,0,0,0-.35-.66,1.59,1.59,0,0,0-.57-.43,2,2,0,0,0-1.53,0,1.59,1.59,0,0,0-.57.43,1.91,1.91,0,0,0-.35.66,2.79,2.79,0,0,0-.12.84,3,3,0,0,0,.11.85,1.81,1.81,0,0,0,.34.66,1.52,1.52,0,0,0,.56.43,2.18,2.18,0,0,0,1.59,0,1.51,1.51,0,0,0,.57-.43,1.84,1.84,0,0,0,.33-.66,3,3,0,0,0,.11-.85m.68,0a3.36,3.36,0,0,1-.07.66,2.85,2.85,0,0,1-.2.63,2.64,2.64,0,0,1-.34.55,2.2,2.2,0,0,1-.48.45,2.28,2.28,0,0,1-.63.3,2.88,2.88,0,0,1-1.55,0,2.25,2.25,0,0,1-.63-.3,2.22,2.22,0,0,1-.48-.45,2.57,2.57,0,0,1-.34-.55,2.8,2.8,0,0,1-.2-.63,3.29,3.29,0,0,1-.07-.66,3.38,3.38,0,0,1,.17-1.09,2.42,2.42,0,0,1,.49-.85,2.21,2.21,0,0,1,.78-.55A2.92,2.92,0,0,1,47,26a2.18,2.18,0,0,1,.78.55,2.45,2.45,0,0,1,.49.85,3.38,3.38,0,0,1,.17,1.09"/><path d="M51.33,28.38a1.1,1.1,0,0,0,.78-.23,1.05,1.05,0,0,0,0-1.34,1.1,1.1,0,0,0-.78-.23h-1.4v1.8ZM49.25,26H51.4a2.19,2.19,0,0,1,.73.11,1.37,1.37,0,0,1,.51.3,1.24,1.24,0,0,1,.3.47,2,2,0,0,1,0,1.23,1.24,1.24,0,0,1-.3.47,1.37,1.37,0,0,1-.51.3,2.19,2.19,0,0,1-.73.11H49.93V31.1h-.68Z"/><path d="M58.07,28.54a2.79,2.79,0,0,0-.12-.84,1.91,1.91,0,0,0-.35-.66A1.59,1.59,0,0,0,57,26.6a2,2,0,0,0-1.53,0,1.59,1.59,0,0,0-.57.43,1.91,1.91,0,0,0-.35.66,2.79,2.79,0,0,0-.12.84,3,3,0,0,0,.11.85,1.81,1.81,0,0,0,.34.66,1.52,1.52,0,0,0,.56.43,2.18,2.18,0,0,0,1.59,0,1.51,1.51,0,0,0,.57-.43,1.84,1.84,0,0,0,.33-.66,3,3,0,0,0,.11-.85m.68,0a3.36,3.36,0,0,1-.07.66,2.85,2.85,0,0,1-.2.63,2.64,2.64,0,0,1-.34.55,2.2,2.2,0,0,1-.48.45,2.28,2.28,0,0,1-.63.3,2.88,2.88,0,0,1-1.55,0,2.25,2.25,0,0,1-.63-.3,2.22,2.22,0,0,1-.48-.45,2.57,2.57,0,0,1-.34-.55,2.8,2.8,0,0,1-.2-.63,3.29,3.29,0,0,1-.07-.66,3.38,3.38,0,0,1,.17-1.09,2.42,2.42,0,0,1,.49-.85,2.19,2.19,0,0,1,.78-.55,2.92,2.92,0,0,1,2.1,0,2.18,2.18,0,0,1,.78.55,2.45,2.45,0,0,1,.49.85,3.38,3.38,0,0,1,.17,1.09"/><path d="M60.87,26.58q0,.5,0,1c0,.33-.06.66-.1,1s-.05.49-.08.67-.05.35-.08.49-.06.27-.1.39-.08.25-.12.38h2.39V26.58ZM59.18,32.2V30.5h.46l.14-.34a3.9,3.9,0,0,0,.12-.39c0-.15.07-.31.1-.5s.06-.41.09-.67.06-.54.08-.8,0-.51,0-.74,0-.44,0-.62,0-.34,0-.46h3.21V30.5H64v1.7h-.64V31.1H59.82v1.1Z"/><path d="M67.29,29l-.78-2.28L65.65,29ZM64.18,31.1l1.91-5.2h.83l1.85,5.2H68l-.54-1.57h-2l-.57,1.57Z"/><path d="M71.43 25.98L72.41 25.98 73.86 30.29 73.87 30.29 75.32 25.98 76.3 25.98 76.3 31.1 75.66 31.1 75.66 26.79 75.64 26.79 74.21 31.1 73.53 31.1 72.09 26.79 72.07 26.79 72.07 31.1 71.43 31.1 71.43 25.98z"/><path d="M81.43,28.54a2.79,2.79,0,0,0-.12-.84A1.91,1.91,0,0,0,81,27a1.59,1.59,0,0,0-.57-.43,2,2,0,0,0-1.53,0,1.59,1.59,0,0,0-.57.43,1.91,1.91,0,0,0-.35.66,2.79,2.79,0,0,0-.12.84,3,3,0,0,0,.11.85,1.81,1.81,0,0,0,.34.66,1.52,1.52,0,0,0,.56.43,2.18,2.18,0,0,0,1.59,0,1.51,1.51,0,0,0,.57-.43,1.84,1.84,0,0,0,.33-.66,3,3,0,0,0,.11-.85m.68,0a3.36,3.36,0,0,1-.07.66,2.85,2.85,0,0,1-.2.63,2.64,2.64,0,0,1-.34.55,2.2,2.2,0,0,1-.48.45,2.28,2.28,0,0,1-.63.3,2.88,2.88,0,0,1-1.55,0,2.27,2.27,0,0,1-.63-.3,2.24,2.24,0,0,1-.48-.45,2.57,2.57,0,0,1-.34-.55,2.8,2.8,0,0,1-.2-.63,3.29,3.29,0,0,1-.07-.66,3.35,3.35,0,0,1,.17-1.09,2.42,2.42,0,0,1,.49-.85,2.2,2.2,0,0,1,.78-.55,2.92,2.92,0,0,1,2.1,0,2.18,2.18,0,0,1,.78.55,2.45,2.45,0,0,1,.49.85,3.38,3.38,0,0,1,.17,1.09"/><path d="M83.37,28.53a2.91,2.91,0,0,0,.12.87,2,2,0,0,0,.34.66,1.52,1.52,0,0,0,.53.42,1.59,1.59,0,0,0,.69.15,1.38,1.38,0,0,0,.59-.12,1.46,1.46,0,0,0,.45-.31,1.6,1.6,0,0,0,.3-.44,1.77,1.77,0,0,0,.15-.5h.66a2.12,2.12,0,0,1-.1.45,2.21,2.21,0,0,1-.2.45,2.29,2.29,0,0,1-.3.41,1.93,1.93,0,0,1-.41.34,2.15,2.15,0,0,1-.52.23,2.23,2.23,0,0,1-.62.08,2.84,2.84,0,0,1-.5,0A2.35,2.35,0,0,1,84,31a2.27,2.27,0,0,1-.5-.31,1.94,1.94,0,0,1-.43-.49,2.63,2.63,0,0,1-.29-.69,3.48,3.48,0,0,1-.11-.93,4,4,0,0,1,.1-.93,2.77,2.77,0,0,1,.27-.71,2.1,2.1,0,0,1,.9-.86,2.25,2.25,0,0,1,.55-.19,2.77,2.77,0,0,1,.57-.06,2.61,2.61,0,0,1,.63.07,2.21,2.21,0,0,1,.51.19,1.87,1.87,0,0,1,.4.29,1.92,1.92,0,0,1,.29.35,1.76,1.76,0,0,1,.18.37,1.53,1.53,0,0,1,.08.37H86.5a1.55,1.55,0,0,0-.2-.44,1.3,1.3,0,0,0-.31-.33,1.37,1.37,0,0,0-.41-.21,1.62,1.62,0,0,0-.49-.07,1.68,1.68,0,0,0-.71.15,1.54,1.54,0,0,0-.54.42,1.91,1.91,0,0,0-.35.66,2.86,2.86,0,0,0-.12.86"/><path d="M88.1 25.98L88.78 25.98 88.78 28.48 91.27 25.98 92.23 25.98 90.1 28.05 92.28 31.1 91.41 31.1 89.61 28.52 88.78 29.32 88.78 31.1 88.1 31.1 88.1 25.98z"/><path d="M94.92,30.5a2.09,2.09,0,0,0,.56-.06,1,1,0,0,0,.37-.18.68.68,0,0,0,.2-.28,1.11,1.11,0,0,0,0-.73.68.68,0,0,0-.2-.28,1,1,0,0,0-.37-.18,2.05,2.05,0,0,0-.56-.06H93.55V30.5Zm-.1-2.34a1.88,1.88,0,0,0,.54-.06.79.79,0,0,0,.32-.17.55.55,0,0,0,.15-.26,1.28,1.28,0,0,0,0-.32.92.92,0,0,0-.05-.32.55.55,0,0,0-.18-.24.9.9,0,0,0-.33-.15,2,2,0,0,0-.49-.05H93.55v1.58Zm-2-2.18H94.7l.53,0a2.36,2.36,0,0,1,.42.07,1.45,1.45,0,0,1,.35.15,1.13,1.13,0,0,1,.49.6,1.33,1.33,0,0,1,.07.45,1.31,1.31,0,0,1,0,.29,1.24,1.24,0,0,1-.11.3,1.14,1.14,0,0,1-.21.27,1,1,0,0,1-.32.21,1.8,1.8,0,0,1,.32.15,1.22,1.22,0,0,1,.3.24,1.25,1.25,0,0,1,.22.36,1.34,1.34,0,0,1,.09.5,1.65,1.65,0,0,1,0,.35,1.39,1.39,0,0,1-.13.35,1.49,1.49,0,0,1-.23.32,1.36,1.36,0,0,1-.34.26,1.8,1.8,0,0,1-.46.18,2.46,2.46,0,0,1-.59.06H92.87Z"/><path d="M102.16,26h.68V31.1h-.68Zm-2.4,4.53a1.61,1.61,0,0,0,.39,0,.8.8,0,0,0,.31-.15.7.7,0,0,0,.21-.28,1.08,1.08,0,0,0,.08-.43,1.05,1.05,0,0,0-.08-.43.68.68,0,0,0-.22-.28.93.93,0,0,0-.35-.15,2.24,2.24,0,0,0-.47,0H98.32V30.5ZM97.64,26h.68v2.11h1.36a2.7,2.7,0,0,1,.8.1,1.49,1.49,0,0,1,.56.3,1.21,1.21,0,0,1,.33.47,1.73,1.73,0,0,1,.11.63,1.7,1.7,0,0,1-.11.62,1.29,1.29,0,0,1-.32.47,1.41,1.41,0,0,1-.51.31,2,2,0,0,1-.69.11H97.64Z"/><path d="M16.67,40.18,16.46,40A8.55,8.55,0,0,0,10.3,37.7H6.39c-4,0-6.39-2.19-6.39-5.85V0H33.33V31.85c0,3.66-2.38,5.85-6.36,5.85H23A8.52,8.52,0,0,0,16.89,40ZM.64.64V31.85c0,3.27,2.15,5.22,5.75,5.22H10.3a9.19,9.19,0,0,1,6.37,2.25A9.17,9.17,0,0,1,23,37.06H27c3.59,0,5.73-2,5.73-5.22V.64Z" fill="#e52045"/><path d="M20.82,9.84a3.47,3.47,0,0,0-.19-.37c-.08-.18-.11-.32-.17-.35a.91.91,0,0,0,.36.71" fill="#e52045"/><path d="M20.71,10.17c0-.06-.17-.25-.27-.46a3.27,3.27,0,0,0-.19-.38,1.09,1.09,0,0,0,.46.84" fill="#e52045"/><path d="M21,9.55a2.57,2.57,0,0,0-.13-.31c-.05-.14-.1-.28-.14-.29a.7.7,0,0,0,.26.6" fill="#e52045"/><path d="M20.59,10.52a4.47,4.47,0,0,0-.33-.54,4.46,4.46,0,0,0-.2-.45,1.4,1.4,0,0,0,.54,1" fill="#e52045"/><path d="M20.67,15.82c0,.06.23.28.36.5a3.89,3.89,0,0,0,.22.38,1.34,1.34,0,0,0-.57-.88" fill="#e52045"/><path d="M21,9.09c0-.17-.05-.33-.09-.36a.9.9,0,0,0,.2.78A2.12,2.12,0,0,0,21,9.09" fill="#e52045"/><path d="M16.58,8.38s0,.06,0,.09a.27.27,0,0,1-.14,0s0-.06-.05-.09a.2.2,0,0,1,.2,0m-.34.11a1.24,1.24,0,0,0,.37,0c.19-.12.18-.19,0-.24a.85.85,0,0,0-.36,0c.09.12.05.14,0,.2" fill="#e52045"/><path d="M21.14,15.72a.57.57,0,0,0-.31-.45s.11.14.19.25.09.17.12.19" fill="#e52045"/><path d="M20.75,15.54c0,.05.18.22.28.38a2.86,2.86,0,0,0,.17.29.92.92,0,0,0-.45-.68" fill="#e52045"/><path d="M28.35,20.77a.23.23,0,0,1-.2-.09c-.09-.1-.11-.17-.1-.24l.06-.29c0-.08,0-.06.08,0a.86.86,0,0,1,.22.47c0,.09,0,.14-.05.15m-.11.4c-.06,0-.12-.06-.18-.09l.1.14c.05.08-.05.12-.14,0L27.74,21c-.08-.12-.05-.24.09-.41s.08-.05.11,0l.22.14s0,.05,0,.08,0,.1.06.2.05.13,0,.13m-.29-1.74c-.13-.15-.1-.24.06-.23-.15-.24,0-.29.17,0a1.07,1.07,0,0,1,.06.61c0,.08-.1.1-.13,0a1.25,1.25,0,0,0-.17-.34m-1.4-2.23a.2.2,0,0,0-.25,0c0,.12,0,.14-.09.05a.24.24,0,0,1,0-.32.2.2,0,0,1,.28,0c.08,0,.1.09.1.13l-.15.05.19.05c.1.09,0,.25-.08.11m-.79.89c-.2.26-.34.31-.41.13l-.06.33c-.05.15-.09.18-.12.06a2.54,2.54,0,0,1,.15-.74c0-.11.09-.13.15-.06.23-.37.18-.17.08.11l.06,0c.28-.52.17-.1.14.13m-.74.14,0,.55c-.05.08-.09.22-.14,0l.08-.5-.09.18c-.08,0-.09-.08-.1-.23s0-.24.1-.2l.06.17.05-.12c.09-.05.1,0,.06.15m.24,1.43a.32.32,0,0,1,.29.17,1.15,1.15,0,0,0,.27.29c-.29-.46-.31-.65-.05-.48a.68.68,0,0,1,.32.71c.06.18,0,.22-.29,0-.13-.08-.14-.12,0-.18l-.4-.31c.35.54.09.4-.17,0,.19.42.05.27-.2.06H25c.45.36.08.27-.22.05l0,0c.78.55,0,.25-.38,0,.24.22.52.37.46.38a1.9,1.9,0,0,1-.89-.27c.31.19.57.31.41.36s-.36-.1-.87-.31q-.19,0-.11,0c.45.17.7.31.65.37s-.42-.08-.91-.32c-.14-.06-.31-.13-.47-.22.28.29,1.39.69,1.16.8s-.28,0-.52-.16a10.49,10.49,0,0,1-.92-.59c-.27-.22-.51-.43-.7-.6v.06c.66.73,1.94,1.38,1.54,1.35-.15,0-.1,0-.23-.05A5.64,5.64,0,0,1,21,19.14l0,0c.55.85,1.57,1.56,1.47,1.65s-.74-.45-1.15-.89a7,7,0,0,1-.66-.87v.1c.86,1.44,2,1.71,1.74,1.89-.06.05-.1,0-.17-.05a6.56,6.56,0,0,1-1.84-2l0,.05a17.31,17.31,0,0,0,1.44,1.8c.06.08,0,.15-.05.12a7.19,7.19,0,0,1-1.61-2V19c.47.91,1.51,2,1.2,1.91a4.12,4.12,0,0,1-.52-.68c-.17-.24-.37-.54-.52-.73l0,.09a7.68,7.68,0,0,1,.77,1.19h0l-.83-1.08-.05.05c.34.43.77.93.7,1L20,20c0,.25.28.47.21.54a2.31,2.31,0,0,1-.37-.55c-.05-.09,0,.14-.06.06a13.69,13.69,0,0,1-1.42-1.94c-.08-.13-.05-.14.09-.05l1,1.07c-.65-.71-1.1-1.28-1-1.37A11,11,0,0,0,19.59,19c-.82-.93-1.17-1.38-1.07-1.37a10.84,10.84,0,0,1,1.15,1.2c-.57-.79-1.29-1.44-1.29-1.57s.15-.06.2,0a14.63,14.63,0,0,0,1.2,1.36c-.32-.5-1.15-1.29-1.11-1.36s.13-.06.26,0a6.34,6.34,0,0,0,1,1.15c-.28-.4-.93-1.06-.87-1.15a.12.12,0,0,1,.17,0c.13.2.28.36.45.59a4.58,4.58,0,0,0,.42.43l-.78-1s.05,0,.08,0a.14.14,0,0,1,.12,0,5.27,5.27,0,0,0,.75.93l-.64-.92c0-.08.23,0,.28,0l.55.79c-.23-.55-.56-.82-.4-.8s.28.17.42.36.19.22.25.31l-.36-.59c0-.05.13,0,.24,0l.24.27-.12-.23c0-.08.1,0,.17,0l.22.34,0,0c-.13-.22-.22-.32-.15-.34l.19,0,.18.2c-.05-.23.17-.18.52-.05a1.4,1.4,0,0,1,.65.77c-.05,0-.14-.09-.24-.22L22.14,18A5,5,0,0,1,22.69,19c-.08.06-.36-.42-.68-1,.17.45.38.84.45,1,0,0-.15-.2-.32-.47-.05-.08-.11-.11-.17-.2l.41.82a.17.17,0,0,1,.08.24c-.08.14,0,.19.13.32a1.42,1.42,0,0,0,.92.1,15.33,15.33,0,0,1,1.75-.21m-3.3,3.7.08-.05.13.51-.38-.22,0-.09c-4.56-6.2-8.42-11.46-11-15.06,0-.19,0-.27.19-.2,3.36,4.44,7.43,10.21,10.94,15.11m.26,1.11c.05.15.17.38-.17.06-.2-.1-.23,0-.06.32l.35.5a.9.9,0,0,0,.29.59l.28.57a.83.83,0,0,0,.08.25c0,.22.09.33.27.36a1.92,1.92,0,0,1-.79.87c-.75.41-1.35.24-1.29-.75,0-.54.14-1,.15-1.53.22-.85,0-1.29-.73-1.34a1.65,1.65,0,0,0-.89.17c-.2.14-.5.09-.89-.14a3.57,3.57,0,0,0-1.72-.88,1,1,0,0,1,.18,1.26c.31.14.29.28,0,.42a8.29,8.29,0,0,1-2.44-.37c-.28-.05-.33,0-.14.15.64.25,1,.64,1,1.17a6.84,6.84,0,0,0-.94.08.38.38,0,0,1-.55-.11c-.46-.47-.51-.89,0-1.25a6.84,6.84,0,0,0,1.26-1.39c.36,0,.68-.1,1-.15a10.83,10.83,0,0,0,3.87-1.08.34.34,0,0,1,.45.13l.84,1.11-.24.09.64.48c-.11.09,0,.15.1.2-.08.12,0,.23.09.22m.05-.47a.09.09,0,0,1,.08.09.08.08,0,0,1-.08.08.09.09,0,0,1-.09-.08.09.09,0,0,1,.09-.09m.06-.82c.06-.06.14-.1.17-.08s0,.09-.08.17-.14.11-.17.09,0-.1.08-.18m.12.46s-.05.11-.05.33a.6.6,0,0,1-.05-.43c.09-.23.18-.29.26-.29.15.17-.1.27-.15.4m-.1.83c-.05,0-.06-.08,0-.14s.08-.1.12-.08.06.08,0,.14-.08.1-.12.08m.29.22a.2.2,0,0,1-.19.09.11.11,0,0,1,0-.17.19.19,0,0,1,.21-.09c.06,0,.08.09,0,.17m.12.25a.14.14,0,0,1-.17,0s0-.09.05-.11a.15.15,0,0,1,.17,0s0,.1-.05.13m-.05-1.3c.11-.13.17,0,.29,0l-.15.08.17.05-.15.08.28.14-.18.05.23.14-.2.05c.2.06.33.12.32.18l-.22.05c.09,0,.27.05.28.13s-.14,0-.2,0l.19.13h-.18l.13.06c0,.11-.06.18-.14.19s0-.15-.18-.33c-.38-.52-.36-1-.28-1.07m1,1.33s0-.1,0-.11-.1,0-.14-.08,0-.23.15-.27.14,0,.11.1l-.06.05a.4.4,0,0,1,.23.14c-.06,0-.1,0-.11.06.22,0,.21.31,0,.24s-.19,0-.13.23.23.32.22.05.41-.15.46.13l-.17-.06c0,.2.2.11.23.29h-.14a.94.94,0,0,1,.36.42c-.18,0-.19-.22-.36-.22.22.29.47.23.6.52a1.21,1.21,0,0,1-.64-.38c.22.31.36.56.31.69-.32-.14-.38-.61-.51-.75,0,.24.18.38.11.65a1.2,1.2,0,0,1-.19-.78c.13,0,.18-.06.18-.28s-.14-.22-.12,0-.12.22-.46,0c-.05.05,0,.11.22.23v.19l.1-.17,0,.54c0,.14-.05.11-.09,0l0-.27c0,.19,0,.28-.09.27l-.05-.5-.14.18,0-.28-.13.1v-.35c-.09.05-.19,0-.29-.14a.4.4,0,0,0,.35-.05c-.06-.25.05-.38.27-.41m-.91,4c0,.08-.08.13-.1.11s0-.08,0-.15.08-.13.1-.12,0,.08,0,.15m-.2,0c-.06.1-.13.19-.17.18s0-.12,0-.23.13-.19.17-.18,0,.11,0,.23m.08,1.94c.1,0,.09.15.09.24-.06-.06-.13-.14-.19-.06-.18-.14-.24-.06-.37,0a.35.35,0,0,1,.47-.15m-.51-2.16c0,.09-.09.15-.11.14s0-.09,0-.18.09-.17.11-.15,0,.09,0,.19m-.6,1.94c0,.06-.1.05-.24,0s-.15-.25.06-.37c.08.22.43.36.18.41m-.05.56a.07.07,0,0,1-.08-.06.07.07,0,0,1,.08-.08c.05,0,.09,0,.09.08s0,.06-.09.06m-.25,0s0,0-.05-.08,0-.08,0-.09,0,0,.05.08,0,.08,0,.09m-.2-1.42s0-.1,0-.18.14-.11.17-.09,0,.1-.05.18-.13.11-.15.09m.09,1.51s-.06,0-.09-.1,0-.13,0-.13.06,0,.09.1,0,.13,0,.13M21,29.4s0-.09,0-.15a.17.17,0,0,1,.05-.05s0,0,0,0-.12.09-.14.08,0-.09,0-.15a0,0,0,0,1,0,0L21,29s-.06,0-.09,0,0-.06,0-.11,0-.1,0-.13.11,0,.19.19,0,.1,0,.14.1.08.13.12a.32.32,0,0,1,.06.27s0,0-.06-.11,0,0,0,0-.1.09-.11.06,0-.08,0-.13l.05-.05,0,0,0,0c-.05.06-.12.1-.14.08m-.31-4.7a.73.73,0,0,1,.43.47c0,.13,0,.19-.09.09a1.4,1.4,0,0,0-.35-.56m.32.82c0,.14-.06.23-.1.1a1.81,1.81,0,0,0-.32-.73.68.68,0,0,1,.42.63m-.2.37c-.13-.18-.17-.45-.32-.64a.74.74,0,0,1,.41.54c0,.14,0,.22-.09.1m-.06.28c-.1-.11-.15-.31-.28-.42.16.09.24.1.33.34,0,.09,0,.15-.05.08m-.08.36c0-.1-.13-.2-.15-.31s0-.05.08,0a.3.3,0,0,1,.08.31m-1.72-1.81s.06,0,.13,0,.09.08.08.09-.06,0-.13,0-.09-.09-.08-.1m-1.1-.79a2.74,2.74,0,0,1,1,.63c.05.09,0,.11-.05.08a9.08,9.08,0,0,1-.93-.7m1,2.41c0-.19,0-.37,0-.36s.1.19.08.37-.09.34-.13.33,0-.17,0-.34m-.31.05c0-.15.08-.27.1-.27s0,.13,0,.28-.06.27-.1.27,0-.13,0-.28m-.28,0c0-.15,0-.28.08-.28s.05.13,0,.29-.05.27-.09.27,0-.13,0-.28m-.2,0c0-.14,0-.25.05-.25s.05.11.05.25,0,.26-.05.26-.05-.12-.05-.26m.69,2.49a.59.59,0,0,1,.08.19l0,0,0-.23m1.52-.7a5.23,5.23,0,0,1-.79,1.28s0,0,0,0l0,.05,0-.06,0-.19a.35.35,0,0,1,.06.14l.12-.19,0-.2.08.14.09-.15c0-.06,0-.14-.06-.22a1,1,0,0,1,.09.15,1.36,1.36,0,0,0,.1-.19c0-.06,0-.13-.05-.19l.08.13a1.84,1.84,0,0,0,.08-.28l-1.31.82L19,29l0-.24a1.41,1.41,0,0,1,.09.21l.09-.08,0-.31a1.29,1.29,0,0,1,.1.26l.11-.09c0-.13,0-.27-.05-.41a1.27,1.27,0,0,1,.13.34l.1-.09c0-.18,0-.38-.06-.57a1.18,1.18,0,0,1,.15.48l.08-.06a5.69,5.69,0,0,0-.08-.62,1.49,1.49,0,0,1,.18.54s0,0,0,0a5.65,5.65,0,0,0-.08-.74,1.12,1.12,0,0,1,.17.64l.08-.08a3.67,3.67,0,0,0-.26-1c-.05.18-.05.24-.1.23,0-.2,0-.29,0-.32a.91.91,0,0,1-.18.55l.05-.46h-.08c-.06.33-.08.43-.2.55a1.19,1.19,0,0,0,0-.4l-.09,0v0a.65.65,0,0,1-.14.5c0-.18.06-.34.06-.52l-.1,0v.18a1.37,1.37,0,0,1-.1.28,1.2,1.2,0,0,0,0-.45l-.09,0v.05s0,.08,0,.08,0,0,0-.06,0,0,0-.05h-.06s0,.06,0,.08,0,0-.06-.08h-.06c0,.06,0,.09,0,.12s-.06,0-.08-.1l-.11,0c0,.05,0,.09,0,.09s0,0-.06-.08h-.1c0,.05,0,.08,0,.09s0,0-.06-.08h0s0,0,0,0,0,0,0-.06-.05-.15,0-.17.06,0,.1.13a.23.23,0,0,1,0,.09l.09,0s0,0,0-.05,0-.19,0-.2.06.06.09.17a.55.55,0,0,1,0,.06l.1,0a.57.57,0,0,1,0-.13c0-.05,0-.08,0-.08s.08.08.1.18l.06,0s0,0,0,0a.38.38,0,0,1,0-.15s0-.05,0-.06.08.09.1.18a0,0,0,0,0,0,0l.06,0v-.2c0-.05,0-.08,0-.08s0,0,0,.06l0,.18.08,0v-.1s0-.06,0-.06,0,.06.05.13l.1,0V27s0-.08,0-.08,0,0,0,.05a.38.38,0,0,1,0,.13s.05,0,.08,0,0-.15,0-.21,0-.09,0-.09,0,0,0,.06a.84.84,0,0,1,0,.19l.08,0a5.54,5.54,0,0,0,.21-1.28l-.08-.14a2.8,2.8,0,0,1-.22,1.16,3.21,3.21,0,0,0,0-1.3h0a3,3,0,0,1-.13,1.25A3,3,0,0,0,19,25.33l-.08,0a.7.7,0,0,1,0,.57c-.08-.24,0-.32-.23-.48h-.06a.58.58,0,0,1,.1.47,1.53,1.53,0,0,0-.27-.41h-.11c.17.19.17.23.14.38-.06-.17-.32-.28-.42-.36H18c.13.06.31.29.24.37-.09-.1-.28-.2-.36-.34s0,0-.08,0,0,.13,0,.22a.48.48,0,0,1-.32-.19s-.08,0-.08,0,.06.13.08.17-.29-.18-.32-.22.05,0-.1,0l.11.28s-.22-.24-.24-.27l-.18,0-.11-.19a7.86,7.86,0,0,0,2-.13l.71-.14c.24-.08.41.05.46.42l0,.41a.82.82,0,0,1,.06.85,1.28,1.28,0,0,0,.45.69c.21.19.23.46,0,.84m-1.67-.51c0-.1.05-.14.09-.14s0,.05,0,.17,0,.22-.09.21-.06-.12,0-.23m-.13-.05s0-.06,0-.06,0,0,0,.06Zm0,.35c-.05,0-.05-.12,0-.23h.08c0,.14,0,.24-.05.23m-.15,0c-.08,0-.06-.09,0-.17s0-.12.06-.12,0,0,0,.13,0,.15-.06.15m-.17,0c-.05,0,0-.08,0-.14h.08c0,.08,0,.14-.05.14m-.27-1.35s-.05-.09-.05-.22,0-.22.05-.22.05.1.05.22,0,.22-.05.22m-.05.93c-.05,0,0,0-.06-.1a.26.26,0,0,1,0-.17s.06.06.09.14,0,.11,0,.13m-.17-.93s-.06-.11-.06-.25,0-.26.06-.26.06.12.06.26,0,.25-.06.25m-.06.85c0-.06,0-.13,0-.13s0,0,.06.09a.39.39,0,0,1,0,.13s-.05,0-.06-.09m-.09-.89s-.08-.08-.1-.19,0-.22,0-.22.08.08.12.19,0,.22,0,.22m-.21,0c-.09,0-.06,0-.09-.15s0-.23,0-.23.1.12.12.22,0,.15,0,.17m-.24,0s-.08-.09-.09-.19,0-.2,0-.2.08.08.1.18,0,.2,0,.22m-.2-.05s-.06-.05-.1-.15,0-.18,0-.19a.35.35,0,0,1,.1.17c0,.09,0,.18,0,.18m-.28,0c-.05,0,0,0-.05-.11s0-.17,0-.17.08.08.09.17,0,.11,0,.11m-.18-1.19-.09-.15h.1l.1.17-.11,0m0,1.17s-.05,0-.08-.1,0-.13,0-.13.05,0,.06.1,0,.11,0,.13m-.27-1.25c0-.05-.1,0-.17-.06s0,0-.15-.06l.34,0,.08.13h0s.12.41-.09,0m0,1.26a.21.21,0,0,1-.08-.13c0-.06,0-.1,0-.1a.24.24,0,0,1,.08.14c0,.06,0,.1,0,.09M16,30.75c.08,0,.15,0,.16,0s0,.09-.11.12-.15,0-.17,0,0-.09.12-.12m.4.13s-.05.11-.15.15-.2,0-.22,0,.05-.1.15-.15.2,0,.22,0m-.65-.27s0-.06.09-.09a.14.14,0,0,1,.13,0s0,.08-.09.09-.11,0-.13,0m-.22-4.06a2.19,2.19,0,0,0-.77,1.16c-.14-.19.15-.68.61-1.28a4.32,4.32,0,0,0-.78.82,2.57,2.57,0,0,1,.45-.79,2,2,0,0,0-.79,1.94,2,2,0,0,1,.33-1.77l-.55.57.5-.77-.31.1,0-.11-.19.09v-.13l-.26.2.05-.22c-.09-.05-.15,0-.23.13-.08-.26.2-.35.5-.22a1.5,1.5,0,0,0,.88.05,1.67,1.67,0,0,1,.56,0c.19.1.18.19,0,.23m-.35.64c0,.06-.09.1-.1.09s0-.08,0-.13a.18.18,0,0,1,.1-.09s0,.08,0,.13m-.12.32c0,.08-.08.13-.1.12s0-.08,0-.14.08-.13.1-.11a.18.18,0,0,1,0,.14m-.18,2.78-.28-.24c-.08-.15,0-.27.13-.37a.37.37,0,0,0,.11.26.22.22,0,0,1,0,.36m-.05,1.17c-.06,0-.13,0-.13,0s0-.05.1-.05.13,0,.13.05,0,0-.1,0m-.26-.13s.05-.05.13-.06.15,0,.17,0,0,.05-.12.08-.17,0-.18,0m-.2-.08s.05-.08.18-.1.23,0,.26,0-.06.08-.18.1a.36.36,0,0,1-.26,0m.06-3.09c0-.09,0-.15.05-.15s.05.06.05.15,0,.17-.05.17-.05-.08-.05-.17m0,2.88c.1,0,.22,0,.23,0s-.05.06-.15.1a.33.33,0,0,1-.23,0s.05-.06.15-.09m-.27-.27s0-.05.1-.05.13,0,.13.05,0,0-.1,0-.13,0-.13,0m-.33-2.85a.76.76,0,0,0,.18.41c0,.09,0,.14-.06.1a.65.65,0,0,1-.11-.51M14,29.71a.25.25,0,0,1-.1-.26c0-.05.09-.05.1,0a.25.25,0,0,0,.08.15c.05,0,0,.14-.08.09m-.29-.06a.27.27,0,0,1,0-.32c.05-.06.11,0,.1.05a.27.27,0,0,0,0,.22c0,.06-.05.17-.14.05m-.22-5.19c-.05-.05,0-.1.06-.08l.15.14s-.05.1-.09.08Zm.88-.82c-.05,0,0-.13.06-.09l.2.18c.05.05,0,.14-.08.1Zm-.22.08c-.06-.06,0-.15.08-.1l.24.2c.06.06,0,.15-.09.11Zm-.17.13c-.08-.08,0-.18.09-.12l.28.24c.08.06,0,.18-.1.13Zm-.24.2c-.05-.06.06-.15.13-.12l.23.23c.06.06-.09.17-.13.11Zm0,.43-.13-.13s0-.09.06-.06l.13.13s0,.09-.06.06m-.05-.24c-.05-.05,0-.12.08-.08l.15.15s-.06.1-.09.06Zm-.14-2.54c0-.09.11-.14.27-.15l1.71-.26c.09,0,.1,0,.09.15a1.23,1.23,0,0,1-.13.45c-.06.05-.08-.17-.06-.5-.13.31-.08.63-.28.68-.09-.14.05-.41.08-.61-.19.18-.13.4-.29.63-.06,0-.05-.2,0-.55a1.7,1.7,0,0,1-.26.55,1,1,0,0,1,0-.47,1.17,1.17,0,0,1-.24.6,2,2,0,0,1,0-.55l0,0a1.38,1.38,0,0,1-.18.6.73.73,0,0,1,0-.59h-.08c-.05.17-.08.31-.15.36s-.15-.13-.15-.32a1.18,1.18,0,0,1-.36.66,1.62,1.62,0,0,1,.09-.64m-.19,4.72h0l-.06.15-.14.25.09-.28,0-.14L13,26.35l-.12.11-.19.22.15-.25.06-.1h-.08l-.12.12-.19.22.15-.24.06-.1h-.1l-.08.12-.18.23.13-.27,0-.06-.14,0-.09.22,0-.2a.4.4,0,0,0-.26.24c0-.22.17-.35.49-.38s.82,0,.69.19m-1.15,2.44s-.08,0-.13-.1S12,28.61,12,28.6s.08,0,.13.1.06.14.05.15M12,29S12,29,11.92,29s0-.13,0-.14.05,0,.09.1S12,29,12,29m-.13.29s-.08-.08-.1-.17,0-.19,0-.2.09.06.12.17,0,.19,0,.2m-.15-2.74s0,0-.08.05,0,.14,0,.22l-.09-.19h-.05a2.41,2.41,0,0,0,0,.31l-.13-.28h-.06c0,.14,0,.29,0,.45l-.18-.37v0c0,.08,0,.17-.06.24l0-.26c0,.1-.09.23-.13.36v-.32h0l.32-.2c.22-.1.48-.14.45,0m-.33,2.14c-.19-.08-.18-.24.05-.4.2.09.2.28-.05.4m.71-.27c0,.05.05.1,0,.12s-.05,0-.09-.08-.05-.1,0-.11a.14.14,0,0,1,.08.08m-2-1.93c-.08-.19-.29-.24-.66-.18a.9.9,0,0,0-.49-.24,1.63,1.63,0,0,1,1.46-1.29,11,11,0,0,0,2.49-1c.38-.28.43-.15.15.4l-.43.5a.47.47,0,0,0,0,.78c.43.22.61.42.55.6a1.27,1.27,0,0,0-1.28.28,1.43,1.43,0,0,0-1,.18,1,1,0,0,0-.79-.05m.71.22c0,.08-.18.22-.36.34l.1-.23a.36.36,0,0,1,.08-.08h-.09a1.19,1.19,0,0,1-.25.22l.08-.19.05,0h-.06a.82.82,0,0,1-.19.15l.05-.13c.09-.12.15-.1.29-.15s.34,0,.31.11m-.17,1.07-.2-.18.06.34-.15-.17,0,.31a.58.58,0,0,1,0-.53c.1-.27.23-.35.31-.33s0,.31,0,.56m-.26,1.29c-.06,0-.13,0-.11-.05s.06,0,.13,0,.13,0,.13.06a.21.21,0,0,1-.14,0m-.22-.22s.08,0,.17,0,.15.05.15.08-.08,0-.17,0-.15-.05-.15-.08m-.08-.2s.09,0,.2,0,.18.06.18.09-.1.05-.2,0-.19-.05-.18-.09m-.22-2.08c0,.08-.17.22-.36.32l.12-.22.09-.08H9.63a1.27,1.27,0,0,1-.27.22l.09-.18a.18.18,0,0,1,.05-.05l-.13,0,.23-.09a.34.34,0,0,1,.27.1Zm-1.06.26.13-.27a.35.35,0,0,1,.28-.14c0,.09-.18.27-.41.41M12,22.57l-.05.17-.05,0,0-.14Zm.46.47c0,.05-.11.06-.11,0v-.15c0-.06.1-.06.1,0Zm.18-.29v.17c0,.05-.1.09-.09,0v-.17c0-.06.06-.09.08,0m.19,0c0,.05,0,.08-.06.08s-.06,0-.06-.08a.06.06,0,1,1,.13,0m.22-.05c0,.05-.11.1-.11,0l0-.18c0-.06.1-.11.11,0Zm.13-.19a.06.06,0,0,1-.05.06s0,0,0-.06,0-.06,0-.06a.06.06,0,0,1,.05.06m.18-.31,0,.23s-.11.06-.11,0l0-.23c0-.05.11-.08.11,0m-5,4.12a2.56,2.56,0,0,1-.4.82,1.48,1.48,0,0,0,.43-.69c0-.1.14,0,.1.23l-.1.09v.15H8.23v.2l-.12.05c.12.28,0,.46-.31.32-.09.34-.47.17-.28-.14a5.67,5.67,0,0,0,1-2.56c0-.37.26-.54.55-.7a1.64,1.64,0,0,0,.83-1.6c-.14-2.88.66-4.15,1.9-4.64l0,.11c-1.11.68-1.57,2-1.58,3.75a8,8,0,0,0,0,1.24l0-.09a18.2,18.2,0,0,1,.17-2.55A3.37,3.37,0,0,1,11,18.94a3.32,3.32,0,0,1,.22-.31c.1-.1.22-.13.31-.22v.09a3.42,3.42,0,0,0-.94,1.66,9.79,9.79,0,0,0-.13,2.71,1,1,0,0,1-.09.36l.05,0a1.21,1.21,0,0,0,.11-.55,6.33,6.33,0,0,1,.42-3.19,2.45,2.45,0,0,1,1.29-1.25l0,.09a3.16,3.16,0,0,0-1.47,2.88l0,0c.13-1.42.64-2.46,1.58-2.85a3.05,3.05,0,0,1,1.16-.11l-.08.06a2,2,0,0,0-1.74.69l.08,0a1.75,1.75,0,0,1,1.71-.6l-.05.1a1.62,1.62,0,0,0-1.28.4v.05a1.61,1.61,0,0,1,1.21-.36c.13,0,.17.11.13.27l-.08.7a8,8,0,0,1-.22,1.94l-.06,0,.06-1.17-.27,1.46c0,.17-.14.14-.12,0,.06-.31.17-.73.23-1.17a.15.15,0,0,0-.13.14,3.48,3.48,0,0,1-.32,1.31,6.27,6.27,0,0,0,.15-1.19l-.08.06-.19,1.11c.14.08,0,.19-.09,0l.06-.61H12.4l-.27,1,.09-.68-.23.68H11.9l.12-.57-.38,1c-.11,0-.13,0,0-.19l.24-.71h-.08c-.15.52-.27.89-.46,1h-.06a1.92,1.92,0,0,0,.32-.93,2.48,2.48,0,0,1-.54,1s0-.15.17-.43l.14-.37c-.06-.08-.1-.05-.14.06a1.9,1.9,0,0,1-.34.74l.17-.63,0-.08a1.94,1.94,0,0,1-.49.88l.1.05c.35-.23.82-.15,1.3-.37.1-.05.2-.08.27,0l-.09.24L12,23.1a.86.86,0,0,1-.23.45l0-.28c-.2.45-.34.69-.36.47l0-.27a1,1,0,0,0-.29.55c-.08,0-.09-.17-.06-.38l-.13.47c-.12,0-.14-.1-.08-.38a1.73,1.73,0,0,1-.23.46.49.49,0,0,1,0-.37l-.13.24c0,.18-.05.24-.13.23,0-.27,0-.37,0-.31l-.15.41c-.09.05-.11-.05-.1-.28-.14.08-.1.36-.2.47-.08-.05-.09-.18-.08-.32-.06.22-.13.35-.22.36l0-.42a1.46,1.46,0,0,1-.16.47l-.12-.31-.05.29c-.09.05-.16,0-.22-.22,0,.4-.05.73-.31.89a1.63,1.63,0,0,1-.24.68l.41-.6c.09,0,.13,0,.09.22l-.42.69c-.06.08-.14.05-.22,0m.18,2.42c.29.24.24.34-.15.31a.28.28,0,0,1-.2-.31L8,28.2c.17-.06.21,0,.25.2s.23.23.23.33m.11.82s-.09-.05-.1-.13,0-.15.06-.15.09.05.1.13,0,.14-.06.15m-.23.24a.31.31,0,0,1-.26-.12.41.41,0,0,1-.05-.5c.1-.14.22-.09.28.09H8.22c.15.08.24.17.24.27l-.19-.05c.14.1.2.19.2.27l-.15-.1Zm-.79-3.45.12-.06a.24.24,0,0,1,.14,0s-.13.06-.26.05m-.14-.11A.36.36,0,0,1,7.66,26l.28,0c-.2.18-.41.31-.5.28m0-.24a.23.23,0,0,1,.19-.17h.22c-.17.11-.34.19-.41.17m-.21-.42.12-.13a.22.22,0,0,1,.19,0c0,.05-.15.12-.31.15m.09-.34a.29.29,0,0,1,.27,0c0,.08-.23.14-.45.17Zm0-.19a.28.28,0,0,1,.28,0c0,.06-.24.14-.47.18Zm0-.22a.26.26,0,0,1,.27,0c0,.08-.2.17-.43.22Zm.08-.36a.21.21,0,0,1,.19,0c0,.06-.15.13-.32.17Zm2.92-6.57.5-.09,0,.1ZM7.9,23.65a.28.28,0,0,1,.26.06c-.05.06-.24.08-.47,0Zm.19-.17s-.13.05-.24.05l.1-.06a.13.13,0,0,1,.14,0m-.15-.56.17,0a.21.21,0,0,1,.18.09s-.19,0-.34-.05m0,.18a.25.25,0,0,1,.23,0c0,.06-.21.1-.4.13Zm1.7-1.33c.05.89.2,1.45-.32,2s-.85.43-.93,1a3.9,3.9,0,0,1-.24,1c-.37-.2-.41-.64-.13-1.31a3,3,0,0,0-.33-3.65c.52-2,1.39-3,2.82-2.64-.56.63-1,1.74-.87,3.65M7.22,21c0,.06-.06-.05-.08,0a5.64,5.64,0,0,1,.39-1.61A4.66,4.66,0,0,1,8.6,17.88a5.37,5.37,0,0,1,.84-.55H9.38a1.74,1.74,0,0,0-.68.37,5,5,0,0,0-1.16,1.52A4.8,4.8,0,0,0,7.06,21a1.89,1.89,0,0,1-.35.82c-.2.25-.37.09-.65.84l-.06,0a1.83,1.83,0,0,1,.19-.48c.09-.13.18-.19.29-.33A2.1,2.1,0,0,0,7,20.8a8.3,8.3,0,0,1,.26-1.24,2.53,2.53,0,0,1,.4-.79,3.88,3.88,0,0,1,1.66-1.56H9.17a3.75,3.75,0,0,0-1.84,1.82c-.47.77-.34,1.72-.71,2.44a3.58,3.58,0,0,1-.57.75H6c.09-.29.41-.52.56-.82a2.75,2.75,0,0,0,.18-.74A4.6,4.6,0,0,1,7.91,18H7.82c-1.23,1.34-1,2.28-1.31,3.2-.19.6-.4.52-.84,1.37a.64.64,0,0,1,.06-.31,2.38,2.38,0,0,1,.37-.51,3,3,0,0,0,.43-1.4,2.7,2.7,0,0,1,.23-.84,3.69,3.69,0,0,1,.29-.64,4.07,4.07,0,0,1,1.48-1.56v-.05A3.71,3.71,0,0,0,7,18.82a4.28,4.28,0,0,0-.48,1.11c-.09.33-.14.78-.26,1.23a1.73,1.73,0,0,1-.41.73,2.62,2.62,0,0,1-.28.36,1,1,0,0,1,.39-.7.7.7,0,0,0,.21-.33,5.7,5.7,0,0,1,.93-2.85c-.2.06-.37.28-.56.61a3.06,3.06,0,0,1,2-2.3,2.89,2.89,0,0,1,2.22,1,3.66,3.66,0,0,0-1.6.43l0-.08A2.38,2.38,0,0,1,10,17.6H9.91a2.85,2.85,0,0,0-1.48.89H8.36a2.44,2.44,0,0,1,1.5-1H9.62a2.41,2.41,0,0,0-1.1.69A5.2,5.2,0,0,0,7.22,21M5.68,23.24a.6.6,0,0,1-.09-.32c0-.15.13-.14.15,0s-.06.2-.06.36M6,21.11c.1-.17.14-.05.13.1a2,2,0,0,1-.52.57,3.3,3.3,0,0,1,.4-.68M13.49,18s-.12.05-.26.05S13,18.06,13,18s.12-.05.26-.05.26,0,.26.05M12,18a1.2,1.2,0,0,1,.82-.28h.54c.21,0,.18.21,0,.19H13a1.69,1.69,0,0,0-.91.24c-.15.06-.17-.06-.05-.15m1.1-2.18c-.08.12-.16.18-.19.14s0-.14.08-.25.17-.17.19-.14,0,.15-.08.25m-.48-.31.06-.27a.74.74,0,0,1-.38.38c.14-.22.17-.32.13-.38a1,1,0,0,1-.52.4L12,15.4c-.13.06-.19.2-.38.19l.17-.27-.29.13,0-.18-.27.17.1-.23-.31.13v-.15l-.2.05v-.17l-.18.1,0-.13-.24.1V15l-.18.09L10.17,15,10,15l0-.17-.19.19,0-.15c-.08.05-.13.18-.22.17l-.05-.17c-.1.09-.18.23-.28.24l0-.23c-.12.1-.21.28-.35.29L8.87,15c-.09.09-.17.25-.28.25L8.68,15c-.13.09-.31.28-.38.27L8.34,15c-.06,0-.11.13-.18.12L8.22,15c.13-.29.4-.34.71-.33a9,9,0,0,1,2.12.24,2.59,2.59,0,0,0,2.35-.17c.17-.06.22,0,.14.19s-.19.28-.32.23a.69.69,0,0,1-.23.31v-.26a.55.55,0,0,1-.37.29m.18.43c-.06.09-.13.14-.15.12s0-.12.06-.21.11-.14.14-.11,0,.11-.05.2m-.27,0c-.05.06-.1.1-.13.09a.2.2,0,0,1,.05-.17c.05-.08.1-.11.12-.1s0,.1,0,.18m-.41.06c-.13,0-.23,0-.23-.09s.1-.08.23-.08.22,0,.22.08-.1.09-.22.09m3.75.46c-.1.08-.21.14-.22.12s.05-.12.15-.19.2-.14.22-.13-.05.12-.15.2m.51,2.08.08-.38c.09-.05.13,0,.12.08l-.17.32Zm-.56,3.08.38.28c.11.09,0,.24-.09.18l-.41-.26c-.14-.09,0-.29.11-.2m.15-.23.21.2c.12.1,0,.19-.06.14l-.26-.15c-.14-.09,0-.27.11-.19m.27-3.25c.05-.1.15-.08.11,0A9.48,9.48,0,0,0,16.15,20l-.05-.11c.06-.66.06-1,.15-1.69M16,20.12h0a7,7,0,0,1,.13-2c0-.05.1,0,.09,0A11.64,11.64,0,0,0,16,20.12m-1-3.27a.07.07,0,0,1-.08-.08c0-.05,0-.09.08-.09a.08.08,0,0,1,.08.09.08.08,0,0,1-.08.08m.15-.17a.06.06,0,0,1,.05-.06.06.06,0,0,1,.06.06.07.07,0,0,1-.06.08s-.05,0-.05-.08m.1.14c.17-.11.33-.19.36-.15s-.09.17-.27.29-.33.18-.37.14.1-.17.28-.28m-.68,1.06,0,.09a5.29,5.29,0,0,0-.11,2.62,4.71,4.71,0,0,1,.22-2.5v.13a5.18,5.18,0,0,0,0,2.3l.05,0A7.42,7.42,0,0,1,14.8,18h.09a6.7,6.7,0,0,0-.05,2.45l.05-.05A6.9,6.9,0,0,1,15,18.07H15a7,7,0,0,0,0,2.36h.05a7.1,7.1,0,0,1,.09-2.37l.05.05a9.13,9.13,0,0,0,0,2.28l.05,0a10.66,10.66,0,0,1,0-2.18l.06-.08a8.48,8.48,0,0,0,0,2.27h.05a9.28,9.28,0,0,1,0-2.36l.05,0a15.84,15.84,0,0,0,0,2.34h.05a8.75,8.75,0,0,1,.1-2.3c.1,0,.1.09,0,.23a9.22,9.22,0,0,0,0,2.05h.08a8,8,0,0,1,.1-2.27c.06-.06.13,0,.05.17a8.78,8.78,0,0,0-.06,2.11h.09c.1,0,.12.08,0,.11a13.68,13.68,0,0,1-1.8.28c-.11,0-.15-.05-.15-.22a7.76,7.76,0,0,1,.28-2.49h0a7.57,7.57,0,0,0-.12,2.55,5.8,5.8,0,0,1,.32-2.72m-.34.15,0,.05-.27.06.11.09-.09.08.18,0v.08l-.19.08c.14,0,.2.05.17.09l-.17.1.14.05-.18.08.15.1-.19.06c.13,0,.18.1.19.14l-.2.09c.11.05.14.08.14.14l-.19.08.15.12-.15.05a.21.21,0,0,1,.15.17l-.18.05c.14.05.2.09.18.14l-.22.1.2,0v.05l-.2.06c.15.06.2.11.2.17l-.19.11.21,0-.19.14c.12,0,.18,0,.18.08l-.18.09.43.09.05.06,0-.06a.34.34,0,0,1,.27,0l.09.13.06-.15.09.17.08-.2.1.28.08-.29.09.24.08-.27.06.22.06-.25.12.24.09-.31.11.25.08-.2.1.18.06-.22.08.15c.06.13-.08.24-.22.27l-1.9.31c-.12,0-.23-.08-.28-.33a4.21,4.21,0,0,1,0-1.39A5.49,5.49,0,0,1,14,17.8a.14.14,0,0,1,.15.1L14,18Zm3.43.06-.78.82c.09-.09.18-.13.26-.2.33-.29.55-.51.49-.34a1.18,1.18,0,0,1-.5.54l-.32.34,0,.08c.34-.36.52-.46.56-.37l-.61.73.68-.52a2.88,2.88,0,0,1-.83.84v.06c.37-.31.65-.5.68-.41a2.53,2.53,0,0,1-.57.64l.35-.17c0,.14-.05.24-.2.32s-.29.13-.29.2l.23-.09c0,.08-.12.2-.31.36l.27-.08c0,.06-.09.19-.35.37l.24-.05c0,.06,0,.13-.14.22l.35-.11a.21.21,0,0,1-.17.18l0,.06c.2-.11.22,0,.14,0s.19,0,.08.17c.14-.06.23,0,.2.09.27,0,.26.31,0,.28a1.94,1.94,0,0,0-.38.06c-.15.06-.23.05-.27-.13a.92.92,0,0,0-.34-.6c-.46-.19.09-.42.14-.63a.39.39,0,0,1,.24-.36c-.15,0-.15-.1,0-.33-.08,0-.11-.05.13-.34-.19.06-.23,0,.05-.34-.24.14-.24.05,0-.27-.11,0-.1-.13,0-.25-.2,0-.17-.08-.06-.15.42-.2.92-.79,1-.71Zm-.79,4.08.46,0a.31.31,0,0,1,.24.15l.22.24c.09.11,0,.2-.08.18a5.27,5.27,0,0,1-.88-.35c-.06-.08-.05-.14,0-.19m.92.61c.18,0,.12.13,0,.13a1.21,1.21,0,0,1-.59-.11,2.38,2.38,0,0,1-.54-.34c-.06-.05,0-.13.09-.08a4.43,4.43,0,0,0,1.06.41m1.14-2.25c.13-.09.18-.06.17.08a1.62,1.62,0,0,1-.2.83v-.69H18.8a1.54,1.54,0,0,1-.18.7l0-.64h-.06l-.14.63,0-.55c0-.08,0-.09-.06-.05-.09.64-.2.91-.33,1a2.15,2.15,0,0,0,.1-.93l0,0a3,3,0,0,1-.2.89c-.13-.19.12-.52.06-.84h0l-.23.79c-.08,0-.05-.1,0-.31l0-.45,0,0a2.25,2.25,0,0,1-.22.57l0-.59-.17.42v-.34l-.18.08a.66.66,0,0,1,.36-.31,6.13,6.13,0,0,0,1.28-.31m.19-.38c0,.13-.12.22-.12.13a.83.83,0,0,0-.09-.4c-.05-.06,0-.09.09,0a.33.33,0,0,1,.12.31m.05,1.12c0,.05,0,.09,0,.09s0,0,0-.09,0-.09,0-.09,0,0,0,.09m0-.28s0,0,0,.05,0,.05,0,.05a.05.05,0,0,1-.05-.05,0,0,0,0,1,.05-.05m0-.78s.06.05.08.12,0,.13,0,.13-.05,0-.06-.1a.21.21,0,0,1,0-.14m0,.45c0-.14.17-.1.1,0l-.08.18h0Zm-.93-.51c.1,0,.14-.1.11-.19l-.05-.84c0-.17.08-.1.11,0s.1.06,0,.15c.22,0,.28.09.17.18l-.18,0,.23,0c.1,0,.08.11,0,.13l-.22,0,.27,0c.13,0,.13,0,0,.11l-.12.08.19,0c.09,0,.12,0,.08.13.06.31,0,.5-.26.5l-.85.19c-.05,0-.08,0-.05-.05a0,0,0,0,0,0,0,.06.06,0,0,1,.05-.05,0,0,0,0,1,0,0l.13,0v-.25l-.12,0v0c0,.05,0,.09-.05.09s-.05,0-.05-.09H17.6c-.11,0-.11-.09,0-.15ZM18,19.83v-.19c0-.13.11,0,.11.05l0,.2s-.05,0-.09-.06m.05.14a.06.06,0,0,1,0,.13A.06.06,0,0,1,18,20a.06.06,0,0,1,.05-.06m-1.93-3a1.52,1.52,0,0,1,.37-.23c-.09.09-.18.19-.28.28l.09.05a.94.94,0,0,1,.38-.18l-.18.15a2.19,2.19,0,0,1,.32,0c-.17.08-.27.1-.4.15l.1.06a.77.77,0,0,1,.38-.12l-.29.17.09.05a.65.65,0,0,1,.37-.08,2,2,0,0,0-.28.13l.05,0a.85.85,0,0,1,.34-.08l-.27.13.08,0a.59.59,0,0,1,.29,0,1.58,1.58,0,0,0-.23.08l.27.17-.05,0-.41-.14a.07.07,0,0,0-.05,0s0,0,0,0l-.1,0-.18.09a.46.46,0,0,1,.1-.12l-.1,0-.18.09a.82.82,0,0,1,.1-.13l-.1,0a2.2,2.2,0,0,1-.22.14.8.8,0,0,1,.13-.17l-.14-.05-.19.17a.4.4,0,0,1,.1-.19L16,17.29l-.22.19a1.19,1.19,0,0,1,.13-.22l-.21-.08a1.28,1.28,0,0,1-.24.22,1.69,1.69,0,0,1,.13-.25h0a.49.49,0,0,1,.29-.34h0a.72.72,0,0,1,.19-.13,2,2,0,0,1-.1.18l0,0a.82.82,0,0,1,.33-.2,1.55,1.55,0,0,1-.24.26ZM14,15.65a.54.54,0,0,1,.11-.2c.09-.11.15-.2.18-.18a.5.5,0,0,1-.13.2c-.08.12-.15.19-.17.18m.17.11-.23.45c0,.05,0,.08.08.06.15-.41.29-.64.39-.65l-.2.61c.09-.19.15-.27.19-.23l0,.19c.1-.2.18-.29.23-.25l0,.18a.39.39,0,0,1,.15-.17l.06.14a.48.48,0,0,1,.17-.27L15,16a1.22,1.22,0,0,1,.35-.4l-.08.25.31-.15c.15-.05.18,0,.06.13l-.62.29a1.91,1.91,0,0,1-1.51.29c-.13-.05-.15-.11-.09-.23A.47.47,0,0,1,13.6,16v.17l.33-.43-.18.51c.15-.29.28-.46.4-.45m-4.9-1.9a5.38,5.38,0,0,1,1-.18,3.45,3.45,0,0,0,1.08-.27,1.94,1.94,0,0,0,.56-.31c.1-.08.06-.1-.05-.09l-.46,0v-.2l-.18.24,0-.24-.15.42-.06-.48-.12.52-.06-.51-.19.59-.05-.61-.11.63-.12-.64-.08.64-.13-.6-.05.57-.17-.59v.61l-.19-.59,0,.52-.13-.51-.05.46-.1-.42-.06.46c-.19-.36-.27-.65-.14-.82a.74.74,0,0,1,.7-.23.77.77,0,0,1,.28-.24l0,.11.31-.1,0,.1.33-.18c-.19.24-.23.34-.16.34s.29-.28.37-.2c-.17.26,0,.18.27-.05.08,0-.1.2-.08.23s.13-.05.33-.19c.05,0,.17-.17.19-.1s-.06.11-.1.17c-.2.24-.15.2.2,0,.05,0,.13-.09.18-.06-.24.32-.14.26.22,0,.05,0,.12-.11.18-.05-.45.4-.37.45.2.17-.27.31-.2.32.22.05,0,0,.09,0,.14,0-.19.19-.22.33-.13.28a.83.83,0,0,1,.41-.11c-.18.18-.17.26.06.22.08,0,0,.12-.23.27,0,.06-.08,0-.12-.15,0,.09-.06.09-.1,0l-.05.33h-.08V12.9c0-.05-.08-.05-.12,0l-.06.25-.12-.06a.55.55,0,0,1-.18.24c-.08-.1-.13-.08-.15,0s-.08,0-.13,0-.08.14-.14.06a1.58,1.58,0,0,0-.29.23l-.05-.13c-.09.13-.17.2-.22.18l-.09-.09-.14.23-.23.06c0,.06.09.06.24,0a6.48,6.48,0,0,0,.85-.19,7.36,7.36,0,0,0,.84-.24c.24-.11.52-.32.8-.46.06.05,0,.18-.52.6l-.26-.08.14.19a.19.19,0,0,1-.18.08l-.23-.12.08.24c-.17,0-.24-.21-.4-.12l.06.19-.34-.1.06.23L11.69,14l-.06.13c-.09,0-.14,0-.15.06a3.75,3.75,0,0,0,2.18-.5s.05,0,.05.08a1.39,1.39,0,0,1-.62.82l.1-.41c-.23.1-.49.6-.68.66l.2-.54-.6.5c-.05-.06,0-.2.15-.38-.18,0-.48.42-.54.4s.1-.19.15-.28c-.17,0-.28.14-.42.22,0-.08.08-.17.23-.31l-.5.23c0-.09.19-.17.23-.29a1.3,1.3,0,0,1-.49.24l.15-.24-.43.23.27-.28-.46.22.13-.24-.33.22.14-.27a.84.84,0,0,1-.41.23c.09-.11.15-.2.14-.27a.91.91,0,0,1-.37.22l.06-.22a1.08,1.08,0,0,1-.42.27l.15-.25s0-.09,0-.05l-.35.28c.08-.14.12-.23.06-.27L9,14.34l0-.14-.28.31s0-.09.05-.23l-.29.19a1.17,1.17,0,0,1,.75-.61M10,10.72c.19-.29.35-.38.45-.15.13-.41.27-.45.45-.09.24,0,.29.37.25.92l-.23-.61v.4c-.15-.68-1.14-.28-.92-.46m1.42.46s-.08-.05-.1-.14a.26.26,0,0,1,0-.17s.08.05.1.14,0,.17,0,.17m.27-.45L11.55,10l-.09.33-.08-.47c-.06-.05-.08.24-.06.65-.11-.11-.1-.45-.09-.82L11.1,10a1.39,1.39,0,0,1,0-.69c-.08-.06-.13.06-.15.45a1.31,1.31,0,0,1,0-.7l-.09.19,0-.45a5.48,5.48,0,0,1,1.06,1.44v.47l-.15-.54c0,.37,0,.61,0,.54M10.56,8.46c0,.1,0,.15-.12.05a.48.48,0,0,1,.05-.65.44.44,0,0,1,.65-.06c.13.1.09.12-.06.12-.43,0-.6.22-.52.55m-.26-.66c0,.19-.06.22-.24.09l-.2-.25c-.15-.15-.18-.28-.09-.4L10,7a.56.56,0,0,1,.4-.11.15.15,0,0,1,.06.17.52.52,0,0,0-.49.35.78.78,0,0,1,.52-.31.15.15,0,0,1,.12.15.15.15,0,0,0-.17,0,1.17,1.17,0,0,1-.31.24,1.19,1.19,0,0,0,.42-.19c.09,0,.1.08.08.18a.22.22,0,0,1-.17.11c-.11,0-.15.05-.13.18m-.66-1c-.42-.6-.74-1.08-1.06-1.54-.06-.09,0-.1.05-.05.38.47.74.92,1.15,1.46,0,.09,0,.14-.14.14M9.81,7a.32.32,0,0,1,.28-.28l.28.05c.1.08.09.1,0,.11s-.36,0-.42.17S9.8,7.15,9.81,7m.89.54a.07.07,0,0,1,.06.08.08.08,0,0,1-.06.08.07.07,0,0,1-.06-.08c0-.05,0-.08.06-.08m2.39,2.28.09.06.06-.06a.26.26,0,0,1-.1.18l0-.1-.09-.08m.27.61a.24.24,0,0,1-.09.18.3.3,0,0,1,.09-.18m.22-.24v0h0a.48.48,0,0,1-.13.17.4.4,0,0,1,.08-.22l-.09-.06a2.19,2.19,0,0,1-.28.42,1.67,1.67,0,0,1,.37-.68c0,.09-.05.17-.08.23l.09.08.06-.08a.34.34,0,0,1,0,.11Zm.5.6c0,.19,0,.24-.15.29,0-.13,0-.22.15-.29m-.13-.08c0-.05,0-.1,0-.14l0,0a.1.1,0,0,1,0-.05l.08-.09a.38.38,0,0,1-.17.31M12.16,9a2.4,2.4,0,0,1,2,.24,2.41,2.41,0,0,0,1.7.46c.1,0,.12.05,0,.09l-.37.11c-.08,0-.09.08-.13.05s-.22-.09-.24-.18h-.15c.08.11.08.17,0,.13l-.27-.19c-.08-.05-.1,0-.06,0l.05.08s0,.06-.09,0l-.31-.26c-.08-.06-.13-.06-.12,0l0,.1c0,.05-.13-.06-.23-.19s-.1-.05-.1,0v.12c0,.11-.22-.19-.4-.37s-.13-.05-.1,0,.09.25.05.2l-.29-.26c-.05-.05-.16-.09-.14,0l.09.23s-.19-.08-.41-.28h-.08c-.14,0,.14.2.1.24s-.14,0-.2-.14-.08-.09-.17-.08a.34.34,0,0,1-.17,0C12,9.1,12,9,12.16,9m.63-.41a.74.74,0,0,1,.8-.13c.35.22.47.15.77.38a4,4,0,0,0,1,.51c.08,0,.06.06-.06.13-.2-.14-.36-.23-.23,0,0,0-.05,0-.08,0-.23-.2-.41-.31-.53-.29-.17-.21-.24-.22-.21-.05s0,0-.09,0q-.29-.42-.27-.11s0,0-.08,0c-.16-.31-.2-.32-.13,0,0,0-.05,0-.09,0-.14-.28-.15-.26-.15-.09-.22-.31-.27-.25-.22-.05-.14-.2-.2-.22-.2-.05-.11-.11-.2-.1-.29,0s-.05,0,0-.08m1.44-.08a2.08,2.08,0,0,1,.83.28s0,.06,0,0a.47.47,0,0,0-.27-.11c0,.11,0,.17,0,.15-.1-.18-.19-.21-.27-.17s0,0-.06,0c-.08-.17-.11-.17-.15-.1s-.08-.1,0-.1m1.24-1a.38.38,0,0,0,.09-.33c0-.1.09-.09.1,0a.47.47,0,0,1-.09.41c-.06,0-.15,0-.1-.08m.68,1.37c.14.11,0,.22-.14.1a1.78,1.78,0,0,1-.52-1.07c0-.12.05-.15.08,0a2,2,0,0,0,.59,1m-.42-2.92c-.23.06-.26,0-.06-.09l.18-.13a.94.94,0,0,1,.43-.13c-.22-.14-.64.08-1.06.28-.13.06-.17,0-.06-.08a1.46,1.46,0,0,1,.5-.29,1.66,1.66,0,0,1,.65-.12c.15-.14.29.05.13.2a.81.81,0,0,1-.18.12,1.48,1.48,0,0,1-.52.23m-.31,0a.07.07,0,0,1-.09,0s0-.05.06-.06a.07.07,0,0,1,.09,0,.07.07,0,0,1-.06.06m-.64,0a.62.62,0,0,1-.56.1c-.14,0-.09-.11,0-.13a1.91,1.91,0,0,0,.59-.18l.29-.14c.14-.06.16-.05,0,.06a3.33,3.33,0,0,1-.41.28m1-.6a.06.06,0,0,1-.06.05.05.05,0,0,1-.05-.05.05.05,0,0,1,.05-.05.06.06,0,0,1,.06.05m-1.44.24a2.76,2.76,0,0,1-.49-.29c0-.06-.08-.1.1-.06a.89.89,0,0,0,.52.13v.1a1.74,1.74,0,0,0,.94-.36.17.17,0,0,0-.14,0c-.23.12-.2,0,.23-.18.06,0,.11,0,.22,0L16,4.82c-.23.2-.46.41-.71.6a1.15,1.15,0,0,1-1,.15m1.9-.46v.08l-.1,0c-.05,0-.1,0,0-.05l.12-.05m.05-.28a2,2,0,0,1,.49,0c.32.11.19.22,0,.14a.53.53,0,0,0-.46,0c0,.13-.23,0-.36.12s-.1,0-.05-.06a.7.7,0,0,1,.4-.2m.73.34a.25.25,0,0,1-.09.26c0-.24-.08-.22-.1-.36s.18,0,.19.1m.28-.2c-.06.06-.08.15-.08.34A.31.31,0,0,1,17,5.6c-.06,0-.09,0-.06-.09l.1-.19a.45.45,0,0,0,0-.31c0-.21.08-.23.19,0M17,5.81s-.08,0-.09,0,0-.06.05-.09.08,0,.09,0a.07.07,0,0,1-.05.09m0,.78A.32.32,0,0,1,17,7c-.06-.05-.14,0-.19-.1s-.05,0,0-.22a.34.34,0,0,0,0-.22c0-.13,0-.14.16-.08s.12.15.06.2m-.88-.49s-.06.05-.08,0,0-.05,0-.09.05-.05.08,0,0,.05,0,.08m.43-.37c0,.15.08.27,0,.42s-.33.11-.33,0a.4.4,0,0,1,.32-.41m.06-.17c0-.2-.11-.32-.23-.36h-.13V5.12a.91.91,0,0,1,.27,0c.16.05.24.14.25.25a.28.28,0,0,1-.17.2m.2.08s-.08,0-.09,0,0-.05,0-.09.08,0,.09,0,0,.06,0,.09M16.74,6c-.06-.1,0-.14.08-.06a.32.32,0,0,1,.13.24c0,.09-.09.17-.15.09s0-.15-.05-.27m-.55.5a.29.29,0,0,1,.32-.14c.12,0,.18,0,.18.14a1.57,1.57,0,0,1,0,.35c0,.1-.05.09-.18.1s-.19-.06-.34,0c.09-.22,0-.31,0-.47m-.31.31c.05,0,.12,0,.13,0s0,.06-.08.09-.12,0-.13,0,0-.06.08-.08m-1.56,3.32c.14.36.11.46-.1.83a1.37,1.37,0,0,0,.1-.83m.91,3.24c0,.05,0,.1-.06.1s-.05-.05-.05-.1,0-.09.05-.09.06,0,.06.09m.14,0c0,.08,0,.14-.05.14s0-.06,0-.14,0-.15,0-.15.05.06.05.15m.33-1.3c0-.23,0-.45,0-.66l-.13,0a5.14,5.14,0,0,1-.06.69c0-.24,0-.47,0-.7l-.11,0a5.26,5.26,0,0,1-.1.64c0-.23,0-.43,0-.66l-.12,0c0,.25,0,.49-.05.75a3.52,3.52,0,0,1,0-.79.26.26,0,0,1-.1-.05,3,3,0,0,0-.06.88,1.57,1.57,0,0,1,0-.91l-.08-.05a2.21,2.21,0,0,1-.18.35,2.54,2.54,0,0,0,.13-.37L14.62,11a1.74,1.74,0,0,1-.23.56,3.44,3.44,0,0,0,.19-1.28,2.57,2.57,0,0,1,.06.49l.14.06a5.6,5.6,0,0,0,0-.66,1.6,1.6,0,0,1,.05.68.44.44,0,0,0,.12,0l.06-.1,0,.11h.09c0-.08,0-.17.08-.27,0,.1,0,.19,0,.29h.1c0-.06,0-.14,0-.22a1.85,1.85,0,0,1,0,.23h.13v-.29c0,.12.05.2.06.29h.15a2.52,2.52,0,0,1,0-.31c0,.12,0,.22.06.31h.13V10.5a2.64,2.64,0,0,1,.09.45h.12a3.25,3.25,0,0,0,0-.33,1.09,1.09,0,0,1,.1.32h.08c0-.11,0-.23-.05-.36a2.5,2.5,0,0,1,.12.33h.08c0-.18,0-.37-.08-.59a2,2,0,0,1,0,1.8,2.76,2.76,0,0,0,.08-.79l-.06,0a2,2,0,0,1-.13.51,1.65,1.65,0,0,0,.05-.5l-.08,0a2.3,2.3,0,0,1-.1.41,2.13,2.13,0,0,0,0-.4H16c0,.17,0,.35-.08.57,0-.19,0-.38,0-.56h-.13a4.53,4.53,0,0,1-.06.65m-.14,1.47c-.05,0-.1,0-.1,0s.05-.05.1-.05.11,0,.11.05-.05,0-.11,0m.13.13a.05.05,0,0,1,.05.05.06.06,0,0,1-.05.06s0,0,0-.06a.06.06,0,0,1,0-.05m.5.22c0-.08-.11-.12-.29-.12s-.08-.1,0-.11h.47c.15,0,.18.08.08.22.05.26-.27.42-.26,0M16.45,8s0,0,0,0,0,0,0,0a0,0,0,0,1,0,0,0,0,0,0,1,0,0m-.15-.56s-.05.08-.12.06-.11,0-.1-.08.05-.08.11-.06.12,0,.1.08m.4.05a4,4,0,0,1-.08.54c0,.05-.05,0-.08,0s0-.31.06-.51Zm-.08-.11s0-.05,0-.09.09-.1.09,0a.39.39,0,0,1,0,.13Zm.47.18s-.05.06-.1.05-.1,0-.1-.08.05-.05.1-.05.1,0,.1.08m.08-.33v.08l-.41.13,0-.25c-.12,0-.19,0-.23.09v.09a.54.54,0,0,1-.14-.11c-.05-.05-.14,0-.32,0H16l.08.11a.52.52,0,0,0-.14.18.33.33,0,0,1,.15,0,.44.44,0,0,0,.4,0v.35h-.08c-.06,0-.08.1,0,.13l.22.1c.09,0,.13-.08.13-.15l.05-.4.18.08a.35.35,0,0,0,.19,0V8L17,8.08a.19.19,0,0,1-.1.19c0,.11,0,.19-.05.2a2.16,2.16,0,0,1-.32.36.39.39,0,0,1-.24,0,.77.77,0,0,1-.24-.21l-.08,0,0-.1H16l0-.1h-.1l0-.1-.08-.05L15.91,8l-.08,0,.09-.13h-.14l.1-.08-.12,0a.88.88,0,0,1,.17-.69A2,2,0,0,1,16.61,7a.73.73,0,0,1,.55.26M18,8.59a.84.84,0,0,1,.54-.2.6.6,0,0,0,.23,0c.1.06.06.11-.05.14a.14.14,0,0,0-.15,0c-.12,0-.13.1-.2.13l-.05-.08c-.15.1-.26.38-.37.52l0-.14c-.08,0-.13.18-.24.27,0-.1,0-.15-.05-.15-.19.13-.33.19-.38.14s.33-.32.76-.61m2.36-.17c.23,0,.22.2,0,.19A2.27,2.27,0,0,0,19,8.79a3.22,3.22,0,0,1,1.21-.05c.06,0,.05,0,0,.06a.23.23,0,0,1-.17,0l-.36,0a1.34,1.34,0,0,0-1.16.43h.09a.25.25,0,0,1-.13.14c-.06,0-.06.1-.09.14a.88.88,0,0,0-.11.22l.1,0c-.16.22-.28.36-.31.29a1.82,1.82,0,0,1,.4-1,1.93,1.93,0,0,1,1.85-.61m-.06,8.41c-.54-.62-1.12-1.35-1.6-1.88l0-.2c.38.48,1.13,1.39,1.57,1.93.23.28.22.27.35.41s-.05,0-.14,0a2.42,2.42,0,0,1-.22-.27m-.54-.24c-.5-.59-.66-.82-1.12-1.33,0-.08,0-.15.05-.24.41.51,1.08,1.33,1.49,1.82.13.17,0,.09.13.19s-.11.09-.18,0-.32-.33-.37-.41m-1.2-1.06a1.13,1.13,0,0,0,.05-.19c.42.51.64.75,1,1.21L20,17a.19.19,0,0,1-.18,0c-.46-.55-.86-1-1.29-1.49m-.09.32a.12.12,0,0,1,0-.06c0-.05,0-.1.06-.17.38.47.8.94,1.14,1.38,0,0-.12,0-.22,0-.34-.42-.66-.75-1-1.14m-.1-.47c0-.09.09-.15.14-.14s.05.1,0,.19-.09.14-.13.13-.06-.1,0-.18M17,15.67a3.42,3.42,0,0,1,1-1.1,2.43,2.43,0,0,0,.66-1.11c.08-.19.19-.1.09.2a2.47,2.47,0,0,1-.86,1.14,4.71,4.71,0,0,0-.8.94c-.08.11-.14.06-.06-.08m.29-6.24a.11.11,0,0,1,0-.11c.05,0,.09-.05.12,0s0,.06,0,.11a.11.11,0,0,1-.11,0m.09,1c.05.1.08.18.05.19s-.08-.05-.14-.14-.08-.18-.05-.19.08.05.14.14m0,1.89a.09.09,0,0,1,.1,0,.08.08,0,0,1,0,.11.08.08,0,0,1-.12,0,.1.1,0,0,1,0-.12m1.07-.42c-.22.29-.36.4-.43.28a3.56,3.56,0,0,1-.47.45l-.12.32c-.05.08-.06.1-.08,0,0-.28.09-.41.2-.49a.25.25,0,0,1,.1-.23c.28-.13.47-.4.71-.47.08-.19.23-.29.43-.56s.18-.1.11.12a.87.87,0,0,1-.47.59M17.67,14a1.55,1.55,0,0,0,.68-.51c.2-.13.17,0,.1.13a.59.59,0,0,1-.26.24,2.49,2.49,0,0,1-.56.32,1.36,1.36,0,0,0-.61.43c-.12.09-.17.05-.13-.13s.38-.36.78-.48m0-1.23a1.25,1.25,0,0,0-.15.63c0,.25-.32.2-.2-.09s.15-.47.27-.57.18-.13.09,0m.5.56a.78.78,0,0,1-.52.56c-.27.1-.34,0-.17-.14a1.38,1.38,0,0,0,.49-.42c.18-.25.25-.27.2,0m-.28-.08c-.05.05-.14.05-.09,0l.24-.48-.31.42c-.09.12-.1,0-.06-.06l.2-.5c.05-.18.14-.28.25-.29l.28-.27c.06-.08.1,0,.06.09l-.2.33a1.48,1.48,0,0,1-.38.79m.82-.93c0,.09,0,.19-.1.22a1.31,1.31,0,0,1-.17.71c-.15.19-.2.17-.15-.09l.09-.46a.85.85,0,0,1,.19-.48l.14-.38c0-.15.1-.14.1.05l-.09.24c.08,0,0,.12,0,.19M18.32,11a4.47,4.47,0,0,1,.83-1c.25-.18.31-.14.17.14a5.14,5.14,0,0,1-1.07,1.33.46.46,0,0,0-.36.24l.23-.12c.11,0,.13,0,.05.1s-.51.6-.59.28c-.13.24-.35.2-.36.45l0,.32c-.05.09-.09.09-.14,0,0-.46.06-.73.28-.88.59-.36.79-.88,1-.87m-.75-.54c0,.08.05.14,0,.15s-.06,0-.1-.12-.06-.15-.05-.15.06,0,.12.11m0-.37c-.05-.1-.06-.19,0-.19s.13.08.19.19Zm.2.05a.52.52,0,0,1,.05.15h-.14l-.08-.13s0,0,0,0Zm0,.22h.11s0,.06,0,.06-.05,0-.09-.06m1.68-.59c-.13,0-.31.11-.6.48-.08.1-.17,0-.06-.12a1.66,1.66,0,0,1,.6-.46c.24-.1.23.09.06.09m-.65-.64a1.4,1.4,0,0,1,1-.23c.23,0,.23.17.1.15a1.75,1.75,0,0,0-1,.13c-.13.06-.1,0,0-.05m-.27.5s-.05,0,0-.1a1.63,1.63,0,0,1,1.37-.43c.15,0,.13.17,0,.15a1.19,1.19,0,0,0-.36.06,1.62,1.62,0,0,0-.42.13,2,2,0,0,0-.69.69c-.08,0-.09,0-.05-.08a1.21,1.21,0,0,1,.88-.73v0c-.18,0-.4,0-.71.33m-.17.66a1.85,1.85,0,0,1,1-.89c.11,0,.16.05.08.15a2.15,2.15,0,0,0-.8.64.27.27,0,0,1-.15.29c0,.19-.11.28-.31.31l-.28.36c.06.09,0,.23-.24.43s-.18.1-.15-.13c.15-.42.45-1,.59-1s.08,0,.1-.17.12-.08.09,0,0,.11.08,0m-.15-1c-.06,0,0-.22-.1,0l-.22.19c-.15.05-.11-.1,0,0l.15-.2a2.32,2.32,0,0,1,.47-.46c.14,0,.17,0,.06.11l-.18.09a.43.43,0,0,1-.17.34m-1.42-.34a.31.31,0,0,1,.14-.29c.08-.05.1,0,.06.09s-.14.09-.21.21m-.06,1.61a.39.39,0,0,1,.13.11.44.44,0,0,0-.05-.31.39.39,0,0,1,.22.34.45.45,0,0,0,0-.36c.11,0,.19.14.29.31l0,.26a.19.19,0,0,1,0,.19C17.16,11,17.11,11,17,11v.2c0-.09-.09-.1-.14,0l-.18.17-.05-.12,0-.51.08-.05Zm.06,4.8a1.37,1.37,0,0,1,.47-.75c.27-.2.56-.29.91-.52.1-.06.13,0,.06.11a.8.8,0,0,1-.5.27A1.17,1.17,0,0,0,17,15l.56-.41c.13,0,.15,0,.08.1-.6.31-.52.69-.77.78-.05-.06,0-.15,0-.27Zm.84.41c0,.08,0,.13,0,.13s0-.05,0-.13,0-.13,0-.13,0,.06,0,.13m.54-.78-.43.38a2.37,2.37,0,0,0-.55.69c-.15.06-.17,0-.08-.09a3.28,3.28,0,0,1,.27-.32c.06-.1.06-.19.14-.27a2.75,2.75,0,0,1,.6-.61,1.81,1.81,0,0,0,.61-.89l0,.08c-.06.6-.26,1-.59,1m-.06.59a4.61,4.61,0,0,0-.31.55c0,.08-.15.17-.13,0a.87.87,0,0,1,.36-.6c.18-.13.22-.09.08.09m-.23-.06c-.11.11-.14.1-.08-.05a.73.73,0,0,1,.41-.34c.15,0,.1.05.05.09a2.8,2.8,0,0,0-.38.31m.55.78a1.49,1.49,0,0,1,0-.33c.29.37.56.65.85,1,0,0-.09,0-.17,0-.24-.25-.45-.42-.71-.69m.31.69c-.19,0-.23,0-.24-.22.09.09.17.13.24.22m-.26-.33,0-.24c.22.22.41.35.61.56a.18.18,0,0,1-.19,0c-.13-.14-.26-.22-.38-.35m2.67-8h0a1.22,1.22,0,0,0,.13.74,4.19,4.19,0,0,0-.05-.52V8.65l.1,0c0,.25.1.5.22.52a.88.88,0,0,1-.1-.47l.14,0c0,.27.09.56.22.57a.76.76,0,0,1-.1-.52h0a.59.59,0,0,0,.11.26c.05-.06,0-.19,0-.33a.46.46,0,0,1,.49.05c.06.08,0,.12-.05.12h-.09l.2.09s.05.05-.06.06l-.08.06.27,0c.09,0,.08.06.05.1l-.06.08a1.62,1.62,0,0,1,.77.2c0,.1-.13.09-.35,0,.05.13.26.14.24.22s-.33,0-.47.19H23c.08.05.05.09-.06.09.18.22.32.28.37.13s.1-.12.15,0c.22.13.25.14.13.17l-.2,0,.24,0a.06.06,0,0,1,0,.11c-.17,0-.18.05.13.06.13.06.18.13.13.18-.27,0-.26.05.06.08.08,0,.1.09.09.13-.17,0-.14.08.06.08,0,0,.05.06,0,.1-.19.05-.17.08.08.08,0,.09.15.08.21.19.2,0,.29.1.12.1v0c.29,0,.42.09.38.27s-.42-.15-.26.46l.06.06c.12,0,0-.28.18-.26,0,0,.05.1,0,.26s-.13.2-.27.11-.2-.18-.19-.28V12c-.14,0-.17-.08-.18-.22s-.05,0,0-.05c-.23,0-.33,0-.4.2s-.06,0-.09-.05-.08,0-.13,0,0-.09-.06-.08,0,0-.08,0,0-.1-.1,0-.06.05-.08,0,.06-.19-.08,0c-.05,0-.06,0-.09,0-.08-.22-.13-.23-.15,0s-.08.09-.08,0c-.08-.33-.09-.33-.06,0,0,.14-.05.13-.13,0s-.13,0-.19-.1,0-.37-.18-.43l.09.45c0,.06-.1.08-.12,0-.05-.29-.24-.8-.2-.64l.12.61c0,.05-.13,0-.15-.05l-.15-.77c0-.22,0,.41.05.68,0,0-.1,0-.09,0a3.34,3.34,0,0,0-.15-.75c-.09.09.15.82,0,.7,0,0-.09-.74-.12-.75s0,.7,0,.69c-.2-.26,0-.94-.13-1s-.09.84-.12.82c.09.65.61.68.58.87l-.37-.19c.1.19.26.4.36.61-.12,0,0,.19.09.27-.11,0-.09.06.13.27.05,0,.06.08.05.12-.27-.06-.29-.06.14.28-.27,0-.28,0,0,.19a.34.34,0,0,1,.13.19c0,.05,0,0-.06,0l-.15-.09c-.08,0,0,.09.33.36.09.08.13.14.06.17-.43-.27-.41-.2.06.2.11.18.13.26.09.28-.38-.32-.64-.52,0,.14.11.11.14.19.05.2-.66-.5-.31-.17.14.29,0,0,0,.06,0,.05-.64-.47-.66-.36,0,.34,0,.06.06.11,0,.17s-.06,0-.09,0c-.46-.43-.42-.34.1.37.08.11.11.22,0,.15-.57-.65-.75-.79,0,.2.08.13.09.19,0,.15-.52-.71-.54-.62,0,.14,0,.09,0,.1,0,.09-.47-.57-.61-.71,0,.13.08.15.06.18,0,.1-.57-.71-.59-.62,0,.12.05.09.08.14,0,.1-.66-.75-.66-.73,0,.09,0,.21,0,.19-.11.09s-.06-.14-.13-.2c-.41-.5-.46-.46,0,.18-.05.05-.11.05-.19,0-.42-.55-.46-.55-.13,0l-.23,0a.56.56,0,0,0-.13-.17c-.39-.38-.54-.42-.14.08,0,0,0,0,0,0l-.45-.08a.22.22,0,0,1-.17-.09,2.86,2.86,0,0,0-.63-.77c0,.12.27.32.46.64s-.18.11-.25.08c-.14-.19-.19-.22-.4-.46-.57-.68-1.19-1.44-1.68-2a2.23,2.23,0,0,0,0-.28,10.18,10.18,0,0,0,1.65,1.91A18.43,18.43,0,0,0,19,14.7c-.1-.18-.19-.34-.26-.48s0-.14,0-.23a6.54,6.54,0,0,0,1.66,2c-.09-.23-.88-.87-1.3-1.54a4.57,4.57,0,0,1-.33-.66v-.12a6.87,6.87,0,0,0,1.66,2c-.08-.23-.89-.89-1.29-1.54a5.79,5.79,0,0,1-.34-.68v-.13a8.15,8.15,0,0,0,1.75,2.15c-.08-.22-1-1-1.38-1.65a4.84,4.84,0,0,1-.35-.7V13a6.44,6.44,0,0,0,1.7,2.12c-.08-.22-1-.94-1.32-1.54a4.12,4.12,0,0,1-.36-.74,1,1,0,0,1,0-.19,5.16,5.16,0,0,0,1.63,2c-.08-.19-.89-.85-1.22-1.42a6.16,6.16,0,0,1-.4-.79,1.31,1.31,0,0,1,0-.22,4.75,4.75,0,0,0,1.56,2c-.05-.19-.82-.79-1.15-1.33a5.28,5.28,0,0,1-.4-.86v0c0-.08,0-.17,0-.24a4.29,4.29,0,0,0,1.48,2.11c-.05-.17-.75-.77-1-1.26a9.07,9.07,0,0,1-.43-.91c.22-1.84,1-2.92,2.13-3.11m0-.18s-.1-.13-.05-.17.13,0,.14.11,0,.1-.09.05m-.47-.54a2.22,2.22,0,0,1,1,.31c.13.09,0,.18-.06.11l-.27-.14c0,.11-.09.06-.24-.06-.1.1-.23.05-.37-.1l.09.26s0,0-.06,0l-.16-.22c-.09-.12,0-.18.13-.17m1.24.41c.34,0,.61-.2,1,0l.18.21c.11.27,0,.4-.14.2s0-.22-.2-.31a1.26,1.26,0,0,1,.18.6c.29.28,0,.34-.05.17l-.11-.52c0,.26,0,.45,0,.45s0-.18-.08-.4-.05-.25-.1-.27a1.31,1.31,0,0,0-.59,0c.28,0,.47,0,.54.08a.45.45,0,0,1,.06.4c-.06.1-.1.08-.1-.05l0-.17c0-.09-.12-.1-.26-.09a.39.39,0,0,1-.29,0s-.13-.06,0-.09c-.13-.08-.08-.18,0-.19m2.41,4.26c.05.05-.13.1-.29-.05s-.1-.34,0-.2Zm-1,5.07a0,0,0,0,1,0,.05l-.05,0a0,0,0,0,1-.05,0l-.2-.24a0,0,0,0,1,0-.05l.05,0a0,0,0,0,1,.05,0Zm0,.61s-.08,0-.12-.1,0-.13,0-.14.08,0,.12.09,0,.14,0,.15m-.14.84a8.34,8.34,0,0,0-.87-1.34c-.06-.1.1-.17.23,0A8.5,8.5,0,0,1,23.27,19c.12.25,0,.32-.11.09m.11-.23a6.29,6.29,0,0,0-.59-1c-.09-.13,0-.19.14,0a8.11,8.11,0,0,1,.54,1c.06.15,0,.19-.09.05m.24-1.48c.09,0,.2.09.23.23a.24.24,0,0,1-.11.31c-.1,0-.2-.08-.24-.23s0-.28.13-.31m.09-1.57c0-.17.11-.17.11,0a7.52,7.52,0,0,1-.08,1.3c0,.06-.11.18-.11,0,0-.54.08-1,.08-1.37m.4,3.63c0,.19-.15.2-.17,0a10.76,10.76,0,0,0-.15-1.24c-.05-.24,0-.28.11-.05a3.05,3.05,0,0,1,.2,1.26m.27-.13s0,0,0,.05,0,.05,0,.05,0,0,0-.05,0-.05,0-.05m.08-1.2s.08,0,.11.1,0,.13,0,.14-.08,0-.1-.09,0-.14,0-.15m2.78,3.76s.09,0,.13.09.06.15,0,.17-.09,0-.13-.1-.06-.14,0-.15m.26,1.28c0,.13,0,.24-.08.24s-.08-.11-.08-.24,0-.24.08-.24.08.12.08.24m.24.68c-.06.06-.21.06-.31.09l.1.17-.1.05,0,.14c-.19-.15-.31-.29-.24-.45l.13-.27c.06-.09.12-.09.15,0Zm.88-3.14-.14-.47a2,2,0,0,1,0-.48.73.73,0,0,0-.34-.85,9.59,9.59,0,0,1-1.26-1.58c0-.73-.61-.92-1-.13L25,17.7c-.19.13-.32-.08-.32-.28A4.24,4.24,0,0,0,23.24,15c-.38-1.16-.91-2.13-1.1-3a2.83,2.83,0,0,1,1.49.43c.32.34.73.52.83.28,0-.08-.19-.22-.31-.33a.82.82,0,0,1,.47.29c.32,0,.42-.24.33-.57s0-.47-.09-.56l-.27-.15a8.26,8.26,0,0,1-1.12-1.51.31.31,0,0,1-.05-.17.74.74,0,0,0-.28-.6l.1-.05V8.92l.23,0-.23-.38c-.13-.47-.56-.55-1.21-.36-.09,0-.2-.08-.32-.2-.41-.4-.84-.61-.69-.32,0,.05.15.19,0,.18l-.7-.11c-.15,0-.18,0-.14.1a1.29,1.29,0,0,1,.31.42l-.89.05a3.59,3.59,0,0,1-.5.08c-.49-.41-1.08-.1-1.71.37l-.09,0V8h.08l-.06-.47h.05A2,2,0,0,0,17,6.06c-.05-.22.17-.19.22-.25a1,1,0,0,0,.19-.7c0-.31-.14-.41-.29-.31h-.18a.69.69,0,0,1-.42-.18.48.48,0,0,0-.59,0c-.92.23-1.08.94-2.21.46-.13,0-.15,0-.1.14a1.79,1.79,0,0,0,.75.55,1,1,0,0,1-.64.06,1.31,1.31,0,0,0,1.14.37.83.83,0,0,0,.75,0c.15-.09.17,0,.06.17a2.07,2.07,0,0,0-.54,1.57,1.54,1.54,0,0,0-.22.59c-.42-.11-.79-.19-.94-.06h-.17a.83.83,0,0,0-1-.08l-.65.5c-.24.17-.45.18-.49,0l-.27-.57c0-.41-.14-.6-.42-.63a.72.72,0,0,1-.24-.41l-.19-.24c.06-.22,0-.29-.18-.29A.75.75,0,0,1,10,6.56L8.62,4.93c-.17,0-.23.14-.2.33L9.56,6.87c0,.08.12.15.1.22-.09.22-.13.36.06.55l.38.37a1.06,1.06,0,0,0,.18.56c-.09.18,0,.34.18.51s.05.11.12.17l.06.55a2.54,2.54,0,0,0-.85,1c0,.11-.05.2,0,.27l.75-.08c.06,0,.14.05.17.1a.55.55,0,0,1-.45.74c-.93.23-1.61.55-1.34,1.17.34.45.17.84-.42,1.2a.56.56,0,0,0-.18.51,1.8,1.8,0,0,0-.41.6c-.09.26-.09.37.09.35,1.3-.43,2.58-.61,3.48.14.45.37.37.56,1.07.6-.08.29,0,.46.25.51l0,.33c-.28.06-.6.06-.88.14a4.36,4.36,0,0,1-.91.2,6.89,6.89,0,0,0-.75-.45c-1.17-.73-2.16-.77-3,.23a6.27,6.27,0,0,0-1.19,2.33c-.06.19-.22.27-.52.09-.61-.5-.73-.94-.42-1.24s.6-.17.37.05v.05c.33,0,.46.23.59.47a1.37,1.37,0,0,0-.27-1.62H5.8l0,.63a.91.91,0,0,0-1.1.87,1.29,1.29,0,0,0,.79,1.25c.35.11.45.51.18.91-.66,1-.56,2,0,3.33l.08,0c.13-1.45.43-2.19.92-2.33a.88.88,0,0,0,.42-.32c.14-.22.22-.19.32,0a1.8,1.8,0,0,1-.13,1.79c-.84,1.36-.88,2.41.32,3.24l0,.1-.32.41c-.1.17,0,.37.25.6A2.25,2.25,0,0,1,8,29.07a.65.65,0,0,0-.05.56A1.31,1.31,0,0,0,9.2,30c.06,0,.05-.06.05-.13.05-.28-.14-.48-.35-.83a1.33,1.33,0,0,1-.54-1.54l.09-.14a8.9,8.9,0,0,0,1.62.43,1.59,1.59,0,0,0,0,1.4,1.48,1.48,0,0,0,1.57.91c1-.09,1.54-.94,1.16-2.1.37-.21.61-.19.74,0,0,.52.22.36.23.87-.61.54-.84,1-.18,1.29.35.34.15.47-.29.5s-.82-.09-.88.29c-.43,0-.56.28-.55.69.13-.31.37-.33.5-.25a2,2,0,0,0,.68,0,.78.78,0,0,1,.65,0,.31.31,0,0,1,.28.15c.31.32.27,0,.94.37.17,0,.45,0,.5.27l.06-.24a.22.22,0,0,0-.08-.28c-.22-.25.13-.27.73-.15a1.57,1.57,0,0,0,.84.17c.27-.27.33-.1.38.25.19-.52.06-.8-.46-.83.09-.28.13.14.32-.2.17-.08.33,0,.5.17,0-.26-.12-.41-.45-.48-.08-.22-.24-.23-.47,0-1-.26-1.07-.84-.52-1,.29-.08.41.23.64.32a1.93,1.93,0,0,0,.51.06,1.32,1.32,0,0,1,.68.18l.19.06c.1-.08.2-.06.33.05s.28.23.41.06c.38-.31,1-.31.92-.11s0,.38.14.36.13.13.13.33c-.37,0-.62.05-.62.32-.35.1-.33.34-.18.66,0-.61.49-.11,1-.45l.36,0c0,.18.2.25.52.24a2.35,2.35,0,0,1,.41-.08,1.24,1.24,0,0,1,1.49.38.45.45,0,0,0,0-.47c.43-.29.91-.18.63.29.26-.13.51-.78.18-.77.14-.38.72-.06.55.22.24-.13.28-.32,0-.56q-.06-.32-.54-.19c-.18-.31-.41-.32-.71-.05s-.55.15-.7-.05-.13-.4.1-.31.17-.1.31-.37c.05-.11.15-.2.23-.36.33-.05.6-.34.94-.93.24-.12.36-.59.37-1.33.1.05.23,0,.39-.09-.11,0-.16-.05-.16-.34H25c.13-.05.18-.1.17-.17s-.13,0-.22-.18a1,1,0,0,0-.33-.54l-.31-.5c-.22-.69-.47-1.08-.79-.83l-.09-.05a3,3,0,0,1-.56-1c0-.48-.5-.51-.76-.05l-.08-.38-.13.2-.8-1.16c.09,0,.24-.1.33-.11a7.17,7.17,0,0,0,3-.93l.71-.22a.43.43,0,0,1,.59.14l.73.75a.36.36,0,0,1,.06.45c-.08.15.1.36.36.57a.88.88,0,0,1,.05,1c-.12.28-.09.46.08.55l.5.36c.33.27.5.18.48-.29a1.75,1.75,0,0,0-.24-.71,2,2,0,0,1-.29-.87c0-.59-.09-.89-.33-1.1a4.09,4.09,0,0,1-.71-.91c-.06-.19-.12-.31-.22-.36,0-.61-.47-.92-.75-.75a2,2,0,0,1-.73,0v-.14a8,8,0,0,0,1.42-1.35c.2-.25.31-.15.51.05l.79.83c0,.41,0,.68.32.65.19.33.28.65.1.79s-.32.25-.32.47a1.22,1.22,0,0,0,.82.8.12.12,0,0,0,.13-.06,1.33,1.33,0,0,0,0-.94" fill="#e52045"/><path fill="#e52045" d="M17.9 20.39L17.94 20.62 17.97 20.62 17.97 20.37 17.9 20.39z"/></g></g></svg>