<svg xmlns="http://www.w3.org/2000/svg" viewBox="0 0 842.91 374.11" class="direct1" id="direct1"><path d="M3.55,323.75H15.8l.05,1.15a34,34,0,0,0,21.54,30l1.25.49-5.19,9.93H30.83a6,6,0,0,0-5.9,6v1.21a.44.44,0,0,0,.12.31.43.43,0,0,0,.29.13H83c.32,0,.66-.27.66-.53v-1.12a6.16,6.16,0,0,0-6.28-6H74.87l-5.31-12.26,1.05-.5a49.18,49.18,0,0,0,28-44.22v-1.55A48.91,48.91,0,0,0,62,259.47l-.54-.14-.24-.5a9.13,9.13,0,0,0-2.44-3.08l-.76-.62,2.11-4.08a.53.53,0,0,0-.22-.71l-2.3-1.19,4.64-9a.53.53,0,0,0-.23-.71l-10-5.16h0a.53.53,0,0,0-.71.23l-4.64,9-2.11-1.09a.53.53,0,0,0-.71.23L25.22,278.74a.53.53,0,0,0,.22.71l2,1.05L25.14,285a.53.53,0,0,0,.23.71l10.34,5.35a.53.53,0,0,0,.71-.23l2.34-4.53,2,1a.53.53,0,0,0,.71-.22l8.27-16,.94.26A8.94,8.94,0,0,0,59,269.61l.49-.42.62.17a38.86,38.86,0,0,1,28.56,37.45v1.55c0,.92,0,1.83-.08,2.75a.53.53,0,0,0,1.05,0c.05-.89.08-1.83.08-2.79v-1.55A39.57,39.57,0,0,0,81,282.06a40,40,0,0,0-19.31-13.31l-1.39-.44L61,267a9,9,0,0,0,1.08-4.28c0-.17,0-.33,0-.5L62,260.53l1.65.5A47.93,47.93,0,0,1,87.12,277a47.42,47.42,0,0,1,10.42,29.84v1.55a47.85,47.85,0,0,1-47.76,47.84A32.94,32.94,0,0,1,16.92,325l-.07-1.27h7.94l.07,1.13a25.11,25.11,0,0,0,25,23.45A40.23,40.23,0,0,0,87,322.88a.53.53,0,0,0-.29-.66.52.52,0,0,0-.68.24,39.25,39.25,0,0,1-36.19,24.81A24.1,24.1,0,0,1,25.93,325l-.09-1.29H38.12a3.55,3.55,0,1,0,0-7.1H36.07v-4.74a.46.46,0,0,0-.14-.32.49.49,0,0,0-.34-.13H6a.44.44,0,0,0-.31.14.48.48,0,0,0-.12.36v4.69H3.55a3.55,3.55,0,1,0,0,7.1M28.41,281l9.4,4.86-2.1,4.06L26.31,285ZM40,252.51l6.93,3.58L46,257.24l-.25.34a9,9,0,0,0,2.18,12.53l.86.6-8,15.49-14.4-7.44Zm16.72-3.84L47.63,244l4.4-8.52,9.05,4.68Zm.44,5.94-1-.35a8.94,8.94,0,0,0-7.7.8l-.58.35-7.41-3.83,4.13-8L59,251Zm4,8.15a8,8,0,0,1-8,8h0a8,8,0,0,1,0-15.92h0a8,8,0,0,1,8,8M77.31,366.4a5,5,0,0,1,5.06,4.17l.23,1.4H25.7l.23-1.4a5,5,0,0,1,5-4.17ZM39.68,355.75l.94.26a34.05,34.05,0,0,0,9.15,1.25h.07a48.31,48.31,0,0,0,17.68-3.34l1.08-.42,5.12,11.85H34.65ZM35,316.65H6.68v-4.13H35ZM3.52,322.7h0a2.5,2.5,0,0,1,0-5H38.2a2.5,2.5,0,0,1,0,5Z"/><path d="M78.38,289.34a.53.53,0,0,1,1-.14,34.21,34.21,0,0,1,4.85,17.62v1.55a.53.53,0,1,1-1.05,0v-1.55a33.15,33.15,0,0,0-4.69-17.08.53.53,0,0,1-.06-.4"/><path d="M75.56,284a.53.53,0,1,1-.79.7c-.44-.5-.91-1-1.38-1.47a.53.53,0,0,1-.16-.38.52.52,0,0,1,.15-.37.53.53,0,0,1,.38-.16.52.52,0,0,1,.37.15l.86-.84-.85.85c.49.49,1,1,1.43,1.51"/><path d="M48.78,262.75a4.35,4.35,0,0,0,4.34,4.34h0a4.34,4.34,0,0,0,0-8.68h0a4.35,4.35,0,0,0-4.34,4.34m1.05,0a3.26,3.26,0,0,1,3.29-3.28,3.29,3.29,0,0,1,0,6.58h0a3.29,3.29,0,0,1-3.28-3.3"/><path d="M606.93,157.69a2.41,2.41,0,1,0-2.41-2.4,2.41,2.41,0,0,0,2.41,2.4m0-3.65a1.24,1.24,0,1,1-1.24,1.24,1.25,1.25,0,0,1,1.24-1.24"/><path d="M626.46,163.17a3.6,3.6,0,1,0,3.6,3.6,3.6,3.6,0,0,0-3.6-3.6m0,6h0a2.43,2.43,0,1,1,2.43-2.43,2.44,2.44,0,0,1-2.43,2.43"/><path d="M628.82,151.16a2.62,2.62,0,1,0,2.62,2.62,2.62,2.62,0,0,0-2.62-2.62m0,4.08a1.46,1.46,0,1,1,1.46-1.46,1.46,1.46,0,0,1-1.46,1.46"/><path d="M616.7,161.34a2.3,2.3,0,1,0-2.3-2.3,2.3,2.3,0,0,0,2.3,2.3m0-3.44a1.14,1.14,0,1,1-1.14,1.14,1.14,1.14,0,0,1,1.14-1.14"/><path d="M612.55,138.64a49.49,49.49,0,0,0,4.09-11.94.58.58,0,0,0-.46-.67h-.11a.58.58,0,0,0-.57.46,48.32,48.32,0,0,1-4,11.65h0a.58.58,0,0,0,1,.51"/><path d="M616.67,123h.07a.58.58,0,0,0,.58-.51c.06-.55.12-1.11.17-1.66a.58.58,0,0,0-.52-.64h-.06a.57.57,0,0,0-.37.13.58.58,0,0,0-.21.39q-.07.84-.17,1.64a.58.58,0,0,0,.51.64"/><path d="M687.85,181.06a7.22,7.22,0,0,0,7.23-7.18V131.1l.62-.08a2.8,2.8,0,0,0,2.43-2.79,2.86,2.86,0,0,0-2.82-2.82h-1.09v-7.9c0-.35-.31-.48-.58-.48H688V107a11.85,11.85,0,1,0-23.7,0v11.65a9.72,9.72,0,1,1-19.44,0V91.22a13,13,0,1,0-26.06,0v7.57H613a.63.63,0,0,0-.63.61V105h-1.94a.64.64,0,0,0-.63.63v6.68a.5.5,0,0,0,.5.5h2.08v3.94a44.67,44.67,0,0,1-4.53,19.56l-12.57,25.5a8.56,8.56,0,0,0,.42,8.39,8.26,8.26,0,0,0,7,3.78h33.87a8.2,8.2,0,0,0,6.93-3.79,8.57,8.57,0,0,0,.41-8.39l-12.63-25.5a44.73,44.73,0,0,1-4.61-19.56v-3.94h2.1a.48.48,0,0,0,.48-.48v-6.75a.58.58,0,0,0-.58-.58h-2V99.38c0-.22-.1-.59-.48-.59H620V91.22a11.87,11.87,0,0,1,23.74,0v27.45a10.88,10.88,0,1,0,21.77,0V107a10.69,10.69,0,1,1,21.38,0v10h-4.79c-.27,0-.57.13-.57.48v7.9h-1.1a2.86,2.86,0,0,0-2.81,2.82A2.8,2.8,0,0,0,680,131l.62.08v42.77a7.22,7.22,0,0,0,7.23,7.18m-52.73-34.3,7.7,15.6a7.31,7.31,0,0,1-.23,7,7.13,7.13,0,0,1-6.09,3.45H602.62a7.12,7.12,0,0,1-6.08-3.45,7.3,7.3,0,0,1-.23-7l7.7-15.6.49,0a7.33,7.33,0,0,1,2.8.89,9.24,9.24,0,0,0,8.56,0,8.09,8.09,0,0,1,7.54,0,9.25,9.25,0,0,0,8.56,0,7.35,7.35,0,0,1,2.67-.87ZM628,106.17v5.49h-5.64a.58.58,0,0,0,0,1.16h3.07v3.94a45.92,45.92,0,0,0,4.73,20.08l4.34,8.75-.87.2a9.05,9.05,0,0,0-2.21.84,8.07,8.07,0,0,1-7.54,0,9.24,9.24,0,0,0-8.57,0,8.09,8.09,0,0,1-7.53,0,9.13,9.13,0,0,0-2.35-.87l-.88-.19,4.28-8.74a45.88,45.88,0,0,0,4.66-20.08v-3.64l.47-.35a.59.59,0,0,0,.38-.55.57.57,0,0,0-.56-.57h-2.86v-5.49ZM625.45,105H613.52V99.95h11.93Zm68.47,68.86a6.07,6.07,0,0,1-12.15,0V154.19l.85.18a5.06,5.06,0,0,1,1.56.6,7.74,7.74,0,0,0,3.67.85,7.17,7.17,0,0,0,3.6-.86,5.49,5.49,0,0,1,1.62-.61l.85-.18Zm0-20.83-.62.08a6.23,6.23,0,0,0-2.32.77,6.17,6.17,0,0,1-3,.78h-.17a6.31,6.31,0,0,1-3.18-.77,7.86,7.86,0,0,0-2.27-.75l-.59-.1v-22h12.15Zm-11.29-34.85h10.43v7.21H682.64Zm-2.26,11.72a1.69,1.69,0,0,1-1.2-.57,1.66,1.66,0,0,1-.41-1.21,1.68,1.68,0,0,1,1.56-1.56h15a1.67,1.67,0,0,1,0,3.35h-15Z"/><path d="M217.18,201.16h-.1a.53.53,0,0,0-.52.43.53.53,0,0,0,.42.62c.35.07.71.12,1.06.15a.53.53,0,0,0,.58-.47.54.54,0,0,0-.48-.58c-.32,0-.65-.08-1-.14"/><path d="M213.61,200.89a.53.53,0,0,0,.5-.93,11.07,11.07,0,0,1-5.06-5.72.53.53,0,0,0-1,.39,12.14,12.14,0,0,0,5.55,6.27"/><path d="M173.5,200.46h-.06a.53.53,0,0,0-.52.47.53.53,0,0,0,.47.58c.36,0,.72.06,1.07.07a.57.57,0,0,0,.54-.52.54.54,0,0,0-.52-.54c-.33,0-.65,0-1-.07"/><path d="M170.62,199.78a.52.52,0,0,0-.28-.29,11.07,11.07,0,0,1-5.46-5.34.53.53,0,0,0-.48-.3.52.52,0,0,0-.23.05.53.53,0,0,0-.25.7,12.13,12.13,0,0,0,6,5.85.53.53,0,0,0,.7-.27l.68.31-.68-.31a.52.52,0,0,0,0-.41"/><path d="M173.46,247.46a.53.53,0,0,0-.13,1c.35,0,.71.07,1.07.09a.5.5,0,0,0,.38-.14.52.52,0,0,0,.17-.37.53.53,0,0,0-.51-.55c-.32,0-.65,0-1-.08"/><path d="M169.87,247.39a.53.53,0,0,0,.4,0,.53.53,0,0,0,0-1,11.07,11.07,0,0,1-5.38-5.43.53.53,0,0,0-.48-.31.53.53,0,0,0-.49.34.52.52,0,0,0,0,.4,12.13,12.13,0,0,0,5.9,5.94"/><path d="M242.69,219.11a5,5,0,0,0-8-5.66l-.53.47-10.41-10.45.56-.53a12.19,12.19,0,0,0,.49-17.23q-.25-.27-.52-.52l-.56-.53,10.44-10.48.53.47a5,5,0,1,0-.42-7.08,5,5,0,0,0-.89,5.24l.19.46L222.88,184l-.51-.31a12,12,0,0,0-12.76,0l-.51.32L198.4,173.27l.19-.46a5,5,0,1,0-9.35-.27l.15.44-10.33,10.51-.51-.32a12,12,0,0,0-12.75,0l-.51.32-10.72-10.76.19-.46a5,5,0,0,0,.38-1.91h0a5,5,0,1,0-1.68,3.75l.53-.47,10.45,10.49-.56.53a12.19,12.19,0,0,0-.52,17.23l.48.49.56.53-10.94,10.78-.52-.38a4.93,4.93,0,0,0-2.93-1h0a5,5,0,0,0,0,10,4.92,4.92,0,0,0,3.35-1.27l.53-.47,10.45,10.49-.56.53a12.2,12.2,0,0,0-.52,17.23l.49.49.56.53L153.86,260.4l-.53-.47a5,5,0,1,0,1.31,1.84l-.19-.46,10.69-10.73.51.32a12.13,12.13,0,0,0,12.82,0l.51-.32,10.67,10.72-.19.46A5,5,0,1,0,196,259a5,5,0,0,0-5.24.89l-.53.47L179.82,250l.56-.53a12.2,12.2,0,0,0,.49-17.23q-.25-.27-.52-.52l-.56-.53,10.47-10.51.53.43a5,5,0,0,0,7.8-5.78l-.19-.46,10.69-10.73.51.32a12.13,12.13,0,0,0,12.82,0l.51-.32,10.67,10.72-.19.46a5,5,0,0,0,9.28,3.82m-8.6-48.21A4,4,0,0,1,238,167h0a3.94,3.94,0,0,1,0,7.89,4,4,0,0,1-3.95-4Zm-83.94,3.44h0a4,4,0,0,1,0-7.92h0a4,4,0,0,1,0,7.92M154,263.69a4,4,0,0,1-3.94,3.92h0a3.94,3.94,0,1,1,4-3.93Zm40.12-4a4,4,0,0,1,3.94,4h0a4,4,0,0,1-3.94,3.92h0a3.94,3.94,0,0,1,0-7.89M190,170.9a3.94,3.94,0,1,1,3.94,4,4,4,0,0,1-3.94-4ZM161.1,193.55h0a11,11,0,0,1,3.28-7.82,11.18,11.18,0,0,1,7.85-3.21,11.09,11.09,0,0,1,0,22.17,11.14,11.14,0,0,1-11.09-11.13M150,221.35a4,4,0,0,1-3.94-4h0a3.91,3.91,0,0,1,1.17-2.78,4,4,0,0,1,2.79-1.14,3.94,3.94,0,0,1,0,7.89m33.13,19.22h0a11.09,11.09,0,0,1-11.08,11h0a11.09,11.09,0,1,1,11.13-11m6.27-21.27.22.47-10.7,10.74-.51-.32a12,12,0,0,0-12.75,0l-.51.32-10.72-10.76.19-.46a5,5,0,0,0-.22-4.29l-.27-.49,11.11-10.95.5.32a12.13,12.13,0,0,0,12.83,0l.51-.32,10.72,10.76-.26.49a5,5,0,0,0-.14,4.46m8.49-2.09a3.95,3.95,0,0,1-3.94,3.92h0a3.94,3.94,0,0,1,0-7.89,4,4,0,0,1,3.94,4Zm-.1-3.28-.53-.47a5,5,0,0,0-6.26-.3l-.52.38-10.55-10.59.56-.53a12.2,12.2,0,0,0,.49-17.23q-.26-.27-.53-.52l-.56-.53,10-10.18.54.53a5,5,0,0,0,6.82.18l.53-.47,10.46,10.5-.56.53a12.19,12.19,0,0,0-.52,17.23l.49.49.56.53Zm18.2-8.8h0a11.09,11.09,0,0,1,0-22.17,11.14,11.14,0,0,1,11.09,11.13h0a11.09,11.09,0,0,1-11.08,11m22,16h0a3.94,3.94,0,0,1,0-7.89,4,4,0,0,1,3.94,4h0a3.94,3.94,0,0,1-3.94,3.92"/><path d="M426,80.58a25.12,25.12,0,0,0,13.53-9.22.53.53,0,0,0-.11-.74.53.53,0,0,0-.74.11,23.78,23.78,0,0,1-3.56,3.83l-.5.43L409.75,55.3l.39-.61a24.09,24.09,0,0,1,4.45-5.16.53.53,0,0,0-.32-.93.54.54,0,0,0-.39.13,25,25,0,0,0-5.14,6.2l-.09.12a.55.55,0,0,0-.12.2l-.06.15a23.59,23.59,0,0,0-2.87,9.09v.08a23.79,23.79,0,0,0-.07,3.93l.86,13.11-11.47.72a37.28,37.28,0,0,0-4.81.62l-.18,0a33.6,33.6,0,0,0-5.36,1.53,29.58,29.58,0,0,0-7,3.73c-.6.44-1.13.87-1.64,1.31l-1.2,1a22.69,22.69,0,0,0-5.13,6.59,28.92,28.92,0,0,0-3.36,12.49,31.25,31.25,0,0,0,0,3.38l.73,11.16-14.56.92a28.14,28.14,0,0,0-4.25.6l-.28-.76.17.78a27.07,27.07,0,0,0-9.41,4.08,26.62,26.62,0,0,0-3.48,2.85.53.53,0,0,0,0,.75.54.54,0,0,0,.38.16h0a.53.53,0,0,0,.37-.15,25.38,25.38,0,0,1,2.49-2.12l.49-.37,25.55,20.2-.38.61a24.09,24.09,0,0,1-2.81,3.66.54.54,0,0,0,0,.76.52.52,0,0,0,.38.14.53.53,0,0,0,.37-.17,24,24,0,0,0,6.53-18.09l-.86-13.17,14.15-.89c7.17-.45,13.43-3.78,19.16-10.18l.56-.69a19.57,19.57,0,0,0,2.57-3.61l.08-.14a28.81,28.81,0,0,0,2.15-5,30.72,30.72,0,0,0,1.38-11.55l-.69-10.53,13.77-.87a25.82,25.82,0,0,0,5-.82ZM406.76,63.84a22.6,22.6,0,0,1,2-6.7l.43-.9,24.59,19.44-.91.61a24.1,24.1,0,0,1-6.56,3.1l-.4.12L406.69,64.29ZM367.4,142.58a22.65,22.65,0,0,1-2,6.76l-.43.91-25.18-19.9,1-.59a26.22,26.22,0,0,1,6.91-2.8l.38-.09,19.31,15.27Zm-18-16.05,2-.2,1.13-.1,14.17-.89.84,12.83c0,.34,0,.69,0,1l0,1.7Zm18.62-2.69-.82-13,15.32,12.11Zm26.17-5.28a24.38,24.38,0,0,1-9.84,4.11l-.35.06-16.71-13.21,0-.42a28.27,28.27,0,0,1,1.9-8.57h0q.27-.68.56-1.32l.42-.93,24.87,19.66Zm8.47-8.6a17.5,17.5,0,0,1-1.87,2.47l-.58.71a37.7,37.7,0,0,1-3.79,3.7l-.5.42L370.76,97.34l.34-.6a21.08,21.08,0,0,1,4.33-5.3l1.93-1.7,0,.07h0l.5-.4,25.25,20Zm4-12.21a28.89,28.89,0,0,1-2.63,9.75l-.43.91-24.9-19.69,1-.6a29.79,29.79,0,0,1,5.26-2.6l1.79-.68,0,.07c1-.3,1.92-.56,2.89-.76l.37-.08,16.76,13.25Zm-15.37-14,1.94-.21c.57-.06,1.15-.12,1.73-.15l11.09-.7.67,10.19q0,.73.06,1.46l0,1.69Zm31.56-3.62c-.67.1-1.36.17-2.05.22l-13.39.84-.84-12.78q0-.63,0-1.25l0-1.67L424.7,79.89Z"/><path d="M467.46,212.85s-20.17.49-33.81,12.15a141.3,141.3,0,0,0-34.57,44.85c-8.18,17.08-15.38,30.24-14.49,45.42s9.79,25.37,24.36,29.36a177.12,177.12,0,0,0,27,5.16l-.31,23h102.2l-.92-46a10.79,10.79,0,0,0,7.58-3.16c3.42-3.39,1.85-13.72,1.85-13.72s12.93,9.1,24,8.17,18.42-9,19.95-14.67,3.21-14.71,3.12-28.37-1.43-43.2-1.43-43.2-2.29-4.77-17.8-5.52-19.27,4.25-19.27,4.25l-.38,10s-4.65-10.6-12-15.4-20.23-11.9-33.67-12l-41.41-.33" fill="#1a1a1a"/><path d="M511,326.48h25.86a11,11,0,0,0,7.58-2.84c3.05-3.05,1.85-10.23,1.85-10.23l.19-56.87a8.12,8.12,0,0,0-2.41-5.81,9.18,9.18,0,0,0-5.67-2.34H439.38s-5.74-.21-7.86,2.83a9.81,9.81,0,0,0-1.34,6.87L430,308.77s26.48,5.58,39.59,5.72c0,0,2.41-.71,3.36.85s0,.39,0,.39,4.14-1.59,4.57-5,.07-12.66,4.46-12.78,5.29,6.05,5.27,10.94S485,320.08,485,320.08s-.69,2.67,3.23,3.74,15,3.54,22.83,2.66" fill="#ee1944"/><path d="M635.51,265.58a69,69,0,0,0-27.07,28.5C598.3,314,592.58,331.4,591.6,345.32a57.67,57.67,0,0,0,4.76,27.45h98.16l30.84-9.35-13-65.44s-6.71-17.42-16.38-26.17-21.13-11.15-23.65-11.19-36.84,5-36.84,5" fill="#ee1944"/><path d="M714.16,373.55h92.21c6.08,0,11.47-4.52,13.38-10l21.87-63.16c3-8.73-3.77-17.73-13.38-17.73H736a14.06,14.06,0,0,0-13.38,9.25L700.78,355c-3,8.73,3.77,18.52,13.38,18.52" fill="#1a1a1a"/><path d="M279,186.3l-.54,2.19s.11-.4-1.38-.55a2.36,2.36,0,0,0-2.43,1.76c-.17.62-2.72,9.88-2.72,9.88s.34,1.86,1.36,1.85a7,7,0,0,0,2.45-.75l-1.57,5.07s-3.37-1.25-5.28,0c0,0-6.49-2.63-9.25.66,0,0-4.49-3.73-6.36-4.92s-4.49-1.45-5.78.49-.81,2.84,1.42,4.43,8.16,6.61,9.64,8.1,5.66,5.82,5.71,6.4-.89.24-1.85-.65-6.43-6.36-8.29-6.52a3.12,3.12,0,0,0-3.17,4.19c.73,2.71,4.35,4.3,7.29,8S270.18,232,270.41,232s7.07-5.4,12.35-4.86a15,15,0,0,1-1-10c1.39-5.53,6.7-9.18,6.7-9.18s5.2,1.3,7.43-2.91-.64-7.34-2.28-8.46a8,8,0,0,0-3.82-1.17S280.47,192,279,186.3" fill="#fff"/><path d="M217.76,261.93a13.12,13.12,0,0,1-3.7-7c-.93-4.63-1.4-11.94-2.77-12.82s-4.7-2.51-5.45,1.28,1.38,6.57,1.06,9-.83,3.54-2.39,3.64-3.19-1-5.33-3.25a74.88,74.88,0,0,1-7-9.37c-1.81-2.8-4.08-5-6.16-3.75s-1.92,4.09-1.92,4.09a3,3,0,0,0-3.4.25,2.55,2.55,0,0,0-.84,3.36s-2.9.57-3,4.56,7.17,13,9.14,15.33,8,9,11,9.81a46.65,46.65,0,0,1,9.45-8.08c5.21-3.19,11.25-7,11.25-7" fill="#fff"/><path d="M469.16,317.83s5.48-2.36,7-4.76,1.85-3.06,1.84-6.95.78-7.7,4-8.17,5.36,3.16,5.24,8.24a56.71,56.71,0,0,1-1.66,12.49c-.53,1.35-1.1,3.29,1.66,4.71a27.64,27.64,0,0,0,14.17,3,62.2,62.2,0,0,1,9.63,0,7.83,7.83,0,0,1-2,2.47s-1.36,6.09-5.86,7.67A39.57,39.57,0,0,1,489,339.39c-6.37.15-11.61-.55-13.8-.57s-6.52-.49-7.36-3.5a45.51,45.51,0,0,1-.44-9.33,23.93,23.93,0,0,1,1.81-8.16" fill="#fff"/><path d="M585.5,234.69s.58-10.22.28-13.69-1-3.83-.28-8.79,1.8-10.57,1.41-15.93-1.23-8.93-3.57-8.57a11.14,11.14,0,0,0-4.2,1.65,3.19,3.19,0,0,0-3.34-3.39c-3.53-.1-4.34,2.52-4.34,2.52s-1.58-2.64-4.34-2.39-4.17,2.48-4.31,5.51-.57,18.75-.57,18.75-1.66-.31-3.75-3.1-6.13-6.51-9.35-3.49-2.11,5.84,1.26,9.08,8.32,7.22,9.41,12.05a62.25,62.25,0,0,1,1.24,10.29s16,3,24.44-.5" fill="#fff"/><path d="M499.24,290.81A8.22,8.22,0,1,1,491,282.6a8.22,8.22,0,0,1,8.22,8.22" fill="#fff"/><path d="M671.85,260.62l.5-9.43s6.24-.14,7.48-4.17a35.91,35.91,0,0,0,1.84-13.55c-.18-6.45-.39-12.33-.39-12.33l-9.43-10s-8.71,11.65-11.31,14.6-4.91,5-4.68,9.24,4.64,9.79,6.15,11.27,3.57,7.64,2.08,12a29.65,29.65,0,0,1-3.64,7.33s4.56,8.32,8.32,7.72,3.08-12.68,3.08-12.68" fill="#fff"/><path d="M654.7,354.08a57.54,57.54,0,0,1,9-4.5c4.06-1.43,6.64-2.49,9.95-2,0,0,5.87-4,11.35-1.14a9.93,9.93,0,0,1,5-1.91c2.85-.19,5.44,6,5.44,6l-1.68,8s1.06,7.15,2.4,8l-20.74.74-3.13-5.17a6.06,6.06,0,0,1-5.52,4.43,62.87,62.87,0,0,1-8.11,0s-5.44-5.81-4-12.43" fill="#fff"/><path d="M513.87,177c-.06-6.47-7.12-5.17-8.49-4.82,0-1.45.12-5-.59-6.31a46.54,46.54,0,0,1-2.59-7.35,133.06,133.06,0,0,1-14,2c-7.85.73-14.37-5.24-14.37-5.24a30.07,30.07,0,0,1-3.36,11l-.54,5.65c-5.57-1.32-8.35,1.9-8.11,5s2.05,5.28,3.91,5.88,4.72-.43,4.72-.43.44,1.21.62,6.6,5,9.54,5,9.54l-.49,7.22-8.13,7,7,35.52h27.19l7.19-35.19-8.94-7.33-.81-6.69c5.41-4.33,6.08-11.28,6.15-16.76,3.33,1.82,8.66.85,8.6-5.36" fill="#fff"/><path d="M671.6,210.79l9.82,10.07a56.14,56.14,0,0,0-.2-8.42,8.44,8.44,0,0,0-7-7.51,75.65,75.65,0,0,0-17.82-1c-7.64.59-17.82,4.67-18.31,14.74,0,0,2.17,10.1,3,15.34s2.88,13.47.55,16.1-7.56,3.61-10.1,4.48-9.81,10-3,15.37l7-4.38s11,5.28,17.57,3.63,10.25-6.9,10.73-9.45.8-9.08-1.43-13.07-6.21-6.27-6.43-10.89.59-6.29,2.66-8.4a108.42,108.42,0,0,0,7.38-8.55c2.08-2.73,5.61-8.06,5.61-8.06" fill="#1a1a1a"/><path d="M672.35,251.19l-.5,9.44,6.31,1.18a8.37,8.37,0,0,0,1.68-5.68,9.57,9.57,0,0,0-2.27-6s-4.83,1.31-5.22,1.08" fill="#1a1a1a"/><path d="M773.12,324.74c-2.81,4.87-2.49,10.31.71,12.16s8.07-.6,10.88-5.46,2.49-10.31-.71-12.16-8.07.6-10.88,5.46" fill="#fff"/><path d="M710.13,373.55H637s-3.26-1.35-2.41-3.75a4.78,4.78,0,0,1,2.76-3l59.06.17a11.92,11.92,0,0,1-2.67-8.5,23.07,23.07,0,0,1,2.4-9.28l21.32-63.48a12.79,12.79,0,0,1,12-7.14h95l7.86,4.47-97-.35s-10.41,1.42-12.46,8.71l-22.6,65.55a12.15,12.15,0,0,0,1.49,8.81c2.69,4.53,8.36,7.79,8.36,7.79" fill="#fff"/><path d="M654.7,354.08s12.81-7.61,19.38-6.51a10.14,10.14,0,0,1,9.48-1.76l-.75-1.3a20.91,20.91,0,0,0-13.32-5.71c-7.91-.16-15.36,6.77-14.8,15.28" fill="#1a1a1a"/><path d="M668,366.33s4-1.63,4.34-4.25l2.57,4.25Z" fill="#1a1a1a"/><path fill="#fff" d="M486.41 225.84L490.72 235.87 489.38 241.93 490.72 248.37 494.78 248.37 492.61 241.93 494.9 236.94 487.97 222.33 486.41 225.84z"/><path d="M282.76,227.19s-13.55-.07-22.34,18.69-18,40.24-18,40.24l-22.39-25s-16.77,7.31-24.69,17.91c0,0,13,29.41,27.77,40.9s20,12.68,31.16,9.89l-7.5,43h85.55s-5.05-35.53-5.4-42.45-.46-15.21-.46-15.21,6.92,3.1,13.76-3.65,7-9.65,6.12-15.45-2.86-13.94-7.37-25.85-7.5-15.19-7.5-15.19-4.45,10.72-15.6,9.34-12.64-7.22-13.7-12-.73-9.88-3.5-14.82-6.86-5.11-9.76-5.51-6.12-2.64-6.15-4.86"/><path d="M468,171.47s-4.29-23.59,5.38-24.42c0,0,4.17-7.13,14.43-6.11s16.33,4.27,19.38,13.38a30.4,30.4,0,0,1,.46,17.25l-2.51.36v-5.38l-2.48-8.21s-8.23,3.4-15.59,2.23a36.54,36.54,0,0,1-13.26-5.2s-1.57,9.14-3.36,11l-.54,5.65Z" fill="#ee1944"/><path d="M667.33,211.11c-.85,4-5.18,11.12-8,15.55,2-2.17,4.82-5.37,6.68-7.81,2.08-2.73,5.61-8.06,5.61-8.06l9.82,10.07a56,56,0,0,0-.2-8.42,8.44,8.44,0,0,0-7-7.51,75.66,75.66,0,0,0-17.82-1c-.9.07-1.83.19-2.78.36.29,0,15,.89,13.75,6.82" fill="#fff"/><path d="M653.08,269.21c6.59-1.65,10.25-6.9,10.73-9.45s.8-9.08-1.43-13.07a43.55,43.55,0,0,0-4.1-5.38c1.81,3.87,4.14,10.68,2,16.9-3.17,9.37-13.5,10.84-13.5,10.84l1.15.34a14.57,14.57,0,0,0,5.12-.18" fill="#fff"/><path d="M674.82,250.8c-.07.09,2.9,5.41.67,10.5l2.67.5a8.37,8.37,0,0,0,1.68-5.68,9.58,9.58,0,0,0-2.27-6s-1.4.38-2.75.69" fill="#fff"/><path d="M505.17,166.54v5.38l2.5-.36a30.4,30.4,0,0,0-.46-17.25c-2.22-6.63-6.06-10.14-11.93-12,1.76,1.54,8,7.43,5.21,11.58-3.18,4.8-22.31,3.75-22.44,3.74a34.31,34.31,0,0,0,9.05,2.88c7.36,1.17,15.59-2.23,15.59-2.23Z" fill="#fff"/><path d="M295.77,168.88c-7.57-1.54-14.42.17-16.6,5.26A16.21,16.21,0,0,0,280.71,189,17.79,17.79,0,0,0,285.4,193c-1.51-2.83-10.09-20.77,13-23.48a23.69,23.69,0,0,0-2.6-.68" fill="#fff"/><path d="M290,232.26c-9.63-9.91,1.2-24.09,1.2-24.09a8.44,8.44,0,0,1-2.72-.14s-7.09,5-7.1,11.72,3.12,11.12,6.36,12c.66.18,1.45.35,2.3.54l0,0" fill="#fff"/><path d="M478.5,181.69c-3.83,0-6.94-3.92-6.94-8.73s3.11-8.74,6.94-8.74,6.94,3.92,6.94,8.74-3.11,8.73-6.94,8.73m0-16.35c-3.21,0-5.82,3.42-5.82,7.62s2.61,7.61,5.82,7.61,5.82-3.41,5.82-7.61-2.61-7.62-5.82-7.62"/><path d="M538.41,327H504.89a.56.56,0,1,1,0-1.12h33.53a7.47,7.47,0,0,0,7.46-7.46v-62a7.47,7.47,0,0,0-7.46-7.46H438a7.47,7.47,0,0,0-7.46,7.46v52.5a.56.56,0,1,1-1.12,0v-52.5a8.59,8.59,0,0,1,8.58-8.58H538.41a8.59,8.59,0,0,1,8.58,8.58v62a8.59,8.59,0,0,1-8.58,8.58"/><path d="M488.36,296.69a8.78,8.78,0,1,1,8.77-8.77,8.78,8.78,0,0,1-8.77,8.77m0-16.43a7.66,7.66,0,1,0,7.65,7.66,7.66,7.66,0,0,0-7.65-7.66"/><path d="M554.32,241.71a.56.56,0,0,1-.5-.31c-3.36-6.85-6.34-11.34-9.1-13.72-12.23-10.52-23.64-12.3-33.7-13.86l-2.61-.41a.56.56,0,0,1-.46-.64.57.57,0,0,1,.64-.46l2.61.41c10.21,1.59,21.79,3.4,34.26,14.12,2.89,2.48,6,7.08,9.38,14.07a.56.56,0,0,1-.25.75.58.58,0,0,1-.25.06"/><path d="M448,350.31c-32.19,0-51.8-6.64-59.87-20.23-8.48-14.28-4-35.6,14.18-67.11,10.24-17.77,23.44-32,28.22-36.14,12.48-10.73,24.05-12.53,34.27-14.12l2.6-.41a.57.57,0,0,1,.64.46.56.56,0,0,1-.46.64l-2.61.41c-10.07,1.57-21.48,3.35-33.71,13.86-4.74,4.08-17.82,18.2-28,35.85-17.93,31.12-22.44,52.09-14.19,66s30.05,20.46,64.81,19.62c4.73-.11,19,0,19.11,0a.56.56,0,0,1,0,1.12c-.15,0-14.37-.11-19.08,0q-3,.07-5.92.07"/><path d="M474.49,248.93a.56.56,0,0,1-.55-.45l-7-35.52a.57.57,0,0,1,.18-.53l8.13-7.27a.5.5,0,0,1,.43-.14.56.56,0,0,1,.39.22l12,16,11.38-15.95a.55.55,0,0,1,.39-.23.52.52,0,0,1,.43.13l8.6,7.27a.56.56,0,0,1,.19.54l-6.81,35.52a.55.55,0,0,1-.66.45.56.56,0,0,1-.44-.66l6.74-35.2L500,206.4l-11.47,16.07a.56.56,0,0,1-.9,0l-12.1-16.08-7.43,6.65,7,35.21a.56.56,0,0,1-.44.66h-.11"/><path d="M475.81,248.93a.54.54,0,0,1-.24-.05.56.56,0,0,1-.27-.74l12.25-26.22a.56.56,0,0,1,1,0l12.15,26.22a.56.56,0,1,1-1,.47l-11.65-25.13-11.74,25.13a.56.56,0,0,1-.51.32"/><path d="M484.17,242.49a.57.57,0,0,1-.52-.34l-2.52-6.06a.56.56,0,0,1,1-.43l2.38,5.71h7.68l2-4.93a.56.56,0,0,1,1,.43l-2.18,5.27a.56.56,0,0,1-.52.35Z"/><path d="M482.62,248.93c-.43-.09-.62-.39-.54-.69l1.56-6.44a.56.56,0,1,1,1.09.26l-1.56,6.44a.56.56,0,0,1-.54.43"/><path d="M494.54,248.93a.56.56,0,0,1-.54-.4l-1.94-6.46a.56.56,0,1,1,1.07-.32l1.94,6.46a.56.56,0,0,1-.38.7l-.16,0"/><path d="M497.41,181.69c-3.83,0-6.94-3.92-6.94-8.73s3.11-8.74,6.94-8.74,6.94,3.92,6.94,8.74-3.12,8.73-6.94,8.73m0-16.35c-3.21,0-5.82,3.42-5.82,7.62s2.61,7.61,5.82,7.61,5.82-3.41,5.82-7.61-2.61-7.62-5.82-7.62"/><path d="M490.8,173.51a.57.57,0,0,1-.39-.15,3.84,3.84,0,0,0-2.9-1.31,3.19,3.19,0,0,0-2.06,1.08.57.57,0,0,1-.79.09.56.56,0,0,1-.09-.79,4.3,4.3,0,0,1,2.85-1.5,5,5,0,0,1,3.76,1.61.56.56,0,0,1-.38,1"/><path d="M508,183.8a6.35,6.35,0,0,1-2.95-.72.56.56,0,1,1,.52-1,5.28,5.28,0,0,0,5.93-8.65,5.3,5.3,0,0,0-5.56-.9.57.57,0,0,1-.73-.3.56.56,0,0,1,.3-.74,6.4,6.4,0,0,1,6.73,1.09,6.41,6.41,0,0,1-3.83,11.2H508"/><path d="M509.33,180.92a.55.55,0,0,1-.34-.12l-3.94-3a.56.56,0,0,1,0-.9l4.36-3.22a.56.56,0,1,1,.66.9l-3.76,2.78,3.35,2.59a.56.56,0,0,1-.34,1"/><path d="M467.66,183.8h-.4a6.4,6.4,0,1,1,2.9-12.29.56.56,0,0,1-.44,1,5.28,5.28,0,1,0,.37,9.55.56.56,0,0,1,.52,1,6.38,6.38,0,0,1-2.94.72"/><path d="M466.37,180.92a.56.56,0,0,1-.34-1l3.36-2.59-3.76-2.78a.56.56,0,0,1-.12-.79.56.56,0,0,1,.78-.12l4.36,3.22a.56.56,0,0,1,0,.9l-3.94,3a.56.56,0,0,1-.34.12"/><path d="M475.59,206.74a.56.56,0,0,1-.56-.56v-7.29a.56.56,0,1,1,1.12,0v7.29a.56.56,0,0,1-.56.56"/><path d="M499.93,206.14a.55.55,0,0,1-.56-.53L499,199a.56.56,0,1,1,1.12-.06l.39,6.57a.56.56,0,0,1-.53.59Z"/><path d="M507.68,172.12c-.44-.09-.62-.4-.54-.7,2.9-11.57-.93-18.55-2.56-21.53-3.91-7.13-14.06-9.45-22-8a14.42,14.42,0,0,0-8.66,5.5.57.57,0,0,1-.35.24,6.37,6.37,0,0,0-2.69,1.32c-3,2.39-2.91,6.62-2.9,6.66,0,4.86.66,15.84.66,15.95a.56.56,0,0,1-.52.6.54.54,0,0,1-.6-.52c0-.11-.71-11.14-.66-16,0-.17-.14-4.8,3.33-7.55a7.52,7.52,0,0,1,2.94-1.49,15.31,15.31,0,0,1,9.27-5.79c8.39-1.48,19,1,23.22,8.6,2.64,4.82,5.33,11.71,2.66,22.34a.56.56,0,0,1-.54.42"/><path d="M555.72,18.33a9.16,9.16,0,0,1-8-4.62,9.17,9.17,0,0,1,3.41-12.5,9.16,9.16,0,1,1,4.54,17.12m0-17.21a8.07,8.07,0,1,0,2.13.29,8,8,0,0,0-2.12-.29"/><path d="M638.5,54.26A.56.56,0,0,1,638,54q-1.11-1.7-2.34-3.42a.57.57,0,0,1,.13-.78.56.56,0,0,1,.78.13q1.25,1.74,2.37,3.46a.56.56,0,0,1-.17.78.53.53,0,0,1-.3.09m-6.28-8.55a.56.56,0,0,1-.43-.2c-1.35-1.64-2.78-3.25-4.25-4.8a.56.56,0,1,1,.81-.77c1.49,1.56,2.94,3.2,4.3,4.86a.56.56,0,0,1-.08.79.55.55,0,0,1-.35.13m-8.89-9.34a.56.56,0,0,1-.38-.14c-1.58-1.44-3.23-2.84-4.89-4.15a.56.56,0,0,1,.69-.88c1.68,1.32,3.34,2.74,4.95,4.2a.56.56,0,0,1-.38,1m-10.12-8a.53.53,0,0,1-.31-.1c-1.75-1.19-3.58-2.34-5.43-3.42a.56.56,0,0,1-.2-.76.55.55,0,0,1,.77-.2c1.88,1.09,3.72,2.26,5.49,3.46a.56.56,0,0,1-.31,1m-11.14-6.49a.56.56,0,0,1-.25-.06c-1.9-.94-3.87-1.84-5.84-2.65a.56.56,0,0,1,.43-1c2,.83,4,1.73,5.91,2.69a.56.56,0,0,1,.25.75.55.55,0,0,1-.5.31m-11.9-5c-2.17-.72-4.24-1.36-6.31-1.94a.56.56,0,0,1,.31-1.08c2.1.59,4.18,1.24,6.19,1.93a.56.56,0,0,1-.18,1.09m-12.42-3.48c-2.17-.47-4.29-.87-6.43-1.23a.56.56,0,0,1-.46-.65.54.54,0,0,1,.65-.46c2.15.36,4.29.77,6.36,1.23a.56.56,0,0,1-.12,1.11"/><path d="M447.31,48.19a.56.56,0,0,1-.45-.9c1.29-1.71,2.66-3.41,4.08-5a.56.56,0,1,1,.85.73c-1.4,1.62-2.75,3.3-4,5a.56.56,0,0,1-.45.22m8.43-9.76a.56.56,0,0,1-.4-1c1.51-1.53,3.09-3,4.71-4.47a.56.56,0,0,1,.74.84c-1.6,1.42-3.16,2.9-4.66,4.42a.56.56,0,0,1-.4.17m9.66-8.55a.56.56,0,0,1-.34-1c1.72-1.32,3.49-2.59,5.28-3.78A.56.56,0,0,1,471,26c-1.76,1.17-3.52,2.43-5.22,3.73a.56.56,0,0,1-.34.12m10.74-7.14a.56.56,0,0,1-.28-1c1.88-1.07,3.81-2.08,5.75-3a.56.56,0,0,1,.48,1c-1.92.92-3.83,1.92-5.68,3a.54.54,0,0,1-.28.07m11.62-5.58a.56.56,0,0,1-.21-1.08c2-.79,4-1.53,6.1-2.2a.56.56,0,0,1,.35,1.07c-2.05.67-4.08,1.4-6,2.18a.54.54,0,0,1-.21,0m12.26-4a.56.56,0,0,1-.14-1.1c2.06-.53,4.19-1,6.33-1.41a.54.54,0,0,1,.65.44.56.56,0,0,1-.44.66c-2.12.4-4.23.87-6.26,1.39l-.14,0m12.66-2.43a.56.56,0,0,1-.07-1.11c2.12-.28,4.28-.5,6.44-.67a.56.56,0,0,1,.08,1.12c-2.14.16-4.29.39-6.38.66h-.07m26.57-.65L538.4,10a.56.56,0,0,1-.52-.6.58.58,0,0,1,.59-.52l.82.06a.56.56,0,0,1,0,1.12m-13.71-.34a.56.56,0,0,1,0-1.12c2.13-.05,4.29-.06,6.47,0a.56.56,0,0,1,0,1.12c-2.18,0-4.33,0-6.43,0Z"/><path d="M766.25,271a.57.57,0,0,1-.35-.12.56.56,0,0,1-.1-.79c1.31-1.68,2.57-3.43,3.74-5.2a.56.56,0,0,1,.94.62c-1.19,1.8-2.46,3.57-3.79,5.28a.56.56,0,0,1-.44.21m7.09-10.77a.55.55,0,0,1-.27-.07.56.56,0,0,1-.23-.76c1-1.85,2-3.79,2.84-5.74a.56.56,0,0,1,1,.46c-.88,2-1.85,3.94-2.87,5.82a.56.56,0,0,1-.49.29m5.22-11.78c-.48-.13-.63-.45-.53-.75.7-2,1.33-4,1.88-6.12a.55.55,0,0,1,.69-.4.56.56,0,0,1,.4.68c-.56,2.12-1.2,4.21-1.9,6.21a.56.56,0,0,1-.53.37M781.85,236a.58.58,0,0,1-.55-.66c.38-2.06.69-4.19.92-6.34a.56.56,0,0,1,.56-.5.57.57,0,0,1,.56.62c-.23,2.18-.54,4.34-.93,6.42a.56.56,0,0,1-.55.46m1.37-12.82a.57.57,0,0,1-.56-.58q.05-1.58.05-3.15c0-1.09,0-2.18-.06-3.27a.56.56,0,0,1,.54-.58.57.57,0,0,1,.58.54c0,1.1.05,2.2.06,3.3s0,2.13-.05,3.19a.57.57,0,0,1-.56.54m-.45-12.89a.56.56,0,0,1-.56-.51c-.21-2.11-.5-4.24-.86-6.35a.56.56,0,0,1,.46-.65.59.59,0,0,1,.65.46c.36,2.13.66,4.3.87,6.43a.56.56,0,0,1-.5.61h-.05m-2.16-12.72a.56.56,0,0,1-.54-.43c-.49-2.05-1.05-4.13-1.68-6.19a.56.56,0,1,1,1.07-.33c.64,2.08,1.21,4.19,1.7,6.26a.56.56,0,0,1-.42.68h-.13m-3.78-12.33a.56.56,0,0,1-.53-.36c-.77-2-1.6-4-2.47-5.92a.56.56,0,0,1,1-.47c.89,1.93,1.72,3.94,2.5,6a.56.56,0,0,1-.52.76m-5.37-11.73a.56.56,0,0,1-.49-.29c-1-1.89-2.13-3.75-3.26-5.51a.56.56,0,0,1,.17-.78.55.55,0,0,1,.77.17c1.15,1.79,2.27,3.67,3.31,5.59a.56.56,0,0,1-.23.76.55.55,0,0,1-.27.07m-7-10.83a.57.57,0,0,1-.45-.22c-1.32-1.73-2.71-3.39-4.1-4.92a.56.56,0,1,1,.83-.76c1.41,1.56,2.82,3.24,4.17,5a.56.56,0,0,1-.11.79.55.55,0,0,1-.34.12m-8.71-9.51a.55.55,0,0,1-.37-.14,57.07,57.07,0,0,0-5-4,.56.56,0,1,1,.65-.91,56.05,56.05,0,0,1,5.08,4.07.56.56,0,0,1-.37,1m-10.52-7.41a.57.57,0,0,1-.26-.06,40.42,40.42,0,0,0-5.84-2.5.56.56,0,0,1,.36-1.07,41.43,41.43,0,0,1,6,2.57.56.56,0,0,1-.26,1.06m-12.18-4a31.4,31.4,0,0,0-6.4-.26.56.56,0,0,1-.06-1.12,32.36,32.36,0,0,1,6.54.27.56.56,0,0,1-.08,1.11"/><path d="M537.83,373.34a.56.56,0,0,1-.56-.56c0-.34,0-34-.92-45.93a.56.56,0,0,1,.52-.6.61.61,0,0,1,.6.52c.91,12,.93,45.67.93,46a.56.56,0,0,1-.56.56"/><path d="M435.63,373.34a.56.56,0,0,1-.56-.57l.31-23a.56.56,0,0,1,1.12,0l-.32,23a.56.56,0,0,1-.56.55"/><path d="M636.06,373.34H191.15a.56.56,0,0,1,0-1.12H636.06a.56.56,0,1,1,0,1.12"/><path d="M488.72,364.79a.56.56,0,0,1-.56-.56V339.7a.56.56,0,1,1,1.12,0v24.53a.56.56,0,0,1-.56.56"/><path d="M504.89,327l-1.83-.15c-8.41-.66-16.45-1.7-18.29-4.8a2.72,2.72,0,0,1-.08-2.63c2-4.45,3.08-14.73.62-19a3.32,3.32,0,0,0-2.57-1.88,2.85,2.85,0,0,0-2.36.67c-1.83,1.67-1.79,6.1-1.76,8.75,0,.45,0,.86,0,1.22-.06,5.29-9.29,9.21-9.68,9.37a.56.56,0,1,1-.43-1c.09,0,8.94-3.8,9-8.35,0-.35,0-.76,0-1.2,0-3-.07-7.58,2.13-9.59a4,4,0,0,1,3.23-1,4.42,4.42,0,0,1,3.43,2.43c2.7,4.7,1.52,15.39-.57,20a1.61,1.61,0,0,0,0,1.6c1.79,3,12.73,3.89,17.41,4.25l1.8.15a.56.56,0,0,1-.05,1.12"/><path d="M493.58,333.5a66.6,66.6,0,0,1-10-.83.56.56,0,0,1-.47-.64.54.54,0,0,1,.64-.47c22.06,3.36,26.78-4.93,26.83-5a.56.56,0,0,1,1,.52c-.16.31-3.54,6.43-18,6.43"/><path d="M488.39,339.95c-1.69,0-3.4-.06-5.17-.12l-3.61-.11a44.48,44.48,0,0,1-4.83-.37l-.72-.09a14.29,14.29,0,0,1-3.93-.86,6.39,6.39,0,0,1-3-3.16.56.56,0,0,1,1-.52,5.15,5.15,0,0,0,2.48,2.64,13.15,13.15,0,0,0,3.62.77l.73.09a43.81,43.81,0,0,0,4.71.37c1.25,0,2.45.07,3.62.11,6.45.22,11.54.41,18.36-2,3.53-1.24,6.84-5.75,6.84-7.77a.56.56,0,0,1,1.12,0c0,2.64-3.76,7.49-7.6,8.83a38.91,38.91,0,0,1-13.6,2.16"/><path d="M567.79,318.82a19.08,19.08,0,0,1-4.89-.61,46.54,46.54,0,0,1-16.9-7.84.56.56,0,0,1,.67-.89,45.54,45.54,0,0,0,16.51,7.65c6.7,1.77,15.79-.84,21.57-6.21,7-6.48,7.3-17.37,7.57-27,.06-2.23.12-4.34.26-6.35.91-13.15-1.19-45.37-1.2-45.69a.56.56,0,0,1,.52-.6.57.57,0,0,1,.59.52c0,.32,2.12,32.61,1.2,45.84-.13,2-.19,4.08-.26,6.3-.28,9.83-.6,21-7.93,27.77a27,27,0,0,1-17.74,7.08"/><path d="M555.6,301.45a.56.56,0,0,1-.54-.39c-3.58-11.41-.86-67.3-.74-69.67a.54.54,0,0,1,.59-.53.56.56,0,0,1,.53.59c0,.58-2.83,58.06.7,69.28a.56.56,0,0,1-.37.7.5.5,0,0,1-.17,0"/><path d="M573.41,236.88c-9.49,0-19.1-1.72-19.1-5,0-1.94,2.06-3.27,6.3-4.06a.56.56,0,1,1,.2,1.1c-2.45.46-5.37,1.35-5.37,3s6.84,3.9,18,3.9,18-2.27,18-3.9c0-1.18-1.93-2.29-5.18-3a.56.56,0,0,1-.43-.66.53.53,0,0,1,.66-.44c5,1,6.07,2.78,6.07,4.06,0,3.29-9.61,5-19.1,5"/><path d="M561.33,235.8a.56.56,0,0,1-.55-.48c-.08-.56-.11-1.26-.16-2.08-.2-4.1-.54-10.95-7.2-16.74-4.74-4.13-6.88-7.22-6.72-9.73a5,5,0,0,1,2.58-3.78c3.94-2.65,6.79.61,9.3,3.5,1.83,2.11,3.72,4.29,6,4.45,6.15.44,8.26,6.45,8.35,6.7a.56.56,0,0,1-1.06.36c-.08-.23-2-5.56-7.37-5.94-2.73-.2-4.78-2.55-6.76-4.83-2.52-2.9-4.7-5.4-7.82-3.3a3.91,3.91,0,0,0-2.09,2.92c-.13,2.1,1.95,5,6.34,8.81,7,6.11,7.38,13.54,7.58,17.53,0,.79.07,1.46.14,2a.56.56,0,0,1-.47.64h-.08"/><path d="M562.26,210.92a.56.56,0,0,1-.56-.52,74.29,74.29,0,0,1,.15-11c.13-2,.27-4.2.35-6.79.05-1.47.24-3.58,1.3-5a5.31,5.31,0,0,1,5-2.07,4,4,0,0,1,3.21,2.36,5.67,5.67,0,0,1,.26,1.75,147.17,147.17,0,0,1-.58,20.53.56.56,0,0,1-1.12-.13,145.13,145.13,0,0,0,.58-20.36,4.76,4.76,0,0,0-.18-1.4,2.83,2.83,0,0,0-2.31-1.63,4.2,4.2,0,0,0-3.91,1.63,8,8,0,0,0-1.06,4.33c-.09,2.61-.23,4.85-.36,6.82a72.52,72.52,0,0,0-.15,10.83.56.56,0,0,1-.52.6Z"/><path d="M578.63,210.59a.58.58,0,0,1-.56-.63,114.35,114.35,0,0,0,.53-20.57,3.57,3.57,0,0,0-.4-1.74,3.16,3.16,0,0,0-2.4-1.13,4,4,0,0,0-4,2.54.56.56,0,1,1-1-.45,5.27,5.27,0,0,1,5-3.21,4.29,4.29,0,0,1,3.31,1.63,4.5,4.5,0,0,1,.57,2.28,115.44,115.44,0,0,1-.52,20.78.56.56,0,0,1-.56.49"/><path d="M585.47,235.54a.58.58,0,0,1-.56-.63,68.2,68.2,0,0,0,.14-16.06,25.75,25.75,0,0,1-.17-5c.71-5.44,2-15.36,1.23-21.9a5,5,0,0,0-1-2.83,3,3,0,0,0-2.51-.81,3.67,3.67,0,0,0-2.79,1.32.56.56,0,0,1-.9-.68,4.84,4.84,0,0,1,3.55-1.75,4.06,4.06,0,0,1,3.46,1.16,5.88,5.88,0,0,1,1.27,3.46c.8,6.68-.51,16.7-1.22,22.08a24.27,24.27,0,0,0,.15,4.89,68.91,68.91,0,0,1-.14,16.3.56.56,0,0,1-.56.49"/><path d="M472.92,350.24c-3.36,0-5.62-9.12-6-17.79s1-18.14,4.37-18.31a7.29,7.29,0,0,1,2,.69.56.56,0,0,1-.51,1,8.27,8.27,0,0,0-1.46-.57c-1.7.09-3.79,6.64-3.27,17.13s3.24,16.83,5,16.73c.45,0,2.72-.62,3.14-10.23a.58.58,0,0,1,.59-.53.56.56,0,0,1,.53.58c-.4,9.19-2.51,11.21-4.21,11.3h-.09"/><path d="M470.68,315.26l-5.89-.56c-7.88-.75-16-1.52-24-3a233.5,233.5,0,0,1-30.48-8.07.56.56,0,0,1-.36-.71.57.57,0,0,1,.71-.36,232.18,232.18,0,0,0,30.34,8c7.93,1.48,16.05,2.25,23.9,3l5.84.56a.56.56,0,0,1-.05,1.12"/><path d="M246.85,331.6c-20,0-40.74-26.52-52-52.34a.56.56,0,0,1,.07-.56,52.77,52.77,0,0,1,11-10.16c8.89-6,13.71-7.86,13.91-7.93a.56.56,0,0,1,.59.13c.26.26,26,26.14,33.94,42a.56.56,0,1,1-1,.5c-7.42-14.87-30.74-38.71-33.47-41.47a80.15,80.15,0,0,0-13.34,7.67A52.1,52.1,0,0,0,196,279.11c11.69,26.65,33.4,53.91,53.69,51.17,21.53-2.95,30.64-30.82,40.33-67a.56.56,0,1,1,1.08.29c-9.79,36.54-19,64.74-41.26,67.78a22.22,22.22,0,0,1-3,.2"/><path d="M242.43,286.68a.56.56,0,0,1-.23,0,.56.56,0,0,1-.28-.74c2.43-5.38,4.66-10.7,6.82-15.83,9.87-23.49,17.67-42,33.39-43.43a.57.57,0,0,1,.61.51.56.56,0,0,1-.51.61c-15,1.33-22.73,19.61-32.46,42.74-2.16,5.15-4.4,10.47-6.83,15.86a.56.56,0,0,1-.51.33"/><path d="M290.64,208.66a6.66,6.66,0,0,1-5.49-2.89.56.56,0,0,1,.93-.64,5.55,5.55,0,0,0,9.76-1.19,5.55,5.55,0,0,0-8.56-6.37.56.56,0,0,1-.68-.89,6.67,6.67,0,1,1,4,12"/><path d="M291.11,205.68a.56.56,0,0,1-.45-.23l-3-4.07a.56.56,0,0,1-.08-.51.56.56,0,0,1,.37-.36L293,199a.56.56,0,0,1,.31,1.08l-4.29,1.24,2.5,3.43a.56.56,0,0,1-.45.89"/><path d="M281.36,217.77c-3.34-.31-5.67-1.53-7-3.63-2.46-3.92-.47-9.41-.38-9.64l4.49-18.34a.56.56,0,1,1,1.09.27l-4.51,18.41c0,.11-1.91,5.27.26,8.72,1.13,1.79,3.18,2.83,6.09,3.1a.56.56,0,0,1-.05,1.12"/><path d="M273.82,202.07a2.35,2.35,0,0,1-.65-.09,2.42,2.42,0,0,1-1.68-3l2.78-9.92a2.42,2.42,0,0,1,3-1.67A1.89,1.89,0,0,1,278.7,190a.56.56,0,1,1-1.08-.3c.19-.68,0-1-.67-1.19a1.28,1.28,0,0,0-1,.12,1.29,1.29,0,0,0-.61.78l-2.78,9.92a1.29,1.29,0,0,0,.12,1,1.3,1.3,0,0,0,2.38-.28.57.57,0,0,1,.69-.39.56.56,0,0,1,.39.69,2.42,2.42,0,0,1-2.33,1.76"/><path d="M246.79,373.4c-.47-.13-.63-.44-.53-.74,1-3.13,6.83-36.46,7.48-42.33a.56.56,0,0,1,1.12.12c-.69,6.26-6.44,39.32-7.53,42.56a.56.56,0,0,1-.53.38"/><path d="M330.07,316.48a8.6,8.6,0,0,1-3.86-.8.56.56,0,0,1-.23-.76.57.57,0,0,1,.76-.23c.29.15,7.19,3.61,16.47-6.86,8.59-9.7-5.52-40.27-12-53a.56.56,0,1,1,1-.51c8.16,16,20.54,44.37,11.82,54.22-5.76,6.5-10.74,7.9-14,7.9"/><path d="M332.34,373.4a.56.56,0,0,1-.55-.46c-.08-.42-7.61-42.1-5.46-63.12,2.09-20.41,2.75-38,1.93-50.93a.56.56,0,0,1,.52-.6.57.57,0,0,1,.6.52c.83,13,.16,30.65-1.93,51.12-2.13,20.86,5.37,62.39,5.45,62.8a.56.56,0,0,1-.45.65h-.1"/><path d="M270.64,232.61a.56.56,0,0,1-.24-.05,35.4,35.4,0,0,0-4.13-1.22c-5.51-1.44-7.87-4.25-10.16-7l-.76-.9a26,26,0,0,0-2-2c-1.7-1.58-3.31-3.07-3.29-4.84a3.65,3.65,0,0,1,1.43-2.68,3.15,3.15,0,0,1,2.37-.82c2.61.15,5.42,3,6.51,4.24A25.25,25.25,0,0,0,263,220c-.94-1.21-2.86-3.14-4.25-4.54l-1.2-1.21a63.51,63.51,0,0,0-6-4.86,39.68,39.68,0,0,1-4.58-3.69,3.35,3.35,0,0,1,.09-3.88,3.7,3.7,0,0,1,4-1.92c2.76.66,6.23,3.68,8.09,5.3l.71.61a5.07,5.07,0,0,1,2.77-1.47c3.31-.57,5.11.27,5.84.76a4.49,4.49,0,0,1,3.11-.64,15.48,15.48,0,0,1,2.7.81.56.56,0,0,1-.45,1,14.64,14.64,0,0,0-2.45-.74,3.67,3.67,0,0,0-2.58.66.57.57,0,0,1-.75,0s-1.48-1.4-5.23-.74a3.83,3.83,0,0,0-2.13,1.13c-.29.27-.74.69-1.23.35-.18-.12-.54-.43-1-.87-1.66-1.45-5.12-4.46-7.61-5.06a2.63,2.63,0,0,0-2.76,1.41,2.34,2.34,0,0,0-.21,2.56,41.91,41.91,0,0,0,4.41,3.53,63.34,63.34,0,0,1,6.16,5l1.19,1.2c3.11,3.12,5,5.08,5.13,6.13a.78.78,0,0,1-.42.9c-.27.12-1.11.49-4.65-3.52-2.07-2.33-4.21-3.78-5.73-3.87a1.93,1.93,0,0,0-1.56.53,2.62,2.62,0,0,0-1.06,1.86c0,1.28,1.42,2.61,2.93,4a26.77,26.77,0,0,1,2.06,2.06l.77.91c2.27,2.7,4.42,5.24,9.58,6.6a32.36,32.36,0,0,1,4.32,1.29.56.56,0,0,1-.24,1.07"/><path d="M267,213.95a.56.56,0,0,1-.47-.25c-1.74-2.62-7.17-6.78-7.23-6.82A.56.56,0,0,1,260,206c.23.17,5.64,4.32,7.48,7.09a.56.56,0,0,1-.16.78.58.58,0,0,1-.31.09"/><path d="M273.61,210.86a.56.56,0,0,1-.41-.18,43.37,43.37,0,0,0-5.17-4.47.56.56,0,1,1,.66-.91,44.1,44.1,0,0,1,5.33,4.61.56.56,0,0,1-.41.94"/><path d="M316.76,265.1a18.22,18.22,0,0,1-5.41-.81,12.66,12.66,0,0,1-8.23-6.9,37.49,37.49,0,0,1-2.17-9.13c-.1-.68-.2-1.36-.32-2-.82-5-2.12-9.91-6.14-11.85a17.92,17.92,0,0,0-3.87-1.21c-2.12-.49-4.31-1-6.15-2.77-2.51-2.43-3.77-5.93-3.65-10.12a14.78,14.78,0,0,1,7.78-12.67.57.57,0,0,1,.74.27.56.56,0,0,1-.27.74,13.4,13.4,0,0,0-7.14,11.68c-.07,2.7.44,6.49,3.31,9.28,1.61,1.57,3.56,2,5.62,2.49a18.78,18.78,0,0,1,4.11,1.29c4.48,2.17,5.89,7.38,6.76,12.68.11.68.21,1.37.32,2.05a36.63,36.63,0,0,0,2.09,8.86,11.56,11.56,0,0,0,7.53,6.27c4.41,1.37,9.46.86,12.87-1.29a19.6,19.6,0,0,0,5.91-6.28c4.6-7.35,5.4-14.62,2.75-25.09-3.09-12.26-7.94-17-13.08-22-1.15-1.12-2.34-2.29-3.53-3.55a4.15,4.15,0,0,1-1.33-2.52,8,8,0,0,1,1.29-3.82l.33-.63.45-.87a34,34,0,0,0,1.59-3.39,17.69,17.69,0,0,0,1.11-9.48c-1.19-6.58-13.28-9.28-13.4-9.31a.59.59,0,0,1-.25-.13c-5.76-5.12-15.88-8.13-22.83-4.3-6.68,3.68-4.92,11.67-4.9,11.75,0,.47,0,8.39,12.36,13.07a.56.56,0,0,1,.33.72.55.55,0,0,1-.72.32c-13.1-5-13.08-13.63-13.07-14,0,0-1.93-8.77,5.46-12.84s17.93-1,24,4.35c1.49.35,12.86,3.2,14.12,10.17A18.75,18.75,0,0,1,320,194.17a34.41,34.41,0,0,1-1.64,3.5l-.44.86-.35.66a7.23,7.23,0,0,0-1.16,3.22,3.2,3.2,0,0,0,1,1.82c1.17,1.25,2.36,2.4,3.5,3.52,5.25,5.13,10.21,10,13.38,22.53,2.73,10.8,1.89,18.32-2.89,26a20.65,20.65,0,0,1-6.26,6.63,15.83,15.83,0,0,1-8.39,2.23"/><path d="M229,324.61c-.5-.16-.64-.49-.52-.77,2.88-7,9.9-11.31,18.34-11.31,8.13,0,15.1,4.2,18.18,11a.56.56,0,1,1-1,.46c-2.9-6.36-9.48-10.32-17.16-10.32-8,0-14.6,4.07-17.3,10.62a.56.56,0,0,1-.52.35"/><path d="M124,193.88a.56.56,0,0,1-.56-.56v-31.8a14,14,0,0,1,14-14H279.54a.56.56,0,1,1,0,1.12H137.48a12.91,12.91,0,0,0-12.9,12.89v31.8a.56.56,0,0,1-.56.56"/><path d="M194.61,307.68H137.48a14,14,0,0,1-14-14V238.76a.56.56,0,1,1,1.12,0v54.91a12.91,12.91,0,0,0,12.9,12.9h57.14a.56.56,0,1,1,0,1.12"/><path d="M325.1,307.68a.56.56,0,1,1,0-1.12,12.91,12.91,0,0,0,12.9-12.9V208.55a.56.56,0,1,1,1.12,0v85.12a14,14,0,0,1-14,14"/><path d="M487.26,202.51c-17.5,0-17.5-11.38-17.5-30.23v-5.72a.56.56,0,0,1,.17-.4c.84-.81,2.62-6.66,3.6-10.36a12.45,12.45,0,0,1-2.2-2.59.56.56,0,0,1,1-.55c.06.1,5.91,10.09,23.65,6.66,1.35-.26,6.42-1.38,6.42-1.38a.57.57,0,0,1,.66.4,79.45,79.45,0,0,0,2.55,8,.65.65,0,0,1,.06.23l.26,6.41c0,17.81,0,29.56-18.65,29.56m-16.38-35.74v5.51c0,18.77,0,29.11,16.38,29.11,17.53,0,17.53-10.09,17.53-28.42l-.25-6.27a72.45,72.45,0,0,1-2.44-7.55c-1.33.29-4.84,1.06-5.93,1.27-11.42,2.21-18.18-1-21.69-3.81-.68,2.52-2.4,8.6-3.59,10.16"/><path d="M484.8,185.12a.58.58,0,0,1-.25-.06c-.15-.08-3.77-1.92-3.28-4.77.31-1.8,2.11-1.76,3.4-1.75,1.13,0,1.61,0,1.66-.35.27-1.79.19-12.19.19-12.29a.59.59,0,0,1,.56-.57.56.56,0,0,1,.56.55c0,.43.08,10.59-.21,12.47-.2,1.35-1.64,1.33-2.79,1.3-1.43,0-2.15,0-2.28.81-.35,2,2.64,3.57,2.67,3.58a.56.56,0,0,1-.25,1.06"/><path d="M488.85,191.22a6.19,6.19,0,0,1-1.92-.33.56.56,0,1,1,.35-1.06,3.57,3.57,0,0,0,3.06-.12,4.2,4.2,0,0,0,1.61-2.67.53.53,0,0,1,.64-.47.56.56,0,0,1,.47.63,5.3,5.3,0,0,1-2.13,3.46,3.89,3.89,0,0,1-2.09.57"/><path d="M388.89,178a.56.56,0,0,1,0-1.12c40.42-.8,73.31-34.36,73.31-74.8a74.81,74.81,0,1,0-83.12,74.36.56.56,0,1,1-.12,1.12,76,76,0,1,1,10,.45Z"/><path d="M628.17,270.39a.53.53,0,0,1-.28-.08c-2-1.18-2.91-3.87-2.45-7.55s1.93-6.34,4.37-7.91a10.69,10.69,0,0,1,1.78-.91,26.75,26.75,0,0,1,3.29-1c2.14-.56,4.16-1.09,5.7-2.51a6,6,0,0,0,1.55-5.35,261.39,261.39,0,0,0-4.62-26.26,13.67,13.67,0,0,1,6.34-11.21c8.22-5.53,19.15-4.89,28.76-3.53,3.06.43,6.15,1.34,8,5,2,3.92,1.73,8.65,1.36,11.86a.54.54,0,0,1-.62.49.56.56,0,0,1-.49-.62c.35-3.07.6-7.58-1.24-11.23-1.53-3-4-3.94-7.16-4.39-9.4-1.33-20.07-2-28,3.35a12.57,12.57,0,0,0-5.85,10.09c.24,1,2.43,10.07,4.62,26.3a7.14,7.14,0,0,1-1.9,6.32c-1.75,1.61-4,2.2-6.18,2.77a25.38,25.38,0,0,0-3.15,1,9.59,9.59,0,0,0-1.6.81c-2.15,1.38-3.44,3.77-3.86,7.1-.23,1.86-.3,5.17,1.9,6.45a.56.56,0,0,1-.28,1"/><path d="M608.88,357.87a.56.56,0,0,1-.37-1c18.21-15.91,58.86-18.52,59.27-18.54a.57.57,0,0,1,.59.53.56.56,0,0,1-.53.59c-.41,0-40.68,2.61-58.6,18.27a.57.57,0,0,1-.37.14"/><path d="M596.35,373.34a.56.56,0,0,1-.5-.31A46.59,46.59,0,0,1,592,361.71c-.32-1.58-.57-3.17-.75-4.74-2.28-19.75,5.79-40.29,12.05-54,8.54-18.7,19-31.09,31.92-37.86a.56.56,0,1,1,.52,1c-12.7,6.66-23,18.87-31.41,37.33-6.21,13.61-14.21,34-12,53.43.18,1.54.42,3.1.73,4.65a45.88,45.88,0,0,0,3.73,11,.56.56,0,0,1-.25.75.58.58,0,0,1-.25.06"/><path d="M712.81,299.58a.56.56,0,0,1-.52-.34c-.2-.49-1.4-3.32-1.6-3.8-8.56-19.78-19.45-30.4-34.27-33.41-1.16-.23-4.67-.84-4.67-.84l.19-1.11s3.53.62,4.69.85c15,3.05,26.48,14.2,35.08,34.06l1.6,3.81a.56.56,0,0,1-.3.73.58.58,0,0,1-.22,0"/><path d="M672.7,251.62c-.51,0-1.06,0-1.64-.07-1.88-.16-4.63-.49-6.56-.88a.56.56,0,0,1-.44-.66.55.55,0,0,1,.66-.44c1.89.38,4.59.71,6.43.86a11.45,11.45,0,0,0,4.52-.34c2-.63,3.36-2.14,4.17-4.62,1.36-4.14,1.29-8.64,1.21-13v-.56c0-2.36-.11-4.72-.18-7.08l-.08-2.5c0-.34,0-.7,0-1.05a.56.56,0,0,1,.38-.69.57.57,0,0,1,.7.38,1.05,1.05,0,0,1,.05.3l.11,3.53c.08,2.36.15,4.73.19,7.1v.56c.07,4.44.15,9-1.27,13.36-.93,2.84-2.54,4.59-4.9,5.34a10.91,10.91,0,0,1-3.31.46"/><path d="M650.3,269.86a36.24,36.24,0,0,1-14.43-3.5l-.6-.27a.56.56,0,0,1-.27-.75.57.57,0,0,1,.74-.27l.59.27c6.54,2.89,12.39,3.94,17.28,3.14a11.67,11.67,0,0,0,9-7.24A16.21,16.21,0,0,0,661.22,246c-.53-.77-1.09-1.52-1.66-2.27-2.66-3.54-5.42-7.2-3.81-12.27.71-2.24,2.36-4,4-5.73.36-.39.72-.77,1.05-1.15,2.36-2.65,4.38-5.13,6.18-7.6l.27-.35c3.23-4.21,3.78-5.38,3.84-5.7a.56.56,0,0,1,.21-.63.55.55,0,0,1,.78.13c.11.15,2.4,3.24,9.62,10.28a.56.56,0,0,1-.78.8,124.54,124.54,0,0,1-9-9.54,43,43,0,0,1-3.72,5.35l-.26.33c-1.82,2.49-3.86,5-6.24,7.68l-1.07,1.17c-1.52,1.62-3.09,3.3-3.71,5.3-1.43,4.52,1,7.79,3.64,11.26.57.76,1.15,1.53,1.68,2.31a17.35,17.35,0,0,1,1.55,16.28,12.77,12.77,0,0,1-9.9,7.91,21.86,21.86,0,0,1-3.49.27"/><path d="M667.2,227.41c.45-.07.75.12.88,1.73.14,1.8-.32,2.12-.73,2.1s-.81-.57-.79-1.85.05-1.89.64-2"/><path d="M679.64,226.68c.44-.09.75.1.93,1.7.2,1.79-.25,2.13-.65,2.12s-.83-.54-.85-1.83,0-1.89.57-2"/><path d="M681.28,223.44a.56.56,0,0,1-.37-.14c-.59-.51-1.44-1-3.28-.48a.55.55,0,0,1-.69-.4.56.56,0,0,1,.4-.68c2.38-.63,3.6.11,4.29.72a.56.56,0,0,1-.36,1"/><path d="M669.12,273.88c-3.12,0-8.19-6.19-9.25-7.52a.56.56,0,0,1,.09-.79.56.56,0,0,1,.79.09c2.62,3.3,7,7.68,8.68,7,1.9-.73,2.15-7.78,1.87-12l.5-9.5a.56.56,0,0,1,.56-.53.57.57,0,0,1,.56.59l-.5,9.44c.13,1.91.63,11.86-2.58,13.1a2,2,0,0,1-.71.13"/><path d="M678.32,261.87a.54.54,0,0,1-.32-.1.56.56,0,0,1-.13-.78c3.72-5.25-1.19-10.43-1.24-10.48a.56.56,0,0,1,0-.79.57.57,0,0,1,.79,0c.06.06,5.6,5.91,1.35,11.91a.56.56,0,0,1-.46.23"/><path d="M631.65,346.19a.56.56,0,0,1-.56-.5c-1.94-19.67,9-52.2,9.09-52.53a.56.56,0,1,1,1.06.36c-.11.32-11,32.63-9,52.06a.56.56,0,0,1-.5.61h-.05"/><path d="M672.24,242.59a4,4,0,0,1-2.3-.68,5.3,5.3,0,0,1-2-3.56.56.56,0,0,1,1.12-.11,4.21,4.21,0,0,0,1.48,2.75,3.53,3.53,0,0,0,3,.27.55.55,0,0,1,.69.39.56.56,0,0,1-.39.69,6.41,6.41,0,0,1-1.69.25"/><path d="M774.48,335.64a5.22,5.22,0,0,1-2.64-.68,6.34,6.34,0,0,1-2.89-5.4,14.75,14.75,0,0,1,7.51-13,6.34,6.34,0,0,1,6.12-.2c3.46,2,3.88,7.8.92,12.92-2.27,3.94-5.89,6.35-9,6.35m5.42-18.84a6.62,6.62,0,0,0-2.94.77,13.63,13.63,0,0,0-6.89,11.93,5.26,5.26,0,0,0,2.33,4.49c2.92,1.7,7.47-.67,10.12-5.26s2.42-9.7-.51-11.39a4.15,4.15,0,0,0-2.11-.54"/><path d="M707.89,373.32A14.65,14.65,0,0,1,694,354.05l21.87-66a14.63,14.63,0,0,1,13.91-10H822a14.91,14.91,0,0,1,3.25.36c.14.06,9.24,5,9.24,5a.56.56,0,1,1-.54,1l-9-4.93a13.78,13.78,0,0,0-2.93-.31H729.76a13.52,13.52,0,0,0-12.85,9.28l-21.87,66a13.54,13.54,0,0,0,12.85,17.79.56.56,0,1,1,0,1.12"/><path d="M806.37,374.11H714.16a14.77,14.77,0,0,1-13.91-19.27l21.87-63.16A14.6,14.6,0,0,1,736,282.07h92.21a14.84,14.84,0,0,1,12.11,6.13,13.46,13.46,0,0,1,1.8,12.34L820.28,363.7c-2.09,6-7.94,10.41-13.91,10.41M736,283.19a13.48,13.48,0,0,0-12.85,8.87l-21.87,63.16A13.65,13.65,0,0,0,714.16,373h92.21c5.51,0,10.91-4.06,12.85-9.66l21.87-63.16a12.34,12.34,0,0,0-1.66-11.32,13.72,13.72,0,0,0-11.2-5.67Z"/><path d="M685,367.06a.58.58,0,0,1-.55-.67c.35-1.8-1.17-4.72-2.28-6.86-.31-.6-.6-1.17-.83-1.66s-.5-1.18-.77-1.86c-1.5-3.86-3.54-9.14-10.86-7.87,0,0-9.25,2.62-14.67,6.39a.57.57,0,0,1-.78-.14.56.56,0,0,1,.14-.78c5.58-3.88,14.68-6.46,15.06-6.56,8.32-1.42,10.61,4.58,12.15,8.56.26.66.49,1.27.74,1.79s.51,1,.81,1.62c1.25,2.41,2.8,5.4,2.38,7.59a.56.56,0,0,1-.55.45"/><path d="M675.16,367.06a.56.56,0,0,1-.39-.16,14.56,14.56,0,0,1-3.8-8.17.56.56,0,0,1,1.13,0,13.5,13.5,0,0,0,3.46,7.37.56.56,0,0,1,0,.79.55.55,0,0,1-.4.17"/><path d="M693.31,367a.55.55,0,0,1-.31-.09.56.56,0,0,1-.17-.78c.88-1.35.12-3-.78-4s-1.83-3.31-2.84-5.89c-1.27-3.25-2.71-6.94-4.6-9-3.11-3.39-10.19.59-10.27.63a.56.56,0,1,1-.55-1c.32-.18,7.94-4.45,11.65-.42,2,2.21,3.51,6,4.82,9.35.93,2.38,1.81,4.63,2.63,5.55,1.18,1.31,2.12,3.51.89,5.39a.56.56,0,0,1-.47.25"/><path d="M658.67,367.06a.57.57,0,0,1-.41-.17A17.2,17.2,0,0,1,654,352.48c1.45-9.15,9.67-15.5,18.36-14.11,2.81.44,7.11,1.64,12,6.88a.56.56,0,0,1-.82.76c-4.68-5-8.74-6.12-11.38-6.54-8.06-1.27-15.72,4.63-17.08,13.18a16.08,16.08,0,0,0,4,13.46.56.56,0,0,1,0,.79.56.56,0,0,1-.38.15"/><path d="M695.61,351.47a.56.56,0,0,1-.54-.39c-.45-1.41-2-5.24-3.9-6-2.8-1.17-6.34,1.67-6.37,1.71a.56.56,0,0,1-.71-.87c.17-.13,4.11-3.28,7.52-1.87,2.72,1.13,4.47,6.48,4.54,6.71a.57.57,0,0,1-.36.71l-.17,0"/><path d="M692.6,345.88c-.45-.1-.62-.41-.54-.71,9.38-33.95,2-55,1.91-55.24a.56.56,0,1,1,1.05-.38c.08.21,7.6,21.6-1.88,55.92a.56.56,0,0,1-.54.41"/><path d="M196.83,277.5c-7.78-2.76-20-20.76-20.46-25.55a4.18,4.18,0,0,1,2.59-4.43,3.29,3.29,0,0,1,1.33-3.92,4.15,4.15,0,0,1,1.61-.73,3.41,3.41,0,0,1,2.88,1,.54.54,0,0,1,.16.23l12.42,32.68a.56.56,0,0,1-.52.76m-14.42-33.56-.3,0a3,3,0,0,0-1.17.54,2.19,2.19,0,0,0-.72,3.06.56.56,0,0,1-.36.82,3.14,3.14,0,0,0-2.37,3.45c.39,4.11,11.07,20.13,18.34,24l-11.89-31.28a2.47,2.47,0,0,0-1.53-.65"/><path d="M217.76,262.7c-.13,0-23.62-5.45-23.62-5.45a.56.56,0,0,1-.26-.14,100.06,100.06,0,0,1-8.09-9.86c-.16-.24-.35-.5-.55-.77-1-1.38-2.41-3.27-2.07-5.06a3.46,3.46,0,0,1,1.73-2.27c3.29-2,5.36.9,6.73,2.85.26.37.64.93,1.09,1.6a79.77,79.77,0,0,0,4.9,6.76c2.28,2.56,5.44,5.25,7.2,5.1a1.41,1.41,0,0,0,1.13-.73,3.77,3.77,0,0,0,.39-2.14,20.18,20.18,0,0,0-.4-2.33c-.62-3-1.46-7.19.21-9a3,3,0,0,1,2.75-.81,4.32,4.32,0,0,1,2.56,1,4.41,4.41,0,0,1,1.07,2.23c.39,1.65.67,3.42.93,5.13.72,4.67,1.47,9.49,4.7,12.95a.56.56,0,0,1-.41.94m-23.22-6.51,21.73,5c-2.57-3.53-3.25-7.95-3.92-12.24-.27-1.77-.53-3.44-.92-5a2.51,2.51,0,0,0-2.68-2.38A1.94,1.94,0,0,0,207,242c-1.28,1.38-.47,5.36.06,8a20.32,20.32,0,0,1,.42,2.5,4.79,4.79,0,0,1-.56,2.8,2.54,2.54,0,0,1-2,1.24c-2.81.18-6.6-3.75-8.13-5.47a81.13,81.13,0,0,1-5-6.87c-.44-.66-.82-1.21-1.08-1.58-1.88-2.67-3.21-3.81-5.22-2.54a2.36,2.36,0,0,0-1.22,1.52c-.25,1.31,1,3,1.87,4.18.21.29.41.56.58.81a103,103,0,0,0,7.82,9.57"/><path d="M189.52,261.76a.56.56,0,0,1-.43-.2s-2.42-2.87-5.11-6.11a51.83,51.83,0,0,1-4.59-7.06.54.54,0,0,1-.37-.32c-.1-.29,0-.59.24-.69.49-.12.84,0,1,.19a54.25,54.25,0,0,0,4.62,7.16c2.69,3.24,5.1,6.1,5.1,6.1a.56.56,0,0,1-.43.92"/><path d="M718.92,202.85l-28.76-.07a.56.56,0,1,1,0-1.12l28.2.07V57.51H574.14V174a.56.56,0,0,1-1.12,0V57a.56.56,0,0,1,.56-.56H718.92a.56.56,0,0,1,.56.56V202.29a.56.56,0,0,1-.17.4.56.56,0,0,1-.4.16"/><path d="M677.49,238.17a.56.56,0,0,1-.09-1.11c2-.34,2.35-2.34,2.41-3.28-1.41-.12-3.37-.4-3.9-1s-1.39-5.07-1.72-6.93a.56.56,0,1,1,1.11-.19,39.76,39.76,0,0,0,1.48,6.41,11.31,11.31,0,0,0,3.63.66.56.56,0,0,1,.52.53c.09,1.5-.5,4.46-3.35,4.94h-.09"/><path d="M664.09,227.63c-.43-.08-.62-.38-.55-.68a6.43,6.43,0,0,1,2.7-3.85,4.67,4.67,0,0,1,3.91-.17.57.57,0,0,1,.35.71.58.58,0,0,1-.71.35,3.59,3.59,0,0,0-3,.09,5.31,5.31,0,0,0-2.14,3.12.56.56,0,0,1-.55.43"/><path d="M713.6,374.11H637.94a3.94,3.94,0,0,1,0-7.88h58.43a.56.56,0,1,1,0,1.12H637.94a2.82,2.82,0,0,0,0,5.64H713.6a.56.56,0,1,1,0,1.12"/><path d="M665.3,367.35a.56.56,0,0,1,0-1.12c6.09-.35,6.39-4.56,6.4-4.61a.56.56,0,0,1,.56-.53.56.56,0,0,1,.56.59c0,.05-.37,5.25-7.45,5.66Z"/><path transform="rotate(-35.87 186.98 252.67)" fill="#fff" d="M184.75 244.34H189.25V261H184.75z"/><path fill="#fff" d="M216.28 261.22L216.13 262.33 193.48 259.07 194.77 254.76 216.28 261.22z"/><path fill="#fff" d="M197.13 276.13L195.83 275.87 191.37 264.63 189.27 258.62 193.51 257.12 197.13 276.13z"/></svg>