<svg xmlns="http://www.w3.org/2000/svg" viewBox="0 0 92.94 92.94"><path fill="#f12535" d="M0.52 67.8L0.52 64.69 8.63 59.44 18.69 57.7 25.56 58.58 27.3 65.17 21.06 64.69 15.46 64.11 10.24 65.34 4.72 69.24 1.96 69.24 0.52 67.8z"/><path fill="#f12535" d="M92.51 25.09L92.51 28.2 84.4 33.45 74.34 35.19 67.47 34.31 65.72 27.72 71.97 28.2 77.57 28.78 82.79 27.55 88.31 23.65 91.07 23.65 92.51 25.09z"/><path d="M82.15,34.57a20.73,20.73,0,0,0,9.8-5.63,3.37,3.37,0,0,0,1-2.4,3.4,3.4,0,0,0-5.8-2.4,15.28,15.28,0,0,1-3.07,2.4l-.72.42L66,9.58l.42-.72A15.29,15.29,0,0,1,68.8,5.8,3.4,3.4,0,0,0,64,1c-7.24,7.24-6.9,16.1-5.79,23l.25,1.54-1.52-.31c-9.23-1.9-18.83-2.6-26.56,5.13a21,21,0,0,0-6.16,12.58.32.32,0,0,0,.28.36.31.31,0,0,0,.24-.06.32.32,0,0,0,.12-.21,20.34,20.34,0,0,1,6-12.21c8-8,18.2-6.65,27.09-4.72l.69.15.14.69c.27,1.37.52,2.44.77,3.56l.38,1.69-1.66-.38c-9.23-2.1-17.36-3.33-23.52,2.91-6.79,6.8-4.64,16.07-2.37,25.88,2.5,10.79,5.09,22-3.85,30.89a2.76,2.76,0,0,1-3.9-3.9c6.82-6.82,4.69-15.91,2.44-25.54a78.7,78.7,0,0,1-2.37-13.72.32.32,0,0,0-.1-.22.4.4,0,0,0-.25-.08.32.32,0,0,0-.28.33,56.17,56.17,0,0,0,1.2,8.56l.31,1.53L24,58.2C17.1,57.1,8.23,56.75,1,64a3.36,3.36,0,0,0,2.4,5.76,3.4,3.4,0,0,0,2.4-1,15.32,15.32,0,0,1,3.07-2.4L9.58,66l0,0L27,83.36l-.42.72a15.3,15.3,0,0,1-2.4,3.07,3.4,3.4,0,0,0,4.8,4.8c7.24-7.24,6.9-16.1,5.79-23l-.25-1.54,1.52.31c9.23,1.9,18.83,2.6,26.56-5.13s7-17.34,5.13-26.57l-.31-1.52,1.54.24a41.24,41.24,0,0,0,7.78.58.31.31,0,0,0,.22-.1A.32.32,0,0,0,77,35a.32.32,0,0,0-.1-.23.35.35,0,0,0-.24-.08,42.16,42.16,0,0,1-8.74-.76l-.7-.12-1.36-5.88,1.63.33c8.21,1.65,14.77,1.67,20.09-3.65a2.76,2.76,0,0,1,1.95-.78h0a2.74,2.74,0,0,1,1.95,4.68A20.11,20.11,0,0,1,82,34a.32.32,0,1,0,.16.62ZM5.35,68.34a2.76,2.76,0,1,1-3.9-3.9c4.17-4.17,9.35-6.19,15.84-6.19A43.78,43.78,0,0,1,25,59l.7.12.16.7c.17.77.35,1.52.53,2.3L27.07,65l-1.64-.33C17.22,63,10.66,63,5.35,68.34Zm4.79-2.73,1.71-.52c3.59-1.1,7.84-1,14.69.5l.68.14.14.68c1.45,6.86,1.6,11.11.5,14.69l-.52,1.71-.09-.09ZM46.4,30.74c3.87,0,8,.83,13,2l.65.15.15.65c1.15,5,2,9.1,2,13l0,2.56L43.84,30.77ZM36.27,34.16a14.31,14.31,0,0,1,6.34-3l.57-.12,0,0L61.93,49.76l-.12.57a14.31,14.31,0,0,1-3,6.34l-.75.91L58,57.52,35.36,34.91Zm-5.14,8.45a14.31,14.31,0,0,1,3-6.34l.75-.91.06.06L57.58,58l-.91.75a14.29,14.29,0,0,1-6.34,3l-.57.12,0,0L31,43.18Zm1.6,16.79c-1.15-5-2-9.1-2-13l0-2.56L49.1,62.17l-2.81,0c-3.84,0-8.05-.9-12.75-2l-.65-.15ZM66,31.21c2.5,10.81,5.09,22-3.86,30.92-4.18,4.17-9.35,6.2-15.81,6.2A54.21,54.21,0,0,1,35,66.85l-.69-.15L34.21,66c-.17-.84-.38-1.85-.78-3.59l-.38-1.67,1.67.38C43.9,63.22,52,64.45,58.23,58.23c6.74-6.74,4.61-16,2.36-25.87-2.48-10.83-5-22,3.86-30.92a2.76,2.76,0,1,1,3.9,3.9C61.57,12.12,63.71,21.39,66,31.21ZM81.1,27.85a17.68,17.68,0,0,1-5.25.73,46.34,46.34,0,0,1-9.44-1.22l-.68-.14-.14-.68c-1.45-6.86-1.6-11.11-.5-14.69l.52-1.71.09.09L82.81,27.33Z" fill="#fff"/></svg>