<svg xmlns="http://www.w3.org/2000/svg" viewBox="0 0 72.64 93.09"><path d="M0,19.67a.43.43,0,0,0,.43.43H23.17a4.51,4.51,0,0,0,0-9H6a.43.43,0,1,0,0,.87H23.17a3.65,3.65,0,1,1,0,7.29H.43A.43.43,0,0,0,0,19.67Z" fill="#fff"/><path fill="#f12535" d="M60.5 11.25L41.58 11.25 39 11.54 36.32 14.03 36.46 17.98 39.89 20.15 68.95 19.83 60.5 11.25z"/><path d="M36.36,40.5H72.2a.43.43,0,1,0,0-.87h-17l.48-1.37a3.33,3.33,0,0,0,.19-1.11V34.67h8.22a8.42,8.42,0,0,0,6-14.37L56.84,7a23.89,23.89,0,0,0-17-7H.43a.43.43,0,0,0,0,.87h39.4A23,23,0,0,1,56.22,7.66l3.42,3.42H40.38a4.51,4.51,0,1,0,0,9H68.67l.81.81a7.55,7.55,0,0,1-5.34,12.89H.43a.43.43,0,1,0,0,.87H7.94v2.48a3.33,3.33,0,0,0,.19,1.12l.48,1.37H.51a.43.43,0,1,0,0,.87H25a.43.43,0,1,0,0-.87H14l.49-1.37a3.31,3.31,0,0,0,.19-1.11V34.67H49.23v2.48a3.34,3.34,0,0,0,.19,1.12l.48,1.37H36.36a.43.43,0,1,0,0,.87Zm4-21.27a3.65,3.65,0,1,1,0-7.29H60.51l7.29,7.29ZM13.77,37.16a2.48,2.48,0,0,1-5,0V34.67h5Zm36.32-2.48h5v2.48a2.48,2.48,0,0,1-5,0Z" fill="#fff"/><path d="M72.64,72.26a.43.43,0,0,1-.43.43H49.47a4.51,4.51,0,1,1,0-9H66.64a.43.43,0,1,1,0,.87H49.47a3.65,3.65,0,1,0,0,7.29H72.2A.43.43,0,0,1,72.64,72.26Z" fill="#fff"/><path fill="#f12535" d="M12.14 63.85L31.06 63.85 33.64 64.13 36.32 66.62 36.17 70.57 32.74 72.74 3.68 72.42 12.14 63.85z"/><path d="M36.71,92.66a.43.43,0,0,0-.43-.43H22.74l.48-1.37a3.34,3.34,0,0,0,.19-1.12V87.27H58v2.48a3.31,3.31,0,0,0,.19,1.11l.49,1.37h-11a.43.43,0,1,0,0,.87H72.13a.43.43,0,1,0,0-.87H64l.48-1.37a3.33,3.33,0,0,0,.19-1.12V87.27H72.2a.43.43,0,1,0,0-.87H8.49A7.55,7.55,0,0,1,3.15,73.51L4,72.69H32.26a4.51,4.51,0,1,0,0-9H13l3.42-3.42A23,23,0,0,1,32.8,53.46H72.2a.43.43,0,0,0,0-.87H32.8a23.89,23.89,0,0,0-17,7L2.54,72.89a8.42,8.42,0,0,0,6,14.37h8.22v2.48a3.33,3.33,0,0,0,.19,1.11l.48,1.37H.43a.43.43,0,1,0,0,.87H36.27A.43.43,0,0,0,36.71,92.66ZM4.84,71.83l7.29-7.29H32.26a3.65,3.65,0,1,1,0,7.29Zm54,15.44h5v2.48a2.48,2.48,0,0,1-5,0ZM22.54,89.75a2.48,2.48,0,0,1-5,0V87.27h5Z" fill="#fff"/></svg>