<svg xmlns="http://www.w3.org/2000/svg" viewBox="0 0 83.62 89.82"><g id="82859faa-95bb-4c81-bc4c-315fcb293c56" data-name="Layer 2"><g id="8f239418-f34f-4d8f-8cf1-53c41bcaa461" data-name="Layer 1"><path d="M42.61,76.51h3.23c.77,0,.78-.28.78-.4a.32.32,0,0,0-.1-.27,1,1,0,0,0-.65-.16H39c-.66,0-.79.14-.79.38a.35.35,0,0,0,.1.28,1.3,1.3,0,0,0,.75.14h3.55Z" fill="#fff"/><path d="M63.63,88.83H56.9c-.53,0-.71,0-.72.38a.4.4,0,0,0,.09.31,1.12,1.12,0,0,0,.67.11h6.87c.59,0,.73,0,.74-.38a.4.4,0,0,0-.1-.31,1.1,1.1,0,0,0-.66-.11Z" fill="#fff"/><path d="M68.25,89.63h7c.55,0,.72,0,.73-.34a.38.38,0,0,0-.1-.31.93.93,0,0,0-.61-.15h-7a.94.94,0,0,0-.61.14.36.36,0,0,0-.1.3C67.54,89.49,67.66,89.63,68.25,89.63Z" fill="#fff"/><path d="M23,72.46c0,.24.12.38.7.38h7c.55,0,.7,0,.71-.34a.38.38,0,0,0-.11-.31.83.83,0,0,0-.52-.14H23.72a.92.92,0,0,0-.57.15A.34.34,0,0,0,23,72.46Z" fill="#fff"/><path d="M27,75.69a1,1,0,0,0-.63.16.34.34,0,0,0-.09.29c0,.1,0,.37.73.37h6.87a1.1,1.1,0,0,0,.68-.14.33.33,0,0,0,.1-.27c0-.26-.13-.41-.78-.41Z" fill="#fff"/><path d="M42.19,72H35a.77.77,0,0,0-.52.15.36.36,0,0,0-.09.31c0,.25.17.33.65.33h7.06a.88.88,0,0,0,.57-.13.34.34,0,0,0,.1-.27C42.8,72.1,42.41,72,42.19,72Z" fill="#fff"/><path d="M12.77,30.51l0-2.1-.55,1,0,2.14a2,2,0,0,1,0,.51c0,.08,0,.14,0,.2q-.06,5.82-.13,11.63-.1,8.5-.19,17c-.08,8.23-.15,17.08-.2,27.06a1.15,1.15,0,0,1-.33.93,1.42,1.42,0,0,1-1,.27c-1.45,0-2.93,0-4.44,0h-2a.89.89,0,0,0-.55.12.29.29,0,0,0-.08.23c0,.11,0,.29.58.29H5l6.54,0a.94.94,0,0,0,.62-.14.83.83,0,0,0,.18-.64c0-2.37,0-4.85,0-7l.11-12.75q.12-14.5.24-29,0-3.18,0-6.36v-.48q0-1.44,0-2.88Z" fill="#fff"/><path d="M13.87,27H13a.85.85,0,0,0-.85.85v1.61a.84.84,0,0,0,.58.79v-.75s0,0,0,0V27.88A.28.28,0,0,1,13,27.6h.79a.28.28,0,0,1,.28.28v2.36a.84.84,0,0,0,.63-.8V27.82A.85.85,0,0,0,13.87,27Z" fill="#fff"/><path d="M13.46,24.4a1.48,1.48,0,1,0,1.48,1.48A1.48,1.48,0,0,0,13.46,24.4Zm0,2.54a1.05,1.05,0,1,1,1.05-1.05A1.05,1.05,0,0,1,13.46,26.94Z" fill="#fff"/><path d="M58.31,21.51h-.83a.85.85,0,0,0-.85.85V24a.84.84,0,0,0,.58.79V24s0,0,0,0V22.42a.28.28,0,0,1,.28-.28h.79a.28.28,0,0,1,.28.28v2.36a.84.84,0,0,0,.63-.8V22.36A.85.85,0,0,0,58.31,21.51Z" fill="#fff"/><path d="M57.9,18.94a1.48,1.48,0,1,0,1.48,1.48A1.48,1.48,0,0,0,57.9,18.94Zm0,2.54A1.05,1.05,0,1,1,59,20.42,1.05,1.05,0,0,1,57.9,21.48Z" fill="#fff"/><path d="M57.91,21.82l-.46-.07c-.27.49-.54.58-.81,1.06l-.1,5.67h0q-.07,9.33-.16,18.66l-.08,9.07c-.08,8.46-.16,17.2-.23,25.79a1.25,1.25,0,0,1-.34,1,1.56,1.56,0,0,1-1.06.28c-2.29,0-4.65,0-6.87,0H38.54c-1.36,0-2.25.71-2.26,1.8a1.56,1.56,0,0,0,.53,1.21,2.56,2.56,0,0,0,1.72.58H45.9a2.6,2.6,0,0,1,1.83.48.9.9,0,0,1,.26.78c-.14,1.14-1.15,1.13-1.82,1.11H17.7c-2.12,0-2.27-.13-2.29-2l-.12-10.26q-.23-20.36-.47-40.72,0-2.32-.06-4.65c0-1.32-.06-2.62-.07-3.92H14.1v2.74c0,.39,0,.77,0,1.13v.11h0c0,.26,0,.51,0,.76q0,4.21.09,8.42,0,4,.09,8l.24,21.31q.11,9.31.21,18.63c0,1.06,0,1.06,1.23,1.06l30.39,0c1.34,0,2.29-.73,2.31-1.77a1.61,1.61,0,0,0-.54-1.26,2.62,2.62,0,0,0-1.76-.59h-.75c-2.47,0-4.69,0-6.92,0h-.06C37.19,86.22,37,85.39,37,85a1,1,0,0,1,.34-.85,1.9,1.9,0,0,1,1.37-.39h4.82c4,0,8.12,0,12.19,0a1.54,1.54,0,0,0,.8-.15c.09-.07.22-.2.22-.63q0-6.07.11-12.14v-.53q0-4.66.09-9.32.09-10.23.17-20.47.07-8.9.15-17.81s0-.07,0-.1a.84.84,0,0,1,.19-.71A.8.8,0,0,1,57.91,21.82Z" fill="#fff"/><path d="M70.43,83.24a2.34,2.34,0,0,0-.49,0H67.81c-1.94,0-4.35,0-6.64,0a1.67,1.67,0,0,1-1.09-.29,1.1,1.1,0,0,1-.31-.91c0-.75,0-1.52,0-2.26v-.1c0-.38,0-.76,0-1.14l-.08-7.17q-.14-12.49-.28-25-.06-5.49-.11-11,0-3.5-.07-7v-.13l0-2.3c0-1.15,0-2.35,0-3.5l-.73-.58L58,21.83a.63.63,0,0,1,.36.14.49.49,0,0,1,.08.11h.13l0,2.12h0l.1,10.46q.08,9,.17,18,.07,6.83.14,13.65.09,8.41.18,16.83a.71.71,0,0,0,.17.56.88.88,0,0,0,.61.14l6,0h4.08a2.14,2.14,0,0,0,.49-.05c.23-.05.23-.16.23-.21A.26.26,0,0,0,70.43,83.24Z" fill="#fff"/><path d="M82,20.06l-.14,0a47,47,0,0,0-4.93-.61,133.41,133.41,0,0,0-15.69-.25,2.41,2.41,0,0,1-2.7-1.55,45.33,45.33,0,0,0-2.18-4.48A56.73,56.73,0,0,0,48.54,1.89l-.05-.05a7.32,7.32,0,0,0-2-1.69,1,1,0,0,0-.93-.05.72.72,0,0,0-.33.72,4.71,4.71,0,0,0,.41,1.64A76.42,76.42,0,0,0,55.44,18.5a2.42,2.42,0,0,1,.4,1.91,2.94,2.94,0,0,0,.05,1.14c0,.16-.08.28-.19.38l-.07.07A87,87,0,0,0,45.47,36.38a7.73,7.73,0,0,0-1,2.38.84.84,0,0,0,.38,1A1,1,0,0,0,46,39.65a10.39,10.39,0,0,0,1.43-1,42.7,42.7,0,0,0,7.74-9.47c0-.05,3.92-7,3.95-7A2.69,2.69,0,0,1,60.51,22a74.57,74.57,0,0,0,14.23,1,34.94,34.94,0,0,0,7.16-.72l.16,0c1-.2,1.57-.39,1.57-1.12S83,20.22,82,20.06ZM57.88,21.4a1,1,0,1,1,1-1A1,1,0,0,1,57.88,21.4Z" fill="#f12535"/><path d="M37.58,25.59l-.14,0A47,47,0,0,0,32.51,25a133.41,133.41,0,0,0-15.69-.25,2.41,2.41,0,0,1-2.7-1.55,45.33,45.33,0,0,0-2.18-4.48A56.73,56.73,0,0,0,4.12,7.42l-.05-.05A7.32,7.32,0,0,0,2,5.67a1,1,0,0,0-.93-.05.72.72,0,0,0-.33.72A4.71,4.71,0,0,0,1.19,8,76.42,76.42,0,0,0,11,24a2.42,2.42,0,0,1,.4,1.91,2.94,2.94,0,0,0,.05,1.14c0,.16-.08.28-.19.38l-.07.07A87,87,0,0,0,1,41.9a7.73,7.73,0,0,0-1,2.38.84.84,0,0,0,.38,1,1,1,0,0,0,1.13-.08,10.39,10.39,0,0,0,1.43-1A42.7,42.7,0,0,0,10.7,34.7c0-.05,3.92-7,3.95-7a2.69,2.69,0,0,1,1.44-.18,74.57,74.57,0,0,0,14.23,1,34.94,34.94,0,0,0,7.16-.72l.16,0c1-.2,1.57-.39,1.57-1.12S38.52,25.75,37.58,25.59ZM13.46,26.92a1,1,0,1,1,1-1A1,1,0,0,1,13.46,26.92Z" fill="#f12535"/></g></g></svg>