<svg xmlns="http://www.w3.org/2000/svg" viewBox="0 0 746.64 456.5"><g fill="#164c9b"><path d="M456.5 666.89L374.5 651.89 374.5 651.89 368.5 649.39 368.5 649.39 372.5 641.89 372.5 641.89 357.5 636.89 357.5 636.89 317.5 632.89 317.5 632.89 308.5 612.39 308.5 612.39 317.5 606.39 317.5 606.39 359.5 596.39 359.5 596.39 405.5 589.39 405.5 589.39 413.61 582.89 418.81 582.89 404.5 570.89 404.5 570.89 326.5 563.89 326.5 563.89 263.5 557.89 263.5 557.41 215.67 540.22 139.35 526.22 216.81 527.24 263.5 518.39 263.5 518.39 326.5 510.39 326.5 510.39 402.5 489.39 402.5 489.39 410.5 482.89 410.5 482.89 397.8 474.82 389.5 452.51 389.5 442.89 396.75 442.89 258.12 429.65 247.8 430.39 322.5 417.9 322.5 416.89 276.5 409.91 266.64 410.45 316.96 401.39 317.46 401.39 331.5 397.41 331.5 398.41 368.5 385.89 368.5 385.89 360.5 371.39 360.5 371.39 378.5 350.89 378.5 350.89 329.59 330.05 324.5 278.39 324.5 278.39 365.5 270.89 365.5 270.89 360.5 250.39 360.5 250.39 364.5 242.39 364.5 242.39 384.91 229.89 385.01 229.89 278.58 179.22 309.17 179.89 420.5 0 420.5 0 419 178.38 419 177.72 308.33 231.39 275.92 231.39 383.49 240.89 383.42 240.89 363 248.89 363 248.89 359 272.39 359 272.39 364 276.89 364 276.89 323 330.31 323.02 352.39 328.41 352.39 377 369.89 377 369.89 359 387.39 359 387.39 367 396.87 367 395.87 330 399.89 330 399.89 316.04 408.94 315.55 408.36 261.86 418.38 276 419.37 321 428.88 321 428.12 244.7 444.39 257.38 444.39 393.75 452.01 388 475.45 388 484.39 397.2 484.39 409 487.89 409 487.89 401 508.89 401 508.89 325 516.89 325 516.89 262 525.7 262 524.72 216.69 540.05 131.81 558.91 215.57 559.38 262 565.39 262 565.39 325 572.39 325 572.39 403 584.39 403 584.39 415.69 587.89 412.89 587.89 404 594.89 404 594.89 358 604.89 358 604.89 316 610.89 316 610.89 307 634.39 307 634.39 316 638.39 316 638.39 356 643.39 356 643.39 371 647.89 371 647.89 367 653.39 367 653.39 373 668.39 373 668.39 455 714.88 455 714.39 44.02 743.78 1.5 383.39 1.5 383.39 97.25 381.89 97.25 381.89 0 746.64 0 715.89 44.48 716.39 456.5z"/><path d="M666.89 456.5L666.89 374.5 651.89 374.5 651.89 368.5 649.39 368.5 649.39 372.5 641.89 372.5 641.89 357.5 636.89 357.5 636.89 317.5 632.89 317.5 632.89 308.5 612.39 308.5 612.39 317.5 606.39 317.5 606.39 359.5 596.39 359.5 596.39 405.5 589.39 405.5 589.39 413.61 582.89 418.81 582.89 404.5 570.89 404.5 570.89 326.5 563.89 326.5 563.89 263.5 557.89 263.5 557.41 215.67 540.22 139.35 526.22 216.81 527.24 263.5 518.39 263.5 518.39 326.5 510.39 326.5 510.39 402.5 489.39 402.5 489.39 410.5 482.89 410.5 482.89 397.8 474.82 389.5 452.51 389.5 442.89 396.75 442.89 258.12 429.65 247.8 430.39 322.5 417.9 322.5 416.89 276.5 409.91 266.64 410.45 316.96 401.39 317.46 401.39 331.5 397.41 331.5 398.41 368.5 385.89 368.5 385.89 360.5 371.39 360.5 371.39 378.5 350.89 378.5 350.89 329.59 330.05 324.5 278.39 324.5 278.39 365.5 270.89 365.5 270.89 360.5 250.39 360.5 250.39 364.5 242.39 364.5 242.39 384.91 229.89 385.01 229.89 278.58 179.22 309.17 179.89 420.5 0 420.5 0 419 178.38 419 177.72 308.33 231.39 275.92 231.39 383.49 240.89 383.42 240.89 363 248.89 363 248.89 359 272.39 359 272.39 364 276.89 364 276.89 323 330.31 323.02 352.39 328.41 352.39 377 369.89 377 369.89 359 387.39 359 387.39 367 396.87 367 395.87 330 399.89 330 399.89 316.04 408.94 315.55 408.36 261.86 418.38 276 419.37 321 428.88 321 428.12 244.7 444.39 257.38 444.39 393.75 452.01 388 475.45 388 484.39 397.2 484.39 409 487.89 409 487.89 401 508.89 401 508.89 325 516.89 325 516.89 262 525.7 262 524.72 216.69 540.05 131.81 558.91 215.57 559.38 262 565.39 262 565.39 325 572.39 325 572.39 403 584.39 403 584.39 415.69 587.89 412.89 587.89 404 594.89 404 594.89 358 604.89 358 604.89 316 610.89 316 610.89 307 634.39 307 634.39 316 638.39 316 638.39 356 643.39 356 643.39 371 647.89 371 647.89 367 653.39 367 653.39 373 668.39 373 668.39 455 714.88 455 714.39 44.02 743.78 1.5 383.39 1.5 383.39 97.25 381.89 97.25 381.89 0 746.64 0 715.89 44.48 716.39 456.5z"/></g><path d="M378.06,100.19h9.66a.9.9,0,1,0,0-1.8h-9.66a.9.9,0,0,0-.9.9A.91.91,0,0,0,378.06,100.19Z" fill="#164c9b"/><path d="M375.13,107.51h15.54a.9.9,0,1,0,0-1.8H375.13a.9.9,0,0,0-.9.9A.91.91,0,0,0,375.13,107.51Z" fill="#164c9b"/><g fill="#164c9b"><path d="M361.68,149.44a21,21,0,0,0,6.51,15.29h0a21.12,21.12,0,0,0,14.75,5.93l.81,0a21.43,21.43,0,0,0,20.36-21.13,21.14,21.14,0,0,0-4.91-13.62,33.3,33.3,0,0,1-7.71-21.25,3.38,3.38,0,0,0-.32-2.18.69.69,0,0,0-.58-.21H375.21a.72.72,0,0,0-.61.22,3.08,3.08,0,0,0-.3,2,34.61,34.61,0,0,1-8,21.77A21,21,0,0,0,361.68,149.44Zm14.43-34.36v-1h13.56v1a35.18,35.18,0,0,0,8.13,22,19.41,19.41,0,0,1,4.48,12.46,19.63,19.63,0,0,1-18.63,19.34,19.4,19.4,0,0,1-16-31.47A36.53,36.53,0,0,0,376.11,115.08Z"/><path d="M362.77,171.48,358,176.24a.87.87,0,0,0-.27.62.9.9,0,0,0,.27.65h0a.88.88,0,0,0,1.26,0l4.75-4.75a.9.9,0,0,0,.27-.65.86.86,0,0,0-.26-.62,1.07,1.07,0,0,0-.66-.27A.84.84,0,0,0,362.77,171.48Z"/><path d="M382.9,179.31a.9.9,0,0,0-.9.9v6.71a.9.9,0,0,0,.9.9.91.91,0,0,0,.9-.9v-6.71A.89.89,0,0,0,382.9,179.31Z"/><path d="M406.52,177.49a.9.9,0,0,0,.64.27,1.2,1.2,0,0,0,.62-.26.9.9,0,0,0,0-1.27L403,171.47a.9.9,0,0,0-1.54.65.86.86,0,0,0,.26.61Z"/><path d="M417.2,151.72h-6.71a.9.9,0,1,0,0,1.8h6.71a.9.9,0,0,0,.9-.9A.91.91,0,0,0,417.2,151.72Z"/><path d="M355.84,151.72h-6.71a.9.9,0,1,0,0,1.8h6.71a.9.9,0,0,0,.9-.9A.91.91,0,0,0,355.84,151.72Z"/></g></svg>