<svg xmlns="http://www.w3.org/2000/svg" viewBox="0 0 147.62 127.98"><g class="arrow" fill="#164c9b"><path d="M27.19,81.91a.76.76,0,0,0,.51-.32.73.73,0,0,0,.12-.56.77.77,0,0,0-.18-.37L9.83,60.79a.84.84,0,0,0-.57-.37.8.8,0,0,0-.56.15.77.77,0,0,0-.26.36L0,86.46a.76.76,0,0,0,.5.94.73.73,0,0,0,.36,0ZM9.45,62.66l16.17,18-23.73,5Z"/><path d="M147.61,41a.77.77,0,0,0-.89-.51L120.46,46a.77.77,0,0,0-.51.32.73.73,0,0,0-.12.56.77.77,0,0,0,.18.37l17.81,19.87a.84.84,0,0,0,.57.37.7.7,0,0,0,.56-.15.78.78,0,0,0,.26-.37l8.35-25.52A.8.8,0,0,0,147.61,41Zm-9.4,24.26L122,47.26l23.72-5Z"/><path d="M12.74,50a.75.75,0,0,0,.36-.46l0-.13A62.41,62.41,0,0,1,129.73,36.2l1.51-.32A63.92,63.92,0,0,0,11.66,49.06a.81.81,0,0,0,.05.64.75.75,0,0,0,.45.35A.76.76,0,0,0,12.74,50Z"/><path d="M134.9,78a.75.75,0,0,0-.36.46l0,.13A62.41,62.41,0,0,1,17.91,91.78l-1.51.32A63.92,63.92,0,0,0,136,78.92a.81.81,0,0,0-.05-.64.75.75,0,0,0-.45-.35A.76.76,0,0,0,134.9,78Z"/></g><path d="M56,105,94.52,60.25a.82.82,0,0,0,.28-.61.74.74,0,0,0-.23-.52.89.89,0,0,0-.63-.22h-16l1.18-2.26L96.24,24a1,1,0,0,0,.19-.53.76.76,0,0,0-.76-.77H65.89a.76.76,0,0,0-.72.52L51.32,65.57a.86.86,0,0,0,0,.68.76.76,0,0,0,.7.47H64.4l-9.6,37.4a.89.89,0,0,0,0,.72A.76.76,0,0,0,56,105ZM66,66.19a.74.74,0,0,0-.08-.56.75.75,0,0,0-.47-.35l-.17,0H53l.67-2L66.43,24.18h28L76,59.37a.76.76,0,0,0,.33,1,.75.75,0,0,0,.34.08H92.3L56.93,101.59Z" fill="#164c9b"/></svg>