<svg xmlns="http://www.w3.org/2000/svg" viewBox="0 0 226.1 50.53"><path d="M25.9,11.55c-.1-.22-.14-.4-.21-.43a1.14,1.14,0,0,0,.45.89,4.35,4.35,0,0,0-.24-.46"/><path d="M26,12.43c0-.08-.21-.32-.34-.57a4.2,4.2,0,0,0-.24-.48,1.36,1.36,0,0,0,.57,1"/><path d="M26.19,11.27c-.06-.18-.12-.35-.17-.37a.86.86,0,0,0,.33.75,3.57,3.57,0,0,0-.16-.38"/><path d="M25.44,12.19a5.6,5.6,0,0,0-.25-.56,1.74,1.74,0,0,0,.67,1.22,5.56,5.56,0,0,0-.41-.67"/><path d="M25.95,19.47c0,.08.29.35.44.62a5.22,5.22,0,0,0,.27.48,1.67,1.67,0,0,0-.71-1.1"/><path d="M26.41,11.08c0-.21-.06-.41-.11-.44a1.13,1.13,0,0,0,.26,1,2.71,2.71,0,0,0-.14-.53"/><path d="M20.85,10.2s0,.08,0,.11a.32.32,0,0,1-.17,0s0-.08-.06-.11a.25.25,0,0,1,.26,0m-.43.14a1.53,1.53,0,0,0,.46,0c.24-.14.22-.24,0-.3a1.08,1.08,0,0,0-.45,0c.11.15.06.18,0,.25"/><path d="M26.54,19.34a.71.71,0,0,0-.38-.56s.14.18.24.32a2.57,2.57,0,0,0,.14.24"/><path d="M26,19.12c0,.06.22.27.35.48a3.83,3.83,0,0,0,.21.37,1.15,1.15,0,0,0-.56-.84"/><path d="M7.62,26.05c.13-.21.18-.06.16.13a2.43,2.43,0,0,1-.65.71,4.22,4.22,0,0,1,.49-.84m.27.13a7.12,7.12,0,0,1,1.16-3.55c-.26.08-.46.35-.7.76.41-1.24,1.1-2.54,2.51-2.86a3.6,3.6,0,0,1,2.77,1.22,4.56,4.56,0,0,0-2,.54l0-.09a3,3,0,0,1,1-.53l-.1,0a3.55,3.55,0,0,0-1.84,1.11l-.1,0a3,3,0,0,1,1.88-1.3h-.3a3,3,0,0,0-1.37.86A6.46,6.46,0,0,0,9.2,25.92c0,.08-.08-.06-.1,0a7,7,0,0,1,.49-2A5.8,5.8,0,0,1,10.91,22,6.71,6.71,0,0,1,12,21.35h-.08a2.17,2.17,0,0,0-.84.46A6.2,6.2,0,0,0,9.59,23.7,6,6,0,0,0,9,25.92a2.34,2.34,0,0,1-.43,1c-.25.32-.46.11-.81,1l-.08,0a2.26,2.26,0,0,1,.24-.6c.11-.16.22-.24.36-.41a2.6,2.6,0,0,0,.59-1.34,10.5,10.5,0,0,1,.32-1.54,3.12,3.12,0,0,1,.49-1,4.8,4.8,0,0,1,2.07-1.94l-.11,0a4.68,4.68,0,0,0-2.29,2.27c-.59,1-.43,2.14-.89,3a4.36,4.36,0,0,1-.72.94l-.08,0c.11-.37.51-.65.7-1a3.44,3.44,0,0,0,.22-.92,5.73,5.73,0,0,1,1.48-3.34H9.94c-1.52,1.67-1.3,2.84-1.64,4-.24.75-.49.65-1,1.7a.8.8,0,0,1,.08-.38,3,3,0,0,1,.46-.64,3.77,3.77,0,0,0,.54-1.75,3.32,3.32,0,0,1,.29-1,4.66,4.66,0,0,1,.37-.8,5.07,5.07,0,0,1,1.84-1.94v-.06A4.64,4.64,0,0,0,8.92,23.2a5.45,5.45,0,0,0-.6,1.38c-.11.41-.17,1-.32,1.53a2.15,2.15,0,0,1-.51.91,3.09,3.09,0,0,1-.35.44,1.19,1.19,0,0,1,.49-.87.87.87,0,0,0,.25-.41m7.2,1.7-.07.21-.06,0,0-.18ZM14.93,22l0,.14c-1.38.84-2,2.46-2,4.67a10.17,10.17,0,0,0,0,1.54l0-.11a22.42,22.42,0,0,1,.21-3.18,4.2,4.2,0,0,1,.71-1.72,3.85,3.85,0,0,1,.27-.38c.13-.13.27-.16.38-.27v.11a4.27,4.27,0,0,0-1.18,2.07,12.22,12.22,0,0,0-.16,3.37,1.2,1.2,0,0,1-.11.44l.06,0a1.5,1.5,0,0,0,.14-.68,7.89,7.89,0,0,1,.52-4,3.06,3.06,0,0,1,1.61-1.56l0,.11c-.86.59-1.67,1.27-1.83,3.59l0,0c.16-1.76.79-3.07,2-3.54A3.77,3.77,0,0,1,17,22.41l-.1.08a2.53,2.53,0,0,0-2.16.86l.1,0A2.18,2.18,0,0,1,17,22.63l-.07.13a2,2,0,0,0-1.59.49v.06a2,2,0,0,1,1.51-.45c.16,0,.21.14.16.33l-.1.88a9.87,9.87,0,0,1-.27,2.42l-.08.06.08-1.46-.33,1.81c0,.21-.17.18-.14,0,.08-.38.21-.91.29-1.46a.19.19,0,0,0-.16.18,4.34,4.34,0,0,1-.4,1.64,7.89,7.89,0,0,0,.19-1.48l-.1.08-.24,1.38c.18.1,0,.24-.11.06l.08-.76h-.06l-.33,1.22.11-.84-.29.84H15l.14-.72-.48,1.3c-.14,0-.16,0,0-.24l.3-.89-.1,0c-.19.65-.33,1.11-.57,1.26l-.08,0a2.38,2.38,0,0,0,.4-1.16,3.08,3.08,0,0,1-.67,1.29s0-.19.21-.54l.17-.46c-.08-.1-.13-.06-.17.08a2.38,2.38,0,0,1-.43.92l.21-.78,0-.1a2.42,2.42,0,0,1-.6,1.1l.13.06c.43-.29,1-.19,1.62-.46.13-.06.26-.1.33,0l-.11.3-.11-.18a1.09,1.09,0,0,1-.29.56l0-.35c-.25.56-.43.86-.44.59l0-.33a1.24,1.24,0,0,0-.37.68c-.1,0-.11-.21-.08-.48l-.16.59c-.14,0-.17-.13-.1-.48a2.16,2.16,0,0,1-.29.57.6.6,0,0,1,0-.46l-.16.3c0,.22-.06.3-.16.28,0-.33,0-.46,0-.38l-.19.51c-.11.06-.14-.06-.13-.35-.18.09-.13.44-.26.59-.1-.06-.11-.22-.1-.4-.08.27-.16.43-.27.44l0-.52a1.87,1.87,0,0,1-.21.59l-.14-.38-.06.36c-.11.06-.21,0-.27-.27,0,.49-.06.91-.38,1.11a2,2,0,0,1-.3.84l.51-.75c.11,0,.16,0,.11.27l-.53.86c-.08.09-.17.06-.27,0a3.18,3.18,0,0,1-.49,1,1.85,1.85,0,0,0,.54-.86c0-.13.17,0,.13.29l-.13.11,0,.19h-.16v.26l-.14.06c.14.35,0,.57-.38.4-.11.43-.59.21-.35-.17a7,7,0,0,0,1.27-3.19c0-.46.32-.67.68-.87a2,2,0,0,0,1-2c-.17-3.59.83-5.17,2.37-5.79M17,22.2s-.14.06-.32.06-.32,0-.32-.06.14-.06.32-.06.32,0,.32.06m-1.83,0a1.5,1.5,0,0,1,1-.35h.67c.25,0,.22.26,0,.24h-.48a2.11,2.11,0,0,0-1.13.3c-.19.08-.21-.08-.06-.19m1.37-2.72c-.1.14-.21.22-.24.17s0-.17.1-.32.21-.21.24-.17,0,.19-.1.32m-.6-.38.08-.33a.91.91,0,0,1-.48.48c.18-.27.21-.4.16-.48a1.25,1.25,0,0,1-.65.5l.11-.3c-.16.08-.24.25-.48.24l.21-.33-.36.16,0-.22-.33.21.13-.29-.38.16,0-.19-.25.06v-.21l-.22.13,0-.16-.3.13,0-.24-.22.11-.08-.11-.27.1,0-.21-.24.24,0-.19c-.1.06-.16.22-.27.21l-.06-.21c-.13.11-.22.29-.35.3l0-.29c-.14.13-.26.35-.43.37l.07-.3c-.11.11-.21.32-.35.32l.11-.29c-.16.11-.38.35-.48.33l.06-.29c-.08,0-.14.16-.22.14l.06-.17c.16-.37.49-.43.89-.41a11.33,11.33,0,0,1,2.64.3,3.23,3.23,0,0,0,2.93-.21c.21-.08.27,0,.17.24s-.24.35-.4.29a.87.87,0,0,1-.29.38l0-.32a.68.68,0,0,1-.46.36m.22.54c-.08.11-.16.17-.19.14s0-.14.08-.26.14-.17.17-.14,0,.14-.06.25m-.33,0c-.06.08-.13.13-.16.11a.25.25,0,0,1,.06-.21c.06-.1.13-.14.14-.13s0,.13,0,.22m-.51.08c-.16,0-.29,0-.29-.11s.13-.1.29-.1.27,0,.27.1-.13.11-.27.11M11.72,17a6.81,6.81,0,0,1,1.22-.22,4.28,4.28,0,0,0,1.35-.33,2.37,2.37,0,0,0,.7-.38c.13-.1.08-.13-.06-.11l-.57,0v-.25l-.22.3,0-.3-.19.53-.08-.61-.14.65-.08-.64-.24.73-.06-.76-.14.78L13,15.64l-.1.79-.16-.75-.06.72-.21-.73v.76l-.24-.73,0,.65L12,15.72l-.06.57-.13-.52-.08.57c-.24-.44-.33-.81-.17-1a.92.92,0,0,1,.87-.29.94.94,0,0,1,.35-.3l0,.14.38-.13,0,.13.41-.22c-.24.3-.29.43-.21.43s.37-.35.46-.25c-.21.32,0,.22.33-.06.1,0-.13.25-.09.29s.16-.06.41-.24c.07,0,.21-.21.24-.13s-.08.14-.13.21c-.25.3-.19.25.25,0,.06,0,.16-.11.22-.08-.3.4-.18.32.27,0,.06,0,.14-.14.22-.06-.55.49-.46.56.26.21-.33.38-.26.4.27.06,0,0,.11,0,.17,0-.24.24-.27.41-.16.35a1,1,0,0,1,.51-.14c-.22.22-.21.32.08.27.1,0,0,.14-.29.33,0,.08-.1,0-.14-.19,0,.11-.08.11-.13,0l-.06.41-.1,0v-.24c0-.06-.1-.06-.14,0l-.08.32-.14-.08a.69.69,0,0,1-.22.3c-.1-.13-.16-.09-.19,0s-.1,0-.16,0-.1.18-.17.08a2,2,0,0,0-.37.29l-.06-.16c-.11.16-.21.25-.27.22l-.11-.11L14,17l-.29.08c0,.08.11.08.3,0A8,8,0,0,0,15,16.86a9.11,9.11,0,0,0,1-.3c.3-.14.65-.4,1-.57.08.06,0,.22-.65.75l-.32-.1.17.24a.23.23,0,0,1-.22.1l-.29-.14.1.3c-.21,0-.3-.26-.49-.14l.08.24L15,17.1l.08.29-.37-.16-.08.16c-.11,0-.17,0-.19.08a4.66,4.66,0,0,0,2.72-.62s.06,0,.06.1a1.72,1.72,0,0,1-.78,1l.13-.51c-.29.13-.6.75-.84.83l.26-.67-.75.62c-.06-.08,0-.25.19-.48-.22,0-.6.53-.67.5s.13-.24.19-.35c-.21,0-.35.18-.52.27,0-.1.1-.21.29-.38l-.62.29c0-.11.24-.21.29-.37a1.61,1.61,0,0,1-.6.3l.19-.3-.54.29.33-.35-.57.27.16-.3-.41.27.17-.33a1.05,1.05,0,0,1-.51.29c.11-.14.19-.25.18-.33a1.13,1.13,0,0,1-.46.27l.08-.27a1.35,1.35,0,0,1-.52.33l.19-.32s0-.11,0-.06l-.43.35c.1-.17.14-.29.08-.33l-.3.16,0-.18-.35.38s0-.11.06-.29l-.36.24a1.47,1.47,0,0,1,.94-.76m.92-3.91c.24-.36.43-.48.56-.19.16-.51.33-.55.56-.11.3,0,.36.46.32,1.15l-.29-.76v.49c-.19-.84-1.42-.35-1.15-.57m.71-2.81c0,.13,0,.19-.14.07a.6.6,0,0,1,.06-.81.54.54,0,0,1,.81-.08c.16.13.11.14-.08.14-.54,0-.75.27-.65.68M13,9.47c0,.24-.08.27-.3.11l-.26-.32c-.19-.19-.22-.35-.11-.49l.24-.29a.7.7,0,0,1,.49-.14.19.19,0,0,1,.08.21.65.65,0,0,0-.6.43,1,1,0,0,1,.65-.38.18.18,0,0,1,.14.19.18.18,0,0,0-.21,0,1.49,1.49,0,0,1-.38.3,1.51,1.51,0,0,0,.52-.24c.11,0,.13.1.1.22a.28.28,0,0,1-.21.14c-.14,0-.19.06-.16.22M12.22,8.2c-.52-.75-.92-1.35-1.32-1.92-.08-.11,0-.13.07-.07.48.59.92,1.15,1.43,1.81,0,.11,0,.17-.17.17m.21.22a.4.4,0,0,1,.35-.35l.35.06c.13.1.11.13,0,.14s-.45,0-.53.21-.16.17-.14-.06m1.11.67a.09.09,0,0,1,.08.1.1.1,0,0,1-.08.1.09.09,0,0,1-.08-.1c0-.06,0-.1.08-.1m.88,4.6s-.1-.06-.13-.18a.33.33,0,0,1,0-.21s.1.06.13.17,0,.21,0,.21m.33-.56-.16-1-.11.41-.1-.59c-.08-.07-.1.3-.08.81-.14-.14-.13-.56-.11-1l-.16.45a1.75,1.75,0,0,1,0-.86c-.1-.08-.16.08-.19.56a1.64,1.64,0,0,1,0-.87l-.11.24,0-.56A6.79,6.79,0,0,1,15,12.54v.59l-.19-.67c0,.46,0,.76,0,.67m12.8,15.74.1-.06.16.63-.48-.27,0-.11C21.67,21.33,16.86,14.78,13.68,10.3c0-.24,0-.33.24-.25,4.18,5.53,9.25,12.72,13.62,18.82m-11-16.93.11.08.08-.08a.32.32,0,0,1-.13.22,1,1,0,0,1,0-.13l-.11-.1m.33.76a.3.3,0,0,1-.11.22.37.37,0,0,1,.11-.22m.27-.3,0,0,0,0a.6.6,0,0,1-.16.21.5.5,0,0,1,.1-.27l-.11-.08a2.66,2.66,0,0,1-.35.52A2.1,2.1,0,0,1,17,12a2.58,2.58,0,0,1-.1.29l.11.1a.39.39,0,0,0,.08-.1.44.44,0,0,1,0,.14Zm.62.75c0,.24,0,.3-.19.36,0-.16,0-.27.19-.36m-.16-.1c0-.06,0-.13,0-.17l0,0a.12.12,0,0,1,0-.06l.1-.11a.47.47,0,0,1-.21.38M15.35,11a3,3,0,0,1,2.45.3,3,3,0,0,0,2.11.57c.13,0,.14.06,0,.11l-.46.15c-.1,0-.11.09-.16.06S19,12,19,11.92H18.8c.1.14.1.21,0,.16l-.33-.24c-.1-.06-.13,0-.08,0l.06.09s0,.08-.11,0L18,11.67c-.1-.08-.16-.08-.14,0l0,.13c0,.06-.16-.08-.29-.24s-.13-.06-.13,0v.14c0,.14-.27-.24-.49-.46-.07-.06-.16-.06-.13,0s.11.32.06.25l-.36-.32c-.07-.06-.21-.11-.18,0l.11.29s-.24-.1-.51-.35h-.1c-.17,0,.18.25.13.3s-.17,0-.26-.17-.1-.11-.21-.1a.48.48,0,0,1-.21,0c-.17,0-.17-.11,0-.18m.78-.51a.93.93,0,0,1,1-.16c.43.27.59.19,1,.48a5,5,0,0,0,1.3.64c.1,0,.08.08-.08.16-.25-.18-.44-.29-.29,0,0,0-.06,0-.1,0-.29-.25-.51-.38-.67-.36-.21-.25-.3-.27-.25-.06s0,0-.11,0c-.24-.35-.35-.4-.33-.14,0,0,0,0-.1,0-.21-.38-.26-.4-.16,0,0,0-.06,0-.11,0-.18-.35-.19-.32-.19-.11-.27-.38-.33-.32-.27-.07-.18-.25-.26-.27-.26-.06-.14-.14-.25-.13-.37,0s-.06,0,0-.09m1.8-.1a2.57,2.57,0,0,1,1,.35s0,.08,0,0a.59.59,0,0,0-.33-.14c0,.14,0,.21,0,.19-.13-.22-.24-.26-.33-.21s0,0-.08,0c-.1-.21-.14-.21-.19-.13-.1-.08-.1-.13,0-.13m1.54-1.27a.48.48,0,0,0,.11-.41c0-.13.11-.11.13,0a.58.58,0,0,1-.11.51c-.08,0-.19,0-.13-.1m.84,1.7c.17.14,0,.27-.17.13a2.21,2.21,0,0,1-.65-1.34c0-.14.06-.19.1,0a2.43,2.43,0,0,0,.73,1.24m-.52-3.64c-.29.08-.32,0-.08-.11l.22-.16a1.15,1.15,0,0,1,.54-.16c-.27-.17-.8.09-1.32.35-.16.08-.21,0-.08-.1a1.84,1.84,0,0,1,.62-.36,2.08,2.08,0,0,1,.81-.14c.19-.18.37.06.16.25a1.06,1.06,0,0,1-.22.14,1.81,1.81,0,0,1-.65.29m-.38,0a.09.09,0,0,1-.11,0s0-.06.08-.08a.09.09,0,0,1,.11,0,.08.08,0,0,1-.08.08m-.8,0a.77.77,0,0,1-.7.13c-.18,0-.11-.14,0-.16a2.35,2.35,0,0,0,.73-.22l.37-.17c.17-.08.21-.06.06.08a4.3,4.3,0,0,1-.51.35m1.22-.75a.07.07,0,0,1-.08.06.06.06,0,0,1,0-.13.07.07,0,0,1,.08.06m-1.8.3a3.38,3.38,0,0,1-.6-.37c0-.08-.1-.13.13-.08a1.11,1.11,0,0,0,.65.16l0,.13A2.17,2.17,0,0,0,19.4,6.1a.21.21,0,0,0-.17,0c-.29.14-.25,0,.29-.22.08,0,.14,0,.27,0l.35-.08c-.29.25-.57.51-.89.75A1.43,1.43,0,0,1,18,6.71m2.37-.57v.1l-.13,0c-.06,0-.13,0,0-.06a.56.56,0,0,1,.14-.06m.06-.35a2.57,2.57,0,0,1,.6,0c.4.14.24.27,0,.18a.65.65,0,0,0-.57,0c0,.16-.29,0-.45.14s-.13,0-.06-.08a.87.87,0,0,1,.49-.25m.91.43a.31.31,0,0,1-.11.32c0-.3-.1-.27-.13-.45.13,0,.22,0,.24.13M21.72,6c-.08.08-.1.19-.1.43a.38.38,0,0,1-.19.35c-.08,0-.11,0-.08-.11l.13-.24a.56.56,0,0,0,0-.38c0-.25.1-.29.24,0M21.4,7s-.1,0-.11,0,0-.08.06-.11.1,0,.11,0A.08.08,0,0,1,21.4,7m0,1a.4.4,0,0,1,0,.51c-.08-.06-.17,0-.24-.13s-.06,0,0-.27a.41.41,0,0,0,0-.27c0-.16,0-.18.21-.1s.14.19.08.25m-1.1-.6s-.08.06-.1,0,0-.07,0-.11.06-.06.1,0,0,.06,0,.1m.54-.46c0,.19.1.33,0,.53s-.41.14-.41,0a.5.5,0,0,1,.4-.51m.08-.2c0-.26-.14-.4-.28-.45l-.16,0v-.1a1.14,1.14,0,0,1,.33,0c.21.06.3.18.32.32a.35.35,0,0,1-.21.26m.26.09s-.1,0-.11,0,0-.06,0-.11.1,0,.11,0,0,.08,0,.11m-.14.41c-.08-.13,0-.18.09-.08a.41.41,0,0,1,.16.3c0,.11-.11.21-.19.11s0-.19-.06-.33m-.68.62a.36.36,0,0,1,.4-.18c.14,0,.22,0,.22.18a1.89,1.89,0,0,1,0,.43c0,.13-.06.11-.22.13s-.24-.08-.43,0c.11-.27,0-.38,0-.59m-.48.48s0-.08.1-.1.14,0,.16,0,0,.08-.1.11-.14,0-.16,0m-1.84,4c.17.44.14.57-.13,1a1.71,1.71,0,0,0,.13-1m1.13,4c0,.06,0,.13-.08.13s-.06-.07-.06-.13,0-.11.06-.11.08,0,.08.11m.18,0c0,.1,0,.17-.07.17s0-.08,0-.17,0-.19,0-.19.07.08.07.19m.41-1.62c0-.29,0-.56,0-.83l-.16,0a6.32,6.32,0,0,1-.08.86c0-.3,0-.59,0-.87l-.14,0a6.3,6.3,0,0,1-.13.79c0-.29,0-.54,0-.83l-.14,0c0,.32,0,.6-.06.94a4.39,4.39,0,0,1,0-1,.33.33,0,0,1-.13-.06,3.69,3.69,0,0,0-.08,1.1,1.94,1.94,0,0,1,0-1.13l-.1-.06a2.65,2.65,0,0,1-.22.43,3.33,3.33,0,0,0,.16-.46l-.16-.1a2.18,2.18,0,0,1-.29.7,4.3,4.3,0,0,0,.24-1.59,3.12,3.12,0,0,1,.08.6l.18.08a7,7,0,0,0,0-.83,2,2,0,0,1,.07.84.51.51,0,0,0,.14,0l.08-.13,0,.14.11,0c0-.1,0-.21.1-.33,0,.13,0,.24,0,.37l.13,0c0-.08,0-.17,0-.27a2,2,0,0,1,0,.29l.16,0V13c0,.14.06.25.08.36a.77.77,0,0,0,.19,0,3.36,3.36,0,0,1,0-.38c0,.14,0,.27.08.38H20v-.57a3.2,3.2,0,0,1,.11.56l.14,0c0-.13,0-.27,0-.41a1.45,1.45,0,0,1,.13.4l.1,0c0-.14,0-.29-.06-.44a3.32,3.32,0,0,1,.14.41.18.18,0,0,0,.1,0c0-.22,0-.46-.1-.73a2.53,2.53,0,0,1,0,2.24,3.43,3.43,0,0,0,.1-1l-.08,0a2.46,2.46,0,0,1-.16.64,2,2,0,0,0,.07-.62.25.25,0,0,1-.1,0,2.92,2.92,0,0,1-.13.51,2.7,2.7,0,0,0,0-.49h-.14c0,.21,0,.43-.1.72,0-.24,0-.48,0-.7h-.16a5.6,5.6,0,0,1-.08.81m-.17,1.83c-.06,0-.13,0-.13,0s.06-.06.13-.06.14,0,.14.06-.06,0-.14,0m.16.16a.07.07,0,0,1,.07.06.07.07,0,0,1-.07.08s0,0,0-.08,0-.06,0-.06m.62.27c0-.1-.14-.14-.36-.14s-.1-.13,0-.14h.59c.19,0,.22.1.09.27.06.32-.33.53-.32,0m.32-7.26s0,0,0,0,0,0,0,0a0,0,0,0,1,0,0,0,0,0,0,1,0,0m-.19-.7s-.06.1-.14.08-.14,0-.13-.1.06-.1.14-.08.14,0,.13.1m.49.06a5.22,5.22,0,0,1-.1.67c0,.06-.07,0-.1,0s0-.38.08-.63ZM20.9,9s0-.06,0-.11.11-.13.11,0A.49.49,0,0,1,21,9Zm.59.22s-.06.08-.13.06-.13,0-.13-.1.06-.06.13-.06.13,0,.13.1m.1-.32L21.07,9l0-.32c-.14,0-.24,0-.29.11l0,.11a.68.68,0,0,1-.17-.14c-.06-.06-.17,0-.4,0l-.14,0,.1.14a.66.66,0,0,0-.17.22.41.41,0,0,1,.19,0,.54.54,0,0,0,.49,0v.43l-.09,0c-.08,0-.1.13,0,.16l.27.13c.11,0,.16-.1.16-.19l.06-.49.22.1a.44.44,0,0,0,.24,0v.38l-.08.11a.23.23,0,0,1-.13.24c0,.14,0,.24-.06.25a2.6,2.6,0,0,1-.4.44.47.47,0,0,1-.3,0,1,1,0,0,1-.3-.25l-.09,0,0-.13-.1,0,0-.13-.13,0L20,10,19.94,10,20,9.76l-.1,0L20,9.57h-.18l.13-.1-.14,0a1.09,1.09,0,0,1,.21-.86,2.45,2.45,0,0,1,.84-.11.91.91,0,0,1,.68.32Zm1,1.57a1,1,0,0,1,.67-.25.76.76,0,0,0,.29,0c.13.08.08.14-.06.17a.17.17,0,0,0-.19,0c-.14,0-.16.13-.26.16L23,10.43c-.19.13-.32.48-.46.65l0-.17c-.1,0-.16.22-.3.33,0-.13,0-.19-.06-.19-.24.16-.41.24-.48.18s.41-.4,1-.76m2.94-.21c.29,0,.27.25,0,.24a2.85,2.85,0,0,0-1.64.22,4.06,4.06,0,0,1,1.51-.06c.08,0,.06,0,0,.08a.29.29,0,0,1-.21,0l-.44,0a1.67,1.67,0,0,0-1.45.54h.11a.31.31,0,0,1-.16.18c-.08,0-.08.13-.11.18a1.12,1.12,0,0,0-.14.27l.13,0c-.21.27-.35.44-.38.37A2.27,2.27,0,0,1,23.22,11a2.41,2.41,0,0,1,2.3-.76m1,.24,0,0a1.5,1.5,0,0,0,.16.92,5.05,5.05,0,0,0-.06-.65v-.24l.13,0c0,.32.13.62.27.65a1.11,1.11,0,0,1-.13-.59l.17,0c0,.33.11.7.27.71a.94.94,0,0,1-.13-.65h0a.75.75,0,0,0,.14.32c.07-.08,0-.24,0-.41a.57.57,0,0,1,.6.06c.08.1,0,.14-.06.14h-.11L28,11s.06.06-.08.08l-.1.08.33,0c.11,0,.1.08.06.13l-.08.1a2,2,0,0,1,1,.26c0,.13-.16.11-.43,0,.07.16.32.17.3.27s-.41,0-.59.24l.43,0c.1.06.06.11-.08.11.22.27.4.35.46.16s.13-.14.19,0c.27.16.32.17.16.2l-.26,0,.3,0a.08.08,0,0,1,0,.15c-.21,0-.22.06.16.08.16.08.22.16.16.22-.33,0-.32.06.08.1.1,0,.13.11.11.16-.21,0-.18.09.08.09,0,0,.06.08,0,.13-.24.06-.21.1.09.1,0,.11.19.1.25.24.26,0,.37.13.14.13l0,0c.37,0,.52.11.48.33s-.52-.19-.32.57l.08.08c.14,0,0-.35.22-.32,0,0,.06.13,0,.32s-.16.25-.33.14-.26-.22-.24-.35l0-.24c-.18,0-.21-.1-.22-.27s-.06,0,0-.06c-.29,0-.41,0-.49.26s-.08,0-.11-.06-.1,0-.16,0,0-.11-.08-.1,0,0-.1,0,0-.13-.13,0-.08.06-.1,0,.08-.24-.1,0c-.07,0-.08,0-.11,0-.1-.27-.16-.29-.19,0s-.1.11-.1,0c-.09-.41-.11-.41-.08,0,0,.18-.06.16-.16,0s-.16,0-.24-.13,0-.46-.22-.54l.11.56c0,.08-.13.1-.14,0-.06-.37-.3-1-.25-.8l.14.76c0,.06-.16,0-.19-.06l-.19-1c0-.27,0,.51.06.84,0,0-.13,0-.11,0a4.19,4.19,0,0,0-.19-.94c-.11.11.19,1,0,.87,0,0-.11-.92-.14-.94s0,.88,0,.86c-.25-.32,0-1.18-.16-1.22s-.11,1.05-.14,1c.11.81.76.84.72,1.08L27,14.34c.13.24.32.49.45.76-.14,0,0,.24.11.33-.14,0-.11.08.16.33.06,0,.08.1.06.14-.33-.08-.36-.08.17.35-.33,0-.35,0,0,.24a.41.41,0,0,1,.16.24c0,.06,0,0-.08,0l-.19-.11c-.1,0,0,.11.41.44.11.1.16.18.08.21-.54-.33-.51-.25.08.25.14.22.16.32.11.35-.48-.4-.79-.65,0,.17.14.14.18.24.06.25-.83-.62-.38-.21.17.37,0,0,0,.08,0,.06-.8-.59-.83-.44,0,.43,0,.08.08.14,0,.21s-.08,0-.11,0c-.57-.54-.52-.43.13.46.1.15.14.27,0,.19-.72-.81-.94-1,0,.25.1.16.11.24,0,.19-.65-.89-.67-.78,0,.17,0,.11,0,.13,0,.11-.59-.72-.76-.89,0,.16.09.19.08.22,0,.13-.71-.89-.73-.78,0,.14.06.11.1.18,0,.13-.83-.94-.83-.91,0,.11,0,.25,0,.24-.14.11s-.08-.17-.16-.26c-.51-.62-.57-.57,0,.22-.07.06-.14.06-.24,0-.52-.68-.57-.68-.16,0l-.29,0a.72.72,0,0,0-.16-.21c-.49-.48-.67-.52-.18.1,0,0,0,0,0,0l-.56-.1a.27.27,0,0,1-.21-.11,3.55,3.55,0,0,0-.78-1c0,.14.33.4.57.8.06.25-.22.14-.32.1-.17-.24-.24-.27-.49-.57-.72-.84-1.48-1.8-2.1-2.46a2.69,2.69,0,0,0,0-.35,12.7,12.7,0,0,0,2.05,2.38,22.93,22.93,0,0,0-1.7-2c-.13-.22-.24-.43-.32-.61s0-.17,0-.29a8.13,8.13,0,0,0,2.07,2.51c-.11-.29-1.1-1.08-1.62-1.92a5.8,5.8,0,0,1-.41-.83V16.8a8.54,8.54,0,0,0,2.07,2.51c-.1-.29-1.11-1.11-1.61-1.92a7,7,0,0,1-.43-.84v-.16a10.11,10.11,0,0,0,2.18,2.67c-.1-.27-1.24-1.27-1.72-2.05a6,6,0,0,1-.43-.87v-.22a8,8,0,0,0,2.11,2.64c-.1-.27-1.19-1.18-1.64-1.92a5.09,5.09,0,0,1-.45-.92,1.14,1.14,0,0,1,0-.24,6.42,6.42,0,0,0,2,2.54c-.1-.24-1.11-1.06-1.53-1.76a7.85,7.85,0,0,1-.49-1,1.54,1.54,0,0,1,0-.27,5.9,5.9,0,0,0,1.94,2.53c-.07-.24-1-1-1.43-1.65a6.33,6.33,0,0,1-.49-1.07v0c0-.1,0-.21,0-.3a5.36,5.36,0,0,0,1.84,2.62c-.06-.21-.94-1-1.3-1.57a11.23,11.23,0,0,1-.54-1.13c.27-2.29,1.24-3.64,2.65-3.88m0-.22c-.05,0-.13-.16-.07-.21s.16,0,.18.14,0,.13-.11.06m-.59-.67a2.75,2.75,0,0,1,1.19.38c.16.11,0,.22-.08.14l-.33-.17c0,.14-.11.08-.3-.08-.13.13-.29.06-.46-.13l.11.32c0,.06,0,.06-.08,0l-.2-.27c-.11-.14,0-.22.16-.21m1.54.51c.43,0,.76-.26,1.26,0l.22.25c.14.33,0,.49-.17.25s0-.27-.26-.38a1.56,1.56,0,0,1,.22.75c.37.35,0,.43-.06.21l-.14-.65c0,.32,0,.56,0,.56s0-.22-.1-.49c0-.11-.06-.32-.13-.33a1.6,1.6,0,0,0-.73,0c.35,0,.59,0,.67.1a.56.56,0,0,1,.08.49c-.08.13-.13.09-.13-.06l0-.21c0-.11-.14-.13-.32-.11a.49.49,0,0,1-.37,0s-.16-.08,0-.11c-.16-.1-.1-.22,0-.24m3,5.31c.06.06-.16.13-.37-.06s-.13-.43,0-.25Zm-1.26,6.31a0,0,0,0,1,0,.06l-.06,0a0,0,0,0,1-.06,0l-.25-.3a0,0,0,0,1,0-.06l.06,0a0,0,0,0,1,.07,0Zm0,.76s-.1,0-.14-.13,0-.16,0-.18.1,0,.14.11,0,.18,0,.19m0,.76A7.78,7.78,0,0,0,28.46,22c-.11-.16,0-.24.17,0a10.27,10.27,0,0,1,.67,1.21c.08.19,0,.24-.11.06m.3-1.84c.11,0,.25.11.29.29a.31.31,0,0,1-.14.38c-.13,0-.26-.1-.3-.29s0-.35.16-.38m.11-2c0-.21.14-.21.14,0a9.29,9.29,0,0,1-.1,1.62c0,.08-.14.22-.14,0,0-.67.1-1.21.1-1.7M30.1,24c0,.24-.19.25-.21,0a13.54,13.54,0,0,0-.19-1.54c-.06-.3,0-.35.14-.06A3.8,3.8,0,0,1,30.1,24m.33-.16s0,0,0,.07,0,.06,0,.06,0,0,0-.06,0-.07,0-.07m.1-1.49s.09,0,.14.13,0,.16,0,.17-.1,0-.13-.11,0-.17,0-.19m-2.27-.43a10.83,10.83,0,0,1,.94,1.54c.14.32,0,.4-.14.11A10.35,10.35,0,0,0,28,21.87c-.08-.13.13-.21.29,0m-2.81-1.16c-.67-.78-1.4-1.68-2-2.34l0-.25c.48.6,1.41,1.73,2,2.4.29.35.27.33.43.51,0,.08-.06,0-.17,0a2.94,2.94,0,0,1-.27-.33m-.67-.3c-.62-.73-.83-1-1.4-1.65,0-.09,0-.19.06-.3.51.64,1.35,1.66,1.86,2.27.16.21,0,.11.16.24s-.14.11-.22,0-.4-.41-.46-.51m-1.5-1.32a1.43,1.43,0,0,0,.07-.24c.52.64.79.94,1.26,1.51.06.08.45.54.51.6a.22.22,0,0,1-.22,0c-.57-.68-1.07-1.24-1.61-1.86m-.11.4a.15.15,0,0,1,0-.08c0-.06,0-.13.08-.21.48.59,1,1.18,1.41,1.72,0,0-.14,0-.27,0-.43-.53-.83-.94-1.24-1.42m-.08-.36c-.07,0-.08-.13,0-.22s.11-.19.17-.18.06.13,0,.24-.11.18-.16.16m0,.87a1.81,1.81,0,0,1,0-.41c.37.46.7.81,1.07,1.27,0,0-.11,0-.21,0-.3-.32-.56-.53-.89-.86m.38.86c-.24,0-.29,0-.3-.27.11.11.21.16.3.27m-.32-.41c0-.1,0-.21,0-.3.27.27.51.43.76.7a.22.22,0,0,1-.24,0c-.16-.18-.32-.27-.48-.43m-1.83-1.18a4.24,4.24,0,0,1,1.21-1.37,3,3,0,0,0,.83-1.38c.1-.24.24-.13.11.25a3.08,3.08,0,0,1-1.06,1.41,5.81,5.81,0,0,0-1,1.18c-.1.14-.18.08-.08-.1m.36-7.77a.14.14,0,0,1,0-.14c.07,0,.11-.07.14,0s0,.08,0,.14a.14.14,0,0,1-.14,0m.11,1.22c.06.13.09.22.06.24s-.1-.06-.18-.18-.1-.22-.07-.24.1.06.18.18m0,2.35a.11.11,0,0,1,.13,0,.14.14,0,0,1-.16.19.14.14,0,0,1,0-.14m1.33-.53c-.27.36-.45.49-.54.35a4.33,4.33,0,0,1-.59.56l-.14.4c-.06.1-.08.13-.1,0,0-.35.11-.51.26-.61a.31.31,0,0,1,.13-.29c.35-.16.59-.49.89-.59.1-.24.29-.36.54-.7q.26-.26.14.14a1.08,1.08,0,0,1-.59.73m-.91,2.67a1.93,1.93,0,0,0,.84-.64c.25-.16.21,0,.13.16a.73.73,0,0,1-.32.3,3.16,3.16,0,0,1-.7.4,1.68,1.68,0,0,0-.76.54c-.14.11-.21.06-.16-.16s.48-.45,1-.6m0-1.53a1.56,1.56,0,0,0-.19.78c0,.32-.4.25-.25-.11s.19-.59.33-.71.22-.16.11,0m.62.7a1,1,0,0,1-.65.7c-.33.13-.43,0-.21-.18a1.73,1.73,0,0,0,.61-.52c.22-.32.32-.33.25,0m-.35-.1c-.06.06-.18.06-.11,0l.3-.61-.38.53c-.11.14-.13,0-.08-.08l.25-.62c.06-.22.17-.35.32-.37l.35-.33c.08-.09.13,0,.08.11l-.26.41a1.82,1.82,0,0,1-.48,1m1-1.16c0,.11,0,.24-.13.27a1.62,1.62,0,0,1-.21.89c-.19.24-.26.21-.19-.11l.11-.57a1.06,1.06,0,0,1,.24-.61l.17-.48c0-.19.13-.18.13.06l-.11.3c.1,0,0,.14,0,.24M23,13.43a5.56,5.56,0,0,1,1-1.24c.32-.22.38-.18.21.18A6.37,6.37,0,0,1,22.93,14a.58.58,0,0,0-.44.3l.29-.14c.14,0,.16,0,.06.13s-.64.75-.73.35c-.16.3-.43.25-.45.56l0,.4c-.06.11-.11.11-.18,0a1.11,1.11,0,0,1,.35-1.1c.73-.44,1-1.1,1.22-1.08m-.94-.67c0,.1.07.17,0,.19s-.08,0-.13-.14-.08-.19-.06-.19.08,0,.14.14m0-.46c-.06-.13-.08-.24,0-.24s.16.1.24.24Zm.25.06a.67.67,0,0,1,.06.19h-.18l-.1-.16s0,0,0,0Zm.11-.87c-.19.06-.14-.13,0,0l.19-.25a2.85,2.85,0,0,1,.59-.57c.18,0,.21,0,.08.14l-.22.11a.53.53,0,0,1-.21.43c-.08,0,0-.27-.13,0Zm-.16,1.14h.14s0,.08,0,.08-.06,0-.11-.08m2.1-.73c-.16,0-.38.14-.75.6-.1.13-.21,0-.08-.14a2,2,0,0,1,.75-.57c.3-.13.29.11.08.11m-.81-.79a1.75,1.75,0,0,1,1.21-.29c.29,0,.29.21.13.19a2.19,2.19,0,0,0-1.3.16c-.16.08-.13,0,0-.06m-.33.62s-.06,0,0-.13a2,2,0,0,1,1.7-.54c.19,0,.16.21,0,.19a1.4,1.4,0,0,0-.45.08,1.92,1.92,0,0,0-.52.16,2.45,2.45,0,0,0-.86.86c-.1,0-.11,0-.06-.1a1.5,1.5,0,0,1,1.1-.9l0,0c-.22,0-.49,0-.89.41m-.21.83a2.31,2.31,0,0,1,1.26-1.11c.14,0,.21.06.1.19a2.68,2.68,0,0,0-1,.8.33.33,0,0,1-.19.37c0,.24-.14.35-.38.38l-.35.45c.08.11,0,.29-.3.54s-.22.13-.19-.16c.19-.52.56-1.29.73-1.29s.1,0,.13-.21.14-.09.11,0,0,.14.1,0m-2-1.68a.39.39,0,0,1,.17-.37c.1-.06.13,0,.08.11s-.18.11-.26.25m-.08,2a.47.47,0,0,1,.16.14.55.55,0,0,0-.06-.38.49.49,0,0,1,.27.43.57.57,0,0,0,0-.45c.14,0,.24.18.37.38l0,.32a.24.24,0,0,1,0,.24c-.06-.08-.12-.11-.21-.06v.26c0-.11-.11-.13-.18,0l-.22.21L21,13.76l0-.64.1-.06Zm.08,6a1.69,1.69,0,0,1,.59-.94c.33-.25.7-.37,1.13-.65.13-.08.16,0,.08.14a1,1,0,0,1-.62.33,1.46,1.46,0,0,0-.83.76l.7-.51c.16,0,.19,0,.1.13-.75.38-.65.86-1,1-.06-.08,0-.19,0-.33Zm1,.51c0,.1,0,.16,0,.16s0-.06,0-.16,0-.16,0-.16,0,.08,0,.16m.67-1-.54.48a2.94,2.94,0,0,0-.68.86c-.19.08-.21,0-.1-.11a3.76,3.76,0,0,1,.33-.4c.08-.13.08-.24.17-.33a3.43,3.43,0,0,1,.75-.76A2.26,2.26,0,0,0,23.49,17l0,.1c-.08.75-.32,1.19-.73,1.29m-.08.73a5.71,5.71,0,0,0-.38.68c0,.1-.19.21-.16,0a1.08,1.08,0,0,1,.45-.75c.22-.16.27-.11.1.11M22.42,19c-.14.14-.18.13-.1-.06a.91.91,0,0,1,.51-.43c.19,0,.13.07.06.11a3.39,3.39,0,0,0-.48.38m9.24,5.21a.4.4,0,0,1,.36.21,1.49,1.49,0,0,0,.33.37c-.37-.57-.38-.81-.06-.6a.85.85,0,0,1,.4.89c.08.22,0,.27-.36,0-.16-.1-.18-.14,0-.22l-.49-.38c.43.67.11.49-.21,0,.24.52.06.33-.26.08h-.08c.56.44.09.33-.27.06l-.06,0c1,.69,0,.32-.48,0,.3.27.65.46.57.48a2.37,2.37,0,0,1-1.11-.33c.38.24.71.38.51.44S30,25.22,29.37,25c-.16,0-.21,0-.14,0,.56.21.87.38.81.46s-.52-.09-1.13-.4c-.17-.08-.38-.16-.59-.27.35.37,1.73.86,1.45,1-.11,0-.35,0-.65-.21A13.57,13.57,0,0,1,28,24.88c-.33-.27-.64-.54-.87-.75l0,.08c.83.9,2.42,1.72,1.92,1.68-.19,0-.13,0-.29-.06A7,7,0,0,1,26.3,23.6l0,0c.68,1.07,2,1.94,1.83,2.05s-.92-.56-1.43-1.11a8.78,8.78,0,0,1-.83-1.08l0,.13c1.07,1.8,2.45,2.13,2.16,2.35-.08.06-.13,0-.21-.06a8.19,8.19,0,0,1-2.29-2.46l0,.06a21.86,21.86,0,0,0,1.8,2.24c.08.1,0,.19-.07.14a9,9,0,0,1-2-2.48l0,.06C25.76,24.6,27,26,26.66,25.86A5.19,5.19,0,0,1,26,25c-.21-.3-.46-.67-.65-.91l0,.11a9.51,9.51,0,0,1,1,1.48l0,0-1-1.35-.06.06c.43.54,1,1.16.87,1.3l-.91-1c0,.32.35.59.26.67a2.86,2.86,0,0,1-.46-.68c-.06-.11,0,.17-.08.08a17.12,17.12,0,0,1-1.76-2.42c-.1-.16-.06-.18.11-.07l1.27,1.33c-.81-.89-1.37-1.59-1.24-1.7a13.54,13.54,0,0,0,1.4,1.48c-1-1.16-1.46-1.72-1.33-1.7a13.56,13.56,0,0,1,1.43,1.49c-.72-1-1.61-1.8-1.61-2s.19-.08.26,0a18.16,18.16,0,0,0,1.49,1.7c-.4-.62-1.43-1.6-1.38-1.7s.16-.08.32,0A7.89,7.89,0,0,0,25,22.65c-.35-.49-1.16-1.32-1.08-1.43a.15.15,0,0,1,.21,0c.16.25.35.44.56.73a5.37,5.37,0,0,0,.52.54l-1-1.25s.06,0,.1,0a.18.18,0,0,1,.14,0,6.53,6.53,0,0,0,.94,1.16l-.8-1.15c0-.1.29,0,.35,0l.68,1c-.29-.68-.7-1-.49-1s.35.21.52.45.24.27.32.38l-.44-.73c0-.07.16,0,.3,0l.3.33L26,21.46c0-.1.13,0,.21,0l.27.43,0,0c-.16-.27-.27-.4-.19-.43l.24,0,.22.25c-.07-.29.21-.22.65-.06a1.74,1.74,0,0,1,.81,1c-.06,0-.17-.11-.3-.27a2,2,0,0,0-.19-.21,6.19,6.19,0,0,1,.68,1.33c-.1.08-.45-.53-.84-1.22.21.56.48,1,.56,1.27,0,0-.19-.25-.4-.59-.06-.1-.14-.14-.21-.25l.51,1a.22.22,0,0,1,.1.3c-.1.17,0,.24.16.4a1.79,1.79,0,0,0,1.14.13,19.54,19.54,0,0,1,2.18-.26m-.52-2,.08.21.06-.14c.11-.06.13,0,.08.19l0,.68c-.06.1-.11.27-.17,0l.09-.62-.11.22c-.1,0-.11-.1-.13-.29s0-.3.13-.25m.6-.19c0-.14.11-.16.19-.08.29-.46.22-.21.1.14l.08,0c.35-.65.21-.13.18.16-.26.32-.43.38-.51.16l-.08.41c-.06.19-.11.22-.14.08a3.19,3.19,0,0,1,.19-.92m-3.88,8.22c.06.19.21.48-.21.08-.26-.13-.29,0-.08.4l.43.62a1.12,1.12,0,0,0,.37.73l.35.72a1.11,1.11,0,0,0,.1.32c0,.27.11.41.33.44a2.4,2.4,0,0,1-1,1.08c-.94.51-1.69.3-1.6-.94,0-.67.17-1.23.19-1.91.27-1.07,0-1.61-.9-1.67a2,2,0,0,0-1.11.21c-.25.17-.62.11-1.11-.17a4.44,4.44,0,0,0-2.15-1.1,1.18,1.18,0,0,1,.22,1.57c.38.18.36.35,0,.53a10.33,10.33,0,0,1-3-.46c-.35-.06-.41,0-.17.19.79.32,1.22.8,1.22,1.46a8.54,8.54,0,0,0-1.18.1.48.48,0,0,1-.68-.14c-.57-.59-.64-1.11,0-1.56A8.59,8.59,0,0,0,19.42,29c.44,0,.84-.13,1.29-.19a13.5,13.5,0,0,0,4.82-1.35.43.43,0,0,1,.56.16l1,1.38-.3.11.79.6c-.14.11,0,.19.13.25-.1.15,0,.29.11.27m.06-.59a.11.11,0,0,1,.1.11.1.1,0,0,1-.1.1.11.11,0,0,1-.11-.1.11.11,0,0,1,.11-.11m.08-1c.08-.08.18-.13.21-.1s0,.11-.1.21-.17.14-.21.11,0-.13.1-.22m.14.57s-.06.14-.06.41a.75.75,0,0,1-.06-.54c.11-.28.22-.37.32-.37.19.21-.13.33-.19.49m-.13,1c-.06,0-.08-.1,0-.18s.09-.13.14-.1.08.1,0,.18-.09.13-.14.1m.37.27a.25.25,0,0,1-.24.11.14.14,0,0,1,0-.21.23.23,0,0,1,.25-.11c.08,0,.1.11,0,.21m.14.32a.17.17,0,0,1-.21,0s0-.11.06-.14a.19.19,0,0,1,.21,0c0,.06,0,.13-.06.16m-.06-1.62c.14-.16.21,0,.36,0l-.19.1.21.06-.19.1.35.18-.22.06.28.17-.25.06c.25.08.41.14.4.22l-.27.06c.11,0,.34.06.35.16s-.17,0-.25,0l.24.16H29l.16.08c0,.14-.08.22-.17.24-.25,0,0-.19-.22-.41-.48-.65-.45-1.19-.35-1.33m1.27,1.65a.09.09,0,0,0,0-.14c-.08,0-.13,0-.18-.1s0-.29.19-.33.18,0,.14.13l-.08.07a.5.5,0,0,1,.29.18c-.08,0-.13,0-.14.08.27,0,.25.38,0,.3s-.24,0-.16.28.29.4.27.06c0-.16.51-.19.57.16l-.21-.08c0,.25.25.14.29.37l-.17,0a1.17,1.17,0,0,1,.44.52c-.22,0-.24-.27-.44-.27.27.36.59.29.75.65a1.5,1.5,0,0,1-.8-.48c.27.38.45.7.38.86-.4-.18-.48-.76-.64-.94,0,.3.22.48.14.81a1.49,1.49,0,0,1-.24-1c.16,0,.22-.08.22-.35s-.18-.27-.14,0-.14.27-.57,0c-.06.06,0,.14.27.29l0,.24L30,32l0,.67c0,.18-.06.14-.11,0l0-.33c0,.24,0,.35-.11.33L29.72,32l-.18.22,0-.35-.16.13v-.43c-.11.06-.24,0-.36-.17a.5.5,0,0,0,.43-.06c-.08-.32.06-.48.34-.51M28.6,35.79c0,.1-.1.16-.13.15s0-.1,0-.19.1-.16.13-.14,0,.09,0,.19m-.26,0c-.08.13-.16.24-.21.22s0-.14,0-.29.16-.24.21-.22,0,.14,0,.28m.1,2.42c.13,0,.11.19.11.3-.08-.08-.16-.18-.24-.08-.22-.18-.3-.08-.46,0a.43.43,0,0,1,.59-.19m-.64-2.68c0,.11-.11.19-.14.17s0-.11,0-.22.11-.21.14-.19,0,.11,0,.24m-.75,2.42c0,.08-.13.06-.3,0s-.19-.32.08-.46c.1.27.54.44.22.51m-.06.7a.09.09,0,0,1-.1-.08.09.09,0,0,1,.1-.1c.06,0,.11,0,.11.1s0,.08-.11.08m-.32,0s0,0-.06-.1,0-.1,0-.11,0,0,.06.1,0,.1,0,.11m-.14.11s-.08,0-.11-.13,0-.16,0-.16.08,0,.11.13,0,.16,0,.16m-.07-2.1c.08-.1.18-.14.21-.11s0,.13-.06.22-.16.14-.19.11,0-.13,0-.22m-.11-.27s0-.11,0-.19a.25.25,0,0,1,.06-.06s0,0,0,0-.14.11-.17.1,0-.11,0-.19a0,0,0,0,1,0,0s0,0,0-.06-.08,0-.11,0,0-.08,0-.15,0-.13,0-.16.14,0,.24.24,0,.13.05.17.13.1.16.14a.4.4,0,0,1,.08.33s0,0-.08-.14,0,0,0,0-.13.11-.14.08,0-.1,0-.16l.06-.06,0,0,0,0c-.07.08-.14.13-.18.09M26,30.53a.91.91,0,0,1,.54.59c0,.16,0,.24-.11.11a1.72,1.72,0,0,0-.43-.7m.4,1c0,.17-.08.29-.13.13a2.26,2.26,0,0,0-.4-.91.85.85,0,0,1,.52.78m-.26.46c-.16-.22-.21-.56-.4-.79a.92.92,0,0,1,.51.67c0,.18,0,.27-.11.13m-.08.35c-.13-.14-.19-.38-.35-.53.21.11.3.13.41.43,0,.11,0,.19-.06.1m-.1.44c0-.13-.16-.25-.19-.38s0-.06.1,0a.38.38,0,0,1,.1.38M23.8,30.55s.08,0,.16,0,.11.1.1.11-.08,0-.16,0-.11-.11-.09-.13m-1.37-1a3.44,3.44,0,0,1,1.22.78c.06.11,0,.14-.06.1a11.54,11.54,0,0,1-1.16-.87m1.3,3c0-.24,0-.46,0-.44s.13.24.1.46-.11.43-.16.41,0-.21,0-.43m-.38.06c0-.19.09-.33.13-.33s0,.16,0,.35-.08.33-.13.33,0-.16,0-.35m-.35,0c0-.19,0-.35.1-.35s.06.16,0,.37S23.09,33,23,33s0-.16,0-.35m-.25,0c0-.17,0-.32.06-.32s.06.14.06.32,0,.32-.06.32-.06-.14-.06-.32m.86,3.1a.75.75,0,0,1,.1.24l0,0,0-.29m1.89-.87a6.49,6.49,0,0,1-1,1.59s0,0,0,0l0,.06,0-.08,0-.24a.44.44,0,0,1,.08.18l.14-.24,0-.25.1.18c0-.06.08-.13.11-.19s0-.18-.08-.27a1.3,1.3,0,0,1,.11.19,1.73,1.73,0,0,0,.13-.24c0-.08,0-.16-.06-.24a1.52,1.52,0,0,1,.1.16,2.32,2.32,0,0,0,.1-.35l-1.64,1,.43-.35,0-.3a1.8,1.8,0,0,1,.11.25l.11-.1,0-.38a1.84,1.84,0,0,1,.13.32l.14-.11c0-.16,0-.33-.06-.51a1.57,1.57,0,0,1,.16.43.71.71,0,0,1,.13-.11c0-.22,0-.48-.08-.71a1.47,1.47,0,0,1,.19.6l.1-.08a7.09,7.09,0,0,0-.1-.78,1.83,1.83,0,0,1,.22.67s0,0,0,0a7.08,7.08,0,0,0-.1-.92,1.4,1.4,0,0,1,.21.79l.1-.1a4.62,4.62,0,0,0-.32-1.3c-.06.22-.06.3-.13.29,0-.25,0-.37,0-.4a1.14,1.14,0,0,1-.22.68l.06-.57h-.1c-.08.41-.1.54-.26.69a1.45,1.45,0,0,0,0-.49l-.11,0v0a.81.81,0,0,1-.17.62c0-.22.08-.43.08-.65l-.13,0V34a1.58,1.58,0,0,1-.13.35,1.5,1.5,0,0,0,0-.56l-.11,0v.06s0,.1,0,.1,0,0,0-.08,0,0,0-.06h-.08v0s0,.08,0,.1,0,0-.08-.1h-.08c0,.08,0,.11,0,.14s-.08,0-.1-.13L23,34c0,.06,0,.11,0,.11s0,0-.08-.1h-.13c0,.06,0,.1,0,.11s0,0-.08-.1,0,0,0-.08-.06-.19,0-.21.08,0,.13.16a.29.29,0,0,1,0,.11l.11,0s0,0,0-.06,0-.24,0-.25.08.08.11.21a.76.76,0,0,1,0,.08l.13,0a.7.7,0,0,1,0-.16c0-.06,0-.1,0-.1s.1.1.13.22l.08,0s0,0,0,0a.49.49,0,0,1,0-.19s0-.06,0-.08.1.11.13.22a.06.06,0,0,0,0,0l.08,0v-.25c0-.06,0-.1,0-.1s0,0,0,.08,0,.14,0,.22a.26.26,0,0,0,.1,0v-.13s0-.08,0-.08,0,.08.07.16l.13,0V33.4s0-.1,0-.1,0,0,0,.06a.45.45,0,0,1,0,.16s.06,0,.09,0,0-.19,0-.26,0-.11,0-.11,0,0,0,.08a1,1,0,0,1,0,.24.24.24,0,0,1,.1,0,7,7,0,0,0,.25-1.59l-.1-.17a3.47,3.47,0,0,1-.27,1.45,4,4,0,0,0,0-1.62h0A3.7,3.7,0,0,1,24,33a3.75,3.75,0,0,0-.16-1.7.22.22,0,0,0-.1,0,.88.88,0,0,1,0,.72c-.1-.3,0-.4-.29-.61h-.08a.72.72,0,0,1,.13.59,1.86,1.86,0,0,0-.33-.51h-.14c.21.24.21.29.17.48-.08-.21-.4-.35-.52-.44h-.14c.16.08.38.37.3.46-.11-.13-.35-.25-.45-.43-.06,0,0,0-.1,0a1.44,1.44,0,0,1,0,.27.6.6,0,0,1-.4-.24s-.1,0-.1,0,.08.16.1.21-.37-.22-.4-.27.06,0-.13,0c0,0,.13.3.14.35s-.27-.3-.3-.33l-.22,0-.14-.24a9.84,9.84,0,0,0,2.46-.16l.89-.17c.3-.1.51.06.57.53l0,.51A1,1,0,0,1,25,33a1.6,1.6,0,0,0,.56.86c.26.24.29.57,0,1m-2.08-.63c0-.13.06-.18.11-.18s0,.06,0,.21,0,.27-.11.25-.08-.14,0-.29m-.16-.06s0-.08,0-.08,0,0,0,.08Zm0,.43c-.06,0-.06-.14,0-.29h.1c0,.18,0,.3-.07.29m-.19,0c-.1,0-.08-.11,0-.21s0-.14.08-.14,0,0,0,.16,0,.19-.08.19m-.21,0c-.06,0,0-.1,0-.17h.1c0,.1,0,.17-.06.17M22.55,33s-.06-.11-.06-.27,0-.27.06-.27.06.13.06.27,0,.27-.06.27m-.06,1.16c-.06,0,0,0-.08-.13a.32.32,0,0,1,0-.21s.08.08.11.17,0,.14,0,.16M22.28,33s-.08-.14-.08-.32,0-.32.08-.32.08.14.08.32,0,.32-.08.32m-.08,1.07c0-.08,0-.16,0-.16s0,0,.08.11a.46.46,0,0,1,0,.16s-.07,0-.08-.11M22.09,33s-.1-.09-.13-.24,0-.27,0-.27.09.09.14.24,0,.27,0,.27m-.25,0c-.11,0-.08,0-.11-.19s0-.29,0-.29.13.14.14.27,0,.19,0,.21m-.3,0s-.1-.11-.11-.24,0-.26,0-.26.1.1.13.22,0,.25,0,.27m-.26-.06s-.08-.06-.13-.19,0-.22,0-.24a.45.45,0,0,1,.13.21c0,.11,0,.22,0,.22m-.35,0c-.06,0,0,0-.06-.14s0-.21,0-.21.1.1.11.21,0,.14,0,.14m-.22-1.48-.11-.19.13,0,.13.21a.47.47,0,0,1-.14,0m0,1.46s-.06,0-.09-.13,0-.16,0-.16.06,0,.08.13,0,.14,0,.16m-.33-1.56c0-.06-.13,0-.21-.08s0,0-.19-.08l.43,0,.1.16,0,0s.14.51-.11,0m0,1.57a.25.25,0,0,1-.1-.16c0-.08,0-.13,0-.13a.31.31,0,0,1,.1.18c0,.08,0,.13,0,.11m-.3,5.15c.1,0,.19,0,.21,0s0,.11-.14.14-.19,0-.21,0,0-.11.14-.14m.49.16s-.06.14-.19.19-.25,0-.27,0,.06-.13.19-.19.25,0,.27,0m-.81-.33s0-.08.11-.11a.17.17,0,0,1,.16,0s0,.09-.11.11-.14,0-.16,0m-.27-5.06a2.74,2.74,0,0,0-1,1.45c-.17-.24.19-.84.76-1.59a5.37,5.37,0,0,0-1,1,3.23,3.23,0,0,1,.56-1,2.55,2.55,0,0,0-1,2.42,2.45,2.45,0,0,1,.41-2.21l-.68.72.62-1-.38.13,0-.14-.24.11v-.16l-.32.26.06-.27c-.11-.06-.19,0-.29.16-.1-.32.25-.43.62-.27a1.87,1.87,0,0,0,1.1.06,2.11,2.11,0,0,1,.7,0c.24.13.22.24,0,.29m-.43.8c0,.08-.11.13-.13.11s0-.1,0-.16a.22.22,0,0,1,.13-.11s0,.1,0,.16m-.14.4c0,.1-.09.16-.13.14s0-.09,0-.17.1-.16.13-.14a.23.23,0,0,1,0,.18m-.22,3.47-.35-.3c-.1-.19,0-.33.16-.46a.47.47,0,0,0,.14.32.28.28,0,0,1,0,.44M18.65,39c-.08,0-.16,0-.16,0s0-.06.13-.06.16,0,.16.06,0,0-.13,0m-.32-.16s.06-.06.16-.08.19,0,.21,0,0,.06-.14.1-.21,0-.22,0m-.25-.09s.06-.1.22-.13.29,0,.32,0-.08.1-.22.13-.29,0-.32,0m.08-3.85c0-.11,0-.19.06-.19s.06.08.06.19,0,.21-.06.21-.06-.09-.06-.21m0,3.59c.13,0,.27,0,.29,0s-.06.08-.19.13a.43.43,0,0,1-.29,0s.07-.08.19-.11m-.33-.33s0-.06.13-.06.16,0,.16.06,0,0-.13,0-.16,0-.16,0m-.41-3.54a1,1,0,0,0,.22.51c0,.11,0,.17-.08.13a.82.82,0,0,1-.14-.64m.16,2.19a.32.32,0,0,1-.13-.32c0-.06.11-.06.13,0a.32.32,0,0,0,.1.19c.06,0,0,.18-.1.11m-.37-.08a.34.34,0,0,1,0-.4c.06-.08.14,0,.13.06a.35.35,0,0,0,0,.27c0,.08-.06.21-.17.06M17,30.22c-.06-.06,0-.13.08-.09l.19.17s-.06.13-.11.1Zm1.1-1c-.07-.06,0-.16.08-.11l.26.22c.06.06,0,.18-.1.13Zm-.27.1c-.08-.08,0-.19.1-.13l.3.25c.08.08,0,.19-.11.14Zm-.21.16c-.1-.09,0-.22.11-.14l.35.3c.1.08,0,.22-.13.16Zm-.3.26c-.06-.08.08-.19.16-.14l.29.29c.08.08-.11.21-.16.14Zm0,.54-.16-.16s0-.11.08-.08l.16.16s0,.11-.08.08m-.06-.3c-.06-.06,0-.14.09-.1l.19.19s-.08.13-.11.08ZM17,26.78c0-.11.14-.17.34-.19l2.13-.32c.11,0,.13,0,.11.19a1.54,1.54,0,0,1-.16.56c-.08.06-.1-.21-.08-.62-.16.38-.1.78-.35.84-.11-.17.06-.51.1-.76-.24.22-.16.49-.36.78-.08,0-.07-.26,0-.68a2.1,2.1,0,0,1-.32.68,1.25,1.25,0,0,1,0-.59,1.46,1.46,0,0,1-.3.75,2.4,2.4,0,0,1,0-.68l0,0a1.71,1.71,0,0,1-.22.75.9.9,0,0,1,0-.73h-.1c-.06.21-.1.38-.19.44s-.19-.16-.19-.4a1.47,1.47,0,0,1-.45.83,2,2,0,0,1,.11-.79m.62-4.85a.17.17,0,0,1,.19.13l-.19.11.24.07,0,.06-.33.08.14.11-.11.09.22,0,0,.1-.24.1c.17,0,.25.06.21.11l-.21.13.17.06-.22.1.19.13-.24.08a.34.34,0,0,1,.24.18l-.26.11c.14.06.18.1.18.18l-.24.1.19.14-.19.06c.16.07.18.14.19.21l-.22.06c.17.06.25.11.22.18l-.27.13.26,0v.07l-.26.08c.19.08.26.14.26.21l-.24.14.26,0-.24.18c.14,0,.22,0,.22.1l-.22.11c.18,0,.37.06.54.11l.06.08,0-.08a.41.41,0,0,1,.33,0l.11.16.08-.19.11.21.1-.25.13.35.1-.36L19,26l.1-.33.08.27.08-.32.14.3.11-.38.14.32.1-.25.13.22.08-.27.1.19c.08.16-.1.3-.27.33l-2.37.38c-.14,0-.29-.1-.35-.42a5.27,5.27,0,0,1,0-1.73,6.86,6.86,0,0,1,.56-2.34M20,20.33c-.13.09-.26.17-.27.14s.06-.14.19-.24.25-.18.27-.16-.06.14-.19.26m.64,2.59.1-.48c.11-.07.16,0,.14.1l-.21.4Zm-.17-.51c.06-.13.19-.1.14,0a11.9,11.9,0,0,0-.27,2.21l-.06-.14c.08-.83.08-1.3.19-2.1m-.35,2.42h0a8.71,8.71,0,0,1,.16-2.45c0-.06.13,0,.11,0a14.75,14.75,0,0,0-.22,2.42m-1.27-4.07a.09.09,0,0,1-.09-.09c0-.06,0-.11.09-.11a.11.11,0,0,1,.1.11.1.1,0,0,1-.1.09m.19-.21a.07.07,0,0,1,.06-.08.08.08,0,0,1,.08.08.09.09,0,0,1-.08.1s-.06,0-.06-.1m.13.17c.21-.14.41-.24.45-.19s-.11.21-.33.37-.41.22-.46.18.13-.21.35-.35M18.3,22l0,.11a6.6,6.6,0,0,0-.14,3.26,5.9,5.9,0,0,1,.27-3.12v.16a6.47,6.47,0,0,0,0,2.86l.07,0a9.22,9.22,0,0,1,.13-3.08l.11,0a8.34,8.34,0,0,0-.06,3.05l.06-.06a8.61,8.61,0,0,1,.08-2.93l.1,0a8.74,8.74,0,0,0,0,2.94l.06,0a8.81,8.81,0,0,1,.11-3l.06.06a11.4,11.4,0,0,0,0,2.84l.06,0a13.23,13.23,0,0,1,0-2.72l.08-.1a10.53,10.53,0,0,0,0,2.83h.06a11.56,11.56,0,0,1,0-2.94l.06,0a19.89,19.89,0,0,0,0,2.91l.06,0a10.9,10.9,0,0,1,.13-2.86c.13,0,.13.11,0,.29a11.53,11.53,0,0,0,0,2.56h.1A9.89,9.89,0,0,1,20,22.32c.08-.08.16,0,.06.21A10.91,10.91,0,0,0,20,25.14h.11c.13,0,.14.1,0,.14a17,17,0,0,1-2.24.35c-.14,0-.19-.06-.19-.27a9.64,9.64,0,0,1,.35-3.1l0,0a9.42,9.42,0,0,0-.14,3.18A7.23,7.23,0,0,1,18.3,22m1.81,4.42.25.25c.14.13,0,.24-.08.18L20,26.7c-.17-.11,0-.33.14-.24m-.19.29.48.35c.14.11,0,.3-.11.22L19.78,27c-.18-.11,0-.37.14-.25m2.23-4.43-1,1c.11-.11.22-.16.32-.25.41-.37.68-.64.6-.43a1.47,1.47,0,0,1-.62.67l-.4.43,0,.09c.43-.44.65-.57.7-.46l-.76.91.84-.65a3.59,3.59,0,0,1-1,1v.08c.46-.38.81-.62.84-.51a3.14,3.14,0,0,1-.71.8l.43-.21c0,.17-.06.3-.25.4s-.37.16-.37.25l.29-.11c0,.09-.14.25-.38.44l.33-.1c0,.08-.11.24-.43.46l.3-.06c0,.08,0,.16-.18.27l.43-.14a.26.26,0,0,1-.21.22l0,.08c.25-.14.27,0,.17,0,.06,0,.24,0,.1.21.18-.08.29,0,.25.11.33,0,.32.38,0,.35a2.37,2.37,0,0,0-.48.08c-.19.08-.29.06-.33-.16a1.15,1.15,0,0,0-.43-.75c-.57-.24.11-.53.17-.78a.49.49,0,0,1,.3-.44c-.19,0-.19-.13,0-.41-.1,0-.14-.07.16-.43-.24.08-.29,0,.06-.43-.3.18-.3.07,0-.33-.14,0-.13-.16,0-.32-.25,0-.21-.1-.08-.19.52-.25,1.14-1,1.24-.89Zm-1,5.09.57,0a.38.38,0,0,1,.3.19l.27.3c.11.14,0,.25-.1.22a6.49,6.49,0,0,1-1.1-.43c-.08-.1-.06-.18,0-.24m1.14.76c.22,0,.14.16,0,.16a1.5,1.5,0,0,1-.73-.14,3,3,0,0,1-.67-.43c-.08-.06,0-.16.11-.1a5.54,5.54,0,0,0,1.32.51m1.42-2.8c.16-.11.22-.08.21.1a2,2,0,0,1-.25,1v-.86l-.06,0a1.92,1.92,0,0,1-.22.87l0-.79h-.08l-.18.78,0-.68c0-.1,0-.11-.08-.06-.11.79-.25,1.13-.41,1.24a2.65,2.65,0,0,0,.13-1.16l0,0a3.71,3.71,0,0,1-.26,1.11c-.16-.24.14-.65.08-1.05h0l-.29,1c-.1,0-.06-.13,0-.38l0-.56,0,0a2.86,2.86,0,0,1-.27.71l0-.73-.21.52,0-.43-.22.1a.81.81,0,0,1,.44-.38,7.9,7.9,0,0,0,1.59-.38m.24-.48c0,.16-.14.27-.14.16a1,1,0,0,0-.11-.49c-.07-.08,0-.11.11,0a.42.42,0,0,1,.14.38m.06,1.4c0,.06,0,.11,0,.11s0,0,0-.11,0-.11,0-.11,0,0,0,.11m0-.35s0,0,0,.06,0,.06,0,.06A.07.07,0,0,1,24,26a.06.06,0,0,1,.06-.06m0-1s.08.06.1.14,0,.16,0,.16-.06,0-.08-.13a.27.27,0,0,1,0-.17m0,.56c0-.18.21-.13.13,0l-.1.22h0Zm-1.16-.64c.13,0,.17-.13.14-.24l-.06-1c0-.21.1-.13.14,0s.13.08,0,.19c.27,0,.35.11.21.22l-.22,0,.29,0c.13,0,.1.14,0,.16l-.27,0,.33,0c.16,0,.16,0,0,.14l-.14.1.24,0c.11,0,.14,0,.09.16.08.38,0,.62-.32.62l-1.06.24c-.07,0-.1,0-.07-.07a.05.05,0,0,0,0,0,.07.07,0,0,1,.06-.06.05.05,0,0,1,0,0l.16,0v-.32l-.14,0v0c0,.06,0,.11-.06.11s-.06,0-.06-.11v0l-.07,0c-.14,0-.14-.11,0-.19Zm-.24-.43v-.24c0-.16.14,0,.14.06l0,.25s-.06,0-.11-.08m.06.17a.08.08,0,0,1,0,.16.07.07,0,0,1-.06-.08.07.07,0,0,1,.06-.08m-2.4-3.72a1.92,1.92,0,0,1,.46-.29c-.11.11-.22.24-.35.35l.11.06a1.16,1.16,0,0,1,.48-.22l-.22.19a2.59,2.59,0,0,1,.4,0c-.21.1-.33.13-.49.19l.13.08a1,1,0,0,1,.48-.14l-.36.2.11.07a.82.82,0,0,1,.46-.1,2.45,2.45,0,0,0-.35.16l.06,0a1.06,1.06,0,0,1,.43-.1c-.12,0-.22.11-.33.16l.1,0a.77.77,0,0,1,.37,0,2.29,2.29,0,0,0-.29.1l.33.21-.07,0-.51-.17a.08.08,0,0,0-.06,0s0,0,0,0l-.13,0-.22.11a.56.56,0,0,1,.13-.14l-.13,0-.22.11a1.19,1.19,0,0,1,.13-.16l-.13,0a2.52,2.52,0,0,1-.27.17,1.09,1.09,0,0,1,.16-.21l-.17-.06-.24.21a.5.5,0,0,1,.13-.24l-.16-.07c-.08.08-.17.16-.27.24a1.41,1.41,0,0,1,.16-.27l-.26-.1a1.69,1.69,0,0,1-.3.27,2,2,0,0,1,.16-.32l0,0a.62.62,0,0,1,.37-.43l0,0a.85.85,0,0,1,.24-.16c0,.08-.08.16-.13.22l0,0a1,1,0,0,1,.41-.26,1.91,1.91,0,0,1-.3.32Zm-2.69-1.67a.67.67,0,0,1,.14-.26c.11-.14.19-.25.22-.22a.61.61,0,0,1-.16.25c-.1.14-.19.24-.21.22m-.06.06-.22.64c.19-.37.35-.57.49-.56l-.29.56c0,.06,0,.1.09.08.19-.51.37-.79.49-.81l-.25.76c.11-.24.19-.33.24-.29l-.06.24c.13-.25.22-.36.29-.32l0,.22a.49.49,0,0,1,.19-.21l.08.17a.6.6,0,0,1,.21-.33l.06.16a1.49,1.49,0,0,1,.43-.49l-.1.32.38-.19c.19-.06.22,0,.08.16l-.78.37a2.38,2.38,0,0,1-1.87.36c-.16-.06-.19-.14-.11-.29a.56.56,0,0,1,.27-.22v.21Zm-.78,13.35h0l-.08.19-.18.32.11-.35,0-.17-.21-.06-.14.14L16,33l.19-.32.08-.13h-.09l-.14.14-.24.27.19-.3.08-.13H16l-.1.14-.22.29.16-.33,0-.08-.17,0-.11.27,0-.26a.5.5,0,0,0-.32.3c0-.27.21-.43.6-.48s1,0,.86.24m-1.59,2.91c-.06-.1-.1-.18-.06-.19s.1,0,.16.13.08.17.06.19-.1,0-.16-.13m0,.37s-.06,0-.11-.11,0-.16,0-.17.07,0,.11.13,0,.16,0,.16M15,36.3s-.1-.09-.13-.21,0-.24,0-.25.11.08.14.21,0,.24,0,.25m-.19-3.42s0,0-.09.06,0,.18,0,.27L14.62,33h-.06a3.23,3.23,0,0,0,0,.38L14.41,33l-.08,0c0,.18,0,.37,0,.56l-.22-.46v0c0,.1,0,.21-.08.3l0-.32c0,.13-.11.29-.16.44l0-.33v-.1h0l.4-.26c.27-.13.6-.17.55,0m-.41,2.67c-.24-.1-.22-.3.06-.49.26.11.26.35-.06.49m.89-.33c0,.06.06.13,0,.14a.22.22,0,0,1-.11-.1c0-.06-.06-.12,0-.14a.17.17,0,0,1,.1.1M16.6,27.7l0-.29c0-.06.14-.1.14,0l0,.29s-.14.08-.14,0m-.16.08s0-.08,0-.08a.08.08,0,0,1,0,.16s0,0,0-.08m-.22,0c0-.08.13-.14.14,0l0,.22c0,.06-.14.13-.14,0Zm-.25.27a.08.08,0,1,1,.16,0c0,.06,0,.1-.08.1s-.08,0-.08-.1m-.19.22,0-.21c0-.08.08-.11.1,0v.21c0,.06-.13.11-.11,0m-.26.14v-.19c0-.08.13-.08.13,0l0,.19c0,.06-.14.08-.14,0m-2.77,4.37c-.1-.24-.37-.3-.83-.22a1.14,1.14,0,0,0-.6-.3,2,2,0,0,1,1.81-1.6,13.67,13.67,0,0,0,3.1-1.21c.48-.35.54-.19.19.49l-.54.62a.59.59,0,0,0,0,1c.54.27.76.52.68.75a1.58,1.58,0,0,0-1.59.35,1.78,1.78,0,0,0-1.29.22,1.23,1.23,0,0,0-1-.06m.89.27c0,.1-.22.27-.45.43l.13-.28a.43.43,0,0,1,.1-.1h-.11a1.45,1.45,0,0,1-.32.27l.1-.24.06,0-.08,0a1,1,0,0,1-.24.19l.07-.16c.11-.14.19-.13.37-.19s.43,0,.38.14m-.21,1.34-.26-.22.08.43-.19-.21,0,.38a.72.72,0,0,1,0-.67c.13-.33.29-.43.38-.41s0,.38,0,.7M13.12,36C13,36,13,36,13,36s.08,0,.16,0,.16,0,.16.08a.27.27,0,0,1-.17,0m-.27-.27s.1,0,.21,0,.19.06.19.1-.1,0-.21,0-.19-.06-.19-.1m-.1-.25s.11,0,.25,0,.22.08.22.11-.13.06-.26,0-.24-.06-.22-.11m-.27-2.59c0,.1-.21.27-.45.4l.14-.27.11-.1h-.1a1.55,1.55,0,0,1-.33.27L12,33s0,0,.06-.06l-.16,0,.29-.11a.43.43,0,0,1,.33.13Zm-1.32.32.16-.33a.45.45,0,0,1,.35-.17c0,.11-.22.33-.51.51m-.4,2.32q.55.45-.19.38a.35.35,0,0,1-.25-.38l-.16-.67c.21-.08.25,0,.32.26s.29.28.29.41m.14,1s-.11-.06-.13-.16,0-.19.08-.19.11.06.13.16,0,.18-.08.19m-.28.3a.39.39,0,0,1-.32-.14.51.51,0,0,1-.06-.62c.13-.17.27-.11.35.11h-.16c.19.1.3.21.3.33l-.24-.06c.18.13.26.24.26.33l-.19-.13Zm-1-4.29.14-.08a.29.29,0,0,1,.17,0s-.16.08-.32.06m.1-.45.35,0c-.26.22-.51.38-.62.35a.46.46,0,0,1,.27-.3m.3-2.92a.35.35,0,0,1,.32.08c-.06.08-.3.1-.59,0Zm0-.91.21,0a.26.26,0,0,1,.22.11s-.24,0-.43-.06m.19.7s-.16.07-.3.07L10.1,29a.17.17,0,0,1,.18,0m-.35-.32.21-.16a.31.31,0,0,1,.29,0c0,.08-.25.13-.49.16m3-6.65.62-.11,0,.13Zm.41.29c-.7.78-1.19,2.16-1.08,4.54.06,1.11.25,1.81-.4,2.48s-1.06.54-1.16,1.26a4.77,4.77,0,0,1-.3,1.19c-.46-.25-.51-.79-.16-1.64a3.68,3.68,0,0,0-.41-4.54c.65-2.46,1.73-3.79,3.51-3.29m-3.67,9.6h.27c-.21.14-.43.24-.51.21a.29.29,0,0,1,.24-.21m-.49-.32.14-.16a.27.27,0,0,1,.24,0c0,.06-.19.14-.38.19m.11-.43a.36.36,0,0,1,.33,0c0,.1-.29.18-.56.21Zm0-.24a.35.35,0,0,1,.35,0c0,.08-.3.17-.59.22Zm0-.27a.33.33,0,0,1,.33,0c0,.1-.26.21-.54.27Zm.1-.44a.27.27,0,0,1,.24,0c0,.08-.19.16-.4.21Zm-2-1.53a.76.76,0,0,1-.11-.4c0-.19.16-.18.19,0s-.08.25-.08.44m25.56-7.9a.25.25,0,0,1,.35,0,.19.19,0,0,1,.13.16l-.19.06.24.06c.13.11,0,.32-.1.14a.25.25,0,0,0-.32,0c0,.14,0,.18-.11.06a.3.3,0,0,1,0-.4m2.46,2.83a1.33,1.33,0,0,1,.08.76c0,.1-.13.13-.16,0A1.58,1.58,0,0,0,35,24c-.16-.19-.13-.3.08-.29-.19-.3,0-.36.21,0m.29,1.81c0,.11,0,.18-.06.19a.29.29,0,0,1-.26-.11c-.11-.13-.14-.21-.13-.3l.08-.36c0-.1,0-.08.09,0a1.05,1.05,0,0,1,.27.59m-.21.68c-.08,0-.14-.08-.22-.11l.13.18c.07.1-.06.14-.17,0L34.76,26c-.1-.14-.06-.3.11-.51,0,0,.09-.06.14,0l.27.18s0,.06,0,.09,0,.13.08.25.06.16,0,.16M34,27s.11,0,.16.11.08.19,0,.21-.11,0-.16-.13S34,27,34,27m.32,1.59c0,.16,0,.3-.1.3s-.09-.14-.09-.3,0-.3.09-.3.1.14.1.3m.3.84c-.08.08-.26.08-.38.11l.13.21-.13.06,0,.17c-.24-.19-.38-.37-.3-.56L34,29.1c.08-.11.14-.11.19,0ZM7.1,24.94c.43.14.56.64.22,1.13-.83,1.21-.7,2.49,0,4.15l.1,0c.16-1.81.54-2.73,1.14-2.91a1.11,1.11,0,0,0,.52-.4c.18-.27.27-.24.4,0a2.24,2.24,0,0,1-.16,2.23c-1,1.7-1.1,3,.4,4l0,.13-.4.51c-.13.21,0,.46.32.75A2.79,2.79,0,0,1,10.2,36a.81.81,0,0,0-.06.7,1.63,1.63,0,0,0,1.52.41c.08,0,.06-.08.06-.16.06-.35-.17-.6-.43-1A1.66,1.66,0,0,1,10.63,34l.11-.18a11,11,0,0,0,2,.54,2,2,0,0,0,0,1.75,1.84,1.84,0,0,0,2,1.13C16,37.1,16.64,36,16.16,34.59c.46-.25.76-.24.92,0,0,.65.27.45.29,1.08-.76.67-1,1.24-.22,1.61.43.43.19.59-.37.62-.59-.14-1-.11-1.1.36-.54,0-.7.35-.68.86.16-.38.46-.41.62-.32a2.44,2.44,0,0,0,.84,0,1,1,0,0,1,.81,0,.38.38,0,0,1,.35.19c.38.4.33,0,1.18.46.21,0,.56,0,.62.33l.08-.3a.27.27,0,0,0-.1-.35c-.27-.32.16-.33.91-.19a2,2,0,0,0,1,.21c.34-.33.41-.13.48.32.24-.65.08-1-.57-1,.11-.35.16.18.4-.25.21-.1.41,0,.62.21,0-.32-.14-.51-.56-.61-.1-.27-.3-.28-.59,0-1.21-.32-1.33-1-.65-1.19.37-.09.51.29.79.4a2.39,2.39,0,0,0,.64.08,1.65,1.65,0,0,1,.84.22l.24.08c.13-.1.25-.08.41.06s.35.29.51.08c.48-.38,1.19-.38,1.14-.14s0,.48.18.45.16.16.16.41c-.46,0-.78.06-.78.4-.43.13-.41.43-.22.83,0-.76.6-.14,1.24-.56l.45,0c0,.22.26.32.65.3a2.84,2.84,0,0,1,.51-.09,1.54,1.54,0,0,1,1.86.48.56.56,0,0,0,0-.59c.54-.37,1.13-.22.78.37.32-.16.64-1,.22-1,.17-.48.89-.08.68.27.3-.16.35-.4,0-.7,0-.27-.27-.35-.67-.24-.22-.38-.51-.4-.89-.06-.38.17-.68.19-.87-.07s-.16-.49.13-.38.2-.13.38-.46c.06-.14.19-.25.29-.44.41-.06.75-.43,1.18-1.16.3-.14.45-.73.46-1.65.13.06.29,0,.49-.11-.14,0-.21-.06-.21-.43h.4c.16-.06.22-.13.21-.21s-.16,0-.27-.22a1.27,1.27,0,0,0-.41-.67l-.38-.62c-.27-.86-.59-1.35-1-1l-.11-.06a3.78,3.78,0,0,1-.7-1.27c0-.61-.62-.64-1-.06l-.09-.48-.16.25-1-1.45c.11,0,.3-.13.41-.14a9,9,0,0,0,3.7-1.16l.89-.27a.54.54,0,0,1,.73.17l.9.94a.44.44,0,0,1,.08.56c-.1.19.13.44.45.72a1.1,1.1,0,0,1,.06,1.29c-.14.35-.11.57.1.68l.62.45c.41.33.62.22.6-.37a2.19,2.19,0,0,0-.3-.89A2.43,2.43,0,0,1,34.42,28c0-.73-.11-1.11-.41-1.37a5.1,5.1,0,0,1-.89-1.13c-.08-.24-.14-.38-.27-.45,0-.76-.59-1.14-.94-.94a2.43,2.43,0,0,1-.9,0V24a10,10,0,0,0,1.76-1.69c.25-.32.38-.19.64.07l1,1c0,.51,0,.84.4.81.24.41.35.81.13,1s-.4.32-.4.59a1.52,1.52,0,0,0,1,1,.15.15,0,0,0,.16-.08,1.66,1.66,0,0,0,0-1.18l-.17-.59a2.49,2.49,0,0,1,0-.6.91.91,0,0,0-.43-1.07,11.88,11.88,0,0,1-1.57-2c0-.9-.76-1.14-1.26-.16l-1,.67c-.24.16-.4-.1-.4-.35a5.28,5.28,0,0,0-1.8-3.07c-.48-1.45-1.13-2.65-1.37-3.77a3.49,3.49,0,0,1,1.86.54c.4.43.91.65,1,.35,0-.1-.24-.27-.38-.41a1,1,0,0,1,.59.36c.4,0,.52-.3.41-.71,0-.33,0-.59-.11-.7l-.33-.19A10.28,10.28,0,0,1,29.45,12a.39.39,0,0,1-.06-.21A.92.92,0,0,0,29,11l.13-.06,0-.09.29.06-.29-.48c-.16-.59-.7-.68-1.51-.44-.11,0-.26-.1-.4-.26-.51-.49-1-.76-.86-.4,0,.06.19.24,0,.22l-.87-.14c-.19,0-.22,0-.17.13a1.69,1.69,0,0,1,.38.52l-1.11.06a4.49,4.49,0,0,1-.62.1c-.6-.51-1.35-.13-2.13.46l-.11,0V9.76h.1l-.08-.59h.07a2.48,2.48,0,0,0-.45-1.86c-.07-.27.21-.24.27-.32a1.3,1.3,0,0,0,.24-.87c0-.38-.18-.51-.37-.38h-.22a.85.85,0,0,1-.52-.22.6.6,0,0,0-.73,0c-1.14.28-1.35,1.17-2.75.57-.16,0-.19,0-.13.17a2.23,2.23,0,0,0,.94.68A1.31,1.31,0,0,1,17.3,7a1.63,1.63,0,0,0,1.41.46,1,1,0,0,0,.94,0c.19-.11.21,0,.08.21a2.59,2.59,0,0,0-.67,2,1.94,1.94,0,0,0-.27.73c-.52-.14-1-.24-1.18-.08l-.21,0a1,1,0,0,0-1.27-.1l-.81.62c-.3.21-.56.22-.6,0L14.39,10c0-.51-.18-.75-.52-.78a.89.89,0,0,1-.3-.51l-.24-.3c.08-.27,0-.36-.22-.36a.93.93,0,0,1-.51-.11l-1.65-2c-.21,0-.29.18-.25.41l1.41,2c0,.1.14.19.13.27-.11.27-.16.44.08.68l.48.46a1.32,1.32,0,0,0,.22.7c-.11.22,0,.43.22.64s.06.14.14.21l.08.68a3.17,3.17,0,0,0-1.07,1.22c0,.15-.06.26,0,.33l.94-.09c.08,0,.18.06.21.13a.68.68,0,0,1-.56.92c-1.16.29-2,.68-1.67,1.46.43.56.21,1-.53,1.49a.7.7,0,0,0-.22.64,2.18,2.18,0,0,0-.51.75c-.11.32-.11.46.11.43,1.62-.54,3.21-.76,4.34.18.56.46.46.7,1.34.75-.1.37,0,.57.32.64l0,.41c-.35.08-.75.08-1.1.18a5.47,5.47,0,0,1-1.13.25,8.53,8.53,0,0,0-.94-.56c-1.46-.91-2.69-1-3.75.29a7.81,7.81,0,0,0-1.48,2.91c-.08.24-.27.33-.65.11-.76-.62-.91-1.18-.52-1.54.54-.51.75-.21.46.07l0,.06c.41,0,.57.29.73.59a1.71,1.71,0,0,0-.33-2l-.11,0,0,.78a1.13,1.13,0,0,0-1.37,1.08,1.61,1.61,0,0,0,1,1.56"/><path d="M22.5 25.16L22.55 25.45 22.58 25.45 22.58 25.13 22.5 25.16z"/><path d="M23.31,25s0,0,0,0,0,0,0,0a0,0,0,1,0-.06,0"/><path d="M23.9,35.91l0,0h0"/><path d="M22.8,25.38v-.3l-.14,0,.07.29.08,0"/><path d="M23.31,24.89c.06,0,.11,0,.09-.1s-.06,0-.13,0-.11.06-.1.08.06.07.13,0"/><path d="M23.09,25h0v.24a.07.07,0,0,0,0,0c.11-.13.11-.19,0-.22"/><path d="M23,25.3V25l-.06,0,0,.27,0,0"/><path d="M25.89,19.87c0,.11.33.38.52.72s.19.4.27.46a1.6,1.6,0,0,0-.79-1.18"/><path d="M27.79,12.92c.06.16.1.19.1.14a5.09,5.09,0,0,1-.1-.94c0-.13,0-.17-.06-.21a3.64,3.64,0,0,0,0,.53.84.84,0,0,0,.08.48"/><path d="M29,13.65c.06.08.09.1.08.06a2.13,2.13,0,0,1-.14-.48.11.11,0,0,0-.06-.11s0,.19,0,.29a.36.36,0,0,0,.1.24"/><path d="M25.54,15.56c0-.17-.62-.68-.92-1.19s-.35-.83-.46-1a3.46,3.46,0,0,0,1.38,2.15"/><path d="M27.4,12.67a2.52,2.52,0,0,1,0-.59.17.17,0,0,0,0-.14s0,.22,0,.33a.51.51,0,0,0,0,.3c0,.11.06.13.06.1"/><path d="M27.63,12.86a4.5,4.5,0,0,1-.06-.75.17.17,0,0,0,0-.17,4,4,0,0,0,0,.41.68.68,0,0,0,.06.4c0,.13.08.16.08.11"/><path d="M28,13.06c.06.14.11.18.1.13a4.22,4.22,0,0,1-.1-.84.24.24,0,0,0-.06-.19,3.19,3.19,0,0,0,0,.48.8.8,0,0,0,.08.43"/><path d="M28.52,13.37c.06.1.1.13.08.08a3.57,3.57,0,0,1-.13-.65c0-.1,0-.13-.06-.14s0,.24,0,.36a.56.56,0,0,0,.1.35"/><path d="M28.27,13.22c.08.11.11.14.09.1a5.24,5.24,0,0,1-.11-.75c0-.11,0-.14-.06-.16s0,.27,0,.42a.72.72,0,0,0,.08.4"/><path d="M25.54,16c-.06-.19-.69-.75-1-1.3s-.37-.88-.48-1A3.7,3.7,0,0,0,25.54,16"/><path d="M24.77,12.21a2.24,2.24,0,0,0,.91,1.53c0-.11-.38-.48-.57-.84s-.25-.61-.33-.68"/><path d="M25,11.92a1.89,1.89,0,0,0,.79,1.37c0-.1-.32-.43-.49-.75a5.66,5.66,0,0,0-.3-.62"/><path d="M24.6,12.51a2.55,2.55,0,0,0,1,1.69c0-.13-.45-.54-.67-.94s-.29-.67-.36-.75"/><path d="M28.76,13.51c.06.08.1.11.08.08a2.16,2.16,0,0,1-.13-.57.24.24,0,0,0-.06-.13s0,.22,0,.33a.52.52,0,0,0,.1.29"/><path d="M23.92,14a4.5,4.5,0,0,0,1.67,2.53c-.06-.2-.79-.86-1.14-1.44s-.4-.92-.52-1.08"/><path d="M24.44,12.81a2.85,2.85,0,0,0,1.14,1.83c0-.14-.51-.57-.75-1s-.3-.72-.4-.81"/><path d="M25.55,15.1c0-.16-.56-.64-.84-1.11s-.32-.76-.43-.87a3.23,3.23,0,0,0,1.27,2"/><path d="M.57.57H41.34v39.3c0,4.33-2.82,6.92-7.55,6.92H28.9A11,11,0,0,0,21,49.73h0A11,11,0,0,0,13,46.79H8.15C3.41,46.79.57,44.2.57,39.87ZM0,39.87c0,4.62,3.13,7.49,8.15,7.49H13a10.46,10.46,0,0,1,7.53,2.78l.41.39.41-.39a10.42,10.42,0,0,1,7.52-2.78h4.88c5,0,8.13-2.87,8.13-7.49V0H0Z"/><path d="M54.23,2h1.49V6.2H53.09C53.82,5.33,54.2,4,54.23,2m-1.8,5.47h4.18V8.87H58V6.2h-.9V.73H52.92V1.83c0,2.46-.48,3.65-1.34,4.36h-.52V8.87h1.37Z"/><path d="M64.09 6.2L60.83 6.2 60.83 4.5 63.13 4.5 63.13 3.33 60.83 3.33 60.83 1.97 63.97 1.97 63.97 0.73 59.45 0.73 59.45 7.43 64.09 7.43 64.09 6.2z"/><path d="M67.09 1.97L69.83 1.97 69.83 7.44 71.2 7.44 71.2 0.73 65.72 0.73 65.72 7.44 67.09 7.44 67.09 1.97z"/><path d="M75.76,3.17l.9,2.27H74.87Zm-1.37,3.4h2.74l.38.88H79L76,.6h-.46l-3,6.83H74Z"/><path d="M81.7,1.94h1.15a.92.92,0,0,1,1,1,.93.93,0,0,1-1,1H81.7Zm0,3.13h1.15a2.21,2.21,0,0,0,2.42-2.17A2.19,2.19,0,0,0,82.85.73H80.33V7.44H81.7Z"/><path d="M88.47 7.43L89.84 7.43 89.84 1.97 91.99 1.97 91.99 0.73 86.32 0.73 86.32 1.97 88.47 1.97 88.47 7.43z"/><path d="M95.17,3.17l.89,2.27H94.27Zm1.37,3.4.38.88h1.47L95.4.6h-.46l-3,6.83h1.47l.38-.87Z"/><path d="M101.11 3.86L102.8 5.97 103.24 5.97 104.93 3.86 104.93 7.44 106.3 7.44 106.3 0.6 105.86 0.6 103.02 4.23 100.18 0.6 99.73 0.6 99.73 7.44 101.11 7.44 101.11 3.86z"/><path d="M112.92 6.2L109.66 6.2 109.66 4.5 111.97 4.5 111.97 3.33 109.66 3.33 109.66 1.97 112.8 1.97 112.8 0.73 108.29 0.73 108.29 7.43 112.92 7.43 112.92 6.2z"/><path d="M115.92 4.54L118.89 4.54 118.89 7.44 120.27 7.44 120.27 0.73 118.89 0.73 118.89 3.3 115.92 3.3 115.92 0.73 114.55 0.73 114.55 7.44 115.92 7.44 115.92 4.54z"/><path d="M123.75 7.43L125.13 7.43 125.13 1.97 127.28 1.97 127.28 0.73 121.61 0.73 121.61 1.97 123.75 1.97 123.75 7.43z"/><path d="M57.09 19.64L57.09 12.93 51.62 12.93 51.62 19.64 52.99 19.64 52.99 14.17 55.72 14.17 55.72 19.64 57.09 19.64z"/><path d="M60.45,14.14h1.15a1,1,0,1,1,0,1.93H60.45Zm0,3.13h1.15a2.18,2.18,0,1,0,0-4.34H59.07v6.71h1.37Z"/><path d="M66.82 16.7L69.12 16.7 69.12 15.53 66.82 15.53 66.82 14.17 69.96 14.17 69.96 12.93 65.44 12.93 65.44 19.64 70.08 19.64 70.08 18.4 66.82 18.4 66.82 16.7z"/><path d="M75.94,18.4H73.31c.73-.86,1.11-2.18,1.14-4.23h1.48Zm1.37-5.47H73.14V14c0,2.46-.48,3.65-1.34,4.36h-.52v2.67h1.37V19.64h4.18v1.43H78.2V18.4h-.89Z"/><path d="M81.05 14.17L83.78 14.17 83.78 19.64 85.16 19.64 85.16 12.93 79.68 12.93 79.68 19.64 81.05 19.64 81.05 14.17z"/><path d="M90.67,15.09a.93.93,0,0,1-1,1H88.51V14.14h1.15a.92.92,0,0,1,1,1m-3.54-2.17v6.71h1.37V17.27h1.15a2.18,2.18,0,1,0,0-4.34Z"/><path d="M97.95 19.64L99.32 19.64 99.32 12.81 98.86 12.81 94.88 17.01 94.88 12.93 93.51 12.93 93.51 19.76 93.95 19.76 97.95 15.52 97.95 19.64z"/><path d="M107.01 19.64L107.01 12.93 105.64 12.93 105.64 15.5 102.67 15.5 102.67 12.93 101.3 12.93 101.3 19.64 102.67 19.64 102.67 16.74 105.64 16.74 105.64 19.64 107.01 19.64z"/><path d="M110.35 12.93L108.98 12.93 108.98 19.76 109.43 19.76 113.42 15.52 113.42 19.64 114.8 19.64 114.8 12.81 114.34 12.81 110.35 17.02 110.35 12.93z"/><path d="M123.34 19.64L123.34 12.81 122.89 12.81 120.05 16.43 117.22 12.81 116.77 12.81 116.77 19.64 118.14 19.64 118.14 16.06 119.83 18.17 120.28 18.17 121.96 16.06 121.96 19.64 123.34 19.64z"/><path d="M127.91,15.37l.89,2.27H127Zm-1.75,4.27.38-.87h2.75l.38.87h1.47l-3-6.83h-.46l-3,6.83Z"/><path d="M133.23 19.64L134.61 19.64 134.61 14.17 136.76 14.17 136.76 12.93 131.09 12.93 131.09 14.17 133.23 14.17 133.23 19.64z"/><path d="M142.74 18.4L139.47 18.4 139.47 16.7 141.78 16.7 141.78 15.53 139.47 15.53 139.47 14.17 142.62 14.17 142.62 12.93 138.1 12.93 138.1 19.64 142.74 19.64 142.74 18.4z"/><path d="M148.42,19.64h1.37V12.93h-4.36v1.24c0,2.94-.52,4.1-1.6,4.23v1.29c1.7-.12,2.87-1.21,2.91-5.52h1.68Z"/><path d="M154.51,18.43h-1.37v-2h1.37a1,1,0,0,1,1,1,1,1,0,0,1-1,1m2.45-1a2.23,2.23,0,0,0-2.45-2.2h-1.37V12.93h-1.37v6.71h2.74A2.22,2.22,0,0,0,157,17.43"/><path d="M161.78,19.76a3.33,3.33,0,0,0,3-1.67l-1-.73a2.19,2.19,0,0,1-1.92,1.13,2.1,2.1,0,0,1-2.16-2.2,2.11,2.11,0,0,1,2.16-2.22,2.19,2.19,0,0,1,1.92,1.13l1-.73a3.34,3.34,0,0,0-3-1.67,3.48,3.48,0,1,0,0,7"/><path d="M165.85 14.17L168 14.17 168 19.64 169.37 19.64 169.37 14.17 171.52 14.17 171.52 12.93 165.85 12.93 165.85 14.17z"/><path d="M174.18,18.46V16.77h1.57c.6,0,1,.33,1,.84s-.36.84-1,.84Zm0-4.35h.95c.57,0,.88.29.88.76s-.31.77-.87.77h-.95Zm3.87,3.56A1.68,1.68,0,0,0,176.87,16a1.64,1.64,0,0,0,.5-1.21,1.92,1.92,0,0,0-2.12-1.87h-2.38v6.71h3a2,2,0,0,0,2.21-2"/><path d="M181.22,17.63l.9-2.27.89,2.27Zm.67-4.83-3,6.83h1.47l.38-.87h2.74l.38.87h1.47l-3-6.83Z"/><path d="M57.43 31.84L57.43 25.01 56.97 25.01 52.99 29.22 52.99 25.13 51.62 25.13 51.62 31.96 52.06 31.96 56.06 27.72 56.06 31.84 57.43 31.84z"/><path d="M62.89 25.13L62.89 31.96 63.34 31.96 67.33 27.72 67.33 31.84 68.7 31.84 68.7 25.01 68.25 25.01 64.26 29.22 64.26 25.13 62.89 25.13z"/><path d="M72.05 28.94L75.02 28.94 75.02 31.84 76.39 31.84 76.39 25.13 75.02 25.13 75.02 27.7 72.05 27.7 72.05 25.13 70.68 25.13 70.68 31.84 72.05 31.84 72.05 28.94z"/><path d="M79.74 28.94L82.71 28.94 82.71 31.84 84.08 31.84 84.08 25.13 82.71 25.13 82.71 27.7 79.74 27.7 79.74 25.13 78.37 25.13 78.37 31.84 79.74 31.84 79.74 28.94z"/><path d="M87.07,28.48a2.16,2.16,0,1,1,2.15,2.21,2.1,2.1,0,0,1-2.15-2.21m5.72,0A3.57,3.57,0,1,0,89.22,32a3.5,3.5,0,0,0,3.58-3.48"/><path d="M97.25,30.66H95.68V29h1.57c.6,0,1,.32,1,.84s-.36.84-1,.84m-1.57-4.35h.95c.57,0,.87.29.87.76s-.3.77-.87.77h-.95Zm3.87,3.56a1.68,1.68,0,0,0-1.19-1.66,1.63,1.63,0,0,0,.5-1.21,1.92,1.92,0,0,0-2.12-1.87H94.36v6.71h3a2,2,0,0,0,2.21-2"/><path d="M102.72,29.84l.89-2.27.89,2.27ZM103.84,25h-.46l-3,6.83h1.47l.38-.87H105l.38.87h1.47Z"/><path d="M114.52 33.27L114.52 30.6 113.64 30.6 113.64 25.13 112.27 25.13 112.27 30.6 109.55 30.6 109.55 25.13 108.18 25.13 108.18 31.84 113.15 31.84 113.15 33.27 114.52 33.27z"/><path d="M117.4 29.22L117.4 25.13 116.02 25.13 116.02 31.96 116.47 31.96 120.47 27.72 120.47 31.84 121.84 31.84 121.84 25.01 121.38 25.01 117.4 29.22z"/><path d="M127,30.69a2.21,2.21,0,1,1,2.16-2.21A2.1,2.1,0,0,1,127,30.69M127,25a3.48,3.48,0,1,0,3.58,3.48A3.48,3.48,0,0,0,127,25"/><path d="M137.81 31.84L137.81 25.13 136.44 25.13 136.44 27.7 133.47 27.7 133.47 25.13 132.1 25.13 132.1 31.84 133.47 31.84 133.47 28.94 136.44 28.94 136.44 31.84 137.81 31.84z"/><path d="M144.13 27.7L141.16 27.7 141.16 25.13 139.79 25.13 139.79 31.84 141.16 31.84 141.16 28.94 144.13 28.94 144.13 31.84 145.5 31.84 145.5 25.13 144.13 25.13 144.13 27.7z"/><path d="M150.65,30.69a2.21,2.21,0,1,1,2.16-2.21,2.1,2.1,0,0,1-2.16,2.21m0-5.68a3.48,3.48,0,1,0,3.58,3.48A3.48,3.48,0,0,0,150.64,25"/><path d="M155.78 31.84L157.15 31.84 157.15 26.37 160.1 26.37 160.1 25.13 155.78 25.13 155.78 31.84z"/><path d="M164.55,30.69a2.21,2.21,0,1,1,2.16-2.21,2.09,2.09,0,0,1-2.16,2.21m0-5.68a3.48,3.48,0,1,0,3.58,3.48A3.48,3.48,0,0,0,164.54,25"/><path d="M175.72,28.27h-1.15V26.34h1.15a1,1,0,1,1,0,1.93m0-3.14H173.2v6.71h1.37V29.47h1.15a2.18,2.18,0,1,0,0-4.34"/><path d="M180.72,29.84l.9-2.27.89,2.27Zm.67-4.83-3,6.83h1.47l.38-.87H183l.38.87h1.47l-3-6.83Z"/><path d="M190,28.29a1.63,1.63,0,0,0,.61-1.3,2.11,2.11,0,0,0-2.3-2,2.68,2.68,0,0,0-2.42,1.46l1,.68a1.76,1.76,0,0,1,1.45-.87c.57,0,.95.33.95.79a.77.77,0,0,1-.86.77h-1V29h1.32a.84.84,0,0,1,.95.81c0,.58-.54.9-1.2.9a1.94,1.94,0,0,1-1.68-1l-1,.69A2.9,2.9,0,0,0,188.38,32a2.29,2.29,0,0,0,2.55-2.11,1.68,1.68,0,0,0-1-1.57"/><path d="M195.41,30.66h-1.57V29h1.57c.6,0,1,.32,1,.84s-.35.84-1,.84m-1.57-4.35h.95c.57,0,.87.29.87.76s-.3.77-.87.77h-.95Zm2.68,1.9A1.63,1.63,0,0,0,197,27a1.92,1.92,0,0,0-2.12-1.87h-2.38v6.71h3a2,2,0,0,0,2.21-2,1.68,1.68,0,0,0-1.19-1.66"/><path d="M200.63 29.22L200.63 25.13 199.26 25.13 199.26 31.96 199.71 31.96 203.7 27.72 203.7 31.84 205.07 31.84 205.07 25.01 204.62 25.01 200.63 29.22z"/><path d="M206.42 26.37L208.56 26.37 208.56 31.84 209.93 31.84 209.93 26.37 212.09 26.37 212.09 25.13 206.42 25.13 206.42 26.37z"/><path d="M214.8 29.22L214.8 25.13 213.43 25.13 213.43 31.96 213.88 31.96 217.87 27.72 217.87 31.84 219.25 31.84 219.25 25.01 218.79 25.01 214.8 29.22z"/><path d="M224.73,28.57h-1a1.11,1.11,0,1,1,0-2.23h1Zm-1-3.44a2.35,2.35,0,0,0-2.59,2.32,2.19,2.19,0,0,0,1.09,1.94l-1.6,2.45h1.54l1.36-2.07h1.2v2.06h1.37V25.13Z"/><path d="M51.77 44.04L52.56 44.04 52.56 38.04 55.76 38.04 55.76 37.33 51.77 37.33 51.77 44.04z"/><path d="M60.07,43.42a2.74,2.74,0,1,1,2.65-2.75,2.64,2.64,0,0,1-2.65,2.75m0-6.2a3.47,3.47,0,1,0,3.49,3.47,3.43,3.43,0,0,0-3.49-3.47"/><path d="M67.65,40.52H66.11V38h1.54a1.24,1.24,0,1,1,0,2.48m0-3.19H65.31V44h.79V41.23h1.57a2,2,0,1,0,0-3.9"/><path d="M74.67,43.42a2.74,2.74,0,1,1,2.65-2.75,2.64,2.64,0,0,1-2.65,2.75m0-6.2a3.47,3.47,0,1,0,3.49,3.47,3.43,3.43,0,0,0-3.49-3.47"/><path d="M83.84,43.33H80.43c.83-.91,1.28-2.46,1.3-5.28h2.1Zm.79-6H81v.8c0,3-.62,4.43-1.46,5.19H79v2.15h.79V44h4.86v1.43h.79V43.33h-.8Z"/><path d="M88.46,42l1.34-3.3L91.15,42Zm1.2-4.75L86.75,44h.83l.57-1.36h3.29L92,44h.84L90,37.22Z"/><path d="M101.11 41.09L98.31 37.22 98.03 37.22 98.03 44.04 98.82 44.04 98.82 39.21 100.98 42.14 101.26 42.14 103.41 39.23 103.41 44.04 104.2 44.04 104.2 37.22 103.93 37.22 101.11 41.09z"/><path d="M109.47,43.42a2.74,2.74,0,1,1,2.65-2.75,2.64,2.64,0,0,1-2.65,2.75m0-6.2a3.47,3.47,0,1,0,3.49,3.47,3.44,3.44,0,0,0-3.49-3.47"/><path d="M117.92,38a2.58,2.58,0,0,1,2.19,1.18l.59-.47a3.28,3.28,0,0,0-2.78-1.44,3.47,3.47,0,1,0,0,6.93,3.26,3.26,0,0,0,2.78-1.44l-.59-.47a2.58,2.58,0,0,1-2.19,1.18,2.74,2.74,0,0,1,0-5.47"/><path d="M122.4 37.33H123.19000000000001V44.04H122.4z"/><path d="M127.32 37.33L126.3 37.33 123.28 40.44 126.59 44.04 127.59 44.04 124.32 40.44 127.32 37.33z"/><path d="M131.88,43.33H130V40.85h1.89a1.25,1.25,0,1,1,0,2.48M130,38h1.43c.78,0,1.18.42,1.18,1s-.4,1-1.18,1H130Zm2.79,2.31a1.6,1.6,0,0,0,.64-1.32,1.71,1.71,0,0,0-1.91-1.7H129.2V44H132a1.92,1.92,0,0,0,2.12-1.93,1.74,1.74,0,0,0-1.31-1.76"/><path d="M142.16 37.33H142.95V44.04H142.16z"/><path d="M138.47,43.33h-1.85V40.69h1.85a1.33,1.33,0,1,1,0,2.64m0-3.35h-1.86V37.33h-.79V44h2.65a2,2,0,1,0,0-4.07"/></svg>