<svg xmlns="http://www.w3.org/2000/svg" viewBox="0 0 227.06 229.23"><defs><linearGradient id="fdee42fd-a390-44d6-9b4c-27e9d0e70109" x1="-4134.86" y1="6716.52" x2="-3908.7" y2="6716.52" gradientTransform="rotate(-116.61 -3966.924 2147.447)" gradientUnits="userSpaceOnUse"><stop offset="0" stop-color="#fff"/><stop offset=".17" stop-color="#fff" stop-opacity=".74"/><stop offset=".33" stop-color="#fff" stop-opacity=".52"/><stop offset=".49" stop-color="#fff" stop-opacity=".33"/><stop offset=".64" stop-color="#fff" stop-opacity=".19"/><stop offset=".78" stop-color="#fff" stop-opacity=".08"/><stop offset=".9" stop-color="#fff" stop-opacity=".02"/><stop offset="1" stop-color="#fff" stop-opacity="0"/></linearGradient></defs><g id="ab31492d-48a5-4e01-8e75-ce3a767a7573" data-name="Layer 2"><path d="M90,77,62.91,63.79,30.33,113.74l23.07,19.5L52.82,158l-23.61,16,27,53.19,26.89-9.56,20.73,14,1.89,30.22,59.45,3.3,5.29-29.68,22.38-11.35,27.12,13.25,32.58-50L229.45,168,230.73,143l25.54-17.21-27-53.2L200.32,83,179.39,69.37l-2.06-30.15L117.79,36l-5.35,29.71Zm84.54,56.76a37.17,37.17,0,1,1-50-16.35A37.17,37.17,0,0,1,174.57,133.8Z" transform="translate(-29.21 -35.97)" opacity=".1" fill="url(#fdee42fd-a390-44d6-9b4c-27e9d0e70109)" id="d1dbff80-ff9e-47c2-9a70-8cb78bf20410" data-name="Layer 1"/></g></svg>