<svg xmlns="http://www.w3.org/2000/svg" viewBox="0 0 105.88 105.01"><g id="3e06089e-ea95-4964-a030-53a5a901de5d" data-name="Layer 2"><path d="M94.34,46l11.22-8.48L91.66,13.42l-13,5.48L68.52,13.44,66.83.25H39.05L37.36,13.44,27.18,19.11l-13-5.58L.33,37.53,11.55,46V57.68L.33,66.15,14.22,90.22l13-5.48,10.1,5.79L39,104.76H66.83l1.78-14.24L78.7,84.71l13,5.5,13.89-24.05L94.34,57.67ZM52.94,69.13A17.32,17.32,0,1,1,70.26,51.82,17.32,17.32,0,0,1,52.94,69.13Z" fill="none" stroke="#ee1944" stroke-miterlimit="10" stroke-width=".5" id="eeea6efb-ba14-4848-89a7-755e1e1c381a" data-name="Layer 1"/></g></svg>