<svg xmlns="http://www.w3.org/2000/svg" viewBox="0 0 67.23 35.29"><g id="20d2895d-1ed2-4965-aa91-5e0199223c32" data-name="Layer 2"><g id="6142f692-3704-442c-9cc8-a3bb499511a5" data-name="Layer 1"><path fill="#fff" d="M6.39 3.22L17.37 1.22 25.52 0.5 40.69 0.5 47 0.96 62.66 10.65 66.01 11.33 66.81 13.71 66.01 17.86 63.56 19.82 36.26 19.82 20.32 15.97 6.39 12.05 1.22 10.16 0.51 6.22 1.22 4.47 6.39 3.22z"/><path d="M67.23,325a2.74,2.74,0,0,0-2.74-2.74h-.88L50.75,313.7a12.28,12.28,0,0,0-6.84-2.07H27.73a41.18,41.18,0,0,0-5.31.35l-20,2.61A2.75,2.75,0,0,0,0,317.31v2.1a3.82,3.82,0,0,0,2.77,3.66l26.93,7.58a36.79,36.79,0,0,0,10,1.38H62.36a4.87,4.87,0,0,0,4.87-4.87Zm-5.82-2.74H48A9,9,0,0,1,43.37,321l-6.48-3.89H53.66Zm-18.29,0H39.46A9,9,0,0,1,34.85,321l-6.48-3.89h6.14ZM66,326.54H64.49a.61.61,0,0,0,0,1.22H66l-.16.5a3.64,3.64,0,0,1-3.47,2.53H39.67A35.61,35.61,0,0,1,30,329.47L3.11,321.89a2.59,2.59,0,0,1-1.89-2.49v-2.29H18.71a.61.61,0,1,0,0-1.22H7.79l0-.77,14.84-1.94a39.94,39.94,0,0,1,5.15-.33H43.91a11.06,11.06,0,0,1,6.16,1.86l1.76,1.17H23a.61.61,0,1,0,0,1.22h3L34.22,322a10.2,10.2,0,0,0,5.24,1.45h25A1.52,1.52,0,0,1,66,325Z" transform="translate(0 -311.63)"/><path d="M43.2,327.76h17a.61.61,0,1,0,0-1.22h-17a.61.61,0,0,0,0,1.22" transform="translate(0 -311.63)"/><path d="M46.39,335.06a.61.61,0,0,0-.61.61V341A.61.61,0,1,0,47,341v-5.32a.61.61,0,0,0-.61-.61" transform="translate(0 -311.63)"/><path d="M57,335.06a.61.61,0,0,0-.61.61V341a.61.61,0,1,0,1.22,0v-5.32a.61.61,0,0,0-.61-.61" transform="translate(0 -311.63)"/><path d="M51.72,335.06a.61.61,0,0,0-.61.61v10.65a.61.61,0,1,0,1.22,0V335.67a.61.61,0,0,0-.61-.61" transform="translate(0 -311.63)"/><path d="M7.61,330.34v-2.13a.61.61,0,1,0-1.22,0v2.13a.61.61,0,1,0,1.22,0" transform="translate(0 -311.63)"/><path d="M17.65,330.36A.61.61,0,0,0,17,331v2.13a.61.61,0,0,0,1.22,0V331a.61.61,0,0,0-.61-.61" transform="translate(0 -311.63)"/><path d="M12.32,328.93a.61.61,0,0,0-.61.61v6.12a.61.61,0,0,0,1.22,0v-6.12a.61.61,0,0,0-.61-.61" transform="translate(0 -311.63)"/></g></g></svg>