<svg xmlns="http://www.w3.org/2000/svg" viewBox="0 0 40.54 40.54"><g id="721acde3-804c-4485-83bd-32c108f5defc" data-name="Layer 2"><g id="d2050462-5bb3-4e06-a629-867ebec44279" data-name="Layer 1"><path d="M35.16,40V31.55l.32,0a5.94,5.94,0,0,0,5.07-5.85V5.91A5.92,5.92,0,0,0,34.63,0H5.91A5.92,5.92,0,0,0,0,5.91V25.66a5.92,5.92,0,0,0,5.91,5.91H25.44l8.82,8.82a.54.54,0,0,0,.58.11A.52.52,0,0,0,35.16,40ZM34.1,31v7.7L26,30.66a.54.54,0,0,0-.37-.15H5.91a4.86,4.86,0,0,1-4.86-4.86V5.91A4.86,4.86,0,0,1,5.91,1.06H34.63a4.86,4.86,0,0,1,4.86,4.86V25.66a4.86,4.86,0,0,1-4.86,4.86A.53.53,0,0,0,34.1,31Z"/><path d="M20.27,21.54a2.32,2.32,0,1,0,2.32,2.32A2.33,2.33,0,0,0,20.27,21.54Zm0,3.59a1.27,1.27,0,1,1,1.27-1.27A1.27,1.27,0,0,1,20.27,25.13Z" fill="#ee1944"/><path d="M21.17,5.38H19.37a2.33,2.33,0,0,0-2.32,2.5l.76,8.84a2.45,2.45,0,0,0,4.9,0l.77-8.88a2.32,2.32,0,0,0-2.32-2.48Zm.49,11.28a1.4,1.4,0,0,1-2.79,0L18.11,7.8a1.27,1.27,0,0,1,1.26-1.36h1.79a1.27,1.27,0,0,1,1.27,1.34Z" fill="#ee1944"/></g></g></svg>