<svg xmlns="http://www.w3.org/2000/svg" viewBox="0 0 1413.25 390.66"><path fill="#164c9b" d="M51.11,327.9a5,5,0,1,0,5,5A5,5,0,0,0,51.11,327.9Zm0,8.38a3.44,3.44,0,1,1,3.43-3.44A3.44,3.44,0,0,1,51.11,336.28Z"/><path fill="#164c9b" d="M67.18,327.9a5,5,0,1,0,5,5A5,5,0,0,0,67.18,327.9Zm0,8.38a3.44,3.44,0,1,1,3.43-3.44A3.44,3.44,0,0,1,67.18,336.28Z"/><path fill="#164c9b" d="M77.39,342.25l.52-.09a7.19,7.19,0,0,0-.33-14.2l-.45-.06-.12-.43c-.59-2.19-2.47-5.85-8.33-5.85H59.91v-4.19l.47-.15a4,4,0,1,0-2.47,0l.47.15v4.06H49.59c-1.6,0-6.93.42-8.35,5.84l-.12.44-.45.06a7.19,7.19,0,0,0-.31,14.2l.57.1v.68c.53,7.19,6.77,7.75,8.66,7.75H68.68c7.28,0,8.49-5.45,8.67-7.79Zm0-12.83.87.26a5.64,5.64,0,0,1,0,10.81l-.87.26ZM40.88,340.75l-.87-.26a5.65,5.65,0,0,1,0-10.81l.87-.26Zm15.75-27.12h0a2.5,2.5,0,0,1,4.19-1.93,2.47,2.47,0,0,1,.8,1.74A2.49,2.49,0,0,1,59.23,316,2.53,2.53,0,0,1,56.63,313.63Zm19.24,28.24c0,2.16-.7,7.19-7.19,7.19H49.59c-2.16,0-7.18-.7-7.18-7.19V330.33c0-6.48,5-7.18,7.18-7.18H68.68c6.49,0,7.19,5,7.19,7.18Z"/><path fill="#164c9b" d="M67.18,342.93H51.11a.76.76,0,0,0-.76.76.77.77,0,0,0,.76.77H67.18a.77.77,0,0,0,.76-.77A.76.76,0,0,0,67.18,342.93Z"/><path fill="#164c9b" d="M54.43,373.71l9.07-8a.76.76,0,0,0,.07-1.08.8.8,0,0,0-.57-.26H56l7.46-6.09a.74.74,0,0,0,.27-.52.77.77,0,0,0-.18-.56A.72.72,0,0,0,63,357a.74.74,0,0,0-.56.17l-9.1,7.49a.77.77,0,0,0-.28.52.72.72,0,0,0,.16.56.69.69,0,0,0,.58.29H61l-7.6,6.67a.76.76,0,0,0,.16,1A.77.77,0,0,0,54.43,373.71Z"/><path fill="#164c9b" d="M43.28,379.79A3.17,3.17,0,1,0,46.45,383,3.18,3.18,0,0,0,43.28,379.79Zm0,4.81A1.65,1.65,0,1,1,44.92,383,1.64,1.64,0,0,1,43.28,384.6Z"/><path fill="#164c9b" d="M59.14,379.79A3.17,3.17,0,1,0,62.32,383,3.18,3.18,0,0,0,59.14,379.79Zm0,4.81A1.65,1.65,0,1,1,60.79,383,1.64,1.64,0,0,1,59.14,384.6Z"/><path fill="#164c9b" d="M75,379.79a3.17,3.17,0,0,0-3.18,3.15v0A3.17,3.17,0,1,0,75,379.79Zm0,4.81A1.65,1.65,0,1,1,76.64,383,1.64,1.64,0,0,1,75,384.6Z"/><path fill="#164c9b" d="M91,363.13l-.32-.05-1.33-2.4c-3.9-6.85-11.23-7.49-14.2-7.45h-32c-3-.06-10.35.57-14.26,7.42L27.56,363l-.32.06a4.77,4.77,0,0,0-4,4.76.77.77,0,0,0,.77.77.76.76,0,0,0,.76-.76,3.27,3.27,0,0,1,6.54,0,.76.76,0,1,0,1.52,0A4.79,4.79,0,0,0,30,363.46l-.68-.31.94-1.68A13.4,13.4,0,0,1,40.15,355l.76-.09V376h-.68a6.88,6.88,0,0,0,0,13.75h38a6.87,6.87,0,0,0,7.2-6.58A6.89,6.89,0,0,0,78.79,376h-.6l-.69,0-.09-.69V354.9l.76.09A13.46,13.46,0,0,1,88,361.42l1,1.74-.68.3a4.81,4.81,0,0,0-2.88,4.38.77.77,0,0,0,1.53,0,3.27,3.27,0,1,1,6.53,0,.77.77,0,0,0,.77.76.76.76,0,0,0,.76-.76A4.77,4.77,0,0,0,91,363.13Zm-48.52-8.37h33.4V376H42.48Zm35.66,22.85A5.29,5.29,0,0,1,82,379a5.36,5.36,0,0,1-3.27,9.34H40.13a5.36,5.36,0,0,1-3.72-1.78,5.35,5.35,0,0,1,3.68-8.91Z"/><path fill="none" stroke="#f12535" stroke-miterlimit="10" stroke-width=".5" stroke-dasharray="12" d="M0,390.41H567.82V.25H822.94V390.41h590.31"/></svg>