<svg xmlns="http://www.w3.org/2000/svg" viewBox="0 0 79.75 79.75"><path fill="#164c9b" d="M22.19,0H.84A.85.85,0,0,0,0,.84V22.19A.85.85,0,0,0,.84,23a.85.85,0,0,0,.84-.84V1.68H22.19A.85.85,0,0,0,23,.84.85.85,0,0,0,22.19,0Z"/><path fill="#164c9b" d="M78.91,23a.84.84,0,0,0,.84-.84V.84A.84.84,0,0,0,78.91,0H57.56a.85.85,0,0,0-.84.84.85.85,0,0,0,.84.84H78.07V22.19A.85.85,0,0,0,78.91,23Z"/><path fill="#164c9b" d="M78.91,56.72a.85.85,0,0,0-.84.84V78.07H57.56a.84.84,0,0,0,0,1.68H78.91a.83.83,0,0,0,.84-.84V57.56A.84.84,0,0,0,78.91,56.72Z"/><path fill="#164c9b" d="M.84,56.72a.85.85,0,0,0-.84.84V78.91a.84.84,0,0,0,.84.84H22.19a.84.84,0,0,0,0-1.68H1.68V57.56A.85.85,0,0,0,.84,56.72Z"/><path fill="#164c9b" d="M35.36,46.53A7.69,7.69,0,0,0,43,38.85V22a.93.93,0,0,0-1.86,0V38.85a5.83,5.83,0,0,1-5.82,5.82H32a.93.93,0,1,0,0,1.86Z"/><path fill="#164c9b" d="M39.58,64.25A14.73,14.73,0,0,0,52.2,57a.93.93,0,0,0-.34-1.27.91.91,0,0,0-.7-.11.93.93,0,0,0-.57.44,12.78,12.78,0,0,1-22,0,1,1,0,0,0-.58-.44l-.23,0A.93.93,0,0,0,27,57,14.7,14.7,0,0,0,39.58,64.25Z"/><path fill="#164c9b" d="M21.1,27V22a.93.93,0,0,0-1.86,0V27a.93.93,0,0,0,1.86,0Z"/><path fill="#164c9b" d="M59,28a.93.93,0,0,0,.93-.93V22a.93.93,0,1,0-1.86,0V27A.93.93,0,0,0,59,28Z"/></svg>