<svg xmlns="http://www.w3.org/2000/svg" viewBox="0 0 1448.92 676.02"><defs><style>.cls-2{fill:#164c9b}</style></defs><g id="Слой_2" data-name="Слой 2"><g id="Layer_1" data-name="Layer 1"><path fill="none" stroke="#f12535" stroke-miterlimit="10" stroke-width=".5" stroke-dasharray="12" d="M1448.88 628.11L134.65 455.71 1073.39 234.45 0.05 0.24"/><path class="cls-2" d="M1288.75,672.86l.15.12c2.26,1.85,4.39,3.6,7.34,2.88l1.38-1.05a11.37,11.37,0,0,0,1-4.6l0-.39a3.39,3.39,0,0,0-1.85-3.4c-2.47-1.47-3.52-3.41-3.12-5.75a5.45,5.45,0,0,1,4.53-4.57,3.45,3.45,0,0,0,2.8-3.06c.14-.79.25-1.63.38-2.74a3.73,3.73,0,0,0-1-3.15,3.64,3.64,0,0,0-3.09-1,14.72,14.72,0,0,0-9.85,5.17,2.7,2.7,0,0,1-3.15,1,24.21,24.21,0,0,1-7.22-3,9.77,9.77,0,0,1-2.79-2.86,1.64,1.64,0,0,1-.26-1.63,1.62,1.62,0,0,1,1.45-.75c1.28-.07,2.59-.19,3.7-.31a91.62,91.62,0,0,0,31.36-9.05,1.5,1.5,0,0,0,.79-.73.68.68,0,0,0-.08-.54c-.14-.27-.37-.72-1.47-.18a90.17,90.17,0,0,1-54.69,8.24,38.56,38.56,0,0,1-23.77-61.87l.17-.19.07-.07a1.71,1.71,0,0,0,.47-1.14.62.62,0,0,0-.28-.42c-.22-.16-.68-.51-1.52.55a37.6,37.6,0,0,0-5.35,8.79c-5.14,12.14-4.63,24.18,1.52,35.8a4.83,4.83,0,0,1,.25.58l6.09,8.13a1.67,1.67,0,0,1,.45.3A40.06,40.06,0,0,0,1258,643.67a2,2,0,0,1,2.06,2,20.54,20.54,0,0,0,8.22,14.09c3.74,2.86,8.36,4.8,14.55,6.13a2.62,2.62,0,0,1,2.12,1.71A12.78,12.78,0,0,0,1288.75,672.86Zm-4-17.11a15.91,15.91,0,0,0-1,7.3l.1,1.16-1.16-.15a30.87,30.87,0,0,1-14.94-6.93,19.08,19.08,0,0,1-5.93-11l0-.15a1.5,1.5,0,0,1,.22-1.37,1.6,1.6,0,0,1,1.33-.47c2.22.1,4.47.14,6.65.18h.5a1.64,1.64,0,0,1,1.65,1.19c.92,2.8,2.92,4.81,6.47,6.52a27.47,27.47,0,0,0,5,1.77l.11,0a1.4,1.4,0,0,1,1,.69A1.33,1.33,0,0,1,1284.76,655.75Zm3.91,14.7a14.5,14.5,0,0,1-2.39-13.8,13.28,13.28,0,0,1,9.62-8.54c1.46-.35,2.54-.55,3.28.12s.64,1.73.44,3.18l0,.2c0,1.68-.76,2.65-2.52,3.16a6.6,6.6,0,0,0-4.93,5.46c-.53,2.94.41,5.33,2.65,6.74a4.06,4.06,0,0,1,2,5.11v.11a2.77,2.77,0,0,1-.86,1.91,1.37,1.37,0,0,1-.2.13,1.73,1.73,0,0,1-.65.19,3.69,3.69,0,0,1-1.67-.44,13.2,13.2,0,0,1-4.68-3.52Z"/><path class="cls-2" d="M1258.46,565.2a50.66,50.66,0,0,1,15.69,1.52,90.69,90.69,0,0,1,41.5,21c6.48,5.81,10.87,11.4,13.81,17.58.11.23.21.47.32.7l0,.12c.08.19.16.38.25.57,3.16,6.55-.4,11.37-3.35,14.43a51.86,51.86,0,0,1-9.32,7.75c-.31.2-.66.43-1,.67-.49.38-.6.78-.32,1.19a.78.78,0,0,0,1.19.19,54.28,54.28,0,0,0,8.68-6.72,32.09,32.09,0,0,0,5.58-6.9c1.86-3.18,1.87-6.62,0-11.16a47.1,47.1,0,0,0-5.93-10.08,83.21,83.21,0,0,0-28.19-22.77,87.19,87.19,0,0,0-11.33-4.86c-.41-.14-1.18-.4-1.33-1.17a1.76,1.76,0,0,1,.76-1.6c.17-.15.35-.3.54-.44a11.62,11.62,0,0,1,5.15-2c.7-.12,1.4-.2,2.1-.25,1.25-.08,2.49-.07,3.71-.06a2.32,2.32,0,0,1,2.31,1.57,15,15,0,0,0,8.08,7.83,3.54,3.54,0,0,0,5.13-2.82c0-.23.07-.46.1-.74v0c0-.34.09-.73.16-1.11a4,4,0,0,0-2.22-4.87,5,5,0,0,1-2.64-5.33,5,5,0,0,1,4-4.5,4,4,0,0,0,3.44-4c0-.39.1-.78.15-1.16v0c0-.33.1-.68.13-1a3.65,3.65,0,0,0-1-2.93,3.54,3.54,0,0,0-2.88-1,15,15,0,0,0-10.36,5.57,2.78,2.78,0,0,1-2.57,1.11c-6.71-.43-12,.3-16.5,2.32a20.3,20.3,0,0,0-10.84,10.9,2.1,2.1,0,0,1-2.59,1.4,40.26,40.26,0,0,0-25.91,3.87,39.61,39.61,0,0,0-7,4.6c-.77.64-.64,1-.4,1.36a.74.74,0,0,0,.47.33,1.49,1.49,0,0,0,1-.42A39.13,39.13,0,0,1,1258.46,565.2Zm46.24-17.72a14.23,14.23,0,0,1,6-2.86c1.3-.27,2.18-.31,2.81.27s.64,1.44.45,2.82c0,.09,0,.18-.06.36a1.76,1.76,0,0,0,0,.31,2.85,2.85,0,0,1-2.44,3,6.67,6.67,0,0,0-5,5.63,6.37,6.37,0,0,0,3,6.86c1.74,1.12,2.26,2.37,1.75,4.17a2.53,2.53,0,0,0-.05.38c0,.11,0,.21,0,.32a2.82,2.82,0,0,1-.87,2l-.19.13a1.73,1.73,0,0,1-.66.19,3.69,3.69,0,0,1-1.69-.45h0a13.69,13.69,0,0,1-8-11A13.19,13.19,0,0,1,1304.7,547.48Zm-31.37,15.22a18.45,18.45,0,0,1,5.12-6.57c6-4.84,13.06-5.3,19.75-5.09l1.29.05-.43,1.22a16.41,16.41,0,0,0-1,7.51,1.3,1.3,0,0,1-.33,1.1l-.13.11a1.45,1.45,0,0,1-1,.24h-.08a34.52,34.52,0,0,0-4.22.17c-3,.36-6.82,1.22-9.17,4.73a1.52,1.52,0,0,1-1.19.73,2.47,2.47,0,0,1-.85-.12l-1.55-.4c-1.56-.41-3.32-.87-5-1.25a1.51,1.51,0,0,1-1.13-2.42Z"/><path class="cls-2" d="M1246.33,630.21a6.24,6.24,0,0,0,5.89.44,6.17,6.17,0,0,0,3.24-4.86c2.18-15.6,4.28-30.83,6.27-45.25a6.08,6.08,0,0,0-1.81-5.47,5.85,5.85,0,0,0-4.36-1.42,7.23,7.23,0,0,0-1.28.2,30.41,30.41,0,0,0-11.17,5.31,30.78,30.78,0,0,0-9.46,11.94,30.47,30.47,0,0,0,.87,26.87,33.78,33.78,0,0,0,2.73,4.22A30.43,30.43,0,0,0,1246.33,630.21Zm-6.94-8h0a28.35,28.35,0,0,1-6.51-21.57,30.75,30.75,0,0,1,12.38-21l.06,0a28.24,28.24,0,0,1,9.27-4.14,4.57,4.57,0,0,1,4.26.79,4.51,4.51,0,0,1,1.24,4.13q-3.12,22.62-6.26,45.24a4.69,4.69,0,0,1-1.7,3.2,4.23,4.23,0,0,1-.62.37,3.66,3.66,0,0,1-1.42.38,5,5,0,0,1-2.83-.73A29.32,29.32,0,0,1,1239.39,622.24Z"/><path class="cls-2" d="M1269,604.75a18.59,18.59,0,1,0,21-16.06,18,18,0,0,0-3.66-.13,18.84,18.84,0,0,0-10.15,3.86A18.45,18.45,0,0,0,1269,604.75Zm1.63.16a17,17,0,0,1,6.63-11.25,17,17,0,1,1,20.51,27.05h0a17.27,17.27,0,0,1-9.23,3.49,17.78,17.78,0,0,1-3.34-.11,17.12,17.12,0,0,1-14.57-19.18Z"/><path class="cls-2" d="M1247.45,605.76c-.4-.49,0-1,.39-1.37,1.66-1.49,1.88-3.36.63-5.39-.33-.53-.3-1,.07-1.27a.7.7,0,0,1,.4-.16,1.1,1.1,0,0,1,.88.49,5.53,5.53,0,0,1-.84,7.53C1248.74,605.79,1247.94,606.36,1247.45,605.76Z"/><path class="cls-2" d="M1251.44,588.05a.68.68,0,0,1-.8.69,21.61,21.61,0,0,1-2.23-.29l-.56-.1a.44.44,0,0,1-.27-.21.71.71,0,0,1-.17-.87.69.69,0,0,1,.56-.47h.1a19.47,19.47,0,0,1,2.77.37C1251.34,587.29,1251.5,587.54,1251.44,588.05Z"/><path class="cls-2" d="M1247.15,616.44l0,0a7,7,0,0,1-3.34-.5c-.35-.15-.33-.51-.25-.79,0-.06.17-.61.67-.58a17.66,17.66,0,0,1,3,.41c.23,0,.38.23.42.55a.76.76,0,0,1-.32.81l-.1.06h0Z"/><path class="cls-2" d="M1287.12,600.05a7.23,7.23,0,0,0-3.9,1.47h0a7.13,7.13,0,0,0,8.59,11.39,7.16,7.16,0,0,0,1.43-10.08A7.08,7.08,0,0,0,1287.12,600.05Zm4.84,3.84a5.56,5.56,0,0,1-1.12,7.72,5.43,5.43,0,0,1-2.94,1.11,5.37,5.37,0,0,1-1.13,0,5.55,5.55,0,0,1-3.69-2.23,5.47,5.47,0,0,1,1.18-7.66,5.52,5.52,0,0,1,4.08-1A5.44,5.44,0,0,1,1292,603.89Z"/><path class="cls-2" transform="rotate(-8.07 1358.135 603.986)" d="M1345.37 603.27H1370.8899999999999V604.6999999999999H1345.37z"/><path class="cls-2" transform="rotate(-81.57 1368.076 617.102)" d="M1367.35 604.35H1368.78V629.87H1367.35z"/></g></g></svg>