<svg xmlns="http://www.w3.org/2000/svg" viewBox="0 0 103.42 91.69"><path d="M73.68,32.42,77,29.88l-4.16-7.21L69,24.31l-3-1.64-.51-4H57.11l-.51,4-3.05,1.7L49.68,22.7,45.51,29.9l3.36,2.53v3.5l-3.36,2.54,4.16,7.21L53.56,44l3,1.73L57.11,50h8.32L66,45.77,69,44l3.88,1.65L77,38.47l-3.36-2.54Zm-12.4,6.94a5.19,5.19,0,1,1,5.19-5.19A5.19,5.19,0,0,1,61.28,39.36Z" fill="#ee1944" id="it-gear"/><g class="it-lines" id="it-lines"><g id="it-lines-1" data-x="-80" data-y="-80"><path d="M38.66 59.94L27.73 49.01 27.2 49.54 38.35 60.69 53.15 60.69 53.15 59.94 38.66 59.94z"/><path d="M25.28,43.08a3.67,3.67,0,1,0,3.67,3.67A3.67,3.67,0,0,0,25.28,43.08Zm0,6.59a2.92,2.92,0,1,1,2.92-2.92A2.92,2.92,0,0,1,25.28,49.66Z" fill="#ee1944"/></g><g id="it-lines-2" data-x="-80" data-y="0"><path d="M36.29 69.57H53.019999999999996V70.32H36.29z"/><path d="M32.85,66.59A3.39,3.39,0,1,0,36.24,70,3.39,3.39,0,0,0,32.85,66.59Zm0,6A2.64,2.64,0,1,1,35.49,70,2.64,2.64,0,0,1,32.85,72.62Z" fill="#ee1944"/></g><g id="it-lines-3" data-x="-30" data-y="-30"><path d="M24.89 16.25L14.84 6.19 14.31 6.72 24.58 17 38.22 17 38.22 16.25 24.89 16.25z"/><path d="M12.55.53A3.41,3.41,0,1,0,16,3.94,3.41,3.41,0,0,0,12.55.53Zm0,6.07a2.66,2.66,0,1,1,2.66-2.66A2.66,2.66,0,0,1,12.55,6.6Z" fill="#ee1944"/></g><g id="it-lines-4" data-x="-100" data-y="0"><path d="M45.92 8.44L45.92 7.69 30.69 7.69 24.98 21.8 6.73 21.8 6.73 22.55 25.48 22.55 31.19 8.44 45.92 8.44z"/><path d="M3.41,18.77a3.41,3.41,0,1,0,3.41,3.41A3.41,3.41,0,0,0,3.41,18.77Zm0,6.07a2.66,2.66,0,1,1,2.66-2.66A2.66,2.66,0,0,1,3.41,24.84Z" fill="#ee1944"/></g></g><path d="M80.45,5.74C70.58-1.59,58.9.1,57.57.32l.14.74C59,.84,70.37-.81,80,6.34,87.65,12,92.22,21.69,93.58,35.07L102.37,52l-7.6,3L97,58.44,93,60.76l3.78,2.3-2.34,3,.13.22c.11.2,2.79,4.86,1.15,7.62C94.87,75.28,93,76,90,75.86c-10.68-.37-14.14,0-14.5,0l-.33,0v15H48.1v.75H75.94V76.59h.12c1.29-.09,5.23-.27,13.93,0,3.22.11,5.37-.68,6.38-2.36,1.63-2.74-.33-6.88-1-8.09l0-.07,2.56-3.23-3.44-2.09L98,58.7l-2.11-3.36,7.53-3-9.1-17.44C92.93,21.36,88.26,11.54,80.45,5.74Z"/><g class="it-lightning" fill="transparent" id="it-lightning"><path d="M27,18.39a10.06,10.06,0,0,0-3.12-7.33h0a10.12,10.12,0,0,0-7.07-2.84h-.39A10.27,10.27,0,0,0,6.7,18.36a10.14,10.14,0,0,0,2.36,6.53,16,16,0,0,1,3.7,10.19,1.62,1.62,0,0,0,.15,1,.33.33,0,0,0,.28.1h7.38a.34.34,0,0,0,.29-.11,1.48,1.48,0,0,0,.14-1,16.59,16.59,0,0,1,3.84-10.44A10.08,10.08,0,0,0,27,18.39ZM20.13,34.87v.49h-6.5v-.49a16.87,16.87,0,0,0-3.9-10.53,9.3,9.3,0,0,1-2.15-6A9.41,9.41,0,0,1,16.5,9.09a9.3,9.3,0,0,1,7.66,15.08A17.51,17.51,0,0,0,20.13,34.87Z"/><path d="M26.52,7.83,28.8,5.55a.41.41,0,0,0,.13-.3.43.43,0,0,0-.13-.31h0a.42.42,0,0,0-.6,0L25.92,7.21a.43.43,0,0,0-.13.31.41.41,0,0,0,.12.29.51.51,0,0,0,.32.13A.4.4,0,0,0,26.52,7.83Z"/><path d="M20.6,38.5H13.15a.43.43,0,1,0,0,.86H20.6a.43.43,0,0,0,.43-.43A.44.44,0,0,0,20.6,38.5Z"/><path d="M19.19,42H14.56a.43.43,0,1,0,0,.86h4.63a.43.43,0,0,0,.43-.43A.44.44,0,0,0,19.19,42Z"/><path d="M16.87,4.08a.43.43,0,0,0,.43-.43V.43A.43.43,0,0,0,16.87,0a.44.44,0,0,0-.43.43V3.65A.43.43,0,0,0,16.87,4.08Z"/><path d="M5.55,4.95a.43.43,0,0,0-.31-.13.57.57,0,0,0-.3.13.43.43,0,0,0,0,.61L7.21,7.83A.43.43,0,0,0,8,7.52a.41.41,0,0,0-.12-.29Z"/><path d="M.43,17.3H3.65a.43.43,0,0,0,0-.86H.43a.43.43,0,0,0-.43.43A.44.44,0,0,0,.43,17.3Z"/></g></svg>