<svg xmlns="http://www.w3.org/2000/svg" viewBox="0 0 1400.25 175.23"><g id="39811cac-f5b5-4eb2-8409-1313a3424b16" data-name="Layer 2"><g id="4918738f-539a-4ff0-a506-3943c9d7a288" data-name="Layer 1"><path d="M.25,174.79s.85-.49,2.64-1.41" fill="none" stroke="#ee1944" stroke-miterlimit="10"/><path d="M8.28,170.73c53-25.28,382.34-160.25,1386-170.17" fill="none" stroke="#ee1944" stroke-miterlimit="10" stroke-dasharray="6.01 6.01"/><path d="M1397.25.53l3,0" fill="none" stroke="#ee1944" stroke-miterlimit="10"/><path d="M81.9,122.12l-2-.7,2.07-.56c8.68-2.34,17-1.63,21.07,1.8l.82.68-1,.42a70,70,0,0,0-9.76,5.14l-.46.29-.37-.39A25.82,25.82,0,0,0,81.9,122.12ZM99.83,146.6l-.52.08-6.14-16.16.44-.29A74.66,74.66,0,0,1,108,123c12.43-4.73,25.44-2.28,30.46-1l.91.23-.53.77c-2.91,4.29-11,14.76-23.44,19.49A74.69,74.69,0,0,1,99.83,146.6Z"/><path d="M117.75,135.07a4.32,4.32,0,1,1-2.95-8.12,4.32,4.32,0,0,1,2.95,8.12Z"/><path d="M70.36,138.48a.56.56,0,0,0,0,.11.57.57,0,0,0,.62.35l13.45-2.29a.57.57,0,0,0,.23-1,.56.56,0,0,0-.26-.1h-.16l-13.45,2.29A.57.57,0,0,0,70.36,138.48Z"/><path d="M76.21,154.65l0,.08a.57.57,0,0,0,.77.21l11.79-6.88a.56.56,0,0,0-.57-1L76.46,154A.56.56,0,0,0,76.21,154.65Z"/></g></g></svg>