<svg xmlns="http://www.w3.org/2000/svg" viewBox="0 0 1400.25 175.23"><path d="M8.28,170.73c53-25.28,382.34-160.25,1386-170.17" fill="none" stroke="#ee1944" stroke-miterlimit="10" stroke-dasharray="6.01 6.01"/><path d="M.25,174.79s.85-.49,2.64-1.41" fill="none" stroke="#ee1944" stroke-miterlimit="10"/><path d="M8.28,170.73c53-25.28,382.34-160.25,1386-170.17" fill="none" stroke="#ee1944" stroke-miterlimit="10" stroke-dasharray="6.01 6.01"/><path d="M1397.25.53l3,0" fill="none" stroke="#ee1944" stroke-miterlimit="10"/><path fill="#ededf6" d="M92.56 129.75L98.7 147.2 113.04 143.84 123.64 139.08 133.26 131.22 140.14 122.31 124.5 119.95 111.45 121.27 98.89 126.21 92.56 129.75z"/><path d="M140.86,122.55a.6.6,0,0,0,0-.48.61.61,0,0,0-.35-.36c-.68-.23-16.92-5.66-32.79.1-.71.26-1.47.55-2.45.94l-.41.16-.31-.32C99.87,117.64,89,117,78,120.92l-.41.15a.56.56,0,0,0,.08,1.08,25.2,25.2,0,0,1,13.45,7.14l.54.55-.63.45c-1.1.78-2.08,1.53-2.92,2.24l-.11.12a.54.54,0,0,0-.09.12l0,0a.62.62,0,0,0,0,.15V133a.58.58,0,0,0,0,.2l5.19,14.3a1,1,0,0,0,.3.32l.11,0h0l.07,0,.14.06c1,0,2.24,0,3.64-.16l.77-.06-.06.77a25.2,25.2,0,0,1-5.74,14.11.56.56,0,0,0-.08.54.54.54,0,0,0,.07.13.57.57,0,0,0,.65.21l.41-.15c10.93-4,18.86-11.5,19.29-18.32l0-.44.42-.14c.69-.23,1.6-.53,2.48-.85C131.46,137.78,140.48,123.17,140.86,122.55Zm-59-.43-2-.7,2.07-.56c8.68-2.34,17-1.63,21.07,1.8l.82.68-1,.42a70,70,0,0,0-9.76,5.14l-.46.29-.37-.39A25.82,25.82,0,0,0,81.9,122.12Zm15.19,24.51c-.9.07-1.78.11-2.59.12H94l0-.07-4.9-13.49.36-.29c.64-.52,1.34-1.05,2.07-1.57l.7-.5,0,.12L98,146.56Zm14.36-.72c-1,5.28-6.84,11.13-15,14.9l-1.94.9,1.11-1.83a25.81,25.81,0,0,0,3.65-11.78l0-.54.54-.07a70.23,70.23,0,0,0,10.79-2.32l1-.31Zm-11.82.45-.52.07-5.9-16.25.45-.28a74.66,74.66,0,0,1,14.48-7c12.5-4.54,25.47-1.9,30.47-.55l.9.24-.54.77c-3,4.24-11.23,14.59-23.73,19.13A74.69,74.69,0,0,1,99.63,146.37Z"/><path d="M118.58,126.07a5.41,5.41,0,0,0-4.16-.19,5.46,5.46,0,0,0-3.26,7h0a5.45,5.45,0,1,0,7.42-6.79Zm-.83,9a4.32,4.32,0,1,1-2.95-8.12,4.32,4.32,0,0,1,2.95,8.12Z"/><path d="M73.32,146.18a.56.56,0,0,0,.7.77l12.62-4.58a.56.56,0,0,0-.13-1.09.55.55,0,0,0-.25,0l-12.62,4.58A.56.56,0,0,0,73.32,146.18Z"/><path d="M70.36,138.48a.56.56,0,0,0,0,.11.57.57,0,0,0,.62.35l13.45-2.29a.57.57,0,0,0,.23-1,.56.56,0,0,0-.26-.1h-.16l-13.45,2.29A.57.57,0,0,0,70.36,138.48Z"/><path d="M76.21,154.65l0,.08a.57.57,0,0,0,.77.21l11.79-6.88a.56.56,0,0,0-.57-1L76.46,154A.56.56,0,0,0,76.21,154.65Z"/><g fill="#ededf6" stroke="#000" stroke-miterlimit="10"><path d="M305.82,110.75a24.88,24.88,0,0,1-.52-49.41c.45-16.84,1.33-33.72,2-50.43h-19.7L285,31.38l-14.5,8.36-18.63-7.9-20,34.57L248,78.6V95.42l-16.12,12.18,20,34.58,18.63-7.87,14.63,7.84,2.43,19h18.59C306.6,144.38,306.5,127.32,305.82,110.75Z"/><path d="M367,78.58,383.14,66.4l-20-34.58-18.62,7.88-11-6.3-3.52-2L327.5,10.92H307.26c-.63,16.71-1.51,33.59-2,50.43a24.88,24.88,0,1,1,.52,49.41c.67,16.57.78,33.63.33,50.36h21.34l2.43-19L344.55,134l18.62,8,20-34.51L367,95.38Z"/><path d="M367,78.58,383.14,66.4l-20-34.58-18.62,7.88-11-6.3-3.52-2L327.5,10.92H287.56L285,31.38l-14.5,8.36-18.63-7.9-20,34.57L248,78.6V95.42l-16.12,12.18,20,34.58,18.63-7.87,14.63,7.84,2.43,19h39.93l2.43-19L344.55,134l18.62,8,20-34.51L367,95.38Zm-58.5,32.32A24.88,24.88,0,1,1,333.4,86,24.88,24.88,0,0,1,308.52,110.9Z"/></g></svg>