<svg xmlns="http://www.w3.org/2000/svg" viewBox="0 0 162.24 113.21"><defs><style>.cls-1{fill:#164c9b}</style></defs><g id="Слой_2" data-name="Слой 2"><g id="Layer_1" data-name="Layer 1"><path class="cls-1" d="M162.15,4.29a1.44,1.44,0,0,0-.06-1.13,1.47,1.47,0,0,0-.92-.75c-1.67-.37-41.37-9-77.28,8.72-1.61.79-3.32,1.67-5.53,2.85l-.93.5-.81-.69c-12.38-10.46-38.3-9.26-63,2.92l-.92.45a1.35,1.35,0,0,0-.72,1.45,1.06,1.06,0,0,0,.12.34,1.31,1.31,0,0,0,1.08.74A59.77,59.77,0,0,1,46.69,33.05l1.42,1.16-1.37,1.21c-2.39,2.12-4.51,4.15-6.31,6l-.23.3a1.52,1.52,0,0,0-.17.3.65.65,0,0,1,0,.1,1.56,1.56,0,0,0,0,.36v.16a1.21,1.21,0,0,0,.12.46L56,75.51a2.37,2.37,0,0,0,.78.69l.28,0h0l.16-.08.35.1c2.46-.26,5.26-.69,8.55-1.32L68,74.59,68,76.42a59.83,59.83,0,0,1-9.88,34.75,1.31,1.31,0,0,0,0,1.29,1.57,1.57,0,0,0,.2.3,1.34,1.34,0,0,0,1.6.31l.91-.45c24.74-12.18,41.5-32,40.74-48.19l0-1.06,1-.43c1.56-.72,3.62-1.66,5.63-2.65C143.93,42.65,161.42,5.85,162.15,4.29ZM23,18.54l-5-1.12,4.73-1.85C42.67,7.81,62.36,7.34,73,14.37l2.11,1.41L72.85,17A166.83,166.83,0,0,0,51.17,31.67l-1,.81-1-.84A61.19,61.19,0,0,0,23,18.54ZM65.18,72.39c-2.11.39-4.16.71-6.08,1l-1.1.14-.08-.15-15-30.53.78-.78c1.37-1.4,2.88-2.83,4.47-4.25l1.53-1.36.13.28L67.2,72ZM98.86,67C98,79.67,85.61,95,67.35,106L63,108.62,65.13,104a61.11,61.11,0,0,0,5.55-28.72L70.62,74l1.25-.31A166.57,166.57,0,0,0,96.7,65.44l2.34-1ZM71.11,71.11l-1.22.31L51.78,34.64l1-.79A177.41,177.41,0,0,1,85.08,13.53C113.37-.4,144.65,2.47,156.79,4.35l2.19.34-1.07,1.95c-5.9,10.77-22.7,37.31-51,51.24A177,177,0,0,1,71.11,71.11Z"/><path class="cls-1" d="M110.54,18.37a12.79,12.79,0,0,0-9.86.63A13,13,0,0,0,94.8,36.3h0a12.92,12.92,0,1,0,15.74-17.93Zm.37,21.41a10.16,10.16,0,0,1-4.51,1.06,10.4,10.4,0,0,1-3.31-.55,10.25,10.25,0,1,1,7.82-.51Z"/><path class="cls-1" d="M9,77.49a1.34,1.34,0,0,0,.07,1,1.36,1.36,0,0,0,.77.68,1.34,1.34,0,0,0,1-.07L39.44,65.05a1.36,1.36,0,0,0,.68-.77,1.29,1.29,0,0,0-.07-1,1.32,1.32,0,0,0-1.2-.75,1.35,1.35,0,0,0-.59.14L9.69,76.72A1.36,1.36,0,0,0,9,77.49Z"/><path class="cls-1" d="M.05,60.1a1,1,0,0,0,.09.25A1.32,1.32,0,0,0,1.69,61l31.13-8.87a1.34,1.34,0,0,0,.92-1.65,1.29,1.29,0,0,0-.63-.81,1.3,1.3,0,0,0-.64-.17,1.14,1.14,0,0,0-.37,0L1,58.44A1.35,1.35,0,0,0,.05,60.1Z"/><path class="cls-1" d="M18,96.7a1.62,1.62,0,0,0,.1.18,1.37,1.37,0,0,0,1.89.29L46,77.9a1.32,1.32,0,0,0,.53-.87,1.32,1.32,0,0,0-1.32-1.52,1.31,1.31,0,0,0-.79.26L18.44,95A1.32,1.32,0,0,0,18,96.7Z"/></g></g></svg>