<svg xmlns="http://www.w3.org/2000/svg" viewBox="0 0 290.16 138.37"><g id="59789374-3de3-415d-845e-6d8e7f72d8fe" data-name="Layer 2"><g id="a0147143-26d9-4a1e-91d9-aa28dcb687ff" data-name="Layer 1"><path d="M143.34,27.94h4V61.77h-4V46.45H132.62V61.77h-4V27.94h4V42.73h10.73Z"/><path d="M171.23,59.38a10.47,10.47,0,0,1-14.72,0q-2.68-3-2.68-8.24V38.52q0-5.22,2.68-8.22a10.53,10.53,0,0,1,14.72,0q2.66,3,2.66,8.22V51.14Q173.89,56.36,171.23,59.38Zm-7.35-.85a5.32,5.32,0,0,0,4.42-1.91,8.62,8.62,0,0,0,1.52-5.48V38.52a8.54,8.54,0,0,0-1.52-5.44,5.32,5.32,0,0,0-4.42-1.91,5.38,5.38,0,0,0-4.47,1.91,8.53,8.53,0,0,0-1.52,5.44V51.14a8.62,8.62,0,0,0,1.52,5.48A5.37,5.37,0,0,0,163.88,58.53Z"/><path d="M194.09,44.32a6.86,6.86,0,0,1,3.77,2.85,9.2,9.2,0,0,1,1.35,5.12,9.24,9.24,0,0,1-2.59,7,9.78,9.78,0,0,1-7.08,2.49h-9.23V27.94h8.6a8.92,8.92,0,0,1,6.6,2.39,8.91,8.91,0,0,1,2.39,6.6,9.86,9.86,0,0,1-1,4.64A6,6,0,0,1,194.09,44.32Zm-5.46-12.66h-4.35v11h4.45q5.12,0,5.12-5.61Q193.85,31.66,188.63,31.66ZM189.21,58q6,0,6-5.75a5.64,5.64,0,0,0-1.69-4.42,6.68,6.68,0,0,0-4.64-1.52h-4.59V58Z"/><path d="M218.59,61.77l-1.79-7.35H207l-1.79,7.35H201l8.7-33.83H214l8.7,33.83Zm-10.73-11h8.07L213.18,39.3Q212.5,36.49,212,33h-.15q-.53,3.53-1.21,6.33Z"/><path d="M241.11,27.94v3.72h-7.25V61.77h-4V31.66H222.6V27.94Z"/><path d="M262.27,59.38a10.47,10.47,0,0,1-14.72,0q-2.68-3-2.68-8.24V38.52q0-5.22,2.68-8.22a10.53,10.53,0,0,1,14.72,0q2.66,3,2.66,8.22V51.14Q264.93,56.36,262.27,59.38Zm-7.35-.85a5.32,5.32,0,0,0,4.42-1.91,8.62,8.62,0,0,0,1.52-5.48V38.52a8.54,8.54,0,0,0-1.52-5.44,5.32,5.32,0,0,0-4.42-1.91,5.38,5.38,0,0,0-4.47,1.91,8.53,8.53,0,0,0-1.52,5.44V51.14a8.62,8.62,0,0,0,1.52,5.48A5.37,5.37,0,0,0,254.93,58.53Z"/><path d="M279.91,27.94q4.83,0,7.44,2.78t2.61,7.9q0,5.22-2.61,8t-7.44,2.8h-4.59V61.77h-4V27.94Zm0,17.74q6,0,6-7.06t-6-6.91h-4.59v14Z"/><path d="M149.82,79.55h4.11v33.83H150V97.87q.1-5.8.34-10.25l-.19,0q-.53,1.5-1.81,4.83t-1.57,4.06l-3.53,9.13h-3.91l-3.58-9.13q-.48-1.31-1.67-4.4t-1.67-4.49l-.24,0q.34,5.75.34,10.25v15.51h-3.91V79.55h4.16l5.85,14.16q1.6,3.91,2.56,7.1h.19q1.26-3.72,2.61-7.1Z"/><path d="M178.82,111a10.47,10.47,0,0,1-14.72,0q-2.68-3-2.68-8.24V90.14q0-5.22,2.68-8.22a10.53,10.53,0,0,1,14.72,0q2.66,3,2.66,8.22v12.61Q181.47,108,178.82,111Zm-7.35-.85a5.32,5.32,0,0,0,4.42-1.91,8.62,8.62,0,0,0,1.52-5.48V90.14a8.54,8.54,0,0,0-1.52-5.44,5.32,5.32,0,0,0-4.42-1.91A5.38,5.38,0,0,0,167,84.7a8.53,8.53,0,0,0-1.52,5.44v12.61a8.62,8.62,0,0,0,1.52,5.48A5.37,5.37,0,0,0,171.47,110.14Z"/><path d="M197.47,114a9.14,9.14,0,0,1-6.94-2.71q-2.59-2.71-2.59-7.64V89.31q0-4.93,2.56-7.66a9,9,0,0,1,6.86-2.73,9.22,9.22,0,0,1,6.93,2.61q2.54,2.61,2.78,7.49h-3.91q-.44-6.38-5.85-6.38a5,5,0,0,0-4,1.69,7.46,7.46,0,0,0-1.45,5v14.3a7.2,7.2,0,0,0,1.5,5,5.18,5.18,0,0,0,4.06,1.67q5.36,0,5.94-6.33h3.91a11.19,11.19,0,0,1-2.85,7.44A9.37,9.37,0,0,1,197.47,114Z"/><path d="M229.32,113.38l-9.38-15.66-2.32,3.38v12.27h-4V79.55h4V95L220.13,91l7.64-11.4h4.78L222.31,94.29l11.6,19.09Z"/><path d="M252.42,95.94a6.86,6.86,0,0,1,3.77,2.85A10.58,10.58,0,0,1,255,110.89a9.78,9.78,0,0,1-7.08,2.49h-9.23V79.55h8.6a8.28,8.28,0,0,1,9,9,9.86,9.86,0,0,1-1,4.64A6,6,0,0,1,252.42,95.94ZM247,83.27h-4.35v11h4.45q5.12,0,5.12-5.61Q252.17,83.27,247,83.27Zm.58,26.39q6,0,6-5.75a5.64,5.64,0,0,0-1.69-4.42A6.68,6.68,0,0,0,247.2,98h-4.59v11.69Z"/><path d="M263.58,113.38V79.55h4.06V93.37h4.11A10.08,10.08,0,0,1,279.16,96a9.81,9.81,0,0,1,2.68,7.3q0,4.78-2.66,7.42t-7.44,2.63Zm4.06-3.72h4a6.11,6.11,0,0,0,4.52-1.62,6.38,6.38,0,0,0,1.62-4.71,6.15,6.15,0,0,0-1.62-4.62,6.22,6.22,0,0,0-4.52-1.57h-4Zm18.56,3.72V79.55h4v33.83Z"/><path d="M57.72,45.68l1.79-1.35L57.3,40.49l-2.07.87-1.62-.87-.27-2.1H48.91l-.27,2.1L47,41.4,45,40.51l-2.21,3.83,1.79,1.35v1.86L42.74,48.9,45,52.73,47,51.86l1.61.92.28,2.27h4.43l.28-2.27,1.61-.93,2.07.88,2.21-3.83-1.79-1.35Zm-6.6,3.69a2.76,2.76,0,1,1,2.76-2.76,2.76,2.76,0,0,1-2.76,2.76" fill="#e52045"/><path d="M102.16,138.37H92.83V120.13H68.64l-.29.45c-8.48,13.07-16.93,17.7-17,17.74l-.09,0H30.69V86.56L25,78.76V52.91L16.95,42V23.61l-4.53-6.16V66.29L9.75,69.9v68.47H0V0H102.16Zm-8.52-.81h7.71V.81H.81V137.56H8.95V69.63L11.61,66V15l6.15,8.36V41.76l8,10.89V78.5l5.74,7.8v33h7V98.86l1.93-9.26,1.68,8.93h1.92V77.12l2.84,3.68L51.14,59l4.28,21.77,2.78-3.62v21.4h1.93l1.79-8.93,1.82,9.27v20.45H68.2C75.74,107.38,84.6,86.19,85.48,52L84,54V47.86l1-1.36V40.86l2.12-3.1,2.14,3.09,0,5.65,1,1.36V54l-1.52-2v67.37h4.91Zm-62.13,0H51c.9-.52,8.74-5.24,16.64-17.43H62.93V98.95l-1-5.2-1.12,5.59h-3.4V79.5L55,82.66,51.15,63.2,47.38,82.72,44.89,79.5V99.34h-3.4l-1.05-5.59L39.35,99v21.14H31.5Zm37.65-18.24H87.91V49.52l1.52,2V48.13l-1-1.36,0-5.68-1.33-2-1.32,2v5.68l-1,1.36v3.43l1.57-2.07,0,1.24c-.68,34.71-9.53,56.31-17.16,68.58"/></g></g></svg>