<svg xmlns="http://www.w3.org/2000/svg" viewBox="0 0 46.31 97.16"><g id="192cde78-d6a9-43b3-ab9e-9b0c9cb581cb"><g id="332dd7e6-1149-4fef-8092-b3e4f0e387bb"><path d="M4.56,72.21h.87V82H4.56V77.44H1.07V82H.2V72.21h.87v4.41H4.56Z" fill="#fff"/><path d="M12.3,81.33a2.58,2.58,0,0,1-2.07.87,2.58,2.58,0,0,1-2.07-.87A3.48,3.48,0,0,1,7.42,79V75.25a3.48,3.48,0,0,1,.75-2.35A2.59,2.59,0,0,1,10.24,72a2.59,2.59,0,0,1,2.07.87,3.48,3.48,0,0,1,.75,2.35V79A3.48,3.48,0,0,1,12.3,81.33Zm-3.51-.59a1.73,1.73,0,0,0,1.44.62,1.73,1.73,0,0,0,1.44-.62A2.78,2.78,0,0,0,12.17,79V75.25a2.78,2.78,0,0,0-.49-1.77,1.73,1.73,0,0,0-1.44-.62,1.73,1.73,0,0,0-1.44.62,2.78,2.78,0,0,0-.49,1.77V79A2.78,2.78,0,0,0,8.79,80.74Z" fill="#fff"/><path d="M18.67,76.93a2,2,0,0,1,1.23.81,2.69,2.69,0,0,1,.45,1.6,2.59,2.59,0,0,1-.74,2,2.89,2.89,0,0,1-2.05.69H15V72.21h2.3a2.64,2.64,0,0,1,1.92.67,2.51,2.51,0,0,1,.69,1.88,2.72,2.72,0,0,1-.34,1.45A1.58,1.58,0,0,1,18.67,76.93ZM17.34,73H15.91v3.56h1.46q1.69,0,1.7-1.82A1.53,1.53,0,0,0,17.34,73Zm.22,8.18A2,2,0,0,0,19,80.75a1.89,1.89,0,0,0,.47-1.41,1.85,1.85,0,0,0-.55-1.44,2.15,2.15,0,0,0-1.51-.5h-1.5v3.81Z" fill="#fff"/><path d="M26.15,82l-.57-2.3H22.47L21.89,82H21l2.58-9.81h1L27.07,82Zm-3.49-3.08h2.72l-1-4.06q-.21-.81-.34-1.54h0q-.13.73-.34,1.54Z" fill="#fff"/><path d="M32.29,72.21V73H30.13v9h-.87V73H27.1v-.81Z" fill="#fff"/><path d="M38.33,81.33a2.89,2.89,0,0,1-4.13,0A3.48,3.48,0,0,1,33.45,79V75.25a3.48,3.48,0,0,1,.75-2.35,2.89,2.89,0,0,1,4.13,0,3.48,3.48,0,0,1,.75,2.35V79A3.48,3.48,0,0,1,38.33,81.33Zm-3.51-.59a2,2,0,0,0,2.89,0A2.78,2.78,0,0,0,38.2,79V75.25a2.78,2.78,0,0,0-.49-1.77,2,2,0,0,0-2.89,0,2.78,2.78,0,0,0-.49,1.77V79A2.78,2.78,0,0,0,34.82,80.74Z" fill="#fff"/><path d="M43.42,72.21A2.69,2.69,0,0,1,45.5,73a3.16,3.16,0,0,1,.73,2.23,3.28,3.28,0,0,1-.72,2.3,2.68,2.68,0,0,1-2.08.78H41.94V82h-.87V72.21Zm0,5.27a1.83,1.83,0,0,0,1.46-.55,2.59,2.59,0,0,0,.47-1.71q0-2.19-1.93-2.19H41.94v4.44Z" fill="#fff"/><path d="M6.26,87.18h.92V97H6.31V91.8q0-1.47.08-2.77H6.34q-.14.41-.53,1.36t-.48,1.22l-1.2,3.08H3.26l-1.2-3.08q-.1-.27-.48-1.22T1,89H1q.08,1.3.08,2.77V97H.2V87.18h.92l1.75,4.23q.34.84.78,2.19h.06q.45-1.34.78-2.19Z" fill="#fff"/><path d="M14.33,96.3a2.58,2.58,0,0,1-2.07.87,2.58,2.58,0,0,1-2.07-.87,3.48,3.48,0,0,1-.75-2.35V90.22a3.48,3.48,0,0,1,.75-2.35A2.59,2.59,0,0,1,12.27,87a2.59,2.59,0,0,1,2.07.87,3.48,3.48,0,0,1,.75,2.35v3.73A3.48,3.48,0,0,1,14.33,96.3Zm-3.51-.59a1.73,1.73,0,0,0,1.44.62,1.73,1.73,0,0,0,1.44-.62,2.78,2.78,0,0,0,.49-1.77V90.22a2.78,2.78,0,0,0-.49-1.77,1.73,1.73,0,0,0-1.44-.62,1.73,1.73,0,0,0-1.44.62,2.78,2.78,0,0,0-.49,1.77v3.73A2.78,2.78,0,0,0,10.82,95.71Z" fill="#fff"/><path d="M21.68,96.41a2.54,2.54,0,0,1-1.92.74,2.55,2.55,0,0,1-1.94-.78,3,3,0,0,1-.74-2.16V89.95a3.06,3.06,0,0,1,.72-2.16,2.47,2.47,0,0,1,1.9-.78,2.58,2.58,0,0,1,1.93.74,3.11,3.11,0,0,1,.79,2.09h-.84q-.14-2-1.88-2a1.64,1.64,0,0,0-1.3.55,2.37,2.37,0,0,0-.48,1.61v4.26a2.32,2.32,0,0,0,.5,1.61,1.72,1.72,0,0,0,1.34.55q1.69,0,1.91-2h.84A3.31,3.31,0,0,1,21.68,96.41Z" fill="#fff"/><path d="M29.06,97,26,92.2l-.7,1V97h-.87V87.18h.87v4.68l.8-1.15,2.51-3.53h1.08l-3.12,4.27L30.1,97Z" fill="#fff"/><path d="M35.19,91.9a2,2,0,0,1,1.23.81,2.69,2.69,0,0,1,.45,1.6,2.59,2.59,0,0,1-.74,2,2.89,2.89,0,0,1-2.05.69H31.56V87.18h2.3a2.64,2.64,0,0,1,1.92.67,2.51,2.51,0,0,1,.69,1.88,2.72,2.72,0,0,1-.34,1.45A1.58,1.58,0,0,1,35.19,91.9ZM33.86,88H32.43v3.56h1.46q1.69,0,1.7-1.82A1.53,1.53,0,0,0,33.86,88Zm.22,8.18a2,2,0,0,0,1.44-.46A1.89,1.89,0,0,0,36,94.31a1.85,1.85,0,0,0-.55-1.44,2.15,2.15,0,0,0-1.51-.5h-1.5v3.81Z" fill="#fff"/><path d="M38.7,97V87.18h.87v4.1H41a2.91,2.91,0,0,1,2.11.75,2.74,2.74,0,0,1,.78,2.07,2.83,2.83,0,0,1-.78,2.12A2.87,2.87,0,0,1,41,97Zm.87-.83H41a2,2,0,0,0,1.46-.53A2,2,0,0,0,43,94.1a1.94,1.94,0,0,0-.54-1.48A2,2,0,0,0,41,92.11h-1.4Zm5.67.83V87.18h.87V97Z" fill="#fff"/><path d="M26.17,20.71l.81-.61-1-1.74-.94.4-.74-.39-.12-1h-2l-.12,1-.74.41-.94-.4-1,1.73.81.61v.84l-.81.61,1,1.74.94-.4.73.42.13,1h2l.13-1,.73-.42.94.4,1-1.74-.81-.61Zm-3,1.67a1.25,1.25,0,1,1,1.25-1.25A1.25,1.25,0,0,1,23.17,22.38Z" fill="#ee1944"/><path d="M46.31,62.72H42.08V54.46h-11l-.13.2c-3.84,5.93-7.68,8-7.71,8l0,0H13.91V39.24l-2.6-3.53V24L7.68,19.05V10.7L5.63,7.91V30.05L4.42,31.68v31H0V0H46.31Zm-3.86-.37h3.5V.37H.37v62H4.06V31.56l1.21-1.63V6.8L8,10.58v8.35l3.63,4.94V35.58l2.6,3.53v15h3.19V44.82l.88-4.2.76,4H20V35l1.29,1.67,1.91-9.9,1.94,9.87L26.38,35v9.7h.87l.81-4,.83,4.2v9.27h2c3.42-5.42,7.44-15,7.83-30.53l-.69.91V21.7l.47-.62V18.52l1-1.4,1,1.4v2.56l.47.62v2.78l-.69-.92V54.09h2.23Zm-28.17,0h8.86c.41-.23,4-2.38,7.54-7.9H28.53v-9.6l-.47-2.36L27.56,45H26V36l-1.1,1.43-1.73-8.82L21.48,37.5,20.35,36v9H18.81l-.48-2.53-.5,2.37v9.58H14.28Zm17.07-8.27h8.51V22.45l.69.92V21.82l-.47-.62V18.63l-.6-.9-.6.9V21.2l-.47.62v1.56l.71-.94V23C38.82,38.73,34.81,48.53,31.35,54.09Z" fill="#fff"/></g></g></svg>