<svg xmlns="http://www.w3.org/2000/svg" viewBox="0 0 110.92 53.6"><g id="e903de1a-fda9-42c6-893b-95df139ac2dd" data-name="Layer 2"><g id="b2e7b76c-18e3-41d2-9fb2-68ae71b320c4" data-name="Слой 1"><path d="M55.48,20.4h1.16v13H55.48v-6.1H50.84v6.1H49.69v-13h1.16v5.87h4.64Z" fill="#fff"/><path d="M65.78,32.53a3.85,3.85,0,0,1-5.5,0,4.63,4.63,0,0,1-1-3.13v-5a4.63,4.63,0,0,1,1-3.13,3.85,3.85,0,0,1,5.5,0,4.63,4.63,0,0,1,1,3.13v5A4.63,4.63,0,0,1,65.78,32.53Zm-4.67-.78a2.66,2.66,0,0,0,3.84,0,3.7,3.7,0,0,0,.65-2.35v-5A3.7,3.7,0,0,0,65,22.09a2.66,2.66,0,0,0-3.84,0,3.7,3.7,0,0,0-.65,2.35v5A3.7,3.7,0,0,0,61.11,31.75Z" fill="#fff"/><path d="M74.25,26.68a2.7,2.7,0,0,1,1.64,1.07,3.57,3.57,0,0,1,.6,2.13,3.45,3.45,0,0,1-1,2.65,3.85,3.85,0,0,1-2.73.91H69.43v-13h3.06a3.52,3.52,0,0,1,2.55.89A3.33,3.33,0,0,1,76,23.79a3.62,3.62,0,0,1-.46,1.93A2.1,2.1,0,0,1,74.25,26.68Zm-1.77-5.2h-1.9v4.74h1.94q2.26,0,2.26-2.42A2,2,0,0,0,72.48,21.48Zm.3,10.89a2.65,2.65,0,0,0,1.91-.61,2.5,2.5,0,0,0,.62-1.87A2.47,2.47,0,0,0,74.58,28a2.86,2.86,0,0,0-2-.67h-2v5.07Z" fill="#fff"/><path d="M84.21,33.45l-.76-3.06H79.31l-.76,3.06H77.31l3.43-13H82l3.43,13Zm-4.64-4.1h3.62l-1.34-5.41q-.28-1.08-.45-2.05h0q-.17,1-.45,2.05Z" fill="#fff"/><path d="M92.38,20.4v1.08H89.5v12H88.35v-12H85.48V20.4Z" fill="#fff"/><path d="M100.42,32.53a3.85,3.85,0,0,1-5.5,0,4.63,4.63,0,0,1-1-3.13v-5a4.63,4.63,0,0,1,1-3.13,3.85,3.85,0,0,1,5.5,0,4.63,4.63,0,0,1,1,3.13v5A4.63,4.63,0,0,1,100.42,32.53Zm-4.67-.78a2.66,2.66,0,0,0,3.84,0,3.7,3.7,0,0,0,.65-2.35v-5a3.7,3.7,0,0,0-.65-2.35,2.66,2.66,0,0,0-3.84,0,3.7,3.7,0,0,0-.65,2.35v5A3.7,3.7,0,0,0,95.75,31.75Z" fill="#fff"/><path d="M107.2,20.4a3.58,3.58,0,0,1,2.76,1,4.2,4.2,0,0,1,1,3,4.37,4.37,0,0,1-1,3.06,3.57,3.57,0,0,1-2.77,1h-2v4.94h-1.16v-13Zm0,7a2.43,2.43,0,0,0,1.95-.73,3.44,3.44,0,0,0,.63-2.27q0-2.91-2.57-2.91h-2v5.91Z" fill="#fff"/><path d="M57.74,40.31H59v13H57.81v-6.9q0-2,.11-3.69l-.07,0q-.19.54-.7,1.81t-.64,1.62l-1.6,4.1H53.75l-1.6-4.1q-.13-.35-.64-1.62t-.7-1.81l-.07,0q.11,1.73.11,3.69v6.9H49.69v-13h1.23l2.33,5.63q.45,1.12,1,2.91h.07q.6-1.79,1-2.91Z" fill="#fff"/><path d="M68.48,52.44a3.85,3.85,0,0,1-5.5,0,4.63,4.63,0,0,1-1-3.13v-5a4.63,4.63,0,0,1,1-3.13,3.85,3.85,0,0,1,5.5,0,4.63,4.63,0,0,1,1,3.13v5A4.63,4.63,0,0,1,68.48,52.44Zm-4.67-.78a2.66,2.66,0,0,0,3.84,0,3.7,3.7,0,0,0,.65-2.35v-5A3.7,3.7,0,0,0,67.66,42a2.66,2.66,0,0,0-3.84,0,3.7,3.7,0,0,0-.65,2.35v5A3.7,3.7,0,0,0,63.81,51.66Z" fill="#fff"/><path d="M78.26,52.59a3.77,3.77,0,0,1-5.13,0,4,4,0,0,1-1-2.88V44a4.07,4.07,0,0,1,1-2.88,3.29,3.29,0,0,1,2.53-1,3.43,3.43,0,0,1,2.56,1,4.14,4.14,0,0,1,1.05,2.79H78.13q-.19-2.72-2.5-2.72a2.19,2.19,0,0,0-1.72.73A3.14,3.14,0,0,0,73.27,44v5.67a3.08,3.08,0,0,0,.66,2.14,2.29,2.29,0,0,0,1.78.73q2.25,0,2.54-2.72h1.12A4.39,4.39,0,0,1,78.26,52.59Z" fill="#fff"/><path d="M88.09,53.36,84,47l-.93,1.27v5.09H82v-13h1.16v6.23L84.17,45l3.34-4.7h1.44L84.79,46l4.68,7.36Z" fill="#fff"/><path d="M96.23,46.59a2.7,2.7,0,0,1,1.64,1.07,3.57,3.57,0,0,1,.6,2.13,3.45,3.45,0,0,1-1,2.65,3.85,3.85,0,0,1-2.73.91H91.4v-13h3.06a3.52,3.52,0,0,1,2.55.89,3.33,3.33,0,0,1,.91,2.51,3.62,3.62,0,0,1-.46,1.93A2.1,2.1,0,0,1,96.23,46.59Zm-1.77-5.2h-1.9v4.74H94.5q2.26,0,2.26-2.42A2,2,0,0,0,94.46,41.39Zm.3,10.89a2.65,2.65,0,0,0,1.91-.61,2.5,2.5,0,0,0,.62-1.87,2.47,2.47,0,0,0-.74-1.92,2.86,2.86,0,0,0-2-.67h-2v5.07Z" fill="#fff"/><path d="M100.91,53.36v-13h1.16v5.46h1.86a3.87,3.87,0,0,1,2.81,1,3.64,3.64,0,0,1,1,2.75,3.76,3.76,0,0,1-1,2.81,3.82,3.82,0,0,1-2.8,1Zm1.16-1.1h1.86a2.65,2.65,0,0,0,1.95-.71,2.73,2.73,0,0,0,.72-2,2.58,2.58,0,0,0-.72-2,2.72,2.72,0,0,0-1.95-.68h-1.86Zm7.55,1.1v-13h1.16v13Z" fill="#fff"/><path d="M22.27,17.62,23,17.1l-.85-1.48-.8.34-.63-.34-.1-.81H18.87l-.1.81-.63.35-.8-.34-.85,1.48.69.52v.72l-.69.52.85,1.48.8-.34.62.36.11.88h1.71l.11-.88.62-.36.8.34L23,18.86l-.69-.52ZM19.72,19A1.06,1.06,0,1,1,20.79,18,1.06,1.06,0,0,1,19.72,19Z" fill="#ee1944"/><path d="M39.41,53.38h-3.6v-7H26.48l-.11.17c-3.27,5-6.53,6.83-6.57,6.84l0,0H11.84v-20l-2.21-3v-10l-3.09-4.2V9.11L4.79,6.73V25.57L3.76,27V53.38H0V0H39.41Zm-3.29-.31h3V.31H.31V53.06H3.45V26.86l1-1.39V5.78L6.85,9v7.1l3.09,4.2v10l2.21,3V46h2.72V38.14l.75-3.57L16.27,38H17V29.75l1.09,1.42,1.63-8.42,1.65,8.4,1.07-1.4V38h.74l.69-3.44.7,3.57V46h1.72c2.91-4.61,6.33-12.78,6.67-26l-.58.77V18.46l.4-.52V15.76l.82-1.19.83,1.19v2.18l.4.52v2.36L34.23,20V46h1.89Zm-24,0h7.54a21,21,0,0,0,6.42-6.72H24.28V38.17l-.4-2-.43,2.16H22.14V30.67l-.93,1.22-1.48-7.51-1.45,7.53-1-1.24v7.65H16l-.41-2.16-.42,2v8.16h-3Zm14.52-7h7.24V19.1l.58.78V18.57L34.1,18V15.85l-.51-.76-.51.76V18l-.4.52v1.32l.61-.8v.48C33,33,29.62,41.3,26.67,46Z" fill="#fff"/></g></g></svg>