<svg xmlns="http://www.w3.org/2000/svg" viewBox="0 0 91.82 72.13"><defs><style>.cls-1{fill:#ee1944}</style></defs><g id="Слой_2" data-name="Слой 2"><g id="Layer_1" data-name="Layer 1"><path class="cls-1" d="M19.31,33.84c-.66.25-1.33.49-2,.73l-1.05.35c-2,.68-4.14,1.38-6.19,2.23a27.4,27.4,0,0,0-4.94,2.61c-.15.14-.34.28-.53.43s-.38.28-.57.45A11,11,0,0,0,.28,46.71,11.27,11.27,0,0,0,.15,51a9.27,9.27,0,0,0,1.52,4,.33.33,0,0,0,.47.05.42.42,0,0,0,.21-.5,12.86,12.86,0,0,1-.68-2.26A11,11,0,0,1,2.81,44.5,12.75,12.75,0,0,1,5.63,41a20.19,20.19,0,0,1,4.93-3.09c1.73-.81,3.47-1.47,5.55-2.21l2.22-.78,1-.32Z"/><path class="cls-1" d="M56.8,9.36a13.23,13.23,0,0,1,2.05-.24,23.93,23.93,0,0,1,5.91.62c.85.19,1.71.4,2.53.6s1.94.48,2.92.68a19.7,19.7,0,0,0,5,.52,17.48,17.48,0,0,0,4.87-1,31.35,31.35,0,0,0,4.77-2.16c.26-.15.36-.3.28-.45s-.1-.21-.52,0l-1.39.62a25.46,25.46,0,0,1-6.5,1.87,24.88,24.88,0,0,1-9.22-.55l-2-.46c-1.16-.29-2.35-.58-3.55-.8A23.27,23.27,0,0,0,58,8.14a13,13,0,0,0-1.52.08Z"/><path class="cls-1" d="M2.43,56.62c.66-.49,1.35-1,2-1.44.87-.61,1.77-1.24,2.62-1.9a17.28,17.28,0,0,0,2.87-2.72A13.92,13.92,0,0,0,12,46.8,19.46,19.46,0,0,0,13.17,43a.31.31,0,0,0,0-.22.2.2,0,0,0-.15-.08.34.34,0,0,0-.34.28l-.09.33-.14.44a20.73,20.73,0,0,1-2.21,4.9A22.82,22.82,0,0,1,3.91,55l-1.3.93-.52.36.42.46h0Z"/><path d="M56.4,72.13H37.3l-1.19-9.57-6.33-3.63-8.72,3.68L11.51,46.07l7.55-5.7V33l-7.55-5.68,9.55-16.51,8.72,3.76L36.17,11l1.14-8.88H56.4L57.54,11l6.38,3.42,8.73-3.69L82.2,27.31,74.65,33v7.34l7.55,5.71L72.65,62.6l-8.72-3.69L57.6,62.55ZM38,71.33H55.69l1.16-9.27,7-4.05,8.44,3.57,8.83-15.3-7.3-5.52V32.62l7.3-5.52L72.31,11.79l-8.43,3.56-7.09-3.8L55.69,3H38l-1.1,8.58-7.09,3.94L21.4,11.86,12.56,27.13l7.3,5.5v8.14l-7.3,5.52,8.84,15.3L29.83,58l7,4Zm8.83-22.78A11.86,11.86,0,1,1,58.72,36.69,11.87,11.87,0,0,1,46.85,48.55Zm0-22.91a11.06,11.06,0,1,0,11.06,11A11.07,11.07,0,0,0,46.85,25.64Z"/><path class="cls-1" d="M41.41,52.3A18,18,0,0,1,46,51.74a71.41,71.41,0,0,1,7.32.51c2.17.23,4.34.46,6.52.51a17.77,17.77,0,0,0,7.08-1,10.22,10.22,0,0,0,4-2.88A13.54,13.54,0,0,0,74,40.59a26.31,26.31,0,0,0-.06-3.66c0-.45.13-.68.51-.75s.6.13.71.57a17.58,17.58,0,0,1,.48,5.36,16.25,16.25,0,0,1-1.4,6,10.07,10.07,0,0,1-5.06,5.2,13.24,13.24,0,0,1-4.28,1.05,38.8,38.8,0,0,1-7.77-.29c-2.17-.23-4.33-.55-6.51-.61a37.16,37.16,0,0,0-4.6.17,24.83,24.83,0,0,0-4.36.82,28.16,28.16,0,0,0-7.2,3.21c-.77.48-1.53,1-2.26,1.51a1.4,1.4,0,0,1-.26.16.62.62,0,1,1-.69-1,30.73,30.73,0,0,1,7.27-4.87A17.52,17.52,0,0,1,41.41,52.3Z"/><path class="cls-1" d="M3.49,58.51c.24.56.49,1.11.76,1.66a13.6,13.6,0,0,0,3.12,4.31,10.22,10.22,0,0,0,5.82,2.38,17.24,17.24,0,0,0,6.3-.55,25.68,25.68,0,0,0,4.17-1.55l.74-.34c.39-.17.7-.14.89.08s.08.48-.26.7a23.18,23.18,0,0,1-4.67,2.26A30.87,30.87,0,0,1,17,68.4a15.18,15.18,0,0,1-7.31-.21,8.89,8.89,0,0,1-4-2.58A16.49,16.49,0,0,1,3,61c-.29-.66-.55-1.34-.8-2Z"/><path class="cls-1" d="M88.14,9.85l-.54.44A36.5,36.5,0,0,0,83,14.9a25.65,25.65,0,0,0-3.49,5.49,29.36,29.36,0,0,0-1.89,5.33c-.24,1-.46,1.94-.62,2.92-.06.4-.34.68-.66.64a.63.63,0,0,1-.57-.74,30.58,30.58,0,0,1,.47-3.83,27.48,27.48,0,0,1,1.79-6,16.15,16.15,0,0,1,3.4-4.94,68.08,68.08,0,0,1,5.85-5"/><path class="cls-1" d="M65.17,8A28.75,28.75,0,0,1,67.62,5.3a13.12,13.12,0,0,1,3.83-2.69,10.89,10.89,0,0,1,4.24-1h.15a11.2,11.2,0,0,1,6,1.91,24.07,24.07,0,0,1,4.37,3.61l.62-.55c-.66-.68-1.42-1.45-2.25-2.17A20.56,20.56,0,0,0,79,.71,8.25,8.25,0,0,0,75.78,0l-.59,0a10.71,10.71,0,0,0-5.13,2,17.66,17.66,0,0,0-3.37,3A20.21,20.21,0,0,0,64.6,7.74a.46.46,0,0,0-.08.34.16.16,0,0,0,.09.12C64.84,8.34,65,8.19,65.17,8Z"/><path class="cls-1" d="M2.81,57.88c3.82-.86,9-2.06,13-1.28a20.08,20.08,0,0,1,5.47,2.14c2.51,1.32,4.86,2.92,7.32,4.35a26.51,26.51,0,0,0,8.21,3.39A11.65,11.65,0,0,0,47,63.79a17.57,17.57,0,0,0,4.71-7.08l.12-.32a.59.59,0,1,1,1.13.35c-.1.45-.21.89-.35,1.32a18,18,0,0,1-4.77,7.84,11.06,11.06,0,0,1-4.31,2.62,11.34,11.34,0,0,1-6.3,0A26.93,26.93,0,0,1,31.18,66C29,64.82,27,63.46,24.89,62.23A31.5,31.5,0,0,0,15,58.32a27.1,27.1,0,0,0-6.73-.41c-1.42.07-4.14,1-5.54,1.22a.57.57,0,0,1-.66-.32.55.55,0,0,1,.08-.64C2.3,58,2.54,58,2.81,57.88Z"/><path class="cls-1" d="M91.59,17.4a11.41,11.41,0,0,1-.4,6A10.29,10.29,0,0,1,88,27.77a22.34,22.34,0,0,1-5.9,3.4c-2.64,1.12-5.4,1.92-8.09,2.9a31.68,31.68,0,0,0-10.36,5.81,31,31,0,0,0-5.44,6.4c-.2.31-.4.63-.59.95s-.55.53-.87.38-.4-.49-.21-.88a32.06,32.06,0,0,1,3.21-5.12,21.24,21.24,0,0,1,4.34-4.39,23.41,23.41,0,0,1,5.21-2.7c2.09-.84,4.24-1.51,6.37-2.23a36.07,36.07,0,0,0,8-3.6,12.38,12.38,0,0,0,5.25-6.19,11.61,11.61,0,0,0,.43-6.39,18.49,18.49,0,0,0-2.09-5.33c-.1-.17-.2-.33-.29-.51a.51.51,0,0,1,.17-.74.56.56,0,0,1,.79.1,11.71,11.71,0,0,1,.82,1A17.32,17.32,0,0,1,91.59,17.4Z"/><path class="cls-1" d="M75.48,5.7c0-.6,0-1.19-.06-1.78a.5.5,0,0,0-.28-.45.46.46,0,0,0-.23-.05.67.67,0,0,0-.39.13h0a.66.66,0,0,0-.29.65l0,1.87c0,.93,0,1.85.07,2.78a.4.4,0,0,0,.12.31.65.65,0,0,0,.69.11.67.67,0,0,0,.4-.68l0-1.15,0-1.27Z"/><path class="cls-1" d="M68.91,48.38a.83.83,0,0,1-.87-.21c-1.35-1.32-2.71-2.64-4.05-4a.91.91,0,1,1,1.27-1.31l3.95,3.86A.92.92,0,0,1,68.91,48.38Z"/><path class="cls-1" d="M13.34,66a.89.89,0,0,1-1.18-1.11c.18-.75.39-1.5.58-2.24.26-1,.53-2.06.8-3.08a.89.89,0,0,1,.81-.74.86.86,0,0,1,.88.53.91.91,0,0,1,0,.63q-.69,2.7-1.4,5.4A.82.82,0,0,1,13.34,66Z"/><path class="cls-1" d="M65.16,50c-.26.09-.47-.08-.66-.27-.71-.68-1.41-1.38-2.1-2.07a.58.58,0,0,1-.06-.85.62.62,0,0,1,.91,0c.76.74,1.52,1.48,2.26,2.24A.61.61,0,0,1,65.16,50Z"/><path class="cls-1" d="M68.11,41.09a.5.5,0,0,1,.57.14l2.21,2.18a.62.62,0,0,1,0,.88.66.66,0,0,1-.92,0c-.62-.6-1.22-1.21-1.83-1.81a3.87,3.87,0,0,1-.41-.4A.59.59,0,0,1,68.11,41.09Z"/><path class="cls-1" d="M78.67,7.21c0-.28,0-.57,0-.85V6c0-.44,0-.89-.06-1.33a.29.29,0,0,0-.11-.24.27.27,0,0,0-.17-.06h-.06a.42.42,0,0,0-.33.45l0,.9c0,.52,0,1,0,1.54a.4.4,0,0,0,.15.36.37.37,0,0,0,.37-.08h0A.27.27,0,0,0,78.67,7.21Z"/><path class="cls-1" d="M71.1,5.59l0,1.23c0,.4,0,.79,0,1.18a.47.47,0,0,0,.11.36s.06.06.21.05.37-.21.37-.51c0-.56,0-1.12,0-1.68l0-.73a.47.47,0,0,0,0-.17l0,0a.26.26,0,0,0-.17-.15h-.09a.41.41,0,0,0-.24.08A.44.44,0,0,0,71.1,5.59Z"/><path class="cls-1" d="M18.41,61.75a.91.91,0,0,1,0,.49c-.24.92-.47,1.84-.72,2.75-.11.42-.39.62-.74.53a.59.59,0,0,1-.4-.81l.73-2.86a.6.6,0,0,1,.59-.51A.57.57,0,0,1,18.41,61.75Z"/><path class="cls-1" d="M10.93,59.82a1,1,0,0,1,0,.46c-.23.92-.47,1.84-.71,2.75-.12.44-.41.64-.77.54s-.48-.39-.37-.82c.24-1,.49-1.91.74-2.86a.58.58,0,0,1,.59-.49A.61.61,0,0,1,10.93,59.82Z"/></g></g></svg>