<svg xmlns="http://www.w3.org/2000/svg" viewBox="0 0 194.3 194.3" width="184.71" id="project"><g id="project-gear" fill="none" stroke="#000" stroke-miterlimit="10" stroke-width="1.3"><circle cx="114.45" cy="91.99" r="24.88"/><path d="M139.5 39.38L135.98 37.35 133.43 16.89 93.5 16.89 90.95 37.35 76.44 45.72 57.81 37.83 37.85 72.39 53.98 84.58 53.98 101.41 37.85 113.58 57.81 148.16 76.44 140.29 91.07 148.13 93.5 167.09 133.43 167.09 135.86 148.13 150.49 140 169.11 148.01 189.08 113.5 172.95 101.36 172.95 84.56 189.08 72.38 169.11 37.8 150.49 45.67 139.5 39.38"/></g><g class="project-arm"><path fill="#ededf6" d="M145.96 168.13L137.33 157.09 129.12 146.15 107.41 134.03 96.71 119.67 103.98 112.73 100.17 105.5 92.93 104.5 88.88 103.42 39.73 88.56 26.15 79.33 31.11 163.06 80.78 182.31 113.03 166.41 110.78 150.04 123.02 155.97 136.9 168.28 145.96 168.13z"/><path d="M145.22,164.53c-.7-.72-1.41-1.43-2.13-2.14a58.73,58.73,0,0,1-7.35-8.31c-.86-1.26-1.84-2.54-2.71-3.67-.66-.86-1.35-1.75-2-2.65a5.1,5.1,0,0,0-1.9-1.62A60.66,60.66,0,0,1,117,137.92a1.86,1.86,0,0,1-1.05-2c.16-.65.18-1.09-1.29-1.73a6.94,6.94,0,0,1-4.23-4.36,4.94,4.94,0,0,0-2.31-2.51,49.63,49.63,0,0,1-8.13-6l-.16-.15a2.39,2.39,0,0,1-1-1.77,2.17,2.17,0,0,1,.86-1.53v-.57a1.53,1.53,0,0,1,.06-1.47,1.73,1.73,0,0,1,1.32-.74l.28-.06a2.67,2.67,0,0,1,2.09.14,7.37,7.37,0,0,0,2.17.81,30.8,30.8,0,0,0,8.59.45l-.61-2c-.75.06-1.47.08-2.16.07a27.23,27.23,0,0,1-4.57-.33,1.84,1.84,0,0,1-1.74-2.6,5.35,5.35,0,0,0-.73-5,2.49,2.49,0,0,1-.38-.7l-3.16-1.62a13,13,0,0,1-4.91.3c-.65,0-1.32-.09-2-.09a2.33,2.33,0,0,1-2.56-1.37c-.18-.39-.47-.8-1.6-.79h-10a3.06,3.06,0,0,1-1.83-.41c-.25-.16-.57-.27-1.27,0l-1.14.44c-.52.19-1.05.39-1.56.62a2.57,2.57,0,0,1-3.32-.61s-.13-.09-.78,0l-.91.07h-.16a18,18,0,0,0-1.91.19,2.91,2.91,0,0,1-3.36-1.84c-.16-.35-.31-.71-.46-1.07a5,5,0,0,0-1.46-2.35c-2.16-1.51-4.41-3-6.58-4.42l-1.64-1.08A1,1,0,0,0,52,92l0,0c-.83.88-1.49,1.63-2.08,2.34a1.85,1.85,0,0,1-2.57.5l-.17-.13c-1.79-1.25-3.19-2.17-4.52-3A2.59,2.59,0,0,1,41.22,89a1.71,1.71,0,0,0-1-1.79c-1.44-.94-2.88-1.91-4.15-2.77-2.2-1.49-4.42-3-6.67-4.36A62,62,0,0,1,15.81,68.92c-.75-.83-1.13-1-1.28-1s-.47.12-1,.69V123a1.85,1.85,0,0,0,2.17.38c1.54-.45,3.12-.84,4.65-1.21h.1l2.16-.53a2.08,2.08,0,0,1,2.12.32,1.93,1.93,0,0,1,.24,2,7.91,7.91,0,0,0,1.3,7.24,17.75,17.75,0,0,0,13.1,7.61,4.2,4.2,0,0,1,2.26.92C48,144.94,56,151.35,62.89,158.38c1.45,1.48,2.62,2,4.06,1.74a2.16,2.16,0,0,1,1.68.32,2.48,2.48,0,0,1,.88,1.73c.29,1.89.59,3.79.89,5.68s.64,4,.94,5.95a1.63,1.63,0,0,0,1,1.41l1.88.94.32.16c1,.51,2,1,3.06,1.5A3.76,3.76,0,0,1,80,180.6c.1.5.3,1,1.42,1h5.67c1.07,0,1.3-.21,1.45-1.29l.57-4.33.85-6.54,1.59,4.34a30,30,0,0,1,1,3.44l.27,1a1.72,1.72,0,0,0,.72,1.17,1.66,1.66,0,0,0,1.3-.38c.53-.35,1.05-.71,1.57-1.08a29.47,29.47,0,0,1,3.1-2,3.21,3.21,0,0,0,1.88-3.6c-.11-1.62-.09-3.24-.07-4.82v-6.13l2.07,3.07a44.49,44.49,0,0,0,4.41,5.69c.57.6.91.7,1.06.7s.53-.11,1.1-.67l2.11-2.11.23-.24c1.1-1.1,2.23-2.24,3.36-3.34a1.48,1.48,0,0,0,.41-2c-1.12-2.47-2.17-5-3.25-7.52l-.06-.11v-.06a2.21,2.21,0,0,1-.2-2.13l.54-1.21,1.12.72a38.58,38.58,0,0,0,7.73,4,4.49,4.49,0,0,1,2.37,2,26.53,26.53,0,0,0,4.65,5.8,57.67,57.67,0,0,0,9.13,6.3l2.58,1.56a3.44,3.44,0,0,0,2.75.35,4.67,4.67,0,0,0,2.82-2.33A4.4,4.4,0,0,0,145.22,164.53ZM20.38,120.14c-2.08.58-3.12.87-4,.21s-.87-1.79-.87-3.85V73.8l1.37-.56.91.39,1.13,1.16c.75.78,1.54,1.59,2.32,2.36a2.78,2.78,0,0,1,.85,2.09v38.59A2.11,2.11,0,0,1,20.38,120.14Zm76.69-13.66h3.33a3,3,0,0,1,3,3q0,.09,0,.19a3.1,3.1,0,0,1-2.81,3.36h-.13a4,4,0,0,1-4.67-2.52,7.81,7.81,0,0,0-.78-1.39c-.21-.32-.4-.61-.58-.94l-1-1.71Zm-10.94-2.13h2.51a1.91,1.91,0,0,1,1.73,1l3,5.08,2.21,3.73v.09L95,116.87,80.78,104.35Zm-37.28,5.58a3.92,3.92,0,0,0,1-2.89V99.16a4.23,4.23,0,0,1,1.64-3.45h0a6.49,6.49,0,0,0,.59-.64,1.42,1.42,0,0,1,1-.58,1.71,1.71,0,0,1,1.3.46l1.3.85.17.11c1.32.85,2.65,1.69,3.89,2.66a7.4,7.4,0,0,1,2.13,3.26,13.37,13.37,0,0,0,.6,1.32,2.68,2.68,0,0,1-.1,2.54,2.61,2.61,0,0,0-.18.44,36.46,36.46,0,0,1-5,11c-1.61,2.43-3.08,5-4.45,7.38a4.75,4.75,0,0,1-2.32,1.91l-.51.26-.42.13a1.84,1.84,0,0,1-1.73-.88,15.94,15.94,0,0,0-5.11-4.47,2,2,0,0,1-1.12-1.29,1.46,1.46,0,0,1,0-.3,2.23,2.23,0,0,1,.62-1.38l2.6-3.25.09-.11C46.07,113.37,47.45,111.62,48.85,109.94ZM41.28,104c-.08-2-.06-4,0-5.9V93.24l3,2c.89.6,1.65,1.11,2.45,1.61a2.37,2.37,0,0,1,1.13,2.2v7.73a3.54,3.54,0,0,1-.9,2.27l-1.64,2c-1.77,2.19-3.6,4.46-5.35,6.73a2.9,2.9,0,0,1-3.53,1.16,1.56,1.56,0,0,0-.52-.08,1.9,1.9,0,0,1-1.79-.81,1.4,1.4,0,0,1-.17-.66A2.58,2.58,0,0,1,34.5,116c.74-1.08,1.45-2.16,2.17-3.25,1.13-1.7,2.3-3.47,3.52-5.21A5.46,5.46,0,0,0,41.28,104ZM25.63,120.16a3,3,0,0,1-1.52-2.3v-3a2.56,2.56,0,0,1,.61-1.88,2.52,2.52,0,0,1,1.9-.71,5.46,5.46,0,0,0,.38-.52l1.57-2.46,3.77-5.64a2.15,2.15,0,0,0,.35-1.14v-8a1.53,1.53,0,0,0-.84-1.38c-1-.65-2-1.31-3-2s-2.24-1.5-3.37-2.23a2.77,2.77,0,0,1-1.42-2.45V80.33l1-.13a2.08,2.08,0,0,1,1.66.49l4.59,3.07,6.51,4.32a2.8,2.8,0,0,1,1.4,2.4V104h0a4.19,4.19,0,0,1-.71,2.35l-.43.63c-2.45,3.64-5,7.41-7.4,11.16a5.26,5.26,0,0,1-2.52,1.9H28.1l-.47.22A2.06,2.06,0,0,1,25.63,120.16Zm5-18.78a3.27,3.27,0,0,1-.5,1.87c-.66,1-1.31,1.95-2,2.92L27,107.89a1.5,1.5,0,0,1-1.75.95h0a1.53,1.53,0,0,1-1.1-1.67V90.38l3.1,2.05C28,93,28.8,93.49,29.57,94a2.27,2.27,0,0,1,1.13,2.08v.13c-.07,1.81-.06,3.64,0,5.18ZM27.52,129.5a6.7,6.7,0,0,1-.9-3.25,4.9,4.9,0,0,1,.5-2.18A6,6,0,0,1,31.86,121a11.74,11.74,0,0,1,1.24-.09h.59a15.77,15.77,0,0,1,12.31,6,9.36,9.36,0,0,1,.79,1.11,5.49,5.49,0,0,1-4.16,8.78c-5.7.84-12.32-2.37-15.08-7.32Zm26.73,18-.14-.11-10.35-8.47,1.57-.78a7.4,7.4,0,0,0,4.36-4.89,7,7,0,0,0,.13-2.62,2.18,2.18,0,0,1,1.55-2.55,6.37,6.37,0,0,0,3.43-3.29c1.42-2.54,3.19-5.54,5.1-8.38a37.07,37.07,0,0,0,4.21-9.71,3.18,3.18,0,0,1,4-2h0a1.45,1.45,0,0,1,1.06,1.46,8.63,8.63,0,0,0,0,1,6.26,6.26,0,0,1-.48,3.34q-1.63,3.21-3.24,6.43l-2.22,4.43a3.81,3.81,0,0,0-.49,1.77v.12h0a4.81,4.81,0,0,1-1.22,3.58A4.92,4.92,0,0,1,57.89,128a1.48,1.48,0,0,0-1.62,1c-.8,1.69-1.7,3.5-2.76,5.54a2.21,2.21,0,0,0-.2,1.76c.58,2.21,1.13,4.47,1.67,6.66l.83,3.4ZM68.07,158h-.73a4.06,4.06,0,0,1-3.12-1.19c-1.41-1.41-2.88-2.8-4.31-4.15l-1.17-1.1a1.91,1.91,0,0,1-.53-2.65l.14-.18c.12-.16.12-.46,0-1.06l-1-4c-.51-2.06-1-4.19-1.59-6.27a5.32,5.32,0,0,1-.2-1.41,4.21,4.21,0,0,1,.67-2.28,5.48,5.48,0,0,0,.55-1.08c.73-2.15,2.15-3.06,4.1-2.62,1-.28,4-3.73,4-4.69h0A8.83,8.83,0,0,1,66,120.58c.84-1.58,1.62-3.17,2.39-4.71.67-1.35,1.43-2.89,2.2-4.35a5.56,5.56,0,0,0,.74-3.21,4.2,4.2,0,0,1,0-1.29c.11-.48.46-1.11,2.23-1.83.78-.31,3.4-1.27,4.53-.53A4.26,4.26,0,0,1,80,109.78a76.1,76.1,0,0,1-7.1,17.28l-.25.47a7.92,7.92,0,0,1-.87,1.42,12.74,12.74,0,0,0-2.59,9.72,36.6,36.6,0,0,1,0,4.8v.7a2.12,2.12,0,0,0,.75,1.76c.85.83,1.69,1.67,2.53,2.51l.16.16c1,1,2.15,2.16,3.3,3.27a2.17,2.17,0,0,1,.38,3l-.09.1c-.67.93-1.29,1.87-1.95,2.86l-1.86,2.78-.93-1.46c-.74-1.18-1.72-1.19-3.41-1.12Zm9.34,16.63a2.07,2.07,0,0,1-2.26-.33,2.86,2.86,0,0,0-.38-.22,2.51,2.51,0,0,1-1.72-2.17c-.18-1.36-.4-2.71-.63-4.14l-.9-5.56L74,164.71c.36.35.71.68,1,1h0a17.35,17.35,0,0,1,2.26,2.4,4.18,4.18,0,0,1,.61,2.73,6.35,6.35,0,0,0,0,.92.54.54,0,0,0,.05.27v.08a1.92,1.92,0,0,1-.47,2.6ZM87,175.8a5.59,5.59,0,0,1-.08.59,3.67,3.67,0,0,1-1,2.85,3.74,3.74,0,0,1-3,.32,1.88,1.88,0,0,1-1.64-1.51,39.15,39.15,0,0,1-1.32-7.43v-.24a1.71,1.71,0,0,1,1-1.66l7.39-3.41Zm10.2-.91a4.51,4.51,0,0,0-.72.45l-.63.44-1.37.9-.36-1.6a48.1,48.1,0,0,1-1.2-10,2,2,0,0,1,1.3-1.91c2.16-1,3.14-1.46,4.09-.86s.94,1.66.94,4v4.87a3.46,3.46,0,0,1-2,3.75ZM102.36,157a3.4,3.4,0,0,1-2,1.72l-3,1.09a170.33,170.33,0,0,0-16.65,6.68l-.9.33a1.87,1.87,0,0,1-1.57-.73l-1.15-1.2c-.59-.61-1.19-1.24-1.82-1.83a2,2,0,0,1-.21-2.81l.19.13-.19-.13c1.26-1.85,2.57-3.83,4.14-6.22.58-.9.56-1.16-.19-1.91-2.71-2.74-4.81-4.84-6.82-6.81a2.88,2.88,0,0,1-1-2.63c0-.84,0-1.61-.07-2.37v-.22c0-.8-.06-1.62-.06-2.43a19.4,19.4,0,0,1,.24-3.28,13.21,13.21,0,0,1,2.46-5.1,24.71,24.71,0,0,0,1.46-2.06,78.27,78.27,0,0,0,6.44-15.7c.13-.45.39-1.37,1.25-1.62a2,2,0,0,1,1.91.7q4.09,3.63,8.2,7.24l.81.72,7,6.13a39.09,39.09,0,0,0,5.29,3.73l.59.37a7.12,7.12,0,0,1,2.7,3.55,4.12,4.12,0,0,0,2.34,2.59A1.9,1.9,0,0,1,113,136a2.15,2.15,0,0,1-.29,1.84c-3.47,6.32-6.92,12.8-10.3,19.2Zm10.14,2.42c1.46,3.39,1.36,3.87-1.2,6.44-1,1-1.64,1.64-2.54,1.55s-1.39-.81-2.2-2c-1.78-2.64-2.61-4-2.61-5.59s.76-3,2-5.34l.88-1.61L108.4,150Zm9.44-5.35a39.24,39.24,0,0,1-10.43-6.62,2,2,0,0,1-.77-1.5,2.13,2.13,0,0,1,.29-1c.68-1.22,1.33-2.45,2-3.65l1.48-2.79,1.07.9A64.9,64.9,0,0,0,126.34,147a1.84,1.84,0,0,1,1,1.19,2,2,0,0,1-.42,1.61c-.83,1.2-1.62,2.39-2.35,3.53a2,2,0,0,1-2.6.83Zm14.52,6.15c-.17.55-.34,1-.5,1.51l-.29.85c-.41,1.24-.66,2-1.5,2.24s-1.47-.25-2.43-1a26.12,26.12,0,0,1-5.78-6.62,2,2,0,0,1,0-2.46c.64-.91,1.26-1.85,1.92-2.85l1.7-2.54,2.33,3.11c1.44,1.93,2.85,3.8,4.26,5.66A2.12,2.12,0,0,1,136.46,160.24Zm7.68,9.06a2.37,2.37,0,0,1-3.32.47l-.11-.09-1-.68c-1.91-1.28-2.81-2-2.81-3.26a9.21,9.21,0,0,1,1.1-3.39l.68-1.51,2.58,2.62,2.52,2.56a2.36,2.36,0,0,1,.36,3.22Z"/><path d="M44.08 95.45L44.08 95.45 44.08 95.45 44.08 95.45z"/><path fill="#ededf6" d="M73.69 105.81L72.94 105.5 67.7 105.06 51.41 130.72 50.13 142.01 53.63 146.91 60.09 152.56 73.25 113.31 74.23 105.81 73.37 105.25"/><path fill="#ededf6" d="M8.49 64.72L19.49 75.42 30.66 83.31 36.83 107.92 21.57 128.13 5.22 123.67 8.59 98.61 8.49 64.72z"/><path fill="#ededf6" d="M27.81 82.64L37.87 92 38.73 91.75 42.97 94.44 42.97 102.27 40.32 113.75 34.73 118.73 30.66 119.03 28.12 120.11 26.95 117.8 32.37 107.5 33.6 100 33.41 92.64 28.36 86.44 27.81 82.64z"/><path fill="none" stroke="#000" stroke-miterlimit="10" d="M26.15 123.96L12.65 115.74"/><path fill="#ededf6" stroke="#000" stroke-linejoin="round" d="M102.82 105.64L111.25 110.59 113.03 115.19"/><ellipse cx="37.29" cy="129.18" rx="7.42" ry="11.39" transform="rotate(-62.06 37.295 129.178)" fill="#ee1944"/></g></svg>