<svg xmlns="http://www.w3.org/2000/svg" viewBox="0 0 116.54 114.27"><defs><style>.cls-2{fill:#e61847}</style></defs><g id="Слой_2" data-name="Слой 2"><g id="Слой_1-2" data-name="Слой 1"><path d="M63.82,30.91A4.13,4.13,0,1,0,68,35,4.13,4.13,0,0,0,63.82,30.91Zm0,7.22A3.09,3.09,0,1,1,66.91,35,3.1,3.1,0,0,1,63.82,38.13Z"/><path d="M63.82,45.91A10.88,10.88,0,1,1,74.69,35,10.89,10.89,0,0,1,63.82,45.91Zm0-20.75A9.88,9.88,0,1,0,73.69,35,9.89,9.89,0,0,0,63.82,25.16Z"/><path d="M112.36,92.39l4.18-3.16-5.17-9-4.83,2-3.79-2-.63-4.9H91.78l-.62,4.9-3.79,2.11-4.83-2.07-5.17,8.93,4.18,3.15v4.35L77.37,99.9l5.17,9,4.83-2L91.12,109l.66,5.3h10.34l.67-5.3,3.75-2.16,4.83,2,5.17-8.95-4.18-3.16ZM97,101a6.45,6.45,0,1,1,6.45-6.44A6.44,6.44,0,0,1,97,101Z" fill="#ee1944"/><path class="cls-2" d="M54.7,113.66H51c2,0,1.53-1.86,1.09-3.81l-1.44-6.32a3.11,3.11,0,0,0-3-2.44h5.61a3.12,3.12,0,0,1,3.05,2.44l1.43,6.32A3.12,3.12,0,0,1,54.7,113.66Z"/><path d="M29.17,76.46a4.13,4.13,0,1,0,4.12,4.12A4.13,4.13,0,0,0,29.17,76.46Zm0,7.21a3.09,3.09,0,1,1,3.09-3.09A3.09,3.09,0,0,1,29.17,83.67Z"/><path d="M29.17,6.78a7.12,7.12,0,1,0,7.12,7.12A7.13,7.13,0,0,0,29.17,6.78Zm0,13.21a6.09,6.09,0,1,1,6.08-6.09A6.09,6.09,0,0,1,29.17,20Z"/><path class="cls-2" d="M104.83,35v7.7a2.54,2.54,0,0,1-2.53,2.54H96.68a2.54,2.54,0,0,0,2.53-2.54V35a5.25,5.25,0,0,0-3-4.76l-2-.92.07,0a6.56,6.56,0,0,1,5.48,0l2.06,1A5.25,5.25,0,0,1,104.83,35Z"/><path d="M58.25,109.73l-1.44-6.32c-.55-2.43-2.78-2.88-4.57-2.83a1.27,1.27,0,0,1-1.19-.93,6.68,6.68,0,0,0-6.76-5.09,1.13,1.13,0,0,1-.86-.34,1.18,1.18,0,0,1-.36-.85V81.7a13.86,13.86,0,0,0-3.66-9.39,1.23,1.23,0,0,1-.31-.72l-3-42.8c0-.43-.25-2.34.16-2.79s1.35-1.08,1.66-1.34a13.86,13.86,0,0,0,4.95-8.59,17.39,17.39,0,0,0,.15-1.85c0-.87-.06-1.76-.08-1.93A13.9,13.9,0,1,0,21.79,25.68a1.17,1.17,0,0,1,.56,1.09L19.24,71.59a1.23,1.23,0,0,1-.31.72,13.86,13.86,0,0,0-3.66,9.39V93.37a1.18,1.18,0,0,1-.36.85,1.31,1.31,0,0,1-.86.34,6.73,6.73,0,0,0-6.77,5.09,1.23,1.23,0,0,1-1.19.93c-1.81-.07-4,.4-4.57,2.83L.09,109.73a3.59,3.59,0,0,0,.73,3.06,3.61,3.61,0,0,0,2.82,1.39H41.9a.52.52,0,1,0,0-1H3.64A2.61,2.61,0,0,1,1.1,110l1.43-6.32a2.6,2.6,0,0,1,2.54-2H53.26a2.59,2.59,0,0,1,2.54,2L57.24,110a2.61,2.61,0,0,1-2.54,3.18H50.17a.52.52,0,1,0,0,1H54.7a3.7,3.7,0,0,0,3.55-4.45ZM16.3,13.9A12.87,12.87,0,1,1,29.17,26.77,12.88,12.88,0,0,1,16.3,13.9Zm7,14.26a1.24,1.24,0,0,1,.52-.91,1.23,1.23,0,0,1,1-.14,13.94,13.94,0,0,0,8.64,0,1.19,1.19,0,0,1,1.56,1.05l2.8,40.37h0a1.21,1.21,0,0,1-.56,1.09,1.23,1.23,0,0,1-1.22,0,14.07,14.07,0,0,0-13.8,0,1.27,1.27,0,0,1-.59.16,1.24,1.24,0,0,1-.64-.18,1.21,1.21,0,0,1-.55-1.1Zm-7,53.54A12.87,12.87,0,1,1,42,81.7V93.37a1.19,1.19,0,0,1-1.19,1.19H17.49a1.19,1.19,0,0,1-1.19-1.19ZM49.63,100a1.17,1.17,0,0,1-1,.54H9.7a1.19,1.19,0,0,1-1.09-1.67,5.49,5.49,0,0,1,5-3.31h31a5.5,5.5,0,0,1,5,3.31A1.2,1.2,0,0,1,49.63,100Z"/><path d="M112.77,66.45l-11-11a1.16,1.16,0,0,1-.35-.84V46.93a1.18,1.18,0,0,1,1-1.18,3.06,3.06,0,0,0,2.57-3,.52.52,0,1,0-1,0,2,2,0,0,1-2,2H91.35a2,2,0,0,1-2-2v-10A1.19,1.19,0,0,1,90,31.7l4.11-1.91a6,6,0,0,1,5,0l2.06,1A4.74,4.74,0,0,1,104,35a.52.52,0,0,0,.52.52A.53.53,0,0,0,105,35a5.79,5.79,0,0,0-3.35-5.23l-2.06-1a7.07,7.07,0,0,0-5.9,0L89,31a1.2,1.2,0,0,1-.62.1L75.2,29.77h0a.53.53,0,0,0-.51.52.52.52,0,0,0,.51.52h0l12,1.23a1.19,1.19,0,0,1,1.07,1.19v3.62A1.18,1.18,0,0,1,87.23,38l-12,1.24h0a.52.52,0,0,0,0,1h0L87,39.1a1.16,1.16,0,0,1,.92.3,1.2,1.2,0,0,1,.39.88v2.46a3.07,3.07,0,0,0,2.58,3,1.18,1.18,0,0,1,1,1.18v7.69a1.21,1.21,0,0,1-.35.84l-11,11a3.24,3.24,0,0,0,0,4.52,31.06,31.06,0,0,0,8,5.35,2.67,2.67,0,0,0,3.1-4.23l-2.57-2.54a1.21,1.21,0,0,1-.35-.84,1.24,1.24,0,0,1,.34-.85l5.33-5.32a3.16,3.16,0,0,1,4.46,0l5.37,5.37a1.18,1.18,0,0,1,0,1.65l-2.72,2.93a2.67,2.67,0,0,0,3.29,4.1h0l.44-.26a33.25,33.25,0,0,0,7.1-5,3.91,3.91,0,0,0,1.28-2.72A3,3,0,0,0,112.77,66.45ZM92.93,47a1.19,1.19,0,0,1,1.19-1.19H99.2A1.19,1.19,0,0,1,100.39,47v6.64a1.19,1.19,0,0,1-1.19,1.19H94.12a1.19,1.19,0,0,1-1.19-1.19ZM112,70.23a34.35,34.35,0,0,1-7.52,5.36l-.19.11a1.58,1.58,0,0,1-2-.36,1.65,1.65,0,0,1,0-2.14l3.84-4.14a.52.52,0,0,0,0-.72l-6.54-6.53a4.29,4.29,0,0,0-5.92,0l-6.54,6.53a.5.5,0,0,0-.14.37.53.53,0,0,0,.14.37l3.78,3.75A1.64,1.64,0,0,1,91.08,75a1.56,1.56,0,0,1-2,.45,30.43,30.43,0,0,1-7.78-5.16,2.17,2.17,0,0,1,0-3.06l11-11a1.21,1.21,0,0,1,.84-.35h7.09a1.19,1.19,0,0,1,.84.35l11,11A2.16,2.16,0,0,1,112,70.23Z"/><path d="M52,34.06h0L38.37,26.77h0a.56.56,0,0,0-.23-.06.51.51,0,0,0-.28.95h0L51.54,35h0a.57.57,0,0,0,.25.08.52.52,0,0,0,.52-.52A.5.5,0,0,0,52,34.06Z"/><path d="M58.72,23.7,45.28,14.4h0a.46.46,0,0,0-.25-.08.52.52,0,0,0-.52.52.49.49,0,0,0,.23.42v0l13.4,9.26a.55.55,0,0,0,.72-.13.49.49,0,0,0,.08-.39A.47.47,0,0,0,58.72,23.7Z"/></g></g></svg>