<svg xmlns="http://www.w3.org/2000/svg" viewBox="0 0 126.35 114.77"><g id="prom-color"><path fill="#ee1944" d="M112.36,92.39l4.18-3.16-5.17-9-4.83,2-3.79-2-.63-4.9H91.78l-.62,4.9-3.79,2.11-4.83-2.07-5.17,8.93,4.18,3.15v4.35L77.37,99.9l5.17,9,4.83-2L91.12,109l.66,5.3h10.34l.67-5.3,3.75-2.16,4.83,2,5.17-8.95-4.18-3.16ZM97,101a6.45,6.45,0,1,1,6.45-6.44A6.44,6.44,0,0,1,97,101Z"/><path fill="#e61847" d="M54.7,113.66H51c2,0,1.53-1.86,1.09-3.81l-1.44-6.32a3.11,3.11,0,0,0-3-2.44h5.61a3.12,3.12,0,0,1,3.05,2.44l1.43,6.32A3.12,3.12,0,0,1,54.7,113.66Z"/><path fill="#e61847" d="M109.73,5.11c3.47,8.3,4.49,9.73-4.16,12.41,3.44-2.59-1-15.34-7.79-14.1C100.39,1.13,107-.11,109.73,5.11Z"/></g><g id="prom-hand"><path d="M69.68,10.94a4.13,4.13,0,1,0,4.13,4.12A4.13,4.13,0,0,0,69.68,10.94Zm0,7.21a3.09,3.09,0,1,1,3.09-3.09A3.09,3.09,0,0,1,69.68,18.15Z"/><path d="M69.68,25.93A10.87,10.87,0,1,1,80.55,15.06,10.89,10.89,0,0,1,69.68,25.93Zm0-20.74a9.87,9.87,0,1,0,9.87,9.87A9.88,9.88,0,0,0,69.68,5.19Z"/><path d="M124.89,34.11,111.64,26a1.24,1.24,0,0,1-.53-.74l-1.78-7.48a1.19,1.19,0,0,1,.7-1.38,3.05,3.05,0,0,0,1.81-3.52.51.51,0,1,0-1,.24,2,2,0,0,1-1.5,2.43L99,18a2,2,0,0,1-2.42-1.49l-2.32-9.7a1.21,1.21,0,0,1,.42-1.21l3.56-2.8a6,6,0,0,1,4.9-1.17l2.22.45a4.75,4.75,0,0,1,3.67,3.53.51.51,0,0,0,.62.39.53.53,0,0,0,.39-.63A5.8,5.8,0,0,0,105.59,1L103.37.59A7,7,0,0,0,97.62,2L93.57,5.15A1.18,1.18,0,0,1,93,5.4L79.83,7.15h0a.52.52,0,0,0,.24,1h0l12-1.59a1.18,1.18,0,0,1,1.31.9L94.22,11a1.19,1.19,0,0,1-.76,1.4L82,16.38h0a.52.52,0,0,0-.38.62.51.51,0,0,0,.62.38h0l11.19-3.91a1.12,1.12,0,0,1,1,.08,1.19,1.19,0,0,1,.59.76l.57,2.4a3.06,3.06,0,0,0,3.21,2.32,1.2,1.2,0,0,1,1.25.91l1.78,7.48a1.18,1.18,0,0,1-.14.9L93.55,41.59a3.23,3.23,0,0,0,1,4.39,31,31,0,0,0,9.05,3.34,2.67,2.67,0,0,0,2-4.83l-3.09-1.88A1.2,1.2,0,0,1,102.2,41l3.94-6.41a3.16,3.16,0,0,1,4.34-1l6.47,4a1.19,1.19,0,0,1,.42,1.6l-2,3.49a2.67,2.67,0,0,0,4.14,3.22h0l.37-.36a33.29,33.29,0,0,0,5.75-6.51,3.89,3.89,0,0,0,.61-2.93A2.94,2.94,0,0,0,124.89,34.11ZM101.07,19.78a1.2,1.2,0,0,1,.88-1.44l5-1.18a1.19,1.19,0,0,1,1.43.89l1.54,6.45a1.19,1.19,0,0,1-.88,1.43L104,27.11a1.19,1.19,0,0,1-1.43-.88Zm24,18.18A34.26,34.26,0,0,1,119,44.91l-.15.15a1.59,1.59,0,0,1-.75.41,1.56,1.56,0,0,1-1.33-.29,1.65,1.65,0,0,1-.45-2.09l2.78-4.91a.54.54,0,0,0-.18-.7L111,32.64A4.3,4.3,0,0,0,105.26,34l-4.84,7.87a.52.52,0,0,0-.06.39.53.53,0,0,0,.23.33l4.55,2.77a1.64,1.64,0,0,1,.63,2,1.57,1.57,0,0,1-1.87.92,30.54,30.54,0,0,1-8.76-3.22,2.16,2.16,0,0,1-.71-3l8.14-13.24a1.19,1.19,0,0,1,.74-.54l6.89-1.64a1.18,1.18,0,0,1,.9.14L124.35,35A2.17,2.17,0,0,1,125.06,38Z"/><path d="M58.1,20.08h0l-15.46.4h0a.46.46,0,0,0-.23.06.51.51,0,0,0-.19.71.47.47,0,0,0,.41.25h0l15.5-.39h0a.48.48,0,0,0,.26-.06.51.51,0,0,0-.29-1Z"/><path d="M58.82,7.76,42.55,6.3h0a.46.46,0,0,0-.25.06.51.51,0,0,0-.2.7.53.53,0,0,0,.41.26h0L58.73,8.79a.52.52,0,0,0,.56-.46.53.53,0,0,0-.11-.39A.54.54,0,0,0,58.82,7.76Z"/></g><path d="M102.12,114.77H91.78a.5.5,0,0,1-.49-.44l-.63-5-3.33-1.9-4.59,1.94a.5.5,0,0,1-.63-.21l-5.17-9a.5.5,0,0,1,.13-.65l4-3V92.65l-4-3a.5.5,0,0,1-.13-.65l5.17-8.93a.5.5,0,0,1,.63-.21l4.6,2L90.69,80l.6-4.66a.49.49,0,0,1,.5-.43h10.33a.49.49,0,0,1,.5.43l.6,4.66,3.35,1.79,4.6-1.94a.5.5,0,0,1,.63.21L117,89a.51.51,0,0,1-.13.65l-4,3v3.85l4,3a.51.51,0,0,1,.13.65l-5.17,8.95a.5.5,0,0,1-.63.21l-4.59-2-3.33,1.92-.63,5A.5.5,0,0,1,102.12,114.77Zm-9.89-1h9.45l.61-4.86a.49.49,0,0,1,.25-.37l3.75-2.17a.54.54,0,0,1,.45,0l4.41,1.87,4.73-8.19-3.82-2.89a.48.48,0,0,1-.2-.4V92.39a.48.48,0,0,1,.2-.4l3.82-2.89-4.73-8.19-4.41,1.87a.54.54,0,0,1-.43,0l-3.79-2a.46.46,0,0,1-.26-.37l-.58-4.47H92.22l-.57,4.47a.49.49,0,0,1-.25.37l-3.79,2.11a.52.52,0,0,1-.44,0L82.76,81,78,89.12,81.85,92a.48.48,0,0,1,.2.4v4.35a.51.51,0,0,1-.2.4L78,100l4.73,8.18,4.41-1.86a.54.54,0,0,1,.45,0l3.75,2.16a.49.49,0,0,1,.25.37ZM97,101.51a6.95,6.95,0,1,1,7-6.94A7,7,0,0,1,97,101.51Zm0-12.89a5.95,5.95,0,1,0,6,5.95A6,6,0,0,0,97,88.62Z" id="prom-gear"/><g id="prom-body"><path d="M29.17,76.46a4.13,4.13,0,1,0,4.12,4.12A4.13,4.13,0,0,0,29.17,76.46Zm0,7.21a3.09,3.09,0,1,1,3.09-3.09A3.09,3.09,0,0,1,29.17,83.67Z"/><path d="M29.17,6.78a7.12,7.12,0,1,0,7.12,7.12A7.13,7.13,0,0,0,29.17,6.78Zm0,13.21a6.09,6.09,0,1,1,6.08-6.09A6.09,6.09,0,0,1,29.17,20Z"/><path d="M58.25,109.73l-1.44-6.32c-.55-2.43-2.78-2.88-4.57-2.83a1.27,1.27,0,0,1-1.19-.93,6.68,6.68,0,0,0-6.76-5.09,1.13,1.13,0,0,1-.86-.34,1.18,1.18,0,0,1-.36-.85V81.7a13.86,13.86,0,0,0-3.66-9.39,1.23,1.23,0,0,1-.31-.72l-3-42.8c0-.43-.25-2.34.16-2.79s1.35-1.08,1.66-1.34a13.86,13.86,0,0,0,4.95-8.59,17.39,17.39,0,0,0,.15-1.85c0-.87-.06-1.76-.08-1.93A13.9,13.9,0,1,0,21.79,25.68a1.17,1.17,0,0,1,.56,1.09L19.24,71.59a1.23,1.23,0,0,1-.31.72,13.86,13.86,0,0,0-3.66,9.39V93.37a1.18,1.18,0,0,1-.36.85,1.31,1.31,0,0,1-.86.34,6.73,6.73,0,0,0-6.77,5.09,1.23,1.23,0,0,1-1.19.93c-1.81-.07-4,.4-4.57,2.83L.09,109.73a3.59,3.59,0,0,0,.73,3.06,3.61,3.61,0,0,0,2.82,1.39H41.9a.52.52,0,1,0,0-1H3.64A2.61,2.61,0,0,1,1.1,110l1.43-6.32a2.6,2.6,0,0,1,2.54-2H53.26a2.59,2.59,0,0,1,2.54,2L57.24,110a2.61,2.61,0,0,1-2.54,3.18H50.17a.52.52,0,1,0,0,1H54.7a3.7,3.7,0,0,0,3.55-4.45ZM16.3,13.9A12.87,12.87,0,1,1,29.17,26.77,12.88,12.88,0,0,1,16.3,13.9Zm7,14.26a1.24,1.24,0,0,1,.52-.91,1.23,1.23,0,0,1,1-.14,13.94,13.94,0,0,0,8.64,0,1.19,1.19,0,0,1,1.56,1.05l2.8,40.37h0a1.21,1.21,0,0,1-.56,1.09,1.23,1.23,0,0,1-1.22,0,14.07,14.07,0,0,0-13.8,0,1.27,1.27,0,0,1-.59.16,1.24,1.24,0,0,1-.64-.18,1.21,1.21,0,0,1-.55-1.1Zm-7,53.54A12.87,12.87,0,1,1,42,81.7V93.37a1.19,1.19,0,0,1-1.19,1.19H17.49a1.19,1.19,0,0,1-1.19-1.19ZM49.63,100a1.17,1.17,0,0,1-1,.54H9.7a1.19,1.19,0,0,1-1.09-1.67,5.49,5.49,0,0,1,5-3.31h31a5.5,5.5,0,0,1,5,3.31A1.2,1.2,0,0,1,49.63,100Z"/></g></svg>