<svg xmlns="http://www.w3.org/2000/svg" viewBox="0 0 122.45 114.18"><defs><style/></defs><g id="Слой_2" data-name="Слой 2"><g id="Слой_1-2" data-name="Слой 1"><path d="M54.7,113.58H51c2,0,1.53-1.86,1.09-3.81l-1.44-6.33a3.11,3.11,0,0,0-3-2.43h5.61a3.13,3.13,0,0,1,3.05,2.43l1.43,6.33A3.12,3.12,0,0,1,54.7,113.58Z" fill="#e61847"/><path d="M119,46.57l-11-11a1.2,1.2,0,0,1-.34-.84V27.05a1.19,1.19,0,0,1,1-1.18,3.07,3.07,0,0,0,2.58-3,.52.52,0,1,0-1,0,2,2,0,0,1-2,2H97.56a2,2,0,0,1-2-2v-10a1.18,1.18,0,0,1,.69-1.08l4.11-1.91a6,6,0,0,1,5,0l2,1a4.74,4.74,0,0,1,2.75,4.29.52.52,0,1,0,1,0,5.78,5.78,0,0,0-3.34-5.23l-2.06-1a7,7,0,0,0-5.91,0l-4.67,2.17a1.2,1.2,0,0,1-.62.1L81.41,9.89h0a.52.52,0,0,0-.51.52.53.53,0,0,0,.51.52h0l12,1.23a1.19,1.19,0,0,1,1.07,1.19V17a1.18,1.18,0,0,1-1.07,1.18l-12,1.23h0a.52.52,0,0,0,0,1h0L93.2,19.22a1.16,1.16,0,0,1,.92.3,1.18,1.18,0,0,1,.39.88v2.46a3.07,3.07,0,0,0,2.58,3,1.19,1.19,0,0,1,1,1.18v7.69a1.22,1.22,0,0,1-.35.84l-11,11a3.25,3.25,0,0,0,0,4.52,31.06,31.06,0,0,0,8,5.35,2.67,2.67,0,0,0,3.09-4.23l-2.56-2.54a1.21,1.21,0,0,1,0-1.69l5.33-5.32a3.16,3.16,0,0,1,4.46,0L110.47,48a1.19,1.19,0,0,1,0,1.65l-2.72,2.93a2.67,2.67,0,0,0,3.28,4.1h0l.45-.26a32.94,32.94,0,0,0,7.1-5,3.93,3.93,0,0,0,1.28-2.71A3,3,0,0,0,119,46.57ZM99.13,27.1a1.2,1.2,0,0,1,1.19-1.19h5.09a1.19,1.19,0,0,1,1.19,1.19v6.64a1.18,1.18,0,0,1-1.19,1.18h-5.09a1.19,1.19,0,0,1-1.19-1.18Zm19.12,23.25a34.59,34.59,0,0,1-7.52,5.36l-.19.11a1.72,1.72,0,0,1-.83.22,1.55,1.55,0,0,1-1.22-.59,1.64,1.64,0,0,1,.05-2.13l3.84-4.14a.52.52,0,0,0,0-.72l-6.53-6.53a4.3,4.3,0,0,0-5.93,0l-6.53,6.53a.48.48,0,0,0-.15.37.48.48,0,0,0,.15.36L97.15,53a1.62,1.62,0,0,1,.14,2.11,1.55,1.55,0,0,1-2,.46,30.3,30.3,0,0,1-7.78-5.17,2.1,2.1,0,0,1-.63-1.52,2.14,2.14,0,0,1,.63-1.53l11-11a1.21,1.21,0,0,1,.84-.35h7.09a1.21,1.21,0,0,1,.84.35l11,11A2.16,2.16,0,0,1,118.25,50.35Z"/><path d="M69.68,10.94a4.13,4.13,0,1,0,4.13,4.12A4.13,4.13,0,0,0,69.68,10.94Zm0,7.21a3.09,3.09,0,1,1,3.09-3.09A3.09,3.09,0,0,1,69.68,18.15Z"/><path d="M69.68,25.93A10.87,10.87,0,1,1,80.55,15.06,10.89,10.89,0,0,1,69.68,25.93Zm0-20.74a9.87,9.87,0,1,0,9.87,9.87A9.88,9.88,0,0,0,69.68,5.19Z"/><path d="M29.17,76.46a4.13,4.13,0,1,0,4.12,4.12A4.13,4.13,0,0,0,29.17,76.46Zm0,7.21a3.09,3.09,0,1,1,3.09-3.09A3.09,3.09,0,0,1,29.17,83.67Z"/><path d="M29.17,6.78a7.12,7.12,0,1,0,7.12,7.12A7.13,7.13,0,0,0,29.17,6.78Zm0,13.21a6.09,6.09,0,1,1,6.08-6.09A6.09,6.09,0,0,1,29.17,20Z"/><path d="M58.25,109.73l-1.44-6.32c-.55-2.43-2.78-2.88-4.57-2.83a1.27,1.27,0,0,1-1.19-.93,6.68,6.68,0,0,0-6.76-5.09,1.13,1.13,0,0,1-.86-.34,1.18,1.18,0,0,1-.36-.85V81.7a13.86,13.86,0,0,0-3.66-9.39,1.23,1.23,0,0,1-.31-.72l-3-42.8c0-.43-.25-2.34.16-2.79s1.35-1.08,1.66-1.34a13.86,13.86,0,0,0,4.95-8.59,17.39,17.39,0,0,0,.15-1.85c0-.87-.06-1.76-.08-1.93A13.9,13.9,0,1,0,21.79,25.68a1.17,1.17,0,0,1,.56,1.09L19.24,71.59a1.23,1.23,0,0,1-.31.72,13.86,13.86,0,0,0-3.66,9.39V93.37a1.18,1.18,0,0,1-.36.85,1.31,1.31,0,0,1-.86.34,6.73,6.73,0,0,0-6.77,5.09,1.23,1.23,0,0,1-1.19.93c-1.81-.07-4,.4-4.57,2.83L.09,109.73a3.59,3.59,0,0,0,.73,3.06,3.61,3.61,0,0,0,2.82,1.39H41.9a.52.52,0,1,0,0-1H3.64A2.61,2.61,0,0,1,1.1,110l1.43-6.32a2.6,2.6,0,0,1,2.54-2H53.26a2.59,2.59,0,0,1,2.54,2L57.24,110a2.61,2.61,0,0,1-2.54,3.18H50.17a.52.52,0,1,0,0,1H54.7a3.7,3.7,0,0,0,3.55-4.45ZM16.3,13.9A12.87,12.87,0,1,1,29.17,26.77,12.88,12.88,0,0,1,16.3,13.9Zm7,14.26a1.24,1.24,0,0,1,.52-.91,1.23,1.23,0,0,1,1-.14,13.94,13.94,0,0,0,8.64,0,1.19,1.19,0,0,1,1.56,1.05l2.8,40.37h0a1.21,1.21,0,0,1-.56,1.09,1.23,1.23,0,0,1-1.22,0,14.07,14.07,0,0,0-13.8,0,1.27,1.27,0,0,1-.59.16,1.24,1.24,0,0,1-.64-.18,1.21,1.21,0,0,1-.55-1.1Zm-7,53.54A12.87,12.87,0,1,1,42,81.7V93.37a1.19,1.19,0,0,1-1.19,1.19H17.49a1.19,1.19,0,0,1-1.19-1.19ZM49.63,100a1.17,1.17,0,0,1-1,.54H9.7a1.19,1.19,0,0,1-1.09-1.67,5.49,5.49,0,0,1,5-3.31h31a5.5,5.5,0,0,1,5,3.31A1.2,1.2,0,0,1,49.63,100Z"/><path d="M58.1,20.08h0l-15.46.4h0a.46.46,0,0,0-.23.06.51.51,0,0,0-.19.71.47.47,0,0,0,.41.25h0l15.5-.39h0a.48.48,0,0,0,.26-.06.51.51,0,0,0-.29-1Z"/><path d="M58.82,7.76,42.55,6.3h0a.46.46,0,0,0-.25.06.51.51,0,0,0-.2.7.53.53,0,0,0,.41.26h0L58.73,8.79a.52.52,0,0,0,.56-.46.53.53,0,0,0-.11-.39A.54.54,0,0,0,58.82,7.76Z"/></g></g></svg>