<svg xmlns="http://www.w3.org/2000/svg" viewBox="0 0 216.11 152.71"><g id="e2e22690-0445-4ba6-b39f-c26230e1318c" data-name="Layer 2"><g id="3a0e62f6-299e-47d4-8da1-2dbf0aae9586" data-name="Layer 1"><path fill="none" stroke="#000" stroke-miterlimit="10" d="M103.33 129.51L99.77 131.54 97.2 152.21 56.86 152.21 54.28 131.54 39.64 123.1 20.82 131.08 0.65 96.16 16.94 83.85 16.94 66.85 0.65 54.55 20.82 19.62 39.64 27.57 54.41 19.64 56.86 0.5 97.2 0.5 99.65 19.64 114.43 27.87 133.24 19.77 153.41 54.62 137.12 66.89 137.12 83.86 153.41 96.17 133.24 131.1 114.43 123.14 103.33 129.51"/><path d="M18.5,89.52c-2.94-3.2-4.23-9-4.71-11.91a11.13,11.13,0,0,1,0-3.66C14.28,71,15.56,65.25,18.5,62c3.88-3,12.73-1.47,12.73-1.47V91S22.39,92.47,18.5,89.52Z" fill="#ee1944"/><path d="M134.51,89.52c2.94-3.2,4.23-9,4.71-11.91a11.13,11.13,0,0,0,0-3.66c-.49-2.94-1.77-8.71-4.71-11.91-3.88-3-12.73-1.47-12.73-1.47V91S130.63,92.47,134.51,89.52Z" fill="#ee1944"/><ellipse cx="76.51" cy="75.36" rx="51.26" ry="37.15" fill="#ededf6" stroke="#000" stroke-miterlimit="10"/><rect x="40.17" y="62.82" width="72.68" height="25.08" rx="11.44" ry="11.44" fill="#fff" stroke="#000" stroke-miterlimit="10"/><circle cx="97.73" cy="75.36" r="7.11" fill="#ee1944"/><circle cx="55.29" cy="75.36" r="7.11" fill="#ee1944"/><path fill="#fff" stroke="#000" stroke-miterlimit="10" d="M87.45 87.9L77.55 87.9 70.36 62.82 80.26 62.82 87.45 87.9z"/></g></g></svg>