<svg xmlns="http://www.w3.org/2000/svg" viewBox="0 0 91.98 69.77"><defs><style>.cls-1{fill:#f12535}</style></defs><g id="Слой_2" data-name="Слой 2"><g id="Layer_1" data-name="Layer 1"><path d="M35.24,60.71l-6.6-3.78-8.75,3.7L10.31,44l7.58-5.72V31l-7.58-5.7L19.9,8.7l8.74,3.77L35.05,8.9,36.19,0H55.34l1.14,8.9,6.4,3.43,8.75-3.7,9.58,16.59-7.57,5.72v7.68l-.15.13a135.08,135.08,0,0,1-18,12.35,133.65,133.65,0,0,1-20.09,9.54ZM28.69,56l6.62,3.79A133.68,133.68,0,0,0,55.09,50.4,134.45,134.45,0,0,0,72.83,38.24v-7.7L80.15,25,71.29,9.66l-8.45,3.57L55.73,9.42,54.63.81H36.9l-1.1,8.6-7.11,4L20.24,9.73,11.37,25l7.32,5.52v8.16l-7.32,5.53L20.24,59.6Zm17.07-9.5a11.9,11.9,0,1,1,11.9-11.9A11.91,11.91,0,0,1,45.76,46.53Zm0-23A11.09,11.09,0,1,0,56.85,34.63,11.1,11.1,0,0,0,45.76,23.54Z"/><path class="cls-1" d="M77.89,4.5a20.7,20.7,0,0,1,9,1.07,8.42,8.42,0,0,1,3.7,2.77A7.71,7.71,0,0,1,92,12.82a18.46,18.46,0,0,1-2.84,8.77A48.13,48.13,0,0,1,83.75,29,90.65,90.65,0,0,1,70.33,41.44a140.45,140.45,0,0,1-15.2,10.14,139.06,139.06,0,0,1-16.43,8,89.68,89.68,0,0,1-17.51,5.27A46.07,46.07,0,0,1,12,65.6,22.34,22.34,0,0,1,7.43,65a12.14,12.14,0,0,1-4.31-1.82,9.39,9.39,0,0,1-.91-.76,9.6,9.6,0,0,1-.79-.9A7.4,7.4,0,0,1,.34,59.45a9.32,9.32,0,0,1-.1-4.63,23.1,23.1,0,0,1,3.91-8.2,31.32,31.32,0,0,0-2.13,4A17.18,17.18,0,0,0,.67,54.9a8.76,8.76,0,0,0,.25,4.35,6.5,6.5,0,0,0,2.66,3.31,11.53,11.53,0,0,0,4.05,1.6,21.72,21.72,0,0,0,4.42.42,43.79,43.79,0,0,0,8.9-1,97.12,97.12,0,0,0,17.19-5.4,139.18,139.18,0,0,0,16.19-8c10.44-6,20.36-13.11,28.5-22a47.57,47.57,0,0,0,5.44-7.14,17.89,17.89,0,0,0,2.93-8.26,7,7,0,0,0-1.09-4.12A7.74,7.74,0,0,0,86.74,6a15.64,15.64,0,0,0-4.32-1.18A27.36,27.36,0,0,0,77.89,4.5Z"/><circle class="cls-1" cx="5.25" cy="44.49" r="2.52"/><circle class="cls-1" cx="75.37" cy="4.58" r="2.52"/><path d="M63,56.46l8.6,3.64,9.22-16-5-3.76A133.23,133.23,0,0,1,57.64,52.93,131.76,131.76,0,0,1,35.87,63.08l.83,6.69H55.14l1.18-9.45Z" fill="#ee1944"/></g></g></svg>