<svg xmlns="http://www.w3.org/2000/svg" viewBox="0 0 216.48 152.71" id="reality"><g id="reality-arm-1"><path d="M157.9,102.38a6.54,6.54,0,0,0,1.95,4.64,6.44,6.44,0,0,0,3,1.66l.67.17a8.26,8.26,0,0,0,2,0h0c.16,0,.63-.17.63-.17a6.34,6.34,0,0,0,4.66-4.71L171,103l17.21-.1,0,1.22a16.36,16.36,0,0,0,28,10.88.69.69,0,0,0,.2-.49.7.7,0,0,0-.21-.5l-5.57-5.51a.7.7,0,0,0-.49-.2h0a.69.69,0,0,0-.49.21,7.13,7.13,0,1,1-.06-10.09.71.71,0,0,0,.49.2h0a.7.7,0,0,0,.49-.21l5.51-5.57a.69.69,0,0,0,.2-.49.7.7,0,0,0-.21-.5,16.25,16.25,0,0,0-11.5-4.71h-.1a16.33,16.33,0,0,0-16,13.35l-.19,1-17.33.1-.25-.94a6.49,6.49,0,0,0-1.7-3,6.57,6.57,0,0,0-11.19,4.72ZM194,93a15,15,0,0,1,19.54-1.52l1.17.86-4.54,4.59-.86-.56a8.56,8.56,0,0,0-10.73,1.15,8.54,8.54,0,0,0,.07,12.07,8.56,8.56,0,0,0,10.74,1l.85-.57,4.59,4.54-1.16.88A15,15,0,0,1,194,93Zm-29.55,4.2h0a5.17,5.17,0,0,1,0,10.35h0a5.17,5.17,0,0,1,0-10.35Z"/><path d="M149.84 101.59H158.23000000000002V102.94H149.84z"/></g><g id="reality-arm-2"><path d="M149.84 101.59H158.23000000000002V102.94H149.84z"/><path d="M188.28,101.5l-17.25.1-.25-.94a6.49,6.49,0,0,0-1.7-3,6.58,6.58,0,0,0-9.24,9.35,6.44,6.44,0,0,0,3,1.66l.67.17a8.26,8.26,0,0,0,2,0h0c.16,0,.63-.17.63-.17a6.34,6.34,0,0,0,4.66-4.71L171,103l17.21-.1,0,.59ZM168.15,106a5.14,5.14,0,0,1-3.65,1.54h0a5.17,5.17,0,0,1,0-10.35h0a5.17,5.17,0,0,1,3.68,8.81Z"/><path fill="#f6f6fb" stroke="#000" stroke-miterlimit="10" d="M188.28 97.71H215.61V106.19999999999999H188.28z"/></g><g id="reality-robot"><path fill="none" stroke="#000" stroke-miterlimit="10" d="M103.33 129.51L99.77 131.54 97.2 152.21 56.86 152.21 54.28 131.54 39.64 123.1 20.82 131.08 0.65 96.16 16.94 83.85 16.94 66.85 0.65 54.55 20.82 19.62 39.64 27.57 54.41 19.64 56.86 0.5 97.2 0.5 99.65 19.64 114.43 27.87 133.24 19.77 153.41 54.62 137.12 66.89 137.12 83.86 153.41 96.17 133.24 131.1 114.43 123.14 103.33 129.51"/><path d="M18.5,89.52c-2.94-3.2-4.23-9-4.71-11.91a11.13,11.13,0,0,1,0-3.66C14.28,71,15.56,65.25,18.5,62c3.88-3,12.73-1.47,12.73-1.47V91S22.39,92.47,18.5,89.52Z" fill="#ee1944"/><path d="M134.51,89.52c2.94-3.2,4.23-9,4.71-11.91a11.13,11.13,0,0,0,0-3.66c-.49-2.94-1.77-8.71-4.71-11.91-3.88-3-12.73-1.47-12.73-1.47V91S130.63,92.47,134.51,89.52Z" fill="#ee1944"/><ellipse cx="76.51" cy="75.36" rx="51.26" ry="37.15" fill="#ededf6" stroke="#000" stroke-miterlimit="10"/><rect x="40.17" y="62.82" width="72.68" height="25.08" rx="11.44" ry="11.44" fill="#fff" stroke="#000" stroke-miterlimit="10"/><circle cx="97.73" cy="75.36" r="7.11" fill="#ee1944"/><circle cx="55.29" cy="75.36" r="7.11" fill="#ee1944"/><path fill="#fff" stroke="#000" stroke-miterlimit="10" d="M87.45 87.9L77.55 87.9 70.36 62.82 80.26 62.82 87.45 87.9z"/></g></svg>