<svg xmlns="http://www.w3.org/2000/svg" viewBox="0 0 1008.17 869.08" class="snow"><path fill="#164c9b" d="M955.81,96.87l-12.1-6a.73.73,0,0,0-.33-.08h-60a3.86,3.86,0,0,0-3.77,3.77v6a3.77,3.77,0,0,0,3.77,3.77h60a.62.62,0,0,0,.33-.07l12.1-6a.8.8,0,0,0,.19-.13.75.75,0,0,0-.19-1.2Zm-72.43,6a2.29,2.29,0,0,1-1.62-.67,2.26,2.26,0,0,1-.67-1.61v-6a2.29,2.29,0,0,1,2.29-2.29h5.4v10.61Zm6.88,0V92.23h4.56v10.61Zm51,0H896.31V92.23h44.92v10.61Zm1.48.25V92l.23.12,10.88,5.44Z"/><path fill="#164c9b" d="M954.12,96.86a6,6,0,0,0,3.93-1.58l.06-.06a267,267,0,0,1,47.76-40.54l.08-.06a5.9,5.9,0,0,0,.68-8.59.57.57,0,0,0-.43-.2.59.59,0,0,0-.37.13.57.57,0,0,0-.09.76,4.8,4.8,0,0,1-.56,7.06l-.19.13c-.8.54-3.25,2.17-6.7,4.64l-1.48,1.06-.23-1.81a5.81,5.81,0,0,0-4-4.81l-3.25-1.08a5.91,5.91,0,0,1-1.43-.7,8,8,0,0,1-1.52-1.51,4.6,4.6,0,0,1-.41-.61,5.52,5.52,0,0,1-.33-.74,6.3,6.3,0,0,1-.32-.93l-.26-1.21a2.72,2.72,0,0,1,.19-1.69l.66-1.46a2.74,2.74,0,0,1,4-1.17l.62.4a2.74,2.74,0,0,1,1,1.19l1,2.26a5.61,5.61,0,0,0,3.21,2.95,6,6,0,0,0,1,.24h.17l.58.06.17,0h0a6.05,6.05,0,0,0,.83-.1l.25,0,.14,0a5.67,5.67,0,0,0,1.15-.43,5.59,5.59,0,0,0,.9-.59,5.75,5.75,0,0,0,1.48-6.84c-.14-.32-.31-.67-.54-1.09s-.33-.62-.57-1a21.22,21.22,0,0,0-6.8-7l-8.78-5.59,2.45-.61a8.76,8.76,0,0,0,5.19-3.67l.26-.4.47-.08h.21A2.24,2.24,0,0,0,995.94,20a10.24,10.24,0,0,0-.47-9l-.58-1L996,9.45a3.86,3.86,0,1,0-5.39-4l-.14,1.24-1.2-.31a11.86,11.86,0,0,0-7.7.64,2.19,2.19,0,0,0-1.28,2.64l.19.63-.47.46a8.67,8.67,0,0,0-2.49,8l.5,2.5-4-2.56-.13-.11-.08-.06-.19-.11a7.7,7.7,0,0,1-3.8-7.39l.47-5a5.51,5.51,0,0,0-.68-3.23,5.69,5.69,0,0,0-.65-.92,5.48,5.48,0,0,0-5-1.83,5.55,5.55,0,0,0-4.06,3,6,6,0,0,0-.62,2.15l-.68,7A15.61,15.61,0,0,0,966,27l1.22.74a4.38,4.38,0,0,1,2,4.75l-3,13.09-5.63,16.93a15.44,15.44,0,0,0-.51,7.72l1.75,9.21v.1a4.83,4.83,0,0,0,3.68,4.3l1.89.47-1.39,1.36c-4.94,4.84-8.26,8.41-8.63,8.81a4.45,4.45,0,0,1-4.91.92,6.35,6.35,0,0,1-2.09-1.5.55.55,0,0,0-.39-.2.59.59,0,0,0-.41.13.55.55,0,0,0-.2.39.56.56,0,0,0,.11.39A7.54,7.54,0,0,0,952,96.4,5.35,5.35,0,0,0,954.12,96.86Zm15-90.92-.22,2.28h-8.83l.28-2.8a4.64,4.64,0,0,1,4.58-4.29,4.4,4.4,0,0,1,3.13,1.51,4.62,4.62,0,0,1,.52.73A4.35,4.35,0,0,1,969.13,5.94Zm25.28,2.71a2.74,2.74,0,1,1,2.73-2.73A2.74,2.74,0,0,1,994.41,8.65Zm-14,.14L982,8.11a11.46,11.46,0,0,1,4.45-.95,9.89,9.89,0,0,1,6,2.08c3.15,2.36,4,6.06,2.44,10.41l-.54,1.5Zm-1.94,8.26a7.55,7.55,0,0,1,2.07-5.22l.72-.77L992.66,21.2,992,22a7.58,7.58,0,0,1-5.83,2.72A7.69,7.69,0,0,1,978.46,17.05Zm14.83,27.84,7.44-5,.54,1.12.05.09.15.28a4.78,4.78,0,0,1-.39,4.63,4.17,4.17,0,0,1-1.48,1.32,4.44,4.44,0,0,1-1.7.49h-.32a5.65,5.65,0,0,1-.58,0,5.15,5.15,0,0,1-.88-.22A4.61,4.61,0,0,1,995,47l-.19-.14a4,4,0,0,1-.85-1Zm-8.42-2.3L984.21,44a3.83,3.83,0,0,0-.31,2l.15,1.36-16.73-2,3-12.74a5.48,5.48,0,0,0-2.53-6L966.53,26a14.44,14.44,0,0,1-6.84-13.61l.29-3h8.81l-.14,1.54A8.91,8.91,0,0,0,973,19.38l.12.09.06.05L994,32.76a19.86,19.86,0,0,1,5.51,5.3l.64.91-7.21,4.8-.56-1.05a3.78,3.78,0,0,0-1.25-1.38l-.63-.41a3.92,3.92,0,0,0-3.18-.45l-.1,0A3.85,3.85,0,0,0,984.87,42.59Zm4.69,10.68L985.17,61l-3.78-1.25a9.44,9.44,0,0,1-5.64-5.13,1.19,1.19,0,0,0-.18-.29.69.69,0,0,0-.18-.16l-.11-.09-.19-.09-.06,0-.18,0-.24,0a1.18,1.18,0,0,0-1.05.8l-2.8,8.42a16.65,16.65,0,0,0-.53,7.77l.29,1.54-8.35,3-1-5.49a14.34,14.34,0,0,1,.47-7.15L967,46.66l0-.13,17.31,2h.09l.33.6a6.88,6.88,0,0,0,.66,1.14l.05.08a7.71,7.71,0,0,0,.71.82l.19.18a7.46,7.46,0,0,0,.95.78,9.79,9.79,0,0,0,1,.54.76.76,0,0,1,.18.09Zm1.54,9.44a4.63,4.63,0,0,1-1.38-.22l-3.46-1.16,4.44-7.77,1.52.5a4.82,4.82,0,0,1,3,2.88,4.2,4.2,0,0,1,.12,2.53,4.38,4.38,0,0,1-4.24,3.24ZM972.91,79l-1.58-8.34h0a14.35,14.35,0,0,1,.49-7.18l2.75-8.24L975.81,57A10.48,10.48,0,0,0,981,60.79l9.8,3.25-1.61,1.25c-3.24,2.5-6.32,5-9.16,7.4-1.85,1.57-3.72,3.21-5.72,5ZM968,82.65a7.63,7.63,0,0,1-1.42.15c-2.08,0-3.23-1.12-3.71-3.64l-.49-2.58,8.35-3,.76,4A4.4,4.4,0,0,1,968,82.65Z"/><g class="snowline" fill="none" stroke="#164c9b" stroke-miterlimit="10"><path d="M956.61,97.54c-26.09,37.07-68.3,88.64-117.88,144.7"/><path d="M838.73,242.24C792.08,295,738.91,351.69,686.49,404.07"/><path d="M686.49,404.07C638.88,451.62,591.91,495.59,551,529.75"/><path d="M551,529.75c-42.53,35.52-78.5,60.42-101.76,67.7a153.73,153.73,0,0,0-26,11.41"/><path d="M423.2,608.86c-37.41,20-85.95,58.48-138.52,99.75"/><path d="M284.68,708.61c-44,34.55-90.84,71.1-136.34,100.52"/><path d="M148.34,809.13C114.6,831,81.6,848.86,51,859.13"/><path d="M51,859.13c-18,6-35.09,9.44-51,9.45"/></g></svg>