<svg xmlns="http://www.w3.org/2000/svg" viewBox="0 0 125.88 125.53"><defs><style>.cls-1{fill:#164c9b}</style></defs><g id="Слой_2" data-name="Слой 2"><g id="Layer_1" data-name="Layer 1"><path class="cls-1" d="M14.94,104.19A7.83,7.83,0,1,0,22.76,112,7.84,7.84,0,0,0,14.94,104.19Zm0,14.23a6.4,6.4,0,1,1,6.4-6.4A6.41,6.41,0,0,1,14.94,118.42Z"/><path class="cls-1" d="M24.4,102.39l-.22-.21V65.41l.26-.22A14.91,14.91,0,0,0,20.91,40l-1-.43V53.33l-5,3.74-5-3.74V39.57L9,40A14.92,14.92,0,0,0,5.43,65.19l.26.22v36.77l-.21.21a13.51,13.51,0,1,0,23,9.63A13.61,13.61,0,0,0,24.4,102.39Zm-9.46,21.72A12.08,12.08,0,0,1,6.88,103l.23-.21V64.7l-.28-.22a13.48,13.48,0,0,1,.6-22l1.11-.74V54.05l6.4,4.8,6.4-4.8V41.72l1.11.74a13.5,13.5,0,0,1,.6,22l-.29.22v38.11L23,103a12.08,12.08,0,0,1-8.06,21.09Z"/><path class="cls-1" d="M18.49,72.18a2.13,2.13,0,0,0-2.13-2.13H13.52a2.14,2.14,0,0,0-2.14,2.13V95a2.14,2.14,0,0,0,2.14,2.13h2.84A2.13,2.13,0,0,0,18.49,95ZM12.8,95.66V71.47h4.27V95.66Z"/><path class="cls-1" d="M64.17,7.56a6.4,6.4,0,1,0,9.06,0A6.42,6.42,0,0,0,64.17,7.56Zm8,8.05a5,5,0,1,1,0-7A5,5,0,0,1,72.22,15.61Z"/><path class="cls-1" d="M108.72,45.5l-6.6,6.61L104.33,61l8.85,2.21,6.61-6.6-2.22-8.86Zm9.49,10.63-5.47,5.47-7.24-1.81-1.81-7.25,5.47-5.46,7.24,1.81Z"/><path class="cls-1" d="M106.35,40.13l-.42.14L80.48,14.81l.07-.37a12.09,12.09,0,1,0-9.5,9.5l.38-.07L96.88,49.32l-.13.41a14.93,14.93,0,1,0,9.6-9.6Zm14.16,23.76A13.51,13.51,0,0,1,98.37,49.4l.17-.43L71.85,22.28l-.39.11A10.68,10.68,0,1,1,79,14.84l-.11.4,26.69,26.69.44-.17a13.51,13.51,0,0,1,14.49,22.13Z"/><path class="cls-1" transform="rotate(-45 93.355 36.731)" d="M92.64 29.62H94.06V43.85H92.64z"/></g></g></svg>