<svg id="Layer_1" data-name="Layer 1" xmlns="http://www.w3.org/2000/svg" viewBox="0 0 108 92"><path d="M12.63,22.68C8,23.09,1.92,53.81,4.38,62a12.08,12.08,0,0,0,8.25,8.5A12.06,12.06,0,0,0,20.87,62c2.47-8.21-3.6-38.93-8.24-39.34" fill="#f12535"/><path d="M18.05,48.17a.33.33,0,0,0-.15-.25.39.39,0,0,0-.54.07L13,53.87V37.18a.39.39,0,0,0-.38-.39.4.4,0,0,0-.39.39v8.91l-4-3.71a.4.4,0,0,0-.55,0,.39.39,0,0,0,0,.54l4.48,4.21V89.92a.4.4,0,0,0,.39.39.39.39,0,0,0,.38-.39V55.16l5-6.71a.32.32,0,0,0,.07-.28"/><path d="M63.86,79.13a3,3,0,0,0-3-3h-1.3V73.2h1.71A1.23,1.23,0,0,0,62.46,72V66.35a1.23,1.23,0,0,0-1.23-1.23H25.38a1.23,1.23,0,0,0-1.23,1.23V72a1.23,1.23,0,0,0,1.23,1.23h1.7v2.9H25.79a3,3,0,0,0,0,6.07h1.63L24.75,90a.35.35,0,0,0,0,.33.41.41,0,0,0,.22.17.38.38,0,0,0,.5-.25l2.76-8.07H58.83l2.43,8.06a.41.41,0,0,0,.19.24.45.45,0,0,0,.19,0l.12,0a.39.39,0,0,0,.23-.19A.42.42,0,0,0,62,90l-2.37-7.83h1.17a3.05,3.05,0,0,0,3-3M61.67,68.76H24.94V66.35a.45.45,0,0,1,.44-.45H61.23a.44.44,0,0,1,.44.45Zm-36.73.79H61.67V72a.44.44,0,0,1-.44.44H25.38a.44.44,0,0,1-.44-.44ZM58.73,76.1H27.86V73.2H58.73Zm4.34,3a2.25,2.25,0,0,1-.66,1.59,2.22,2.22,0,0,1-1.59.66h-1.6a.37.37,0,0,0-.21,0H25.79a2.25,2.25,0,1,1,0-4.5h35a2.25,2.25,0,0,1,2.25,2.25"/><path d="M76.14,34.41H69.68a.49.49,0,0,0-.48.48v9.68a.48.48,0,0,0,.48.48h6.46a.48.48,0,0,0,.48-.48V34.89a.49.49,0,0,0-.48-.48m-.48,9.69h-5.5V35.36h5.5Z"/><path d="M53.54,24.73H34.17a.48.48,0,0,0-.48.47V60.71a.48.48,0,1,0,1,0v-35H53.54a.48.48,0,1,0,0-.95"/><path d="M50.31,61.19a.47.47,0,0,0,.48-.48V54.26a.48.48,0,0,0-.48-.48H43.86a.47.47,0,0,0-.48.48v6.45a.48.48,0,1,0,.95,0v-6h5.51v6a.47.47,0,0,0,.47.48"/><path d="M50.31,34.41H43.86a.48.48,0,0,0-.48.48v9.68a.47.47,0,0,0,.48.48h6.45a.47.47,0,0,0,.48-.48V34.89a.48.48,0,0,0-.48-.48m-.48,9.69h-5.5V35.36h5.5Z"/><path d="M92.28,34.41H85.82a.48.48,0,0,0-.47.48v9.68a.47.47,0,0,0,.47.48h6.46a.48.48,0,0,0,.48-.48V34.89a.49.49,0,0,0-.48-.48M91.8,44.1H86.3V35.36h5.5Z"/><path d="M92.28,15H85.82a.47.47,0,0,0-.47.48V25.2a.47.47,0,0,0,.47.48h6.46a.48.48,0,0,0,.48-.48V15.52a.48.48,0,0,0-.48-.48m-.48,9.69H86.3V16h5.5Z"/><path d="M92.28,53.78H85.82a.47.47,0,0,0-.47.48v9.68a.47.47,0,0,0,.47.48h6.46a.48.48,0,0,0,.48-.48V54.26a.48.48,0,0,0-.48-.48m-.48,9.69H86.3V54.74h5.5Z"/><path d="M76.14,15H69.68a.48.48,0,0,0-.48.48V25.2a.48.48,0,0,0,.48.48h6.46a.48.48,0,0,0,.48-.48V15.52a.48.48,0,0,0-.48-.48m-.48,9.69h-5.5V16h5.5Z"/><path d="M76.14,53.78H69.68a.48.48,0,0,0-.48.48v9.68a.48.48,0,0,0,.48.48h6.46a.48.48,0,0,0,.48-.48V54.26a.48.48,0,0,0-.48-.48m-.48,9.69h-5.5V54.74h5.5Z"/><path d="M89.05,90.25a.48.48,0,0,0,.48-.48V74.11h6a.49.49,0,0,0,.48-.48.48.48,0,0,0-.48-.48H66.45a.47.47,0,0,0-.47.48.48.48,0,0,0,.47.48h6V89.77a.48.48,0,0,0,1,0V74.11H88.58V89.77a.48.48,0,0,0,.47.48"/><path d="M102,90.25a.48.48,0,0,0,.47-.48V5.83a.47.47,0,0,0-.47-.47H60a.47.47,0,0,0-.48.47V60.77a.48.48,0,0,0,.48.48.49.49,0,0,0,.48-.48V6.31h41V89.77a.48.48,0,0,0,.48.48"/></svg>