<svg xmlns="http://www.w3.org/2000/svg" viewBox="0 0 53.22 60.13"><g id="Слой_2" data-name="Слой 2"><g id="Layer_1" data-name="Layer 1"><path d="M7.82,0C3.7.36-1.68,27.62.5,34.9a10.72,10.72,0,0,0,7.32,7.55,10.72,10.72,0,0,0,7.32-7.55C17.32,27.62,11.94.36,7.82,0Z" fill="#f12535"/><path d="M7.82,12.58a.29.29,0,0,0-.28.28v46.8a.28.28,0,0,0,.56,0V12.86A.29.29,0,0,0,7.82,12.58Z"/><path d="M3.46,17.73a.28.28,0,0,0,.08.2l4.09,3.83a.28.28,0,0,0,.39,0,.27.27,0,0,0,.08-.2.25.25,0,0,0-.09-.2L3.93,17.52a.26.26,0,0,0-.19-.07.3.3,0,0,0-.21.08A.26.26,0,0,0,3.46,17.73Z"/><path d="M7.6,28.54a.27.27,0,0,0,.05.39.27.27,0,0,0,.21.05A.25.25,0,0,0,8,28.87l4.48-6a.23.23,0,0,0,.05-.21.27.27,0,0,0-.11-.18.29.29,0,0,0-.39.06Z"/><path d="M50.58,47.46H49.37v-2.7H51a1,1,0,0,0,1-1v-5a1,1,0,0,0-1-1H19.14a1,1,0,0,0-1,1v5a1,1,0,0,0,1,1H20.7v2.7H19.5a2.63,2.63,0,0,0,0,5.26H21l-2.4,7a.27.27,0,0,0,.18.37.28.28,0,0,0,.37-.18l2.46-7.21H48.86L51,59.92a.24.24,0,0,0,.14.17.28.28,0,0,0,.22,0,.39.39,0,0,0,.17-.14.34.34,0,0,0,0-.22l-2.12-7h1.11a2.63,2.63,0,1,0,0-5.26Zm-31.9-8.71a.47.47,0,0,1,.46-.46H51a.46.46,0,0,1,.45.46V41H18.68Zm.46,5.44a.47.47,0,0,1-.46-.46v-2.2H51.4v2.2a.46.46,0,0,1-.45.46Zm29.65.57v2.7H21.28v-2.7ZM52,51.54a2.06,2.06,0,0,1-1.46.61H49.15a.22.22,0,0,0-.16,0H19.5a2.06,2.06,0,0,1,0-4.12H50.58a2.09,2.09,0,0,1,1.46.6,2,2,0,0,1,.6,1.46A2,2,0,0,1,52,51.54Z"/></g></g></svg>