<svg xmlns="http://www.w3.org/2000/svg" viewBox="0 0 51.77 55.6"><defs><style>.cls-1{fill:#1d1d1b}.cls-2{fill:#f12535}</style></defs><g id="Слой_2" data-name="Слой 2"><g id="Layer_1" data-name="Layer 1"><path d="M26.38,47.36h2c.47,0,.48-.17.48-.25A.21.21,0,0,0,28.8,47a.58.58,0,0,0-.4-.1H24.14c-.41,0-.49.08-.49.23a.24.24,0,0,0,.06.18.8.8,0,0,0,.47.08h2.2Z"/><path d="M39.39,55c-.49,0-1,0-1.48,0H35.22c-.32,0-.44,0-.44.23a.28.28,0,0,0,.06.2c.07.07.24.07.41.06h0c1.38,0,2.75,0,4.13,0h.08c.36,0,.46,0,.46-.23a.28.28,0,0,0-.06-.2.77.77,0,0,0-.41-.06Z"/><path d="M42.25,55.48c1.44,0,2.87,0,4.31,0,.34,0,.44,0,.45-.21a.27.27,0,0,0-.06-.19.6.6,0,0,0-.38-.09H42.25a.58.58,0,0,0-.38.08.19.19,0,0,0-.06.19C41.81,55.4,41.89,55.48,42.25,55.48Z"/><path d="M14.26,44.86c0,.14.08.23.44.23H19c.34,0,.44,0,.44-.21a.22.22,0,0,0-.07-.19.46.46,0,0,0-.32-.09H14.68a.53.53,0,0,0-.35.09A.19.19,0,0,0,14.26,44.86Z"/><path d="M16.74,46.85a.63.63,0,0,0-.39.1.21.21,0,0,0-.05.18c0,.06,0,.23.45.23H21a.69.69,0,0,0,.42-.09.22.22,0,0,0,.06-.17c0-.16-.08-.25-.48-.25Z"/><path d="M26.12,44.6H21.69a.5.5,0,0,0-.32.1.19.19,0,0,0-.06.19c0,.15.11.2.4.2h4.37a.61.61,0,0,0,.36-.08.22.22,0,0,0,.06-.17C26.49,44.63,26.26,44.6,26.12,44.6Z"/><path d="M7.91,18.88l0-1.29c-.11.21-.23.41-.34.61v1.33a1.66,1.66,0,0,1,0,.31.62.62,0,0,0,0,.13q0,3.6-.08,7.2-.08,5.27-.12,10.53c0,5.09-.09,10.57-.13,16.75A.7.7,0,0,1,7,55a.88.88,0,0,1-.64.16h-4a.51.51,0,0,0-.33.08A.16.16,0,0,0,2,55.4c0,.07,0,.18.37.18H7.14a.59.59,0,0,0,.38-.09.53.53,0,0,0,.11-.39c0-1.47,0-3,0-4.36l.07-7.89.15-17.95c0-1.32,0-2.63,0-3.94v-.3c0-.6,0-1.19,0-1.79Z"/><path class="cls-1" d="M8.59,16.7H8.07a.52.52,0,0,0-.52.52v1a.52.52,0,0,0,.35.49v-.46s0,0,0,0v-1a.18.18,0,0,1,.17-.18h.49a.18.18,0,0,1,.18.18v1h0v.49a.52.52,0,0,0,.38-.5v-1A.52.52,0,0,0,8.59,16.7Z"/><path class="cls-1" d="M8.33,15.11a.92.92,0,1,0,.92.91A.92.92,0,0,0,8.33,15.11Zm0,1.57A.66.66,0,0,1,7.68,16,.65.65,0,0,1,9,16,.66.66,0,0,1,8.33,16.68Z"/><path class="cls-1" d="M36.1,13.31h-.52a.52.52,0,0,0-.52.53v1a.52.52,0,0,0,.35.49V13.88a.18.18,0,0,1,.17-.18h.5a.18.18,0,0,1,.17.18v1h0v.49a.52.52,0,0,0,.38-.5v-1A.52.52,0,0,0,36.1,13.31Z"/><path class="cls-1" d="M35.84,11.73a.92.92,0,1,0,.92.91A.92.92,0,0,0,35.84,11.73Zm0,1.57a.66.66,0,0,1-.65-.66.65.65,0,1,1,1.3,0A.66.66,0,0,1,35.84,13.3Z"/><path d="M35.85,13.51l-.29,0c-.17.3-.34.36-.5.66L35,17.62h0L34.9,29.17l-.06,5.62c0,5.24-.09,10.65-.13,16a.77.77,0,0,1-.22.61,1,1,0,0,1-.65.18c-1.42,0-2.88,0-4.25,0H23.86c-.85,0-1.4.44-1.4,1.11a1,1,0,0,0,.32.75,1.59,1.59,0,0,0,1.07.36h4.56a1.59,1.59,0,0,1,1.13.3.57.57,0,0,1,.17.48c-.09.71-.72.7-1.13.69H11c-1.31,0-1.41-.08-1.42-1.24l-.07-6.36Q9.32,35,9.18,22.39c0-1,0-1.92,0-2.88s0-1.62-.05-2.43H8.73v1.7c0,.24,0,.47,0,.7v.07h0c0,.16,0,.31,0,.47,0,1.73,0,3.47.05,5.21l.06,5L9,43.4q.06,5.77.13,11.53c0,.66,0,.66.76.66H28.71c.83,0,1.42-.45,1.43-1.09a1,1,0,0,0-.33-.78,1.62,1.62,0,0,0-1.09-.36h-.46c-1.53,0-2.91,0-4.28,0h0c-.92,0-1-.51-1.05-.73a.68.68,0,0,1,.22-.53,1.17,1.17,0,0,1,.85-.24h3c2.47,0,5,0,7.54,0a.93.93,0,0,0,.5-.09c.05,0,.13-.13.13-.39,0-2.51,0-5,.07-7.52v-.33l.06-5.76q0-6.35.1-12.67l.09-11v-.06a.51.51,0,0,1,.11-.44A.52.52,0,0,1,35.85,13.51Z"/><path d="M43.6,51.53a1.46,1.46,0,0,0-.3,0H42c-1.2,0-2.7,0-4.11,0a1.08,1.08,0,0,1-.67-.18.7.7,0,0,1-.2-.56c0-.47,0-.94,0-1.4v-.06c0-.24,0-.47,0-.71l0-4.43-.18-15.47c0-2.26,0-4.53-.07-6.79,0-1.45,0-2.89,0-4.33v-.09l0-1.42c0-.71,0-1.45,0-2.17l-.45-.36-.28,0a.32.32,0,0,1,.22.09.13.13,0,0,1,0,.06h.09l0,1.31h0l.06,6.48c0,3.71.07,7.42.11,11.13L36.49,41c0,3.47.07,6.94.11,10.41a.44.44,0,0,0,.1.35.62.62,0,0,0,.38.09h6.21a1.42,1.42,0,0,0,.31,0c.14,0,.14-.1.14-.13A.16.16,0,0,0,43.6,51.53Z"/><path class="cls-2" d="M50.76,12.42l-.08,0A28.61,28.61,0,0,0,47.62,12a83.19,83.19,0,0,0-9.71-.16,1.48,1.48,0,0,1-1.67-1,29,29,0,0,0-1.35-2.77,35.12,35.12,0,0,0-4.84-7l0,0a4.69,4.69,0,0,0-1.25-1,.6.6,0,0,0-.58,0A.43.43,0,0,0,28,.5a2.89,2.89,0,0,0,.25,1,46.78,46.78,0,0,0,6.08,9.94,1.5,1.5,0,0,1,.25,1.19,1.81,1.81,0,0,0,0,.7c0,.1-.05.18-.12.24s0,0,0,0a53.45,53.45,0,0,0-6.29,8.9A4.67,4.67,0,0,0,27.52,24a.51.51,0,0,0,.23.6.62.62,0,0,0,.7,0,6.79,6.79,0,0,0,.88-.63,26.27,26.27,0,0,0,4.79-5.86s2.43-4.3,2.45-4.35a1.71,1.71,0,0,1,.89-.11,45.86,45.86,0,0,0,8.8.65,21.63,21.63,0,0,0,4.44-.45l.1,0c.58-.13,1-.24,1-.69S51.35,12.52,50.76,12.42Zm-14.93.82a.63.63,0,0,1-.63-.63.64.64,0,0,1,.64-.63.64.64,0,0,1,.63.64A.63.63,0,0,1,35.83,13.24Z"/><path class="cls-2" d="M23.26,15.84l-.08,0a28.61,28.61,0,0,0-3.06-.37,83.19,83.19,0,0,0-9.71-.16,1.47,1.47,0,0,1-1.67-1,29,29,0,0,0-1.35-2.77,35.12,35.12,0,0,0-4.84-7l0,0a4.69,4.69,0,0,0-1.25-1,.6.6,0,0,0-.58,0,.43.43,0,0,0-.2.44,2.89,2.89,0,0,0,.25,1,46.78,46.78,0,0,0,6.08,9.94,1.55,1.55,0,0,1,.25,1.19,1.87,1.87,0,0,0,0,.71c0,.09,0,.17-.12.23l0,.05a53.63,53.63,0,0,0-6.3,8.89A5,5,0,0,0,0,27.42a.52.52,0,0,0,.23.6A.64.64,0,0,0,1,28a5.3,5.3,0,0,0,.88-.63,26.27,26.27,0,0,0,4.79-5.86s2.43-4.3,2.45-4.35A1.71,1.71,0,0,1,10,17a45.86,45.86,0,0,0,8.8.65,21.45,21.45,0,0,0,4.43-.45l.11,0c.58-.12,1-.24,1-.69S23.85,15.94,23.26,15.84Zm-14.93.83A.64.64,0,0,1,7.7,16,.63.63,0,1,1,9,16,.63.63,0,0,1,8.33,16.67Z"/></g></g></svg>