<svg xmlns="http://www.w3.org/2000/svg" viewBox="0 0 58.43 58.43"><defs><style>.cls-1{fill:#f12535}</style></defs><g id="Слой_2" data-name="Слой 2"><g id="Layer_1" data-name="Layer 1"><path class="cls-1" d="M0.33 42.63L0.33 40.67 5.42 37.37 11.75 36.27 16.07 36.83 17.17 40.97 13.24 40.67 9.72 40.3 6.44 41.08 2.97 43.53 1.23 43.53 0.33 42.63z"/><path class="cls-1" d="M58.16 15.77L58.16 17.73 53.06 21.03 46.74 22.13 42.41 21.57 41.32 17.43 45.24 17.73 48.77 18.1 52.05 17.32 55.52 14.87 57.26 14.87 58.16 15.77z"/><path d="M51.65,21.74a13.07,13.07,0,0,0,6.16-3.54,2.14,2.14,0,0,0,.62-1.51,2.13,2.13,0,0,0-3.64-1.51,9.36,9.36,0,0,1-1.93,1.51l-.45.27L41.48,6l.26-.46a10.32,10.32,0,0,1,1.51-1.93,2.08,2.08,0,0,0,.63-1.51A2.11,2.11,0,0,0,43.25.62a2.14,2.14,0,0,0-3,0C35.68,5.18,35.9,10.75,36.6,15.09l.15,1-1-.2C30,14.67,24,14.23,19.09,19.09A13.17,13.17,0,0,0,15.22,27a.2.2,0,0,0,0,.15.17.17,0,0,0,.13.07.16.16,0,0,0,.15,0,.22.22,0,0,0,.08-.13,12.83,12.83,0,0,1,3.75-7.68c5.06-5.05,11.45-4.18,17-3l.43.1.09.43c.17.86.32,1.53.48,2.24l.24,1.06-1-.23c-5.8-1.32-10.92-2.1-14.79,1.83-4.27,4.27-2.92,10.1-1.49,16.27,1.58,6.78,3.21,13.8-2.42,19.42a1.69,1.69,0,0,1-1.22.5,1.75,1.75,0,0,1-1.23-.5A1.72,1.72,0,0,1,15,56.3a1.75,1.75,0,0,1,.5-1.23c4.29-4.28,2.95-10,1.54-16.06a49.68,49.68,0,0,1-1.49-8.62.17.17,0,0,0-.07-.14.22.22,0,0,0-.16-.05.2.2,0,0,0-.12.06.17.17,0,0,0-.05.15,36.14,36.14,0,0,0,.75,5.38l.2,1-1-.16c-4.34-.69-9.91-.91-14.46,3.64a2.11,2.11,0,0,0,1.51,3.62,2.13,2.13,0,0,0,1.51-.6,9.71,9.71,0,0,1,1.93-1.51L6,41.47l0,0L17,52.41l-.27.45a9.36,9.36,0,0,1-1.51,1.93,2.14,2.14,0,0,0,3,3c4.55-4.56,4.34-10.13,3.64-14.47l-.16-1,1,.2c5.81,1.2,11.84,1.63,16.7-3.23s4.43-10.9,3.23-16.7l-.2-1,1,.16a25.66,25.66,0,0,0,4.89.36.2.2,0,0,0,.14-.06.17.17,0,0,0,.05-.15.2.2,0,0,0-.06-.14.25.25,0,0,0-.15-.05,26.28,26.28,0,0,1-5.5-.48l-.44-.07-.85-3.7,1,.21c5.16,1,9.28,1,12.62-2.3A1.77,1.77,0,0,1,56.3,15h0A1.71,1.71,0,0,1,58,16.69a1.69,1.69,0,0,1-.51,1.22,12.59,12.59,0,0,1-6,3.44.2.2,0,0,0-.15.24.24.24,0,0,0,.09.13A.29.29,0,0,0,51.65,21.74ZM3.36,43A1.73,1.73,0,0,1,.91,43,1.72,1.72,0,0,1,.4,41.74a1.69,1.69,0,0,1,.51-1.22,13.37,13.37,0,0,1,10-3.89,27.42,27.42,0,0,1,4.85.48l.44.08.1.43c.11.48.22,1,.34,1.45L17,40.88l-1-.2C10.82,39.63,6.7,39.63,3.36,43Zm3-1.72,1.07-.33c2.26-.69,4.93-.6,9.24.31l.43.09.09.43c.92,4.31,1,7,.31,9.24l-.33,1.07L17.13,52Zm22.8-21.92a35.37,35.37,0,0,1,8.18,1.25l.41.1.09.4a35.82,35.82,0,0,1,1.26,8.18l0,1.61L27.56,19.35Zm-6.36,2.14a9,9,0,0,1,4-1.9l.36-.07,0,0L38.94,31.29l-.08.35a9.07,9.07,0,0,1-1.9,4l-.47.57,0,0L22.23,22Zm-3.24,5.32a9,9,0,0,1,1.91-4l.47-.57,0,0L36.2,36.48l-.57.48a9,9,0,0,1-4,1.9l-.35.07h0L19.5,27.15Zm1,10.56a35.76,35.76,0,0,1-1.25-8.18l0-1.61L30.87,39.09H29.11a36.58,36.58,0,0,1-8-1.25l-.41-.09Zm20.9-17.73c1.58,6.79,3.2,13.82-2.42,19.44A13.37,13.37,0,0,1,29.12,43,34,34,0,0,1,22,42l-.44-.09-.08-.44c-.11-.53-.24-1.16-.49-2.25l-.24-1,1,.24c5.77,1.31,10.87,2.08,14.78-1.83,4.24-4.24,2.9-10.08,1.49-16.26C36.54,13.54,34.93,6.5,40.52.91A1.75,1.75,0,0,1,43,.91a1.73,1.73,0,0,1,0,2.45C38.71,7.62,40.06,13.45,41.48,19.62ZM51,17.51a11,11,0,0,1-3.3.46,29.46,29.46,0,0,1-5.94-.77l-.43-.09-.09-.43c-.91-4.31-1-7-.31-9.24l.33-1.07.06,0L52.06,17.18Z"/></g></g></svg>