<svg id="Layer_1" data-name="Layer 1" xmlns="http://www.w3.org/2000/svg" viewBox="0 0 90 92"><path d="M45.13,13.8a6.69,6.69,0,1,0,6.69,6.69,6.7,6.7,0,0,0-6.69-6.69m0,12.51A5.82,5.82,0,1,1,51,20.49a5.83,5.83,0,0,1-5.82,5.82"/><path d="M51.28,20.55a6.15,6.15,0,1,1-6.15-6.14,6.15,6.15,0,0,1,6.15,6.14" fill="#f12535"/><path d="M82.59,29.66l0-.15.16-15.33L70,14.05,69.89,14A41,41,0,0,0,21,13.49l-.1.06L8.22,13.43,8,28.91a40.84,40.84,0,0,0-.36,35.38l0,.15L7.47,87.91,82,88.66,82.23,65a40.84,40.84,0,0,0,.36-35.38M7.73,62.36l-.66-1.83a39.79,39.79,0,0,1,.28-27.87L8,30.84ZM9.08,14.3l10.65.11L19,15A41.36,41.36,0,0,0,9.61,26L9,27.07ZM8.35,87.05l.21-20.91.64,1.13A41.13,41.13,0,0,0,33.65,86.62l2.44.71Zm28.79-.43-.42-.09A40.09,40.09,0,0,1,28.9,84l-.38-.17,6.75-10.39L34.54,73,27.75,83.44l-.27-.13a40.06,40.06,0,0,1-4.88-2.79l-.28-.19L35.4,60l-.73-.47-13,20.26-.3-.22A40.74,40.74,0,0,1,8.61,64.24l0-.15.28-27.36L33.4,37a4.26,4.26,0,0,1,4.2,4.29Zm44,1.16L53.35,87.5l2.46-.65A41.21,41.21,0,0,0,80.65,68l.66-1.11Zm.2-22.8a40.87,40.87,0,0,1-13,15.1l-.3.21L55.11,59.42l-.74.46,12.9,20.91L67,81a39.44,39.44,0,0,1-5,2.7l-.28.13L55,72.83l-.74.46L61,84.19l-.38.16a40.41,40.41,0,0,1-7.84,2.34l-.42.08.46-45.36a4.24,4.24,0,0,1,4.28-4.2l24.54.25Zm.32-28.39-24.54-.25a5.12,5.12,0,0,0-5.16,5.06l-.46,45.48-.29,0a41.25,41.25,0,0,1-5.65.47h-.35l.3-29.69h-.87l-.3,29.69h-.36a38.84,38.84,0,0,1-5.63-.58L38,86.74l.46-45.48a5.1,5.1,0,0,0-5.06-5.15L8.86,35.86l.06-5.19,72.74.73Zm.06-6.06L8.93,29.8,9,29a40.73,40.73,0,0,1,5.26-8.06l.21-.25,9.76,7.52.53-.68L15.05,20l.25-.28a39.65,39.65,0,0,1,3.28-3.2l.21-.19L34.15,28.19l.53-.68L19.44,15.76l.34-.27c.28-.23.58-.44.87-.65l.48-.34.09-.07,15,.15v-.87l-13.86-.14,1-.63a40.25,40.25,0,0,1,44.26.44l1,.65-13.91-.14v.87l15,.16.09.07.44.32c.26.2.52.39.76.59l.35.29L55.72,27.72l.52.7L72,16.79l.21.19a41.48,41.48,0,0,1,3.22,3.27l.25.28-9.86,7.29.52.7,9.94-7.34.21.25a41,41,0,0,1,5.19,8.27l0,.15Zm0-2.73-.64-1.12a41.31,41.31,0,0,0-9.15-11.13l-.73-.62L81.83,15Zm.51,35.31.32-31.52.66,1.83a39.79,39.79,0,0,1-.28,27.87Z"/></svg>