<svg id="Layer_1" data-name="Layer 1" xmlns="http://www.w3.org/2000/svg" viewBox="0 0 90 92"><path d="M21.16,37.64a24.71,24.71,0,1,0,6.15-5.75.36.36,0,0,0-.2.35.67.67,0,0,0,.34.52.36.36,0,0,0,.41,0,23.53,23.53,0,0,1,12.81-3.87h1.18L41.58,30c-.5,2.09-1.69,5.83-4.12,7.35-4.8,3-6.53,7.07-4.61,10.9s6,3.18,9.57,2.57l1.81-.3.36-.36.65.53a3.94,3.94,0,0,1,.91,2.51,40.87,40.87,0,0,1,.19,4.76c0,3.48,0,6.77,1.25,8.32.93,1.18,2.42,1.4,4.2.61,3-1.33,6.27-5.4,5.77-8.46s-.85-5-.08-6.79c.67-1.52,2.28-2.94,5.21-4.63l1.11-.63.26,1.24A23.71,23.71,0,0,1,27.48,72.12L27,71.8l.08-.57a11.83,11.83,0,0,0-1.89-8l-.08-.16c-.28-.7,0-1.69,1.3-4.39a20.36,20.36,0,0,0,1.52-3.82c.49-2.12-.9-3-3.3-3.69A5.15,5.15,0,0,1,23,50.54a13.21,13.21,0,0,1-2-3.13,21.34,21.34,0,0,0-1.87-3.07l-.36-.43.22-.52a23.21,23.21,0,0,1,3-5.15.43.43,0,0,0-.13-.65.58.58,0,0,0-.33-.14.41.41,0,0,0-.33.19m41.65,8.15c-3.61,2-5.41,3.57-6.23,5.43s-.52,4.25,0,7.36c.43,2.56-2.5,6.2-5.19,7.39a3.82,3.82,0,0,1-1.53.37,1.85,1.85,0,0,1-1.5-.69c-.93-1.19-1-4.05-1-7.67s0-6.83-1.41-8a1.93,1.93,0,0,0-1.62-.45c-.65.08-1.3.19-1.93.3H42.3c-4.33.74-7.07,1-8.57-2-.62-1.24-2.15-5.61,4.25-9.61,3-1.86,4.26-6.53,4.67-8.45l.17-.82.84.1A23.89,23.89,0,0,1,63.24,44.67l.26.74Zm-43.3,1c.17.3.33.6.48.89l.1.17a13.21,13.21,0,0,0,2.28,3.47,5.84,5.84,0,0,0,2,.84c1.61.48,3,.89,2.62,2.51a20.17,20.17,0,0,1-1.45,3.63c-1,2.17-2,4.21-1.16,5.5a11.11,11.11,0,0,1,1.8,5.28l.17,2.38L24.61,69.8a23.8,23.8,0,0,1-7.46-17.25A23.44,23.44,0,0,1,17.8,47l.55-2.31Z"/><path d="M11.54,14.46l2.45,5L22.09,29l5.83,3.79,4.65,1.62h8.3l7.82-2.89,10-6.49.83-1.23-5.6-9.11a45.44,45.44,0,0,0-5-5c-1.5-1.27-6.53-4.41-6.53-4.41l-3.5-1L30.75,3.7,24.6,6.08l-6,3.31Z" fill="#f12535"/><path d="M88.7,26.2c1.52-3.59,1.46-8.18-.16-13.27a33.41,33.41,0,0,0-2.92-6.66.45.45,0,0,0-.45-.19,34.35,34.35,0,0,0-6.8,2.55c-4.78,2.38-8.11,5.54-9.63,9.13a17.83,17.83,0,0,0-.53,10.74l.7,3.15-2.16-2.41a35.05,35.05,0,0,0-6.57-5.72L60,23.4l-.1-.2a51.77,51.77,0,0,0-5.76-8.81.3.3,0,0,0-.31-.15.57.57,0,0,0-.41.33.31.31,0,0,0,.08.34,50.62,50.62,0,0,1,4.74,7l.9,1.6L45.51,20.82l-.06-.08L33.38,4.28l1.7,0a19.19,19.19,0,0,1,3.34.34A22.71,22.71,0,0,1,48.67,9.91c.15.13.25.12.33.09a.57.57,0,0,0,.34-.4.29.29,0,0,0-.13-.32A23.49,23.49,0,0,0,38.58,3.83C33,2.73,26.45,4.19,19.64,8A49.47,49.47,0,0,0,11,14.22a.48.48,0,0,0-.06.6l.08.12a50.87,50.87,0,0,0,5.57,8.76,38.81,38.81,0,0,0,5.84,6l2.06,1.54A21.07,21.07,0,0,0,34.67,35c3.16.22,11.58-.05,21.31-7.38,1.72-1.23,3-2.27,3.56-2.78l.5-.44.55.39A34.37,34.37,0,1,1,6.67,47.17a.3.3,0,0,0-.11-.33.59.59,0,0,0-.24-.09h-.1a.32.32,0,0,0-.37.3,35.19,35.19,0,0,0,29,40.45,35.49,35.49,0,0,0,5.81.48A35.22,35.22,0,0,0,72.86,38.73l-.39-.89.92-.27a34.62,34.62,0,0,0,5.69-2.24c4.78-2.38,8.1-5.54,9.62-9.13m-64-19.7a29.12,29.12,0,0,1,7.27-2l.5-.07.08.12L44.31,20.59,32,18.18l-.05-.08L23.69,6.91ZM13.52,13.16a51.28,51.28,0,0,1,8.77-5.58l.63-.31.13.17L30.75,18,12.08,14.31Zm5.93,12.6a50.06,50.06,0,0,1-6.55-9L12,15.13l18.35,3.58-.21.16L20,26.32Zm8.88,6.73a26.61,26.61,0,0,1-7-4.87l-.75-.7.25-.18,10.65-7.81.11,0,12.63,2.46-.46.34-14.94,11Zm29.2-7c-3.37,2.65-12.17,8.82-21.24,8.82a18.57,18.57,0,0,1-3.61-.34q-.66-.14-1.38-.33l-1.68-.47.19-.14L45.3,21.63l.11,0L59,24.29ZM85.34,7.36l.81,1.74a33.1,33.1,0,0,1,1.62,4.14A24.56,24.56,0,0,1,89,19.54l0,.59-.16.07-10.7,4.41ZM73,13.26a24.1,24.1,0,0,1,5.7-3.86,34.15,34.15,0,0,1,4.09-1.73l1.79-.62L77.15,24.79,72.56,13.66Zm-.83,23.45L71.35,35a34.81,34.81,0,0,1-1.68-4.26c-1.07-3.4-2-8.36-.16-12.64A13.14,13.14,0,0,1,71,15.46l.9-1.21.07.19L76.7,25.87Zm6.6-2.15a32.84,32.84,0,0,1-4,1.68l-1.8.64L77.67,25.7l.09,0L89,21l-.19,1.45a13.33,13.33,0,0,1-.9,3.42c-1.82,4.28-6,7.09-9.18,8.68"/></svg>