<svg xmlns="http://www.w3.org/2000/svg" viewBox="0 0 66.63 59.07"><defs><style>.cls-1{fill:#ee1944}</style></defs><g id="Слой_2" data-name="Слой 2"><g id="Layer_1" data-name="Layer 1"><path d="M24.91 38.62L17.87 31.58 17.52 31.92 24.71 39.1 34.24 39.1 34.24 38.62 24.91 38.62z"/><path class="cls-1" d="M16.29,27.75a2.37,2.37,0,1,0,2.36,2.37A2.37,2.37,0,0,0,16.29,27.75Zm0,4.25a1.88,1.88,0,1,1,1.88-1.88A1.88,1.88,0,0,1,16.29,32Z"/><path d="M23.38 44.82H34.16V45.3H23.38z"/><path class="cls-1" d="M21.17,42.9a2.19,2.19,0,1,0,2.18,2.19A2.19,2.19,0,0,0,21.17,42.9Zm0,3.89a1.71,1.71,0,1,1,1.7-1.7A1.71,1.71,0,0,1,21.17,46.79Z"/><path d="M16.04 10.47L9.56 3.99 9.22 4.33 15.84 10.95 24.62 10.95 24.62 10.47 16.04 10.47z"/><path class="cls-1" d="M8.09.34a2.2,2.2,0,1,0,2.19,2.2A2.21,2.21,0,0,0,8.09.34Zm0,3.91A1.72,1.72,0,1,1,9.8,2.54,1.71,1.71,0,0,1,8.09,4.25Z"/><path d="M29.59 5.43L29.59 4.95 19.77 4.95 16.09 14.05 4.34 14.05 4.34 14.53 16.42 14.53 20.1 5.43 29.59 5.43z"/><path class="cls-1" d="M2.2,12.09a2.2,2.2,0,1,0,2.19,2.2A2.21,2.21,0,0,0,2.2,12.09ZM2.2,16a1.71,1.71,0,1,1,1.71-1.71A1.72,1.72,0,0,1,2.2,16Z"/><path d="M51.83,3.7C45.47-1,38,.06,37.09.21l.09.47C38,.54,45.34-.52,51.54,4.09c4.93,3.66,7.88,9.88,8.75,18.5L66,33.49l-4.9,1.93,1.41,2.23-2.54,1.49,2.43,1.49-1.51,1.9.09.15c.07.12,1.79,3.13.73,4.91-.54.91-1.78,1.35-3.67,1.28a77.81,77.81,0,0,0-9.34,0l-.22,0v9.68H31v.48H48.93V49.34H49c.83-.06,3.37-.18,9,0,2.07.07,3.46-.44,4.11-1.53,1-1.76-.22-4.43-.63-5.21l0,0,1.65-2.08-2.21-1.35,2.27-1.33-1.36-2.16,4.85-1.92L60.77,22.5C59.87,13.76,56.86,7.44,51.83,3.7Z"/><path class="cls-1" d="M47.47,20.89l2.17-1.64L47,14.61l-2.5,1.05-2-1.05-.33-2.55H36.8l-.33,2.55-2,1.09L32,14.63l-2.69,4.63,2.17,1.63v2.26l-2.17,1.64L32,29.43l2.5-1.06,2,1.12.34,2.75h5.36l.34-2.75,2-1.12L47,29.43l2.69-4.65-2.17-1.63Zm-8,4.47A3.34,3.34,0,1,1,42.82,22,3.34,3.34,0,0,1,39.48,25.36Z"/></g></g></svg>