<svg xmlns="http://www.w3.org/2000/svg" viewBox="0 0 46.03 58.99"><defs><style>.cls-1{fill:#f12535}</style></defs><g id="Слой_2" data-name="Слой 2"><g id="Layer_1" data-name="Layer 1"><path d="M0,12.46a.28.28,0,0,0,.27.28H14.68a2.86,2.86,0,0,0,0-5.72H3.8a.27.27,0,0,0-.27.27.28.28,0,0,0,.27.28H14.68a2.31,2.31,0,0,1,0,4.62H.27A.27.27,0,0,0,0,12.46Z"/><path class="cls-1" d="M38.34 7.13L26.34 7.13 24.71 7.31 23.01 8.89 23.11 11.39 25.28 12.77 43.69 12.56 38.34 7.13z"/><path d="M23,25.66H45.75a.27.27,0,1,0,0-.54H35l.3-.87a2.16,2.16,0,0,0,.12-.71V22h5.21a5.34,5.34,0,0,0,3.78-9.11L36,4.46A15.18,15.18,0,0,0,25.24,0H.27A.27.27,0,0,0,0,.28.27.27,0,0,0,.27.55h25a14.63,14.63,0,0,1,10.39,4.3L37.79,7H25.59a2.86,2.86,0,1,0,0,5.72H43.51l.52.51a4.79,4.79,0,0,1-3.39,8.17H.27A.28.28,0,0,0,0,21.7.27.27,0,0,0,.27,22H5v1.57a1.9,1.9,0,0,0,.13.71l.3.87H.32a.27.27,0,1,0,0,.54H15.83a.27.27,0,1,0,0-.54h-7l.31-.87a2.12,2.12,0,0,0,.12-.71V22H31.19v1.57a2.16,2.16,0,0,0,.12.71l.31.87H23a.27.27,0,0,0,0,.54Zm2.55-13.47a2.31,2.31,0,1,1,0-4.62H38.34L43,12.19ZM8.73,23.54a1.58,1.58,0,1,1-3.15,0V22H8.73Zm23-1.57h3.15v1.57a1.58,1.58,0,1,1-3.15,0Z"/><path d="M46,45.79a.28.28,0,0,1-.28.27H31.35a2.86,2.86,0,0,1,0-5.72H42.23a.28.28,0,0,1,.27.28.27.27,0,0,1-.27.27H31.35a2.31,2.31,0,0,0,0,4.62h14.4A.29.29,0,0,1,46,45.79Z"/><path class="cls-1" d="M7.69 40.46L19.68 40.46 21.31 40.63 23.01 42.22 22.92 44.72 20.75 46.09 2.33 45.89 7.69 40.46z"/><path d="M23.26,58.71a.27.27,0,0,0-.27-.27H14.41l.3-.87a2.06,2.06,0,0,0,.12-.7V55.3H36.75v1.57a2.06,2.06,0,0,0,.12.7l.31.87h-7a.28.28,0,0,0,0,.55H45.7a.28.28,0,1,0,0-.55H40.56l.31-.87a2.06,2.06,0,0,0,.12-.7V55.3h4.76A.29.29,0,0,0,46,55a.28.28,0,0,0-.28-.27H5.38A4.79,4.79,0,0,1,2,46.58l.51-.52H20.44a2.86,2.86,0,0,0,0-5.72H8.23l2.17-2.16a14.57,14.57,0,0,1,10.39-4.31h25A.28.28,0,0,0,46,33.6a.29.29,0,0,0-.28-.28h-25A15.15,15.15,0,0,0,10,37.79l-8.4,8.4A5.34,5.34,0,0,0,5.38,55.3h5.21v1.57a2.06,2.06,0,0,0,.12.7l.31.87H.28a.28.28,0,1,0,0,.55H23A.27.27,0,0,0,23.26,58.71ZM3.06,45.51l4.62-4.62H20.44a2.31,2.31,0,0,1,0,4.62ZM37.3,55.3h3.14v1.57a1.57,1.57,0,0,1-3.14,0Zm-23,1.57a1.57,1.57,0,1,1-3.14,0V55.3h3.14Z"/></g></g></svg>