<svg id="Layer_1" data-name="Layer 1" xmlns="http://www.w3.org/2000/svg" viewBox="0 0 957 258"><defs><style>.cls-1{fill:#e52045}.cls-2{fill:#fff}.cls-3{fill:#1a1a1a}</style></defs><path class="cls-1" d="M233.73,122.89l4.41-1.79-.15-5-4.16-1.75L232,110.12l2-4.23-3.54-3.63-4.08,1.95-2.6-.85a1.83,1.83,0,0,1-1.59,1.65,6.39,6.39,0,0,1-3.43-1.08s1.21,3.71-.89,4.47-3.75-1-4.58-2-3.1-3.83-3.1-3.83,1.78,4.28,1.54,5.55-.82,1.72-1.26,1.8.6-1-1.2-2.93-5.74-3.22-5.74-3.22l-1.89,2,2,4.53-1.9,3.84-4.8,2.13v4.85l4.59,1.63,2.11,4.28-1.92,4.52,1.17,1.17a4.63,4.63,0,0,1,2.07-.81s1-2.52,2.35-2.51a9,9,0,0,1,7.43,3.93,26.34,26.34,0,0,1,3.36,6.08h2.31l1.63-4.54,3.92-2.15,1.73.78s.49-1.35,2.72-1.53,3,.47,3,.47l.66-1.08L232.2,127ZM217.85,126a7.4,7.4,0,1,1,7.39-7.4,7.4,7.4,0,0,1-7.39,7.4"/><path d="M202.84,133.16a.41.41,0,0,1-.29-.13s-.37-.37-1-.95a1.06,1.06,0,0,1-.23-1.39c.27-.53.52-1.06.77-1.6s.54-1.14.82-1.7a.72.72,0,0,0,0-.77c-.3-.6-.56-1.21-.82-1.82s-.41-.93-.62-1.39a1.11,1.11,0,0,0-.43-.47c-1.34-.51-2.71-1-3.76-1.3a1,1,0,0,1-.78-1.09c0-1.52,0-2.77,0-3.92a1.06,1.06,0,0,1,.84-1.14c1.38-.45,2.54-.84,3.69-1.28a1,1,0,0,0,.44-.46c.54-1.06,1.05-2.16,1.53-3.28a.78.78,0,0,0,0-.52c-.53-1.22-1.1-2.39-1.64-3.48a1,1,0,0,1,.21-1.39c.5-.47.68-.65,1.06-1l.24-.24a.42.42,0,0,1,.59,0,.42.42,0,0,1,0,.6l-.23.23c-.39.4-.57.58-1.08,1.06-.14.14-.16.15,0,.4.54,1.1,1.12,2.29,1.66,3.52a1.61,1.61,0,0,1,0,1.18c-.48,1.14-1,2.27-1.55,3.34a1.81,1.81,0,0,1-.88.87c-1.17.44-2.34.83-3.74,1.29-.25.08-.26.11-.26.32,0,1.16,0,2.42,0,4,0,.2,0,.21.19.27,1.06.34,2.44.8,3.81,1.32a1.81,1.81,0,0,1,.88.89c.22.47.42.94.63,1.42s.51,1.19.8,1.77a1.56,1.56,0,0,1,0,1.52c-.29.56-.55,1.13-.81,1.69s-.51,1.08-.78,1.62c-.11.22-.1.25.06.4.62.59,1,1,1,1a.42.42,0,0,1,0,.6.42.42,0,0,1-.3.12"/><path d="M233.15,132.89a.4.4,0,0,1-.29-.12.42.42,0,0,1,0-.6c.31-.32.44-.45.74-.78a.66.66,0,0,0,0-.24c-.28-.62-.57-1.24-.87-1.85s-.54-1.14-.8-1.71a1.56,1.56,0,0,1-.06-1.08c.45-1.29.88-2.43,1.31-3.49a1.66,1.66,0,0,1,.85-.86c1-.41,2.09-.81,3.52-1.3.18-.07.2-.08.19-.3,0-1.41,0-2.7,0-4,0-.22,0-.25-.25-.34-1-.33-2.21-.77-3.45-1.27a1.81,1.81,0,0,1-.87-.9c-.42-1-.84-2-1.33-3.35a1.57,1.57,0,0,1,0-1.07l.84-1.79c.3-.63.6-1.26.89-1.89a.52.52,0,0,0,0-.25c-.49-.52-1-1-1.54-1.57s-.87-.88-1.29-1.33c-.12-.12-.12-.12-.29,0-1.3.65-2.47,1.2-3.57,1.69a1.55,1.55,0,0,1-1.12,0l-.51-.18c-.46-.16-.68-.24-1.34-.51a.42.42,0,1,1,.32-.78c.64.26.86.34,1.3.49l.52.19a.69.69,0,0,0,.49,0c1.08-.48,2.24-1,3.54-1.68a1,1,0,0,1,1.27.22c.42.44.85.88,1.28,1.31s1.06,1.06,1.57,1.61a1.21,1.21,0,0,1,.17,1.15c-.29.64-.59,1.28-.89,1.91s-.57,1.18-.84,1.78a.71.71,0,0,0,0,.43c.48,1.29.9,2.34,1.31,3.31a1,1,0,0,0,.42.45c1.22.49,2.46.93,3.4,1.26a1.07,1.07,0,0,1,.83,1.15c0,1.24,0,2.52,0,3.92a1,1,0,0,1-.77,1.11c-1.42.48-2.49.88-3.48,1.28a.82.82,0,0,0-.38.4c-.43,1-.85,2.17-1.3,3.45a.71.71,0,0,0,0,.45c.26.57.53,1.13.8,1.69s.59,1.25.87,1.88a1.18,1.18,0,0,1-.14,1.16l-.76.79a.43.43,0,0,1-.3.13"/><path d="M219.83,139.86l-1.58,0a.42.42,0,1,1,0-.84l1.56,0c.21,0,.23,0,.31-.25.44-1.36.87-2.58,1.31-3.73a1.74,1.74,0,0,1,.83-.86c1.09-.5,2.24-1,3.44-1.49a1.52,1.52,0,0,1,1.13,0l1,.45a.42.42,0,0,1-.36.76l-.92-.42a.77.77,0,0,0-.54,0c-1.18.47-2.32,1-3.39,1.47a.91.91,0,0,0-.41.39c-.43,1.13-.85,2.34-1.28,3.69a1.06,1.06,0,0,1-1.1.84"/><path d="M217.83,126.68a8.12,8.12,0,0,1-5.73-13.84,8.11,8.11,0,1,1,5.74,13.84Zm.07-15.36a7.29,7.29,0,0,0-5.2,2.12,7.26,7.26,0,0,0,5.13,12.4,7.26,7.26,0,0,0,.09-14.52Z"/><path class="cls-2" d="M217.38,13.75l.07,11.36s0,5.88-1,8.38-2,6-7.47,4.95l-.43,5s1.78,11.1-3,10.3-6.18-4.63-7.37-7.13a4.72,4.72,0,0,0-3.86-2.6l3.82-14.56s-5.52.21-4.73-4.66,6.26-3,6.26-3A95.37,95.37,0,0,0,210,17.92c3.35-1.68,7.36-4.17,7.36-4.17"/><path d="M206.79,38.42c.79.15,1.56.29,2.19.39a9,9,0,0,0,3.53,0,5.32,5.32,0,0,0,3.74-3.54c1.21-3,1.39-6.22,1.56-9.36l0-.44c.11-1.92,0-11.52-.06-11.78a.41.41,0,0,0-.48-.3.4.4,0,0,0-.3.48c0,.28.17,9.37,0,11.55l0,.45c-.16,3.07-.33,6.25-1.5,9.1A4.6,4.6,0,0,1,212.32,38a8.2,8.2,0,0,1-3.22,0c-1.29-.2-3.19-.57-4.51-.93a.4.4,0,1,0-.21.77c.7.19,1.57.39,2.41.56"/><path d="M199.61,22.2a.41.41,0,0,0,.19,0c14.53-4.38,18.52-8.72,18.69-8.91a.41.41,0,0,0,0-.56.4.4,0,0,0-.57,0c0,.05-4.06,4.38-18.32,8.67a.41.41,0,0,0-.27.5.42.42,0,0,0,.31.28"/><path d="M207,21.11c.33,0,.53.13.54,1.28s-.33,1.48-.62,1.45-.54-.44-.47-1.35.13-1.34.55-1.38"/><path d="M215.52,21.45c.32,0,.53.1.58,1.25s-.29,1.5-.57,1.47-.56-.42-.52-1.33.09-1.34.51-1.39"/><path d="M217.34,19.34a.41.41,0,0,0,.36-.11.4.4,0,0,0,0-.57,3,3,0,0,0-3-.72.4.4,0,0,0-.32.46.4.4,0,0,0,.47.32,2.28,2.28,0,0,1,2.3.51.44.44,0,0,0,.2.11"/><path d="M196.64,29.83l.3.05a4.64,4.64,0,0,0,2.41-.34.4.4,0,0,0,.21-.52.42.42,0,0,0-.53-.21,3.77,3.77,0,0,1-4.47-1.17,3.75,3.75,0,0,1,3.48-6,3.56,3.56,0,0,1,2,.92.41.41,0,0,0,.57,0,.4.4,0,0,0,0-.56,4.44,4.44,0,0,0-2.42-1.11,4.56,4.56,0,0,0-1.5,9"/><path d="M196.4,27.79a.4.4,0,0,0,.3-.06l3-2a.39.39,0,0,0,.18-.31.43.43,0,0,0-.14-.33l-2.93-2.5a.4.4,0,0,0-.56.05.39.39,0,0,0,0,.56l2.53,2.16-2.51,1.67a.4.4,0,0,0-.11.55.39.39,0,0,0,.25.17"/><path d="M209.06,32.31a4,4,0,0,0,1.64,0,.4.4,0,0,0,.31-.47.42.42,0,0,0-.47-.31,2.58,2.58,0,0,1-2.16-.34,3.08,3.08,0,0,1-.91-2,.4.4,0,0,0-.4-.39.4.4,0,0,0-.39.41,3.72,3.72,0,0,0,1.21,2.62,2.73,2.73,0,0,0,1.17.54"/><path d="M166.48,51.83a.41.41,0,0,0,.36-.11.39.39,0,0,0,0-.56c-2.53-2.5-1.34-7.79.46-10.49a15.76,15.76,0,0,1,6.58-5.36,38.48,38.48,0,0,1,6.65-2.23l.74-.2c1.72-.47,4.17-1.32,5.44-3.26,1.7-2.57,1.49-5.33,1.06-7.68-.08-.44-.17-.88-.26-1.34-.51-2.6-1.09-5.55-.46-8.06.55-2.19,2.23-4.85,4.38-5.69a36.51,36.51,0,0,1,7.49-2.16c1.75-.25,17.22-2.31,21.34,5.05,1.36,2.43,1.75,5.55,1.22,9.54a18,18,0,0,1-1.24,4.13A19.86,19.86,0,0,0,219,27.53a11.4,11.4,0,0,0,1.51,7.64,14.43,14.43,0,0,0,1.66,2.11,15.66,15.66,0,0,1,1.39,1.7,9.76,9.76,0,0,1,1.58,4.15c.32,2.47-.23,5.67-2.73,7.29a.4.4,0,0,0,.44.67c2.81-1.82,3.43-5.36,3.08-8.06a10.58,10.58,0,0,0-1.71-4.5,16.87,16.87,0,0,0-1.46-1.78,14.42,14.42,0,0,1-1.57-2,10.59,10.59,0,0,1-1.4-7.11A18.7,18.7,0,0,1,221,23.7a19.36,19.36,0,0,0,1.29-4.31c.56-4.17.13-7.46-1.32-10-4.37-7.83-20.34-5.72-22.15-5.45a36.76,36.76,0,0,0-7.66,2.21c-2.52,1-4.29,3.92-4.87,6.23-.67,2.69-.07,5.73.46,8.42.09.45.17.89.25,1.32.4,2.2.61,4.77-.93,7.1-1.13,1.71-3.39,2.49-5,2.93l-.74.2a39.75,39.75,0,0,0-6.78,2.28,16.49,16.49,0,0,0-6.91,5.64c-1.94,2.93-3.19,8.7-.35,11.49a.44.44,0,0,0,.2.11"/><path d="M195.35,41.66a.4.4,0,0,0,.47-.33l2.79-11.42a.39.39,0,0,0-.31-.45.42.42,0,0,0-.47.32L195,41.2a.4.4,0,0,0,.31.46"/><path d="M213.78,29.67a.4.4,0,0,0,.44-.23c.39-.87,1.25-3,.6-3.73-.4-.46-1.46-.33-2.29-.13l.09-5a.38.38,0,0,0-.4-.4.39.39,0,0,0-.4.39l-.1,5.58a.42.42,0,0,0,.16.32.37.37,0,0,0,.35.06,4.4,4.4,0,0,1,2-.24c.18.22-.17,1.62-.74,2.87a.4.4,0,0,0,.2.53l.09,0"/><path class="cls-1" d="M316.55,132.41a2.65,2.65,0,0,1,.42.72c1.41,3.76,2.71,7.57,4,11.38A1.85,1.85,0,0,0,323,146c4-.07,7.92-.08,11.88,0a1.9,1.9,0,0,0,2.17-1.62c1.21-3.76,2.5-7.5,3.9-11.19a3.84,3.84,0,0,1,1.87-1.88q5.09-2.37,10.29-4.46a3.42,3.42,0,0,1,2.42-.05c4,1.79,8,3.73,12.18,5.69,3.25-3.3,6.5-6.53,9.64-9.86a2.38,2.38,0,0,0,.19-2.11c-1.61-3.6-3.4-7.14-5-10.74a3.39,3.39,0,0,1-.16-2.28c1.22-3.52,2.52-7,3.94-10.48a3.78,3.78,0,0,1,1.85-1.89c3.47-1.4,7-2.67,10.53-3.9a1.85,1.85,0,0,0,1.46-2.1c-.07-4-.08-7.92,0-11.88a2,2,0,0,0-1.62-2.22c-3.47-1.2-6.93-2.44-10.33-3.83a4.1,4.1,0,0,1-1.94-2c-1.43-3.3-2.72-6.66-4-10a3.2,3.2,0,0,1,0-2.24c1.67-3.73,3.52-7.38,5.18-11.12a2.32,2.32,0,0,0-.27-2.07c-2.8-3-5.75-5.85-8.58-8.8a1.69,1.69,0,0,0-2.33-.38c-3.54,1.76-7.11,3.47-10.71,5.08a3.59,3.59,0,0,1-2.44.11q-5.18-1.86-10.24-4A3.76,3.76,0,0,1,341,33.94c-1.39-3.47-2.65-7-3.87-10.54-.38-1.13-.84-1.68-2.17-1.65-3.95.1-7.92.09-11.87,0a2,2,0,0,0-2.21,1.63c-1.19,3.48-2.54,6.89-3.72,10.37a3.06,3.06,0,0,1-2.22,2.12q-4.91,1.71-9.64,3.86a3.09,3.09,0,0,1-3.06,0c-3.47-1.75-7-3.35-10.48-5.09a1.8,1.8,0,0,0-2.5.44c-2.74,2.85-5.53,5.67-8.4,8.39a1.91,1.91,0,0,0-.37,2.69c1.72,3.48,3.41,7,5,10.54a3.62,3.62,0,0,1-.07,2.57q-2.16,5.06-4.63,10a4.18,4.18,0,0,1-2,2c-3.69,1.41-7.44,2.66-11.2,3.89a1.93,1.93,0,0,0-1.64,2.18c.08,4,.07,7.92,0,11.88a1.81,1.81,0,0,0,1.48,2.07c3.82,1.23,7.64,2.5,11.4,3.93a4.23,4.23,0,0,1,2,2c.51,1.07,1,2.16,1.47,3.26ZM282.2,100.46c.93,2.14,1.83,4.3,2.88,6.38a3.41,3.41,0,0,1,.08,3.46c-1.64,3.29-3.14,6.65-4.77,9.94a2,2,0,0,0,.42,2.69c2.87,2.73,5.68,5.53,8.4,8.4a1.91,1.91,0,0,0,2.68.38c3.41-1.69,6.89-3.26,10.31-5a3,3,0,0,1,3.06.07c3.28,1.63,6.7,3,10,4.53a3.72,3.72,0,0,1,1.27,1ZM329,106.34a23.15,23.15,0,1,1,23.18-23.12A23.07,23.07,0,0,1,329,106.34"/><path class="cls-3" d="M291.22,36.08s-2.62,10.54-5.15,16.06-6.72,16.73-23,25.47S229,84.94,226.32,84.48V86l.42,8.68H214.69l-10.07,13.21a83.77,83.77,0,0,1-18.49,5.42c-9.17,1.33-20.46,2.52-27.35.59s-11.09-5.32-12.29-9.36-.55-8.46,3.22-15.75,7.79-15.26,12-20.65S172.14,54.91,177.36,53a81.51,81.51,0,0,1,11.07-3.08l25.43.94s14.64,3,20.06,4.56,9.36,2.65,15.47,1.46a22,22,0,0,0,11.77-6.45c2.46-2.32,5-7.26,5.79-9.64s1.9-8.25,1.9-8.25,2,3.73,10.19,4.6,11.46.29,12.18-1"/><path class="cls-2" d="M286.07,37.3a15,15,0,0,1,3.33-7.08c2.83-3.27,6.82-7.78,8-10.28s2-3.81,0-5-2.43-.34-2.43-.34a2.13,2.13,0,0,0-.9-3.24c-2.31-1.12-2.92.17-2.92.17s.13-2.45-1.51-3a3.15,3.15,0,0,0-3.57.64c-.74.81-7.77,10.66-7.77,10.66a6.76,6.76,0,0,1-.73-1.86c-.12-.8.05-6.7-3.6-6.42s-3.56,3.49-2.36,8a32.85,32.85,0,0,1,1,11.53,27.49,27.49,0,0,1-.78,3.43s1.4,1.6,6.1,2.32a38.72,38.72,0,0,0,8.14.44"/><path class="cls-2" d="M194.6,91.08s10.08-.48,13.83.07,6.18.13,9.86,4.89,5.15,6.81,4.92,7.66-1.52,2-2.37,1.76-2.06-1.88-2.06-1.88,2.95,4.15-.32,4.77a4.38,4.38,0,0,1-4.89-2.09c-.51-.64-1.9-2.91-1.9-2.91l1.83,3.3s.37,2.74-1.81,3-3.14-.45-3.81-1.9a50.07,50.07,0,0,0-4.32-5.71,8.87,8.87,0,0,1-8.69,1.67,10.1,10.1,0,0,1-1.43-5.65,40.18,40.18,0,0,1,1.16-7"/><path class="cls-2" d="M278,119.27s-1.83,7.14-1.88,8.15c0,0-4.86,2.38-4.88,4s2.26,4.69,2.26,4.69a4.91,4.91,0,0,0,2.55-.09c1.13-.44,3.56.43,4.68.74s3.18,1,3.86-.21a36.84,36.84,0,0,0,3.2-9.69,33.4,33.4,0,0,1,1.07-5.31s-7.87-3.7-10.86-2.32"/><path class="cls-2" d="M292.85,138.22s4.42.7,5.75-2.84-.29-6.55-2.59-6.94-5.13-.21-6.11,1.73l-2.43,15.71s-.24,2.84-6.61,2.87v3.43l17.27-1.72-.69-6.74s-3.2,1.91-4.37,1.38-.22-6.88-.22-6.88"/><path class="cls-2" d="M232.68,158.06s-.64-4.93-.61-6.35-.23-7.6-.09-9.86a19.55,19.55,0,0,1,1.08-5.64c.48-1.08,1.89-3.18.09-3.74s-3.3-1.07-5,.64a13.91,13.91,0,0,0-3,5.66c-.26,1-.38,5.14-3,4.79s-3.17-1.58-3.51-2.86-2.93-6.9-5.33-8.92-4.28-2.69-5.53-2.22-2.73,1.86-2.57,2.35c0,0-3.68.12-3.48,3.35,0,0,1.34,2.39,2.17,3.52a28.17,28.17,0,0,1,4,6.87c1.39,3.51,3.3,7,5.51,8.5s3.86,2.72,4.28,5.92c0,0,1.64.71,7.4,0s7.6-2,7.6-2"/><path class="cls-1" d="M211.81,158.69s2.76,3.39,13.94,1.1,11.74-4.68,11.74-4.68,7.2,22.72,7.78,24.5,2,6.6,3.07,7.55,3.27,2.75,5.34,2a8.74,8.74,0,0,0,5-4c1.06-2.07,5.86-13.82,7-15.93s5.67-9.72,10-11.15A31.39,31.39,0,0,1,290,156.23c6.55.52,12,.26,15.67,1.35s7.4,5.23,11.12,11,8.33,13.55,10.61,18.73,5.8,12.79,6.68,18.76,2.26,13.22-2.24,16.27A11.32,11.32,0,0,1,321.6,224c-1.3-.57-2.7-1.38-2.7-1.38s.5,26.58,1.31,30.73l-.21.45-58.63-.09,1.26-37.32s-12,4.32-22.72.49-16.77-15.57-17.58-17.32-5.48-13.8-7.24-23.1-3.28-17.77-3.28-17.77"/><path class="cls-2" d="M194.33 44.03L188.43 49.89 203.19 66.67 206.05 55.12 212.83 64.81 213.88 50.56 208.78 44.19 194.33 44.03z"/><path class="cls-3" d="M292.85,138.22s-1.63,6.68.22,6.88,5.66-2.12,7.91-4.29a19.82,19.82,0,0,0,6.56-11.69c1-6.18,1.14-10.37-4.06-11.25a28.78,28.78,0,0,0-8.19-6.34c-4.79-2.33-13.18-3.79-16.91-.86a8.45,8.45,0,0,0-3.32,8.22,34.75,34.75,0,0,0,1.79,3.63l1.51-3.63s7.39.16,10.47,2.7c0,0-1.68,8.46-2.56,11.29s-1.68,4.61-3.5,4.38a39.45,39.45,0,0,1-5-1.3,6.09,6.09,0,0,0-2.09.2,7.76,7.76,0,0,1-1.42,0,1.93,1.93,0,0,0-.82,0s-1.82,7.23-2,8.16.31,2.61,3.39,3.49a18.61,18.61,0,0,0,8.72.7c2.59-.54,3.55-.81,4.19-4s2-14.41,2-14.41a5.09,5.09,0,0,1,4.56-2c3,.31,5.46,2.79,4.58,6.23s-4.73,4.14-6.07,3.88"/><path class="cls-3" d="M272.65,30.68s0,3.14-.95,3.8-3.29-2.09-2.86-2.51a5.79,5.79,0,0,1,3.81-1.29"/><path class="cls-3" d="M287.53,33a8.76,8.76,0,0,0-1.18,3.88c0,2,4.56,0,4.8-.53s-1-2.44-3.62-3.35"/><path class="cls-3" d="M215.5,155.74s-3.67,1.37-3.55,2.88,5.46,2,5.73,1.87,0-3.84-2.18-4.75"/><path class="cls-3" d="M232.14,153.14a47.05,47.05,0,0,0,.73,5c.24.39,4.84-2.12,4.44-3.24s-5.17-1.75-5.17-1.75"/><path class="cls-3" d="M289.26,181.67s-1,33.07-26.88,41.9l.25-7.17s6.29-2,9.37-5,8-7.77,10.55-12.57,6.5-13.39,6.71-17.18"/><path class="cls-2" d="M278.38,110.67a8.45,8.45,0,0,0-3.32,8.22,34.31,34.31,0,0,0,1.79,3.62l.76-1.82.36-1.42.25,0,.14-.35s.7,0,1.75.11l.27,0s-2.2-3.82.32-6.48,7.17-3.3,11.74-2.08c-4.78-1.58-11-2.14-14.06.27"/><path class="cls-2" d="M279.44,148.7s-.09,0-.22-.06c-1.64-.11-5-2.08-4.32-5.59.64-3.26,1.32-6.55,1.42-7-.35.06-.61.13-.61.13a7.76,7.76,0,0,1-1.42,0,1.93,1.93,0,0,0-.82,0s-1.82,7.23-2,8.16.31,2.61,3.39,3.49a25.64,25.64,0,0,0,4.56.89"/><path d="M327,139.05c-3.82-.08-7.7-.09-12,0a2.27,2.27,0,0,1-2.49-1.79c-1.47-4.47-2.73-8.09-4-11.37a2.72,2.72,0,0,0-.35-.61.42.42,0,0,1,.07-.59.43.43,0,0,1,.59.07,3.36,3.36,0,0,1,.48.83c1.23,3.3,2.49,6.92,4,11.41a1.43,1.43,0,0,0,1.61,1.21c4.36-.08,8.25-.08,12,0,1.06,0,1.43-.3,1.76-1.33,1.3-4,2.58-7.71,3.91-11.21a4.3,4.3,0,0,1,2.08-2.11c3.26-1.52,6.73-3,10.3-4.47a3.85,3.85,0,0,1,2.76,0c3,1.34,5.95,2.73,9.05,4.2l2.87,1.36,2-2c2.47-2.49,5-5.06,7.44-7.64a2,2,0,0,0,.11-1.64c-.85-1.9-1.76-3.81-2.64-5.66-.81-1.69-1.61-3.38-2.38-5.08a3.76,3.76,0,0,1-.17-2.59c1.34-3.86,2.63-7.29,3.95-10.5A4.18,4.18,0,0,1,370,87.37c3-1.22,6.25-2.42,10.55-3.91a1.45,1.45,0,0,0,1.17-1.7c-.07-4.27-.07-8.16,0-11.89,0-1-.29-1.46-1.34-1.82-3.07-1-6.7-2.34-10.35-3.84A4.5,4.5,0,0,1,367.84,62c-1.25-2.9-2.51-6.1-4-10.06a3.69,3.69,0,0,1,0-2.56c.82-1.82,1.68-3.62,2.53-5.42s1.81-3.79,2.66-5.7a2,2,0,0,0-.2-1.61c-1.59-1.69-3.25-3.37-4.86-5q-1.87-1.89-3.72-3.79a1.27,1.27,0,0,0-1.83-.3c-4,2-7.51,3.65-10.73,5.09a4,4,0,0,1-2.75.12c-3.5-1.26-7-2.61-10.27-4a4.32,4.32,0,0,1-2.16-2c-1.23-3-2.42-6.3-3.88-10.56-.32-1-.63-1.37-1.66-1.37-3.86.1-7.74.1-12,0a1.59,1.59,0,0,0-1.8,1.34c-.58,1.69-1.2,3.37-1.82,5.05s-1.3,3.54-1.9,5.32A3.52,3.52,0,0,1,307,28.88c-2,.7-3.76,1.33-6,2.26a.42.42,0,0,1-.32-.78c2.23-.93,4-1.57,6-2.28a2.65,2.65,0,0,0,2-1.86c.61-1.79,1.26-3.57,1.91-5.34s1.23-3.34,1.81-5a2.36,2.36,0,0,1,2.51-1.91c4.34.09,8.22.08,12,0a2.38,2.38,0,0,1,2.58,1.94c1.45,4.24,2.64,7.49,3.86,10.52A3.45,3.45,0,0,0,335,27.94c3.3,1.4,6.74,2.74,10.22,4a3.19,3.19,0,0,0,2.13-.1c3.21-1.44,6.71-3.1,10.69-5.07a2.09,2.09,0,0,1,2.82.46c1.22,1.28,2.47,2.53,3.71,3.79,1.61,1.63,3.28,3.31,4.87,5a2.72,2.72,0,0,1,.36,2.53c-.86,1.92-1.78,3.85-2.66,5.71s-1.71,3.59-2.53,5.41a2.87,2.87,0,0,0,0,1.92c1.45,4,2.71,7.13,4,10a3.61,3.61,0,0,0,1.71,1.81c3.63,1.49,7.25,2.77,10.31,3.83a2.37,2.37,0,0,1,1.9,2.62c-.08,3.72-.08,7.61,0,11.86a2.27,2.27,0,0,1-1.74,2.51c-4.29,1.49-7.53,2.69-10.51,3.9a3.3,3.3,0,0,0-1.62,1.65c-1.31,3.2-2.6,6.62-3.94,10.46a3,3,0,0,0,.15,2c.77,1.7,1.57,3.38,2.37,5.06.88,1.86,1.8,3.78,2.65,5.69a2.73,2.73,0,0,1-.26,2.56c-2.44,2.59-5,5.16-7.46,7.65l-2.2,2.22a.39.39,0,0,1-.47.08L356.37,124c-3.1-1.47-6-2.85-9-4.19a3.08,3.08,0,0,0-2.09,0c-3.57,1.44-7,2.94-10.26,4.45a3.45,3.45,0,0,0-1.66,1.65c-1.32,3.49-2.59,7.14-3.89,11.17a2.29,2.29,0,0,1-2.47,1.92m-6-39.69a23.61,23.61,0,0,1-16.68-40.24,23.58,23.58,0,1,1,16.68,40.24v0Zm.19-46.29a22.89,22.89,0,0,0-16.28,6.64,22.73,22.73,0,0,0,16.09,38.81,22.73,22.73,0,0,0,.24-45.45ZM273.93,93a.43.43,0,0,1-.39-.26c-.45-1-.74-1.7-1.23-2.72a3.87,3.87,0,0,0-1.72-1.83c-4-1.53-8-2.84-11.38-3.93a2.19,2.19,0,0,1-1.77-2.48c0-1.36,0-2.26.05-3.63a.42.42,0,0,1,.42-.42.43.43,0,0,1,.42.43c0,1.37,0,2.27-.05,3.64a1.4,1.4,0,0,0,1.19,1.66c3.37,1.09,7.37,2.41,11.42,4a4.59,4.59,0,0,1,2.18,2.25c.49,1,.79,1.7,1.25,2.75a.42.42,0,0,1-.22.55.53.53,0,0,1-.17,0"/><path d="M211,110.28a3.48,3.48,0,0,1-2.42-1,8.79,8.79,0,0,1-1.29-1.67c-.11-.15-.21-.32-.32-.47-.47-.7-.92-1.41-1.36-2.12l-.26-.41a15.93,15.93,0,0,0-2.27-2.56c-.43-.43-.86-.84-1.22-1.25a.35.35,0,0,1,0-.51.36.36,0,0,1,.51,0c.36.4.77.8,1.2,1.22a16.4,16.4,0,0,1,2.38,2.7l.25.4c.44.71.88,1.41,1.35,2.1l.33.49a8.75,8.75,0,0,0,1.18,1.54,2.65,2.65,0,0,0,2.94.6,2.43,2.43,0,0,0,1.07-.77,1.68,1.68,0,0,0,.3-1.13,4.77,4.77,0,0,0-.52-1.63c-.29-.63-.63-1.29-1.07-2.07a62.45,62.45,0,0,0-3.4-5.38A.36.36,0,0,1,209,98a60.06,60.06,0,0,1,3.44,5.44c.45.79.8,1.47,1.1,2.11a5.49,5.49,0,0,1,.59,1.89,2.46,2.46,0,0,1-.44,1.61,3.09,3.09,0,0,1-1.38,1,3.35,3.35,0,0,1-1.3.26"/><path d="M217.39,109a4.43,4.43,0,0,1-3-1.18,7.07,7.07,0,0,1-1.12-1.5c-.16-.26-.33-.52-.5-.76a.36.36,0,0,1,.08-.51.35.35,0,0,1,.5.08q.28.39.54.81a7,7,0,0,0,1,1.36,3.77,3.77,0,0,0,2.92,1,2.52,2.52,0,0,0,1.79-.88,1.18,1.18,0,0,0,.18-1,10.52,10.52,0,0,0-1.63-3.22,37.25,37.25,0,0,0-2.32-3c-.93-1.11-1.8-2.08-2.64-2.94a.37.37,0,0,1,0-.52.37.37,0,0,1,.51,0c.86.88,1.73,1.86,2.68,3s1.65,2,2.36,3a11.1,11.1,0,0,1,1.74,3.47,1.92,1.92,0,0,1-.3,1.59,3.19,3.19,0,0,1-2.3,1.18l-.47,0"/><path d="M220.93,105.82a1.75,1.75,0,0,1-.46,0,2,2,0,0,1-1.26-.89.37.37,0,0,1,.14-.5.38.38,0,0,1,.5.15,1.29,1.29,0,0,0,.79.54,2.66,2.66,0,0,0,2-.68,1.43,1.43,0,0,0,.62-1.07c.18-1.9-2.4-4.68-2.42-4.71-2.32-3.3-5.81-5.85-7.73-6.34-7.11-1.81-18.08-.57-18.18-.56a.34.34,0,0,1-.41-.32.37.37,0,0,1,.32-.4c.11,0,11.22-1.26,18.45.58,2.09.53,5.7,3.14,8.11,6.59.09.08,2.79,3,2.58,5.23a2.13,2.13,0,0,1-.91,1.59,3.72,3.72,0,0,1-2.13.84"/><path d="M197.25,104.67a14.64,14.64,0,0,1-2.14-.15.42.42,0,0,1,.11-.83c4.63.65,6.3-.89,7.87-2a.43.43,0,0,1,.58.11.41.41,0,0,1-.11.59c-1.41,1-2.5,2.25-6.31,2.25"/><path d="M162.37,91.44a.35.35,0,0,1-.35-.3.36.36,0,0,1,.3-.42c17-2.7,38.21-5.53,38.42-5.56a.36.36,0,0,1,.1.72c-.21,0-21.42,2.86-38.41,5.56h-.06"/><path d="M170.08,115.28a60.73,60.73,0,0,1-9.11-.66c-7-1.06-11.58-3.64-13.93-7.9-2.76-5-1.24-11.43,1.11-15.81,1.13-2.11,2.17-4.12,3.16-6,2.1-4.09,4.09-7.94,6.38-11.5,5-7.8,10.75-15.65,18.58-20.21,3.93-2.29,8-3,12.36-3.66a.36.36,0,0,1,.41.3.36.36,0,0,1-.3.42c-4.26.69-8.29,1.34-12.11,3.57-7.69,4.48-13.35,12.25-18.33,20-2.27,3.52-4.25,7.36-6.34,11.43-1,1.93-2,4-3.17,6.06-2.26,4.21-3.73,10.39-1.11,15.12,2.23,4,6.62,6.51,13.4,7.53,10,1.51,21.76.37,34.83-3.4,2.16-.63,4.24-1.29,6.17-2a.35.35,0,0,1,.46.22.38.38,0,0,1-.22.47c-1.94.67-4,1.34-6.21,2a94.77,94.77,0,0,1-26,4.08"/><path d="M175.14,89.49a.36.36,0,0,1-.27-.12.35.35,0,0,1,0-.51c8.77-7.75,13.34-19,13.39-19.08a.36.36,0,1,1,.67.28c0,.11-4.68,11.47-13.58,19.34a.38.38,0,0,1-.24.09"/><path d="M208.78,44.56a.38.38,0,0,1-.37-.39l.32-5.52a.34.34,0,0,1,.39-.34.36.36,0,0,1,.34.38l-.32,5.52a.36.36,0,0,1-.36.35"/><path d="M206.05,55.49a.36.36,0,0,1-.25-.1l-11.72-11.1a.35.35,0,0,1,0-.51.37.37,0,0,1,.52,0l11.26,10.67,2.57-10.49a.37.37,0,0,1,.44-.27.38.38,0,0,1,.27.44l-2.72,11.1a.35.35,0,0,1-.25.26l-.1,0"/><path d="M203.27,67.12A.36.36,0,0,1,203,67L188.41,50.09a.36.36,0,0,1,0-.49l5.64-5.83a.36.36,0,0,1,.52.51l-5.41,5.58L203.08,66,205.69,55a.37.37,0,1,1,.71.17l-2.78,11.63a.34.34,0,0,1-.26.27h-.09"/><path d="M212.91,65.36a.37.37,0,0,1-.3-.15l-6.86-9.88a.35.35,0,0,1,.09-.5.35.35,0,0,1,.5.08l6.26,9,.68-13.55-4.8-6.12a.36.36,0,0,1,.06-.51.37.37,0,0,1,.51.06L213.93,50a.38.38,0,0,1,.08.25L213.27,65a.35.35,0,0,1-.26.33h-.1"/><path d="M244.83,57.56c-4.83,0-9.65-1.26-14.34-2.49-1.93-.51-3.92-1-5.85-1.44l-1.45-.31c-3.49-.75-5.8-1.25-9.61-2a.36.36,0,0,1-.29-.42.36.36,0,0,1,.42-.29c3.82.7,6.13,1.2,9.63,2l1.45.31c2,.41,4,.94,5.88,1.44,6,1.58,12.22,3.21,18.33,2.12,10.85-1.94,18.13-11,19.49-24.28a.35.35,0,0,1,.4-.33.36.36,0,0,1,.32.4c-1.39,13.61-8.9,22.93-20.08,24.92a24,24,0,0,1-4.3.37"/><path d="M233.48,85.19a61.36,61.36,0,0,1-7.62-.4.36.36,0,0,1-.31-.41.35.35,0,0,1,.41-.31,75,75,0,0,0,13.55.16c20.23-2,37.38-13,44.75-28.82a121.06,121.06,0,0,0,6.13-17.76l.47-1.61a.37.37,0,0,1,.45-.25.37.37,0,0,1,.25.45l-.47,1.62a121.72,121.72,0,0,1-6.17,17.86C277.44,71.75,260.06,83,239.57,85c-1.57.15-3.79.24-6.09.24"/><path d="M285.63,38.08a37.23,37.23,0,0,1-6.17-.56,32.88,32.88,0,0,1-7.85-2.27c-2.21-1-3.29-2.08-3.12-3.08s1.36-1.65,3.62-1.85a.32.32,0,0,1,.4.32.37.37,0,0,1-.33.4c-1.28.12-2.83.43-3,1.26-.08.46.58,1.31,2.7,2.29a32,32,0,0,0,7.67,2.21c6.7,1.16,11.09.33,11.28-.78.13-.75-1.11-1.7-3.4-2.6a.36.36,0,0,1-.21-.47.37.37,0,0,1,.47-.2c2.8,1.09,4.06,2.2,3.86,3.39-.24,1.37-2.74,1.94-5.95,1.94"/><path d="M271.77,35.05a.29.29,0,0,1-.16,0,.35.35,0,0,1-.17-.48c.77-1.61,1.81-7.5-.11-14.57-1.07-3.94-1.1-6.37-.11-7.67a3.22,3.22,0,0,1,2.75-1.1c3.09,0,3.44,2.78,3.75,5.23.22,1.79.46,3.65,1.62,4.56,3.16,2.46,2.13,6.45,2.08,6.62a.36.36,0,1,1-.7-.19c0-.15.94-3.7-1.83-5.86-1.4-1.09-1.65-3.1-1.89-5-.31-2.47-.58-4.6-3-4.6a2.54,2.54,0,0,0-2.19.82c-.83,1.09-.75,3.39.24,7,1.8,6.62,1.1,12.91.06,15.07a.36.36,0,0,1-.32.21"/><path d="M283,23.16a.36.36,0,0,1-.24-.09.36.36,0,0,1,0-.51,93.35,93.35,0,0,0,7.66-10.75,3.14,3.14,0,0,0,.4-.83,1.83,1.83,0,0,0-.66-1.71,2.73,2.73,0,0,0-2.7-.53,4.94,4.94,0,0,0-2.13,1.94c-1,1.38-1.88,2.54-2.66,3.55a46.59,46.59,0,0,0-4,5.78.37.37,0,0,1-.5.13.36.36,0,0,1-.13-.49,48,48,0,0,1,4-5.86c.77-1,1.66-2.16,2.64-3.53a5.85,5.85,0,0,1,2.49-2.21,3.45,3.45,0,0,1,3.42.68,2.56,2.56,0,0,1,.87,2.43,3.35,3.35,0,0,1-.49,1A92.09,92.09,0,0,1,283.24,23a.34.34,0,0,1-.27.13"/><path d="M287.24,25.92a.36.36,0,0,1-.24-.09.36.36,0,0,1,0-.51,74.34,74.34,0,0,0,7.7-10.89,2.34,2.34,0,0,0,.42-1.07,2.07,2.07,0,0,0-.89-1.48,2.62,2.62,0,0,0-3.06-.06.37.37,0,0,1-.39-.62,3.35,3.35,0,0,1,3.87.09,2.75,2.75,0,0,1,1.19,2.07,3,3,0,0,1-.51,1.44,75.09,75.09,0,0,1-7.78,11,.36.36,0,0,1-.27.12"/><path d="M286.07,37.85a.38.38,0,0,1-.36-.41,15,15,0,0,1,3.53-7.59c2.35-2.68,6.63-7.55,8.56-11.35a3.17,3.17,0,0,0,.49-1.87,1.9,1.9,0,0,0-1.06-1.34,2.35,2.35,0,0,0-2-.3.36.36,0,1,1-.23-.68,3.06,3.06,0,0,1,2.54.33A2.63,2.63,0,0,1,299,16.51a3.86,3.86,0,0,1-.56,2.32c-2,3.88-6.29,8.8-8.61,11.44a14.23,14.23,0,0,0-3.4,7.26.38.38,0,0,1-.37.32"/><path d="M282.64,125.61a.4.4,0,0,1-.36-.21,2.69,2.69,0,0,0-3.08-1.3.42.42,0,1,1-.26-.8A3.51,3.51,0,0,1,283,125a.42.42,0,0,1-.15.58.38.38,0,0,1-.21,0"/><path d="M279.91,127.24c-.34,0-.57.09-.67,1.3-.11,1.36.24,1.6.54,1.58s.61-.42.6-1.39,0-1.42-.47-1.49"/><path d="M281.86,149.19l-1,0c-2-.08-8.55-.57-9.68-3.62-.32-.85.31-3.58,1.51-8,.17-.63.31-1.16.39-1.5a.44.44,0,0,1,.51-.31.42.42,0,0,1,.31.51c-.08.35-.23.88-.4,1.52-.55,2-1.82,6.72-1.54,7.49.63,1.67,4.13,2.88,8.93,3.06,4.13.17,6.12-.43,6.62-4.37.84-6.61,2-13.78,2-13.85a.42.42,0,0,1,.49-.35.43.43,0,0,1,.35.48c0,.07-1.16,7.23-2,13.83-.52,4.15-2.68,5.13-6.46,5.13"/><path d="M280.74,152.61a.43.43,0,0,1-.42-.44l.12-3.44a.47.47,0,0,1,.43-.41.43.43,0,0,1,.41.44l-.12,3.44a.43.43,0,0,1-.42.41"/><path d="M261.37,254.13a.44.44,0,0,1-.43-.42c-.1-8.14,1.36-37.19,1.38-37.49a.39.39,0,0,1,.44-.39.42.42,0,0,1,.4.44c0,.29-1.47,29.31-1.37,37.43a.44.44,0,0,1-.42.43Z"/><path d="M250,218.93a28.19,28.19,0,0,1-20.6-8.25c-6.73-6.87-10-16.35-12.41-24.73a220.12,220.12,0,0,1-5-24l-.47-2.8a.42.42,0,0,1,.35-.48.41.41,0,0,1,.48.34l.47,2.8a220,220,0,0,0,5,24c2.33,8.26,5.61,17.62,12.2,24.36,10.27,10.47,26,9.46,37,3.83a.42.42,0,1,1,.39.75A39,39,0,0,1,250,218.93"/><path d="M320.25,254.22a.43.43,0,0,1-.42-.38c0-.22-2.13-21.79-1.08-37.62s0-37.13,0-37.34c-.16-3.27-1.83-7.21-3.61-11a20.84,20.84,0,0,0-4.95-7,13.69,13.69,0,0,0-7.68-3.64c-6.12-.7-18.57-.64-18.7-.65a20.21,20.21,0,0,0-7.46,1.59c-3.69,1.63-6.88,4.87-9.48,9.65a99.9,99.9,0,0,0-4.77,10.68c-.46,1.12-.91,2.25-1.38,3.37-.93,2.26-2,4.6-3.91,6.18a6.25,6.25,0,0,1-7.15.75c-2.26-1.3-3-3.62-3.74-5.87l-.16-.48q-1.47-4.51-2.95-9c-1-2.95-1.92-6-2.84-9s-1.9-6.18-2.89-9.17a.44.44,0,0,1,.27-.54.41.41,0,0,1,.53.27c1,3,2,6.15,2.9,9.19s1.87,6.08,2.83,9,2,6,2.95,9l.16.49c.71,2.19,1.38,4.25,3.36,5.39a5.44,5.44,0,0,0,6.19-.67c1.75-1.46,2.74-3.6,3.68-5.85.46-1.12.91-2.24,1.36-3.37a102.36,102.36,0,0,1,4.82-10.77c2.7-4.94,6-8.31,9.88-10a21.1,21.1,0,0,1,7.78-1.67c.15,0,12.64,0,18.82.66a14.65,14.65,0,0,1,8.14,3.84,21.74,21.74,0,0,1,5.15,7.27c1.82,3.86,3.52,7.89,3.69,11.31,0,.21,1.06,21.62,0,37.43s1.06,37.27,1.08,37.48a.42.42,0,0,1-.38.46h0"/><path d="M250.45,219c-1.14,0-2.31-.05-3.52-.15a.42.42,0,0,1,0-.84c33.75,2.81,41.8-36,41.88-36.4a.42.42,0,1,1,.82.17c-.07.38-7.7,37.22-39.22,37.22"/><path d="M325.7,225.21a13.54,13.54,0,0,1-7-2.25.42.42,0,1,1,.49-.69c.3.22,7.5,5.29,13.25-1.05,7.86-8.7-7.36-42.56-21.1-59.22a.44.44,0,0,1,.06-.6.43.43,0,0,1,.6.06c14.23,17.28,29.34,51.18,21.06,60.32a9.59,9.59,0,0,1-7.32,3.43"/><path d="M274.06,136.58a.42.42,0,0,1-.31-.15,20.15,20.15,0,0,1-2.77-3.88,2.13,2.13,0,0,1,.54-2.54c1-.84,3.53-2.43,4.19-2.85.22-1.12,1.37-6.85,2.09-8.17a.41.41,0,0,1,.57-.17.42.42,0,0,1,.17.57c-.6,1.1-1.67,6.23-2,8.11a.4.4,0,0,1-.19.28s-3.15,2-4.25,2.88a1.28,1.28,0,0,0-.32,1.53,20,20,0,0,0,2.64,3.68.43.43,0,0,1-.32.71"/><path d="M294,138.65a5.49,5.49,0,0,1-4.35-2.15.42.42,0,0,1,.67-.51,4.68,4.68,0,1,0,1.75-7.1,4.83,4.83,0,0,0-1.86,1.52.41.41,0,0,1-.58.1.42.42,0,0,1-.1-.59,5.53,5.53,0,0,1,6.4-2A5.52,5.52,0,0,1,294,138.65"/><path d="M294.92,136.52a.41.41,0,0,1-.27-.1l-3.33-2.9a.43.43,0,0,1-.14-.36.43.43,0,0,1,.2-.32l4.42-2.64a.43.43,0,0,1,.58.15.42.42,0,0,1-.15.58l-3.92,2.33,2.89,2.52a.43.43,0,0,1,0,.6.43.43,0,0,1-.32.14"/><path d="M303.69,117.87a.42.42,0,0,1-.42-.42V104.77a9.71,9.71,0,0,0-9.7-9.7H217.88a.42.42,0,1,1,0-.84h75.69a10.55,10.55,0,0,1,10.54,10.54v12.68a.42.42,0,0,1-.42.42"/><path d="M117.84,101.85a.47.47,0,0,1-.16,0,.37.37,0,0,1-.17-.49,9,9,0,0,1,8.07-5.16H147a.36.36,0,0,1,.36.36.37.37,0,0,1-.36.37H125.58a8.29,8.29,0,0,0-7.41,4.75.39.39,0,0,1-.33.21"/><path d="M261.36,241H243.44a.42.42,0,0,1,0-.84h17.92a.42.42,0,0,1,0,.84"/><path d="M222.07,241H184.53c-.48,0-.88-.16-.88-.35s.4-.36.88-.36h37.54c.48,0,.88.16.88.36s-.4.35-.88.35"/><path d="M303.69,154a.42.42,0,0,1-.42-.42V138.14a.42.42,0,0,1,.84,0v15.48a.42.42,0,0,1-.42.42"/><path d="M218.62,160.93c-3.14,0-5.55-.42-6.6-1.21a1.46,1.46,0,0,1-.63-1c-.2-1.42,1.77-2.39,3.27-3a.42.42,0,0,1,.55.23.43.43,0,0,1-.24.55c-1.85.75-2.83,1.49-2.74,2.09a.65.65,0,0,0,.3.41c1.27,1,6,1.48,12.49.56a39.79,39.79,0,0,0,8.86-2.15c2.45-1,3.25-1.83,3.19-2.28s-1.3-1.21-4.48-1.38a.43.43,0,0,1-.4-.45.42.42,0,0,1,.42-.39c3.35.18,5.12.89,5.29,2.11.15,1.07-1.1,2.14-3.71,3.18a42.09,42.09,0,0,1-9.05,2.2,47.7,47.7,0,0,1-6.52.49"/><path d="M232.68,158.48a.42.42,0,0,1-.41-.31,26.88,26.88,0,0,1-.58-7.91c.07-2.13,0-4.32-.07-6.44,0-.66-.05-1.31-.06-2a14.89,14.89,0,0,1,1.68-7.08,2,2,0,0,0,.33-1.23c-.19-.72-1.45-1.18-2.25-1.22a4.48,4.48,0,0,0-2.95,1.11c-2,1.53-2.86,5.24-3.37,7.46a7,7,0,0,1-.53,1.8c-1.1,1.68-3.26,1.38-4.26,1s-1.21-.66-1.62-1.78A35.72,35.72,0,0,0,216.4,137c-2.69-5.22-5.9-7.67-9-6.91a2.75,2.75,0,0,0-1.74,1.72,3.29,3.29,0,0,0,.75,3.13,86.88,86.88,0,0,1,4.65,7.67c1.86,3.26,4,7,4.59,7.41a.41.41,0,0,1,.1.58.4.4,0,0,1-.58.1c-.74-.52-2.32-3.25-4.84-7.67-1.75-3.07-3.56-6.25-4.58-7.57a4,4,0,0,1-.89-3.93,3.56,3.56,0,0,1,2.33-2.25c2.06-.51,6.08-.21,10,7.34a39,39,0,0,1,2.24,5c.35,1,.35,1,1.14,1.29s2.43.56,3.24-.66a10.22,10.22,0,0,0,.4-1.52c.54-2.34,1.44-6.24,3.69-7.95a5.6,5.6,0,0,1,3.51-1.29c1,.06,2.68.61,3,1.85a2.57,2.57,0,0,1-.38,1.82,14,14,0,0,0-1.6,6.69l.06,1.95c.07,2.13.15,4.34.07,6.5a26.45,26.45,0,0,0,.56,7.66.43.43,0,0,1-.3.52h-.11"/><path d="M217.68,160.75a.42.42,0,0,1-.42-.37c-.22-1.68-.81-3.87-2.38-4.67-2.74-1.41-5.7-5.53-7.73-10.75a23.07,23.07,0,0,0-3.26-5.42c-1.44-2-2.69-3.65-2.32-5.31a3.7,3.7,0,0,1,3.5-2.87.41.41,0,0,1,.43.4.43.43,0,0,1-.41.44,2.87,2.87,0,0,0-2.69,2.22c-.29,1.28.79,2.75,2.17,4.62a24.12,24.12,0,0,1,3.37,5.61c1.93,5,4.8,9,7.33,10.3,1.89,1,2.58,3.43,2.83,5.33a.42.42,0,0,1-.36.47h-.06"/><path d="M283,137.69A9.47,9.47,0,0,1,280,137c-1.42-.47-2.89-1-4.18-.48a.42.42,0,0,1-.54-.25.41.41,0,0,1,.24-.54c1.56-.59,3.25,0,4.74.47,1.33.44,2.59.86,3.55.45,1.49-.65,3.49-9.1,4.43-14.44-3.44-2.73-9.48-3.15-10.83-2.44a.43.43,0,0,1-.57-.19.42.42,0,0,1,.18-.57c1.78-.91,8.44-.25,11.95,2.7a.44.44,0,0,1,.15.4c-.42,2.38-2.59,14.28-5,15.31a3.11,3.11,0,0,1-1.24.24"/><path d="M297.94,151.17a.43.43,0,0,1-.43-.4l-.49-7.25a.43.43,0,0,1,.4-.45.44.44,0,0,1,.45.39l.49,7.26a.43.43,0,0,1-.4.45Z"/><path d="M293.3,145.66a2,2,0,0,1-.36,0,1,1,0,0,1-.83-.72c-.6-1.84.29-6.57.33-6.77a.4.4,0,0,1,.49-.33.42.42,0,0,1,.34.49c-.25,1.31-.8,5-.36,6.35,0,.06,0,.12.2.15,1.38.31,6.29-2.49,10.26-6.94,3.2-3.57,5.69-12.15,3.93-16.7a4.58,4.58,0,0,0-4-3.13.43.43,0,0,1-.26-.13c-.33-.36-.67-.7-1-1-5.05-4.9-11.51-7.66-17.28-7.44a12.71,12.71,0,0,0-5.51,1.21,8.28,8.28,0,0,0-3.87,7.44,10,10,0,0,0,2.07,4.44.43.43,0,1,1-.65.55,11,11,0,0,1-2.26-4.9,9.08,9.08,0,0,1,4.3-8.27,13.5,13.5,0,0,1,5.88-1.31c6.05-.22,12.7,2.62,17.91,7.67.32.31.64.63.94.95a5.42,5.42,0,0,1,4.57,3.65c2,5.27-1,14.15-4.09,17.56-3.48,3.9-8.47,7.24-10.7,7.24"/><path d="M274.34,140.56a4.06,4.06,0,0,1-1.63-.32.42.42,0,1,1,.36-.76,4,4,0,0,0,4.3-1.07.43.43,0,0,1,.6,0,.44.44,0,0,1,0,.6,5.3,5.3,0,0,1-3.6,1.53"/><path d="M275.23,158.7a.41.41,0,0,1-.18,0,.42.42,0,0,1-.2-.56c.61-1.27,2.68-5.45,3.58-6s19.33-1.82,22.52-1.82c1.39,0,4,5,5.07,7.07a.43.43,0,0,1-.19.57.44.44,0,0,1-.57-.19c-1.75-3.51-3.72-6.53-4.31-6.6-3.77,0-21.08,1.27-22.12,1.71-.44.25-2,3.09-3.22,5.58a.42.42,0,0,1-.38.24"/><path d="M201.24,109.34c-4.5,0-8.16-5.43-8.16-12.09s3.66-12.09,8.16-12.09c2.87,0,5.48,2.16,7,5.78a.38.38,0,0,1-.2.48.37.37,0,0,1-.48-.2c-1.37-3.34-3.73-5.34-6.3-5.34-4.1,0-7.44,5.1-7.44,11.37s3.34,11.36,7.44,11.36a5,5,0,0,0,3.53-1.36.35.35,0,0,1,.51,0,.36.36,0,0,1,0,.51,5.69,5.69,0,0,1-4,1.55"/><path d="M226.74,95a.36.36,0,0,1-.36-.35,112.76,112.76,0,0,0-4.71-28.89.37.37,0,0,1,.23-.46.36.36,0,0,1,.46.23,113.85,113.85,0,0,1,4.75,29.1.37.37,0,0,1-.36.37Z"/><path d="M336.71,237.68a.42.42,0,0,1-.41-.31.43.43,0,0,1,.29-.52c1.55-.44,3.09-1,4.56-1.52a.43.43,0,0,1,.55.24.42.42,0,0,1-.25.54c-1.49.58-3.05,1.1-4.63,1.55l-.11,0m9-3.48a.44.44,0,0,1-.38-.24.42.42,0,0,1,.2-.56c1.43-.71,2.84-1.49,4.21-2.33a.41.41,0,0,1,.57.14.43.43,0,0,1-.13.58c-1.39.85-2.83,1.65-4.28,2.37a.58.58,0,0,1-.19,0m8.24-5.09a.4.4,0,0,1-.33-.17.42.42,0,0,1,.08-.59c1.25-.94,2.49-2,3.69-3.08a.44.44,0,0,1,.6,0,.42.42,0,0,1,0,.59c-1.22,1.12-2.48,2.18-3.75,3.13a.43.43,0,0,1-.26.09m7.14-6.54a.43.43,0,0,1-.31-.71c1.06-1.18,2.09-2.43,3.06-3.71a.43.43,0,0,1,.59-.08.42.42,0,0,1,.08.59c-1,1.3-2,2.57-3.11,3.77a.41.41,0,0,1-.31.14m5.83-7.74a.47.47,0,0,1-.22-.07.41.41,0,0,1-.13-.58c.84-1.35,1.64-2.75,2.38-4.18a.42.42,0,0,1,.56-.19.43.43,0,0,1,.19.57c-.75,1.45-1.56,2.88-2.42,4.25a.42.42,0,0,1-.36.2m4.45-8.62a.45.45,0,0,1-.16,0,.42.42,0,0,1-.23-.55c.62-1.48,1.19-3,1.69-4.51a.42.42,0,0,1,.53-.27.41.41,0,0,1,.27.53c-.51,1.54-1.08,3.08-1.71,4.57a.41.41,0,0,1-.39.26m3.06-9.2c-.33-.07-.47-.3-.41-.52.39-1.53.73-3.12,1-4.71a.42.42,0,1,1,.83.14c-.29,1.62-.64,3.22-1,4.77a.43.43,0,0,1-.41.32m1.71-9.54a.44.44,0,0,1-.42-.47c.17-1.57.29-3.19.36-4.81a.44.44,0,0,1,.44-.4.42.42,0,0,1,.4.44c-.07,1.64-.19,3.28-.36,4.86a.42.42,0,0,1-.42.38m.4-9.69a.43.43,0,0,1-.43-.41c-.05-1.61-.17-3.22-.35-4.8a.42.42,0,0,1,.83-.09c.19,1.59.31,3.23.37,4.87a.43.43,0,0,1-.41.43Zm-1.16-9.62a.42.42,0,0,1-.41-.33c-.32-1.55-.73-3.11-1.2-4.66a.42.42,0,0,1,.8-.25c.48,1.57.9,3.16,1.23,4.74a.43.43,0,0,1-.33.5h-.09m-2.84-9.25a.43.43,0,0,1-.39-.27c-.6-1.46-1.27-2.94-2-4.38a.41.41,0,0,1,.18-.56.42.42,0,0,1,.57.18c.74,1.46,1.43,3,2,4.45a.42.42,0,0,1-.23.55.45.45,0,0,1-.16,0m-4.39-8.65a.42.42,0,0,1-.36-.2c-.82-1.34-1.72-2.68-2.68-4a.43.43,0,0,1,.1-.59.42.42,0,0,1,.59.09c1,1.34,1.88,2.71,2.71,4.06a.42.42,0,0,1-.14.58.43.43,0,0,1-.22.06m-5.68-7.85a.44.44,0,0,1-.33-.15c-1-1.22-2.11-2.43-3.22-3.59a.43.43,0,0,1,0-.6.43.43,0,0,1,.6,0c1.13,1.18,2.22,2.4,3.26,3.64a.42.42,0,0,1-.32.69m-6.73-7a.38.38,0,0,1-.28-.11c-1.18-1.08-2.41-2.14-3.67-3.15a.42.42,0,0,1-.06-.59.42.42,0,0,1,.59-.06c1.27,1,2.52,2.09,3.71,3.18a.41.41,0,0,1,0,.59.38.38,0,0,1-.31.14m-7.57-6.08a.46.46,0,0,1-.24-.08,47.21,47.21,0,0,0-4.06-2.61.43.43,0,0,1-.17-.57.41.41,0,0,1,.57-.17,48.31,48.31,0,0,1,4.15,2.66.43.43,0,0,1,.1.59.44.44,0,0,1-.35.18"/><path d="M336.71,237.68a.42.42,0,0,1-.41-.31.43.43,0,0,1,.29-.52c1.55-.44,3.09-1,4.56-1.52a.43.43,0,0,1,.55.24.42.42,0,0,1-.25.54c-1.49.58-3.05,1.1-4.63,1.55l-.11,0m9-3.48a.44.44,0,0,1-.38-.24.42.42,0,0,1,.2-.56c1.43-.71,2.84-1.49,4.21-2.33a.41.41,0,0,1,.57.14.43.43,0,0,1-.13.58c-1.39.85-2.83,1.65-4.28,2.37a.58.58,0,0,1-.19,0m8.24-5.09a.4.4,0,0,1-.33-.17.42.42,0,0,1,.08-.59c1.25-.94,2.49-2,3.69-3.08a.44.44,0,0,1,.6,0,.42.42,0,0,1,0,.59c-1.22,1.12-2.48,2.18-3.75,3.13a.43.43,0,0,1-.26.09m7.14-6.54a.43.43,0,0,1-.31-.71c1.06-1.18,2.09-2.43,3.06-3.71a.43.43,0,0,1,.59-.08.42.42,0,0,1,.08.59c-1,1.3-2,2.57-3.11,3.77a.41.41,0,0,1-.31.14m5.83-7.74a.47.47,0,0,1-.22-.07.41.41,0,0,1-.13-.58c.84-1.35,1.64-2.75,2.38-4.18a.42.42,0,0,1,.56-.19.43.43,0,0,1,.19.57c-.75,1.45-1.56,2.88-2.42,4.25a.42.42,0,0,1-.36.2m4.45-8.62a.45.45,0,0,1-.16,0,.42.42,0,0,1-.23-.55c.62-1.48,1.19-3,1.69-4.51a.42.42,0,0,1,.53-.27.41.41,0,0,1,.27.53c-.51,1.54-1.08,3.08-1.71,4.57a.41.41,0,0,1-.39.26m3.06-9.2c-.33-.07-.47-.3-.41-.52.39-1.53.73-3.12,1-4.71a.42.42,0,1,1,.83.14c-.29,1.62-.64,3.22-1,4.77a.43.43,0,0,1-.41.32m1.71-9.54a.44.44,0,0,1-.42-.47c.17-1.57.29-3.19.36-4.81a.44.44,0,0,1,.44-.4.42.42,0,0,1,.4.44c-.07,1.64-.19,3.28-.36,4.86a.42.42,0,0,1-.42.38m.4-9.69a.43.43,0,0,1-.43-.41c-.05-1.61-.17-3.22-.35-4.8a.42.42,0,0,1,.83-.09c.19,1.59.31,3.23.37,4.87a.43.43,0,0,1-.41.43Zm-1.16-9.62a.42.42,0,0,1-.41-.33c-.32-1.55-.73-3.11-1.2-4.66a.42.42,0,0,1,.8-.25c.48,1.57.9,3.16,1.23,4.74a.43.43,0,0,1-.33.5h-.09m-2.84-9.25a.43.43,0,0,1-.39-.27c-.6-1.46-1.27-2.94-2-4.38a.41.41,0,0,1,.18-.56.42.42,0,0,1,.57.18c.74,1.46,1.43,3,2,4.45a.42.42,0,0,1-.23.55.45.45,0,0,1-.16,0m-4.39-8.65a.42.42,0,0,1-.36-.2c-.82-1.34-1.72-2.68-2.68-4a.43.43,0,0,1,.1-.59.42.42,0,0,1,.59.09c1,1.34,1.88,2.71,2.71,4.06a.42.42,0,0,1-.14.58.43.43,0,0,1-.22.06m-5.68-7.85a.44.44,0,0,1-.33-.15c-1-1.22-2.11-2.43-3.22-3.59a.43.43,0,0,1,0-.6.43.43,0,0,1,.6,0c1.13,1.18,2.22,2.4,3.26,3.64a.42.42,0,0,1-.32.69m-6.73-7a.38.38,0,0,1-.28-.11c-1.18-1.08-2.41-2.14-3.67-3.15a.42.42,0,0,1-.06-.59.42.42,0,0,1,.59-.06c1.27,1,2.52,2.09,3.71,3.18a.41.41,0,0,1,0,.59.38.38,0,0,1-.31.14m-7.57-6.08a.46.46,0,0,1-.24-.08,47.21,47.21,0,0,0-4.06-2.61.43.43,0,0,1-.17-.57.41.41,0,0,1,.57-.17,48.31,48.31,0,0,1,4.15,2.66.43.43,0,0,1,.1.59.44.44,0,0,1-.35.18"/><path d="M183.43,200.22h15.75a.39.39,0,0,0,.39-.4v-20.4a.39.39,0,0,0-.39-.4H150.41a.19.19,0,0,1-.16-.1l-17.18-32a2.88,2.88,0,0,0-2.33-1.52,3.08,3.08,0,0,0-2.71,1.25l-10.1,13.47a.19.19,0,0,1-.12.07.18.18,0,0,1-.13,0l-5.43-4.08a4.61,4.61,0,0,1-1.84-4l.2-3.67a5.4,5.4,0,0,0-2.16-4.64L103,139.78a.18.18,0,0,1,0-.25l2.67-3.56a.4.4,0,0,0-.08-.55L88.74,122.79a4.49,4.49,0,0,0-6.27.89l-1.13,1.51a4.49,4.49,0,0,0-.85,3.32,4.42,4.42,0,0,0,1.75,3l16.83,12.63a.53.53,0,0,0,.24.08h.06a.48.48,0,0,0,.26-.16l2.67-3.56a.18.18,0,0,1,.25,0l5.42,4.07a4.64,4.64,0,0,1,1.85,4l-.21,3.67a5.42,5.42,0,0,0,2.16,4.64l5.43,4.07a.19.19,0,0,1,.07.12.15.15,0,0,1,0,.13l-10.1,13.46a3.07,3.07,0,0,0-.54,2.49l.38,1.77a.16.16,0,0,1,0,.15.17.17,0,0,1-.14.07h-5.55a.4.4,0,0,0-.4.4v19.82a.18.18,0,0,1-.18.18H84.92a.4.4,0,0,0-.39.4v20.4a.4.4,0,0,0,.39.4h15.75a.18.18,0,0,1,.18.18v19.82a.4.4,0,0,0,.4.4h97.93a.39.39,0,0,0,.39-.4v-20.4a.39.39,0,0,0-.39-.4H183.43a.18.18,0,0,1-.18-.17V200.39a.18.18,0,0,1,.18-.17M134.29,220.8a.18.18,0,0,1,.17-.18H166a.18.18,0,0,1,.18.18v19.25a.18.18,0,0,1-.18.18h-31.5a.18.18,0,0,1-.17-.18Zm-32.65,0a.18.18,0,0,1,.18-.18h31.49a.18.18,0,0,1,.18.18v19.25a.18.18,0,0,1-.18.18H101.82a.18.18,0,0,1-.18-.18Zm49-20.41a.18.18,0,0,1,.18-.17h31.49a.18.18,0,0,1,.18.17v19.26a.18.18,0,0,1-.18.17H150.79a.18.18,0,0,1-.18-.17Zm-17.12-15.68v14.53a.18.18,0,0,1-.18.18H101.82a.18.18,0,0,1-.18-.18V180a.17.17,0,0,1,.18-.18l9.45,0,22.08,4.7a.17.17,0,0,1,.14.17m-5.22-16.07a.4.4,0,0,0,.07-.3.39.39,0,0,0-.15-.26l-9.59-7.19a.18.18,0,0,1,0-.25l10.1-13.46a2.25,2.25,0,0,1,1.83-1h.06a2.09,2.09,0,0,1,1.86,1.17L152,183.84a2.35,2.35,0,0,1-2.11,3.35l-.35,0L109,178.54a2,2,0,0,1-1.56-1.4,2.29,2.29,0,0,1,.4-2.17l10.06-13.41a.15.15,0,0,1,.12-.07h0a.2.2,0,0,1,.11,0l9.59,7.2a.38.38,0,0,0,.29.07.41.41,0,0,0,.27-.15m37.87,30.6a.18.18,0,0,1-.18.18h-31.5a.18.18,0,0,1-.17-.18V185a.17.17,0,0,1,.06-.14.16.16,0,0,1,.12,0h0l14.78,3.14a3,3,0,0,0,3.09-1.17,3.1,3.1,0,0,0,.3-3.34l-1.8-3.33a.17.17,0,0,1,0-.18.19.19,0,0,1,.15-.09H166a.18.18,0,0,1,.18.18ZM118,200.39a.18.18,0,0,1,.18-.17h31.5a.18.18,0,0,1,.17.17v19.26a.18.18,0,0,1-.17.17h-31.5a.18.18,0,0,1-.18-.17Zm-1,19.43H85.5a.18.18,0,0,1-.18-.17V200.39a.18.18,0,0,1,.18-.17H117a.18.18,0,0,1,.18.17v19.26a.18.18,0,0,1-.18.17m81.61-32.64h-5.54a.4.4,0,0,0-.4.4.39.39,0,0,0,.4.39h5.54a.18.18,0,0,1,.18.18v11.09a.18.18,0,0,1-.18.18H167.11a.18.18,0,0,1-.18-.18V180a.18.18,0,0,1,.18-.18H198.6a.18.18,0,0,1,.18.18v7a.18.18,0,0,1-.18.18m-31.49,33.44H198.6a.18.18,0,0,1,.18.18v19.25a.18.18,0,0,1-.18.18H167.11a.18.18,0,0,1-.18-.18V220.8a.18.18,0,0,1,.18-.18M104.68,136l-5.34,7.12a.18.18,0,0,1-.25,0L82.71,130.83a3.69,3.69,0,0,1-.73-5.16l1.13-1.51a3.7,3.7,0,0,1,5.16-.74l16.37,12.29a.17.17,0,0,1,0,.24"/><path d="M513.58 248.89L513.58 254.09 626.05 254.09 626.05 248.89 624.82 248.89 624.82 252.86 514.81 252.86 514.81 248.89 513.58 248.89z"/><path d="M509.61 240.94H630.02V242.17H509.61z"/><path d="M587.69,154.77A17.29,17.29,0,0,1,605,172v.62h1.22V172a18.46,18.46,0,0,0-33.28-11l-2.47,3.29V144.22A9.32,9.32,0,0,1,589,142.85h1.25A10.54,10.54,0,0,0,571,138.41l-1.14,1.72-1.15-1.72a10.54,10.54,0,0,0-19.24,4.44h1.24a9.32,9.32,0,0,1,18.53,1.37v20.07l-2.47-3.3a18.46,18.46,0,0,0-33.28,11v.62h1.23V172a17.26,17.26,0,1,1,34.52,0v20.48h1.23V172a17.28,17.28,0,0,1,17.26-17.26"/><path d="M533.45 179.36H534.6800000000001V180.59H533.45z"/><path d="M533.45 187.31H534.6800000000001V188.54H533.45z"/><path d="M604.96 179.36H606.19V180.59H604.96z"/><path d="M604.96 187.31H606.19V188.54H604.96z"/><path d="M610.18,208.4h7.92v-.61a8.57,8.57,0,0,0-8.56-8.56H530.09a8.57,8.57,0,0,0-8.56,8.56v.61h7.92l.17,1.18A12.59,12.59,0,0,0,542,220.32h15.27v13.9h1.23v-13.9h6.72v13.9h1.23v-13.9h6.71v13.9h1.23v-13.9h6.72v13.9h1.23v-13.9h15.27A12.59,12.59,0,0,0,610,209.58Zm-87.65-1.23.65-1.83a7.34,7.34,0,0,1,6.91-4.88h79.45a7.36,7.36,0,0,1,6.92,4.88l.64,1.83Zm86.17,2.88a11.34,11.34,0,0,1-11.08,9H542a11.34,11.34,0,0,1-11.08-9l-.33-1.65H609Z"/><path d="M597.01 171.42H598.24V172.64999999999998H597.01z"/><path d="M597.01 179.36H598.24V184.56H597.01z"/><path d="M541.39 179.36H542.62V180.59H541.39z"/><path d="M541.39 171.42H542.62V172.64999999999998H541.39z"/><path d="M616.87 215.12H618.1V216.35H616.87z"/><path d="M616.87 223.06H618.1V224.29H616.87z"/><path d="M521.53 215.12H522.76V216.35H521.53z"/><path d="M521.53 223.06H522.76V224.29H521.53z"/><path d="M872.75,128.51H822.21V106.67a.7.7,0,0,0-1.4,0V252.81H768.39l1.22-4.42a14.78,14.78,0,0,0-18-18.19l-2.65.7-1.31-2.41a20.72,20.72,0,0,0-5.77-6.69l-1.39-1.05-1.18-.64-2.7-1.32-1.93-.52a21,21,0,0,0-12,.31l-4.58,1.49V201.26l.63-.9a29.1,29.1,0,0,0,5.25-16.7V137.35a29.09,29.09,0,0,0-5.31-16.77l-.83-1.18L718,118a.34.34,0,0,0,0-.11V47.59H820.81V73.07a.7.7,0,0,0,1.4,0V47.59h9.17a.7.7,0,0,0,0-1.4H707.49a.7.7,0,1,0,0,1.4h9.17V117l-5.48-3.76a29.24,29.24,0,0,0-45.76,24.14v46.31a29.31,29.31,0,0,0,25.51,29l3.05.4v39.74H666.12a.71.71,0,0,0,0,1.41H872.75a.71.71,0,0,0,.7-.71V129.21a.7.7,0,0,0-.7-.7M694.68,166.38a.7.7,0,0,0-.7.7v44.74l-4.1-.72a27.8,27.8,0,0,1-23.06-27.44V137.35a27.86,27.86,0,0,1,55.72,0v46.31a27.8,27.8,0,0,1-23.06,27.44l-4.1.72V167.08a.7.7,0,0,0-.7-.7m.7,46.69,3-.4a29.24,29.24,0,0,0,12.75-4.86l5.48-3.76v17.53l-1.22,1a20.81,20.81,0,0,0-4.51,5.43l-.9,1.55-1.79.18a14.6,14.6,0,0,0-7.29,2.79l-5.57,4.09ZM766,252.81H699L698,251a13.35,13.35,0,0,1,11.65-19.91l.79,0a.71.71,0,0,0,.69-.42,19.67,19.67,0,0,1,36.69,1.71.67.67,0,0,0,.41.43.68.68,0,0,0,.59,0A13.37,13.37,0,0,1,767,251Zm106,0H822.21V129.9h49.84Z"/><path d="M738,146.87h17.74a.59.59,0,0,0,.59-.58V119.67a.59.59,0,0,0-.59-.58H738a.58.58,0,0,0-.58.58v26.62a.58.58,0,0,0,.58.58m.58-26.61h16.58v25.45H738.56Z"/><path d="M800.08,146.87a.58.58,0,0,0,.58-.58V119.67a.58.58,0,0,0-.58-.58H782.34a.58.58,0,0,0-.58.58v26.62a.58.58,0,0,0,.58.58Zm-17.16-26.61H799.5v25.45H782.92Z"/><path d="M800.08,93.64a.58.58,0,0,0,.58-.58V66.45a.58.58,0,0,0-.58-.59H782.34a.58.58,0,0,0-.58.59V93.06a.58.58,0,0,0,.58.58ZM782.92,67H799.5V92.48H782.92Z"/><path d="M800.08,200.1a.58.58,0,0,0,.58-.58V172.9a.58.58,0,0,0-.58-.58H782.34a.58.58,0,0,0-.58.58v26.62a.58.58,0,0,0,.58.58Zm-17.16-26.61H799.5v25.44H782.92Z"/><path d="M856,175.81a.58.58,0,0,0,.58-.58V148.62A.58.58,0,0,0,856,148H838.26a.58.58,0,0,0-.58.58v26.61a.58.58,0,0,0,.58.58ZM838.84,149.2h16.58v25.45H838.84Z"/><path d="M856,229a.58.58,0,0,0,.58-.58V201.85a.59.59,0,0,0-.58-.59H838.26a.59.59,0,0,0-.58.59v26.61a.58.58,0,0,0,.58.58Zm-17.16-26.61h16.58v25.45H838.84Z"/><path d="M755.72,93.64a.59.59,0,0,0,.59-.58V66.45a.59.59,0,0,0-.59-.59H738a.58.58,0,0,0-.58.59V93.06a.58.58,0,0,0,.58.58ZM738.56,67h16.58V92.48H738.56Z"/><path d="M738,200.1h17.74a.59.59,0,0,0,.59-.58V172.9a.59.59,0,0,0-.59-.58H738a.58.58,0,0,0-.58.58v26.62a.58.58,0,0,0,.58.58m.58-26.61h16.58v25.44H738.56Z"/></svg>