<svg id="Layer_1" data-name="Layer 1" xmlns="http://www.w3.org/2000/svg" viewBox="0 0 957 269"><defs><style>.cls-1{fill:#ee1944}.cls-2{fill:#1a1a1a}.cls-3{fill:#fff}.cls-6{fill:#272426}</style></defs><path class="cls-1" d="M615.19,127.91V114.55l-11.72-5.06-5.06-11.86,5.44-12-9.2-9.53-11.92,5.15-11.89-4.47-5-12.23H552.36l-5,12.25-11.87,4.69-12.24-5.31L514,85.44l5.17,12L514,109.14l-13.15,5.33V127.7l12.42,4.8,5.9,12-5.22,12.42,5.74,5.66,5.37-2,2.09,4.31,8.2-3.77,12.14,5.43,5,12.45H565.6l4.63-12.41,12-5.47,12.49,5.63,9.21-10-5-12.4,4.78-11.65ZM559,142.57a21.35,21.35,0,1,1,21.35-21.35A21.35,21.35,0,0,1,559,142.57"/><path class="cls-2" d="M570.87,132.94H434l-1.81,20.31v72.4s-1,8.88-10.4,9.27H390.1a10.51,10.51,0,0,0,10.47,10.14h170.3a10.51,10.51,0,0,0,10.48-10.48V143.43a10.52,10.52,0,0,0-10.48-10.49"/><path class="cls-3" d="M478.26,126.49s-12.57,2.13-23.09.12-15-6.91-16.89-13.13-3.7-12.23-3.14-19.49.9-9.47.9-9.47-4.2,2.25-13.56.36-12.7-4.32-12.7-4.32a115.88,115.88,0,0,0-.76,19.53c.54,10.15,3.58,31.23,11.25,41s13.67,17.87,36.82,17.13c0,0-2.59,31.36-3,49.89s0,37,0,37h94.21s.62-15.95,0-31.58c-.74-18.62-1.57-37.81-3.48-50.14-1.69-11-3.22-19.46-15.16-27.65s-25.73-8.63-25.73-8.63Z"/><path class="cls-1" d="M320.13,136.52a9.6,9.6,0,0,0-3.53,7.76c.28,4.9,7.74,7.5,12.45,6.89l.37-6.18a13.23,13.23,0,0,1-4.57-8.75s-3.45,1.58-4.72.28"/><path class="cls-1" d="M347.66,136.76s-1.6,7.19-4.27,8.07l.27,6.35s9.12.14,12.3-5.59-3.7-9.07-3.7-9.07a6.46,6.46,0,0,1-4.6.24"/><path class="cls-1" d="M349.73,127.49s2-8.4-.27-13.43-7.5-6.59-13.17-6.64c0,0-9.47,0-12.29,4.78s-3.35,9.25-2,15.08l.19.63,1.65.21a5.71,5.71,0,0,1,5.58-4.57l6.86-8.57,6.85,8.16s4.47.81,5.09,4.77Z"/><path class="cls-2" d="M329,152.8s-14.1-.46-22.09,6.69-8.09,12.78-8.09,12.78l-4.23-13.15s-2.43-3.4-16-1.16-11.18,6.26-11.18,6.26l6.91,41.47s2.81,22.25,20.12,21.47,14.62-22.36,14.62-22.36a65.22,65.22,0,0,1,.5,15.39c-.76,8-3.18,26.88-5.31,36.11s-2.9,11.57-2.9,11.57h71s-5.18-20.4-6.65-33.39-2.39-22.12-1.63-26.47c0,0,.7,17.58,15,19.14s19.2-16.29,20.25-21.31,6.81-41.27,6.81-41.27,1.05-4.46-13.89-6.86c-12.26-2-13.27,1.67-13.27,1.67l-4.13,12.56s-3.6-10.52-11.48-14.94a38.34,38.34,0,0,0-18.95-4.51Z"/><path class="cls-3" d="M481.51,119.71l.23,2.3-3.36,5,.09,19.2.53-.54s-3.36,43.66-3.58,49.83L492.11,147l1.37,2.27,10.4-22.21-5-5.31-.94-12.34s4.81,1.64,6.49-1.78.26-7.41-2.63-8-5.79,1.68-5.79,1.68-6-7.23-6.42-11.81c0,0-5.72,7-14.07,4.17,0,0-.37,13.86-.16,16.7s-.21,8.65,6.17,9.37"/><path class="cls-3" d="M432.38,85.46s-.24-8.93-.17-10.75a4.5,4.5,0,0,1,3.2-4.18c2-.62,7.15-3.26,6.95-5.25s-1.6-3.57-3.73-3.27a28.18,28.18,0,0,0-8.21,2.78,34.5,34.5,0,0,1-5,2.17,147.09,147.09,0,0,0-10-10.87c-3.67-3.28-6.66-3.35-7.56-2,0,0-3.2-1-4.29.94,0,0-2.49-.94-4.19.19s-1.07,4.28,2.34,9.11,9.09,7.78,9.81,8.84,2.68,6.25,1.62,8.73c0,0,.63,1.54,7.42,2.58a78.33,78.33,0,0,0,11.85.94"/><path class="cls-2" d="M412.84,78.57s-2.54.54-2.9,1.52,2.9,2.12,2.9,2.12Z"/><path class="cls-2" d="M432.15,81.91l.27,3.76s4.07,0,3.6-1.46-3.87-2.3-3.87-2.3"/><path class="cls-3" d="M328.52,158.62l.9-13.41s-4.4-3.93-4.54-8.69c0,0-6.59,2.21-6.94-3.8s5.9-4.6,5.9-4.6,1.61-4.93,5.58-4.57l6.86-8.57,6.85,8.16s4.62.47,5.46,5c0,0,5.8-1.25,6.05,4s-4.88,5.48-6.63,4.63l-.35,0s-1.84,7.1-4.65,8.32l1.67,13.33s-1.69,2.65-8.36,2.28-7.8-2.07-7.8-2.07"/><path class="cls-3" d="M290.07,163.38,287.72,155a13,13,0,0,0,1.43-7.34c-.52-3.93-.41-9.35-6.49-8.63a63.66,63.66,0,0,1-3.72-9.41,58.69,58.69,0,0,0-2.09-6.33s-1.87,2-3.12,1.82-3.56-1.21-3.52-2a19.91,19.91,0,0,0,0,7.76,39.48,39.48,0,0,0,2.78,8.83s-3.9-2.8-5.26-2.94-5.78,3-5,6.14c0,0-2.75,2.18-2.89,4.43s3.33,5.51,8.38,9.23c0,0,2.59,3.89,5,4.06l1.24,5.81a51.66,51.66,0,0,0,8.35-.93,30.71,30.71,0,0,0,7.33-2.15"/><path class="cls-3" d="M382.71,162.92a21.76,21.76,0,0,0,1-8.64,68.93,68.93,0,0,0-2.57-12.11c-.7-1.76-1.4-7.21,2.37-7.36s4.33,2,4.7,4,1.41,5.7,1.41,5.7l9.49-13.84s5-2.47,5.62,2.14v.75a3.79,3.79,0,0,1,3.66-.16,3,3,0,0,1,1.41,3.29l.25.42s.59-.19,2.46.59,1.92,2.57.91,4.51-4.18,7.71-6.62,10.53a22.44,22.44,0,0,0-5.09,8.51c-1.33,3.8-1.24,5-1.24,5s-9.4.42-17.75-3.35"/><path d="M276.85,121.84a3.32,3.32,0,1,1-3.32-3.32,3.32,3.32,0,0,1,3.32,3.32" fill="#ff4343"/><path class="cls-3" d="M347.22,156.91a33.16,33.16,0,0,0-1.23-4.24,16.78,16.78,0,0,0-2.08-2.88H329.05l-2.49,3.06s-4.88,14.4,1,16.36,8.32-5.88,8.45-6.5.67-2,.67-2,1.53,10.21,7.87,9,3.06-11.49,2.65-12.78"/><path class="cls-2" d="M258.76,103.6a3.32,3.32,0,1,1-3.32-3.32,3.32,3.32,0,0,1,3.32,3.32"/><path class="cls-2" d="M485.65 136.36L480.61 143.17 481.28 149.02 477.98 156.14 475.42 195.54 487.34 160.39 486.49 149.64 490.38 144.16 485.65 136.36z"/><path class="cls-2" d="M503.81,100.55s4-5.2,2.25-10.25-4.85-7.85-12.71-6.24c0,0-4.06-4.62-9.15-4s-10.92,2.68-12.08,8.35,3.09,10.25,3.09,10.25l.29-5s10.12,2.12,13.71-4.41l.36.24s3.73,10.67,6.42,11.81c0,0,3-4,7.82-.73"/><path class="cls-3" d="M486.9 138.42L482.9 143.56 483.76 149.46 477 170.37 477.98 156.14 481.28 149.02 480.91 142.81 485.65 136.36 486.9 138.42z"/><path class="cls-3" d="M486.35,80.56l1.26-.2A8.52,8.52,0,0,0,484.2,80c-5.09.57-10.92,2.68-12.08,8.35s3.09,10.25,3.09,10.25l.29-5a14.62,14.62,0,0,0,1.47.21l0-.21s-4.22-11.13,9.35-13.08"/><path class="cls-3" d="M336.29,107.42s-9.47,0-12.29,4.78-3.35,9.25-2,15.08l.18.57c.65,0,1.43.05,1.71.06a6.25,6.25,0,0,1,1.06-2.18c-.22-2.39-2.39-16.46,10.9-17.58,1-.08,3.24-.36,3.93-.47a24.92,24.92,0,0,0-3.49-.26"/><path class="cls-3" d="M316.6,144.28c.26,4.54,6.66,7.09,11.35,7l.24-.71s-8.93-.65-8.86-6.79c.07-5.75,3.67-6.51,3.67-6.51l-.91-.23a2.38,2.38,0,0,1-2-.49,9.6,9.6,0,0,0-3.53,7.76"/><path class="cls-3" d="M489.55,89s5.11,9.87,9.1,10.32l-2.83,2.18A89,89,0,0,1,489.55,89"/><path d="M591.07,164.48a.41.41,0,0,1-.19,0L588,163.07c-2.24-1.06-4.44-2.11-6.64-3.11a.44.44,0,0,1,.36-.8c2.21,1,4.41,2.06,6.65,3.12l2.61,1.24,2-2c2.3-2.31,4.68-4.71,6.94-7.12a1.89,1.89,0,0,0,.1-1.52c-.8-1.79-1.67-3.6-2.5-5.34s-1.53-3.22-2.27-4.85a3.59,3.59,0,0,1-.16-2.49c1.27-3.67,2.5-6.93,3.75-10a4,4,0,0,1,2-2c3.62-1.47,7.26-2.76,10-3.71a1.33,1.33,0,0,0,1.08-1.58c-.07-4-.07-7.74,0-11.29,0-1-.25-1.34-1.24-1.68-2.92-1-6.38-2.23-9.82-3.65a4.28,4.28,0,0,1-2.08-2.15c-1.19-2.75-2.35-5.69-3.77-9.55a3.55,3.55,0,0,1,0-2.45c.78-1.73,1.59-3.43,2.4-5.13s1.71-3.6,2.53-5.42a1.89,1.89,0,0,0-.19-1.5c-1.51-1.61-3.09-3.21-4.62-4.75-1.18-1.19-2.36-2.38-3.51-3.59a1.2,1.2,0,0,0-1.71-.27c-3.85,1.91-7.08,3.44-10.17,4.83a3.82,3.82,0,0,1-2.64.12c-3.29-1.19-6.57-2.47-9.75-3.82a4,4,0,0,1-2.07-1.93c-1.16-2.88-2.29-6-3.67-10-.32-.92-.61-1.27-1.53-1.27-3.7.09-7.4.09-11.4,0-.92-.06-1.34.26-1.67,1.25-.55,1.6-1.13,3.18-1.71,4.77s-1.24,3.37-1.82,5.07a3.36,3.36,0,0,1-2.38,2.29c-3.17,1.1-6.23,2.33-9.1,3.64a3.38,3.38,0,0,1-3.29,0c-1.7-.86-3.41-1.68-5.13-2.5s-3.21-1.54-4.8-2.33a1.3,1.3,0,0,0-1.87.32c-2.89,3-5.5,5.62-8,8-.73.69-.7,1.14-.25,2,1.45,3,3.15,6.44,4.72,10a3.85,3.85,0,0,1-.07,2.79c-1.37,3.2-2.85,6.4-4.4,9.49a4.57,4.57,0,0,1-2.13,2.1l-1.28.48a.44.44,0,0,1-.56-.26.43.43,0,0,1,.26-.56l1.27-.48a3.62,3.62,0,0,0,1.66-1.67c1.54-3.08,3-6.26,4.38-9.44a3,3,0,0,0,.07-2.1c-1.57-3.57-3.26-7.05-4.71-10a2.24,2.24,0,0,1,.44-3.06c2.48-2.35,5.08-5,8-8a2.12,2.12,0,0,1,2.89-.5c1.59.79,3.18,1.55,4.79,2.32s3.44,1.65,5.15,2.51a2.54,2.54,0,0,0,2.53,0c2.89-1.33,6-2.57,9.18-3.68a2.49,2.49,0,0,0,1.83-1.74c.58-1.71,1.21-3.4,1.83-5.09s1.16-3.16,1.7-4.75a2.36,2.36,0,0,1,2.52-1.84c4,.09,7.67.09,11.25,0a2.27,2.27,0,0,1,2.48,1.86c1.38,4,2.51,7.11,3.66,10a3.26,3.26,0,0,0,1.61,1.45c3.15,1.34,6.42,2.62,9.69,3.79a2.91,2.91,0,0,0,2-.09c3.09-1.38,6.31-2.91,10.15-4.81a2,2,0,0,1,2.72.45q1.72,1.8,3.5,3.57c1.53,1.55,3.12,3.16,4.64,4.78a2.6,2.6,0,0,1,.34,2.44c-.81,1.83-1.67,3.64-2.53,5.44s-1.62,3.4-2.39,5.12a2.68,2.68,0,0,0,0,1.79c1.41,3.84,2.57,6.77,3.75,9.5a3.45,3.45,0,0,0,1.61,1.69c3.42,1.41,6.86,2.63,9.78,3.63a2.3,2.3,0,0,1,1.83,2.53c-.08,3.53-.08,7.22,0,11.25a2.2,2.2,0,0,1-1.68,2.42c-2.75,1-6.37,2.24-10,3.7a3,3,0,0,0-1.51,1.55c-1.25,3-2.47,6.27-3.74,9.92a2.81,2.81,0,0,0,.14,1.84c.73,1.62,1.5,3.23,2.26,4.83.84,1.75,1.7,3.56,2.5,5.37a2.64,2.64,0,0,1-.25,2.47c-2.28,2.42-4.66,4.82-7,7.14l-2.19,2.22a.43.43,0,0,1-.31.13m-52.31-31.26a.47.47,0,0,1-.31-.12,21.65,21.65,0,0,1-6.52-15.88,22.14,22.14,0,0,1,6.51-15.82,22.44,22.44,0,0,1,38.28,15.88,21.55,21.55,0,0,1-6.54,15.82.43.43,0,0,1-.62,0,.44.44,0,0,1,0-.62,20.64,20.64,0,0,0,6.27-15.19,21.52,21.52,0,1,0-43-.06,20.81,20.81,0,0,0,6.26,15.25.43.43,0,0,1,0,.62.42.42,0,0,1-.31.13"/><path d="M432.41,86.1a.44.44,0,0,1-.44-.39c-.13-1.22-1.21-12,.83-13.81a17.88,17.88,0,0,1,5-3.05c.56-.25,1.1-.5,1.62-.77,1.85-1,2.77-2.28,2.51-3.53a3,3,0,0,0-2.8-2.09c-3-.26-7.9,2.37-11.46,4.27l-.34.18c-3.06,1.64-11.08-1.23-11.41-1.35a.43.43,0,0,1-.26-.56.45.45,0,0,1,.56-.27c2.21.81,8.45,2.62,10.7,1.41l.34-.18c3.86-2.06,8.66-4.64,11.94-4.37a3.83,3.83,0,0,1,3.58,2.78c.16.79.2,2.79-2.95,4.48-.54.28-1.09.53-1.67.79a17.24,17.24,0,0,0-4.76,2.91c-1.28,1.15-1,8.63-.54,13.07a.44.44,0,0,1-.39.48h0"/><path d="M413.08,82.65a.45.45,0,0,1-.44-.49c0-.08.91-7.48-2.23-9.26s-12.74-9.93-12.3-16a2.75,2.75,0,0,1,1.52-2.33,4,4,0,0,1,3.94.47c2.06,1.35,8.34,7.88,9.25,8.83,1.23.22,9.36,1.86,12,7.17a.45.45,0,0,1-.2.59.44.44,0,0,1-.59-.2c-2.6-5.23-11.42-6.71-11.51-6.72a.5.5,0,0,1-.25-.13c-.07-.08-7.09-7.44-9.19-8.81a3.21,3.21,0,0,0-3.08-.42,1.87,1.87,0,0,0-1,1.61c-.38,5.3,8.25,13.15,11.86,15.2s2.71,9.8,2.67,10.13a.44.44,0,0,1-.43.38"/><path d="M420.08,66.77a.41.41,0,0,1-.32-.15c-4.35-4.81-11.44-12.08-13.11-12.38a2.63,2.63,0,0,0-2.92,1.34.45.45,0,0,1-.59.2.45.45,0,0,1-.2-.58,3.54,3.54,0,0,1,3.86-1.82c2.51.44,12.48,11.41,13.61,12.66a.45.45,0,0,1,0,.62.48.48,0,0,1-.3.11"/><path d="M425.41,67.4a.46.46,0,0,1-.34-.16s-4.22-4.95-5.2-5.91c-.5-.48-1.07-1.1-1.69-1.76-2.05-2.19-4.6-4.92-6.67-5.64-2.48-.86-3.31.41-3.32.43a.45.45,0,0,1-.6.14.44.44,0,0,1-.14-.61c0-.07,1.21-1.88,4.34-.79,2.28.8,4.91,3.61,7,5.87.61.66,1.17,1.26,1.66,1.73,1,1,5.08,5.77,5.26,6a.44.44,0,0,1-.05.61.43.43,0,0,1-.28.11"/><path d="M382.91,163.09a.33.33,0,0,1-.17,0,.44.44,0,0,1-.24-.57c.83-2,1.72-9.11-1-17.49-1.52-4.65-1.7-7.57-.59-9.19a3.88,3.88,0,0,1,3.24-1.49c3.72-.18,4.29,3.13,4.81,6.06.38,2.14.77,4.35,2.22,5.37,3.94,2.76,2.95,7.62,2.9,7.82a.43.43,0,0,1-.52.34.44.44,0,0,1-.33-.52c0-.19.91-4.51-2.55-6.93-1.75-1.22-2.17-3.62-2.58-5.93-.52-3-1-5.48-3.91-5.34a3,3,0,0,0-2.56,1.12c-.94,1.35-.7,4.11.7,8.42,2.56,7.85,2.1,15.44,1,18.1a.43.43,0,0,1-.4.27"/><path d="M395.63,148.14a.39.39,0,0,1-.26-.1.43.43,0,0,1-.08-.61,114.41,114.41,0,0,0,8.54-13.37,3.75,3.75,0,0,0,.43-1,2.18,2.18,0,0,0-.89-2,3.27,3.27,0,0,0-3.27-.48,6,6,0,0,0-2.45,2.46c-1.1,1.71-2.09,3.14-3,4.41a56.67,56.67,0,0,0-4.44,7.19.44.44,0,1,1-.78-.4,58.06,58.06,0,0,1,4.5-7.28c.87-1.27,1.86-2.7,2.95-4.39a7,7,0,0,1,2.85-2.8,4.14,4.14,0,0,1,4.15.61,3.05,3.05,0,0,1,1.2,2.85,4.56,4.56,0,0,1-.53,1.28A111.67,111.67,0,0,1,396,148a.46.46,0,0,1-.35.17"/><path d="M400.93,151.2a.44.44,0,0,1-.27-.09.44.44,0,0,1-.08-.62A89.48,89.48,0,0,0,409.17,137a2.84,2.84,0,0,0,.43-1.32,2.44,2.44,0,0,0-1.16-1.71,3.11,3.11,0,0,0-3.67.1.44.44,0,0,1-.51-.71,4,4,0,0,1,4.66-.13,3.33,3.33,0,0,1,1.55,2.42,3.48,3.48,0,0,1-.53,1.75A90.51,90.51,0,0,1,401.27,151a.42.42,0,0,1-.34.17"/><path d="M400.25,166.88a.44.44,0,0,1-.43-.47c.23-3.48,2-8.34,3.77-10.62,2.66-3.35,7.5-9.46,9.59-14.14a3.87,3.87,0,0,0,.48-2.28,2.34,2.34,0,0,0-1.36-1.54,2.85,2.85,0,0,0-2.39-.24.44.44,0,1,1-.32-.81,3.73,3.73,0,0,1,3.07.25,3.18,3.18,0,0,1,1.86,2.16A4.68,4.68,0,0,1,414,142c-2.13,4.78-7,10.94-9.65,14.25a22.18,22.18,0,0,0-3.64,10.21.45.45,0,0,1-.44.41"/><path d="M271.05,119.91a.48.48,0,0,1-.31-.13L257.5,106.54a.44.44,0,0,1,.62-.62l13.24,13.24a.44.44,0,0,1,0,.62.48.48,0,0,1-.31.13"/><path d="M273.53,125.6a3.76,3.76,0,0,1-3.71-3.2,3.43,3.43,0,0,1-.05-.56,3.76,3.76,0,1,1,3.76,3.76m0-6.64a2.88,2.88,0,0,0-2.88,2.88,3,3,0,0,0,0,.43,2.88,2.88,0,1,0,2.85-3.31"/><path d="M255.44,107.36a3.76,3.76,0,1,1,3.75-3.76,3.76,3.76,0,0,1-3.75,3.76m0-6.64a2.88,2.88,0,1,0,2.88,2.88,2.88,2.88,0,0,0-2.88-2.88"/><path d="M343.62,136.69c-3,0-5.4-3.05-5.4-6.8s2.42-6.81,5.4-6.81,5.41,3,5.41,6.81-2.42,6.8-5.41,6.8m0-12.73c-2.5,0-4.53,2.66-4.53,5.93s2,5.93,4.53,5.93,4.54-2.66,4.54-5.93-2-5.93-4.54-5.93"/><path d="M329,136.69c-3,0-5.41-3.05-5.41-6.8s2.43-6.81,5.41-6.81,5.41,3,5.41,6.81-2.43,6.8-5.41,6.8M329,124c-2.5,0-4.53,2.66-4.53,5.93s2,5.93,4.53,5.93,4.53-2.66,4.53-5.93-2-5.93-4.53-5.93"/><path d="M338.47,130.32a.46.46,0,0,1-.3-.12,3.11,3.11,0,0,0-2.25-1,2.46,2.46,0,0,0-1.61.84.43.43,0,0,1-.61.07.45.45,0,0,1-.08-.62,3.4,3.4,0,0,1,2.22-1.16,3.85,3.85,0,0,1,2.93,1.25.44.44,0,0,1-.3.76"/><path d="M293,227.66c-15.52,0-19.12-20.71-20.33-27.66-1.77-10.15-5.71-35.46-5.75-35.72a.45.45,0,0,1,.37-.5.42.42,0,0,1,.5.37c0,.25,4,25.56,5.74,35.7,1.21,7,4.91,28.09,20.83,26.88,7.11-.56,14.65-6.14,14.51-20.15a.45.45,0,0,1,.43-.44.44.44,0,0,1,.44.43c.15,14.61-7.81,20.44-15.31,21-.49,0-1,.06-1.43.06"/><path d="M304.75,200.62a.43.43,0,0,1-.43-.4,116,116,0,0,0-2.54-15.41,216.71,216.71,0,0,0-7.6-25.53.44.44,0,0,1,.25-.56.44.44,0,0,1,.57.25,217.12,217.12,0,0,1,7.63,25.64,117.14,117.14,0,0,1,2.56,15.54.44.44,0,0,1-.4.47h0"/><path d="M301.34,268.31a.49.49,0,0,1-.2-.05.43.43,0,0,1-.19-.58c2.2-4.47,10.71-48.93,7.91-61.67-2.87-13,1.73-25.93,1.78-26.06a.44.44,0,0,1,.56-.26.44.44,0,0,1,.26.56c0,.13-4.56,12.84-1.75,25.58s-5.76,57.73-8,62.23a.44.44,0,0,1-.39.25"/><path d="M274.52,166.9a24.87,24.87,0,0,1-2.67-.13c-3-.32-4.64-1.17-4.88-2.47s1.34-3,4.38-4.42a.45.45,0,0,1,.58.22.44.44,0,0,1-.22.58c-2.53,1.15-4,2.51-3.88,3.47s1.69,1.49,4.12,1.75a35.6,35.6,0,0,0,9.71-.56c6-1.09,11.37-3.31,12.43-5.16a.84.84,0,0,0,.12-.73c-.66-1.8-3.47-1.78-5.71-1.45a.44.44,0,1,1-.13-.87c4.64-.68,6.18.72,6.66,2a1.68,1.68,0,0,1-.18,1.46c-1.19,2.09-6.68,4.44-13,5.59a42.22,42.22,0,0,1-7.29.7"/><path d="M298.82,172.38c-.36-.1-.49-.35-.41-.58a51.26,51.26,0,0,1,4-7.82c8.42-12.65,23.77-11.48,23.92-11.48a.44.44,0,1,1-.07.87c-.15,0-15-1.12-23.11,11.08a51.48,51.48,0,0,0-4,7.63.44.44,0,0,1-.42.3"/><path d="M380.64,227.66c-.47,0-.94,0-1.43-.06-7.5-.59-15.46-6.42-15.31-21a.43.43,0,0,1,.43-.43.44.44,0,0,1,.44.44c-.14,14,7.4,19.59,14.51,20.15,16,1.29,19.62-19.92,20.83-26.88,1.76-10.14,5.7-35.45,5.74-35.7a.44.44,0,0,1,.5-.37.43.43,0,0,1,.36.5c0,.26-4,25.57-5.74,35.72-1.21,6.94-4.81,27.66-20.33,27.66"/><path d="M368.92,200.62a.43.43,0,0,1-.43-.47,117.14,117.14,0,0,1,2.56-15.54A217.12,217.12,0,0,1,378.68,159a.44.44,0,0,1,.57-.25.44.44,0,0,1,.25.56,217.45,217.45,0,0,0-7.6,25.53,116,116,0,0,0-2.54,15.41.44.44,0,0,1-.44.4"/><path d="M372.34,268.31a.44.44,0,0,1-.39-.25c-2.22-4.5-10.82-49.37-8-62.23s-1.7-25.45-1.75-25.58a.44.44,0,0,1,.26-.56.43.43,0,0,1,.56.26c0,.13,4.65,13.07,1.78,26.06-2.81,12.75,5.71,57.2,7.91,61.67a.43.43,0,0,1-.2.58.41.41,0,0,1-.19.05"/><path d="M399.22,166.9a42.34,42.34,0,0,1-7.36-.7c-6.45-1.17-11.81-3.46-13-5.58a1.7,1.7,0,0,1-.18-1.47c.67-1.87,3.12-1.93,4.43-2h.32c.28,0,.44.18.45.42a.43.43,0,0,1-.42.45h-.33c-1.18,0-3.16.08-3.63,1.39a.84.84,0,0,0,.12.73c1.07,1.85,6.41,4.07,12.43,5.16,7.77,1.41,13.52.5,13.83-1.19.14-.79-1-2.18-4-3.53a.44.44,0,0,1-.22-.57.45.45,0,0,1,.58-.22c3.11,1.42,4.75,3,4.5,4.47-.34,1.83-3.49,2.6-7.49,2.6"/><path d="M374.85,172.38a.44.44,0,0,1-.41-.3,51,51,0,0,0-4-7.64c-8.35-12.84-24-11.27-24.17-11.26a.43.43,0,0,1-.48-.38.45.45,0,0,1,.39-.49c.15,0,16.35-1.63,25,11.67a51,51,0,0,1,4.06,7.82.44.44,0,0,1-.28.55.32.32,0,0,1-.14,0"/><path d="M322.49,137.45h-.32a5,5,0,0,1-3-8.72,4.92,4.92,0,0,1,3.61-1.24,4.79,4.79,0,0,1,1.54.35.44.44,0,0,1-.33.81,4.13,4.13,0,0,0-1.26-.29,4.25,4.25,0,0,0-3,1,4.11,4.11,0,0,0,4.61,6.74.45.45,0,0,1,.59.19.44.44,0,0,1-.18.59,5,5,0,0,1-2.29.56"/><path d="M321.48,135.21a.44.44,0,0,1-.29-.77l2.35-2.1-2.65-2.11a.43.43,0,0,1,.54-.68l3.06,2.44a.42.42,0,0,1,.16.33.43.43,0,0,1-.15.33l-2.73,2.44a.44.44,0,0,1-.29.12"/><path d="M350.1,137.45a5,5,0,0,1-2.3-.56.44.44,0,0,1-.18-.59.44.44,0,0,1,.59-.19,4.2,4.2,0,0,0,2.15.46,4.12,4.12,0,0,0,2.46-7.2,4.19,4.19,0,0,0-3-1,2.66,2.66,0,0,0-1.08.22.44.44,0,0,1-.57-.23.45.45,0,0,1,.23-.58,3.61,3.61,0,0,1,1.37-.28,5,5,0,0,1,5.29,4.67,5,5,0,0,1-4.67,5.29h-.31"/><path d="M351.1,135.21a.43.43,0,0,1-.28-.11l-2.89-2.44a.45.45,0,0,1-.15-.34A.44.44,0,0,1,348,132l3.21-2.44a.44.44,0,0,1,.61.08.43.43,0,0,1-.08.61l-2.78,2.11,2.47,2.1a.43.43,0,0,1,.06.61.46.46,0,0,1-.34.16"/><path d="M336.29,147.24a12.62,12.62,0,0,1-7.83-2.41c-1.93-1.53-3.2-4-3.9-7.51-.16-.84-.34-2.91-.42-4.43a.43.43,0,0,1,.41-.46.41.41,0,0,1,.46.41,42.92,42.92,0,0,0,.41,4.31c.65,3.31,1.83,5.6,3.58,7a11.79,11.79,0,0,0,7.29,2.21.44.44,0,0,1,0,.88"/><path d="M336.29,147.24a.44.44,0,0,1,0-.88,11.75,11.75,0,0,0,7.28-2.21c1.76-1.4,2.93-3.69,3.59-7a28.8,28.8,0,0,0,.35-4,.44.44,0,0,1,.88,0,30.09,30.09,0,0,1-.38,4.09c-.69,3.52-2,6-3.89,7.51a12.64,12.64,0,0,1-7.83,2.41"/><path d="M343.38,123.82a.46.46,0,0,1-.3-.12,48.08,48.08,0,0,1-7-8.7.44.44,0,1,1,.75-.45,46.83,46.83,0,0,0,6.89,8.51.44.44,0,0,1-.3.76"/><path d="M329.31,123.82a.47.47,0,0,1-.32-.14.45.45,0,0,1,0-.62,50.84,50.84,0,0,0,7-8.52.44.44,0,0,1,.6-.13.45.45,0,0,1,.14.6,52.64,52.64,0,0,1-7.18,8.69.42.42,0,0,1-.3.12"/><path d="M343.69,150.23a.43.43,0,0,1-.43-.4c-.3-3.15-.54-4.77-.54-4.78a.45.45,0,0,1,.37-.5.45.45,0,0,1,.5.37s.23,1.66.54,4.83a.44.44,0,0,1-.39.48h-.05"/><path d="M329.05,149.93a.46.46,0,0,1-.44-.47c.2-3.21.37-4.48.38-4.53a.45.45,0,0,1,.49-.38.44.44,0,0,1,.37.49s-.17,1.31-.37,4.48a.43.43,0,0,1-.43.41"/><path d="M322.19,128.34a.43.43,0,0,1-.41-.29c-.11-.31-2.63-7.75.69-14.23,3-5.8,8.57-6.58,13.66-6.58,5.78,0,11.62.57,14,7.37,1,3,1.05,6.35,0,12.94a.46.46,0,0,1-.5.37.43.43,0,0,1-.36-.5c1-6.43,1-9.71,0-12.52-2-5.68-6.34-6.79-13.18-6.79-4.83,0-10.14.73-12.89,6.1-3.15,6.16-.66,13.48-.64,13.55a.44.44,0,0,1-.26.56.39.39,0,0,1-.15,0"/><path d="M336.9,141.17a7.23,7.23,0,0,1-1.91-.28.45.45,0,0,1-.28-.55.44.44,0,0,1,.55-.29s2.13.68,3.5-.25a3.18,3.18,0,0,0,1.2-2.59.45.45,0,0,1,.44-.41.44.44,0,0,1,.43.47,4,4,0,0,1-1.58,3.26,4.22,4.22,0,0,1-2.35.64"/><path d="M273.15,140.66a.42.42,0,0,1-.39-.25c-2.66-5.95-5-14.23-2.83-18a.43.43,0,0,1,.59-.16.44.44,0,0,1,.16.6c-1.86,3.26.1,11,2.87,17.2a.44.44,0,0,1-.22.58.57.57,0,0,1-.18,0"/><path d="M282.48,139.51a.44.44,0,0,1-.37-.22,35.67,35.67,0,0,1-3-8.11c-.85-3.05-1.66-5.94-2.93-7.8a.44.44,0,0,1,.73-.49c1.34,2,2.17,4.93,3,8.06a35,35,0,0,0,2.87,7.9.44.44,0,0,1-.15.59.39.39,0,0,1-.23.07"/><path d="M289.73,163.53a.44.44,0,0,1-.42-.32l-2.13-8a.42.42,0,0,1,.16-.46c1-.79,2.72-9.54-.59-14.16-1.7-2.38-11.07-.67-16.39,2.32-2.3,1.29-3.39,2.59-3,3.54a5.1,5.1,0,0,0,3.31,2.9c3,.95,7.4,0,11.2-2.29a.44.44,0,0,1,.46.74c-4,2.48-8.69,3.41-11.93,2.38a6,6,0,0,1-3.85-3.39c-.43-1-.2-2.64,3.37-4.64,5.35-3,15.32-5.13,17.52-2.07,3.4,4.75,2,13.34.63,15.14l2.07,7.71a.45.45,0,0,1-.31.54h-.12"/><path d="M277.9,154.94a8.87,8.87,0,0,1-1.81-.2,19.13,19.13,0,0,1-7.48-3.9,27.61,27.61,0,0,1-4.57-4.47,6.78,6.78,0,0,1-1.83-4.47,4.85,4.85,0,0,1,.38-1.59c.83-2,2.86-4,5.1-4a5.17,5.17,0,0,1,3.1,1.45l.29.23c1.15.88,2,1.56,3,2.41a.45.45,0,0,1,.06.62.43.43,0,0,1-.62.05c-1-.84-1.85-1.51-3-2.39l-.3-.23a4.48,4.48,0,0,0-2.58-1.27c-1.79,0-3.56,1.73-4.27,3.43a3.87,3.87,0,0,0-.32,1.3,5.84,5.84,0,0,0,1.64,3.88,26.27,26.27,0,0,0,4.43,4.32,18.27,18.27,0,0,0,7.13,3.73,6.36,6.36,0,0,0,3.54-.13,3.66,3.66,0,0,0,1.74-1.25,3.29,3.29,0,0,0-.23-3.69l-.12-.18a3.42,3.42,0,0,0-.23-.34.45.45,0,0,1,.09-.62.44.44,0,0,1,.61.09c.15.21.19.27.27.4l.12.18c1.07,1.7,1.13,3.36.2,4.67a4.45,4.45,0,0,1-2.16,1.56,6.57,6.57,0,0,1-2.21.37"/><path d="M275.48,159.12a8.19,8.19,0,0,1-.85,0,19.11,19.11,0,0,1-7.89-3,27.26,27.26,0,0,1-5.08-3.89,6.78,6.78,0,0,1-2.35-4.23,4.54,4.54,0,0,1,.18-1.62,6,6,0,0,1,2.95-3.84.44.44,0,1,1,.39.78,5.16,5.16,0,0,0-2.5,3.3,3.84,3.84,0,0,0-.15,1.33,5.76,5.76,0,0,0,2.08,3.65,27,27,0,0,0,4.92,3.77,18.23,18.23,0,0,0,7.53,2.84,6.38,6.38,0,0,0,3.5-.55,3.74,3.74,0,0,0,1.58-1.45,2.23,2.23,0,0,0,.22-2,.43.43,0,1,1,.82-.29,3.13,3.13,0,0,1-.27,2.7,4.55,4.55,0,0,1-2,1.81,7,7,0,0,1-3.12.68"/><path d="M274.32,166.9a.45.45,0,0,1-.43-.35l-1.16-5.48c-2.09-.59-3.46-2.07-5-4.23a.44.44,0,1,1,.72-.5c1.45,2.09,2.74,3.48,4.71,3.95a.46.46,0,0,1,.33.34l1.22,5.74a.44.44,0,0,1-.34.52h-.09"/><path d="M465.61,128c-10.35,0-20.49-2.3-24.9-8.9a34.31,34.31,0,0,1-4.84-12.22,61.31,61.31,0,0,1-.26-22.43.39.39,0,0,1,.5-.35.43.43,0,0,1,.36.5,60.4,60.4,0,0,0,.26,22.1,33.39,33.39,0,0,0,4.7,11.91c5.73,8.56,22.86,9.87,37.31,7.37a.41.41,0,0,1,.5.36.43.43,0,0,1-.35.5A79.06,79.06,0,0,1,465.61,128"/><path d="M452.18,158.86c-15.85,0-24-7.24-28.83-12.93-17.66-20.74-15.18-55.67-14-65.89a.44.44,0,0,1,.48-.38.44.44,0,0,1,.39.48c-1.17,10.13-3.64,44.75,13.8,65.23,5.2,6.1,14.26,14,33,12.4a.43.43,0,0,1,.47.4.42.42,0,0,1-.39.47c-1.73.15-3.38.22-4.95.22"/><path d="M431.25,86.14a58.93,58.93,0,0,1-8.85-.83c-4.68-.79-13.44-2.92-13-5.29.15-.83,1.71-1.73,3.81-1.73a.44.44,0,0,1,.44.44.44.44,0,0,1-.44.43c-2,0-2.89.81-3,1-.12.72,4.13,2.89,12.34,4.27s12.93.73,13.06,0c0-.09,0-.91-3.51-2.14a.43.43,0,1,1,.29-.82c2.93,1,4.26,2,4.08,3.11s-2.44,1.55-5.22,1.55"/><path d="M676.62,268.26H197c-.34,0-.6-.19-.6-.43s.26-.44.6-.44H676.62c.33,0,.6.19.6.44s-.27.43-.6.43"/><path d="M488.46,99.64c-.35,0-.58.1-.67,1.36s.26,1.64.58,1.63.62-.45.6-1.45-.05-1.47-.51-1.54"/><path d="M478.26,99.83c-.35,0-.58.11-.64,1.37s.31,1.64.62,1.62.62-.47.57-1.47-.09-1.47-.55-1.52"/><path d="M498.65,122.41a.44.44,0,0,1-.44-.41l-.72-12.57a.43.43,0,0,1,.41-.46.44.44,0,0,1,.46.41l.72,12.57a.43.43,0,0,1-.41.46h0"/><path d="M482.68,120.18c-2.28,0-4.63-.31-6.11-2.53s-1.59-5.41-1.62-8.11c0-.59,0-1.18,0-1.74-.07-1.84.13-13.67.14-14.17a.44.44,0,0,1,.44-.43.45.45,0,0,1,.44.45c0,.12-.22,12.3-.15,14.12,0,.57,0,1.16,0,1.76,0,2.71.06,5.51,1.48,7.63s4.13,2.19,6.67,2.13l1,0a25.37,25.37,0,0,0,5.53-.58.42.42,0,0,1,.52.32.44.44,0,0,1-.32.53,26.39,26.39,0,0,1-5.72.61l-1,0-1.31,0"/><path d="M500.09,110.32a5.65,5.65,0,0,1-3.44-1.17.42.42,0,0,1-.09-.61.43.43,0,0,1,.61-.08,4.84,4.84,0,1,0,3.35-8.68,4.73,4.73,0,0,0-3.53,1.1,4.69,4.69,0,0,0-1.43,2,.44.44,0,0,1-.57.26.43.43,0,0,1-.25-.56,5.64,5.64,0,0,1,1.69-2.4,5.71,5.71,0,1,1,3.66,10.11"/><path d="M475.61,98.24a.39.39,0,0,1-.18,0,.44.44,0,0,1-.22-.58s1.07-2.2,4.16-1.42a.43.43,0,0,1,.31.53.44.44,0,0,1-.53.31c-2.38-.6-3.11.89-3.14.95a.45.45,0,0,1-.4.25"/><path d="M490.66,98.38a.46.46,0,0,1-.34-.16c-2-2.59-4.06-1.35-4.15-1.29a.43.43,0,0,1-.6-.14.44.44,0,0,1,.13-.6s2.76-1.73,5.31,1.48a.45.45,0,0,1-.07.62.47.47,0,0,1-.28.09"/><path d="M481.74,122.45a.44.44,0,0,1-.44-.44l0-2.28a.44.44,0,0,1,.44-.44.45.45,0,0,1,.44.44V122a.44.44,0,0,1-.43.44Z"/><path d="M503.81,101a.46.46,0,0,1-.3-.12.44.44,0,0,1,0-.61l.17-.19a11.26,11.26,0,0,0,1.9-10,7.85,7.85,0,0,0-5.05-5.59,10.57,10.57,0,0,0-4.43-.38c-.89.09-2.65.16-2.72.17a.42.42,0,0,1-.45-.42.44.44,0,0,1,.41-.46s1.8-.07,2.67-.16a11.77,11.77,0,0,1,4.79.42,8.67,8.67,0,0,1,5.62,6.18,12.12,12.12,0,0,1-2.08,10.76,2,2,0,0,1-.19.22.43.43,0,0,1-.32.14"/><path d="M501.78,107.76a.41.41,0,0,1-.19,0l-4.11-2a.42.42,0,0,1-.24-.32.43.43,0,0,1,.11-.37l3.7-3.84a.44.44,0,0,1,.63.61l-3.28,3.4,3.57,1.73a.44.44,0,0,1,.2.59.44.44,0,0,1-.39.24"/><path d="M491.22,87a.47.47,0,0,1-.27-.1.43.43,0,0,1-.07-.61L493,83.57a.44.44,0,0,1,.62-.07.43.43,0,0,1,.07.61l-2.12,2.68a.46.46,0,0,1-.35.17"/><path d="M496,101.72a.46.46,0,0,1-.31-.13C492.24,98,490,92.17,489.32,90.1a14.25,14.25,0,0,1-13.92,4,.44.44,0,0,1-.33-.52.46.46,0,0,1,.53-.33c8.87,2,13.35-4,13.54-4.24a.41.41,0,0,1,.42-.17.42.42,0,0,1,.35.3c0,.08,2.41,7.74,6.39,11.88a.43.43,0,0,1,0,.62.42.42,0,0,1-.3.12"/><path d="M454,245.5a.44.44,0,0,1-.44-.44c0-44.47,1.33-75.3,4.18-97a.44.44,0,0,1,.87.11c-2.84,21.67-4.17,52.46-4.17,96.89a.44.44,0,0,1-.44.44"/><path d="M493.72,150.08a.44.44,0,0,1-.37-.21L485.54,137l-6.79,9.58a.44.44,0,0,1-.79-.25l-.14-19.12a.44.44,0,0,1,.08-.25l3.47-5.22a.44.44,0,0,1,.44-.19.44.44,0,0,1,.35.32l3.62,13.46,12.76-13.91a.42.42,0,0,1,.32-.14.45.45,0,0,1,.32.14l5,5.31a.43.43,0,0,1,.08.47l-10.16,22.59a.44.44,0,0,1-.37.26h0m-7.61-13.79,7.55,12.42,9.7-21.57-4.5-4.75Zm-7.42-8.92.13,17.63,6.28-8.85-3.54-13.1Z"/><path d="M475.42,197c-.35-.09-.49-.33-.42-.57,2.71-9.06,16.55-49.21,16.69-49.61a.45.45,0,0,1,.56-.27.43.43,0,0,1,.27.55c-.14.41-14,40.54-16.68,49.58a.45.45,0,0,1-.42.32"/><path d="M474.11,245.5a.44.44,0,0,1-.44-.44c0-22.32,1.3-48.24,1.32-48.49.16-11,3.54-50.71,3.57-51.1a.46.46,0,0,1,.47-.4.43.43,0,0,1,.4.47c0,.4-3.41,40-3.57,51.06,0,.27-1.32,26.16-1.32,48.46a.44.44,0,0,1-.43.44"/><path d="M486.45,150.13l-5-.44a.44.44,0,0,1-.4-.39l-.57-6.45a.45.45,0,0,1,.4-.48.43.43,0,0,1,.47.4l.54,6.08,4.36.39,3.79-5.33a.44.44,0,0,1,.61-.11.44.44,0,0,1,.1.61L486.81,150a.45.45,0,0,1-.36.18"/><path d="M487.34,160.83a.43.43,0,0,1-.43-.4l-.89-10.7a.43.43,0,1,1,.86-.07l.89,10.69a.43.43,0,0,1-.39.48h0"/><path d="M478.12,156.55a.45.45,0,0,1-.19-.05.43.43,0,0,1-.2-.58l3.35-6.85a.43.43,0,0,1,.59-.2.44.44,0,0,1,.2.58l-3.36,6.85a.44.44,0,0,1-.39.25"/><path d="M484.94,113.5a4.79,4.79,0,0,1-1.55-.29.43.43,0,0,1,.28-.82,2.8,2.8,0,0,0,2.39-.06,3.28,3.28,0,0,0,1.29-2.06.41.41,0,0,1,.5-.36.43.43,0,0,1,.36.5,4.14,4.14,0,0,1-1.7,2.67,3,3,0,0,1-1.57.42"/><path d="M482.36,109.47c-1,0-2.73-.14-3.49-1a1.58,1.58,0,0,1-.37-1.37c.38-2.18,2.38-8.77,2.46-9a.43.43,0,0,1,.54-.3.43.43,0,0,1,.29.55c0,.07-2.06,6.82-2.43,9a.67.67,0,0,0,.16.63c.66.73,2.88.72,3.61.66a.43.43,0,0,1,.47.4.44.44,0,0,1-.4.47c-.1,0-.41,0-.84,0"/><path d="M475.21,99a.46.46,0,0,1-.35-.17c-.07-.1-6.76-9.38-.45-15.18,5.92-5.43,13.5-5.48,18.88-.13a.44.44,0,0,1,0,.61.43.43,0,0,1-.62,0c-5-5-12.13-4.92-17.68.17-5.73,5.26.5,13.92.57,14a.44.44,0,0,1-.1.61.42.42,0,0,1-.26.08"/><path d="M570.87,245.5H400.51c-5.37,0-10.25-4.68-10.86-10.43a.44.44,0,0,1,.39-.48.42.42,0,0,1,.48.39c.57,5.32,5.05,9.65,10,9.65H570.87a10.05,10.05,0,0,0,10-10V143.27a10.05,10.05,0,0,0-10-10.05h-46a.44.44,0,0,1-.44-.43.44.44,0,0,1,.44-.44h46a10.93,10.93,0,0,1,10.92,10.92v91.31a10.93,10.93,0,0,1-10.92,10.92"/><path d="M421.73,235.46H251.37a10.93,10.93,0,0,1-10.92-10.92V84.76a10.93,10.93,0,0,1,10.92-10.92H412.2a.44.44,0,0,1,.44.43.44.44,0,0,1-.44.44H251.37a10.05,10.05,0,0,0-10,10.05V224.54a10.05,10.05,0,0,0,10,10.05H421.73a10.05,10.05,0,0,0,10-10.05V153.41a.44.44,0,1,1,.88,0v71.13a10.93,10.93,0,0,1-10.92,10.92"/><path d="M326.89,151.6c-2,0-8.75-.4-10.35-5.6-1.84-6,3.58-9.8,3.64-9.84a.44.44,0,0,1,.6.11.44.44,0,0,1-.11.61c-.2.14-4.94,3.5-3.29,8.87s9.93,5,10,5a.48.48,0,0,1,.46.42.44.44,0,0,1-.41.46h-.56"/><path d="M345,151.56a.44.44,0,0,1,0-.88c.09,0,9.17-.44,10.83-5.82s-3.48-7.84-3.7-8a.43.43,0,0,1-.2-.58.43.43,0,0,1,.58-.2c.06,0,6,3,4.15,9s-11.22,6.43-11.62,6.45Z"/><path d="M335.06,136.68a2.77,2.77,0,0,1-2.57-1.29.42.42,0,0,1,0-.5,15,15,0,0,0,2.86-9.12.44.44,0,0,1,.44-.44.44.44,0,0,1,.43.44,16.06,16.06,0,0,1-2.85,9.42c.92,1.07,3,.42,3,.41a.45.45,0,0,1,.55.28.44.44,0,0,1-.28.55,5.72,5.72,0,0,1-1.63.25"/><path d="M548.58,245.5a.44.44,0,0,1-.44-.44c0-.65.43-65.16-5.45-90.31-5.81-24.88-38.51-27.24-38.84-27.26a.44.44,0,0,1-.41-.46.45.45,0,0,1,.44-.41c.36,0,33.7,2.41,39.66,27.93,5.91,25.25,5.48,89.87,5.48,90.52a.44.44,0,0,1-.44.43"/><path d="M518.29,245.5a.43.43,0,0,1-.43-.44c.61-38.16-2.78-86.13-2.82-86.61a.44.44,0,0,1,.88-.06c0,.48,3.43,48.49,2.81,86.68a.44.44,0,0,1-.44.43"/><path d="M329.34,170.12a6.62,6.62,0,0,1-.88-.06,4.26,4.26,0,0,1-3.11-2c-2.8-4.45.35-14.66.49-15.1.07-.13,2.86-3.72,2.86-3.72a.47.47,0,0,1,.33-.17.42.42,0,0,1,.34.15l7.79,8.63a.41.41,0,0,1,.12.33c0,.32-.78,7.8-4.56,10.77a5.36,5.36,0,0,1-3.38,1.19m-2.69-16.84c-.28.93-3,10.37-.56,14.3a3.35,3.35,0,0,0,2.49,1.61,4.6,4.6,0,0,0,3.6-.95c3.17-2.49,4.07-8.8,4.2-10l-7.31-8.1Z"/><path d="M343.52,170.13c-5.13,0-6.93-6.43-7.48-9.33a.44.44,0,0,1,.86-.16c.53,2.82,2.34,9.3,7.45,8.55a3.19,3.19,0,0,0,2.42-1.57c2.41-4-.68-13.59-1-14.51l-2.09-2.62-6.51,7.91a.44.44,0,0,1-.62.06.45.45,0,0,1-.06-.62l6.86-8.32a.44.44,0,0,1,.34-.17.47.47,0,0,1,.33.17l2.48,3.11c.22.57,3.74,11,1,15.44a4.07,4.07,0,0,1-3,2,8,8,0,0,1-1,.07"/><path d="M74,11.5l.23,0,.23,0Z" fill="#51c9c0"/><path class="cls-1" d="M99.29,190.31c-.2-.23-.31.36-.31.36-4.21,4.87-27.34,33.24.11,37.9v.09l.23,0,.28,0v-.11c27.07-5.57,4.19-33.14,0-37.89,0,0-.11-.58-.31-.35"/><path class="cls-1" d="M869.26 153.57L849.61 183.47 861.78 183.47 852.17 207.38 873.74 178.34 861.14 178.34 869.26 153.57z"/><path d="M170.33,268.2h26.75a.46.46,0,0,0,0-.92H170.33c-3.5,0-4.62-1.34-4.62-5.54V218.43c0-2.9-1.49-4.63-4-4.63h-8.31a.46.46,0,0,0-.45.46.45.45,0,0,0,.45.45h8.31c1.95,0,3.07,1.36,3.07,3.72v43.31c0,4,.93,6.46,5.54,6.46"/><path d="M141.21,205.73a.47.47,0,0,0-.46.46v16.1a.48.48,0,0,0,.46.5,8.53,8.53,0,1,0,0-17.06m2,15.88-1.54.42V206.49l1.54.42a7.62,7.62,0,0,1,0,14.7"/><path d="M132.89,209.36h4.27a.46.46,0,0,0,0-.91h-4.27a.46.46,0,1,0,0,.91"/><path d="M132.89,220.07h4.27a.46.46,0,0,0,0-.92h-4.27a.46.46,0,1,0,0,.92"/><path d="M673.45,191.83c5.39-17.94-5.47-80.19-16.6-95.16a7.48,7.48,0,0,0-3.7-3l-.19-.07a.43.43,0,0,0-.19,0h-.46a.41.41,0,0,0-.19,0l-.2.07a7.48,7.48,0,0,0-3.7,3c-11.13,15-22,77.22-16.6,95.16,4.37,14.55,15,19.53,19.3,21l.83.28v51.14a.47.47,0,0,0,.46.46.46.46,0,0,0,.45-.46v-51l.87-.26c3.5-1.06,15.27-5.72,19.92-21.2m-12.81,16.65a28.6,28.6,0,0,1-6.34,3.32l-1.64.6V177.74l12.45-16.8a.49.49,0,0,0,.08-.34.47.47,0,0,0-.18-.3.49.49,0,0,0-.34-.08.47.47,0,0,0-.3.18l-11.71,15.81v-43a.46.46,0,0,0-.45-.46.47.47,0,0,0-.46.46v23.29l-10.67-10a.42.42,0,0,0-.32-.13.46.46,0,0,0-.3.79l11.29,10.59V212.2l-1.67-.67a28.39,28.39,0,0,1-5.65-3.05,30.73,30.73,0,0,1-11.94-16.91c-5.19-17.31,5.73-79.92,16.47-94.35,1.17-1.58,2.28-2.49,3.31-2.72l.27-.06.26.06q1.55.34,3.32,2.72c10.73,14.43,21.66,77,16.46,94.35a30.69,30.69,0,0,1-11.94,16.91"/><path class="cls-6" d="M679.59,69a3.42,3.42,0,0,0,1.88,2.24,5.8,5.8,0,0,0,2.37.24l.71,0h15.74c.24,0,.29-.17.29-.32s-.05-.32-.29-.32H682.72a2.34,2.34,0,0,1-2.22-1.23,3.55,3.55,0,0,1,.43-3.53l8-11.19.81,4.06c0,.08,0,.22.28.17a.37.37,0,0,0,.32-.43L689.41,54a.2.2,0,0,0-.1-.13.45.45,0,0,0-.3,0l-5.18,1.28c-.14,0-.17.09-.19.15a.44.44,0,0,0,.11.39.27.27,0,0,0,.29.07l4.24-1-8.22,11.49a3.32,3.32,0,0,0-.47,2.82"/><path class="cls-6" d="M709.54,49.85l5,.77c.15,0,.42,0,.45-.15l.81-4.6a.33.33,0,0,0-.12-.34.43.43,0,0,0-.38-.1s-.07,0-.1.16l-.65,3.73-5.4-7.25c-.3-.42-.61-.87-.93-1.34-1.43-2.1-3-4.48-5.54-4.42-2.16,0-3.77,2.67-5.06,4.78-.31.5-.6,1-.87,1.36l-5.19,7.61c0,.07-.13.19.07.33,0,0,.33.22.53-.08l7-10.22.34-.5a6.58,6.58,0,0,1,2.09-2.31c2.7-1.62,5.33,2.42,6.91,4.84.27.42.51.79.7,1l5,6.77-4.36-.67h-.07a.36.36,0,0,0-.29.14.46.46,0,0,0-.1.38s0,0,.15.07"/><path class="cls-6" d="M725.81,70.93a2.83,2.83,0,0,0,1.39-1.87c.31-1.8-1.38-4-2.62-5.7-.16-.21-.32-.41-.46-.61L717.71,54a.41.41,0,0,0-.58-.06c-.16.12-.1.2,0,.28l8.3,11.29c.73,1,1.46,2.93.82,4.19a2.05,2.05,0,0,1-2,1.07H706.61l3-3a.28.28,0,0,0,0-.43.33.33,0,0,0-.24-.12.28.28,0,0,0-.2.09L705.55,71a.34.34,0,0,0,0,.48l3.23,3.38s.18.19.4,0a.31.31,0,0,0,0-.47l-2.75-2.88h16.48a4.88,4.88,0,0,0,2.87-.53"/><path class="cls-6" d="M97.13,228.2c5.49-2.29,8.91-5.42,10.45-9.58,1.25-3.4,1-7.56-.7-12.35a47.07,47.07,0,0,0-9.59-15.49c-.08-.1-.15-.1-.19-.09a.37.37,0,0,0-.25.25.24.24,0,0,0,.07.27,49.36,49.36,0,0,1,5.59,7.42l.2.33-.3.24L95.66,206V191a.26.26,0,0,0-.29-.26.25.25,0,0,0-.28.26v14.94l-6.71-6.71-.31-.24.18-.36a49.18,49.18,0,0,1,5.6-7.41.31.31,0,0,0,0-.44.21.21,0,0,0-.34,0A48,48,0,0,0,84,206c-1.71,4.53-2,8.81-.86,12.37,1.34,4.16,4.88,7.46,10.53,9.81.09,0,.16.06.22-.09a.38.38,0,0,0-.17-.5c-5.58-2.32-9-5.72-10.25-10.11a15.37,15.37,0,0,1-.16-6.92l.16-.84,11.65,11.65v6.47a.25.25,0,0,0,.28.26.26.26,0,0,0,.29-.26v-6.45l11.67-11.67.15.84a16.64,16.64,0,0,1-.08,6.65c-1.32,5.58-6.34,8.72-10.32,10.38a.38.38,0,0,0-.18.5c.06.15.14.13.23.09m-2-7.62-11.21-11.2.31-.32-.31.31-.29-.21.08-.29a31.36,31.36,0,0,1,1.18-3.55,42.39,42.39,0,0,1,2.62-5.4l.29-.51,7.33,7.33Zm11.8-11.2L95.66,220.6V206.76l7.33-7.33.29.5a45.93,45.93,0,0,1,2.53,5.13,29,29,0,0,1,1.29,3.81l.08.29Z"/><path d="M119,121.06H71.8A11.79,11.79,0,0,0,60,132.84V244.76c0,6.37,2,8.32,8.58,8.32h53.56c6.35,0,8.61-1.16,8.61-7.66V132.84A11.8,11.8,0,0,0,119,121.06m10.87,124.36c0,5.91-1.64,6.74-7.7,6.74H68.6c-6.09,0-7.67-1.52-7.67-7.4V132.84A10.88,10.88,0,0,1,71.8,122H119a10.88,10.88,0,0,1,10.87,10.86Z"/><path d="M115.82,130.87H75.26a5.76,5.76,0,0,0-5.76,5.76v24.64A5.76,5.76,0,0,0,75.26,167h40.56a5.76,5.76,0,0,0,5.75-5.75V136.63a5.76,5.76,0,0,0-5.75-5.76m4.84,30.4a4.84,4.84,0,0,1-4.84,4.84H75.26a4.84,4.84,0,0,1-4.84-4.84V136.63a4.84,4.84,0,0,1,4.84-4.84h40.56a4.84,4.84,0,0,1,4.84,4.84Z"/><path d="M54.47,252.16a2.68,2.68,0,0,0-2.67,2.67v10.28a2.68,2.68,0,0,0,2.67,2.67h82.64a2.68,2.68,0,0,0,2.67-2.67V254.83a2.68,2.68,0,0,0-2.67-2.67Zm84.39,2.67v10.28a1.75,1.75,0,0,1-1.75,1.76H54.47a1.76,1.76,0,0,1-1.76-1.76V254.83a1.75,1.75,0,0,1,1.76-1.75h82.64a1.75,1.75,0,0,1,1.75,1.75"/><path class="cls-6" d="M910.61,18.17a19.93,19.93,0,0,0-5.19-.67A22.28,22.28,0,0,0,886,29.2c-4.68,8.63-2.57,19.8,5,26.54a21.79,21.79,0,1,0,19.59-37.57M926.35,39.3v0a21.25,21.25,0,0,1-21,21H905a20.22,20.22,0,0,1-14.5-6.2,21.85,21.85,0,0,1-6.22-14.81,20.2,20.2,0,0,1,6.2-14.81,21.83,21.83,0,0,1,14.81-6.22,20.18,20.18,0,0,1,14.81,6.2,21.88,21.88,0,0,1,6.22,14.81"/><path class="cls-6" d="M876.18,15.05a.43.43,0,0,0-.27-.11.42.42,0,0,0-.18,0,.55.55,0,0,0-.33.33s0,.07.11.16l9.7,7.8a.51.51,0,0,0,.71-.12c.14-.17.06-.23,0-.31Z"/><path class="cls-6" d="M894.06,16.17c.07.16.15.16.18.17a.58.58,0,0,0,.42-.25.35.35,0,0,0,0-.39l-5.59-11c-.08-.16-.15-.16-.19-.17h0a.53.53,0,0,0-.41.25.36.36,0,0,0,0,.39Z"/><path class="cls-6" d="M868.74,47.32a.53.53,0,0,0,.13.47.35.35,0,0,0,.36.1l12.29-2.81c.1,0,.29-.07.22-.38a.4.4,0,0,0-.49-.34L869,47.16c-.18,0-.2.12-.21.16"/><path class="cls-6" d="M881.47,33.41l-12.25-2.79a.39.39,0,0,0-.48.34c-.07.31.12.36.21.38l12.25,2.8a.41.41,0,0,0,.49-.35c.07-.31-.12-.36-.22-.38"/><path class="cls-6" d="M905.29,14.21V1.26c0-.29-.21-.35-.38-.35s-.39.06-.39.35v13c0,.29.21.35.39.35s.38-.06.38-.35"/><path class="cls-6" d="M921.09,4.57a.41.41,0,0,0-.16-.05c-.11,0-.15.09-.19.16l-5.3,11c-.19.39.24.6.26.61.24.12.3,0,.35-.11h0l5.3-11c.19-.39-.24-.6-.26-.61"/><path class="cls-6" d="M885.64,54.48l-9.71,7.74c-.11.09-.11.14-.1.16a.5.5,0,0,0,.33.33.42.42,0,0,0,.45-.07l9.71-7.74c.11-.09.1-.14.1-.16a.5.5,0,0,0-.33-.33.41.41,0,0,0-.45.07"/><path class="cls-6" d="M941.72,47.16l-12.3-2.8-.11,0c-.27,0-.35.27-.37.36-.07.31.12.36.21.38l12.3,2.81a.36.36,0,0,0,.36-.1.56.56,0,0,0,.13-.47s0-.12-.22-.16"/><path class="cls-6" d="M924.51,54.06a.44.44,0,0,0-.28-.1l-.17,0a.5.5,0,0,0-.33.34s0,.06.1.15l10.23,8.16a.5.5,0,0,0,.71-.12c.14-.17.07-.22,0-.3Z"/><path class="cls-6" d="M941.56,30.6l-.11,0-12.3,2.8c-.09,0-.29.07-.21.38a.4.4,0,0,0,.48.35l12.3-2.81c.09,0,.29-.07.22-.38,0-.09-.11-.36-.38-.36"/><path class="cls-6" d="M933.92,15a.44.44,0,0,0-.29.1l-9.77,7.79c-.09.08-.17.14,0,.31a.52.52,0,0,0,.71.12l9.77-7.8c.1-.08.17-.13,0-.3a.59.59,0,0,0-.42-.22"/><path class="cls-6" d="M915.83,60.79a.45.45,0,0,0-.25.61L921.17,73c.07.15.13.15.16.16a.55.55,0,0,0,.42-.24.38.38,0,0,0,0-.42L916.18,60.9c0-.08-.07-.16-.18-.16a.32.32,0,0,0-.17,0"/><path class="cls-6" d="M905.72,76.44V63.62c0-.28-.21-.34-.38-.34s-.39.06-.39.34V76.44c0,.28.21.34.39.34s.38-.06.38-.34"/><path class="cls-6" d="M889.51,73l5.59-11.07c.18-.36-.19-.56-.23-.59-.26-.13-.34,0-.39.11l-5.59,11.07a.38.38,0,0,0,0,.4.56.56,0,0,0,.42.24s.11,0,.19-.16"/><path d="M872.41,175.65a.39.39,0,0,0-.34-.21H860l8-24.27a.4.4,0,0,0-.2-.47.47.47,0,0,0-.17,0,.4.4,0,0,0-.32.18l-19.64,29.89a.38.38,0,0,0,.32.6h11.6l-9.4,23.39a.39.39,0,0,0,.17.48.4.4,0,0,0,.5-.11l21.57-29a.38.38,0,0,0,0-.4M852,202.25l8.5-21.16a.38.38,0,0,0-.35-.53H848.65l17.67-26.89-7.22,22a.37.37,0,0,0,.06.35.4.4,0,0,0,.31.15H871.3Z"/><path d="M704.59,147.16c-.13,0-.24,0-.24-.1v-2.47c0-.06.11-.1.24-.1s.24,0,.24.1v2.47c0,.05-.11.1-.24.1m0-4.93c-.13,0-.24,0-.24-.11v-2.47c0-.05.11-.1.24-.1s.24,0,.24.1v2.47c0,.06-.11.11-.24.11m0-4.94c-.13,0-.24,0-.24-.1v-2.47c0-.06.11-.1.24-.1s.24,0,.24.1v2.47c0,.05-.11.1-.24.1m0-4.94c-.13,0-.24,0-.24-.1v-2.47c0-.05.11-.1.24-.1s.24,0,.24.1v2.47c0,.06-.11.1-.24.1m0-4.93c-.13,0-.24,0-.24-.1v-2.47c0-.06.11-.1.24-.1s.24,0,.24.1v2.47c0,.05-.11.1-.24.1m0-4.94c-.13,0-.24,0-.24-.1v-2.47s.11-.1.24-.1.24,0,.24.1v2.47c0,.06-.11.1-.24.1m0-4.93c-.13,0-.24,0-.24-.1V115c0-.06.11-.1.24-.1s.24,0,.24.1v2.47s-.11.1-.24.1m0-4.94c-.13,0-.24,0-.24-.1V110c0-.05.11-.1.24-.1s.24,0,.24.1v2.47c0,.06-.11.1-.24.1m0-4.93c-.13,0-.24-.05-.24-.1v-2.47c0-.06.11-.1.24-.1s.24,0,.24.1v2.47s-.11.1-.24.1m0-4.94c-.13,0-.24,0-.24-.1v-2.47s.11-.1.24-.1.24.05.24.1v2.47c0,.06-.11.1-.24.1m0-4.93c-.13,0-.24,0-.24-.1V95.24c0-.06.11-.11.24-.11s.24.05.24.11v2.47c0,.05-.11.1-.24.1m0-4.94c-.13,0-.24,0-.24-.1V90.3s.11-.1.24-.1.24,0,.24.1v2.47c0,.06-.11.1-.24.1m0-4.93c-.13,0-.24,0-.24-.11V85.37c0-.06.11-.11.24-.11s.24,0,.24.11v2.46c0,.06-.11.11-.24.11m0-4.94c-.13,0-.24,0-.24-.1V80.43c0-.05.11-.1.24-.1s.24,0,.24.1V82.9c0,.06-.11.1-.24.1"/><path d="M835.21,181h-5.74a.24.24,0,1,1,0-.47h5.74a.24.24,0,1,1,0,.47m-11.47,0H818a.24.24,0,1,1,0-.47h5.74a.23.23,0,0,1,.23.24.23.23,0,0,1-.23.23m-11.48,0h-5.73a.24.24,0,1,1,0-.47h5.73a.24.24,0,1,1,0,.47m-11.47,0h-5.73a.24.24,0,1,1,0-.47h5.73a.24.24,0,1,1,0,.47m-11.47,0h-5.73a.24.24,0,1,1,0-.47h5.73a.24.24,0,1,1,0,.47m-11.47,0h-5.73a.24.24,0,1,1,0-.47h5.73a.24.24,0,1,1,0,.47m-11.47,0h-5.74a.23.23,0,0,1-.23-.23.23.23,0,0,1,.23-.24h5.74a.24.24,0,1,1,0,.47m-11.47,0h-5.74a.24.24,0,1,1,0-.47h5.74a.24.24,0,1,1,0,.47m-11.47,0H737.7a.24.24,0,1,1,0-.47h5.74a.24.24,0,1,1,0,.47M732,181h-5.74a.24.24,0,1,1,0-.47H732a.24.24,0,1,1,0,.47m-11.48,0h-5.73a.24.24,0,1,1,0-.47h5.73a.24.24,0,1,1,0,.47M709,181h-5.73a.24.24,0,1,1,0-.47H709a.24.24,0,1,1,0,.47"/><path d="M742.43,257.94a.23.23,0,0,1-.24-.21v-5a.24.24,0,0,1,.48,0v5a.23.23,0,0,1-.24.21m0-10.06a.23.23,0,0,1-.24-.21v-5a.24.24,0,0,1,.48,0v5a.23.23,0,0,1-.24.21m0-10.06a.23.23,0,0,1-.24-.21v-5a.24.24,0,0,1,.48,0v5a.23.23,0,0,1-.24.21m0-10.07a.23.23,0,0,1-.24-.21v-5a.24.24,0,0,1,.48,0v5a.23.23,0,0,1-.24.21m0-10.06a.23.23,0,0,1-.24-.21v-5a.24.24,0,0,1,.48,0v5a.23.23,0,0,1-.24.21m0-10.07a.23.23,0,0,1-.24-.21v-5a.24.24,0,0,1,.48,0v5a.23.23,0,0,1-.24.21m0-10.06a.23.23,0,0,1-.24-.21v-5a.24.24,0,0,1,.48,0v5a.23.23,0,0,1-.24.21m0-10.06a.23.23,0,0,1-.24-.21v-5a.24.24,0,0,1,.48,0v5a.23.23,0,0,1-.24.21m0-10.07a.23.23,0,0,1-.24-.21v-5a.24.24,0,0,1,.48,0v5a.23.23,0,0,1-.24.21m0-10.06a.23.23,0,0,1-.24-.21v-5a.24.24,0,0,1,.48,0v5a.23.23,0,0,1-.24.21m0-10.07a.23.23,0,0,1-.24-.21v-5a.24.24,0,0,1,.48,0v5a.23.23,0,0,1-.24.21m0-10.06a.23.23,0,0,1-.24-.21v-5a.24.24,0,0,1,.48,0v5a.23.23,0,0,1-.24.21m0-10.06a.23.23,0,0,1-.24-.21v-5a.24.24,0,0,1,.48,0v5a.23.23,0,0,1-.24.21m0-10.07a.23.23,0,0,1-.24-.21v-5a.24.24,0,0,1,.48,0v5a.23.23,0,0,1-.24.21m0-10.06a.23.23,0,0,1-.24-.21v-5a.24.24,0,0,1,.48,0v5a.23.23,0,0,1-.24.21M899.2,111h-3.12a.23.23,0,0,1-.24-.21.23.23,0,0,1,.24-.21H899v-2.08a.23.23,0,0,1,.24-.21.23.23,0,0,1,.24.21v2.29a.22.22,0,0,1-.24.21m-8.86,0h-5.73a.23.23,0,0,1-.24-.21.23.23,0,0,1,.24-.21h5.73a.23.23,0,0,1,.24.21.22.22,0,0,1-.24.21m-11.47,0h-5.73a.22.22,0,0,1-.24-.21.23.23,0,0,1,.24-.21h5.73a.23.23,0,0,1,.24.21.23.23,0,0,1-.24.21m-11.47,0h-5.74a.22.22,0,0,1-.23-.21.22.22,0,0,1,.23-.21h5.74a.23.23,0,0,1,.24.21.23.23,0,0,1-.24.21m-11.47,0h-5.74a.23.23,0,0,1-.24-.21.23.23,0,0,1,.24-.21h5.74a.23.23,0,0,1,.24.21.23.23,0,0,1-.24.21m-11.47,0h-5.74a.23.23,0,0,1-.24-.21.23.23,0,0,1,.24-.21h5.74a.23.23,0,0,1,.24.21.23.23,0,0,1-.24.21M833,111h-5.74a.23.23,0,0,1-.24-.21.23.23,0,0,1,.24-.21H833a.23.23,0,0,1,.24.21.23.23,0,0,1-.24.21m-11.47,0h-5.74a.23.23,0,0,1-.24-.21.23.23,0,0,1,.24-.21h5.74a.22.22,0,0,1,.23.21.22.22,0,0,1-.23.21M810,111h-5.73a.23.23,0,0,1-.24-.21.23.23,0,0,1,.24-.21H810a.23.23,0,0,1,.24.21.22.22,0,0,1-.24.21m-11.47,0h-5.73a.23.23,0,0,1-.24-.21.23.23,0,0,1,.24-.21h5.73a.23.23,0,0,1,.24.21.22.22,0,0,1-.24.21m-11.47,0h-5.73a.22.22,0,0,1-.24-.21.23.23,0,0,1,.24-.21h5.73a.23.23,0,0,1,.24.21.23.23,0,0,1-.24.21m-11.47,0h-5.74a.22.22,0,0,1-.23-.21.22.22,0,0,1,.23-.21h5.74a.23.23,0,0,1,.24.21.23.23,0,0,1-.24.21m-11.47,0h-5.74a.23.23,0,0,1-.24-.21.23.23,0,0,1,.24-.21h5.74a.23.23,0,0,1,.24.21.23.23,0,0,1-.24.21m-11.47,0H747a.23.23,0,0,1-.24-.21.23.23,0,0,1,.24-.21h5.74a.23.23,0,0,1,.24.21.23.23,0,0,1-.24.21m146.51-7.32a.23.23,0,0,1-.24-.21v-5a.23.23,0,0,1,.24-.21.22.22,0,0,1,.24.21v5a.22.22,0,0,1-.24.21m0-10.06a.23.23,0,0,1-.24-.21v-5a.22.22,0,0,1,.24-.2.22.22,0,0,1,.24.2v5a.23.23,0,0,1-.24.21"/></svg>