<svg id="Layer_1" data-name="Layer 1" xmlns="http://www.w3.org/2000/svg" viewBox="0 0 1046 258"><defs><style>.cls-1{fill:#1a1a1a}.cls-2{fill:#ee1944}.cls-3{fill:#fff}</style></defs><path d="M818.69,41.25l.12-.09a11.3,11.3,0,0,0,4.31-8.75v-.47l.32-.34a11.83,11.83,0,0,0,3.14-8,.37.37,0,0,0-.15-.31.38.38,0,0,0-.34-.07l-7.7,1.95a16.61,16.61,0,0,1-4.09.51H803a6.12,6.12,0,0,0-6.08,5.22,5.31,5.31,0,0,1-5.28,4.54H790V30.11l.6-.36a8.33,8.33,0,0,0,4.07-7.13,8.3,8.3,0,0,0-16.6,0,8.33,8.33,0,0,0,4.07,7.13l.59.36V35.4h-1.63a5.33,5.33,0,0,1-5.29-4.54,6.11,6.11,0,0,0-6.07-5.22h-11.3a16.53,16.53,0,0,1-4.08-.51l-7.7-1.95a.37.37,0,0,0-.34.07.38.38,0,0,0-.16.31,11.84,11.84,0,0,0,3.15,8l.32.34v.47A11.31,11.31,0,0,0,754,41.16l.13.11,1.61,2.15a17.27,17.27,0,0,0,25,2.79l2-1.73v9.64h-2.67a9.25,9.25,0,0,0-8.1,13.7.37.37,0,0,0,.23.2.43.43,0,0,0,.31,0,.39.39,0,0,0,.19-.24.37.37,0,0,0,0-.3,8.44,8.44,0,0,1,7.4-12.52h2.67v16.9h-5a6.52,6.52,0,1,0,0,13h5.52l.18,1A40.4,40.4,0,0,0,786,94.49a.41.41,0,0,0,.37.21.4.4,0,0,0,.37-.22l0-.07a40.8,40.8,0,0,0,2.55-8.55l.19-1h2.85a4.54,4.54,0,1,1,0,9.07h-.11a.4.4,0,0,0,0,.8h.11a5.34,5.34,0,1,0,0-10.67h-2.73l.14-1.34a41.44,41.44,0,0,0,.21-4.17V72.61h2.3a9.25,9.25,0,1,0,0-18.49H790V44.48l2,1.73a17.26,17.26,0,0,0,25-2.79Zm-37.58,3.53a16.35,16.35,0,0,1-11.58,4.76A16.54,16.54,0,0,1,759,45.69l-3-2.54,3.94.39a10.42,10.42,0,0,0,1.11.05h2.71a.39.39,0,0,0,.4-.39.4.4,0,0,0-.4-.4H761a10.52,10.52,0,0,1-10-7.18l-1-2.82,2.66,1.35A11.79,11.79,0,0,0,758,35.42h3.35a.4.4,0,0,0,0-.8H758A11.14,11.14,0,0,1,747.24,26L746.81,24l7.37,1.88a17.67,17.67,0,0,0,4.28.53h11.3A5.32,5.32,0,0,1,775.05,31a6.11,6.11,0,0,0,6.07,5.22h1.63v7Zm-3.38,39.28a5.73,5.73,0,0,1,0-11.45h5v5.84a40.39,40.39,0,0,0,.23,4.26l.14,1.35Zm11.5-5.51a39.72,39.72,0,0,1-1.66,11.38l-1.16,3.9-1.18-3.89a40.14,40.14,0,0,1-1.68-11.49V72.61h5.68Zm0-6.73h-5.68V30.55l1.43.24a7.86,7.86,0,0,0,2.82,0l1.43-.24Zm3.09-16.9a8.45,8.45,0,0,1,0,16.9H790V54.92Zm-5.93-24.8a7.51,7.51,0,1,1,7.5-7.5,7.52,7.52,0,0,1-7.5,7.5m27.43,15.57a16.55,16.55,0,0,1-10.58,3.85,16.34,16.34,0,0,1-11.57-4.76L790,43.16v-7h1.64A6.12,6.12,0,0,0,797.73,31,5.31,5.31,0,0,1,803,26.44h11.29a17.54,17.54,0,0,0,4.28-.53L826,24,825.53,26a11.13,11.13,0,0,1-10.79,8.65h-3.35a.4.4,0,1,0,0,.8h3.35a11.75,11.75,0,0,0,5.33-1.27l2.66-1.35-1,2.82a10.53,10.53,0,0,1-10,7.18h-2.71a.39.39,0,0,0-.39.4.38.38,0,0,0,.39.39h2.71c.37,0,.74,0,1.12-.05l3.93-.39Z"/><path d="M103,208.8h11.49l0,1.07a31.93,31.93,0,0,0,20.22,28.18l1.17.46-4.87,9.31h-2.47a5.6,5.6,0,0,0-5.53,5.66v1.14a.44.44,0,0,0,.11.29.43.43,0,0,0,.28.12h54.06c.29,0,.61-.25.61-.49v-1.06a5.78,5.78,0,0,0-5.89-5.66h-2.31l-5-11.5,1-.47a46.14,46.14,0,0,0,26.26-41.49v-1.45a45.89,45.89,0,0,0-34.33-44.42l-.5-.13-.23-.47a8.59,8.59,0,0,0-2.29-2.89l-.71-.58,2-3.83a.49.49,0,0,0-.21-.66l-2.16-1.12,4.35-8.43a.5.5,0,0,0-.21-.67l-9.36-4.84h0a.5.5,0,0,0-.67.22l-4.35,8.43-2-1a.48.48,0,0,0-.66.21l-17.51,33.86a.5.5,0,0,0,.21.67l1.91,1-2.2,4.26a.49.49,0,0,0,.22.66l9.69,5a.5.5,0,0,0,.67-.22l2.19-4.25,1.91,1a.49.49,0,0,0,.66-.21l7.76-15,.88.25A8.38,8.38,0,0,0,155,158l.46-.39.57.16a36.46,36.46,0,0,1,26.8,35.14v1.45c0,.86,0,1.72-.08,2.59a.49.49,0,0,0,.5.49.49.49,0,0,0,.49-.46c0-.84.08-1.72.08-2.62V192.9a37.11,37.11,0,0,0-8.09-23.22,37.64,37.64,0,0,0-18.12-12.49l-1.3-.41.65-1.2a8.42,8.42,0,0,0,1-4c0-.16,0-.31,0-.47l-.09-1.61,1.54.47a45,45,0,0,1,22,15,44.48,44.48,0,0,1,9.78,28v1.45a44.9,44.9,0,0,1-44.8,44.89A30.9,30.9,0,0,1,115.56,210l-.07-1.19H123l.07,1a23.55,23.55,0,0,0,23.42,22A37.74,37.74,0,0,0,181.3,208a.5.5,0,0,0-.27-.62.48.48,0,0,0-.63.23,36.83,36.83,0,0,1-34,23.28A22.61,22.61,0,0,1,124,210l-.09-1.21h11.53a3.34,3.34,0,0,0,0-6.67h-1.93v-4.44a.4.4,0,0,0-.13-.3.42.42,0,0,0-.32-.12H105.36a.37.37,0,0,0-.28.13.38.38,0,0,0-.11.33v4.4h-2a3.34,3.34,0,0,0,0,6.67m23.32-40.13,8.83,4.56-2,3.81-8.82-4.56ZM137.18,142l6.5,3.36-.83,1.07c-.08.11-.16.21-.23.32a8.45,8.45,0,0,0,2,11.76l.8.56L138,173.56l-13.51-7Zm15.69-3.6-8.49-4.4,4.13-8,8.49,4.39Zm.41,5.56-.92-.33a8.41,8.41,0,0,0-7.23.76l-.54.33-7-3.6,3.87-7.49,13.51,7Zm3.71,7.65a7.46,7.46,0,0,1-7.47,7.46h0a7.47,7.47,0,0,1,0-14.94h0a7.49,7.49,0,0,1,7.46,7.48m15.23,97.24a4.7,4.7,0,0,1,4.75,3.92l.22,1.31H123.8l.22-1.31a4.72,4.72,0,0,1,4.74-3.92Zm-35.3-10,.88.24a31.89,31.89,0,0,0,8.58,1.18h.07A45.5,45.5,0,0,0,163,237.11l1-.4,4.8,11.11H132.2Zm-4.38-36.69H106v-3.88h26.59ZM103,207.81h0a2.35,2.35,0,0,1-2.2-2.2,2.36,2.36,0,0,1,2.2-2.49h32.57a2.35,2.35,0,0,1,0,4.69Z"/><path d="M173.23,176.51a.48.48,0,0,1,.23-.3.49.49,0,0,1,.68.17,32.15,32.15,0,0,1,4.54,16.53v1.45a.5.5,0,0,1-.49.5.51.51,0,0,1-.5-.5v-1.45a31.05,31.05,0,0,0-4.4-16,.51.51,0,0,1-.06-.38"/><path d="M170.58,171.52a.53.53,0,0,1,.13.36.54.54,0,0,1-.17.34.5.5,0,0,1-.7,0c-.41-.47-.85-.94-1.29-1.38a.48.48,0,0,1-.16-.35.5.5,0,0,1,.14-.35.51.51,0,0,1,.36-.15.49.49,0,0,1,.34.14l.81-.79-.8.8c.46.46.91.94,1.34,1.42"/><path d="M145.45,151.56a4.08,4.08,0,0,0,4.08,4.08h0a4.1,4.1,0,0,0,4.07-4.08,4.06,4.06,0,0,0-4.07-4.07h0a4.08,4.08,0,0,0-4.07,4.07m1,0a3.06,3.06,0,0,1,3.09-3.09h0a3.09,3.09,0,0,1,0,6.18h0a3.09,3.09,0,0,1-3.08-3.09"/><path d="M946.35,209.72a2.26,2.26,0,1,0-2.26-2.25,2.26,2.26,0,0,0,2.26,2.25m0-3.42a1.17,1.17,0,1,1-1.17,1.17,1.17,1.17,0,0,1,1.17-1.17"/><path d="M964.68,214.87a3.37,3.37,0,1,0,3.37,3.37,3.38,3.38,0,0,0-3.37-3.37m0,5.65h0a2.28,2.28,0,1,1,2.28-2.28,2.29,2.29,0,0,1-2.28,2.28"/><path d="M966.89,203.6a2.46,2.46,0,1,0,2.46,2.46,2.46,2.46,0,0,0-2.46-2.46m0,3.82a1.37,1.37,0,1,1,1.37-1.36,1.36,1.36,0,0,1-1.37,1.36"/><path d="M955.52,213.15a2.16,2.16,0,1,0-2.16-2.16,2.16,2.16,0,0,0,2.16,2.16m0-3.23a1.07,1.07,0,1,1-1.07,1.07,1.07,1.07,0,0,1,1.07-1.07"/><path d="M951.63,191.86a46.42,46.42,0,0,0,3.83-11.21A.54.54,0,0,0,955,180h-.11a.54.54,0,0,0-.53.43,45.13,45.13,0,0,1-3.74,10.93h0a.55.55,0,0,0,1,.49"/><path d="M955.49,177.22h.06a.53.53,0,0,0,.54-.48c.06-.51.12-1,.16-1.56a.56.56,0,0,0-.12-.4.59.59,0,0,0-.37-.2h0a.56.56,0,0,0-.35.13.52.52,0,0,0-.19.37c0,.52-.1,1-.16,1.54a.55.55,0,0,0,.48.6"/><path d="M1022.28,231.65a6.77,6.77,0,0,0,6.78-6.74V184.78l.58-.08a2.63,2.63,0,0,0,2.28-2.62,2.68,2.68,0,0,0-2.64-2.65h-1V172c0-.33-.3-.44-.55-.44h-5.29v-9.4a11.12,11.12,0,1,0-22.24,0v10.94a9.12,9.12,0,0,1-18.24,0V147.36a12.23,12.23,0,1,0-24.45,0v7.1H952a.59.59,0,0,0-.59.57v5.27h-1.83a.6.6,0,0,0-.59.59v6.27a.48.48,0,0,0,.47.47h2v3.7a41.86,41.86,0,0,1-4.26,18.35L935.4,213.61a8.06,8.06,0,0,0,.39,7.87,7.78,7.78,0,0,0,6.54,3.55h31.78a7.68,7.68,0,0,0,6.5-3.56,8,8,0,0,0,.39-7.86l-11.85-23.93a41.9,41.9,0,0,1-4.33-18.35v-3.7h2a.45.45,0,0,0,.45-.45v-6.34a.55.55,0,0,0-.55-.54h-1.87V155c0-.2-.09-.55-.45-.55h-5.79v-7.1a11.14,11.14,0,1,1,22.27,0v25.76a10.21,10.21,0,0,0,20.42,0V162.18a10,10,0,1,1,20.06,0v9.4h-4.5c-.25,0-.54.11-.54.44v7.41h-1a2.69,2.69,0,0,0-2.64,2.65,2.64,2.64,0,0,0,2.29,2.62l.58.08v40.13a6.77,6.77,0,0,0,6.79,6.74M972.8,199.47,980,214.1a6.85,6.85,0,0,1-.22,6.6,6.67,6.67,0,0,1-5.71,3.24H942.3a6.68,6.68,0,0,1-5.7-3.24,6.85,6.85,0,0,1-.22-6.6l7.23-14.64.45,0a7,7,0,0,1,2.63.83,8.64,8.64,0,0,0,8,0,6.93,6.93,0,0,1,3.54-.87,6.86,6.86,0,0,1,3.53.87,8.66,8.66,0,0,0,8,0,6.93,6.93,0,0,1,2.5-.81Zm-6.65-38.08v5.15h-5.3a.55.55,0,0,0-.54.55.54.54,0,0,0,.54.54h2.88v3.7a43,43,0,0,0,4.44,18.83l4.08,8.22-.82.19a8.12,8.12,0,0,0-2.07.79,6.94,6.94,0,0,1-3.55.88,6.86,6.86,0,0,1-3.53-.87,8.66,8.66,0,0,0-8,0,7.6,7.6,0,0,1-7.06,0,8.82,8.82,0,0,0-2.21-.82l-.82-.18,4-8.2a43.06,43.06,0,0,0,4.37-18.84v-3.41l.43-.33a.54.54,0,0,0-.17-1.05h-2.68v-5.15Zm-2.42-1.09H952.54v-4.75h11.19ZM1028,224.91a5.7,5.7,0,1,1-11.39,0V206.44l.8.17a4.65,4.65,0,0,1,1.46.56,7.23,7.23,0,0,0,3.44.8,6.78,6.78,0,0,0,3.38-.81,5.26,5.26,0,0,1,1.52-.58l.79-.16Zm0-19.55-.58.07a6,6,0,0,0-2.18.72,5.76,5.76,0,0,1-2.8.73h-.16a6,6,0,0,1-3-.72,7.11,7.11,0,0,0-2.13-.7l-.55-.09V184.75H1028Zm-10.59-32.69h9.79v6.76h-9.79Zm-2.12,11a1.57,1.57,0,0,1,0-3.14h14.06a1.57,1.57,0,0,1,0,3.14h-14.07Z"/><path d="M303.46,93.78h-.09a.51.51,0,0,0-.49.4.5.5,0,0,0,.4.58c.33.06.67.11,1,.14a.49.49,0,0,0,.54-.44.5.5,0,0,0-.45-.54c-.3,0-.61-.08-.91-.13"/><path d="M300.11,93.52a.49.49,0,0,0,.67-.2.49.49,0,0,0-.21-.67,10.44,10.44,0,0,1-4.75-5.37.48.48,0,0,0-.46-.32.39.39,0,0,0-.18,0,.5.5,0,0,0-.28.64,11.39,11.39,0,0,0,5.21,5.88"/><path d="M262.48,93.12h-.06a.51.51,0,0,0-.31.11.48.48,0,0,0-.18.33.47.47,0,0,0,.1.36.49.49,0,0,0,.33.19c.34,0,.68.06,1,.07a.55.55,0,0,0,.51-.49.51.51,0,0,0-.49-.51,7,7,0,0,1-.91-.06"/><path d="M259.77,92.48a.51.51,0,0,0-.26-.28,10.36,10.36,0,0,1-5.12-5,.49.49,0,0,0-.28-.25.51.51,0,0,0-.17,0,.38.38,0,0,0-.21,0,.48.48,0,0,0-.26.28.55.55,0,0,0,0,.38,11.37,11.37,0,0,0,5.62,5.49.5.5,0,0,0,.38,0,.49.49,0,0,0,.27-.26l.65.29-.65-.29a.46.46,0,0,0,0-.38"/><path d="M262.44,137.22a.51.51,0,0,0-.56.43.49.49,0,0,0,.43.55c.33,0,.67.07,1,.09a.51.51,0,0,0,.36-.14.5.5,0,0,0,.16-.34.5.5,0,0,0-.48-.52c-.3,0-.61,0-.91-.07"/><path d="M259.07,137.16a.5.5,0,0,0,.38,0,.49.49,0,0,0,.28-.25.56.56,0,0,0,0-.38.48.48,0,0,0-.26-.28,10.44,10.44,0,0,1-5.05-5.1.49.49,0,0,0-.45-.29.54.54,0,0,0-.21,0,.51.51,0,0,0-.26.28.5.5,0,0,0,0,.38,11.41,11.41,0,0,0,5.53,5.58"/><path d="M327.39,110.62a4.71,4.71,0,0,0-7.49-5.31l-.49.44-9.77-9.81.53-.49a11.44,11.44,0,0,0,.46-16.17c-.16-.17-.32-.33-.49-.49l-.53-.49,9.8-9.83.49.44a4.71,4.71,0,1,0,2.85-8.22,4.67,4.67,0,0,0-3.24,1.57,4.75,4.75,0,0,0-.83,4.92l.18.43L308.81,77.7l-.48-.3a11.25,11.25,0,0,0-12,0l-.48.3-10.06-10.1.18-.43a4.69,4.69,0,1,0-8.77-.25l.14.41-9.69,9.86-.48-.3a11.25,11.25,0,0,0-12,0l-.48.29-10.06-10.1.18-.43a4.58,4.58,0,0,0,.36-1.79h0a4.71,4.71,0,1,0-1.58,3.52l.49-.44L254,77.81l-.53.5A11.44,11.44,0,0,0,253,94.48c.14.15.3.3.45.45l.53.5-10.26,10.12-.49-.36a4.6,4.6,0,0,0-2.75-.9h0a4.71,4.71,0,0,0,0,9.42,4.64,4.64,0,0,0,3.15-1.19l.49-.44,9.81,9.84-.53.5a11.44,11.44,0,0,0-.48,16.16c.15.16.3.32.46.47l.52.49L244,149.36l-.49-.44a4.73,4.73,0,1,0,1.22,1.73l-.17-.44,10-10.06.48.3a11.39,11.39,0,0,0,12,0l.47-.3,10,10.05-.18.44a4.71,4.71,0,0,0,2.56,6.14,4.69,4.69,0,0,0,6.15-2.56,4.64,4.64,0,0,0,0-3.6,4.7,4.7,0,0,0-7.47-1.71l-.5.44-9.77-9.8.53-.5a11.46,11.46,0,0,0,.46-16.17l-.49-.48-.53-.5,9.83-9.86.49.41A4.7,4.7,0,0,0,286,107l-.18-.43,10-10.07.48.3a11.37,11.37,0,0,0,12,0l.47-.29,10,10-.18.43a4.71,4.71,0,1,0,8.71,3.59m-8.07-45.24A3.71,3.71,0,0,1,323,61.7h0a3.7,3.7,0,1,1-3.72,3.69Zm-78.76,3.23h0a3.72,3.72,0,0,1,0-7.44h0a3.72,3.72,0,0,1,0,7.44m3.58,83.83a3.71,3.71,0,0,1-3.7,3.68h0a3.7,3.7,0,1,1,3.72-3.68Zm37.64-3.72a3.73,3.73,0,0,1,3.7,3.72h0a3.7,3.7,0,0,1-3.7,3.68h0a3.7,3.7,0,0,1,0-7.4M278,65.38a3.67,3.67,0,0,1,3.72-3.68A3.7,3.7,0,1,1,278,65.39ZM250.84,86.64h0a10.32,10.32,0,0,1,3.08-7.34,10.49,10.49,0,0,1,7.37-3,10.4,10.4,0,0,1,10.35,10.44,10.4,10.4,0,0,1-20.8-.08m-10.4,26.08a3.73,3.73,0,0,1-3.71-3.72h0a3.7,3.7,0,0,1,3.73-3.68,3.65,3.65,0,0,1,2.61,1.1,3.7,3.7,0,0,1-2.63,6.3m31.08,18h0a10.41,10.41,0,0,1-10.4,10.36h0a10.41,10.41,0,1,1,10.44-10.36m5.89-20,.2.44-10,10.08-.47-.29a11.25,11.25,0,0,0-12,0l-.48.29L244.6,111.23l.17-.44a4.68,4.68,0,0,0-.2-4l-.25-.46L254.74,96l.47.29a11.39,11.39,0,0,0,12,0l.47-.3,10.06,10.1-.24.46a4.73,4.73,0,0,0-.13,4.18m8-2a3.66,3.66,0,0,1-1.09,2.61,3.7,3.7,0,0,1-2.61,1.07h0a3.7,3.7,0,1,1,3.72-3.68Zm-.09-3.08-.5-.44a4.67,4.67,0,0,0-5.87-.29l-.49.36-9.9-9.93.53-.5a11.45,11.45,0,0,0,.46-16.16c-.16-.17-.32-.34-.49-.5l-.53-.49,9.39-9.56.5.5a4.68,4.68,0,0,0,6.4.17l.5-.45,9.81,9.85-.53.5A11.42,11.42,0,0,0,294.08,95c.14.16.3.32.46.47l.52.49Zm17.08-8.26h-.05A10.4,10.4,0,0,1,292,87.05a10.4,10.4,0,0,1,20.8.08h0a10.4,10.4,0,0,1-10.4,10.35m20.66,15h0a3.7,3.7,0,0,1-2.61-1.1,3.62,3.62,0,0,1-1.07-2.62,3.7,3.7,0,0,1,7.4,0h0a3.7,3.7,0,0,1-3.7,3.68"/><path d="M68.44,39.63a18.89,18.89,0,0,0,10.19-6.94.39.39,0,0,0,.08-.3.44.44,0,0,0-.16-.26.41.41,0,0,0-.56.08,18.37,18.37,0,0,1-2.68,2.89l-.38.32L56.18,20.59l.29-.46a18.53,18.53,0,0,1,3.35-3.88.4.4,0,0,0,0-.56.42.42,0,0,0-.28-.14.4.4,0,0,0-.29.1,18.68,18.68,0,0,0-3.87,4.67l-.07.09a.42.42,0,0,0-.09.15l0,.12a17.73,17.73,0,0,0-2.16,6.84v.06a18.29,18.29,0,0,0,0,3l.65,9.87L45,41a27.56,27.56,0,0,0-3.62.46l-.13,0a25.53,25.53,0,0,0-4,1.15A22.74,22.74,0,0,0,32,45.41c-.45.34-.85.66-1.23,1l-.91.79a17.15,17.15,0,0,0-3.86,5c-.38.74-.72,1.47-1,2.2a22.27,22.27,0,0,0-1.51,7.21,23.89,23.89,0,0,0,0,2.54L24,72.51,13,73.2a20.37,20.37,0,0,0-3.2.45l-.21-.57.13.58a20.3,20.3,0,0,0-7.09,3.08A19.2,19.2,0,0,0,.05,78.88a.4.4,0,0,0,0,.57.38.38,0,0,0,.29.12h0a.39.39,0,0,0,.27-.11,19.13,19.13,0,0,1,1.88-1.6l.37-.28L22.09,92.79l-.29.46A18.17,18.17,0,0,1,19.69,96a.4.4,0,0,0,0,.56.36.36,0,0,0,.29.11.37.37,0,0,0,.28-.13,18.06,18.06,0,0,0,4.91-13.62L24.54,73l10.66-.67c5.4-.34,10.12-2.85,14.43-7.67l.42-.52A15,15,0,0,0,52,61.44l.06-.11a22.18,22.18,0,0,0,1.62-3.78,23.08,23.08,0,0,0,1-8.7l-.52-7.92,10.37-.65a19.17,19.17,0,0,0,3.76-.62ZM53.92,27a16.81,16.81,0,0,1,1.53-5l.32-.68L74.29,35.94l-.69.46a18,18,0,0,1-4.94,2.33l-.3.09L53.87,27.36ZM24.29,86.31a17,17,0,0,1-1.48,5.09l-.32.69L3.54,77.1l.76-.44a19.66,19.66,0,0,1,5.21-2.11l.28-.07L24.33,86ZM10.77,74.22l1.47-.15.85-.07,10.67-.67L24.39,83c0,.26,0,.52,0,.77l0,1.28Zm14-2-.62-9.81L35.7,71.51Zm19.7-4a18.12,18.12,0,0,1-7.41,3.1l-.26.05-12.59-10,0-.31a21.38,21.38,0,0,1,1.43-6.46h0c.14-.34.28-.67.43-1l.32-.7,18.72,14.8Zm6.38-6.47a12.64,12.64,0,0,1-1.41,1.86l-.43.54a28.72,28.72,0,0,1-2.85,2.78l-.38.32-19-15,.26-.45a16.06,16.06,0,0,1,3.26-4l1.46-1.28,0,0h0l.38-.3,19,15Zm3-9.19a21.58,21.58,0,0,1-2,7.34l-.32.68L32.81,45.76l.73-.45a22.44,22.44,0,0,1,4-2l1.35-.51,0,0c.72-.22,1.45-.41,2.18-.57l.28-.06,12.61,10ZM42.29,42l1.46-.17,1.3-.11,8.35-.53.5,7.67c0,.37,0,.74.05,1.1l0,1.28Zm23.76-2.73c-.51.08-1,.13-1.54.16l-10.09.64-.63-9.62c0-.31,0-.63,0-.94V28.29L67.43,39.11Z"/><path class="cls-1" d="M538.29,104.74s-18.93.46-31.73,11.4a132.64,132.64,0,0,0-32.43,42.08c-7.68,16-14.44,28.37-13.6,42.62s9.19,23.8,22.85,27.55a166.59,166.59,0,0,0,25.34,4.84l-.3,21.56h95.89l-.86-43.12a10.16,10.16,0,0,0,7.11-3c3.21-3.18,1.73-12.87,1.73-12.87s12.13,8.54,22.5,7.67,17.29-8.46,18.72-13.76,3-13.81,2.92-26.63-1.34-40.53-1.34-40.53-2.15-4.47-16.71-5.17-18.08,4-18.08,4l-.35,9.37s-4.37-9.95-11.22-14.45-19-11.16-31.59-11.26l-38.85-.31"/><path class="cls-2" d="M579.18,211.36h24.27a10.31,10.31,0,0,0,7.11-2.66c2.86-2.86,1.73-9.59,1.73-9.59l.18-53.36a7.63,7.63,0,0,0-2.26-5.45,8.6,8.6,0,0,0-5.31-2.19h-93s-5.38-.2-7.37,2.65a9.2,9.2,0,0,0-1.27,6.45l-.13,47.53S528,200,540.31,200.1c0,0,2.26-.66,3.15.8s0,.37,0,.37,3.89-1.5,4.29-4.69.07-11.88,4.19-12,5,5.67,4.94,10.26-2.15,10.49-2.15,10.49-.65,2.51,3,3.51,14.11,3.33,21.42,2.5"/><path class="cls-2" d="M696,154.22A64.75,64.75,0,0,0,670.55,181c-9.51,18.68-14.88,35-15.8,48.08a54.06,54.06,0,0,0,4.47,25.76h92.09L780.25,246l-12.18-61.4s-6.29-16.34-15.36-24.55-19.83-10.47-22.19-10.5S696,154.22,696,154.22"/><path class="cls-1" d="M769.75,255.52h86.52c5.7,0,10.76-4.24,12.55-9.42l20.52-59.25c2.84-8.19-3.54-16.64-12.55-16.64H790.27a13.18,13.18,0,0,0-12.55,8.68L757.2,238.14c-2.84,8.19,3.53,17.38,12.55,17.38"/><path class="cls-3" d="M361.48,79.83l-.5,2.06s.1-.37-1.3-.52A2.22,2.22,0,0,0,357.41,83c-.17.58-2.55,9.27-2.55,9.27s.31,1.74,1.27,1.74a6.69,6.69,0,0,0,2.3-.7L357,98.09s-3.16-1.17-5,0c0,0-6.09-2.46-8.67.63,0,0-4.22-3.5-6-4.62s-4.22-1.36-5.43.46-.76,2.66,1.33,4.16,7.66,6.2,9.05,7.6,5.31,5.46,5.36,6-.84.23-1.74-.61-6-6-7.78-6.11a2.93,2.93,0,0,0-3,3.93c.68,2.55,4.08,4,6.84,7.55s11.17,5.68,11.39,5.68S360,117.69,365,118.2a14.12,14.12,0,0,1-.94-9.36c1.31-5.19,6.29-8.62,6.29-8.62s4.88,1.23,7-2.73-.6-6.89-2.15-7.94a7.53,7.53,0,0,0-3.58-1.1s-8.75-3.28-10.11-8.62"/><path class="cls-3" d="M539.88,203.25s5.14-2.22,6.61-4.47,1.73-2.87,1.73-6.52.73-7.22,3.72-7.66,5,3,4.91,7.73A53.74,53.74,0,0,1,555.29,204c-.49,1.27-1,3.09,1.56,4.43a26.07,26.07,0,0,0,13.29,2.86,58.33,58.33,0,0,1,9,0,7.36,7.36,0,0,1-1.9,2.32s-1.28,5.71-5.49,7.2a37.35,37.35,0,0,1-13.34,2.59c-6,.14-10.9-.51-13-.54s-6.12-.45-6.9-3.28a42.72,42.72,0,0,1-.42-8.75,22.38,22.38,0,0,1,1.7-7.65"/><path class="cls-3" d="M649,125.23s.54-9.58.27-12.84-1-3.59-.27-8.24,1.69-9.92,1.33-15-1.16-8.37-3.35-8a10.35,10.35,0,0,0-3.94,1.55A3,3,0,0,0,640,79.53c-3.31-.1-4.07,2.36-4.07,2.36s-1.48-2.48-4.07-2.24-3.92,2.32-4,5.16-.53,17.59-.53,17.59-1.56-.28-3.52-2.9-5.75-6.11-8.77-3.27-2,5.48,1.18,8.51,7.81,6.78,8.83,11.31a58.34,58.34,0,0,1,1.16,9.65s15,2.83,22.93-.47"/><path class="cls-3" d="M568.11,177.89a7.71,7.71,0,1,1-7.71-7.7,7.71,7.71,0,0,1,7.71,7.7"/><path class="cls-3" d="M730.05,149.57l.47-8.85s5.86-.13,7-3.92a33.65,33.65,0,0,0,1.72-12.71c-.16-6.06-.36-11.57-.36-11.57l-8.85-9.41s-8.17,10.93-10.61,13.7-4.61,4.69-4.39,8.67,4.35,9.18,5.77,10.57,3.35,7.17,2,11.29a27.82,27.82,0,0,1-3.42,6.88s4.28,7.81,7.8,7.24,2.89-11.89,2.89-11.89"/><path class="cls-3" d="M714,237.25a53.83,53.83,0,0,1,8.47-4.22c3.81-1.34,6.23-2.34,9.33-1.88,0,0,5.51-3.8,10.66-1.08a9.35,9.35,0,0,1,4.69-1.79c2.67-.18,5.1,5.62,5.1,5.62l-1.58,7.47s1,6.71,2.25,7.54l-19.46.7-2.94-4.85a5.68,5.68,0,0,1-5.18,4.15,59,59,0,0,1-7.61,0s-5.11-5.45-3.73-11.66"/><path class="cls-3" d="M581.83,71.14c-.06-6.07-6.68-4.85-8-4.52,0-1.37.11-4.72-.55-5.92a44.55,44.55,0,0,1-2.43-6.9,123.23,123.23,0,0,1-13.13,1.92c-7.36.68-13.48-4.92-13.48-4.92a28.22,28.22,0,0,1-3.15,10.33l-.51,5.3c-5.22-1.23-7.83,1.79-7.61,4.71a6.1,6.1,0,0,0,3.66,5.52c1.74.56,4.43-.41,4.43-.41s.41,1.14.58,6.19,4.71,9,4.71,9l-.47,6.78-7.62,6.57,6.59,33.33h25.51l6.75-33-8.39-6.88L568,91.89c5.07-4.06,5.7-10.58,5.77-15.72,3.12,1.71,8.12.79,8.07-5"/><path class="cls-1" d="M729.82,102.81l9.21,9.44a51.92,51.92,0,0,0-.19-7.9,7.89,7.89,0,0,0-6.6-7,70.94,70.94,0,0,0-16.71-.94c-7.17.56-16.73,4.38-17.18,13.83,0,0,2,9.47,2.81,14.4s2.7,12.63.51,15.1-7.09,3.4-9.47,4.21-9.21,9.38-2.83,14.41l6.58-4.1s10.31,4.95,16.49,3.41,9.62-6.48,10.07-8.87.75-8.53-1.35-12.26-5.83-5.89-6-10.22.55-5.9,2.5-7.88a102.72,102.72,0,0,0,6.92-8c2-2.56,5.27-7.56,5.27-7.56"/><path class="cls-1" d="M730.52,140.72l-.47,8.85,5.92,1.11a7.85,7.85,0,0,0,1.58-5.33,9,9,0,0,0-2.13-5.65s-4.53,1.24-4.9,1"/><path class="cls-3" d="M825.07,209.73c-2.64,4.56-2.34,9.67.66,11.4s7.58-.56,10.21-5.12,2.34-9.67-.66-11.41-7.58.56-10.21,5.13"/><path class="cls-3" d="M766,255.52H697.39s-3.06-1.26-2.26-3.52a4.48,4.48,0,0,1,2.59-2.82l55.42.16a11.22,11.22,0,0,1-2.51-8,21.7,21.7,0,0,1,2.25-8.71l20-59.56a12,12,0,0,1,11.22-6.7h89.1l7.38,4.2-91-.33s-9.77,1.33-11.69,8.17l-21.21,61.5a11.4,11.4,0,0,0,1.41,8.27c2.52,4.26,7.84,7.31,7.84,7.31"/><path class="cls-1" d="M714,237.25s12-7.14,18.18-6.1a9.51,9.51,0,0,1,8.9-1.66l-.7-1.22a19.6,19.6,0,0,0-12.5-5.36c-7.42-.15-14.41,6.35-13.88,14.34"/><path class="cls-1" d="M726.41,248.74s3.72-1.52,4.07-4l2.42,4Z"/><path class="cls-3" d="M556.06 116.93L560.11 126.35 558.85 132.03 560.11 138.07 563.92 138.07 561.88 132.03 564.03 127.34 557.53 113.64 556.06 116.93z"/><path d="M365,118.2s-12.72-.07-21,17.54-16.88,37.75-16.88,37.75l-21-23.46s-15.74,6.86-23.17,16.81c0,0,12.23,27.59,26.06,38.37s18.73,11.9,29.24,9.28l-7,40.37h80.27s-4.74-33.33-5.07-39.83-.44-14.27-.44-14.27,6.49,2.91,12.91-3.43,6.54-9.05,5.74-14.5-2.68-13.08-6.92-24.25-7-14.25-7-14.25-4.17,10.06-14.63,8.76-11.86-6.78-12.86-11.26-.69-9.27-3.29-13.9-6.43-4.8-9.15-5.17S365,120.28,365,118.2"/><path class="cls-2" d="M538.81,65.92s-4-22.13,5.05-22.91c0,0,3.91-6.69,13.54-5.73s15.31,4,18.18,12.54A28.55,28.55,0,0,1,576,66l-2.36.33V61.29l-2.32-7.71s-7.72,3.2-14.63,2.1a34.33,34.33,0,0,1-12.44-4.88s-1.48,8.57-3.15,10.33l-.51,5.3Z"/><path class="cls-3" d="M725.82,103.11c-.8,3.71-4.86,10.44-7.53,14.59,1.92-2,4.52-5,6.26-7.33,2-2.56,5.27-7.56,5.27-7.56l9.21,9.45a52.06,52.06,0,0,0-.19-7.91,7.89,7.89,0,0,0-6.6-7,70.9,70.9,0,0,0-16.71-.94c-.85.07-1.72.18-2.61.34.28,0,14.1.84,12.9,6.4"/><path class="cls-3" d="M712.44,157.63c6.18-1.55,9.62-6.48,10.07-8.87s.75-8.53-1.35-12.26a39.43,39.43,0,0,0-3.85-5.05c1.7,3.63,3.89,10,1.91,15.86-3,8.79-12.66,10.17-12.66,10.17l1.08.31a13.62,13.62,0,0,0,4.8-.16"/><path class="cls-3" d="M732.84,140.35c-.07.09,2.72,5.08.63,9.86l2.5.47a7.85,7.85,0,0,0,1.58-5.33,9,9,0,0,0-2.13-5.65s-1.31.36-2.58.65"/><path class="cls-3" d="M573.66,61.29v5.05L576,66a28.55,28.55,0,0,0-.44-16.19c-2.09-6.22-5.68-9.51-11.19-11.22,1.65,1.45,7.47,7,4.89,10.86C566.3,54,548.34,53,548.22,53a32.26,32.26,0,0,0,8.49,2.7c6.91,1.1,14.63-2.1,14.63-2.1Z"/><path class="cls-3" d="M377.2,63.49c-7.11-1.45-13.53.16-15.58,4.93a15.26,15.26,0,0,0,1.44,13.91,16.9,16.9,0,0,0,4.41,3.83c-1.42-2.66-9.48-19.49,12.17-22a19.68,19.68,0,0,0-2.44-.64"/><path class="cls-3" d="M371.77,123c-9-9.31,1.12-22.61,1.12-22.61a7.92,7.92,0,0,1-2.55-.13s-6.65,4.66-6.66,11,2.92,10.43,6,11.27c.62.17,1.36.32,2.15.5l0,0"/><path d="M548.64,75.51c-3.59,0-6.51-3.68-6.51-8.2s2.92-8.19,6.51-8.19,6.51,3.67,6.51,8.19-2.92,8.2-6.51,8.2m0-15.34c-3,0-5.46,3.2-5.46,7.14s2.45,7.15,5.46,7.15,5.46-3.21,5.46-7.15-2.45-7.14-5.46-7.14"/><path d="M604.85,211.85H573.4a.53.53,0,1,1,0-1h31.45a7,7,0,0,0,7-7V145.59a7,7,0,0,0-7-7H510.66a7,7,0,0,0-7,7v49.27a.52.52,0,0,1-.52.52.52.52,0,0,1-.53-.52V145.59a8.06,8.06,0,0,1,8.05-8.05h94.19a8.07,8.07,0,0,1,8.06,8.05V203.8a8.06,8.06,0,0,1-8.06,8"/><path d="M557.89,183.41a8.24,8.24,0,1,1,8.23-8.23,8.24,8.24,0,0,1-8.23,8.23m0-15.42a7.19,7.19,0,1,0,7.18,7.19,7.2,7.2,0,0,0-7.18-7.19"/><path d="M619.78,131.82a.52.52,0,0,1-.47-.29c-3.16-6.43-5.95-10.64-8.54-12.87-11.48-9.87-22.19-11.54-31.63-13l-2.45-.39a.51.51,0,0,1-.43-.6.53.53,0,0,1,.6-.44l2.44.39c9.59,1.49,20.45,3.18,32.15,13.25,2.71,2.33,5.59,6.64,8.8,13.2a.53.53,0,0,1-.24.71.64.64,0,0,1-.23,0"/><path d="M520,233.72c-30.2,0-48.6-6.23-56.18-19-7.95-13.39-3.72-33.4,13.31-63,9.6-16.67,22-30,26.48-33.9,11.7-10.07,22.57-11.76,32.15-13.25l2.44-.39a.54.54,0,0,1,.61.44.52.52,0,0,1-.44.6l-2.45.39c-9.44,1.47-20.15,3.14-31.63,13-4.44,3.82-16.71,17.07-26.25,33.63-16.82,29.2-21.05,48.87-13.31,61.9s28.2,19.2,60.8,18.41c4.44-.1,17.81,0,17.94,0a.53.53,0,0,1,0,1.05c-.14,0-13.48-.11-17.9,0-1.9,0-3.75.07-5.56.07"/><path d="M544.88,138.6a.53.53,0,0,1-.52-.43l-6.59-33.33a.53.53,0,0,1,.17-.49l7.62-6.82a.46.46,0,0,1,.41-.13.53.53,0,0,1,.36.2l11.27,15,10.68-15a.52.52,0,0,1,.37-.22.47.47,0,0,1,.4.12l8.07,6.82a.53.53,0,0,1,.17.5l-6.39,33.33a.51.51,0,0,1-.61.42.53.53,0,0,1-.42-.62l6.33-33-7.39-6.26L558,113.77a.51.51,0,0,1-.42.22.53.53,0,0,1-.43-.21L545.84,98.69l-7,6.24,6.53,33a.53.53,0,0,1-.41.62h-.1"/><path d="M546.12,138.6a.59.59,0,0,1-.22,0,.52.52,0,0,1-.25-.7l11.49-24.61a.52.52,0,0,1,.47-.3.53.53,0,0,1,.48.3l11.4,24.61a.53.53,0,0,1-.25.7.54.54,0,0,1-.7-.26l-10.93-23.58-11,23.58a.54.54,0,0,1-.48.31"/><path d="M554,132.55a.51.51,0,0,1-.48-.32l-2.37-5.68a.53.53,0,1,1,1-.41l2.23,5.36h7.21l1.91-4.63a.53.53,0,0,1,1,.41l-2,4.94a.54.54,0,0,1-.49.33Z"/><path d="M552.51,138.6c-.41-.09-.58-.37-.52-.65l1.46-6a.53.53,0,0,1,1,.25l-1.46,6a.53.53,0,0,1-.51.41"/><path d="M563.69,138.6a.52.52,0,0,1-.5-.38l-1.82-6.06a.52.52,0,0,1,1-.3l1.83,6.06a.52.52,0,0,1-.36.65l-.15,0"/><path d="M566.38,75.51c-3.59,0-6.51-3.68-6.51-8.2s2.92-8.19,6.51-8.19,6.52,3.67,6.52,8.19-2.93,8.2-6.52,8.2m0-15.34c-3,0-5.46,3.2-5.46,7.14s2.45,7.15,5.46,7.15,5.46-3.21,5.46-7.15-2.45-7.14-5.46-7.14"/><path d="M560.18,67.83a.5.5,0,0,1-.36-.14,3.58,3.58,0,0,0-2.72-1.23,3,3,0,0,0-1.94,1,.52.52,0,0,1-.73.08.52.52,0,0,1-.09-.73A4,4,0,0,1,557,65.41a4.66,4.66,0,0,1,3.53,1.52.52.52,0,0,1,0,.74.51.51,0,0,1-.38.16"/><path d="M576.36,77.49a5.91,5.91,0,0,1-2.77-.68.52.52,0,0,1-.22-.71.53.53,0,0,1,.71-.22,4.95,4.95,0,0,0,6-1.12,5,5,0,0,0-.44-7,4.94,4.94,0,0,0-5.22-.84.55.55,0,0,1-.69-.28A.53.53,0,0,1,574,66a6,6,0,0,1,6.32,1,6,6,0,0,1-3.59,10.51h-.38"/><path d="M577.56,74.79a.56.56,0,0,1-.32-.11l-3.69-2.86a.5.5,0,0,1-.21-.42.53.53,0,0,1,.21-.42l4.09-3a.54.54,0,0,1,.74.11.52.52,0,0,1-.12.73l-3.52,2.61,3.14,2.43a.52.52,0,0,1,.1.74.53.53,0,0,1-.42.21"/><path d="M538.47,77.49h-.38a6,6,0,0,1,.75-12,6.1,6.1,0,0,1,2,.47.53.53,0,0,1-.41,1,5.11,5.11,0,0,0-1.63-.39,5,5,0,0,0-.62,9.9,5,5,0,0,0,2.59-.55.53.53,0,0,1,.71.22.52.52,0,0,1-.22.71,6,6,0,0,1-2.77.68"/><path d="M537.26,74.79a.51.51,0,0,1-.41-.21.53.53,0,0,1,.09-.74l3.15-2.43-3.53-2.61a.52.52,0,0,1-.11-.73.52.52,0,0,1,.74-.11l4.09,3a.53.53,0,0,1,.21.42.52.52,0,0,1-.2.42l-3.7,2.86a.57.57,0,0,1-.33.11"/><path d="M545.91,99a.52.52,0,0,1-.52-.53V91.65a.52.52,0,0,1,.52-.52.52.52,0,0,1,.53.52v6.84a.53.53,0,0,1-.53.53"/><path d="M568.75,98.45a.52.52,0,0,1-.52-.5l-.37-6.16a.53.53,0,0,1,.49-.56.54.54,0,0,1,.56.5l.36,6.16a.53.53,0,0,1-.49.56Z"/><path d="M576,66.53c-.42-.08-.58-.37-.52-.65,2.73-10.85-.86-17.4-2.4-20.2-3.67-6.69-13.19-8.86-20.68-7.54a13.62,13.62,0,0,0-8.13,5.16.52.52,0,0,1-.32.22,6,6,0,0,0-2.53,1.24C538.61,47,538.71,51,538.72,51c0,4.56.61,14.86.62,15a.52.52,0,0,1-.49.56.5.5,0,0,1-.56-.49c0-.1-.67-10.45-.63-15,0-.16-.13-4.5,3.13-7.08a7,7,0,0,1,2.76-1.4,14.36,14.36,0,0,1,8.69-5.43c7.87-1.39,17.87.94,21.79,8.07,2.47,4.52,5,11,2.5,21a.52.52,0,0,1-.51.39"/><path d="M604.31,255.32a.53.53,0,0,1-.53-.52c0-.32,0-31.88-.86-43.09a.54.54,0,0,1,.48-.57.58.58,0,0,1,.57.49c.85,11.25.87,42.85.87,43.17a.53.53,0,0,1-.53.52"/><path d="M508.42,255.32a.51.51,0,0,1-.52-.53l.29-21.57a.52.52,0,0,1,.53-.51.51.51,0,0,1,.52.53L509,254.8a.53.53,0,0,1-.53.52"/><path d="M696.48,255.32H106a.53.53,0,1,1,0-1H696.48a.53.53,0,0,1,0,1"/><path d="M558.23,247.3a.52.52,0,0,1-.52-.52v-23a.52.52,0,0,1,.52-.53.53.53,0,0,1,.53.53v23a.52.52,0,0,1-.53.52"/><path d="M573.4,211.85l-1.72-.14c-7.89-.62-15.43-1.6-17.16-4.51a2.58,2.58,0,0,1-.08-2.46c1.88-4.18,2.89-13.83.59-17.83a3.17,3.17,0,0,0-2.42-1.77,2.68,2.68,0,0,0-2.21.63c-1.72,1.56-1.68,5.72-1.66,8.21,0,.42,0,.81,0,1.15-.06,5-8.72,8.64-9.09,8.79a.52.52,0,0,1-.4-1c.08,0,8.39-3.56,8.44-7.84,0-.33,0-.71,0-1.12,0-2.84-.06-7.12,2-9a3.73,3.73,0,0,1,3-.89,4.17,4.17,0,0,1,3.22,2.28c2.53,4.41,1.42,14.44-.54,18.79a1.53,1.53,0,0,0,0,1.5c1.68,2.84,12,3.65,16.33,4l1.69.14a.53.53,0,0,1,.47.58.51.51,0,0,1-.52.47"/><path d="M562.79,218a62.37,62.37,0,0,1-9.41-.78.54.54,0,0,1-.44-.6.51.51,0,0,1,.6-.44c20.7,3.15,25.13-4.63,25.17-4.71a.53.53,0,0,1,.94.49c-.15.29-3.32,6-16.86,6"/><path d="M557.92,224c-1.58,0-3.19-.05-4.85-.11l-3.38-.11a40.45,40.45,0,0,1-4.53-.35l-.68-.09a13,13,0,0,1-3.69-.8,6,6,0,0,1-2.84-3,.53.53,0,0,1,.94-.49,4.86,4.86,0,0,0,2.32,2.49,12.43,12.43,0,0,0,3.4.72l.69.09a40.91,40.91,0,0,0,4.41.34l3.4.11c6,.21,10.82.38,17.23-1.86,3.31-1.16,6.42-5.4,6.42-7.29a.52.52,0,0,1,.52-.53.53.53,0,0,1,.53.53c0,2.47-3.52,7-7.13,8.28a36.46,36.46,0,0,1-12.76,2"/><path d="M632.42,204.17a17.71,17.71,0,0,1-4.59-.57A43.53,43.53,0,0,1,612,196.25a.53.53,0,0,1-.11-.74.54.54,0,0,1,.74-.1,42.77,42.77,0,0,0,15.49,7.17c6.29,1.67,14.81-.78,20.24-5.82,6.56-6.08,6.85-16.3,7.11-25.32.06-2.09.11-4.07.24-5.95.86-12.35-1.11-42.57-1.13-42.87a.53.53,0,0,1,.49-.56.54.54,0,0,1,.56.49c0,.3,2,30.6,1.13,43-.13,1.86-.18,3.83-.24,5.91-.27,9.22-.56,19.68-7.44,26.06a25.35,25.35,0,0,1-16.64,6.64"/><path d="M621,187.88a.54.54,0,0,1-.51-.37c-3.36-10.7-.8-63.14-.69-65.37a.51.51,0,0,1,.55-.5.53.53,0,0,1,.5.55c0,.55-2.66,54.48.65,65a.53.53,0,0,1-.35.66.4.4,0,0,1-.15,0"/><path d="M637.69,127.29c-8.9,0-17.92-1.62-17.92-4.71,0-1.81,1.94-3.06,5.91-3.81a.53.53,0,1,1,.19,1c-2.3.43-5,1.26-5,2.77s6.41,3.66,16.86,3.66,16.87-2.13,16.87-3.66c0-1.11-1.82-2.15-4.86-2.77a.53.53,0,0,1-.41-.62.49.49,0,0,1,.62-.41c4.71,1,5.71,2.6,5.71,3.8,0,3.09-9,4.71-17.93,4.71"/><path d="M626.36,126.28a.53.53,0,0,1-.52-.45,18.64,18.64,0,0,1-.14-2c-.19-3.84-.51-10.27-6.76-15.7-4.45-3.88-6.45-6.78-6.31-9.13a4.69,4.69,0,0,1,2.43-3.55c3.69-2.49,6.37.57,8.72,3.28,1.72,2,3.49,4,5.63,4.17,5.77.41,7.75,6,7.83,6.29a.52.52,0,0,1-.33.66.52.52,0,0,1-.67-.32c-.07-.22-1.84-5.22-6.91-5.58-2.57-.18-4.49-2.39-6.35-4.53-2.36-2.72-4.4-5.06-7.34-3.1a3.71,3.71,0,0,0-2,2.74c-.12,2,1.83,4.68,6,8.27,6.59,5.73,6.93,12.7,7.12,16.45,0,.74.07,1.37.13,1.85a.52.52,0,0,1-.45.6h-.07"/><path d="M627.23,102.93a.53.53,0,0,1-.53-.49,70.52,70.52,0,0,1,.14-10.31c.12-1.84.26-3.93.33-6.36a8.49,8.49,0,0,1,1.22-4.66,5,5,0,0,1,4.66-1.94,3.73,3.73,0,0,1,3,2.21A5.52,5.52,0,0,1,636.3,83a138.14,138.14,0,0,1-.55,19.26.53.53,0,0,1-.59.46.54.54,0,0,1-.46-.59,137.27,137.27,0,0,0,.55-19.1,4.82,4.82,0,0,0-.18-1.31,2.66,2.66,0,0,0-2.17-1.53,4,4,0,0,0-3.67,1.53,7.56,7.56,0,0,0-1,4.06c-.08,2.45-.22,4.55-.34,6.4a69,69,0,0,0-.14,10.17.52.52,0,0,1-.48.56Z"/><path d="M642.59,102.63a.53.53,0,0,1-.52-.59,108.4,108.4,0,0,0,.49-19.3,3.44,3.44,0,0,0-.37-1.63,3,3,0,0,0-2.26-1.06,3.76,3.76,0,0,0-3.73,2.39.54.54,0,0,1-.7.27.53.53,0,0,1-.26-.7A4.94,4.94,0,0,1,640,79a4,4,0,0,1,3.1,1.53,4.25,4.25,0,0,1,.53,2.14,107.7,107.7,0,0,1-.49,19.49.53.53,0,0,1-.52.47"/><path d="M649,126a.53.53,0,0,1-.52-.59,64.28,64.28,0,0,0,.13-15.07,25,25,0,0,1-.16-4.72c.67-5.1,1.9-14.41,1.16-20.55a4.67,4.67,0,0,0-.91-2.65,2.84,2.84,0,0,0-2.36-.76,3.48,3.48,0,0,0-2.62,1.24.53.53,0,0,1-.74.1.53.53,0,0,1-.1-.74,4.55,4.55,0,0,1,3.34-1.64,3.84,3.84,0,0,1,3.25,1.08A5.51,5.51,0,0,1,650.65,85c.76,6.26-.48,15.66-1.14,20.71a22.68,22.68,0,0,0,.15,4.59,65.12,65.12,0,0,1-.13,15.3.54.54,0,0,1-.53.45"/><path d="M543.4,233.65c-3.15,0-5.27-8.56-5.67-16.69s.89-17,4.1-17.18a6.65,6.65,0,0,1,1.87.65.53.53,0,0,1-.47.94,8.32,8.32,0,0,0-1.38-.54c-1.59.08-3.55,6.24-3.07,16.08s3,15.79,4.66,15.69c.42,0,2.55-.58,2.95-9.6a.53.53,0,0,1,1.05.05c-.38,8.62-2.36,10.52-4,10.6h-.09"/><path d="M541.3,200.83l-5.52-.53c-7.39-.7-15-1.43-22.52-2.83a218.17,218.17,0,0,1-28.6-7.57.52.52,0,0,1-.34-.66.56.56,0,0,1,.67-.34,216.56,216.56,0,0,0,28.46,7.54c7.44,1.39,15.06,2.11,22.43,2.81l5.48.53a.54.54,0,0,1,.47.58.53.53,0,0,1-.53.47"/><path d="M331.29,216.16c-18.79,0-38.23-24.88-48.79-49.11a.51.51,0,0,1,.07-.53A49.17,49.17,0,0,1,292.91,157c8.34-5.67,12.86-7.37,13-7.44a.55.55,0,0,1,.56.12c.24.25,24.4,24.53,31.84,39.43a.53.53,0,1,1-.94.48c-7-14-28.84-36.32-31.4-38.92a76.37,76.37,0,0,0-12.52,7.2,49,49,0,0,0-9.91,9.07c11,25,31.34,50.58,50.38,48,20.2-2.77,28.75-28.92,37.83-62.83a.53.53,0,0,1,.65-.37.52.52,0,0,1,.37.64c-9.18,34.29-17.87,60.74-38.71,63.6a20.55,20.55,0,0,1-2.82.19"/><path d="M327.15,174a.59.59,0,0,1-.22-.05.52.52,0,0,1-.26-.69c2.28-5.05,4.37-10,6.4-14.86,9.26-22,16.58-39.44,31.33-40.74a.52.52,0,1,1,.09,1c-14.12,1.25-21.33,18.4-30.45,40.11-2,4.83-4.13,9.82-6.41,14.88a.54.54,0,0,1-.48.31"/><path d="M372.38,100.82a6.28,6.28,0,0,1-2.2-.4,6.35,6.35,0,0,1-2.95-2.31.54.54,0,0,1,.14-.74.53.53,0,0,1,.73.14,5.21,5.21,0,0,0,9.16-1.11,5.21,5.21,0,0,0-8-6,.52.52,0,1,1-.64-.83,6.26,6.26,0,0,1,9.66,7.18,6.29,6.29,0,0,1-5.87,4"/><path d="M372.82,98a.55.55,0,0,1-.43-.22L369.61,94a.53.53,0,0,1,.28-.82l4.74-1.37a.53.53,0,0,1,.65.36.52.52,0,0,1-.36.65l-4,1.17,2.34,3.21a.53.53,0,0,1-.11.74.57.57,0,0,1-.31.1"/><path d="M363.68,109.37c-3.13-.29-5.32-1.44-6.56-3.41-2.31-3.67-.44-8.82-.36-9L361,79.71a.53.53,0,1,1,1,.25l-4.23,17.27c0,.1-1.78,5,.25,8.18,1.06,1.67,3,2.65,5.72,2.91a.51.51,0,0,1,.47.57.52.52,0,0,1-.52.48"/><path d="M356.6,94.63a2.55,2.55,0,0,1-.61-.08,2.28,2.28,0,0,1-1.58-2.8L357,82.44a2.26,2.26,0,0,1,2.8-1.57,2,2,0,0,1,1.25.88,1.93,1.93,0,0,1,.1,1.53.53.53,0,0,1-.65.36.52.52,0,0,1-.36-.65c.18-.64,0-.93-.63-1.11a1.18,1.18,0,0,0-.92.11,1.21,1.21,0,0,0-.58.73L355.43,92a1.22,1.22,0,0,0,.84,1.5,1.22,1.22,0,0,0,1.5-.84.53.53,0,0,1,.65-.36.51.51,0,0,1,.36.64,2.26,2.26,0,0,1-2.18,1.66"/><path d="M331.24,255.39c-.45-.12-.59-.42-.5-.7,1-2.93,6.41-34.21,7-39.72a.52.52,0,0,1,.58-.46.53.53,0,0,1,.47.58c-.65,5.87-6,36.89-7.06,39.94a.53.53,0,0,1-.5.36"/><path d="M409.38,202a8.06,8.06,0,0,1-3.63-.75.52.52,0,0,1-.21-.71.53.53,0,0,1,.71-.21c.27.14,6.75,3.38,15.45-6.44,8.06-9.1-5.18-37.79-11.24-49.7a.51.51,0,0,1,.23-.7.53.53,0,0,1,.71.23c7.65,15,19.27,41.63,11.08,50.87-5.4,6.1-10.08,7.41-13.1,7.41"/><path d="M411.51,255.39A.53.53,0,0,1,411,255c-.07-.39-7.14-39.5-5.12-59.22,2-19.15,2.58-35.67,1.81-47.78a.52.52,0,0,1,.49-.56.53.53,0,0,1,.56.49c.78,12.17.15,28.75-1.82,48-2,19.57,5,58.53,5.11,58.92a.52.52,0,0,1-.42.62h-.09"/><path d="M353.61,123.28a.57.57,0,0,1-.22,0,32.13,32.13,0,0,0-3.87-1.15c-5.17-1.35-7.39-4-9.53-6.53l-.72-.84a25,25,0,0,0-1.86-1.85c-1.59-1.48-3.1-2.88-3.08-4.55a3.38,3.38,0,0,1,1.34-2.51,2.93,2.93,0,0,1,2.22-.77c2.45.14,5.09,2.83,6.11,4a24.45,24.45,0,0,0,2.4,2.41,57.33,57.33,0,0,0-4-4.26L341.29,106a59.92,59.92,0,0,0-5.66-4.56A36.27,36.27,0,0,1,331.34,98a3.13,3.13,0,0,1,.08-3.64,3.48,3.48,0,0,1,3.74-1.8c2.59.62,5.84,3.45,7.59,5l.66.57a4.75,4.75,0,0,1,2.6-1.39c3.1-.53,4.8.26,5.48.72a4.19,4.19,0,0,1,2.92-.6,14.84,14.84,0,0,1,2.53.76.53.53,0,0,1,.27.7.53.53,0,0,1-.69.27,13.06,13.06,0,0,0-2.3-.69,3.43,3.43,0,0,0-2.42.62.52.52,0,0,1-.7-.05s-1.4-1.31-4.91-.69a3.62,3.62,0,0,0-2,1.06c-.27.25-.69.64-1.16.33-.16-.11-.5-.41-1-.82-1.56-1.35-4.81-4.18-7.15-4.74a2.47,2.47,0,0,0-2.59,1.32,2.22,2.22,0,0,0-.19,2.41,39.63,39.63,0,0,0,4.13,3.31A58.79,58.79,0,0,1,342,105.3l1.12,1.13c2.92,2.92,4.69,4.77,4.81,5.75a.72.72,0,0,1-.39.84c-.25.11-1,.47-4.37-3.3-1.94-2.19-3.95-3.55-5.38-3.63a1.79,1.79,0,0,0-1.46.5,2.46,2.46,0,0,0-1,1.74c0,1.2,1.33,2.45,2.75,3.77a27.2,27.2,0,0,1,1.94,1.93l.72.86c2.13,2.53,4.15,4.92,9,6.18a33.35,33.35,0,0,1,4.05,1.21.53.53,0,0,1,.26.7.51.51,0,0,1-.48.3"/><path d="M350.23,105.77a.52.52,0,0,1-.44-.23c-1.64-2.46-6.73-6.36-6.79-6.4a.54.54,0,0,1-.09-.74.52.52,0,0,1,.73-.1c.22.16,5.29,4,7,6.66a.51.51,0,0,1-.43.81"/><path d="M356.4,102.88a.52.52,0,0,1-.38-.17,41,41,0,0,0-4.86-4.19.54.54,0,0,1-.11-.74.52.52,0,0,1,.73-.11,41.28,41.28,0,0,1,5,4.32.52.52,0,0,1,0,.74.51.51,0,0,1-.36.15"/><path d="M396.88,153.76a16.84,16.84,0,0,1-5.07-.76,11.88,11.88,0,0,1-7.73-6.48,35.45,35.45,0,0,1-2-8.56c-.1-.64-.19-1.28-.3-1.92-.76-4.7-2-9.29-5.76-11.12a16.57,16.57,0,0,0-3.63-1.13c-2-.46-4.05-.93-5.77-2.6a12.32,12.32,0,0,1-3.43-9.49,13.88,13.88,0,0,1,7.3-11.89.54.54,0,0,1,.7.26.53.53,0,0,1-.26.7,12.58,12.58,0,0,0-6.69,11,11.44,11.44,0,0,0,3.11,8.7c1.51,1.47,3.34,1.89,5.27,2.33a18.49,18.49,0,0,1,3.86,1.21c4.2,2,5.53,6.93,6.34,11.9l.3,1.93a34.58,34.58,0,0,0,2,8.31,10.84,10.84,0,0,0,7.07,5.89c4.14,1.28,8.88.81,12.07-1.22a18.35,18.35,0,0,0,5.55-5.88c4.31-6.9,5.06-13.72,2.58-23.54-2.9-11.5-7.45-16-12.26-20.65-1.08-1.06-2.2-2.15-3.32-3.33A3.93,3.93,0,0,1,395.49,95a7.43,7.43,0,0,1,1.21-3.59c.11-.2.22-.4.31-.59l.42-.81a32.89,32.89,0,0,0,1.49-3.18,16.61,16.61,0,0,0,1-8.9c-1.11-6.17-12.46-8.71-12.57-8.73a.55.55,0,0,1-.24-.12c-5.41-4.8-14.9-7.63-21.43-4-6.27,3.45-4.61,11-4.59,11,0,.45,0,7.88,11.59,12.26a.53.53,0,0,1-.37,1c-12.29-4.66-12.27-12.79-12.26-13.14,0,0-1.81-8.23,5.13-12.05s16.82-.91,22.53,4.08c1.4.33,12.06,3,13.24,9.55a17.6,17.6,0,0,1-1.09,9.46,31.66,31.66,0,0,1-1.54,3.28l-.41.81-.32.61a6.81,6.81,0,0,0-1.09,3,3,3,0,0,0,1,1.7c1.1,1.17,2.21,2.26,3.28,3.31,4.93,4.81,9.58,9.35,12.56,21.14,2.55,10.13,1.77,17.19-2.72,24.36a19.46,19.46,0,0,1-5.87,6.21,14.84,14.84,0,0,1-7.88,2.09"/><path d="M314.59,209.6c-.47-.15-.6-.46-.49-.72,2.7-6.55,9.29-10.61,17.21-10.61,7.63,0,14.16,3.94,17.05,10.29a.52.52,0,1,1-.95.44c-2.72-6-8.89-9.68-16.1-9.68-7.48,0-13.7,3.81-16.23,10a.53.53,0,0,1-.49.32"/><path d="M216.05,87a.53.53,0,0,1-.53-.53V56.58a13.17,13.17,0,0,1,13.15-13.15H362a.53.53,0,1,1,0,1.06H228.67a12.1,12.1,0,0,0-12.09,12.09V86.42a.53.53,0,0,1-.53.53"/><path d="M404.72,193.72a.53.53,0,1,1,0-1.05,12.12,12.12,0,0,0,12.1-12.1V100.71a.52.52,0,0,1,.52-.53.53.53,0,0,1,.53.53v79.86a13.17,13.17,0,0,1-13.15,13.15"/><path d="M556.86,95c-16.42,0-16.42-10.67-16.42-28.37V61.31a.55.55,0,0,1,.16-.38c.79-.76,2.46-6.24,3.38-9.72a11.28,11.28,0,0,1-2.07-2.43.52.52,0,0,1,.2-.71.54.54,0,0,1,.72.2c0,.09,5.54,9.47,22.19,6.25,1.26-.24,6-1.29,6-1.29a.53.53,0,0,1,.62.37,74.11,74.11,0,0,0,2.4,7.47.54.54,0,0,1,.05.22l.25,6c0,16.71,0,27.73-17.5,27.73M541.49,61.51v5.16c0,17.62,0,27.32,15.37,27.32,16.44,0,16.44-9.47,16.44-26.66l-.23-5.89a66.13,66.13,0,0,1-2.29-7.08c-1.25.28-4.54,1-5.56,1.19-10.72,2.08-17.06-.93-20.36-3.57-.64,2.36-2.25,8.07-3.37,9.53"/><path d="M554.55,78.73a.69.69,0,0,1-.24,0c-.14-.08-3.53-1.8-3.07-4.48.29-1.7,2-1.66,3.19-1.64s1.52,0,1.56-.33c.26-1.68.19-11.43.19-11.53a.55.55,0,0,1,.52-.53.52.52,0,0,1,.53.52c0,.41.07,9.94-.2,11.7-.19,1.27-1.54,1.25-2.62,1.22-1.34,0-2,0-2.13.76-.33,1.91,2.48,3.35,2.51,3.37a.51.51,0,0,1,.23.7.53.53,0,0,1-.47.29"/><path d="M558.35,84.45a5.77,5.77,0,0,1-1.8-.31.52.52,0,0,1-.34-.66.53.53,0,0,1,.67-.34,3.32,3.32,0,0,0,2.86-.11,3.92,3.92,0,0,0,1.52-2.51.49.49,0,0,1,.6-.44.52.52,0,0,1,.44.59,4.91,4.91,0,0,1-2,3.25,3.59,3.59,0,0,1-1.95.53"/><path d="M689.07,158.73a.48.48,0,0,1-.26-.07c-1.92-1.11-2.73-3.63-2.3-7.09s1.81-5.95,4.1-7.42a10,10,0,0,1,1.67-.85,22.48,22.48,0,0,1,3.09-1c2-.53,3.9-1,5.35-2.36a5.68,5.68,0,0,0,1.45-5,242.48,242.48,0,0,0-4.34-24.64,12.88,12.88,0,0,1,5.95-10.52c7.72-5.19,18-4.58,27-3.31,2.88.41,5.78,1.26,7.52,4.69,1.86,3.67,1.61,8.11,1.27,11.13a.5.5,0,0,1-.58.46.54.54,0,0,1-.46-.59c.32-2.88.56-7.11-1.17-10.53-1.44-2.83-3.73-3.69-6.72-4.12-8.82-1.25-18.84-1.84-26.25,3.15a11.76,11.76,0,0,0-5.49,9.46c.22.91,2.28,9.45,4.34,24.68a6.71,6.71,0,0,1-1.79,5.93c-1.64,1.52-3.75,2.07-5.79,2.6a25.74,25.74,0,0,0-3,.91,9.1,9.1,0,0,0-1.5.77c-2,1.29-3.23,3.53-3.62,6.66-.22,1.75-.28,4.85,1.78,6.05a.53.53,0,0,1-.27,1"/><path d="M671,240.81a.52.52,0,0,1-.35-.92c17.09-14.93,55.23-17.38,55.62-17.4a.53.53,0,0,1,.06,1c-.38,0-38.17,2.44-55,17.14a.53.53,0,0,1-.34.13"/><path d="M659.22,255.32a.52.52,0,0,1-.47-.29,43.71,43.71,0,0,1-3.59-10.62c-.3-1.48-.54-3-.7-4.45-2.15-18.53,5.43-37.8,11.31-50.68,8-17.55,17.8-29.17,29.94-35.53a.53.53,0,0,1,.49.93c-11.92,6.25-21.56,17.71-29.47,35-5.83,12.77-13.34,31.86-11.23,50.13.17,1.44.4,2.91.69,4.36a42.86,42.86,0,0,0,3.5,10.36.53.53,0,0,1-.24.71.64.64,0,0,1-.23,0"/><path d="M768.48,186.12a.51.51,0,0,1-.48-.32c-.19-.46-1.31-3.12-1.51-3.57-8-18.56-18.25-28.52-32.15-31.35-1.09-.22-4.38-.79-4.38-.79l.18-1s3.31.58,4.4.8c14.08,2.86,24.85,13.32,32.92,32,.2.46,1.32,3.12,1.51,3.58a.53.53,0,0,1-.28.69.78.78,0,0,1-.21,0"/><path d="M730.85,141.12c-.48,0-1,0-1.54-.07-1.76-.15-4.35-.47-6.15-.83a.52.52,0,0,1-.41-.62.51.51,0,0,1,.61-.41c1.77.35,4.31.66,6,.81a10.89,10.89,0,0,0,4.24-.31,6.08,6.08,0,0,0,3.91-4.34c1.28-3.88,1.21-8.1,1.14-12.18v-.53c0-2.21-.1-4.42-.17-6.64l-.08-2.35,0-1a.52.52,0,0,1,.35-.65.53.53,0,0,1,.66.35,1.55,1.55,0,0,1,0,.28l.11,3.32c.07,2.22.14,4.44.17,6.66v.52c.07,4.17.14,8.48-1.19,12.53-.87,2.67-2.38,4.31-4.59,5a10.21,10.21,0,0,1-3.11.43"/><path d="M709.84,158.24A33.92,33.92,0,0,1,696.3,155l-.57-.25a.53.53,0,0,1-.25-.7.52.52,0,0,1,.69-.26l.56.25c6.13,2.71,11.62,3.7,16.21,2.95a10.94,10.94,0,0,0,8.49-6.79,15.2,15.2,0,0,0-1.35-14.27c-.49-.72-1-1.43-1.55-2.13-2.5-3.32-5.09-6.76-3.58-11.52.66-2.1,2.22-3.76,3.72-5.37.34-.36.68-.72,1-1.08,2.21-2.48,4.11-4.81,5.8-7.13l.25-.33c3-3.95,3.55-5,3.61-5.35a.53.53,0,0,1,.93-.47c.09.14,2.24,3,9,9.65a.52.52,0,0,1,0,.74.53.53,0,0,1-.75,0,117.43,117.43,0,0,1-8.49-9,39.5,39.5,0,0,1-3.49,5l-.24.32c-1.71,2.33-3.63,4.69-5.86,7.2-.32.36-.66.73-1,1.1-1.42,1.52-2.9,3.1-3.48,5-1.35,4.24,1,7.31,3.41,10.57.53.71,1.08,1.43,1.58,2.16a16.27,16.27,0,0,1,1.45,15.28,12,12,0,0,1-9.29,7.42,20.43,20.43,0,0,1-3.27.26"/><path d="M725.69,118.41c.42-.07.7.11.82,1.62.14,1.69-.3,2-.68,2s-.75-.53-.74-1.74,0-1.77.6-1.85"/><path d="M737.36,117.72c.42-.08.7.09.88,1.6.19,1.68-.24,2-.62,2s-.77-.51-.8-1.71,0-1.77.54-1.88"/><path d="M738.9,114.68a.54.54,0,0,1-.34-.12c-.56-.48-1.36-.91-3.08-.46a.52.52,0,1,1-.27-1c2.24-.6,3.38.1,4,.67a.52.52,0,0,1,.06.74.53.53,0,0,1-.4.18"/><path d="M727.49,162c-2.92,0-7.68-5.81-8.68-7.06a.52.52,0,0,1,.09-.73.53.53,0,0,1,.74.08c2.46,3.1,6.61,7.21,8.14,6.61,1.77-.69,2-7.3,1.75-11.31l.46-8.91a.53.53,0,1,1,1,.06l-.47,8.85c.13,1.8.6,11.13-2.41,12.29a1.89,1.89,0,0,1-.67.12"/><path d="M736.12,150.74a.54.54,0,0,1-.3-.1.52.52,0,0,1-.13-.73c3.49-4.93-1.12-9.79-1.16-9.84a.52.52,0,0,1,.75-.73c.06,0,5.26,5.55,1.27,11.17a.54.54,0,0,1-.43.23"/><path d="M692.33,229.85a.53.53,0,0,1-.52-.47c-1.82-18.45,8.43-49,8.53-49.28a.52.52,0,1,1,1,.33c-.1.31-10.27,30.62-8.47,48.85a.51.51,0,0,1-.47.57h-.06"/><path d="M730.42,132.65a3.69,3.69,0,0,1-2.16-.64,5,5,0,0,1-1.83-3.34.52.52,0,0,1,.47-.57.53.53,0,0,1,.58.47,3.94,3.94,0,0,0,1.39,2.58,3.33,3.33,0,0,0,2.86.26.5.5,0,0,1,.64.36.52.52,0,0,1-.36.65,6.23,6.23,0,0,1-1.59.23"/><path d="M826.35,220a4.85,4.85,0,0,1-2.48-.64,6,6,0,0,1-2.71-5.06,13.86,13.86,0,0,1,7-12.19,5.94,5.94,0,0,1,5.74-.19c3.25,1.88,3.64,7.32.86,12.13-2.13,3.69-5.52,5.95-8.45,5.95m5.08-17.68a6.26,6.26,0,0,0-2.76.73,12.78,12.78,0,0,0-6.46,11.19,4.94,4.94,0,0,0,2.19,4.21c2.74,1.59,7-.62,9.49-4.93s2.27-9.1-.48-10.69a3.92,3.92,0,0,0-2-.51"/><path d="M763.87,255.3a13.74,13.74,0,0,1-13-18.07l20.52-61.93a13.72,13.72,0,0,1,13-9.42H870.9a14.11,14.11,0,0,1,3.05.33c.14,0,8.67,4.71,8.67,4.71a.53.53,0,0,1-.5.93l-8.47-4.63a13.23,13.23,0,0,0-2.75-.29H784.39a12.7,12.7,0,0,0-12.06,8.71l-20.52,61.92a12.69,12.69,0,0,0,12.06,16.69.53.53,0,0,1,.53.53.52.52,0,0,1-.53.52"/><path d="M856.27,256.05H769.75a13.86,13.86,0,0,1-13-18.08l20.52-59.26a13.69,13.69,0,0,1,13-9h86.52a13.93,13.93,0,0,1,11.36,5.75A12.63,12.63,0,0,1,889.84,187l-20.52,59.26c-2,5.66-7.45,9.77-13.05,9.77m-66-85.31a12.64,12.64,0,0,0-12.06,8.32L757.7,238.32a12.81,12.81,0,0,0,12,16.68h86.52c5.17,0,10.24-3.81,12.06-9.07l20.51-59.25a11.58,11.58,0,0,0-1.55-10.63,12.89,12.89,0,0,0-10.5-5.31Z"/><path d="M742.36,249.43a.54.54,0,0,1-.52-.62c.33-1.69-1.09-4.43-2.13-6.44-.29-.56-.56-1.09-.78-1.55s-.47-1.1-.72-1.75c-1.4-3.61-3.32-8.57-10.19-7.38,0,0-8.67,2.45-13.76,6a.53.53,0,0,1-.73-.13.52.52,0,0,1,.13-.73c5.23-3.65,13.77-6.06,14.13-6.16,7.81-1.34,10,4.3,11.4,8,.24.62.46,1.2.69,1.68s.48,1,.76,1.52c1.17,2.26,2.63,5.07,2.23,7.12a.51.51,0,0,1-.51.42"/><path d="M733.16,249.44a.53.53,0,0,1-.37-.15,13.68,13.68,0,0,1-3.57-7.67.52.52,0,0,1,.53-.52.53.53,0,0,1,.53.52,12.65,12.65,0,0,0,3.24,6.91.53.53,0,0,1,0,.75.54.54,0,0,1-.37.16"/><path d="M750.19,249.4a.51.51,0,0,1-.29-.08.53.53,0,0,1-.15-.73c.82-1.27.11-2.83-.74-3.78s-1.72-3.1-2.67-5.53c-1.19-3.05-2.54-6.51-4.31-8.44-2.92-3.18-9.57.56-9.64.59a.51.51,0,0,1-.71-.2.51.51,0,0,1,.2-.71c.29-.17,7.44-4.18,10.92-.39,1.91,2.07,3.3,5.63,4.52,8.77.88,2.23,1.7,4.35,2.47,5.21,1.11,1.23,2,3.29.84,5a.51.51,0,0,1-.44.24"/><path d="M717.69,249.43a.53.53,0,0,1-.39-.16,16.16,16.16,0,0,1-4-13.52c1.36-8.59,9.07-14.54,17.23-13.24,2.63.42,6.67,1.54,11.28,6.46a.53.53,0,0,1-.77.72c-4.39-4.69-8.2-5.75-10.68-6.14-7.56-1.19-14.75,4.35-16,12.36a15.11,15.11,0,0,0,3.77,12.64.51.51,0,0,1,0,.74.47.47,0,0,1-.35.14"/><path d="M752.35,234.81a.53.53,0,0,1-.51-.37c-.42-1.32-1.91-4.92-3.66-5.64-2.62-1.1-5.95,1.57-6,1.6a.52.52,0,0,1-.74-.08.51.51,0,0,1,.07-.73c.16-.13,3.86-3.09,7.06-1.76,2.55,1.06,4.19,6.08,4.26,6.29a.54.54,0,0,1-.34.66l-.16,0"/><path d="M749.53,229.56c-.42-.09-.59-.38-.51-.66,8.8-31.86,1.86-51.64,1.79-51.83a.53.53,0,0,1,.32-.68.52.52,0,0,1,.67.32c.07.2,7.13,20.26-1.77,52.47a.51.51,0,0,1-.5.38"/><path d="M735.35,128.5a.53.53,0,0,1-.52-.44.52.52,0,0,1,.43-.6c1.87-.32,2.21-2.2,2.26-3.08-1.32-.12-3.16-.38-3.65-1s-1.31-4.76-1.61-6.51a.52.52,0,1,1,1-.18,38.86,38.86,0,0,0,1.39,6,10.45,10.45,0,0,0,3.41.62.53.53,0,0,1,.49.5c.09,1.4-.47,4.18-3.15,4.63h-.08"/><path d="M722.78,118.62c-.41-.08-.58-.36-.52-.65a6.09,6.09,0,0,1,2.53-3.61,4.35,4.35,0,0,1,3.67-.15.53.53,0,0,1,.33.67.54.54,0,0,1-.67.32,3.38,3.38,0,0,0-2.82.08,5,5,0,0,0-2,2.93.52.52,0,0,1-.51.41"/><path d="M769.22,256.05h-71a3.7,3.7,0,0,1,0-7.4h54.82a.53.53,0,0,1,.53.53.52.52,0,0,1-.53.52H698.24a2.65,2.65,0,1,0,0,5.3h71a.52.52,0,0,1,.53.52.53.53,0,0,1-.53.53"/><path d="M723.91,249.7a.53.53,0,0,1-.53-.49.54.54,0,0,1,.5-.56c5.7-.33,6-4.28,6-4.32a.51.51,0,0,1,.52-.49.52.52,0,0,1,.52.55c0,.05-.35,4.93-7,5.31Z"/></svg>