<svg version="1.1" id="Layer_1" xmlns="http://www.w3.org/2000/svg" xmlns:xlink="http://www.w3.org/1999/xlink" x="0" y="0" viewBox="0 0 957 258" xml:space="preserve"><style>.st0{fill:#fff}.st1{fill:#1a1a1a}.st2{fill:#ee1944}.st4{fill:none;stroke:#000;stroke-miterlimit:10}.st5{opacity:.8}.st8{fill:#263238}.st9{fill:#f12535}</style><path class="st0" d="M251.3,52.26v81.07c0,0,18.36-13.79,45.55-21.92c27.19-8.13,38.76-8.64,38.76-8.64V21.96	c0,0-20.89,2.21-44.36,10.42C267.77,40.58,251.3,52.26,251.3,52.26"/><path class="st1" d="M390.57,137.1c0,0-18.46-2.02-29.17-12.83l-12.63,27.28c0,0-3.78-17.79-4.76-22.12	c-0.98-4.32-1.11-12.86-24.62-12.72l-18.54-0.01c0,0-22.12-0.83-29.65,11.61s-7.85,18.74-7.85,18.74l-18.51,73l-5.14,25.02h115.21	l-1.24-34.8c0,0,9.43,0.9,16.45-8.61c7.02-9.51,11.8-20.93,13.82-27.35c2.02-6.42,6.41-22.76,6.41-22.76L390.57,137.1z"/><path class="st0" d="M301.52,116.67l-0.19-15.59c0,0-4.81,1.53-6.96-4.49c-2.15-6.02,7.97-7.11,8.99-6.6c0,0,6.4-3,9.02-4.62	c4.91-3.02,8.72-11.5,8.72-11.5l2.98,4.25l2.65,15.58c0,0,0.9,10.36-1.45,12.83c-2.35,2.47-5.43,3.04-6.9,2.86l0.55,7.3	c0,0,1.86,5.97,2.13,7c0.27,1.02,1.67,5.89-2.74,7.22c-4.41,1.33-8.09-1.39-10.27-4.01C305.84,124.29,301.52,116.67,301.52,116.67"/><path class="st0" d="M366.32,127.91l3.72-6.31c0,0,2.14-11.35,3.05-12.19c0.91-0.84,1.89-3.29,6.79-3.17c0,0,0.93-0.54,1.05-0.72	c0.12-0.17,8.83-10.01,8.83-10.01s1.93-0.77,3.44,0.46c1.51,1.23,1.1,3.65,0.32,5.01c-0.78,1.36-5.22,7.24-5.22,7.24	s4.49,0.04,4.96,2.07l-1.85,1.95l-0.57,17.81c0,0-4.39,5.33-6.56,5.73C384.29,135.77,370.17,131.69,366.32,127.91"/><path class="st2" d="M323.74,78.03c0,0,1.62-5.63-2.93-10.98c-4.54-5.35-18.77-0.19-18.77-0.19s2.03-6.26-0.97-11.2	c-3-4.94-9.5-6.85-15.38-3.9c-5.88,2.95-8.05,10.53-6.9,15.73c1.16,5.2,4.73,8.35,8.05,8.49c0,0-1.63,6.42,0.29,13.85	c1.92,7.43,6.6,13.29,14.23,13.82l-0.03-2.57c0,0-5.74,0.87-6.65-4.03c-0.91-4.9,2.99-7.02,4.1-7.22c1.11-0.2,3.77,0.18,3.77,0.18	s3.53-0.88,6.75-2.66c3.22-1.79,6.79-5.33,7.72-6.56c0.93-1.24,4.15-6.63,4.15-6.63S323.44,76.55,323.74,78.03"/><path class="st0" d="M391.42,112.23l-2.23,82.43c0,0,31.78-19.38,36.43-47.3V67.59c0,0,2.42-11.06-4.58-22.26	c-7-11.19-23.21-17.52-23.21-17.52l-0.35,79.6L391.42,112.23z"/><path class="st0" d="M336.65,137.71l-1.04,81.18c0,0-31.2,9-57.21,7.23c-26.02-1.77-43.74-8.27-53.36-17.69	s-10.39-20.18-10.39-20.18l-0.18-84.13c0,0-2.12,22.57,26.71,33.61c28.83,11.05,61.17,6.8,64.12,6.5	C310.95,143.64,336.65,137.71,336.65,137.71"/><path class="st2" d="M308.67,180.79c0,0,38.06-3.38,49.55-11.09v28.09c0,0-20.41,9.69-49.55,11.04V180.79z"/><path class="st1" d="M366.32,127.91l2.22-3.77c0,0-6.31-1.59-6.91-0.36C361.04,125.01,366.32,127.91,366.32,127.91"/><path class="st1" d="M390.57,130.37c0,0-4.11,5.04-5.8,5.4c0,0,4.05,1.15,5.8,1.1V130.37z"/><path class="st0" d="M297.04,59.3c1.57,7.87,0.42,8.19,0.42,8.19h3.25l1.34-0.69c0.21-0.71,1.82-6.5-0.99-11.13	c-2.99-4.94-9.5-6.85-15.38-3.9c-0.54,0.27-1.03,0.59-1.51,0.93C286.27,52.55,295.66,52.41,297.04,59.3"/><path class="st0" d="M306.75,65.53c2.43,0.19,11.76,1.26,11.45,6.79c-0.37,6.34-11.66,16.35-11.69,16.38	c0.9-0.37,1.86-0.81,2.81-1.33c3.22-1.79,6.79-5.32,7.72-6.56s4.15-6.63,4.15-6.63s2.27,2.38,2.57,3.87c0,0,1.62-5.63-2.92-10.98	C317.97,63.71,311.32,64.48,306.75,65.53"/><path d="M366.32,128.96c-0.1,0-0.2-0.03-0.29-0.08c-0.26-0.16-0.35-0.5-0.19-0.76c0.99-1.64,3.8-6.94,3.83-6.99l1.84-7.18	c0.08-0.34,0.16-0.71,0.25-1.07c0.61-2.4,1.44-5.07,3.56-6.41c1.18-0.74,2.48-0.76,3.79-0.78c1.66,0.01,3.34,0.2,4.98,0.55	c0.72,0.16,1.57,0.37,2.33,0.77c1.64,0.85,2.9,2.88,2,4.94c-0.47,1.09-1.47,1.96-2.81,2.45c-1.5,0.56-3.24,0.66-4.42,0.69	c-2.32,0.05-4.56-0.45-6.48-1.45c-0.27-0.14-0.38-0.47-0.24-0.75c0.14-0.27,0.48-0.37,0.75-0.24c1.67,0.87,3.62,1.33,5.64,1.33	c0.1,0,0.2,0,0.31,0c1.1-0.03,2.72-0.12,4.06-0.62c1.04-0.38,1.83-1.06,2.18-1.85c0.62-1.45-0.3-2.89-1.5-3.52	c-0.65-0.34-1.37-0.52-2.05-0.67c-1.56-0.34-3.16-0.51-4.76-0.52c-1.23-0.04-2.27,0.03-3.19,0.61c-1.77,1.12-2.51,3.55-3.07,5.75	c-0.09,0.35-0.17,0.7-0.25,1.05l-1.89,7.32c-0.16,0.34-2.89,5.51-3.9,7.17C366.68,128.86,366.5,128.96,366.32,128.96"/><path d="M391.03,127.2c-1.55-0.16-2.53-1.08-3.07-2.8c-0.35-1.12-0.23-2.46,0.33-3.76c0.62-1.45,1.45-2.56,2.51-3.78	c0.2-0.23,0.55-0.25,0.78-0.06c0.23,0.2,0.26,0.55,0.05,0.78c-0.99,1.14-1.77,2.18-2.34,3.49c-0.46,1.06-0.56,2.12-0.28,2.99	c0.4,1.29,1.04,1.92,2.07,2.03c0.3,0.03,0.52,0.31,0.49,0.61C391.55,126.99,391.31,127.2,391.03,127.2"/><path d="M387.93,109.11c-0.12,0-0.24-0.04-0.34-0.11c-0.24-0.19-0.29-0.53-0.1-0.78c1.03-1.35,2.08-2.68,3.13-4.01l0.33-0.41	c1.57-1.96,3.05-3.81,2.41-6.28c-0.26-1.02-1.03-2.11-2.27-1.82c-0.65,0.15-1.22,0.56-1.88,1.13c-3.33,2.85-6.04,6.47-8.26,9.64	c-0.18,0.25-0.52,0.31-0.77,0.14c-0.25-0.18-0.31-0.52-0.13-0.77c2.26-3.22,5.03-6.91,8.45-9.84c0.68-0.58,1.44-1.16,2.36-1.37	c1.89-0.46,3.17,1,3.59,2.62c0.77,3.01-1.03,5.26-2.61,7.25l-0.33,0.41c-1.05,1.33-2.1,2.66-3.13,4	C388.26,109.03,388.1,109.11,387.93,109.11"/><path d="M393.37,111.1c-0.23,0-0.45-0.15-0.53-0.38c-0.32-1.01-0.93-1.57-1.98-1.83c-0.68-0.16-1.91-0.3-2.57,0.66	c-0.18,0.25-0.53,0.31-0.77,0.14c-0.25-0.18-0.31-0.52-0.14-0.77c0.76-1.1,2.13-1.5,3.74-1.1c1.42,0.35,2.33,1.19,2.77,2.57	c0.09,0.29-0.07,0.6-0.36,0.7C393.49,111.1,393.43,111.1,393.37,111.1"/><path d="M385.73,121.63c-1.5,0-3.39-0.71-4.27-2.3c-0.56-1.01-0.9-2.73,0.66-5.18c0.17-0.26,0.52-0.33,0.76-0.17	c0.26,0.16,0.33,0.51,0.17,0.76c-1,1.57-1.22,2.97-0.62,4.05c0.66,1.19,2.12,1.72,3.3,1.72c1.17-0.01,2.18-0.77,2.82-1.41	c0.58-0.57,0.99-1.09,1.44-1.63c0.27-0.33,0.56-0.68,0.9-1.06c0.21-0.23,0.55-0.25,0.78-0.05c0.23,0.2,0.25,0.55,0.05,0.78	c-0.33,0.37-0.6,0.71-0.87,1.03c-0.47,0.56-0.9,1.09-1.52,1.7c-0.78,0.79-2.04,1.72-3.55,1.74H385.73z"/><path d="M381.16,127.58c-0.12,0-0.24-0.04-0.35-0.12c-0.24-0.19-0.28-0.54-0.09-0.78c2.3-2.9,2.04-6.17,2.03-6.21	c-0.03-0.3,0.2-0.57,0.5-0.6c0.36-0.07,0.57,0.2,0.61,0.5c0.01,0.15,0.32,3.74-2.27,7C381.48,127.51,381.32,127.58,381.16,127.58"/><path d="M390.57,137.66c-3.06,0-8.43-1.46-14.72-3.99c-5.6-2.25-15.88-7.26-14.74-10.09c0.49-1.22,1.95-1.16,2.81-1.13	c1.74,0.06,3.27,0.38,4.62,0.95c0.28,0.12,0.41,0.44,0.3,0.73c-0.12,0.28-0.44,0.41-0.72,0.3c-1.23-0.52-2.63-0.81-4.16-0.86	c-0.88-0.04-1.62-0.02-1.81,0.44c-0.35,0.87,4.32,4.71,14.12,8.65c6.08,2.44,11.42,3.91,14.3,3.91c0.3,0,0.55,0.25,0.55,0.55	C391.12,137.41,390.87,137.66,390.57,137.66"/><path d="M315.02,109.96c-1.05,0-2.17-0.02-3.3-0.1c-0.31-0.02-0.54-0.29-0.51-0.59c0.02-0.31,0.25-0.59,0.59-0.51	c1.8,0.13,3.58,0.11,5.06,0.08l0.58-0.01c2.51-0.04,4.88-0.09,6.69-1.79c0.57-0.54,1.06-1.21,1.39-1.94c0.46-1,0.62-2.2,0.77-3.26	c0.18-1.28,0.24-2.63,0.21-4.13c-0.07-2.56-0.44-5.15-0.81-7.66l-0.09-0.62c-0.44-3.07-2.1-10.15-2.12-10.22	c-0.07-0.3,0.12-0.6,0.41-0.67c0.32-0.06,0.6,0.12,0.67,0.41c0.07,0.29,1.68,7.2,2.13,10.31l0.09,0.62	c0.37,2.54,0.75,5.16,0.82,7.78c0.04,1.57-0.03,2.98-0.21,4.31c-0.16,1.13-0.33,2.42-0.86,3.57c-0.39,0.86-0.95,1.65-1.64,2.29	c-2.12,2-4.82,2.05-7.42,2.1l-0.58,0.01C316.29,109.95,315.67,109.96,315.02,109.96"/><path d="M311.16,86.84c0.43-0.13,0.75,0.03,1.08,1.59c0.37,1.75-0.05,2.11-0.45,2.15s-0.86-0.46-1.01-1.72	C310.64,87.6,310.6,87,311.16,86.84"/><path d="M322.43,84.45c0.43-0.14,0.75,0,1.13,1.55c0.43,1.73,0.02,2.11-0.37,2.16c-0.4,0.05-0.88-0.43-1.06-1.68	C321.93,85.22,321.87,84.63,322.43,84.45"/><path d="M324.46,81.63c-0.11,0-0.21-0.03-0.3-0.09c-0.63-0.41-1.39-0.76-3.13-0.06c-0.29,0.12-0.61-0.02-0.72-0.31	c-0.11-0.28,0.02-0.61,0.31-0.72c2.14-0.86,3.27-0.43,4.15,0.16c0.26,0.17,0.33,0.51,0.16,0.77	C324.81,81.54,324.64,81.63,324.46,81.63"/><path d="M300.15,101.77c-2.91,0-5.54-2.02-6.18-4.98c-0.36-1.65-0.05-3.34,0.86-4.77c0.91-1.42,2.33-2.4,3.98-2.76	c1.21-0.26,2.45-0.17,3.6,0.27c0.34,0.03,1.16,0.25,2.13,1.43c0.2,0.24,0.16,0.58-0.08,0.78c-0.24,0.19-0.59,0.16-0.78-0.08	c-0.81-0.99-1.39-1.03-1.4-1.03c-0.06,0-0.14-0.02-0.2-0.04c-0.97-0.39-2.02-0.48-3.04-0.25c-1.36,0.29-2.53,1.1-3.29,2.28	c-0.76,1.17-1.01,2.57-0.71,3.93c0.62,2.82,3.42,4.6,6.21,3.99c0.92-0.2,1.78-0.65,2.46-1.3c0.22-0.21,0.58-0.2,0.78,0.02	c0.21,0.22,0.2,0.57-0.02,0.78c-0.83,0.79-1.87,1.33-2.99,1.58C301.04,101.72,300.59,101.77,300.15,101.77"/><path d="M299.13,98.96c-0.15,0-0.29-0.06-0.4-0.17c-0.21-0.22-0.2-0.57,0.02-0.78l3.04-2.88l-3.96-2.37	c-0.26-0.16-0.35-0.5-0.2-0.76c0.16-0.26,0.5-0.34,0.76-0.19l4.6,2.74c0.15,0.09,0.25,0.24,0.27,0.41c0.02,0.17-0.04,0.34-0.17,0.46	l-3.57,3.38C299.4,98.91,299.27,98.96,299.13,98.96"/><path d="M316.51,132.2c-0.74,0-1.51-0.13-2.28-0.38c-2.99-0.99-5.44-3.22-6.97-4.92c-2.33-2.58-4.35-5.75-5.99-9.42l-0.26-0.59	c-0.12-0.28,0.01-0.61,0.29-0.73c0.29-0.12,0.61,0.01,0.73,0.29l0.24,0.57c1.6,3.57,3.56,6.64,5.81,9.14c1.44,1.6,3.74,3.7,6.5,4.61	c1.53,0.51,3.02,0.43,4.11-0.22c3.58-2.1,2.3-5.57,0.95-9.24c-0.6-1.63-1.17-3.16-1.27-4.56c0,0-0.02-0.29-0.55-7.32	c-0.02-0.3,0.21-0.57,0.51-0.59c0.29-0.04,0.57,0.21,0.59,0.51c0,0,0.53,7.14,0.55,7.31c0.09,1.25,0.63,2.72,1.2,4.27	c1.32,3.57,2.95,8.02-1.42,10.58C318.46,131.97,317.52,132.2,316.51,132.2"/><path d="M301.52,117.23c-0.3,0-0.55-0.24-0.55-0.55l-0.14-15.59c0-0.31,0.24-0.56,0.55-0.56c0.31,0,0.56,0.24,0.56,0.55l0.14,15.59	C302.07,116.97,301.83,117.22,301.52,117.23L301.52,117.23z"/><path d="M354.93,245.63c-0.29,0-0.54-0.23-0.55-0.53c-0.31-6.75-0.52-13.46-0.73-19.94c-0.3-9.41-0.61-19.15-1.21-29.01	c-0.02-0.3,0.21-0.57,0.52-0.59c0.3-0.04,0.57,0.22,0.59,0.52c0.61,9.87,0.92,19.62,1.22,29.04c0.21,6.48,0.42,13.18,0.73,19.93	c0.02,0.31-0.22,0.56-0.53,0.58C354.94,245.63,354.93,245.63,354.93,245.63"/><path d="M350.96,169.37c-0.28,0-0.52-0.21-0.55-0.5c-1.3-13.47-3.34-25.51-6.25-36.82c-0.71-2.75-1.46-5.41-2.83-7.78	c-4.04-6.93-12.46-6.96-19.89-6.99c-0.86,0-1.7-0.01-2.52-0.02c-0.31-0.01-0.55-0.26-0.54-0.56c0-0.3,0.25-0.54,0.55-0.54	c0.83,0.01,1.67,0.02,2.52,0.02c7.73,0.03,16.49,0.07,20.84,7.55c1.45,2.49,2.22,5.23,2.95,8.06c2.92,11.36,4.97,23.46,6.28,36.99	c0.03,0.3-0.19,0.57-0.5,0.6C350.99,169.37,350.98,169.37,350.96,169.37"/><path d="M322.3,96.13c-0.43-0.08-0.61-0.38-0.54-0.68c0.44-1.87,0.53-3.87,0.2-4.13c-0.31-0.11-1.54,0.32-2.64,0.89	c-0.15,0.08-0.33,0.09-0.5,0.01c-0.16-0.08-0.27-0.23-0.3-0.4l-1.39-7.63c-0.06-0.3,0.14-0.59,0.45-0.65	c0.27-0.06,0.59,0.14,0.64,0.45l1.26,6.9c1.07-0.5,2.47-0.97,3.15-0.46c1.09,0.85,0.5,3.96,0.2,5.26	C322.78,95.95,322.55,96.13,322.3,96.13"/><path d="M264.09,144.12c-0.47-0.12-0.62-0.44-0.53-0.73c3.67-11.08,8.1-18.26,13.16-21.35c5.97-3.64,12.09-5.89,24.13-5.89	c0.3,0,0.55,0.25,0.55,0.55s-0.25,0.55-0.55,0.55c-11.78,0-17.74,2.19-23.55,5.73c-4.83,2.95-9.1,9.93-12.69,20.75	C264.54,143.97,264.33,144.12,264.09,144.12"/><path d="M239.72,245.63c-0.41-0.07-0.61-0.37-0.54-0.67c1.76-8.59,3.48-16.85,5.14-24.56c0.06-0.3,0.36-0.51,0.66-0.42	c0.3,0.06,0.49,0.36,0.42,0.66c-1.66,7.71-3.39,15.97-5.14,24.55C240.21,245.45,239.98,245.63,239.72,245.63"/><path d="M284.63,245.63c-0.41-0.07-0.61-0.37-0.54-0.67c1.26-6.06,2.35-12.04,3.41-18.8c0.05-0.3,0.3-0.52,0.64-0.46	c0.3,0.05,0.51,0.33,0.46,0.63c-1.07,6.78-2.16,12.78-3.42,18.86C285.12,245.45,284.89,245.63,284.63,245.63"/><path d="M300.86,104.21c-9.35-0.89-15.75-10.86-15.27-23.71c0.17-4.65,1.67-8.22,4.44-10.59c4.16-3.55,9.72-3.23,10.74-3.14	c1.68-0.71,16.35-6.61,21.34,1.02c3.89,5.96,2.49,11.2,2.43,11.42c-0.07,0.25-0.27,0.4-0.56,0.41c-0.26-0.01-0.47-0.2-0.52-0.45	c-0.41-2.15-1.49-3.6-2.16-4.33c-1.24,2.82-6.29,12.48-18.12,15.74c-0.29,0.08-0.6-0.09-0.68-0.39c-0.08-0.3,0.09-0.6,0.39-0.68	c13.29-3.66,17.65-15.69,17.69-15.81c0.06-0.17,0.2-0.3,0.36-0.35c0.17-0.05,0.35-0.02,0.5,0.1c0.07,0.06,1.33,1.06,2.27,3	c-0.02-1.98-0.48-4.92-2.53-8.05c-4.67-7.15-19.95-0.62-20.1-0.56c-0.09,0.04-0.2,0.05-0.29,0.04c-0.06-0.01-5.93-0.65-10.04,2.87	c-2.53,2.16-3.89,5.45-4.05,9.78c-0.46,12.24,5.52,21.73,14.21,22.57c0.31,0.03,0.53,0.3,0.5,0.6	C301.38,104,301.14,104.21,300.86,104.21"/><path d="M318.72,101.64c-0.63,0-1.21-0.13-1.74-0.41c-1.83-0.94-2.35-3.15-2.38-3.24c-0.07-0.3,0.12-0.59,0.42-0.66	c0.29-0.06,0.6,0.12,0.67,0.41c0,0.02,0.44,1.81,1.8,2.51c0.81,0.41,1.83,0.37,3.02-0.13c0.3-0.11,0.6,0.01,0.72,0.3	c0.12,0.28-0.01,0.61-0.3,0.73C320.15,101.47,319.41,101.64,318.72,101.64"/><path d="M927.9,245.63H1.27c-0.52,0-0.94-0.25-0.94-0.55c0-0.31,0.42-0.56,0.94-0.56H927.9c0.52,0,0.94,0.25,0.94,0.56	C928.84,245.38,928.41,245.63,927.9,245.63"/><path d="M286.12,76.54c-6.51-1.66-8.73-8.45-8.1-14.06c0.63-5.59,4.35-12.21,12.78-12.45c4.23-0.11,7.46,1.1,9.57,3.62	c4.12,4.91,2.51,12.93,2.44,13.27c-0.06,0.3-0.36,0.48-0.65,0.43c-0.3-0.06-0.49-0.35-0.43-0.66c0.02-0.08,1.56-7.84-2.21-12.34	c-1.88-2.24-4.76-3.35-8.69-3.22c-7.72,0.22-11.13,6.31-11.71,11.46c-0.58,5.15,1.41,11.38,7.13,12.85c0.3,0.07,0.47,0.38,0.4,0.67	C286.6,76.37,286.37,76.54,286.12,76.54"/><path d="M251.02,133.88c-0.18,0-0.35-0.08-0.46-0.24c-0.17-0.25-0.11-0.6,0.15-0.77c14.51-9.86,31.46-17.72,50.4-23.36	c0.29-0.1,0.6,0.08,0.69,0.37c0.09,0.29-0.08,0.6-0.37,0.69c-18.82,5.61-35.68,13.42-50.09,23.21	C251.24,133.85,251.13,133.88,251.02,133.88"/><path d="M326.72,104.61c-0.27,0-0.5-0.19-0.55-0.46c-0.05-0.3,0.15-0.59,0.45-0.64c3.11-0.52,5.86-0.92,8.91-1.29	c0.29-0.04,0.58,0.18,0.62,0.49c0.04,0.3-0.18,0.58-0.48,0.62c-3.04,0.36-5.77,0.76-8.86,1.28	C326.78,104.61,326.75,104.61,326.72,104.61"/><path d="M251.3,52.81c-0.18,0-0.35-0.08-0.46-0.24c-0.17-0.25-0.11-0.6,0.15-0.77c15.16-10.35,33.2-18.51,53.64-24.24	c0.71-0.2,1.41-0.39,2.12-0.58c0.3-0.07,0.6,0.1,0.68,0.39c0.08,0.3-0.09,0.6-0.39,0.68c-0.7,0.19-1.4,0.38-2.1,0.58	c-20.32,5.7-38.25,13.8-53.32,24.08C251.52,52.78,251.41,52.81,251.3,52.81"/><path d="M323.72,24.27c-0.26,0-0.5-0.19-0.55-0.46c-0.06-0.3,0.15-0.59,0.45-0.64c3.96-0.71,7.96-1.31,11.92-1.76	c0.35-0.03,0.58,0.19,0.61,0.49c0.04,0.3-0.18,0.58-0.49,0.61c-3.93,0.45-7.92,1.04-11.85,1.75	C323.78,24.27,323.75,24.27,323.72,24.27"/><path d="M390.84,133.93c-0.32-0.01-0.56-0.26-0.55-0.57l0.57-21.15c0-0.17,0.09-0.34,0.23-0.44c2.02-1.43,3.96-2.87,5.82-4.34	l0.35-79.63c0-0.18,0.09-0.36,0.25-0.46c0.15-0.1,0.35-0.12,0.52-0.04c0,0,3.72,1.62,4.94,2.19c11.73,5.49,19.44,13.81,22.32,24.06	c4.77,17.01-5.4,37.02-27.39,54.5c-0.06,0.08-0.14,0.14-0.22,0.18c-1.83,1.45-3.74,2.88-5.73,4.28l-0.57,20.87	C391.39,133.69,391.15,133.93,390.84,133.93 M398.37,28.66l-0.34,77.89c21.06-17.03,30.79-36.34,26.2-52.69	c-2.79-9.93-10.3-18.01-21.73-23.36C401.64,30.1,399.52,29.16,398.37,28.66"/><path d="M389.19,195.21c-0.32-0.01-0.56-0.26-0.55-0.57l1.66-61.28c0.01-0.3,0.25-0.54,0.55-0.54c0.32,0.01,0.56,0.26,0.55,0.57	l-1.66,61.28C389.73,194.97,389.49,195.21,389.19,195.21"/><path d="M389.19,195.21c-0.18,0-0.35-0.09-0.46-0.24c-0.17-0.25-0.1-0.6,0.15-0.77c22.15-15,35.42-32.94,36.42-49.21l0.03-0.7	l-0.01-22.04c0-0.31,0.25-0.56,0.55-0.56c0.3,0,0.55,0.25,0.55,0.56l0.01,22.06l-0.03,0.73c-1.02,16.63-14.47,34.88-36.9,50.07	C389.4,195.18,389.3,195.21,389.19,195.21"/><path d="M425.87,109.94c-0.31,0-0.55-0.25-0.55-0.55l-0.02-49.2c0-0.31,0.25-0.55,0.55-0.55c0.3,0,0.55,0.25,0.55,0.55l0.02,49.2	C426.42,109.69,426.17,109.94,425.87,109.94"/><path d="M335.61,219.44c-0.31,0-0.56-0.26-0.55-0.56l0.23-17.64c0-0.31,0.23-0.59,0.56-0.55c0.3,0,0.55,0.26,0.54,0.56l-0.23,17.64	C336.16,219.2,335.91,219.44,335.61,219.44"/><path d="M336.2,172.97c-0.31,0-0.56-0.26-0.55-0.56l0.44-34.71c0-0.3,0.25-0.55,0.55-0.55c0.29,0,0.56,0.25,0.55,0.56l-0.44,34.71	C336.75,172.73,336.51,172.97,336.2,172.97"/><path d="M284.61,145.85c-18.01,0-34.28-3.01-46.7-9c-0.27-0.13-0.39-0.46-0.26-0.74c0.14-0.28,0.46-0.39,0.74-0.26	c23.33,11.25,60.52,11.87,97.07,1.62l1.03-0.29c0.31-0.09,0.6,0.09,0.69,0.38c0.08,0.29-0.09,0.6-0.38,0.68l-1.04,0.3	C318.35,143.42,300.78,145.85,284.61,145.85"/><path d="M222.76,125.75c-0.15,0-0.3-0.06-0.41-0.19c-3.49-3.91-5.94-8.29-7.27-13.03c-0.76-2.73-1.15-5.56-1.16-8.43	c0-0.31,0.24-0.56,0.55-0.56c0.3,0,0.55,0.25,0.55,0.55c0.01,2.77,0.39,5.5,1.12,8.13c1.28,4.57,3.65,8.81,7.02,12.59	c0.2,0.23,0.18,0.58-0.05,0.78C223.02,125.71,222.89,125.75,222.76,125.75"/><path d="M284.61,169.23c-6.59,0-12.95-0.41-19.03-1.24c-0.3-0.04-0.52-0.32-0.47-0.62c0.04-0.3,0.27-0.54,0.62-0.47	c12.08,1.64,25.25,1.64,39.15,0c0.3-0.04,0.58,0.18,0.61,0.49c0.04,0.31-0.18,0.58-0.48,0.62	C298.01,168.82,291.2,169.23,284.61,169.23"/><path d="M284.61,178.69c-6.95,0-13.65-0.46-20.05-1.38c-0.3-0.04-0.51-0.32-0.47-0.63c0.05-0.3,0.35-0.49,0.63-0.47	c12.35,1.78,25.85,1.83,40.15,0.14c0.3-0.03,0.58,0.18,0.61,0.49c0.04,0.3-0.18,0.58-0.48,0.62	C298.01,178.28,291.2,178.69,284.61,178.69"/><path d="M284.65,226.81c-9.76,0-19.06-0.91-27.62-2.73c-22.87-4.88-37.77-15.77-41.95-30.65c-0.69-2.46-1.08-5.02-1.15-7.61	l-0.01-1.13v-54.31c0-0.31,0.25-0.56,0.55-0.56c0.3,0,0.55,0.25,0.55,0.56l0.01,55.42c0.07,2.49,0.45,4.96,1.11,7.34	c4.06,14.47,18.66,25.08,41.11,29.87c22.59,4.82,50.35,3.17,78.2-4.64c0.29-0.07,0.6,0.09,0.68,0.38c0.08,0.29-0.09,0.6-0.38,0.68	C318.28,224.32,300.83,226.81,284.65,226.81"/><path d="M214.47,130.92c-0.3,0-0.55-0.25-0.55-0.55V105.1c0-0.31,0.25-0.55,0.55-0.55c0.3,0,0.55,0.25,0.55,0.55v25.26	C215.02,130.68,214.78,130.92,214.47,130.92"/><path d="M251.3,133.88c-0.3,0-0.55-0.25-0.55-0.55V52.26c0-0.31,0.25-0.56,0.55-0.56c0.3,0,0.55,0.25,0.55,0.56v81.07	C251.85,133.63,251.6,133.88,251.3,133.88"/><path d="M335.61,103.32c-0.3,0-0.55-0.25-0.55-0.55V21.96c0-0.31,0.25-0.55,0.55-0.55c0.3,0,0.55,0.25,0.55,0.55v80.81	C336.16,103.07,335.91,103.32,335.61,103.32"/><path d="M399.35,144.44c-0.17,0-0.33-0.07-0.44-0.21c-0.19-0.24-0.15-0.59,0.1-0.78c4.58-3.56,11.28-9.21,17.16-15.9	c0.2-0.23,0.55-0.25,0.78-0.05c0.23,0.2,0.25,0.55,0.05,0.78c-5.94,6.75-12.69,12.45-17.32,16.04	C399.59,144.4,399.47,144.44,399.35,144.44"/><path d="M354.52,210.83c-0.19,0-0.39,0-0.58-0.01c-0.3-0.01-0.54-0.27-0.53-0.57c0.01-0.31,0.26-0.52,0.57-0.54	c0.18,0.01,0.36,0.01,0.54,0.01c19.73,0,30.59-37.22,35.33-59.54c0.06-0.3,0.34-0.5,0.66-0.43c0.3,0.06,0.49,0.36,0.42,0.66	C386.12,173.07,375.03,210.83,354.52,210.83"/><path d="M348.77,152.11c-0.08,0-0.16-0.02-0.23-0.05c-0.28-0.13-0.4-0.46-0.27-0.74l12.81-27.66c0.13-0.28,0.46-0.4,0.74-0.27	c0.28,0.13,0.4,0.46,0.27,0.74l-12.81,27.66C349.18,151.99,348.98,152.11,348.77,152.11"/><path d="M384.77,136.33c-0.19,0-0.37-0.1-0.47-0.27c-0.16-0.26-0.08-0.6,0.19-0.76c2.56-1.53,4.55-3.6,5.92-6.13	c0.15-0.27,0.49-0.36,0.75-0.22c0.27,0.15,0.37,0.48,0.23,0.75c-1.47,2.7-3.6,4.91-6.33,6.55	C384.97,136.3,384.87,136.33,384.77,136.33"/><path d="M308.67,177.31c-0.29,0-0.53-0.22-0.55-0.51c-0.03-0.3,0.2-0.57,0.51-0.6c0.35-0.03,34.69-2.94,49.33-11.02	c0.26-0.15,0.6-0.05,0.75,0.22c0.15,0.27,0.05,0.6-0.22,0.75c-14.84,8.19-49.42,11.12-49.77,11.15	C308.7,177.31,308.68,177.31,308.67,177.31"/><path d="M308.67,205.35c-0.29,0-0.53-0.22-0.55-0.51c-0.03-0.3,0.2-0.57,0.51-0.6c0.35-0.03,34.69-2.94,49.33-11.02	c0.26-0.15,0.6-0.05,0.75,0.22c0.15,0.27,0.05,0.6-0.22,0.75c-14.84,8.19-49.42,11.12-49.77,11.15	C308.7,205.35,308.68,205.35,308.67,205.35"/><path d="M308.67,205.45c-0.3,0-0.55-0.25-0.55-0.55v-28.13c0-0.31,0.25-0.56,0.55-0.56c0.3,0,0.55,0.25,0.55,0.56v28.13	C309.22,205.2,308.97,205.45,308.67,205.45"/><path d="M358.21,194.32c-0.3,0-0.55-0.25-0.55-0.55v-28.13c0-0.31,0.25-0.56,0.55-0.56c0.3,0,0.55,0.25,0.55,0.56v28.13	C358.77,194.07,358.52,194.32,358.21,194.32"/><path d="M237.54,114.46c-0.09,0-0.18-0.02-0.27-0.07c-0.18-0.1-0.29-0.28-0.29-0.49V89.67c0-0.19,0.09-0.36,0.25-0.47	c4.2-2.69,13.19-6.43,13.57-6.59c0.28-0.12,0.61,0.02,0.72,0.3c0.12,0.28-0.02,0.61-0.3,0.72c-0.09,0.04-8.92,3.71-13.14,6.34v22.94	c4.45-2.63,12.36-5.92,12.72-6.06c0.28-0.12,0.61,0.02,0.72,0.3c0.12,0.28-0.02,0.61-0.3,0.72c-0.09,0.04-9.28,3.86-13.39,6.5	C237.75,114.43,237.65,114.46,237.54,114.46"/><path d="M369.95,55.91c-0.3,0-0.55-0.25-0.55-0.55V34.84c0-0.15,0.06-0.3,0.17-0.4c0.11-0.1,0.27-0.19,0.41-0.15	c19.17,0.98,27.5,6.16,27.84,6.38c0.26,0.16,0.33,0.51,0.17,0.76c-0.17,0.26-0.51,0.33-0.76,0.17c-0.08-0.05-8.3-5.15-26.72-6.18	v19.93C370.5,55.66,370.25,55.91,369.95,55.91"/><path d="M397.52,62.21c-0.1,0-0.21-0.03-0.3-0.09c-0.08-0.05-8.47-5.25-27.3-6.21c-0.31-0.01-0.54-0.27-0.53-0.58	c0.02-0.29,0.26-0.53,0.55-0.53c19.2,0.98,27.52,6.17,27.87,6.39c0.26,0.16,0.33,0.5,0.17,0.76	C397.88,62.12,397.7,62.21,397.52,62.21"/><path class="st1" d="M257.56,161.75v18.34c0,0-11.66,0.14-19.4-6.3V154.8C238.15,154.8,243.7,160.21,257.56,161.75"/><path d="M399.75,155.62c-0.17,0-0.34-0.08-0.45-0.23c-0.18-0.25-0.13-0.59,0.12-0.78c3.76-2.74,7.29-5.59,10.48-8.45	c0.23-0.2,0.58-0.19,0.78,0.04c0.2,0.23,0.18,0.58-0.05,0.78c-3.22,2.88-6.77,5.75-10.57,8.52	C399.98,155.58,399.86,155.62,399.75,155.62"/><path class="st0" d="M888.78,53.07c0,0-1.7,6.23,0.23,7.25c0,0,2.43,2.84,2.21,4.75s-0.26,4.51-2.44,5.39	c-2.19,0.88-4.64,2.31-7.32,0.77l0.62,5.22l1.13,16.56l10.57,8.03l-4.94,26.35l-5.93,22.21c0,0-7.7,10.07-8.03,10.43	c-0.33,0.36-8.74,4.82-8.74,4.82s-15.21-17.12-15.84-18.1c-0.62-0.98-4.99-13.73-4.99-14.18s6.48-31.67,6.48-31.67l7.34-6.31	c0,0,1.89-1.26,2.15-2.7c0.26-1.44,0-7.54,0-7.54s-3.76,0.2-6-2.52c-2.23-2.72-2.19-10.48-2.19-10.48l0.48-19.9l7.07-0.07l4.99-1.67	l3.91-2.46l1.15-0.99l3.1-1.87l8.6,1.87L888.78,53.07z"/><path class="st1" d="M811.7,117.8c0,0,17.23-17.81,40.08-17.29l6.68,32.82l1.92-3.38l5.75,27.54l4.08,4.08l15.23-35.49l1.48,0.64	l5.48-26.77c0,0,13.37,0.61,22.88,4.48c9.51,3.88,15.91,10.77,23.1,31.15c7.19,20.38,14.73,40.63,17.37,47.61	c2.63,6.99,3.09,30.88-11.31,38.88c-14.4,8-19.7,2.59-19.7,2.59v20.4h-92.29L811.7,117.8z"/><path class="st0" d="M790.85 74.52L788.48 66.52 784.67 62.3 780.92 61.04 659.07 61.04 655.76 62.04 651.73 66.07 650.47 69.79 651.44 74.52 672.32 149.98 673.89 153.53 676.57 156.06 679.45 157.5 755.51 157.23 804.15 128.68z"/><path class="st0" d="M780.92,72.63l-2.22-2.71l-3.05-0.92l-111,0.02l-2.86,1.48l-1.07,3.29l19.75,71.16l2.03,2.68l3.98,1.87h74.21	c0,0,38.42-28.48,38.42-28.79S780.92,72.63,780.92,72.63"/><path class="st2" d="M781.06,125.77c0,0-11.9,2.32-17.1,12.68c-5.19,10.36-10.83,23.42-12.88,27.14c-2.04,3.72-9.72,4.98-11.93,1.33	c-2.21-3.66-14.4-41.66-14.4-41.66s-3.93-4.63-17.95-3.8c-14.02,0.83-15.9,8.96-15.9,8.96s4.5,28.93,9.02,40.5	c4.51,11.58,13.1,36.74,38.2,36.68c0,0,10.76,0.51,14.73-1.25c0,0-1.98,32.73-4.31,38.74h83.79c0,0-1.07-29.05-1.02-37.87	c0.04-8.82,1.36-24.04,0.54-33.17c-0.82-9.13,0-16.52,0-16.52l-35.98-35.43L781.06,125.77z"/><path class="st1" d="M750.19,12.46c1.33,0,2.41-1.08,2.41-2.41c0-1.33-1.08-2.41-2.41-2.41c-1.33,0-2.41,1.08-2.41,2.41	C747.77,11.38,748.85,12.46,750.19,12.46"/><path class="st1" d="M768.94,12.59c1.4,0,2.54-1.14,2.54-2.54c0-1.4-1.14-2.54-2.54-2.54c-1.4,0-2.54,1.14-2.54,2.54	C766.4,11.45,767.54,12.59,768.94,12.59"/><path class="st1" d="M787.7,12.4c1.3,0,2.35-1.05,2.35-2.35c0-1.3-1.05-2.35-2.35-2.35c-1.3,0-2.35,1.05-2.35,2.35	C785.34,11.35,786.4,12.4,787.7,12.4"/><path class="st1" d="M750.19,31.34c1.4,0,2.54-1.14,2.54-2.54c0-1.4-1.14-2.54-2.54-2.54c-1.4,0-2.54,1.14-2.54,2.54	C747.65,30.21,748.78,31.34,750.19,31.34"/><path class="st1" d="M768.94,31.47c1.47,0,2.66-1.19,2.66-2.66c0-1.47-1.19-2.66-2.66-2.66c-1.47,0-2.66,1.19-2.66,2.66	C766.28,30.28,767.47,31.47,768.94,31.47"/><path class="st1" d="M787.7,31.28c1.37,0,2.48-1.11,2.48-2.48s-1.11-2.48-2.48-2.48c-1.37,0-2.48,1.11-2.48,2.48	S786.33,31.28,787.7,31.28"/><path class="st1" d="M750.19,49.91c1.3,0,2.35-1.05,2.35-2.35c0-1.3-1.05-2.35-2.35-2.35c-1.3,0-2.35,1.05-2.35,2.35	C747.83,48.86,748.89,49.91,750.19,49.91"/><path class="st1" d="M768.94,50.04c1.37,0,2.48-1.11,2.48-2.48c0-1.37-1.11-2.47-2.48-2.47c-1.37,0-2.48,1.11-2.48,2.47	C766.47,48.93,767.57,50.04,768.94,50.04"/><path class="st1" d="M787.7,49.87c1.27,0,2.31-1.03,2.31-2.31s-1.03-2.31-2.31-2.31c-1.28,0-2.31,1.03-2.31,2.31	S786.42,49.87,787.7,49.87"/><path class="st0" d="M719.84,121.95l2.71-8.97c0,0,2.19-5.93-0.88-6.92c-3.07-0.99-4.94,2.44-5.51,4.29	c-0.57,1.85-1.29,4.93-5.04,3.37c0,0-2.05-1.46-3.56-7.83c-1.51-6.38-5.14-14.46-5.14-14.46s-1.5-4.08-4.45-2.99	c-2.95,1.1-2.25,4.66-1.36,7.35c0.9,2.7,3.19,10.07,3.19,10.07s-4.75-0.41-5.02,3.57c0,0-4.04,1.25-4.29,4.24	c-0.24,2.99,1.11,8.39,1.92,10.05c0.8,1.66,1.51,2.86,1.51,2.86s4.58-4.2,11.29-4.99C711.93,120.81,719.84,121.95,719.84,121.95"/><path class="st0" d="M773.92,86.27c0,0-0.9-8.59,2.75-12.05c0,0,6.82-2.19,12.7,0.63c0,0,8.39-1.44,11.41-1.09	s10.02,4.84,10.96,10.67c0.94,5.84,0.53,10.89-0.42,14.61c-0.95,3.72-2.69,9.55-2.06,13.16s3.08,8.12,8.64,10.52	c5.56,2.4,10.63,6.48,12.69,9.65c2.06,3.16,6.23,10.8,6.62,16.61c0.39,5.81-1.76,15.16-6.98,18.25c-5.22,3.09-12.45,5.17-20.87,1.75	c-8.42-3.42-10.13-7.76-10.32-10.59c-0.19-2.83,2.53-16.9,2.04-19.98c-0.49-3.08-3.51-6.92-8.51-7.52c-5-0.6-12.64-2.37-14.03-8.98	c-1.39-6.61-1.89-10.09-1.89-10.09L773.92,86.27z"/><path class="st0" d="M782.52,95.33c0,0,2.68-1.17,5.46-0.07c2.78,1.1,4.16,5.16,3.13,7.62c-1.03,2.46-3.76,4.5-7.33,3.66	c0,0-6.29,4.21-6.64,8.77l-0.34,0.47c0,0-5.35-0.42-6.72-3.97c-1.36-3.54-1.35-5.88-0.99-7.62c0.36-1.75,0.58-3.95,0.58-3.95	l-2.03-0.42l-0.81-1.45l3.22-10.73l1.08-1.04l1.93,0.95l0.56-0.87C773.63,86.67,777.69,94.51,782.52,95.33"/><path class="st0" d="M920.2,180.82l14.18-33.74l-48.95-20.99l-30.35,70.68l48.51,21.17l1.34-1.54c0,0-17.93-10.82-22.12-16.13	c-4.2-5.32-9.25-9.31-9.25-9.31s2.67-7.7,8.76-15.4c6.09-7.7,9.45-10.85,9.45-10.85L920.2,180.82z"/><path class="st2" d="M879.08,121.91c-0.26,0.19-2.37,6.42-2.37,6.42l1.62,13.86l-8.46,19.14l-3.74-3.83l-1.33-6.36l3.45-22.26	l-3.19-7.54l6.88-12.19L879.08,121.91z"/><path class="st1" d="M867.44,79.11c0,0-0.24-3.01,1.47-4.45c1.71-1.43,3.02-1.7,3.02-1.7s-0.64-1.58-2-1.48	c-1.36,0.1-1.22,2.48-3.01,2.93c-1.78,0.45-2.97-0.84-4.3-0.04c-1.33,0.8-1.82,0.98-1.19,2.06c0.63,1.09,1.89,2.67,3.74,2.81	C867.02,79.38,867.44,79.11,867.44,79.11"/><path class="st1" d="M788.9,170.74c0,0-8.34,31.91-36.33,45.34l0.27-9.75c0,0,12.31-4.08,20.1-11.02	C784.35,185.16,788.9,170.74,788.9,170.74"/><path d="M871.02,172.52c0,0-2.97,0.51-5.99,1.1l-4.65,10.83c0,0,16.93,20.52,33.43,29.23l9.78,4.27l1.34-1.54	c0,0-17.92-10.82-22.12-16.13c-4.2-5.32-9.25-9.31-9.25-9.31s1.5-4.3,4.79-9.69L871.02,172.52z" fill="#b5b5b5"/><path class="st0" d="M890.08,166.07c0,0-2.02-4.71-2.58-6.53c-0.56-1.82-1.75-7.28-4.34-7c-2.59,0.28-3.57,2.8-2.87,5.39	c0.7,2.59,2.94,8.54,0.35,9.1c-2.59,0.56-6.71-2.13-9.62-4.71c-2.91-2.57-10.18-8.27-10.18-8.27s-2.32,0.87-2.88,2.13	c-0.56,1.26,0.47,2.97,0.47,2.97s-1.89-0.6-2.93,0.66c-1.04,1.26-1.46,3.46-0.8,4.21c0,0-3.47,2.45-1.23,5.56	c2.25,3.11,5.47,7.38,9.52,10.74c4.06,3.36,6.87,6.28,11.87,7.48c0,0,4.23-8.32,6.4-11.33	C883.44,173.47,890.08,166.07,890.08,166.07"/><path class="st1" d="M663.49 118.08L672.32 149.98 673.89 153.53 677.64 156.6 679.45 157.5 695.78 157.45 702.02 176.79 654.7 176.79 638.48 118.36z"/><path class="st0" d="M871.93,72.96c0,0-6.54,2.4-4.24,5.9c0,0,1.85-0.31,3.11-1.85C872.06,75.46,871.93,72.96,871.93,72.96"/><path class="st0" d="M853.18,51.38c0,0,4.22,1,8.52-0.24c1.07-0.31,2.21-0.8,3.31-1.37c-4.01,1.28-10.82-2.26-10.82-2.26	c0.46-5.69,8.99-10.66,10.09-11.28c-0.37,0-0.74,0.02-1.12,0.04c-6.66,0.46-13.56,8.22-13.52,15.2c0,0,3.34,8.34,3.29,8.13	C852.87,59.4,853.18,51.38,853.18,51.38"/><path class="st0" d="M867.7,83.81c-13.99,0.89-11.83-13.86-11.83-13.86s-0.63,0.1-1.48,0.25c-0.77,0.28-1.26,0.68-1.26,0.68	s-1.29,14.15,8.57,13.49c0,0,5.29,0.24,9.83-0.42C871.04,83.74,869.85,83.67,867.7,83.81"/><path class="st0" d="M874 112.84L869.14 121.31 871.94 128.26 867.78 159.15 866.72 158.19 865.06 151.15 868.38 128.68 865.63 121.31 872.22 109.15z"/><path class="st1" d="M759.55,204.14c0,0-3.87-13.89-18.56-13.21c-14.7,0.68-19,11.6-19,11.6s6.88,5.16,19.26,5.15	C753.64,207.67,759.55,204.14,759.55,204.14"/><path d="M932.3,226.14c-19.4,0-45.09-19.64-59.15-34.88c-0.14-0.15-0.19-0.38-0.11-0.57c0.03-0.08,3.11-8.15,8.33-15.08	c5.5-7.3,9.65-11.29,9.69-11.33c0.17-0.16,0.41-0.2,0.62-0.1c0.27,0.13,27.8,13.4,45.29,28.11c0.23,0.2,0.26,0.55,0.07,0.78	c-0.2,0.23-0.55,0.26-0.78,0.07c-16.31-13.72-41.46-26.2-44.71-27.79c-1,1-4.66,4.77-9.3,10.93c-4.55,6.04-7.44,12.95-8.06,14.49	c21.14,22.8,52.42,41.53,69.06,31.43c23.65-14.36,9.73-48.51-1.46-75.95c-1.95-4.78-3.79-9.29-5.35-13.5	c-0.17-0.45-0.35-0.94-0.54-1.48c-2.26-6.27-6.45-17.96-16.39-24.01c-7.01-4.28-16.9-6.73-27.11-6.73c-0.3,0-0.55-0.25-0.55-0.56	c0-0.31,0.25-0.55,0.55-0.55c10.42,0,20.51,2.51,27.69,6.89c10.27,6.26,14.55,18.18,16.85,24.58c0.2,0.53,0.37,1.03,0.53,1.47	c1.56,4.19,3.39,8.7,5.34,13.47c11.35,27.83,25.47,62.47,1,77.32C940.4,225.22,936.5,226.14,932.3,226.14"/><path d="M874.87,188.36c-7.77-1.2-21.02-15.04-22.39-19.72c-0.71-2.43,0.57-4.04,1.68-4.78c-0.78-1.31-0.59-2.84,0.55-4.05	c0.44-0.47,0.92-0.82,1.43-1.01c0.89-0.35,1.89-0.22,2.97,0.39c0.27,0.15,0.36,0.49,0.21,0.76c-0.15,0.27-0.49,0.36-0.75,0.21	c-0.79-0.44-1.44-0.55-2.02-0.32c-0.35,0.14-0.7,0.39-1.03,0.74c-0.92,0.97-0.97,2.14-0.13,3.11c0.11,0.13,0.16,0.31,0.12,0.48	c-0.04,0.17-0.16,0.31-0.32,0.38c-0.1,0.05-2.43,1.13-1.65,3.79c1.29,4.38,14.22,17.82,21.41,18.93c0.3,0.05,0.51,0.33,0.46,0.63	C875.37,188.17,875.14,188.36,874.87,188.36"/><path d="M870.73,170.45c-0.1,0-0.2-0.03-0.3-0.09c-2.17-1.37-8.02-6.38-9.7-8.05c-0.2-0.2-0.43-0.41-0.68-0.64	c-1.25-1.15-2.96-2.72-2.97-4.53c0-0.9,0.42-1.75,1.26-2.52c2.81-2.6,5.48-0.03,7.07,1.5c0.32,0.31,0.8,0.78,1.36,1.35	c1.75,1.75,4.4,4.4,6.01,5.63c1.44,1.1,5.83,4.43,7.55,3.61c1.24-0.59,1.63-1.73,0.1-6.03c-1.11-3.09-1.21-5.99-0.27-7.56	c0.41-0.69,1.01-1.12,1.74-1.23c3.36-0.52,4.21,2.05,4.92,4.11c0.16,0.47,0.32,0.93,0.5,1.35c0.43,0.98,0.69,2.01,0.98,3.09	c0.47,1.79,0.95,3.63,2.21,5.3c0.19,0.24,0.14,0.59-0.11,0.78c-0.25,0.18-0.59,0.13-0.78-0.11c-1.39-1.84-1.9-3.79-2.39-5.69	c-0.28-1.04-0.53-2.03-0.92-2.93c-0.2-0.44-0.36-0.93-0.53-1.44c-0.8-2.34-1.5-3.72-3.69-3.37c-0.41,0.06-0.72,0.29-0.97,0.7	c-0.75,1.26-0.6,3.92,0.36,6.62c1.36,3.84,1.7,6.28-0.67,7.4c-2.08,0.98-5.56-1.34-8.69-3.74c-1.67-1.27-4.35-3.95-6.12-5.72	c-0.56-0.56-1.03-1.03-1.35-1.34c-2.32-2.24-3.82-3.07-5.55-1.48c-0.61,0.56-0.9,1.12-0.9,1.71c0,1.32,1.51,2.71,2.6,3.71	c0.26,0.24,0.5,0.46,0.71,0.66c1.61,1.59,7.43,6.59,9.51,7.9c0.26,0.16,0.33,0.5,0.17,0.76	C871.1,170.35,870.92,170.45,870.73,170.45"/><path d="M866.98,175.7c-0.12,0-0.24-0.04-0.35-0.12c0,0-2.88-2.33-6.1-4.96c-2.28-1.87-4.89-4.92-5.73-5.91	c-0.2,0.03-0.46-0.06-0.58-0.27c-0.15-0.27-0.05-0.6,0.21-0.75c0.08-0.04,0.15-0.08,0.21-0.1c0.22-0.11,0.6-0.08,0.76,0.12	c0.03,0.04,3.22,3.94,5.83,6.07c3.22,2.64,6.09,4.96,6.1,4.96c0.24,0.19,0.27,0.54,0.08,0.78	C867.3,175.63,867.14,175.7,866.98,175.7"/><path d="M719.7,122.8c-0.08,0-0.16-0.02-0.24-0.05c-0.27-0.13-0.39-0.46-0.26-0.74c0.53-1.09,1.07-3.16,1.55-4.98	c0.33-1.27,0.65-2.47,0.94-3.29c0.64-1.79,1.41-3.96,0.91-5.67c-0.2-0.68-0.64-1.25-1.18-1.51c-0.69-0.34-1.64-0.23-2.42,0.27	c-0.67,0.43-1.25,1.11-1.82,2.14c-0.17,0.31-0.32,0.88-0.48,1.48c-0.42,1.63-1.01,3.85-2.95,4.32c-2.79,0.66-4.86-1.6-6.2-6.71	c-0.54-2.12-1.05-3.95-1.55-5.61c-1.28-4.25-2.57-7.68-4.09-10.78l-0.17-0.34c-0.39-0.82-0.76-1.6-1.45-2.1	c-0.39-0.28-0.92-0.43-1.45-0.39c-0.8,0.05-1.44,0.38-1.87,0.98c-0.63,0.86-0.83,2.28-0.5,3.6c0.68,2.72,4.12,12.17,4.15,12.26	c0.07,0.19,0.03,0.41-0.11,0.56c-0.14,0.15-0.34,0.22-0.54,0.17c-0.02,0-1.86-0.46-3.23,0.46c-0.77,0.52-1.25,1.42-1.42,2.65	c-0.04,0.26-0.25,0.46-0.51,0.48c-0.02,0-1.75,0.14-2.86,1.46c-0.78,0.93-1.08,2.24-0.9,3.89c0.03,0.31-0.19,0.58-0.49,0.61	c-0.36,0.02-0.58-0.19-0.61-0.49c-0.21-1.97,0.18-3.56,1.17-4.73c1.04-1.24,2.47-1.65,3.18-1.79c0.27-1.35,0.88-2.36,1.84-3	c1.07-0.72,2.32-0.8,3.14-0.75c-0.87-2.43-3.29-9.2-3.87-11.51c-0.41-1.65-0.15-3.38,0.68-4.52c0.63-0.87,1.56-1.36,2.7-1.43	c0.79-0.06,1.57,0.16,2.17,0.6c0.91,0.67,1.36,1.61,1.8,2.52l0.16,0.34c1.54,3.16,2.85,6.64,4.15,10.95	c0.5,1.67,1.01,3.52,1.56,5.65c1.15,4.42,2.76,6.43,4.87,5.91c1.29-0.31,1.76-2.09,2.13-3.52c0.18-0.7,0.34-1.3,0.58-1.74	c0.66-1.2,1.36-2.01,2.2-2.54c1.11-0.71,2.45-0.85,3.5-0.34c0.83,0.41,1.47,1.21,1.76,2.2c0.59,2.06-0.28,4.51-0.91,6.3	c-0.3,0.83-0.61,2-0.94,3.25c-0.52,1.96-1.05,3.99-1.62,5.18C720.1,122.68,719.91,122.8,719.7,122.8"/><path d="M697.63,117.26c-0.18,0-0.36-0.09-0.46-0.25c-2.94-4.45-2.91-7.64-2.91-7.78c0-0.31,0.31-0.5,0.56-0.54	c0.3,0.01,0.55,0.26,0.54,0.56c0,0.03-0.01,3.01,2.73,7.14c0.17,0.26,0.1,0.6-0.16,0.77C697.84,117.23,697.74,117.26,697.63,117.26"/><path d="M702.62,112.93c-0.21,0-0.41-0.12-0.5-0.33c-2.29-5.09-2.53-6.6-2.54-6.67c-0.05-0.3,0.16-0.58,0.47-0.63	c0.3-0.03,0.58,0.17,0.63,0.47c0.01,0.05,0.29,1.56,2.45,6.38c0.13,0.28,0,0.61-0.28,0.73	C702.77,112.91,702.69,112.93,702.62,112.93"/><path d="M693.92,127.14c-0.18,0-0.36-0.09-0.47-0.26c-3.58-5.57-3.57-12.1-3.56-12.38c0-0.3,0.25-0.55,0.55-0.55	c0.31,0,0.56,0.25,0.55,0.56c0,0.06,0,6.49,3.39,11.77c0.17,0.26,0.09,0.6-0.16,0.76C694.13,127.11,694.02,127.14,693.92,127.14"/><path d="M866.17,79.8c-1.15,0-2.28-0.32-3.29-0.94c-1.2-0.74-2-1.8-2.09-2.76c-0.07-0.84,0.22-1.55,0.84-2.01	c0.77-0.57,1.93-0.65,3.01-0.21c1.39,0.56,1.54,0.5,1.9,0.36c0.35-0.14,0.51-0.2,1.15-1.56c0.5-1.06,1.4-1.79,2.35-1.9	c0.76-0.06,1.47,0.24,1.98,0.9c0.55,0.7,0.65,1.94,0.27,3.29c-0.56,2.02-1.96,3.65-3.75,4.35C867.77,79.65,866.97,79.8,866.17,79.8 M863.25,74.71c-0.37,0-0.71,0.09-0.95,0.27c-0.31,0.23-0.44,0.57-0.4,1.02c0.04,0.48,0.55,1.29,1.56,1.91	c0.66,0.41,2.43,1.27,4.67,0.39c1.47-0.58,2.63-1.93,3.09-3.62c0.31-1.13,0.18-1.98-0.08-2.32c-0.28-0.36-0.57-0.52-0.98-0.48	c-0.56,0.06-1.14,0.56-1.47,1.26c-0.75,1.61-1.07,1.86-1.74,2.12c-0.66,0.27-1.07,0.3-2.72-0.37	C863.9,74.78,863.56,74.71,863.25,74.71"/><path d="M867.61,79.62c-0.25,0-0.47-0.17-0.54-0.42c-1.04-4.12,2.63-6.24,4.72-6.78c0.29-0.08,0.6,0.1,0.67,0.4	c0.08,0.3-0.1,0.6-0.39,0.68c-0.2,0.05-4.96,1.36-3.92,5.44c0.07,0.3-0.11,0.6-0.4,0.67C867.7,79.62,867.65,79.62,867.61,79.62"/><path d="M855.99,64.36c-0.08,0-0.15-0.01-0.23-0.02c-0.73-0.11-1.63-0.72-1.76-3.01c-0.07-1.2,0.1-2.35,0.1-2.4	c0.05-0.3,0.35-0.5,0.63-0.47c0.3,0.04,0.52,0.33,0.47,0.63c-0.24,1.6-0.17,4.03,0.72,4.16c0.11,0.02,0.23,0.01,0.38-0.11	c0.73-0.57,1.16-2.69,1.27-3.89c0.03-0.3,0.29-0.49,0.6-0.5c0.3,0.03,0.53,0.3,0.5,0.6c-0.03,0.37-0.35,3.61-1.68,4.66	C856.68,64.24,856.34,64.36,855.99,64.36"/><path d="M869.1,64.45c-0.09,0-0.18-0.01-0.26-0.02c-2.32-0.4-1.61-4.94-1.52-5.45c0.05-0.3,0.35-0.51,0.64-0.45	c0.3,0.05,0.5,0.34,0.45,0.64c-0.27,1.59-0.26,4.02,0.62,4.17c0.09,0.02,0.21,0.01,0.36-0.1c0.76-0.57,1.26-2.77,1.41-4.03	c0.03-0.3,0.23-0.53,0.61-0.49c0.3,0.03,0.52,0.31,0.48,0.61c-0.04,0.38-0.46,3.76-1.84,4.79C869.75,64.34,869.43,64.45,869.1,64.45"/><path d="M812.35,118.36c-0.12,0-0.24-0.04-0.35-0.12c-0.24-0.19-0.27-0.54-0.08-0.78c1-1.23,1.9-2.08,3.12-3.13	c12.32-10.6,23.76-12.38,33.85-13.95c0.87-0.13,1.73-0.27,2.57-0.41c0.3-0.06,0.59,0.16,0.64,0.46c0.05,0.3-0.15,0.59-0.45,0.64	c-0.85,0.14-1.71,0.27-2.59,0.41c-9.94,1.55-21.22,3.3-33.3,13.7c-1.17,1.01-2.03,1.82-2.97,2.98	C812.66,118.29,812.51,118.36,812.35,118.36"/><path d="M858.46,133.89c-0.32-0.04-0.5-0.22-0.54-0.44l-6.68-32.44c-0.04-0.19,0.03-0.4,0.18-0.53l9.38-8.12	c0.11-0.1,0.27-0.16,0.43-0.13c0.16,0.02,0.3,0.11,0.39,0.24l10.6,15.68l10.22-15.67c0.08-0.13,0.21-0.22,0.37-0.24	c0.15-0.03,0.31,0.01,0.43,0.1l9.5,7.19c0.17,0.13,0.25,0.34,0.21,0.55l-5.48,26.77c-0.06,0.3-0.35,0.48-0.65,0.43	c-0.3-0.06-0.49-0.36-0.43-0.65l5.41-26.43l-8.75-6.62l-10.17,15.6l11.32,20.52c0.15,0.27,0.05,0.6-0.22,0.75	c-0.26,0.15-0.6,0.05-0.75-0.22l-11.01-19.95l-13.28,23.33C858.84,133.79,858.65,133.89,858.46,133.89 M852.39,101.1l6.31,30.68	l12.87-22.61L861.05,93.6L852.39,101.1z"/><path d="M868.38,129.25c-0.22,0-0.43-0.13-0.51-0.34l-3.08-7.39c-0.12-0.28,0.02-0.61,0.3-0.73c0.3-0.12,0.61,0.01,0.73,0.3	l2.94,7.05l7.56-0.01l2.24-6.73c0.1-0.29,0.4-0.44,0.7-0.35c0.29,0.1,0.45,0.41,0.35,0.7l-2.37,7.11c-0.07,0.23-0.29,0.38-0.53,0.38	L868.38,129.25z"/><path d="M882.9,93.33c-0.29,0-0.54-0.23-0.55-0.53l-1.07-21.3c-0.02-0.31,0.22-0.57,0.53-0.58c0.32,0,0.56,0.23,0.58,0.52	l1.07,21.29c0.02,0.31-0.22,0.57-0.53,0.58C882.92,93.33,882.91,93.33,882.9,93.33"/><path d="M861.16,93.33c-0.31,0-0.56-0.26-0.55-0.56l0.1-8.43c0-0.3,0.25-0.55,0.55-0.55c0.35,0.04,0.56,0.25,0.55,0.56l-0.1,8.43	C861.71,93.09,861.46,93.33,861.16,93.33"/><path d="M865.06,151.7c-0.38-0.05-0.59-0.33-0.55-0.63l3.32-22.45c0.05-0.3,0.29-0.49,0.63-0.47c0.3,0.05,0.51,0.33,0.47,0.63	l-3.32,22.45C865.57,151.5,865.33,151.7,865.06,151.7"/><path d="M878.39,143.07c-0.28,0-0.52-0.21-0.55-0.49l-1.68-13.83c-0.04-0.3,0.18-0.58,0.48-0.62c0.29-0.04,0.58,0.18,0.62,0.48	l1.68,13.83c0.04,0.3-0.18,0.58-0.48,0.62C878.44,143.06,878.41,143.07,878.39,143.07"/><path d="M866.12,158.06c-0.26,0-0.49-0.18-0.54-0.44l-5.75-27.54c-0.06-0.3,0.13-0.59,0.43-0.66c0.29-0.06,0.59,0.13,0.65,0.43	l5.75,27.54c0.06,0.3-0.13,0.59-0.43,0.65C866.2,158.05,866.16,158.06,866.12,158.06"/><path d="M872.52,246.09c-0.3,0-0.55-0.25-0.55-0.55l-0.23-41.32c0-0.31,0.24-0.56,0.55-0.56c0.31,0,0.56,0.25,0.56,0.55l0.23,41.32	C873.07,245.84,872.83,246.09,872.52,246.09L872.52,246.09z"/><path d="M748.54,245.63c-0.47-0.13-0.62-0.44-0.53-0.73c2.53-7.56,3.71-27.14,4.34-37.67l0.06-0.93c0.02-0.31,0.28-0.6,0.59-0.52	c0.3,0.02,0.54,0.28,0.52,0.59l-0.06,0.93c-0.64,10.57-1.82,30.26-4.39,37.95C748.98,245.48,748.77,245.63,748.54,245.63"/><path d="M862.55,84.9c-2.97,0-6.05-0.35-7.96-3.27c-1.96-2.98-1.97-6.87-1.98-10.3c0-0.75,0-1.49-0.03-2.21	c-0.07-2.34,0.28-16.62,0.29-17.22c0.01-0.3,0.25-0.54,0.55-0.54c0.32,0.01,0.56,0.26,0.55,0.57c0,0.15-0.36,14.86-0.29,17.16	c0.02,0.72,0.03,1.47,0.03,2.24c0.01,3.44,0.02,6.99,1.8,9.7c1.89,2.88,5.21,2.82,8.46,2.75c0.41-0.01,0.82-0.02,1.22-0.02	c2.74-0.01,4.97-0.23,7.02-0.7c1.89-0.43,3.84-0.87,4.95-2.5c1.22-1.8,1.47-4.22,1.56-6.13c0.06-1.37,0.03-2.6-0.1-3.74	c-0.36-3.02-0.89-7.71-0.89-7.71c-0.01-0.09,0-0.18,0.03-0.26c0.44-1.18,1.2-2.22,2.17-3.03c1.49-1.23,3.36-1.79,5.3-1.61	c1.92,0.19,3.66,1.12,4.89,2.61c2.53,3.08,2.09,7.66-1,10.19c-2.62,2.15-6.32,2.21-9.01,0.15c-0.24-0.19-0.29-0.53-0.1-0.78	c0.19-0.24,0.53-0.29,0.78-0.1c2.27,1.74,5.41,1.69,7.62-0.13c2.61-2.15,2.99-6.02,0.85-8.63c-2.15-2.62-6.02-2.99-8.63-0.84	c-0.8,0.65-1.41,1.49-1.79,2.44c0.09,0.79,0.54,4.85,0.87,7.57c0.14,1.21,0.17,2.5,0.1,3.92c-0.09,2.06-0.38,4.68-1.75,6.7	c-1.35,2-3.62,2.51-5.62,2.96c-2.12,0.48-4.42,0.71-7.25,0.72c-0.4,0-0.8,0.01-1.21,0.02C863.52,84.89,863.03,84.9,862.55,84.9"/><path d="M853.55,57c-0.08,0-0.16-0.02-0.23-0.05c-0.28-0.13-0.4-0.46-0.27-0.74c0.02-0.03,1.33-2.8,5.28-1.77	c0.3,0.08,0.47,0.38,0.4,0.68c-0.08,0.29-0.38,0.48-0.68,0.4c-3.05-0.8-3.98,1.15-3.99,1.17C853.96,56.88,853.76,57,853.55,57"/><path d="M872.64,57.31c-0.17,0-0.33-0.07-0.44-0.21c-2.57-3.28-5.15-1.74-5.26-1.67c-0.27,0.17-0.6,0.08-0.76-0.17	c-0.16-0.26-0.09-0.6,0.17-0.76c0.03-0.02,3.51-2.18,6.72,1.92c0.19,0.24,0.15,0.59-0.09,0.78	C872.88,57.28,872.76,57.31,872.64,57.31"/><path d="M886.65,69.32c-0.08,0-0.17-0.02-0.25-0.06l-5.19-2.57c-0.16-0.08-0.27-0.23-0.3-0.4c-0.03-0.18,0.03-0.35,0.15-0.48	l4.72-4.83c0.21-0.22,0.56-0.22,0.78-0.01c0.22,0.21,0.22,0.57,0.01,0.78l-4.19,4.28l4.51,2.23c0.27,0.14,0.39,0.47,0.25,0.74	C887.05,69.2,886.86,69.32,886.65,69.32"/><path d="M872.42,42.74c-0.12,0-0.25-0.04-0.35-0.12c-0.24-0.19-0.28-0.54-0.09-0.78l2.72-3.38c0.19-0.23,0.55-0.27,0.78-0.08	c0.24,0.19,0.28,0.54,0.09,0.78l-2.72,3.38C872.75,42.67,872.59,42.74,872.42,42.74"/><path d="M864.8,69.68c-0.15,0-0.29-0.06-0.4-0.17c-0.21-0.22-0.21-0.57,0.02-0.78c1.62-1.55,4.57-1.27,6.96-1.05	c1.02,0.09,1.97,0.18,2.42,0.07c0.64-0.17,1.51-3.79,1.82-7.59l0.41-1.65c-3.89-4.23-4.95-9.32-5.25-11.6	c-2.31,2.06-9.09,7.06-18.76,4.81c-0.3-0.07-0.48-0.37-0.41-0.67c0.07-0.29,0.35-0.47,0.67-0.41c11.3,2.64,18.46-5.22,18.53-5.3	c0.15-0.17,0.4-0.23,0.6-0.15c0.21,0.08,0.36,0.28,0.36,0.5c0,0.07,0.3,7.06,5.26,12.28c0.13,0.14,0.18,0.33,0.14,0.52l-0.47,1.86	c-0.18,2.33-0.84,8.01-2.64,8.48c-0.63,0.17-1.59,0.08-2.8-0.04c-2.05-0.19-4.84-0.44-6.09,0.75	C865.08,69.63,864.94,69.68,864.8,69.68"/><path d="M853.17,71.17c-0.18,0-0.36-0.09-0.47-0.26c-0.17-0.26-0.09-0.6,0.17-0.76c2.06-1.32,4.26-0.55,4.36-0.51	c0.29,0.1,0.44,0.42,0.33,0.71c-0.1,0.29-0.42,0.43-0.71,0.34c-0.02-0.01-1.79-0.62-3.38,0.4	C853.38,71.14,853.28,71.17,853.17,71.17"/><path d="M785.46,107.33c-0.77,0-1.56-0.14-2.32-0.42c-1.27-0.48-2.34-1.32-3.1-2.43c-0.17-0.25-0.11-0.6,0.15-0.77	c0.24-0.18,0.59-0.11,0.77,0.14c0.63,0.92,1.53,1.62,2.58,2.02c2.83,1.07,5.99-0.37,7.07-3.19c0.52-1.37,0.47-2.86-0.13-4.19	c-0.6-1.33-1.69-2.35-3.06-2.87c-1.79-0.68-3.76-0.38-5.27,0.77c-0.23,0.19-0.59,0.14-0.77-0.1c-0.19-0.24-0.14-0.59,0.1-0.78	c1.82-1.39,4.18-1.74,6.33-0.93c1.65,0.62,2.95,1.85,3.68,3.45c0.73,1.6,0.78,3.39,0.16,5.04	C790.64,105.7,788.12,107.33,785.46,107.33"/><path d="M785.92,104.38c-0.17,0-0.34-0.08-0.45-0.23l-2.93-4.02c-0.1-0.15-0.14-0.34-0.08-0.51c0.06-0.17,0.2-0.3,0.37-0.35l5-1.44	c0.31-0.08,0.6,0.08,0.69,0.38c0.08,0.29-0.09,0.6-0.38,0.69l-4.24,1.22l2.46,3.38c0.18,0.25,0.13,0.59-0.12,0.77	C786.15,104.34,786.03,104.38,785.92,104.38"/><path d="M832.32,245.63c-0.28,0-0.52-0.21-0.55-0.5c-0.02-0.2-1.9-19.72-0.51-40.52c0.65-9.8,0.74-22.56,0.28-39.01	c-0.01-0.3,0.23-0.56,0.54-0.57c0.32,0,0.56,0.24,0.57,0.54c0.47,16.49,0.38,29.28-0.28,39.12c-1.38,20.7,0.49,40.14,0.51,40.33	c0.03,0.31-0.2,0.58-0.5,0.61C832.36,245.62,832.34,245.63,832.32,245.63"/><path d="M777.11,116.33c-3.33-0.31-5.71-1.53-7.14-3.64c-2.6-3.85-1.04-9.2-0.97-9.43l4.36-17.79c0.07-0.3,0.35-0.48,0.67-0.41	c0.3,0.07,0.48,0.37,0.41,0.67l-4.36,17.82c-0.02,0.08-1.48,5.11,0.82,8.52c1.23,1.82,3.34,2.88,6.27,3.15	c0.31,0.03,0.53,0.3,0.5,0.6C777.63,116.12,777.39,116.33,777.11,116.33"/><path d="M768.98,100.86c-0.19,0-0.39-0.03-0.59-0.08l-0.41-0.12c-1.15-0.32-1.83-1.53-1.51-2.68l2.86-10.22	c0.33-1.15,1.53-1.83,2.69-1.51l0.41,0.11c0.56,0.16,1.02,0.52,1.31,1.03c0.29,0.51,0.36,1.1,0.2,1.66l-2.87,10.21	C770.82,100.23,769.94,100.86,768.98,100.86 M768.7,99.72c0.54,0.15,1.16-0.17,1.32-0.74l2.87-10.22c0.08-0.27,0.04-0.56-0.1-0.81	c-0.14-0.25-0.37-0.43-0.64-0.51l-0.41-0.12c-0.56-0.17-1.15,0.18-1.32,0.74l-2.86,10.21c-0.16,0.57,0.17,1.16,0.74,1.32	L768.7,99.72z"/><path d="M819.49,171.3c-3.01,0-6.2-0.54-10.02-1.7c-2.82-0.85-5.99-2.06-8.15-4.53c-2.63-3.01-3.55-7.54-2.73-13.46	c0.2-1.46,0.48-2.93,0.75-4.35c0.46-2.44,0.94-4.95,1.03-7.45c0.05-1.36,0.01-3.1-0.82-4.5c-1.43-2.41-4.74-3.37-7.1-3.88	c-0.56-0.12-1.12-0.23-1.69-0.34c-1.7-0.33-3.47-0.68-5.12-1.35c-5.13-2.09-8.94-7.87-9.06-13.75c-0.09-4.26,3.52-7.8,6.93-9.7	c0.28-0.15,0.6-0.05,0.76,0.22c0.15,0.27,0.05,0.6-0.21,0.75c-3.13,1.74-6.44,4.94-6.37,8.71c0.12,5.45,3.64,10.81,8.38,12.74	c1.56,0.63,3.26,0.97,4.92,1.29c0.57,0.11,1.14,0.22,1.71,0.35c2.57,0.56,6.17,1.62,7.82,4.4c0.97,1.65,1.03,3.59,0.97,5.11	c-0.09,2.58-0.58,5.14-1.05,7.61c-0.27,1.41-0.54,2.86-0.74,4.29c-0.77,5.59,0.05,9.82,2.47,12.57c1.98,2.26,4.97,3.39,7.64,4.2	c3.71,1.13,6.8,1.65,9.7,1.65c0.07,0,0.15,0,0.22,0c9.7-0.09,16.99-7.72,16.94-17.74c-0.05-10.69-5.41-21.19-13.31-26.13	c-1.22-0.76-2.56-1.46-3.85-2.13c-3.27-1.7-6.66-3.47-8.77-6.58c-3.48-5.11-2-10.74-0.58-16.19c0.51-1.97,1-3.83,1.26-5.67	c2.32-16.21-5.52-20.37-10.4-21.41c-1.23-0.26-7.59,0.49-11.56,1.06c-0.09,0.01-0.2,0-0.29-0.04c-7.57-3.14-11.51-1.08-12.1-0.74	c-0.5,0.77-4.05,6.45-2.49,11.99c0.98,3.49,3.77,6.27,8.31,8.27c0.28,0.12,0.41,0.45,0.29,0.73c-0.12,0.28-0.45,0.4-0.73,0.28	c-4.86-2.14-7.87-5.17-8.94-8.99c-1.8-6.44,2.53-12.74,2.71-13.01c0.3-0.26,4.53-3.18,13.23,0.38c1.56-0.22,10.02-1.4,11.8-1.02	c5.25,1.12,13.71,5.55,11.26,22.65c-0.27,1.9-0.79,3.88-1.29,5.79c-1.36,5.21-2.77,10.6,0.42,15.29c1.96,2.88,5.07,4.5,8.36,6.22	c1.31,0.68,2.66,1.39,3.92,2.17c8.22,5.13,13.78,16.01,13.83,27.07c0.05,10.65-7.7,18.76-18.04,18.85H819.49z"/><path d="M696.15,158.06h-14.57c-4.48,0-8.45-3.02-9.64-7.33L650.47,73.1c-0.84-3.04-0.23-6.22,1.68-8.73	c1.91-2.51,4.81-3.95,7.96-3.95h119.77c4.48,0,8.44,3.02,9.64,7.34l1.86,6.6c0.08,0.3-0.09,0.6-0.38,0.68	c-0.29,0.07-0.6-0.09-0.68-0.38l-1.86-6.6c-1.06-3.84-4.59-6.52-8.57-6.52H660.11c-2.8,0-5.38,1.28-7.08,3.51	c-1.7,2.23-2.24,5.06-1.5,7.76l21.47,77.62c1.06,3.84,4.59,6.52,8.57,6.52h14.57c0.3,0,0.55,0.25,0.55,0.55	C696.71,157.81,696.46,158.06,696.15,158.06"/><path d="M755.22,158.06h-19.9c-0.3,0-0.55-0.25-0.55-0.55c0-0.31,0.25-0.55,0.55-0.55h19.9c0.3,0,0.55,0.25,0.55,0.55	C755.77,157.81,755.52,158.06,755.22,158.06"/><path d="M780.92,73.51c-0.24,0-0.47-0.16-0.53-0.41c-0.62-2.23-2.52-3.55-5.1-3.55h-6.25c-0.3,0-0.55-0.25-0.55-0.55	c0-0.31,0.25-0.55,0.55-0.55h6.25c3.1,0,5.41,1.63,6.17,4.36c0.08,0.29-0.09,0.6-0.39,0.68C781.02,73.5,780.97,73.51,780.92,73.51"/><path d="M694.35,150.05h-6.79c-3.74,0-7.06-2.52-8.05-6.13l-19.16-69.28c-0.41-1.48-0.11-3.04,0.82-4.27	c0.94-1.23,2.36-1.93,3.9-1.93h84.85c0.3,0,0.55,0.25,0.55,0.55c0,0.31-0.25,0.55-0.55,0.55h-84.85c-1.19,0-2.29,0.54-3.01,1.5	c-0.72,0.95-0.96,2.15-0.64,3.3l19.16,69.28c0.87,3.13,3.74,5.32,6.99,5.32h6.79c0.3,0,0.55,0.25,0.55,0.56	C694.91,149.8,694.66,150.05,694.35,150.05"/><path d="M758.48,150.05H732.4c-0.3,0-0.55-0.25-0.55-0.55c0-0.31,0.25-0.56,0.55-0.56h26.08c0.3,0,0.55,0.25,0.55,0.56	C759.03,149.8,758.78,150.05,758.48,150.05"/><path d="M712.69,83.68h-32.14c-0.3,0-0.55-0.25-0.55-0.55c0-0.31,0.25-0.56,0.55-0.56h32.14c0.3,0,0.55,0.25,0.55,0.56	C713.25,83.43,713,83.68,712.69,83.68"/><path d="M714.76,90.68h-12.74c-0.3,0-0.55-0.25-0.55-0.55c0-0.31,0.25-0.56,0.55-0.56h12.74c0.3,0,0.55,0.25,0.55,0.56	C715.31,90.43,715.06,90.68,714.76,90.68"/><path d="M695.78,90.68h-13.16c-0.3,0-0.55-0.25-0.55-0.55c0-0.31,0.25-0.56,0.55-0.56h13.16c0.3,0,0.55,0.25,0.55,0.56	C696.33,90.43,696.08,90.68,695.78,90.68"/><path d="M769.1,83.68h-32.14c-0.3,0-0.55-0.25-0.55-0.55c0-0.31,0.25-0.56,0.55-0.56h32.14c0.3,0,0.55,0.25,0.55,0.56	C769.65,83.43,769.4,83.68,769.1,83.68"/><path d="M769.26,90.68h-30.24c-0.3,0-0.55-0.25-0.55-0.55c0-0.31,0.25-0.56,0.55-0.56h30.24c0.3,0,0.55,0.25,0.55,0.56	C769.81,90.43,769.57,90.68,769.26,90.68"/><path d="M720.18,104.74H707.1c-0.3,0-0.55-0.25-0.55-0.55c0-0.31,0.25-0.56,0.55-0.56h13.08c0.3,0,0.55,0.25,0.55,0.56	C720.73,104.49,720.48,104.74,720.18,104.74"/><path d="M699.52,104.74h-11.48c-0.3,0-0.55-0.25-0.55-0.55c0-0.31,0.25-0.56,0.55-0.56h11.48c0.3,0,0.55,0.25,0.55,0.56	C700.07,104.49,699.83,104.74,699.52,104.74"/><path d="M715.93,111.74h-6.3c-0.3,0-0.55-0.25-0.55-0.55c0-0.31,0.25-0.55,0.55-0.55h6.3c0.3,0,0.55,0.25,0.55,0.55	C716.48,111.49,716.23,111.74,715.93,111.74"/><path d="M691.21,111.74h-1.11c-0.3,0-0.55-0.25-0.55-0.55c0-0.31,0.25-0.55,0.55-0.55h1.11c0.3,0,0.55,0.25,0.55,0.55	C691.76,111.49,691.52,111.74,691.21,111.74"/><path d="M769.1,104.74h-24.65c-0.3,0-0.55-0.25-0.55-0.55c0-0.31,0.25-0.56,0.55-0.56h24.65c0.3,0,0.55,0.25,0.55,0.56	C769.65,104.49,769.4,104.74,769.1,104.74"/><path d="M769.68,111.74h-23.17c-0.31,0-0.55-0.25-0.55-0.55c0-0.31,0.25-0.55,0.55-0.55h23.17c0.3,0,0.55,0.25,0.55,0.55	C770.23,111.49,769.98,111.74,769.68,111.74"/><path d="M727.54,125.8h-2.79c-0.3,0-0.55-0.25-0.55-0.55c0-0.31,0.25-0.55,0.55-0.55h2.79c0.3,0,0.55,0.25,0.55,0.55	C728.09,125.56,727.84,125.8,727.54,125.8"/><path d="M729.6,132.8h-2.54c-0.3,0-0.55-0.25-0.55-0.55c0-0.31,0.25-0.56,0.55-0.56h2.54c0.3,0,0.55,0.25,0.55,0.56	C730.15,132.55,729.9,132.8,729.6,132.8"/><path d="M780.5,125.8h-28.7c-0.3,0-0.55-0.25-0.55-0.55c0-0.31,0.25-0.55,0.55-0.55h28.7c0.3,0,0.55,0.25,0.55,0.55	C781.05,125.56,780.8,125.8,780.5,125.8"/><path d="M768.91,132.8h-15.05c-0.3,0-0.55-0.25-0.55-0.55c0-0.31,0.25-0.56,0.55-0.56h15.05c0.3,0,0.55,0.25,0.55,0.56	C769.46,132.55,769.21,132.8,768.91,132.8"/><path d="M853.13,60.74c-0.2,0-0.4-0.11-0.5-0.31c-0.38-0.76-3.66-7.48-3.55-9.3c0.03-0.45,0.78-11.12,10.23-14.51	c7.89-2.82,14.28,0.83,15.59,1.66c1.58-0.47,9.62-2.49,12.71,4.41c3.3,7.34,0.97,15.97,0.87,16.34c-0.08,0.29-0.38,0.47-0.68,0.38	c-0.3-0.08-0.47-0.39-0.39-0.68c0.02-0.08,2.32-8.62-0.81-15.58c-3-6.68-11.25-3.85-11.61-3.73c-0.17,0.06-0.35,0.04-0.5-0.07	c-0.06-0.04-6.68-4.59-14.81-1.68c-8.77,3.14-9.48,13.1-9.5,13.53c-0.07,1.15,2.07,5.98,3.44,8.75c0.14,0.28,0.02,0.61-0.25,0.74	C853.29,60.73,853.21,60.74,853.13,60.74"/><path d="M861.7,71.43c-1.03-0.03-2.2-0.15-3.1-0.79c-0.76-0.54-1.22-1.28-1.35-2.13c-0.17-1.16,0.31-2.57,1.27-3.77	c0.86-1.08,1.72-2.26,2.25-3.61c1.05-2.69-0.41-4.67-0.48-4.75c-0.18-0.24-0.14-0.59,0.1-0.78c0.25-0.18,0.59-0.14,0.78,0.1	c0.08,0.1,1.91,2.54,0.63,5.83c-0.58,1.49-1.5,2.75-2.42,3.9c-0.77,0.97-1.16,2.06-1.03,2.93c0.08,0.57,0.37,1.02,0.89,1.38	c0.66,0.47,1.63,0.56,2.48,0.58c0.31,0.01,0.55,0.26,0.54,0.57C862.24,71.19,862,71.43,861.7,71.43"/><path d="M874.81,38.68c-0.44-0.1-0.61-0.4-0.54-0.69c0.02-0.08,0.49-2.12-1.99-4.25c-0.23-0.2-0.26-0.55-0.06-0.78	c0.2-0.23,0.55-0.26,0.78-0.06c3.04,2.6,2.38,5.27,2.35,5.38C875.28,38.52,875.06,38.68,874.81,38.68"/><path d="M876.17,39.08c-0.34-0.02-0.57-0.28-0.55-0.59c0-0.09,0.15-2.14,1.23-3.62c0.18-0.25,0.53-0.3,0.77-0.12	c0.25,0.18,0.3,0.53,0.12,0.77c-0.89,1.21-1.02,3.01-1.02,3.03C876.7,38.86,876.46,39.08,876.17,39.08"/><path d="M904.27,218.5c-0.07,0-0.15-0.01-0.22-0.04l-49.19-21.11c-0.28-0.12-0.41-0.45-0.29-0.73l7.22-16.83	c0.12-0.28,0.44-0.41,0.72-0.29c0.28,0.12,0.41,0.45,0.29,0.73l-7,16.32l48.17,20.67l0.44-1.03c0.12-0.28,0.45-0.41,0.72-0.29	c0.28,0.12,0.41,0.45,0.29,0.73l-0.66,1.54C904.68,218.37,904.48,218.5,904.27,218.5"/><path d="M920.2,181.38c-0.07,0-0.15-0.02-0.22-0.05c-0.28-0.12-0.41-0.45-0.29-0.73l14.2-33.11l-48.17-20.67l-15.01,34.98	c-0.12,0.28-0.44,0.41-0.73,0.29c-0.28-0.12-0.41-0.45-0.29-0.73l15.23-35.49c0.12-0.28,0.44-0.41,0.73-0.29l49.19,21.11	c0.28,0.12,0.41,0.45,0.29,0.73l-14.43,33.62C920.61,181.25,920.41,181.38,920.2,181.38"/><path d="M924.74,245.63c-0.35-0.02-0.58-0.29-0.55-0.59c0.57-7.84,0-20.21,0-20.33c-0.02-0.31,0.22-0.57,0.53-0.58	c0.32,0,0.57,0.23,0.58,0.53c0.01,0.13,0.58,12.56,0,20.46C925.27,245.4,925.03,245.63,924.74,245.63"/><path d="M702.54,218.87h-18.25c-0.25,0-0.47-0.17-0.53-0.41l-6.65-23.97c-0.05-0.17-0.01-0.35,0.09-0.48	c0.1-0.14,0.27-0.22,0.44-0.22h25.62c0.25,0,0.47,0.17,0.53,0.41l4.62,16.63c0.08,0.29-0.09,0.6-0.39,0.68	c-0.29,0.08-0.6-0.09-0.68-0.39l-4.51-16.22h-24.47l6.34,22.86h17.82c0.3,0,0.55,0.25,0.55,0.55	C703.09,218.62,702.84,218.87,702.54,218.87"/><path d="M759.55,204.17c-0.25,0-0.48-0.17-0.54-0.42c-1.76-7.35-9.18-12.29-18.48-12.29c-8.33,0-15.83,4.74-18.23,11.52	c-0.1,0.28-0.42,0.44-0.71,0.34c-0.29-0.1-0.44-0.42-0.34-0.71c2.6-7.33,10.35-12.26,19.28-12.26c9.82,0,17.68,5.28,19.56,13.14	c0.07,0.3-0.11,0.6-0.41,0.67C759.64,204.17,759.6,204.17,759.55,204.17"/><path class="st4" d="M607.94,61.1c-1.44-16.13-7.06-32.27-18.01-44.21C578.98,4.95,562.28-2.21,546.31,0.48	c-15.97,2.69-30.11,16.35-31.19,32.51c-0.57,8.58,2.29,17.1,1.82,25.68c-0.82,14.84-11.45,27.39-23.36,36.27	c-10.27,7.65-21.32,10.4-28.68,20.87c-13.19,18.78-11,40.42-3.2,53.36c2.68,4.45,7.07,8.63,12.34,12.2	c15.12,10.25,34.04,12.9,51.74,8.38c27.48-7.01,52.29-24.34,66.58-46.83C608.96,116.79,610.3,87.6,607.94,61.1z"/><g class="st5"><defs><path id="SVGID_1_" d="M454.91 -0.59H609.33V192.38H454.91z"/></defs><clipPath id="SVGID_2_"><use xlink:href="#SVGID_1_" overflow="visible"/></clipPath><path d="M607.94,61.1c-1.44-16.13-7.06-32.27-18.01-44.21C578.98,4.95,562.28-2.21,546.31,0.48 c-15.97,2.69-30.11,16.35-31.19,32.51c-0.57,8.58,2.29,17.1,1.82,25.68c-0.82,14.84-11.45,27.39-23.36,36.27 c-10.27,7.65-21.32,10.4-28.68,20.87c-13.19,18.78-11,40.42-3.2,53.36c2.68,4.45,7.07,8.63,12.34,12.2 c15.12,10.25,34.04,12.9,51.74,8.38c27.48-7.01,52.29-24.34,66.58-46.83C608.96,116.79,610.3,87.6,607.94,61.1z" clip-path="url(#SVGID_2_)" fill="none" stroke="#000" stroke-miterlimit="10"/></g><path class="st4" d="M493.46,175.01c0,0.63-0.51,1.14-1.14,1.14c-0.63,0-1.14-0.51-1.14-1.14c0-0.63,0.51-1.14,1.14-1.14	C492.95,173.87,493.46,174.38,493.46,175.01z"/><path class="st4" d="M510,194.99c-0.24-0.24-0.24-0.62,0-0.85c0.24-0.24,0.62-0.24,0.85,0c0.24,0.23,0.24,0.62,0,0.85	C510.62,195.22,510.24,195.22,510,194.99z"/><path class="st4" d="M550.06,198.07c-4.1,1.68-8.79,7.56-9.12,12.18c-0.33,4.62,2.11,9.22,5.84,11.97	c3.73,2.75,8.58,3.76,13.19,3.26c3.29-0.36,6.63-1.53,8.86-3.97c2.47-2.7,3.25-6.61,2.88-10.25c-0.5-5.01-3.12-9.87-7.33-12.63	C560.16,195.88,554.38,195.48,550.06,198.07"/><g class="st5"><defs><path id="SVGID_3_" d="M540.4 195.83H572.28V226.10000000000002H540.4z"/></defs><clipPath id="SVGID_4_"><use xlink:href="#SVGID_3_" overflow="visible"/></clipPath><path d="M550.06,198.07c-4.1,1.68-8.79,7.56-9.12,12.18c-0.33,4.62,2.11,9.22,5.84,11.97 c3.73,2.75,8.58,3.76,13.19,3.26c3.29-0.36,6.63-1.53,8.86-3.97c2.47-2.7,3.25-6.61,2.88-10.25c-0.5-5.01-3.12-9.87-7.33-12.63 C560.16,195.88,554.38,195.48,550.06,198.07" clip-path="url(#SVGID_4_)" fill="none" stroke="#000" stroke-miterlimit="10"/></g><path class="st4" d="M581.96,109.29c0,1.13-0.92,2.05-2.05,2.05c-1.13,0-2.05-0.92-2.05-2.05c0-1.13,0.92-2.05,2.05-2.05	C581.04,107.23,581.96,108.15,581.96,109.29z"/><path class="st4" d="M550.16,32.2c0,0.63-0.51,1.14-1.14,1.14c-0.63,0-1.14-0.51-1.14-1.14c0-0.63,0.51-1.14,1.14-1.14	C549.65,31.06,550.16,31.57,550.16,32.2z"/><path class="st0" d="M535.68,92.44c0,0-36.85-1.19-36.85,18.4c0,22.22,7.32,63.85,36.85,63.42c29.53-0.43,34.95-58.81,35.28-61.41	C570.96,112.85,572.5,94.14,535.68,92.44"/><path class="st4" d="M535.68,92.44c0,0-36.85-1.19-36.85,18.4c0,22.22,7.32,63.85,36.85,63.42c29.53-0.43,34.95-58.81,35.28-61.41	C570.96,112.85,572.5,94.14,535.68,92.44z"/><path class="st8" d="M570.07,107.79c0,0.01-0.05,0.05-0.15,0.12c-0.13,0.09-0.28,0.19-0.47,0.31c-0.41,0.28-1.03,0.66-1.85,1.12	c-1.64,0.92-4.08,2.14-7.27,3.24c-3.18,1.1-7.08,2.08-11.49,2.67c-4.41,0.61-9.3,0.83-14.43,0.8c-5.12-0.07-10.01-0.18-14.43-0.73	c-4.42-0.54-8.33-1.6-11.41-2.99c-3.08-1.38-5.31-3.02-6.7-4.28c-0.69-0.64-1.2-1.16-1.53-1.54c-0.15-0.17-0.27-0.31-0.36-0.43	c-0.08-0.1-0.12-0.15-0.11-0.16c0.01,0,0.05,0.04,0.15,0.13c0.11,0.11,0.23,0.24,0.39,0.4c0.34,0.35,0.87,0.86,1.57,1.47	c1.42,1.21,3.64,2.8,6.71,4.13c3.06,1.35,6.94,2.37,11.33,2.88c4.39,0.53,9.27,0.63,14.39,0.69c5.11,0.04,9.98-0.18,14.37-0.76	c4.39-0.57,8.28-1.51,11.45-2.57c3.18-1.06,5.63-2.22,7.29-3.1c0.83-0.44,1.46-0.8,1.88-1.05c0.2-0.11,0.36-0.2,0.49-0.28	C570.01,107.82,570.07,107.79,570.07,107.79"/><path class="st8" d="M547.8,115.19c0.01,0,0.03,0.19,0.05,0.55c0.02,0.36,0.04,0.89,0.04,1.58c-0.01,1.37-0.08,3.37-0.61,5.79	c-0.26,1.2-0.67,2.5-1.26,3.83c-0.59,1.32-1.36,2.7-2.43,3.95c-1.05,1.26-2.38,2.39-3.93,3.29c-0.78,0.44-1.62,0.8-2.51,1.08	c-0.89,0.26-1.82,0.42-2.78,0.47c-1.91,0.06-3.78-0.43-5.34-1.3c-1.58-0.87-2.88-2.04-3.91-3.32c-2.09-2.57-2.98-5.49-3.41-7.9	c-0.41-2.43-0.41-4.44-0.37-5.81c0.02-0.69,0.06-1.22,0.09-1.58c0.03-0.36,0.06-0.55,0.07-0.55c0.01,0,0.02,0.19,0.01,0.55	c0,0.4-0.01,0.93-0.01,1.58c0.01,1.36,0.05,3.35,0.49,5.75c0.46,2.37,1.36,5.23,3.42,7.71c1.01,1.24,2.29,2.37,3.81,3.2	c1.52,0.84,3.3,1.3,5.14,1.24c0.92-0.04,1.81-0.2,2.67-0.45c0.85-0.27,1.67-0.62,2.43-1.04c1.51-0.86,2.81-1.96,3.84-3.18	c1.05-1.21,1.81-2.54,2.41-3.84c0.59-1.3,1.01-2.57,1.28-3.76c0.56-2.37,0.67-4.36,0.74-5.72c0.02-0.65,0.03-1.17,0.04-1.57	C547.78,115.38,547.79,115.19,547.8,115.19"/><path class="st8" d="M556.57,160.46c-0.05,0.02-0.29-0.79-0.91-2.16c-0.63-1.37-1.69-3.29-3.41-5.36c-1.73-2.04-4.16-4.22-7.33-5.82	c-3.15-1.62-7.06-2.53-11.15-2.39c-4.09,0.17-7.92,1.37-10.93,3.23c-3.04,1.84-5.3,4.19-6.87,6.36c-1.56,2.19-2.47,4.19-2.99,5.6	c-0.52,1.41-0.7,2.23-0.75,2.22c-0.01,0,0.03-0.21,0.12-0.6c0.08-0.39,0.24-0.96,0.48-1.68c0.48-1.44,1.36-3.48,2.9-5.72	c1.56-2.22,3.83-4.63,6.91-6.51c3.06-1.9,6.96-3.15,11.12-3.32c4.16-0.14,8.14,0.8,11.34,2.47c3.22,1.65,5.66,3.88,7.38,5.97	c1.71,2.12,2.74,4.08,3.33,5.48c0.29,0.7,0.49,1.25,0.6,1.64C556.52,160.25,556.58,160.45,556.57,160.46"/><path class="st1" d="M569.01,105.93c-3.56-5.82-12.99-12.55-33.34-13.49c0,0-22.8-0.74-32.53,8.48c0,0-1.9,1.98-2.49,3.08	c-0.59,1.1,7.61,10.95,33.95,10.1C561.79,113.23,569.01,105.93,569.01,105.93"/><path class="st8" d="M498.19,71.17c-1.31-2.92-1.94-6.28-1.05-9.35s3.54-5.76,6.73-6.04"/><path class="st9" d="M502.8,55.96c0.04,0.05-0.54,0.49-1.3,1.36c-0.76,0.87-1.75,2.15-2.49,3.74c-0.71,1.62-1.23,3.14-1.55,4.26	c-0.32,1.12-0.47,1.83-0.53,1.82c-0.05-0.01-0.01-0.74,0.24-1.89c0.25-1.15,0.74-2.71,1.46-4.36c0.77-1.65,1.82-2.93,2.65-3.77	C502.12,56.28,502.78,55.92,502.8,55.96"/><path class="st8" d="M571.86,71.17c1.31-2.92,1.94-6.28,1.05-9.35s-3.54-5.76-6.73-6.04"/><path class="st9" d="M567.25,55.96c0.02-0.04,0.68,0.32,1.51,1.16c0.83,0.84,1.88,2.12,2.65,3.77c0.72,1.65,1.21,3.21,1.46,4.36	c0.25,1.15,0.3,1.88,0.24,1.89c-0.06,0.01-0.21-0.7-0.53-1.82c-0.32-1.11-0.85-2.64-1.55-4.26c-0.74-1.59-1.73-2.87-2.49-3.74	C567.78,56.46,567.21,56.02,567.25,55.96"/><path class="st0" d="M501.14,85.69c-3.62-3.65-5.11-8.9-4.11-13.95c2.13-10.74,9.94-30.06,38.65-29.65	c30.12,0.43,35.77,21.28,36.75,31.32c0.4,4.15-0.85,8.29-3.51,11.51c-4.48,5.41-13.99,12.39-33.24,12.38	C516.61,97.3,506.37,90.96,501.14,85.69"/><path class="st4" d="M501.14,85.69c-3.62-3.65-5.11-8.9-4.11-13.95c2.13-10.74,9.94-30.06,38.65-29.65	c30.12,0.43,35.77,21.28,36.75,31.32c0.4,4.15-0.85,8.29-3.51,11.51c-4.48,5.41-13.99,12.39-33.24,12.38	C516.61,97.3,506.37,90.96,501.14,85.69z"/><path class="st8" d="M522.26,43.36c0.01,0,0.07,0.12,0.17,0.36c0.11,0.29,0.25,0.63,0.41,1.05c0.36,0.91,0.86,2.25,1.65,3.81	c0.79,1.55,1.89,3.36,3.6,4.9c1.68,1.52,4.05,2.8,6.7,2.7c2.64-0.08,5-1.3,6.75-2.77c1.75-1.49,2.94-3.24,3.8-4.75	c0.86-1.52,1.42-2.83,1.8-3.73c0.38-0.9,0.59-1.41,0.62-1.4c0.01,0-0.02,0.14-0.1,0.38c-0.08,0.25-0.2,0.61-0.37,1.07	c-0.34,0.92-0.86,2.26-1.7,3.82c-0.84,1.55-2.02,3.35-3.81,4.9c-1.78,1.52-4.21,2.8-6.98,2.89c-1.38,0.05-2.72-0.26-3.9-0.78	c-1.18-0.52-2.21-1.26-3.08-2.05c-1.75-1.6-2.83-3.47-3.6-5.05c-0.76-1.6-1.23-2.95-1.54-3.88c-0.16-0.47-0.27-0.83-0.34-1.08	C522.28,43.5,522.25,43.37,522.26,43.36"/><path class="st1" d="M554.71,84.48c-13.98,3.42-27.62,3.55-40.9,0.15c-4.99-1.28-8.45-5.82-8.45-10.97v-0.19	c0-6.26,5.08-11.34,11.34-11.34h35.29c6.27,0,11.34,5.08,11.34,11.34C563.34,78.68,559.78,83.24,554.71,84.48"/><path class="st0" d="M523.91,75.64c-0.23,1.4-1.54,2.36-2.95,2.13c-1.4-0.23-2.36-1.54-2.13-2.95c0.22-1.4,1.54-2.36,2.95-2.13	C523.18,72.92,524.14,74.24,523.91,75.64"/><path class="st0" d="M553.38,74.15c-0.23,1.4-1.54,2.36-2.95,2.13c-1.4-0.23-2.36-1.54-2.13-2.95c0.22-1.4,1.54-2.36,2.95-2.13	C552.65,71.43,553.61,72.75,553.38,74.15"/><path class="st0" d="M542.07,74.48c0.04-0.02,0.19,0.91-0.38,2.23c-0.29,0.65-0.78,1.38-1.51,1.97c-0.73,0.6-1.72,1.01-2.78,1.09	c-1.07,0.08-2.09-0.18-2.89-0.67c-0.8-0.48-1.36-1.13-1.72-1.73c-0.72-1.23-0.68-2.16-0.64-2.16c0.09-0.02,0.18,0.86,0.94,1.95	c0.38,0.53,0.92,1.1,1.66,1.51c0.73,0.42,1.65,0.63,2.62,0.57c0.97-0.07,1.86-0.43,2.53-0.95c0.68-0.52,1.16-1.16,1.47-1.75	C541.98,75.36,541.98,74.47,542.07,74.48"/><path d="M43.91,245.08h89.48c2.84,0,5.15-2.31,5.15-5.15v-1.32c0-2.84-2.31-5.15-5.15-5.15h-2.65v-5.78c0-2.53-2.06-4.59-4.59-4.59	H97.87l6.89-11.93c0.54-0.94,0.54-2.1,0-3.04l-4.12-7.14l21.93-38.55l0.66,0.03c4.04,0.17,7.87-1.28,10.79-4.08	c2.92-2.8,4.53-6.57,4.53-10.61c0-8.11-6.6-14.7-14.7-14.7c-5.52,0-10.53,3.06-13.07,7.98l-0.3,0.59H66.83l-0.32-0.32	c-1.98-2-4.73-2.97-7.53-2.66l-0.71,0.08l-3.96-6.85c-0.63-1.09-1.81-1.77-3.07-1.77H34.96c-1.26,0-2.44,0.68-3.07,1.77l-5.27,9.13	c-0.17,0.3-0.07,0.68,0.23,0.86c0.15,0.08,0.31,0.11,0.48,0.06c0.16-0.04,0.3-0.15,0.38-0.29l5.27-9.13	c0.41-0.71,1.17-1.15,1.98-1.15h16.29c0.82,0,1.58,0.44,1.98,1.14l3.76,6.52l-1.04,0.51c-3.15,1.56-5.11,4.71-5.11,8.22	c0,3.51,1.96,6.66,5.11,8.22l1.04,0.51l-3.76,6.52c-0.41,0.71-1.17,1.14-1.98,1.14H34.96c-0.81,0-1.57-0.44-1.98-1.14l-5.27-9.14	c-0.17-0.3-0.56-0.4-0.86-0.23c-0.14,0.08-0.25,0.22-0.29,0.38s-0.02,0.33,0.06,0.48l5.27,9.13c0.63,1.09,1.81,1.77,3.07,1.77h16.29	c1.26,0,2.44-0.68,3.07-1.77l3.96-6.85l0.71,0.08c2.8,0.31,5.55-0.65,7.53-2.66l0.32-0.32h15.49c0.35,0,0.63-0.28,0.63-0.63	c0-0.35-0.28-0.63-0.63-0.63H67.93l0.6-1.49c0.86-2.15,0.86-4.62,0-6.76l-0.6-1.49h41.97l-0.33,1.35c-0.56,2.28-0.56,4.78,0,7.05	l0.33,1.35H90.33c-0.35,0-0.63,0.28-0.63,0.63c0,0.35,0.28,0.63,0.63,0.63h20.14l0.3,0.59c0.23,0.45,0.49,0.89,0.77,1.32l0.36,0.56	l-21.94,38.58h-8.04c-1.08,0-2.09,0.58-2.63,1.52l-4.94,8.55c-0.08,0.15-0.11,0.32-0.06,0.48s0.15,0.3,0.29,0.38	c0.3,0.17,0.69,0.07,0.86-0.23l4.94-8.55c0.32-0.55,0.91-0.89,1.55-0.89c3.18,0,5.63-0.01,7.52-0.01c7.03-0.02,7.03-0.02,7.49,0.89	l6.74,11.67c0.32,0.55,0.32,1.23,0,1.79l-6.73,11.66c-0.32,0.55-0.91,0.89-1.55,0.89H81.92c-0.64,0-1.23-0.34-1.55-0.89l-5.3-9.18	c-0.08-0.15-0.22-0.25-0.38-0.29c-0.16-0.04-0.33-0.02-0.48,0.06c-0.3,0.17-0.4,0.56-0.23,0.86l5.45,9.44H51.15	c-2.53,0-4.59,2.06-4.59,4.59v5.78h-2.65c-2.84,0-5.15,2.31-5.15,5.15v1.32C38.76,242.77,41.07,245.08,43.91,245.08 M66.35,152.5	c-1.53,2.06-3.83,3.19-6.27,3.19c-0.85,0-1.71-0.14-2.56-0.42c-3.3-1.09-5.43-4.03-5.43-7.49c0-3.45,2.13-6.39,5.42-7.49	c3.29-1.1,6.75-0.01,8.83,2.75l0.01,0.01c1.03,1.39,1.57,3.03,1.57,4.73C67.92,149.46,67.37,151.14,66.35,152.5 M111.72,142.05	c2.24-4.76,6.89-7.72,12.13-7.72c7.41,0,13.45,6.03,13.45,13.45s-6.03,13.45-13.45,13.45c-4.02,0-7.8-1.78-10.36-4.89	C110.15,152.3,109.47,146.83,111.72,142.05 M98.02,196.46c-0.54-0.94-1.55-1.52-2.63-1.52h-3.98l21.31-37.47l1.01,0.95	c1.73,1.64,3.85,2.85,6.13,3.49l1.34,0.38l-21.29,37.43L98.02,196.46z M47.82,227.68c0-1.84,1.49-3.33,3.33-3.33h75.01	c1.84,0,3.33,1.49,3.33,3.33v5.78H47.82V227.68z M40.02,238.61c0-2.15,1.75-3.9,3.9-3.9h89.48c2.15,0,3.9,1.75,3.9,3.9v1.32	c0,2.15-1.75,3.9-3.9,3.9H43.91c-2.15,0-3.9-1.75-3.9-3.9V238.61z"/><path d="M123.85,141.33c-3.55,0-6.44,2.89-6.44,6.44c0,3.55,2.89,6.44,6.44,6.44c3.55,0,6.44-2.89,6.44-6.44	C130.29,144.22,127.4,141.33,123.85,141.33 M123.85,152.96c-2.86,0-5.19-2.33-5.19-5.18c0-2.86,2.33-5.19,5.19-5.19	c2.86,0,5.19,2.33,5.19,5.19C129.03,150.63,126.71,152.96,123.85,152.96"/><path d="M88.66,202.94c-3.7,0-6.7,3.01-6.7,6.7c0,3.69,3.01,6.7,6.7,6.7c3.69,0,6.7-3.01,6.7-6.7	C95.36,205.95,92.35,202.94,88.66,202.94 M88.66,215.09c-3,0-5.45-2.44-5.45-5.44c0-3,2.44-5.45,5.45-5.45c3,0,5.44,2.44,5.44,5.45	C94.1,212.65,91.66,215.09,88.66,215.09"/></svg>