<svg id="Layer_1" data-name="Layer 1" xmlns="http://www.w3.org/2000/svg" viewBox="0 0 957 269"><defs><style>.cls-1{fill:#ee1944}.cls-2{fill:#fff}.cls-3{fill:#1a1a1a}</style></defs><path class="cls-1" d="M616.37 16.23L612.24 12.08 604.41 9.64 597.86 11.86 592.53 17.58 591.1 23.45 587.47 26.54 585.34 29.98 585.34 36.16 578.35 41.81 575.93 50.08 580.51 61.03 585.3 63.44 584.68 67 584.87 71.5 590.57 76.65 594.11 85.15 599.98 89.16 606.71 89.71 612.97 86.62 616.37 82.48 619.61 86.47 624.79 89.16 629.66 89.71 634.91 87.94 638.51 85.31 640.47 79.4 641.63 75.73 645.19 74.03 647.97 68.85 647.43 63.83 650.75 61.43 655.77 54.24 655.77 45.36 652.56 39.46 648.13 36.18 647.97 31.06 647.33 27.64 641.79 24.42 641.25 20.63 638.51 14.76 632.51 11.01 626.18 10.43 621.23 12.52 616.37 16.23z"/><path class="cls-1" d="M648.88,182.59s10.57-18.39,38.66-19.85l34.38.22s23.07,2.18,29.81,15.68S767.85,212.89,771.4,225s6.88,32.65-.85,44.48h-145s-9.18-4.75-13.89-17.8a132.65,132.65,0,0,1-6.19-23Z"/><path class="cls-2" d="M445.22,132.86l-.62-10.59s-4.12,4.69-6.87,5-3.55.42-5.5-1.93A39.76,39.76,0,0,1,426.15,115c-1.92-4.62-4.08-8.92-6.47-7.83a4.38,4.38,0,0,0-2.33,3.9s-2.17-1.13-3.33-.3-1.64,3.5-1.64,3.5a3.52,3.52,0,0,0-3.37,2.47c-.64,2.48,1.45,10.75,5.23,17.35s6,9.85,6,9.85,1.92-6.19,11.12-8.71,13.82-2,13.82-2Z"/><path class="cls-2" d="M523.07,109.34s7.15,2.55,9-2.39-.87-8.36-3.52-8.66a13.93,13.93,0,0,0-5.87,1.1s-6.73-2.91-11-7.73-4.34-7.25-4.34-7.25l-1.85,15-6.13,2.68s1.79,4.85,3.58,5.27c0,0-2.72,8.36,3.51,11.16s6.27,2.43,6.27,2.43l-.47,5.26,10.64-2.45a14.65,14.65,0,0,1,.13-14.4"/><path class="cls-2" d="M720.34,226.86s-9.27-12.1-12.32-15.3-10.94-5.11-10.94-5.11l-6.48,7L685.89,215l6.48,19.4,6.8-1.12,5.75,8s13.85-9.26,15.42-14.38"/><path class="cls-2" d="M684.56,211.06l4.26-5.05s-5.62,1.09-5.52,1.38,1.26,3.36,1.26,3.36Z"/><path class="cls-2" d="M714.34,155.93l-.82-16.6s7.71,2.07,9.51-4.13-4.07-9-7.19-8.3a11.88,11.88,0,0,0-5.49,3.25,19.54,19.54,0,0,1-1-12.11s-7.83,2-14,1.13-10.08-1.54-10.08-1.54L685,143.2s.18,7.54,7,8.34l.28,5-4.2,6.21.3,23.93L687.22,206h1.6l8.58-10.2,4.22,3.55L697.33,206l3,.88,6-16.93,1.52.84,12.86-28.06Z"/><path class="cls-3" d="M522.94,123.74s-21.17,3-26.41,13.39-5.55,9.07-8.19,20.94-3.67,18.6-10.74,17.73-10.15-7.83-11.84-11.58-14.08-29-14.08-29a27.45,27.45,0,0,0-18.68-.5c-10.3,3.37-13.71,10.83-13.71,10.83s7.27,21.88,11.31,31.23,17.36,34.53,40.51,38.55l11.38-.6s-2.22,15.9-3.48,26.13-5.68,28.59-5.68,28.59l85.55.36L557,251.64s-1.94-24.59-1.41-37,.4-42.54.4-42.54l21.06,16.83s-6.73-18.66-10-23.9L538,129.07s-10.78.85-15.08-5.33"/><path class="cls-2" d="M523.09,108.94s-4,7.91-.66,14.3,14.68,5.83,14.68,5.83,1-8.11,11.93-10.2c0,0,3.21-17.59,3.5-25.82s.35-13.37-3.76-15.92-11.48-6.21-19.24-4.49c0,0-12-3.28-17.24-1.8s-6.41,2.94-6.41,2.94-4.33,11.9-.18,17.86l1.86-6.85S514.11,97.35,522,98.88l1.42.23s6.22-4,9,2.85c0,0,.58,8.75-5.12,8Z"/><path class="cls-2" d="M541.58,132.75a20.9,20.9,0,0,1,1.53,9.69c-.84,7.67-7,11.28-3.69,17s9.48,11.87,20.09,8.71S572,160,573.23,153.53s-2-14.19-6.76-19-12.89-12.4-12.89-12.4-10.69,7.31-12,10.59"/><path fill="#ccc" d="M515.83 121.07L512.77 124.68 512.77 120.6 515.83 121.07z"/><path class="cls-2" d="M537.11,129.07l4.28,3.55s3.71-4.69,6.33-6.26,6.1-3.75,6.1-3.75l-5.2-3.6s-11.3,1.85-11.51,10.06"/><path class="cls-2" d="M556,172.08l38.56,31.83s2.45,3.31.47,5.93-33.25,40.57-33.25,40.57-2.46,1.56-4.15,1.2l-.46-.47s-2.15-23.58-1.72-35.55.55-43.51.55-43.51"/><path class="cls-2" d="M610.07 206.71L601.82 183.34 674.9 183.29 700.18 256.43 626.3 256.62 610.07 206.71z"/><path class="cls-3" d="M684.56 211.06L695.17 198.46 700.18 202.08 690.9 213.9 686.27 214.47 684.56 211.06z"/><path class="cls-3" d="M691.12,182.85l.85,7.68L687.49,199l-.25,6.56s1.37.4,1.61.15,8.55-9.85,8.55-9.85l2.43,1.6-1.53-6.61,5-6.35-6-10.22Z"/><path class="cls-3" d="M684.79,123.52s-6.36-3.09-6.65-8.77,2.64-12.8,10.94-14,15.14-2.38,24.85,4.42c0,0,8.64-.06,10.54,6.78s-4.16,15.8-4.16,15.8a8.26,8.26,0,0,0-4.47-1.25c-2.52.08-6.11,3.61-5.8,3.61s-2.48-5.36-.45-11.82a39.15,39.15,0,0,1-14.75,1.12c-7.44-1-9.72-1.41-9.72-1.41Z"/><path class="cls-3" d="M703.34,138.52s-3.89,2.46-2.56,6.32a2.93,2.93,0,0,1-3.2,1.37c-2-.6-4-1.58-3.47-3.09s2.21-1.48,3.47-1.55,1.65.25,2-1,0-3.43,1.93-3.42,1.86,1.35,1.86,1.35"/><path class="cls-2" d="M699.16 177.38L694.42 183.93 694.42 191.04 688.52 204.99 687.26 204.99 687.22 199.86 691.97 190.53 691.12 182.85 697.33 174.23 699.16 177.38z"/><path class="cls-3" d="M698.79,243.38s8.84,19.5,19.65,26.06l10.85.41s-25.15-20-30.5-26.47"/><path class="cls-2" d="M695.54 198.03L699.74 201.76 702.12 199.24 697.4 195.81 695.54 198.03z"/><path class="cls-3" d="M628.21 189.32L623.05 174.3 645.85 174.3 651 189.32 626.95 189.61 628.21 189.32z"/><path class="cls-2" d="M607.39,200l3,7.37a35.52,35.52,0,0,0,8.43.39c4.47-.35,9-.7,9.44,3.71s-1.39,4.1-1.39,4.1,3.21,1.53,2.93,4.39-1.54,3.58-1.54,3.58a3.84,3.84,0,0,1,2.62,3.24c.42,2.69-3.7,7.11-11.38,6.67s-12-.62-13.5-3.77-3.77-6.81-4.06-12.89-1.29-9.23,5.5-16.79"/><path class="cls-2" d="M684.56,109.55c.42-4.71,5.07-8,6.93-9.1l-2.41.34c-8.3,1.16-11.23,8.27-10.94,13.95s6.65,8.78,6.65,8.78l.33-5.48s2.28.36,9.73,1.41a30.51,30.51,0,0,0,5.18.27c-.11,0-16-4.29-15.47-10.17"/><path class="cls-2" d="M507.57,84.79S514.11,97.35,522,98.88c-2.4-2.27-13.36-12.59-12.22-20.2,1.29-8.62,20.21-5.79,20.21-5.79l-.17-.3-.29,0s-12.06-3.28-17.25-1.8-6.41,2.94-6.41,2.94-4.33,11.9-.18,17.86Z"/><path class="cls-2" d="M530.6,128.3c-10.64-2.42-5.48-18.22-5.48-18.22s-.06-.27-.17-.69l-1.86-.45s-4,7.91-.66,14.3c1.85,3.51,6.08,4.92,9.53,5.48a8.86,8.86,0,0,0-1.36-.42"/><path class="cls-3" d="M465.59 58.13H490.23999999999995V82.78H465.59z"/><path d="M577.05,189.89a.56.56,0,0,1-.53-.4c-2.31-7.59-5.29-14.61-10.29-24.23a.56.56,0,0,1,.24-.75.56.56,0,0,1,.75.24,137.63,137.63,0,0,1,10.36,24.42.56.56,0,0,1-.37.69l-.16,0"/><path d="M512.81,93.61a.55.55,0,0,1-.41-.18,3.87,3.87,0,0,0-4.57-.79.55.55,0,0,1-.75-.24.54.54,0,0,1,.23-.74,5,5,0,0,1,5.91,1,.56.56,0,0,1-.41.94"/><path d="M509.94,95.58c-.44-.07-.74.12-.88,1.72-.15,1.78.32,2.1.72,2.08s.8-.56.79-1.83-.05-1.87-.63-2"/><path d="M526.63,110.63a6.73,6.73,0,0,1-1-.07,6.56,6.56,0,0,1-3.56-1.75.55.55,0,0,1,0-.78.55.55,0,0,1,.79,0,5.53,5.53,0,0,0,2.95,1.45,5.5,5.5,0,1,0-3.34-9,.56.56,0,1,1-.85-.73,6.61,6.61,0,1,1,5,10.92"/><path d="M527.71,107.51a.59.59,0,0,1-.37-.14L523.62,104a.57.57,0,0,1-.18-.48.6.6,0,0,1,.29-.43l4.61-2.45a.55.55,0,0,1,.75.22.57.57,0,0,1-.23.76l-3.9,2.08,3.12,2.81a.56.56,0,0,1-.37,1"/><path d="M515.58,121.48,511,121c-3.68-.67-6.29-2.25-7.8-4.71-2.13-3.48-1.35-7.59-1.07-8.75-.82-.89-3.35-3.81-2.93-5.79a.52.52,0,0,1,.3-.38l5.08-2.5c.21-1.94,1.34-12.08,2.18-14.37a.55.55,0,0,1,.72-.33.57.57,0,0,1,.33.72c-.87,2.35-2.15,14.28-2.16,14.4a.55.55,0,0,1-.31.44l-5.08,2.5c0,1.3,1.72,3.56,2.89,4.76a.56.56,0,0,1,.13.55s-1.33,4.59.87,8.18c1.34,2.17,3.7,3.58,7,4.18l4.47.52a.54.54,0,0,1,.49.61.55.55,0,0,1-.55.49"/><path d="M473.33,270.05c-.46-.13-.62-.45-.52-.74,2.57-7.69,8.5-44.25,9.13-54.58a.53.53,0,0,1,.59-.52.56.56,0,0,1,.52.59c-.63,10.38-6.59,47.13-9.19,54.87a.56.56,0,0,1-.53.38"/><path d="M558.88,270.05a.57.57,0,0,1-.56-.49c0-.36-4.56-36.12-3.17-57,.63-9.51.48-20.75.36-29.78,0-3.44-.08-6.63-.08-9.39,0-1.29,0-2.55,0-3.78a.56.56,0,0,1,.54-.57.54.54,0,0,1,.57.54c0,1.24,0,2.51,0,3.81,0,2.76,0,5.94.08,9.38.13,9,.27,20.31-.36,29.86-1.38,20.78,3.12,56.43,3.17,56.79a.56.56,0,0,1-.48.62h-.07"/><path d="M476.2,215.92c-10.81,0-20.7-4.38-28.73-12.77-8.45-8.83-15.59-20.55-20.65-33.88-2.93-7.54-5.24-14.75-7.93-23.09l-.13-.42a.5.5,0,0,1,0-.34c.11-.35,2.86-8.72,16.27-11.91,12.08-2.86,16.82,1.16,17,1.33a.52.52,0,0,1,.13.17l11,22.14c.63,1.27,1.23,2.62,1.81,3.93,2.16,4.88,4.39,9.93,8.84,12.77a7.46,7.46,0,0,0,5.43,1.31,7.19,7.19,0,0,0,4.4-3.37c1.79-2.85,2.51-6.31,3.21-9.66.23-1,.44-2.09.69-3.1a120.76,120.76,0,0,1,3.94-13.62c2.85-7.69,7.72-13.44,14.06-16.64a59.55,59.55,0,0,1,17.3-5.58.56.56,0,1,1,.21,1.09,58.66,58.66,0,0,0-17,5.48c-6.09,3.07-10.76,8.62-13.52,16a119.33,119.33,0,0,0-3.9,13.49c-.24,1-.46,2-.68,3.07-.72,3.44-1.47,7-3.36,10a8.18,8.18,0,0,1-5.12,3.87,8.52,8.52,0,0,1-6.25-1.46c-4.73-3-7-8.23-9.26-13.26-.59-1.32-1.17-2.64-1.78-3.88l-10.92-22c-.63-.47-5.3-3.55-16-1-11.76,2.8-15,9.87-15.41,11l.08.24c2.68,8.33,5,15.52,7.9,23,5,13.2,12.08,24.79,20.43,33.52s18.76,13,30.13,12.36c12.24-.68,24.72-7.79,32.57-18.54a61.26,61.26,0,0,0,7-12.51,80.82,80.82,0,0,0,3.85-11.84,85.2,85.2,0,0,0,1.65-8.83c.13-1,.28-2.25.34-3.45a.57.57,0,0,1,.59-.52.55.55,0,0,1,.52.59c-.07,1.23-.22,2.47-.35,3.52a84.4,84.4,0,0,1-1.67,9,80.4,80.4,0,0,1-3.91,12,61.92,61.92,0,0,1-7.08,12.73c-8,11-20.84,18.3-33.41,19-.76,0-1.52.06-2.27.06"/><path d="M504.31,111.76a5,5,0,0,1-1.93-.4.54.54,0,0,1-.3-.72.56.56,0,0,1,.72-.3c3,1.26,5.21-1.7,5.23-1.73a.56.56,0,0,1,.91.65,6.08,6.08,0,0,1-4.63,2.5"/><path d="M523.07,99.67c-.18,0-3.74-.28-10.2-5.82-2.94-2.52-4.51-6-5.9-9-.32-.71-.64-1.4-1-2.07a.58.58,0,0,1,.26-.75.57.57,0,0,1,.74.26c.33.68.65,1.39,1,2.1,1.4,3.1,2.86,6.3,5.61,8.66,6.12,5.24,9.48,5.55,9.52,5.55a.56.56,0,0,1,0,1.11"/><path d="M549,119.43c-.43-.09-.61-.39-.54-.69.75-3,4.82-32.53,3-37C549,75.24,540,73.42,537.32,73a19.45,19.45,0,0,0-6.77.24c-.46.11-1.92-.17-5.64-.9a78.83,78.83,0,0,0-8-1.34,17.09,17.09,0,0,0-10.15,2.7c-.86.55-1.57,2.63-1.89,5.55-.54,4.87.08,10.81,1.24,12a.56.56,0,1,1-.79.78c-1.58-1.6-2.09-8.08-1.56-12.89.27-2.37.9-5.4,2.4-6.37A18.53,18.53,0,0,1,517,69.9a76.74,76.74,0,0,1,8.17,1.36c2.25.44,4.8.89,5.22.9a20.15,20.15,0,0,1,7.15-.25c2.83.43,12.28,2.37,15.09,9.43,2,5-2.28,34.76-3,37.66a.55.55,0,0,1-.54.43"/><path d="M697.75,152.91c-5.94,0-11.93-2.27-13.08-7.78a49.56,49.56,0,0,1-.38-6.23l0-1.81c-.08-2.35.29-18.38.31-19.06a.56.56,0,1,1,1.11,0c0,.17-.38,16.69-.31,19l0,1.83a47.73,47.73,0,0,0,.35,6c1.19,5.71,8.45,7.5,14.71,6.74a24.62,24.62,0,0,0,5.15-1.09.55.55,0,0,1,.71.34.56.56,0,0,1-.34.71,25.54,25.54,0,0,1-5.38,1.14,22.64,22.64,0,0,1-2.86.17"/><path d="M714.34,156.49a.55.55,0,0,1-.55-.53l-.83-16.6a.57.57,0,0,1,.53-.59.57.57,0,0,1,.59.53l.82,16.61a.56.56,0,0,1-.53.58Z"/><path d="M716.32,140.51A7.21,7.21,0,0,1,711.9,139a.56.56,0,0,1-.11-.78.57.57,0,0,1,.78-.1,6.16,6.16,0,0,0,9.87-4.29,6,6,0,0,0-1.37-4.51,6.16,6.16,0,0,0-8.66-.85,6.25,6.25,0,0,0-1.85,2.58.56.56,0,0,1-1-.4,7.27,7.27,0,1,1,6.8,9.86"/><path d="M685.22,124.92a.69.69,0,0,1-.24,0,.56.56,0,0,1-.27-.74s1.35-2.82,5.3-1.78a.55.55,0,0,1,.4.68.54.54,0,0,1-.68.39c-3-.79-4,1.16-4,1.18a.55.55,0,0,1-.5.32"/><path d="M704.38,125.23a.56.56,0,0,1-.44-.21c-2.6-3.33-5.16-1.75-5.27-1.68a.56.56,0,1,1-.6-.94s3.53-2.18,6.75,1.93a.56.56,0,0,1-.1.78.54.54,0,0,1-.34.12"/><path d="M698.19,146.61a6.2,6.2,0,0,1-1.81-.27,4.05,4.05,0,0,1-2.75-2.13,2.18,2.18,0,0,1,.3-2.17,3.13,3.13,0,0,1,2.86-1c1.5.19,1.64.09,1.94-.14s.44-.32.7-1.8a3.15,3.15,0,0,1,1.79-2.45,2.16,2.16,0,0,1,2.15.36,3.88,3.88,0,0,1,1.13,3.12,6.5,6.5,0,0,1-2.52,5.2,6.39,6.39,0,0,1-3.79,1.26m-3.51-2.78a3.11,3.11,0,0,0,2,1.45,5.19,5.19,0,0,0,4.63-.83,5.37,5.37,0,0,0,2-4.31,2.89,2.89,0,0,0-.68-2.22,1.06,1.06,0,0,0-1.08-.21,2,2,0,0,0-1.09,1.6c-.32,1.75-.56,2.08-1.14,2.51s-1,.56-2.74.35a2.07,2.07,0,0,0-1.85.57,1,1,0,0,0-.12,1.09"/><path d="M701,145.88a.56.56,0,0,1-.48-.29c-2.09-3.72.93-6.73,2.82-7.8a.55.55,0,0,1,.75.21.56.56,0,0,1-.2.76c-.19.1-4.47,2.6-2.4,6.29a.56.56,0,0,1-.22.76.64.64,0,0,1-.27.07"/><path d="M718.44,137.28a.53.53,0,0,1-.24-.06L713,134.64a.56.56,0,0,1-.3-.41.57.57,0,0,1,.15-.48l4.74-4.84a.56.56,0,0,1,.8.77l-4.21,4.3,4.53,2.24a.56.56,0,0,1-.25,1.06"/><path d="M701.37,127.46c-.44-.06-.74.13-.83,1.73-.11,1.79.36,2.09.76,2.07s.79-.58.74-1.86-.09-1.86-.67-1.94"/><path d="M688.47,127.34c-.44-.08-.74.11-.89,1.7-.17,1.79.29,2.11.69,2.1s.81-.56.81-1.83,0-1.87-.61-2"/><path d="M720.51,128.55a.55.55,0,0,1-.3-.09.56.56,0,0,1-.17-.77c2.82-4.36,6.87-12.51,2.49-18.15a9.39,9.39,0,0,0-4-3,12.4,12.4,0,0,0-2.4-.6l-.38,0c-1.34-.13-1.51-.15-1.67-.49a.56.56,0,0,1,.27-.74.55.55,0,0,1,.47,0c.19,0,.78.1,1,.13l.46,0a12.58,12.58,0,0,1,2.62.66,10.47,10.47,0,0,1,4.46,3.32c4.8,6.18.54,14.83-2.43,19.43a.55.55,0,0,1-.47.26"/><path d="M710.35,109.1a.55.55,0,0,1-.47-.27.55.55,0,0,1,.18-.76c.45-.27,2.75-2.12,4.18-3.29a.56.56,0,1,1,.71.86c-.37.3-3.66,3-4.31,3.38a.51.51,0,0,1-.29.08"/><path d="M690.23,214.46a.61.61,0,0,1-.36-.13.58.58,0,0,1-.07-.79l9.6-11.39-3.87-3.26L685,211.42a.56.56,0,0,1-.86-.72L695,197.75a.62.62,0,0,1,.38-.2.61.61,0,0,1,.41.13l4.71,4a.51.51,0,0,1,.2.38.54.54,0,0,1-.13.4l-10,11.82a.57.57,0,0,1-.43.2"/><path d="M700.18,202.64a.57.57,0,0,1-.36-.13.55.55,0,0,1-.06-.78l1.58-1.88-3.87-3.26-1.58,1.88a.56.56,0,0,1-.79.07.57.57,0,0,1-.06-.79l1.94-2.3a.55.55,0,0,1,.78-.06l4.72,4a.62.62,0,0,1,.2.38.58.58,0,0,1-.13.4l-1.94,2.31a.56.56,0,0,1-.43.19"/><path d="M688.58,223.34a.56.56,0,0,1-.54-.41.57.57,0,0,1,.4-.68,52.37,52.37,0,0,0,5-1.56.55.55,0,1,1,.38,1c-1.91.69-3.39,1.15-5.12,1.6h-.14"/><path d="M685.89,215.5a.55.55,0,0,1-.09-1.1c3-.48,6.66-1.22,8.7-2.6a.55.55,0,0,1,.77.14.56.56,0,0,1-.15.78c-2.22,1.5-6,2.27-9.14,2.78h-.09"/><path d="M690.6,229.22a.56.56,0,0,1-.56-.5.55.55,0,0,1,.5-.61,39.3,39.3,0,0,0,5.14-.81.56.56,0,0,1,.68.4.57.57,0,0,1-.4.68,41.37,41.37,0,0,1-5.31.84h0"/><path d="M683.3,207.94a.54.54,0,0,1-.47-.26.56.56,0,0,1,.18-.77,15.35,15.35,0,0,1,6.18-2,.56.56,0,0,1,.6.52.55.55,0,0,1-.52.59,14.48,14.48,0,0,0-5.68,1.8.51.51,0,0,1-.29.08"/><path d="M720.34,227.07a.51.51,0,0,1-.43-.22c-.11-.13-10.35-13.31-12.92-15.49a21.72,21.72,0,0,0-10.48-4.43.54.54,0,0,1-.49-.61.56.56,0,0,1,.61-.5,22.75,22.75,0,0,1,11.09,4.69c2.65,2.26,12.64,15.12,13.06,15.66a.56.56,0,0,1-.44.9"/><path d="M704.92,241.79a.55.55,0,0,1-.48-.27c-2.49-4.15-5.24-7.69-6-7.73a8.51,8.51,0,0,0-1,.15,22.37,22.37,0,0,1-5.12.46.56.56,0,0,1-.53-.58c0-.31.27-.48.58-.54a19.56,19.56,0,0,0,4.87-.43,7.6,7.6,0,0,1,1.18-.17c1.78,0,5.45,5.78,6.95,8.27a.56.56,0,0,1-.19.76.51.51,0,0,1-.29.08"/><path d="M754.66,248.77a.57.57,0,0,1-.49-.28c-6.3-11-24.95-22.66-32.49-26.26a.56.56,0,0,1,.48-1c8,3.81,26.48,15.34,33,26.72a.56.56,0,0,1-.21.76.54.54,0,0,1-.27.07"/><path d="M729.29,270.41a.61.61,0,0,1-.31-.09,169.83,169.83,0,0,1-31-26.95.56.56,0,1,1,.84-.74,168.48,168.48,0,0,0,30.73,26.76.56.56,0,0,1,.15.78.54.54,0,0,1-.46.24"/><path d="M770.32,270.41a.51.51,0,0,1-.29-.08.55.55,0,0,1-.19-.76,36.76,36.76,0,0,0,4.78-16.66c.88-19.32-6.36-37.34-14.52-55.63-.54-1.22-1.09-2.5-1.66-3.82-3.49-8.15-7.84-18.28-15-23-5.35-3.49-16.87-6.18-22.84-7.21a.56.56,0,0,1-.45-.65.54.54,0,0,1,.64-.45c1.67.29,16.49,3,23.26,7.38,7.44,4.86,11.86,15.17,15.42,23.45.56,1.32,1.11,2.6,1.65,3.8,8.21,18.42,15.5,36.58,14.61,56.15a37.8,37.8,0,0,1-4.94,17.17.56.56,0,0,1-.47.27"/><path d="M700.19,257.18H627a.56.56,0,0,1,0-1.11h72.46L674.66,183.9h-25.5a.56.56,0,1,1,0-1.11h25.9a.56.56,0,0,1,.52.37l25.13,73.28a.55.55,0,0,1-.52.74"/><path d="M626.3,183.9H601.82a.56.56,0,0,1,0-1.11H626.3a.56.56,0,1,1,0,1.11"/><path d="M699.53,243.93a1.89,1.89,0,0,1-1.49-.56c-1.15-1.26-.19-3.82,2.83-7.6a.56.56,0,0,1,.78-.09.57.57,0,0,1,.09.79c-2.93,3.66-3.38,5.6-2.88,6.16.94,1,6.54-1.44,13.56-7.8s10-11.7,9.09-12.73c-.53-.58-1.85-.28-4,.9a.54.54,0,0,1-.75-.22.55.55,0,0,1,.22-.75c2-1.08,4.19-2,5.4-.68,2,2.16-3.13,8.83-9.16,14.3-5,4.5-10.68,8.28-13.64,8.28"/><path d="M648.88,183.68a.56.56,0,0,1-.31-.09.55.55,0,0,1-.16-.77c5.74-8.67,15.42-18.86,39.62-20.64a.56.56,0,0,1,.08,1.11C664.39,165,654.93,175,649.34,183.43a.56.56,0,0,1-.46.25"/><path d="M692.55,156.67a.56.56,0,0,1-.56-.48l-.56-4.59a.57.57,0,0,1,.49-.62.55.55,0,0,1,.62.49l.56,4.58a.55.55,0,0,1-.49.62h-.06"/><path d="M736.83,231.3a.57.57,0,0,1-.56-.56c.14-15.46-9-31.35-9.06-31.51a.54.54,0,0,1,.2-.76.55.55,0,0,1,.76.2c.09.16,9.35,16.31,9.21,32.07a.56.56,0,0,1-.55.56"/><path d="M684.79,124.08a.56.56,0,0,1-.27-.08c-.11-.06-10.53-6.08-5.86-15.7,1.92-4,6.14-7,11.56-8.42a29.83,29.83,0,0,1,24.23,4.87.56.56,0,0,1,.13.78.55.55,0,0,1-.77.13,28.67,28.67,0,0,0-23.32-4.7c-5.1,1.31-9,4.16-10.83,7.83-4.22,8.68,5,14,5.41,14.24a.56.56,0,0,1-.28,1"/><path d="M710.35,130.71a.55.55,0,0,1-.49-.3c-2.16-4.12-1.39-9.52-1-11.69-15.85,4-26.46-1.36-27.11-2.08a.57.57,0,0,1,.05-.79.55.55,0,0,1,.74,0c.3.19,10.69,5.91,26.92,1.57a.56.56,0,0,1,.7.61c-.2.8-1.78,7.25.64,11.87a.56.56,0,0,1-.24.75.58.58,0,0,1-.26.06"/><path d="M411,128.22H383.89a.56.56,0,0,1,0-1.11H411a.56.56,0,0,1,0,1.11"/><path d="M467.86,241.07H394.93a14.05,14.05,0,0,1-14.16-13.91V183.08a.56.56,0,0,1,1.12,0v44.08a12.92,12.92,0,0,0,13,12.78h72.93a.57.57,0,0,1,0,1.13"/><path d="M603.75,241.07H577a.57.57,0,0,1,0-1.13h26.75a.57.57,0,0,1,0,1.13"/><path d="M653.82,172.53a.56.56,0,0,1-.56-.56V120.14a.56.56,0,0,1,1.12,0V172a.56.56,0,0,1-.56.56"/><path d="M627,257.18a.56.56,0,0,1-.52-.38l-7.91-23.06a.55.55,0,0,1,.35-.7.54.54,0,0,1,.7.34l7.91,23.06a.56.56,0,0,1-.53.74"/><path d="M610.07,207.94a.56.56,0,0,1-.53-.37l-8.24-24a.56.56,0,0,1,.34-.71.57.57,0,0,1,.71.34l8.25,24.05a.57.57,0,0,1-.35.71l-.18,0"/><path d="M617,234.11c-4.81,0-8.64-1.09-10.44-3.13a19.11,19.11,0,0,1-3.7-7,40.15,40.15,0,0,1-1.79-14.1c.29-5.22,5.71-10,5.94-10.24a.56.56,0,1,1,.74.84s-5.3,4.71-5.57,9.47a38.88,38.88,0,0,0,1.74,13.7,17.87,17.87,0,0,0,3.47,6.63c1.91,2.16,7.63,3.66,16.12,2.15,2.55-.45,7.05-2.69,6.48-6a3,3,0,0,0-1.73-2.22.55.55,0,0,1-.26-.74.55.55,0,0,1,.73-.27,4.08,4.08,0,0,1,2.35,3c.68,4-4,6.72-7.37,7.32a38.59,38.59,0,0,1-6.71.62"/><path d="M619.41,217.37a70.39,70.39,0,0,1-10.12-.57.54.54,0,0,1-.36-.69.55.55,0,0,1,.7-.36c.94.3,11.59.79,14,.3l.4-.09c1-.19,2.57-.5,3.06-1.4a4.46,4.46,0,0,0,.28-3.88,4.76,4.76,0,0,0-2.53-2.37,5.93,5.93,0,0,0-3.28-.2l-.9.1c-11.45,1-13.69-1.42-13.91-1.7a.55.55,0,0,1,.85-.71c.07.07,2.29,2.23,13,1.3l.87-.1a7,7,0,0,1,3.88.3,5.81,5.81,0,0,1,3.08,2.94,5.56,5.56,0,0,1-.32,4.85c-.74,1.36-2.6,1.73-3.82,2l-.4.07a26.93,26.93,0,0,1-4.4.24"/><path d="M616.37,226.08c-3.73,0-6.69-.23-6.74-.23a.56.56,0,0,1-.51-.6.54.54,0,0,1,.6-.51c.09,0,9,.7,15.29-.34,2.28-.38,4.55-2,4.15-4.74a5.52,5.52,0,0,0-2.62-3.59.56.56,0,0,1-.2-.76.57.57,0,0,1,.76-.19,6.55,6.55,0,0,1,3.16,4.37c.52,3.47-2.27,5.54-5.07,6a56.67,56.67,0,0,1-8.82.59"/><path d="M626.3,270.41a.57.57,0,0,1-.25-.06c-13.92-7-18.54-28.61-20.51-37.84-.34-1.61-.61-2.89-.85-3.69a.56.56,0,0,1,1.07-.31c.25.84.52,2.13.87,3.77,1.94,9.07,6.48,30.33,19.92,37.08a.55.55,0,0,1,.25.74.56.56,0,0,1-.5.31"/><path d="M558.27,252.14a5.63,5.63,0,0,1-.71,0,.5.5,0,0,1-.44-.55.53.53,0,0,1,.55-.44,5.15,5.15,0,0,0,4.58-1.85l16.44-20.08a.5.5,0,0,1,.71-.07.5.5,0,0,1,.07.7L563,249.9a6.15,6.15,0,0,1-4.75,2.24"/><path d="M588.37,218.65a.51.51,0,0,1-.32-.12.49.49,0,0,1-.06-.7l6-7.32a5.18,5.18,0,0,0-.73-7.26l-37.7-30.87a.52.52,0,0,1-.07-.71.51.51,0,0,1,.71-.06l37.7,30.87a6.17,6.17,0,0,1,.86,8.66l-6,7.33a.53.53,0,0,1-.39.18"/><path d="M537.11,129.63c-7.45-.06-12.45-2.06-14.88-6-3.83-6.14.17-14.62.34-15a.55.55,0,1,1,1,.48c0,.08-3.9,8.28-.39,13.91,2.21,3.55,6.9,5.37,13.93,5.43a.56.56,0,0,1,0,1.11"/><path d="M541.45,133.6a.54.54,0,0,1-.36-.14l-4.36-4a.48.48,0,0,1-.14-.2c-.12-.28-1-2.88,4.7-7.72,4-3.38,7.62-3.25,7.78-3.25a.64.64,0,0,1,.3.11l4.78,3.46a.55.55,0,0,1,.22.52.55.55,0,0,1-.35.45s-2.12.84-6.8,4.62-5.22,5.7-5.22,5.72a.57.57,0,0,1-.39.38.41.41,0,0,1-.16,0m-3.84-4.82,3.66,3.34c.54-1,1.9-2.82,5.25-5.52a43.1,43.1,0,0,1,6.23-4.36l-3.89-2.81a11.52,11.52,0,0,0-6.85,3c-4.42,3.78-4.46,5.91-4.4,6.38"/><path d="M512.3,127.1a.56.56,0,0,1-.55-.6l.46-5.62a.52.52,0,0,1,.6-.51.56.56,0,0,1,.51.6l-.47,5.62a.55.55,0,0,1-.55.51"/><path d="M554.8,169.54a17.83,17.83,0,0,1-13.9-6.5c-3.23-4.07-3.7-8.78-1.23-12.3,5.64-8.05,1.33-17.36,1.29-17.46a.55.55,0,1,1,1-.47c0,.09,4.63,10-1.38,18.57-2.17,3.1-1.72,7.3,1.19,11,3.83,4.83,11.59,8.13,20.27,4.63,6-2.43,9.79-7,10.57-12.87,1.29-9.75-5.68-21.17-19.12-31.33a.54.54,0,0,1-.11-.77.55.55,0,0,1,.78-.11c13.77,10.41,20.9,22.2,19.55,32.35-.84,6.29-4.83,11.18-11.25,13.77a20.44,20.44,0,0,1-7.66,1.53"/><path d="M420.27,144.14a.55.55,0,0,1-.41-.19c-6.1-6.94-12.07-22.38-11.59-26.45a4.14,4.14,0,0,1,3.43-3.76,3.26,3.26,0,0,1,2.09-3.52,4.51,4.51,0,0,1,1.72-.38,3.38,3.38,0,0,1,2.59,1.53.57.57,0,0,1,.11.29l2.62,31.88a.57.57,0,0,1-.34.56.54.54,0,0,1-.22,0M415.43,111a3.15,3.15,0,0,0-1.19.28,2.17,2.17,0,0,0-1.33,2.82.59.59,0,0,1-.08.5.55.55,0,0,1-.44.23,3.11,3.11,0,0,0-3,2.85c-.41,3.56,4.77,17.07,10.2,24.21l-2.45-29.92a2.25,2.25,0,0,0-1.64-1h-.05"/><path d="M436.31,128.39l-.37,0a5.08,5.08,0,0,1-2.26-1l-9.1-1a.55.55,0,0,1-.39-.23,100,100,0,0,1-5.81-11.24c-.1-.27-.23-.55-.37-.86-.71-1.55-1.67-3.67-1-5.34a3.47,3.47,0,0,1,2.16-1.85c3.6-1.3,5,2,5.94,4.16.17.41.42,1,.71,1.76a82.11,82.11,0,0,0,3.36,7.58,24.35,24.35,0,0,0,4.89,5.92l3.69.4a.54.54,0,0,1,.46.36.56.56,0,0,1-.13.58,2.46,2.46,0,0,1-1.81.78M425,125.29l7.24.78a30.6,30.6,0,0,1-4-5.17,83.38,83.38,0,0,1-3.42-7.72c-.29-.72-.53-1.33-.71-1.73-1.27-3-2.32-4.34-4.54-3.55a2.33,2.33,0,0,0-1.5,1.23c-.52,1.22.33,3.09.95,4.45.14.32.28.62.39.9A103,103,0,0,0,425,125.29"/><path d="M445.22,133.42a.56.56,0,0,1-.53-.41c-.86-3.2-.67-6.69-.5-9.77l.07-1.3a.56.56,0,0,1,.56-.53.57.57,0,0,1,.56.54l.4,10.89a.55.55,0,0,1-.47.57h-.09"/><path d="M419.11,129.76a.55.55,0,0,1-.49-.3s-1.75-3.28-3.69-7a54.05,54.05,0,0,1-3.09-8.1l.25-.08,0-.62.22,0a.7.7,0,0,1,.64.41,53.51,53.51,0,0,0,3,7.9c1.93,3.69,3.68,7,3.68,7a.55.55,0,0,1-.23.75.48.48,0,0,1-.26.07"/><path d="M692.4,139.88a4.43,4.43,0,0,1-3.75-1.63,3.25,3.25,0,0,1-.52-2.74c.12-.37.47-.53,1-.79.92-.42,2.31-1.05,2.71-2.43.58-2,.71-8.71.71-8.78a.6.6,0,0,1,.57-.55.57.57,0,0,1,.55.57c0,.28-.14,6.91-.76,9.07-.54,1.87-2.35,2.69-3.32,3.13-.17.08-.37.17-.47.23a2.15,2.15,0,0,0,.38,1.64,3.44,3.44,0,0,0,2.86,1.17.56.56,0,0,1,.54.57.55.55,0,0,1-.55.54"/><path d="M651,189.89H628.21a.56.56,0,0,1,0-1.12H651a.56.56,0,1,1,0,1.12"/><path d="M645.85,174.86H623.57a.56.56,0,0,1,0-1.11h22.28a.56.56,0,1,1,0,1.11"/><path d="M651,189.89a.56.56,0,0,1-.52-.38l-5.16-15a.55.55,0,0,1,.35-.7.56.56,0,0,1,.71.34l5.15,15a.57.57,0,0,1-.34.71l-.19,0"/><path d="M628.21,189.89a.57.57,0,0,1-.53-.38l-5.15-15a.56.56,0,0,1,1.05-.36l5.16,15a.57.57,0,0,1-.35.71l-.18,0"/><path d="M707.55,192a.57.57,0,0,1-.48-.27l-9.81-16.41-8.74,12.13a.55.55,0,0,1-.62.2.56.56,0,0,1-.39-.53V162.74a.57.57,0,0,1,.1-.31l4.48-6.62a.55.55,0,0,1,1,.17l4.5,17.16,16.36-17.58a.52.52,0,0,1,.4-.18.55.55,0,0,1,.41.17l6.35,6.81a.57.57,0,0,1,.1.61l-13.14,28.66a.56.56,0,0,1-.48.33h0M698,174.34l9.5,15.87L720,162.84l-5.69-6.09Zm-9.36-11.43v22.45l8.07-11.21-4.38-16.7Z"/><path d="M700.32,207.45c-.45-.12-.62-.43-.53-.72,2.75-8.85,4.76-14.78,6-17.63a.55.55,0,0,1,.73-.29.57.57,0,0,1,.29.74c-1.23,2.81-3.24,8.7-6,17.5a.58.58,0,0,1-.54.4"/><path d="M687.22,206.22a.56.56,0,0,1-.56-.57c.35-13.31,1.63-19.7,1.65-19.76a.53.53,0,0,1,.65-.44.55.55,0,0,1,.43.66c0,.06-1.27,6.37-1.62,19.57a.55.55,0,0,1-.55.54"/><path d="M698.3,192l-6.38-.6a.57.57,0,0,1-.51-.51l-.66-8.22a.56.56,0,0,1,.51-.6.54.54,0,0,1,.6.51l.63,7.75,5.54.53,4.87-6.76a.57.57,0,0,1,.78-.12.55.55,0,0,1,.13.77l-5.06,7a.56.56,0,0,1-.45.23"/><path d="M687.45,200.42a.53.53,0,0,1-.24-.06.55.55,0,0,1-.25-.75l4.51-9.06a.56.56,0,0,1,1,.5L688,200.11a.56.56,0,0,1-.5.31"/><path d="M700,198.58a.56.56,0,0,1-.54-.41l-1.73-6.63a.54.54,0,0,1,.4-.67.56.56,0,0,1,.68.39l1.73,6.63a.54.54,0,0,1-.4.67.34.34,0,0,1-.14,0"/><path d="M634.71,132H592.62a.56.56,0,1,1,0-1.11h42.09a.56.56,0,1,1,0,1.11"/><path d="M634.71,143H592.62a.56.56,0,1,1,0-1.11h42.09a.56.56,0,1,1,0,1.11"/><path d="M634.71,153.37H592.62a.56.56,0,1,1,0-1.11h42.09a.56.56,0,1,1,0,1.11"/><path d="M484.5,78.42H459.85a.56.56,0,0,1-.56-.56V53.21a.56.56,0,0,1,.56-.56H484.5a.56.56,0,0,1,.56.56V77.86a.56.56,0,0,1-.56.56m-24.09-1.11H484V53.77H460.41Z"/><path d="M656.92,207.45H628.83a.56.56,0,1,1,0-1.12h28.09a.56.56,0,1,1,0,1.12"/><path d="M660.85,215.5H632.76a.56.56,0,1,1,0-1.11h28.09a.56.56,0,1,1,0,1.11"/><path d="M664.77,223.67H636.68a.56.56,0,1,1,0-1.12h28.09a.56.56,0,0,1,0,1.12"/><path d="M651.63,270a.56.56,0,0,1-.56-.56v-13a.56.56,0,1,1,1.11,0v13a.56.56,0,0,1-.55.56"/><path d="M90.7,238.93a5.74,5.74,0,0,0,0,11.48.47.47,0,0,0,.46-.46.46.46,0,0,0-.46-.46,4.82,4.82,0,1,1,0-9.64.46.46,0,0,0,.46-.46.47.47,0,0,0-.46-.46"/><path d="M48.15,260.92a.46.46,0,0,0,.46-.46.47.47,0,0,0-.46-.46,4.82,4.82,0,1,1,0-9.63.46.46,0,0,0,0-.92,5.74,5.74,0,0,0,0,11.47"/><path d="M90.7,253.6a9,9,0,0,0,8.93-8.93V198.61a.45.45,0,0,0-.55-.45L56.53,206.6a.46.46,0,0,0-.37.45v44.12l-.4-.66a8.94,8.94,0,1,0,1.32,4.68V216.67l41.63-8.26v32.24L98.3,240a8.93,8.93,0,1,0-7.6,13.61m-42.55,9.6a8,8,0,1,1,8-8,8,8,0,0,1-8,8m8.93-47.47v-8.3l41.63-8.26v8.3ZM90.7,236.66a8,8,0,1,1-8,8,8,8,0,0,1,8-8"/><path d="M920,175.19l3.21-11.74a4.83,4.83,0,0,0-3.38-5.93l-74.22-20.3a4.76,4.76,0,0,0-1.28-.18,4.84,4.84,0,0,0-4.65,3.56l-3.19,11.68-21.64,40.95a4.84,4.84,0,0,0,2,6.52l68,36a4.83,4.83,0,0,0,6.52-2l21.67-41a.53.53,0,0,0,0-.41.55.55,0,0,0-.26-.32l-71.25-37.66,77.72,21.26a.53.53,0,0,0,.41-.06.52.52,0,0,0,.26-.32m-79.27-34.3a3.71,3.71,0,0,1,4.59-2.62l74.22,20.3a3.34,3.34,0,0,1,.76.3,3.77,3.77,0,0,1,1.87,4.29l-1.25,4.55-81.44-22.27Zm49.72,92.3h0a3.69,3.69,0,0,1-2.2,1.82,3.57,3.57,0,0,1-1.11.17,3.67,3.67,0,0,1-1.74-.43l-68-36a3.76,3.76,0,0,1-1.56-5.06L834,159.36l.39.2,74.25,39.26Zm21.42-40.51-2.74,5.18-8.3-4.39,7.92-2.44Zm-4.48-2.37-7.92,2.44-11.77-6.22,7.92-2.45Zm-13.13-6.94-7.92,2.44-11.77-6.23,7.91-2.44Zm-13.13-6.94-7.92,2.44-11.78-6.23,7.92-2.44Zm-13.13-7-7.92,2.44-11.78-6.22,7.92-2.44Zm-13.14-6.94L846.92,165l-11.77-6.22,7.92-2.44Zm-13.13-6.94-6.88,2.12,2.38-4.5Zm-4.07-3.5,1.33-4.88,3.55,6.21Zm6.36,1.74-4.08-7.15,12.84,3.51,4.08,7.15Zm14.33,3.92-4.09-7.15,12.85,3.51,4.08,7.15Zm14.32,3.92-4.08-7.16L881.42,158l4.08,7.15ZM887,165.6l-4.08-7.16L895.75,162l4.08,7.15Zm14.33,3.92-4.08-7.16,12.85,3.52,4.08,7.15Zm17.77,4.86-3.44-.94-4.08-7.16,9.05,2.48Z"/><path d="M849.86,190.57a13.58,13.58,0,1,0,12-7.23,13.58,13.58,0,0,0-12,7.23m17.84-4.7a12.49,12.49,0,1,1-16.88,5.21,12.51,12.51,0,0,1,16.88-5.21"/><path class="cls-1" d="M860.5,189.7l-5.36,10.15a.52.52,0,0,0,0,.54.63.63,0,0,0,.21.19.54.54,0,0,0,.27.07l11.48-.43a.56.56,0,0,0,.46-.29.55.55,0,0,0,0-.54l-6.11-9.72a.55.55,0,0,0-.46-.26h0a.56.56,0,0,0-.46.29"/><path d="M878.81,206.49h0l14.56,7.69a.54.54,0,0,0,.74-.22.53.53,0,0,0-.23-.73l-14.56-7.7a.47.47,0,0,0-.25-.07.56.56,0,0,0-.49.29.56.56,0,0,0,0,.42.52.52,0,0,0,.26.32"/><path d="M844.8,187.28l-14.57-7.7a.54.54,0,0,0-.73.23h0a.54.54,0,0,0,.23.73l14.56,7.7a.54.54,0,0,0,.77-.64.55.55,0,0,0-.26-.32"/><path d="M403.82,82h2.52a3.22,3.22,0,0,0,3.21-3.22V74.85a3.14,3.14,0,0,0-.95-2.27l-.55-.55.55-.54a3.17,3.17,0,0,0,.95-2.28V65.28a3.15,3.15,0,0,0-.89-2.21l-.5-.53.5-.53a3.17,3.17,0,0,0,.89-2.22V55.87a3.17,3.17,0,0,0-.89-2.22l-.5-.53.5-.53a3.15,3.15,0,0,0,.89-2.21V46.45a3.17,3.17,0,0,0-.89-2.21l-.5-.53.5-.53a3.17,3.17,0,0,0,.89-2.21V37a3.22,3.22,0,0,0-3.21-3.22H388.71A3.22,3.22,0,0,0,385.5,37V41a3.17,3.17,0,0,0,.89,2.21l.5.53-.5.53a3.17,3.17,0,0,0-.89,2.21v3.93a3.15,3.15,0,0,0,.89,2.21l.5.53-.5.53a3.17,3.17,0,0,0-.89,2.22v3.92a3.17,3.17,0,0,0,.89,2.22l.5.53-.5.53a3.15,3.15,0,0,0-.89,2.21v3.93a3.21,3.21,0,0,0,.95,2.28L387,72l-.55.55a3.19,3.19,0,0,0-.95,2.27v3.93A3.22,3.22,0,0,0,388.71,82h9.56a.43.43,0,0,0,0-.85h-9.56a2.37,2.37,0,0,1-2.36-2.37V74.85a2.36,2.36,0,0,1,2.36-2.36h17.63a2.36,2.36,0,0,1,2.36,2.36v3.93a2.37,2.37,0,0,1-2.36,2.37h-2.52a.43.43,0,0,0,0,.85M386.35,41V37a2.37,2.37,0,0,1,2.36-2.37h17.63A2.37,2.37,0,0,1,408.7,37V41A2.36,2.36,0,0,1,407,43.23l-.15.05-.16,0-.36,0H388.71l-.36,0-.16,0-.15-.05A2.37,2.37,0,0,1,386.35,41m0,9.41V46.45A2.37,2.37,0,0,1,388,44.19l.15,0,.16,0,.36,0h17.63l.36,0,.16,0,.15,0a2.36,2.36,0,0,1,1.69,2.26v3.93A2.38,2.38,0,0,1,407,52.65l-.15,0-.16,0-.36,0H388.71l-.36,0-.16,0-.15,0a2.39,2.39,0,0,1-1.69-2.27m0,9.41V55.87A2.39,2.39,0,0,1,388,53.6l.15-.05.16,0a2.17,2.17,0,0,0,.36,0h17.63a2.17,2.17,0,0,0,.36,0l.16,0,.15.05a2.38,2.38,0,0,1,1.69,2.27v3.92A2.37,2.37,0,0,1,407,62.06l-.15,0-.16,0a2.17,2.17,0,0,0-.36,0H388.71a2.17,2.17,0,0,0-.36,0l-.16,0-.15,0a2.38,2.38,0,0,1-1.69-2.27m20,11.78H388.71a2.36,2.36,0,0,1-2.36-2.36V65.28A2.39,2.39,0,0,1,388,63l.15,0,.16,0,.36,0h17.63l.36,0,.16,0,.15,0a2.38,2.38,0,0,1,1.69,2.27v3.93a2.36,2.36,0,0,1-2.36,2.36"/><path d="M360.86,82h17.63a3.22,3.22,0,0,0,3.21-3.22V74.85a3.19,3.19,0,0,0-.95-2.27L380.2,72l.55-.54a3.21,3.21,0,0,0,.95-2.28V65.28a3.15,3.15,0,0,0-.89-2.21l-.5-.53.5-.53a3.17,3.17,0,0,0,.89-2.21V55.87a3.17,3.17,0,0,0-.89-2.22l-.5-.53.5-.52a3.19,3.19,0,0,0,.89-2.22V46.45a3.21,3.21,0,0,0-3.21-3.21H360.86a3.21,3.21,0,0,0-3.21,3.21v3.93a3.19,3.19,0,0,0,.89,2.22l.5.52-.5.53a3.17,3.17,0,0,0-.89,2.22V59.8a3.17,3.17,0,0,0,.89,2.21l.5.53-.5.53a3.15,3.15,0,0,0-.89,2.21v3.93a3.21,3.21,0,0,0,1,2.28l.55.54-.55.55a3.19,3.19,0,0,0-1,2.27v3.93A3.22,3.22,0,0,0,360.86,82M358.5,50.38V46.45a2.36,2.36,0,0,1,2.36-2.36h17.63a2.36,2.36,0,0,1,2.36,2.36v3.93a2.38,2.38,0,0,1-1.69,2.27l-.15,0-.16,0-.36,0H360.86l-.36,0-.16,0-.15,0a2.38,2.38,0,0,1-1.69-2.27m0,9.42V55.87a2.38,2.38,0,0,1,1.69-2.27l.15,0h.16a2.19,2.19,0,0,0,.36,0h17.63a2.19,2.19,0,0,0,.36,0H379l.15,0a2.38,2.38,0,0,1,1.69,2.27V59.8a2.37,2.37,0,0,1-1.69,2.26l-.15,0-.16,0a2.17,2.17,0,0,0-.36,0H360.86a2.17,2.17,0,0,0-.36,0l-.16,0-.15,0a2.37,2.37,0,0,1-1.69-2.26m0,9.41V65.28A2.38,2.38,0,0,1,360.19,63l.15,0,.16,0,.36,0h17.63l.36,0,.16,0,.15,0a2.38,2.38,0,0,1,1.69,2.27v3.93a2.36,2.36,0,0,1-2.36,2.36H360.86a2.36,2.36,0,0,1-2.36-2.36m0,5.65a2.37,2.37,0,0,1,2.36-2.37h17.63a2.37,2.37,0,0,1,2.36,2.37v3.92a2.37,2.37,0,0,1-2.36,2.37H360.86a2.37,2.37,0,0,1-2.36-2.37Z"/><path d="M333,82h17.63a3.22,3.22,0,0,0,3.21-3.22V74.86a3.21,3.21,0,0,0-1-2.28l-.55-.55.55-.54a3.21,3.21,0,0,0,1-2.28V65.28a3.19,3.19,0,0,0-.89-2.21l-.5-.53L353,62a3.21,3.21,0,0,0,.89-2.21V55.87a3.22,3.22,0,0,0-3.22-3.22H333a3.22,3.22,0,0,0-3.21,3.22V59.8a3.2,3.2,0,0,0,.88,2.21l.51.53-.51.53a3.18,3.18,0,0,0-.88,2.21v3.93a3.17,3.17,0,0,0,.95,2.28l.54.54-.54.55a3.17,3.17,0,0,0-.95,2.28v3.92A3.22,3.22,0,0,0,333,82m-2.36-22.2V55.87A2.37,2.37,0,0,1,333,53.5h17.63A2.37,2.37,0,0,1,353,55.87V59.8a2.38,2.38,0,0,1-1.69,2.26l-.16,0-.15,0a2.23,2.23,0,0,0-.37,0H333a2.17,2.17,0,0,0-.36,0l-.16,0-.15,0a2.37,2.37,0,0,1-1.69-2.26m0,9.41V65.28A2.38,2.38,0,0,1,332.34,63l.15,0,.15,0,.37,0h17.63l.36,0,.16,0,.15,0A2.39,2.39,0,0,1,353,65.28v3.93a2.37,2.37,0,0,1-2.37,2.36H333a2.36,2.36,0,0,1-2.36-2.36m0,5.65A2.37,2.37,0,0,1,333,72.49h17.63A2.37,2.37,0,0,1,353,74.86v3.92a2.37,2.37,0,0,1-2.37,2.37H333a2.37,2.37,0,0,1-2.36-2.37Z"/><path d="M400.86,24.27l4.37-10.94a2.15,2.15,0,0,0-1.3-2.84L392.81,6.63a3.91,3.91,0,0,0-5,2.51,3.93,3.93,0,0,0,1.33,4.29l.95.73-13.23,6.92a2.25,2.25,0,0,1-2.47-.25l-1.94-1.6a3.1,3.1,0,0,0-2-.7,3,3,0,0,0-1.57.43L336,36.82a4.19,4.19,0,0,0-1.75,5.12,4.14,4.14,0,0,0,2.6,2.47,4.23,4.23,0,0,0,3.53-.44l5.5-3a.43.43,0,0,0,.17-.58.43.43,0,0,0-.58-.17l-5.49,3a3.34,3.34,0,0,1-2.86.38,3.35,3.35,0,0,1-.72-6l32.9-17.86a2.24,2.24,0,0,1,2.6.18l1.94,1.59a3.1,3.1,0,0,0,3.41.36l14.34-7.51a.44.44,0,0,0,.23-.41.42.42,0,0,0-.3-.37l-.93-.3a3.08,3.08,0,0,1-1.79-1.51,3,3,0,0,1-.2-2.34,3.08,3.08,0,0,1,3.93-2l11.12,3.86a1.28,1.28,0,0,1,.77.69,1.34,1.34,0,0,1,0,1L400.07,24A3,3,0,0,1,396,25.63a3.07,3.07,0,0,1-1.61-4l.51-1.2a.39.39,0,0,0-.1-.47.41.41,0,0,0-.48-.07l-18.85,9.72a2.24,2.24,0,0,1-2.52-.3l-1.3-1.15a3.11,3.11,0,0,0-3.68-.29l-17.61,9.67a.42.42,0,0,0,.41.74l17.61-9.67a2.27,2.27,0,0,1,2.71.19l1.31,1.15a3.08,3.08,0,0,0,3.46.42l17.49-9-.05,1.33a3.91,3.91,0,0,0,5.41,3.79,3.86,3.86,0,0,0,2.13-2.16"/><path d="M656.81,50.08a15.41,15.41,0,0,0-3-9.13A14.82,14.82,0,0,0,651,38a14.4,14.4,0,0,0-1.71-1.17l-1.15-.68.32-1.3a9.49,9.49,0,0,0-4.82-10.69l-.16-.09a.55.55,0,0,0-.15-.08l-1.1-.4-.13-1.18a13.81,13.81,0,0,0-13.76-12.8,13.79,13.79,0,0,0-10.59,4.95l-1.37,1.64L615,14.59a13.8,13.8,0,0,0-23.38,3.65,13.55,13.55,0,0,0-.7,2.22c-.08.37-.14.74-.19,1.12v0A2.3,2.3,0,0,1,589.57,24a9.52,9.52,0,0,0-5.29,10.92l.32,1.3-1.14.68a15.37,15.37,0,0,0,0,26.44l1.14.68-.32,1.3a9.52,9.52,0,0,0,5.31,10.93l1,.44.07,1.07a13.79,13.79,0,0,0,13.77,12.8,13.79,13.79,0,0,0,10.59-5l1.37-1.64,1.37,1.64a13.79,13.79,0,0,0,10.59,5,13.79,13.79,0,0,0,13.76-12.8l.08-1.07,1-.44a9.44,9.44,0,0,0,4.71-4.71,9.34,9.34,0,0,0,.59-6.22l-.32-1.3,1.15-.68a15.39,15.39,0,0,0,7.53-13.22m-8.69,12.31L647,63l-1-.89A8,8,0,0,0,641.8,60l-1.15-.18-.3-1.14a6.07,6.07,0,0,0-.94-2,.68.68,0,0,0-.95-.16.7.7,0,0,0-.28.44.68.68,0,0,0,.12.51,4.67,4.67,0,0,1,.07,5.37.68.68,0,1,0,1.13.77,6.1,6.1,0,0,0,.59-1.1l.59-1.43,1.51.38a6.67,6.67,0,1,1-4.89,12.28.68.68,0,0,0-.66,1.2,7.85,7.85,0,0,0,2.58.9l1.63.28-.14,1.64a12.41,12.41,0,0,1-12.38,11.35,12.44,12.44,0,0,1-10.9-6.45l-.38-.7.25-.75a13.55,13.55,0,0,0,.75-4.45,13.71,13.71,0,0,0-.68-4.26.7.7,0,0,0-.34-.4.75.75,0,0,0-.52,0,.7.7,0,0,0-.44.87,12.09,12.09,0,0,1,.61,3.83,12.32,12.32,0,0,1-21.27,8.5A12.06,12.06,0,0,1,592.75,73a.69.69,0,0,0-.42-.87.67.67,0,0,0-.87.42c-.07.17-.12.35-.18.54l-.77,2.51-2.06-1.63a8.29,8.29,0,0,1-2.34-3,8.11,8.11,0,0,1-.59-4.9l.34-1.81,1.8.39a14.74,14.74,0,0,0,7.23-.23l1.12-.44.89.84a6,6,0,0,0,3.73,1.82h0a.68.68,0,0,0,.13-1.36A4.69,4.69,0,0,1,597,58.68a.68.68,0,0,0-.34-.9.75.75,0,0,0-.53,0,.77.77,0,0,0-.38.36,6.15,6.15,0,0,0-.52,2.47c0,.23,0,.47,0,.69l.18,1.59-1.55.36a13.36,13.36,0,0,1-3.08.36,13.52,13.52,0,0,1-13.51-13.51,14,14,0,0,1,8.59-12.91.74.74,0,0,0,.38-.4.72.72,0,0,0,0-.54,8.1,8.1,0,0,1-.12-7,8.3,8.3,0,0,1,2.2-2.88l2.09-1.74.77,2.62A14.09,14.09,0,0,0,593,31.07a13.75,13.75,0,0,0,5,4.44l1.27.66-.37,1.38a6,6,0,0,0,.54,4.41.65.65,0,0,0,.92.28.68.68,0,0,0,.28-.93,4.68,4.68,0,0,1,3.28-6.83.63.63,0,0,0,.44-.28.69.69,0,0,0-.17-1,.7.7,0,0,0-.51-.11,6,6,0,0,0-2.33,1c-.12.08-.23.17-.33.25l-.87.68-1-.46A12.36,12.36,0,0,1,604.41,11a12.44,12.44,0,0,1,10.91,6.48l.38.69-.25.75a13.55,13.55,0,0,0-.27,8,.68.68,0,1,0,1.32-.36,12.07,12.07,0,0,1-.43-3.22,12.35,12.35,0,0,1,24.55-1.82l.27,1.8-1.8.24a8.93,8.93,0,0,0-4,1.57.63.63,0,0,0-.27.44.67.67,0,0,0,.11.51.69.69,0,0,0,.56.29.61.61,0,0,0,.39-.13,7.62,7.62,0,0,1,6.61-1.06l.26.1a8.15,8.15,0,0,1,4.48,8.53L647,35.72l-1.87-.41a15,15,0,0,0-14,4.34.71.71,0,0,0-.19.49.72.72,0,0,0,.22.48.67.67,0,0,0,.47.18.64.64,0,0,0,.49-.21A13.5,13.5,0,0,1,650,39a14,14,0,0,1-1.91,23.37"/><path d="M172.07,114.19a10.29,10.29,0,0,0,7.32-3,.57.57,0,1,0-.81-.81,9.2,9.2,0,0,1-13,0,.57.57,0,0,0-.81,0,.6.6,0,0,0-.17.4.62.62,0,0,0,.17.41,10.32,10.32,0,0,0,7.32,3"/><path d="M151.8,111.16a.59.59,0,0,0,0-.81.58.58,0,0,0-.81,0,9.2,9.2,0,0,1-13,0,.57.57,0,0,0-.41-.17.54.54,0,0,0-.4.17.57.57,0,0,0,0,.81,10.36,10.36,0,0,0,14.64,0"/><path d="M148.15,89.11a67.8,67.8,0,0,0-21,6.59.57.57,0,0,0-.31.51v28a38,38,0,0,0,30.75,37.29.41.41,0,0,0,.22,0,37.52,37.52,0,0,0,10.08-3.48l2-1,.19,2.28a38.17,38.17,0,0,0,30.61,34,.88.88,0,0,0,.23,0A38.07,38.07,0,0,0,231.71,156V128a.6.6,0,0,0-.32-.52,68.15,68.15,0,0,0-41-6.44l-1.77.28V96.21a.58.58,0,0,0-.32-.51,67.53,67.53,0,0,0-21-6.6.62.62,0,0,0-.42.11.58.58,0,0,0-.23.38.59.59,0,0,0,.49.65,66.28,66.28,0,0,1,19.47,5.9l.87.42v25l-1.2.26a68,68,0,0,0-15.92,5.66.58.58,0,0,0-.32.52v7l-2.66-2.84-.38-.4a13.2,13.2,0,0,0-22.45,9.16.58.58,0,0,0,.3.52.59.59,0,0,0,.6,0,21.86,21.86,0,0,1,23.87-.48l.72.45v14.26l-.76.45a36.54,36.54,0,0,1-11.21,4.3l-.31.07-.31-.07A37,37,0,0,1,128,124.24V96.56l.88-.42a66.52,66.52,0,0,1,19.46-5.9.56.56,0,0,0,.37-.22.59.59,0,0,0,.11-.43.56.56,0,0,0-.22-.37.54.54,0,0,0-.43-.11m23,39.2.87-.42a67.3,67.3,0,0,1,57.69,0l.87.42V156a37,37,0,0,1-29.41,36.09l-.31.06-.31-.06A37,37,0,0,1,171.13,156Zm-4.44,9.92a23.2,23.2,0,0,0-18,0l-3.63,1.54,1.63-3.59a12,12,0,0,1,22,0l1.63,3.59Z"/><path d="M187.62,143.09h0a9.14,9.14,0,0,1,6.51,2.69.58.58,0,0,0,.4.17.62.62,0,0,0,.41-.17.58.58,0,0,0,0-.81,10.36,10.36,0,0,0-14.64,0,.57.57,0,0,0,.81.81,9.12,9.12,0,0,1,6.51-2.69"/><path d="M208.3,145.94a.52.52,0,0,0,.4-.16,9.2,9.2,0,0,1,13,0,.58.58,0,0,0,.81,0,.57.57,0,0,0,.17-.41.54.54,0,0,0-.17-.4,10.36,10.36,0,0,0-14.64,0,.56.56,0,0,0-.16.4.55.55,0,0,0,.57.57"/><path d="M200.83,174.26A13.2,13.2,0,0,0,214,161.32a.55.55,0,0,0-.3-.51h0a.55.55,0,0,0-.59,0,21.92,21.92,0,0,1-24.61,0,.56.56,0,0,0-.33-.1.54.54,0,0,0-.27.07.57.57,0,0,0-.3.51,13.2,13.2,0,0,0,13.2,12.94M188.21,162.4l3.63,1.54a23.2,23.2,0,0,0,18,0l3.62-1.54L211.83,166a12,12,0,0,1-22,0Z"/><path d="M337.43,140.8l-.05-.17a64.94,64.94,0,0,0-12.72-22.17l0,0-1.8-2c-.12-.13-.23-.25-.35-.36l-.27-.29-.61-.62-.56-.55-7.18-6.09-2.79-1.93-.52-.34-.79-.5a66,66,0,0,0-73.8,3.12l.81,1A64.21,64.21,0,0,1,268.9,97.5l6-.58-.26.25-14,14a3.46,3.46,0,0,0,0,4.91l7.75,7.76v.06L264.79,142a3.48,3.48,0,0,0,1,3.14l8.92,8.92a3.5,3.5,0,0,0,2.46,1h0a3.49,3.49,0,0,0,2.45-1l4.13-4.13-.92-.92-5.67,5.66-.09-.09-11.2-11.2,0-.06,3.62-18.11a3.47,3.47,0,0,0-1-3.14l-8.47-8.47.09-.09,16.28-16.28.95,0a64.16,64.16,0,0,1,43.28,18.8l1.74,1.81a63.75,63.75,0,0,1,12.87,20.73l.7,1.84-.1.05-24.62,12.31-5.41-5.42,1.63-8.17a3.44,3.44,0,0,0-1-3.14l-2.93-2.93a3.48,3.48,0,0,0-4.92,0l-8,8,.92.92,9.56-9.56,5.29,5.29L304.79,146a3.47,3.47,0,0,0,.95,3.15l3.49,3.49a3.47,3.47,0,0,0,4,.65l23.17-11.59.71,2.54a64.32,64.32,0,0,1-62,81.73l-3.43,0,3.49-10.49a3.45,3.45,0,0,0-.84-3.56l-6.3-6.3.09-.09,11.44-11.45a3.43,3.43,0,0,0,1-2.46,3.48,3.48,0,0,0-1-2.46l-12.68-12.67a3.47,3.47,0,0,0-3.76-.77l-14.51,5.8.49,1.21L265,176.38l.06.06,15.17,15.17-.09.09-11.44,11.45a3.49,3.49,0,0,0,0,4.92l5.72,5.71-4,12.05-1.73-.18a64.76,64.76,0,0,1-13.17-2.73l-.39-.13a63.89,63.89,0,0,1-22.8-13.12l-1.54-1.42c-.36-.34-.75-.72-1.13-1.1-1.27-1.26-2.5-2.6-3.66-4l-.56-.66-1,.8c1.36,1.65,2.82,3.26,4.32,4.76l.56.56,2.15,2a65.11,65.11,0,0,0,22.22,13,65.81,65.81,0,0,0,17.19,3.48h.28c1.33.08,2.7.12,4.05.12a65.63,65.63,0,0,0,62.3-86.47"/><path d="M315.37,192.7V178.59a3.49,3.49,0,0,0-1-2.46l-8.22-8.22a3.44,3.44,0,0,0-2.45-1,3.53,3.53,0,0,0-1.11.18L293.83,170a3.46,3.46,0,0,0-2.38,3.3v4.58a3.51,3.51,0,0,0,1.69,3l8.51,5.11L300,194.31a3.47,3.47,0,0,0,1,3.15h0l3.1,3.1a3.57,3.57,0,0,0,4.91,0l5.4-5.4a3.45,3.45,0,0,0,1-2.46m-1.3.9,0,0-7.54,7.53-.09-.09L301,195.71l1.6-8a3.49,3.49,0,0,0-1.62-3.67l-8.26-4.95v-7.39l.09,0,11.42-3.81.06.06,9.75,9.75Z"/><path d="M341.33,117a.67.67,0,0,0-.53-.29.9.9,0,0,0-.54.27l-2.15,2.93,1.05.77,1.64-2.24,1.68,2.8A78.54,78.54,0,0,1,235,229.13l-2.4-1.43,1.87-1.87-.92-.92-2.4,2.4a.66.66,0,0,0,.09,1,79.6,79.6,0,0,0,41.14,13.08l2.1.08v18.46H232.72a3.48,3.48,0,0,0-3.48,3.48v6.77h1.3v-8.94h89.18v8.94H321v-6.77a3.48,3.48,0,0,0-3.48-3.48H275.78V241.47l2.11-.07A79.84,79.84,0,0,0,341.33,117"/><path class="cls-2" d="M609.7,61.28l2.43-11.2-2.43-3.64L610.92,41l3.71-2.2h4.63L622,42.27l.93,4a39.9,39.9,0,0,0-2.32,3.81c.15.1,2.32,11.72,2.32,11.72H610.92Z"/><path d="M623,62.4a.69.69,0,0,0,.67-.81l-2.17-11.28.53-.65a7.28,7.28,0,1,0-11.27,0l.54.65L609.1,61.58a.68.68,0,0,0,.14.57.67.67,0,0,0,.53.25ZM612.69,50.14a.68.68,0,0,0-.22-.64,5.91,5.91,0,1,1,7.8,0,.68.68,0,0,0-.22.64h0L622.14,61H610.6Z"/></svg>