<svg id="Layer_1" data-name="Layer 1" xmlns="http://www.w3.org/2000/svg" viewBox="0 0 957 266"><defs><style>.cls-1{fill:#1a1a1a}.cls-2{fill:#e52045}.cls-3{fill:#fff}.cls-6{fill:#fefefe}.cls-7{fill:#313131}</style></defs><path class="cls-1" d="M350.77,131.34l4.57,11.14-4.81,11.85,8.8,9.56,11.94-5.38,11.52,5.23,4.42,11.87h12.6l4.76-11.91,11.6-5.19,7.85,3.6,2-4.12,5.13,1.92,5.49-5.4-5-11.88,5.65-11.45,11.87-4.59V114l-12.58-5.1-4.94-11.24,4.94-11.43-8.9-8.87L416,82.38,404.62,77.9l-4.74-11.71H387l-4.8,11.7-11.38,4.27-11.39-4.92-8.8,9.11,5.2,11.49L351,109.18,339.8,114v12.77Zm22.31-11a20.42,20.42,0,1,1,20.41,20.42,20.41,20.41,0,0,1-20.41-20.42"/><path class="cls-2" d="M315.78,267.36a120.36,120.36,0,0,0,3.56-23c.49-11.6.54-18,.54-18s-12.47-.27-15.67-3.69S298,216.38,298.13,210s7.18-18.28,10.08-23.18,10-16.76,15.41-21.59,11.73-10,17.17-9.47,24.78.4,24.78.4,10.65,1,18,8.32,7.84,12.07,7.84,12.07l-.07,72.23s-.07,16.95,0,18.56Z"/><path class="cls-3" d="M455,152.31s11.39.61,20.36,3.47a37.18,37.18,0,0,1,14.48,8.72l2.12-6.09s2.88,5.92,14,6.78,13.5-.69,13.5-.69-3,19.17-3.69,23.26-3,18.27-4.4,22.11-6.39,19.15-20.53,16.54c0,0-10.22-1.64-12.18-11.75L477.35,207s-.32,11.75.64,19.39,4.9,33.37,7.31,40.28l.3.76L408,267.36s5-23.36,6.2-29.34,1.93-20.41,2.29-23.73-.84-9.08-1.06-11.23-.69-8.85-.09-12.82a93.68,93.68,0,0,0-7.62,8.22c-3.41,4.27-7.12,9.38-8,13s-.13,7.9,6.47,12.82c0,0-4.09.1-6.77,7.77s-3.79,10-3.65,13.46a14.53,14.53,0,0,0,.77,4.85s-7.33-3.41-10.84-5.31-9.61-8.09-11.59-11.94-3.75-10.45-1.76-19.6A71.45,71.45,0,0,1,380.53,192c3-4.93,9.35-14.26,13.9-18s8.11-8.06,9.7-9.51,8.08-6.73,13.16-8.32a85.43,85.43,0,0,1,13.64-3.33c3.07-.33,8.23-.54,8.23-.54Z"/><path class="cls-3" d="M459,127a4.84,4.84,0,0,1,6.24,3.95s0,3.64-2.69,4.36a6,6,0,0,1-4.25-.15s-1,6.82-4.57,8.64c0,0,.11,6.55.92,8.54s2,7.26-7.19,8.52c0,0-5.83.09-7.34-1.76s-2.23-3.09-1.84-4.06a47.54,47.54,0,0,0,1.45-7.35c.12-1.69.23-3.89.23-3.89a6.81,6.81,0,0,1-3.17-3.74c-.62-2.41-1.41-4.88-1.41-4.88s-3.27,1.49-5-.23a5.42,5.42,0,0,1-1.91-4.91,6,6,0,0,1,4.17-3.37,5.69,5.69,0,0,1,2.49.37l.19-1.28s6.47-.47,10.66-3.3,9-6.87,9-6.87,2.27,7,3.64,8.32Z"/><path class="cls-3" d="M359.41,138.43l.85,12.39-13.42,14.43-4-14.29.35-2.29s-5.27.24-6.09-5.82-.08-20.38-.08-20.38l15.09-5.81L363,128.47a6.3,6.3,0,0,1,3.93,4.61c.85,3.66-3.94,7.71-7.47,5.35"/><path class="cls-2" d="M356.67,131.76l.8,7.53s.55,6.29-2.24,7.68a23.29,23.29,0,0,1-10.17,1.7c-2.37-.22-5.4.13-6.81-2.45a14.76,14.76,0,0,1-1.42-6.46,16.5,16.5,0,0,1,.21-1.91,11.39,11.39,0,0,1,3.27-.41c1.43.1,3.56-.1,4.05-.06a4.87,4.87,0,0,0,2.44-1c1-.67,3.36-.91,4.4-1s2.36,0,2.9-1.57a58.39,58.39,0,0,0,1.27-5.9s-2.53-2.45-3.15-4.6-1.11-4.93-1.11-4.93a15.6,15.6,0,0,1-7.13,4.2c-4.36,1.1-6.94-.07-6.94-.07l-.25,5.68s-3.25-2.56-3.44-4.4-.21-4.7,1.95-5.1a8.53,8.53,0,0,1-.53-7.54c1.78-3.86,5.36-6.1,7.61-6.22a13.09,13.09,0,0,1,7.51,1.76c2.26,1.48,4.88,5.06,5,5.86a41.12,41.12,0,0,1,7,.5,7.31,7.31,0,0,1,5.25,4.17c1.16,2.65.38,7.86-.33,9.71s-1.08,2.71-1.08,2.71a6.12,6.12,0,0,0-4.9-1,7.61,7.61,0,0,0-4.11,3.19"/><path class="cls-3" d="M354.8 178.56L365.57 156.18 360.26 150.82 346.84 165.25 342.86 150.96 339.73 155.93 339.48 175.28 340.18 174.5 339.18 184.48 338.69 192.72 339.48 192 342.12 193.43 347.19 193.43 353.32 176.08 354.8 178.56z"/><path class="cls-1" d="M515.69,159.77l-3.06,6s6.52-.16,7-2-3.89-4-3.89-4"/><path class="cls-1" d="M495.09,156.74l2.37,6s-4.5-1.46-5-3.91c0,0-.5-1.67,2.63-2.12"/><path class="cls-1" d="M351.61,137.61s-2.29,1.2-2.4,2.77a5.79,5.79,0,0,0,.46,2.7,6.09,6.09,0,0,1-4.24.22c-1.88-.81-1.74-2.54-.66-2.92s3,.51,3.45-.5.11-2.77,1.48-3a1.72,1.72,0,0,1,1.91.77"/><path d="M403.15,226.41l3.38-1.44s-.22-.91-.92-.69a12.16,12.16,0,0,0-2.46,2.13" fill="#3a3a3a"/><path class="cls-1" d="M364.86,196.59s-2.46.25-2.92,1.2a6.17,6.17,0,0,0-3.81-1.2c-2.24.07-4,1.45-4.24,2.67l-2-1s2.81-4.4,6-4.24,4.06.15,6.94,2.55"/><path class="cls-1" d="M351.61 173.58L347.79 178.53 348.43 189.23 347.19 193.43 342.12 193.43 339.77 192.32 339.08 192.49 339.13 184.75 342.64 178.06 341.89 171.81 346.84 165.25 351.61 173.58z"/><path class="cls-3" d="M351.85,137.61s.3,4.49-2.06,5.24h-.39a6,6,0,0,1,0-2.94c.45-1.13,2.45-2.3,2.45-2.3"/><path class="cls-1" d="M461,135.76s-.88,2.28.75,2.28,6.34.42,8.19,3.22,2.57,4.36,2.38,7.44S469,154,469,154a60.86,60.86,0,0,0-14-1.68s-.5-.58-.71-3-.3-5.62-.3-5.62a10,10,0,0,0,3.5-5c.79-3,.89-3.57.89-3.57a3.62,3.62,0,0,0,2.67.63"/><path class="cls-1" d="M433.25,135.76s.49,2.28-1.15,2.28-6.27.67-8.12,3.48-2.18,3.9-2,7,3.25,5.46,3.25,5.46a57.14,57.14,0,0,1,13.67-1.64s.49-.58.7-3,.3-5.62.3-5.62a10,10,0,0,1-3.49-5c-.8-3-.9-3.57-.9-3.57a2.45,2.45,0,0,1-2.27.63"/><path class="cls-1" d="M461.22,126.64l-2.49.37-.08-3.13s-2.89-5.11-3.64-8.32c0,0-6.14,5.82-10.08,7.46s-8.21,3-9.61,2.71l-.13.91-1.78-.22s-.66-5.9-.75-8.76,1.36-7.76,5.29-9.23a26.2,26.2,0,0,1,12.65-1.79,10.05,10.05,0,0,1,7.1,4.51A5.51,5.51,0,0,1,462,116c.72,4.27-.74,10.67-.74,10.67"/><path class="cls-3" d="M353.89,199.26s1.42-2.71,4-2.67a9.65,9.65,0,0,1,3.88.67s3.37-.94,5.38-.22,3,1,3,1,4.6-.71,6.64,1.45a82.21,82.21,0,0,0-3,8.37c-1,3.64-1.75,7.17-1.75,7.17a6,6,0,0,1-3-1.54,14.79,14.79,0,0,1-1.82-3.45s-.59,4.18-4.34,3.55c-2.61-.43-3.25-3.25-3.25-4.21s-.32-6-2-7.71a10.16,10.16,0,0,0-3.71-2.42"/><path class="cls-3" d="M330,200.52s-4.43-4-8.4-4.86a28.61,28.61,0,0,0-7.9-.48,4.07,4.07,0,0,1,1.45-4,13.53,13.53,0,0,1,5.23-2.44s1.87-2.82,6.72-2.84,12.43,6.53,12.43,6.53-6.34,3.94-9.53,8.13"/><path class="cls-3" d="M497.46,162.77s-2.53-6.11-3.62-9.27-2.59-7-1-9.18,5.23-4.51,8.26-5.49,4.58-.88,4.85,1.72-2.66,5.7-6.64,7.91l18.24,7.32s-4,9-5.15,10c0,0-11.63-.64-14.9-3"/><path class="cls-3" d="M523.38 157.97L488.37 144.93 505.08 100.53 539.91 113.57 523.38 157.97z"/><path class="cls-3" d="M402.2,227.19a28.69,28.69,0,0,1,10.27-4.45c6-1.26,11.86.48,13,1.51s3.08,2.74,1.19,4.94c0,0,3.74,2.75,1.42,6,0,0,1.62,1.76.75,3s-2.8,2.31-5.56,2.25-8.52-1.16-11.23-.39c0,0-.52,4.56-6.18,6a13.26,13.26,0,0,1-10-1.33s1.43-8.24,2.94-11.45,3.32-6.19,3.32-6.19"/><path class="cls-3" d="M438.59,177a1.77,1.77,0,1,0,1.77-1.76,1.77,1.77,0,0,0-1.77,1.76"/><path class="cls-3" d="M438.59,199a1.77,1.77,0,1,0,1.77-1.77,1.76,1.76,0,0,0-1.77,1.77"/><path class="cls-3" d="M438.59,221a1.77,1.77,0,1,0,1.77-1.76,1.77,1.77,0,0,0-1.77,1.76"/><path d="M505.91,140a8.83,8.83,0,0,1-4.32,9.87l-2.73-1s6.64-3.83,7.05-8.89" fill="#b5b5b5"/><path class="cls-2" d="M445.38,77l3.35,8.19-3.53,8.71,6.47,7,8.77-4,8.47,3.85,3.25,8.72h9.25l3.5-8.75L493.44,97l5.77,2.65,1.46-3L504.44,98l4-4-3.67-8.73L509,76.91l8.73-3.38V64.24l-9.25-3.75-3.63-8.25,3.63-8.4-6.54-6.52L493.29,41,485,37.75l-3.48-8.6H472l-3.53,8.59-8.36,3.14-8.37-3.62L445.28,44l3.82,8.44-3.55,8.34-8.24,3.55v9.39Zm16.39-8a15,15,0,1,1,15,15,15,15,0,0,1-15-15"/><path class="cls-6" d="M430.36,138.2s-5.56,3.76-3.95,9.35c1.41,4.93,3.95,5.37,3.95,5.37l-5.41.79c-.76-.68-2.8-2.72-3-5.22-.19-3.07.14-4.16,2-7,1.38-2.09,4.3-3,6.38-3.32"/><path class="cls-3" d="M335.3,118.65a8.53,8.53,0,0,1-.53-7.54,11.44,11.44,0,0,1,6-5.85s-6.62,9.12-2.22,12.88c2.38,2,7.22,4.58,12.54.2a15.6,15.6,0,0,1-7.13,4.2c-4.36,1.1-6.94-.07-6.94-.07l-.25,5.68s-3.25-2.56-3.44-4.4-.21-4.71,1.95-5.1"/><path class="cls-3" d="M337,137.85a14,14,0,0,1,1.92-.37c0,1.16-1,13,10.31,11.05a16.31,16.31,0,0,1-4.21.14c-2.37-.22-5.4.13-6.81-2.45a14.76,14.76,0,0,1-1.42-6.46,16.5,16.5,0,0,1,.21-1.91"/><path class="cls-3" d="M349.35,148.52l.89-.13-.89.13"/><path class="cls-6" d="M435.32,125.73l-.13.91-1.78-.22s-.66-5.9-.75-8.76,1.36-7.76,5.29-9.23c1.05-.39,2.09-.74,3.15-1-2.44,3-6,8.41-2.78,11.7,4.59,4.71,16.48-3.55,16.48-3.55l-.09.28c-1.26,1.17-6.35,5.76-9.78,7.18-3.95,1.63-8.21,3-9.61,2.71"/><path class="cls-3" d="M348.69 168.06L345.35 173.1 345.04 178.47 339.32 191.49 339.12 185.03 342.64 178.06 341.89 171.81 347.19 165.25 348.69 168.06z"/><path d="M497.51,163.37c.36-.09.49-.33.42-.56a64.15,64.15,0,0,0-4.11-10.27c-2.13-3.8-1.71-7.19-.23-8.46,2-1.7,8.51-6.32,10.9-5.37a1.52,1.52,0,0,1,.86,1.42c.51,4.76-8,9.06-8.05,9.1a.44.44,0,0,0,.4.79c.37-.19,9.1-4.62,8.52-10a2.34,2.34,0,0,0-1.41-2.13c-3.44-1.35-11.71,5.45-11.79,5.52-2.08,1.78-2.07,5.8,0,9.55a64.36,64.36,0,0,1,4,10.09.44.44,0,0,0,.42.31"/><path d="M512.49,166.21a.46.46,0,0,0,.37-.21,90.24,90.24,0,0,0,5-10,.44.44,0,1,0-.8-.35,93.3,93.3,0,0,1-5,9.92.45.45,0,0,0,.13.61.55.55,0,0,0,.24.07"/><path d="M505.19,158.15a.45.45,0,0,0,.43-.32,14.19,14.19,0,0,1,2.89-5.22.44.44,0,0,0-.64-.6,14.79,14.79,0,0,0-3.1,5.59.45.45,0,0,0,.31.54h.11"/><path d="M397.18,251a.43.43,0,0,0,.16-.84c-30.22-11.39-27.78-30.26-21.41-47.22,6.77-18,16.64-27.06,23.85-33.67,1.23-1.12,2.38-2.18,3.42-3.19,8.58-8.35,22-13.33,36-13.33a.44.44,0,0,0,0-.88c-14.16,0-27.83,5.08-36.57,13.58-1,1-2.18,2.06-3.4,3.18-7.28,6.67-17.23,15.79-24.08,34-6.52,17.36-9,36.69,21.92,48.35l.15,0"/><path d="M489.8,164.94a.44.44,0,0,0,.33-.15.43.43,0,0,0-.05-.62c-11.82-10.16-25.77-12.3-35.39-12.3a.44.44,0,0,0,0,.88c9.47,0,23.2,2.1,34.82,12.09a.45.45,0,0,0,.29.1"/><path d="M391.42,177c.36-.09.49-.34.42-.57-4.31-13.68-18.4-20.44-26.56-20.7a.43.43,0,0,0-.45.42.44.44,0,0,0,.42.45c7.91.26,21.57,6.82,25.75,20.09a.45.45,0,0,0,.42.31"/><path d="M371.71,197.7a.44.44,0,0,0,.43-.49c-.78-6.78.65-15.35.66-15.43a.44.44,0,0,0-.36-.51.44.44,0,0,0-.5.36c0,.09-1.47,8.77-.67,15.68a.44.44,0,0,0,.44.39"/><path d="M267,96.76a.58.58,0,0,1-.58-.6,59.81,59.81,0,0,1,.55-6.82.59.59,0,0,1,.66-.5.58.58,0,0,1,.5.66,62.24,62.24,0,0,0-.53,6.69.59.59,0,0,1-.59.57Zm1.67-13.43a.59.59,0,0,1-.44-.71c.53-2.2,1.18-4.4,1.93-6.55a.59.59,0,0,1,1.12.39,66.79,66.79,0,0,0-1.9,6.44.6.6,0,0,1-.58.45.3.3,0,0,1-.13,0M273,70.53a.59.59,0,0,1-.29-.78c1-2.06,2-4.09,3.18-6a.58.58,0,1,1,1,.59c-1.13,1.92-2.18,3.92-3.12,6a.59.59,0,0,1-.53.34.54.54,0,0,1-.25-.06m6.76-11.71a.59.59,0,0,1-.14-.83c1.31-1.81,2.74-3.61,4.24-5.34a.59.59,0,0,1,.89.77c-1.48,1.71-2.88,3.48-4.17,5.26a.61.61,0,0,1-.48.25.6.6,0,0,1-.34-.11m8.77-10.29a.59.59,0,0,1,0-.83c1.6-1.56,3.3-3.09,5.06-4.55a.59.59,0,0,1,.83.08.57.57,0,0,1-.07.82c-1.74,1.45-3.42,3-5,4.49a.58.58,0,0,1-.41.17.6.6,0,0,1-.43-.18m10.34-8.72A.58.58,0,0,1,299,39c1.8-1.29,3.71-2.56,5.67-3.76a.58.58,0,1,1,.61,1c-1.93,1.2-3.81,2.45-5.6,3.73a.6.6,0,0,1-.34.11.61.61,0,0,1-.48-.25M432.28,39s-2-1.56-5.56-3.78a.58.58,0,0,1-.19-.81.6.6,0,0,1,.81-.19A67.18,67.18,0,0,1,433,38.07a.6.6,0,0,1,.09.83.57.57,0,0,1-.46.22.53.53,0,0,1-.36-.13m-122-6.37a.58.58,0,0,1,.23-.79c2-1,4-2.08,6.08-3.06a.58.58,0,0,1,.78.29.59.59,0,0,1-.28.78c-2.07,1-4.1,2-6,3a.55.55,0,0,1-.28.07.56.56,0,0,1-.51-.31m110.58-.77c-2-1.05-4-2.06-6-3a.59.59,0,0,1,.5-1.07c2.06,1,4.12,2,6.09,3a.59.59,0,0,1,.25.8.61.61,0,0,1-.52.31.68.68,0,0,1-.28-.07m-98.37-5a.59.59,0,0,1,.32-.77c1.7-.69,3.45-1.37,5.2-2l1.15-.41a.59.59,0,0,1,.39,1.11l-1.13.41c-1.74.64-3.48,1.31-5.16,2a.62.62,0,0,1-.23,0,.57.57,0,0,1-.54-.36m86.14-.62c-2.08-.82-4.21-1.6-6.34-2.3a.58.58,0,0,1-.37-.74.59.59,0,0,1,.74-.38c2.15.71,4.3,1.49,6.4,2.32a.59.59,0,0,1,.33.77.58.58,0,0,1-.55.37.78.78,0,0,1-.21,0m-73.4-3.94a.59.59,0,0,1,.4-.73c2.18-.64,4.39-1.22,6.59-1.72a.58.58,0,0,1,.7.44.57.57,0,0,1-.44.7c-2.17.5-4.36,1.08-6.68,1.73a.6.6,0,0,1-.57-.42m60.6-.29c-2.17-.58-4.37-1.1-6.56-1.55a.59.59,0,1,1,.24-1.15c2.21.45,4.44,1,6.62,1.56a.59.59,0,0,1,.42.72A.59.59,0,0,1,396,22l-.15,0m-47.42-2.81a.6.6,0,0,1,.48-.68c2.23-.37,4.5-.68,6.75-.91a.57.57,0,0,1,.65.52.59.59,0,0,1-.53.65c-2.22.23-4.47.54-6.77.91a.59.59,0,0,1-.58-.49m34.22.11c-2.23-.33-4.48-.58-6.69-.76a.59.59,0,0,1-.54-.63.57.57,0,0,1,.64-.54c2.23.18,4.51.44,6.76.76a.59.59,0,0,1,.5.67.58.58,0,0,1-.58.5h-.09m-20.76-1.59a.58.58,0,0,1,.56-.61c2.31-.1,4.58-.12,6.81-.08a.59.59,0,0,1,.57.61.58.58,0,0,1-.6.57q-3.28-.07-6.75.08a.59.59,0,0,1-.59-.57"/><path d="M453.05,127c-.35-.06-.59.09-.69,1.35-.11,1.41.26,1.66.57,1.64s.63-.44.62-1.45,0-1.47-.5-1.54"/><path d="M441.05,127.13c-.35,0-.58.11-.65,1.38s.29,1.64.61,1.62.62-.46.58-1.47-.08-1.47-.54-1.53"/><path d="M350,128.58c-.35-.06-.59.09-.69,1.35s.26,1.66.57,1.64.63-.44.62-1.45,0-1.47-.5-1.54"/><path d="M339.76,128.69c-.35,0-.58.11-.64,1.38s.29,1.64.61,1.62.61-.46.57-1.46-.08-1.48-.54-1.54"/><path d="M460.73,136.21H461a5,5,0,0,0,4.68-5.31,5,5,0,0,0-6.84-4.33.44.44,0,0,0-.25.57.43.43,0,0,0,.57.24,4.18,4.18,0,0,1,1.27-.28,4,4,0,0,1,3,1,4.13,4.13,0,0,1-4.63,6.76.44.44,0,0,0-.4.78,5,5,0,0,0,2.3.56"/><path d="M461.73,134a.46.46,0,0,0,.35-.17.43.43,0,0,0-.08-.61l-2.62-2,2.94-2.17a.44.44,0,0,0,.09-.61.44.44,0,0,0-.62-.09l-3.4,2.51a.47.47,0,0,0-.18.35.46.46,0,0,0,.17.35l3.08,2.38a.46.46,0,0,0,.27.09"/><path d="M433,136.21a5,5,0,0,0,2.3-.56.44.44,0,0,0,.19-.59.45.45,0,0,0-.59-.19,4.13,4.13,0,0,1-4.63-6.76,4,4,0,0,1,3-1,4.1,4.1,0,0,1,1.35.32.44.44,0,0,0,.58-.23.45.45,0,0,0-.23-.58,5,5,0,0,0-6.95,4.29,5,5,0,0,0,1.24,3.63,4.94,4.94,0,0,0,3.44,1.68H433"/><path d="M432,134a.41.41,0,0,0,.26-.09l3.09-2.38a.46.46,0,0,0,.17-.35.47.47,0,0,0-.18-.35l-3.4-2.51a.44.44,0,0,0-.62.09.44.44,0,0,0,.09.61l2.94,2.17-2.62,2a.43.43,0,0,0-.08.61.46.46,0,0,0,.35.17"/><path d="M360.05,151.48a.45.45,0,0,0,.44-.46l-.64-12.61a.43.43,0,0,0-.46-.41.42.42,0,0,0-.41.46l.63,12.61a.44.44,0,0,0,.44.41"/><path d="M344.25,149.14l1.12,0h1a26.74,26.74,0,0,0,5.73-.57c1.59-.36,3.38-.76,4.45-2.35a10.3,10.3,0,0,0,1.38-5.3,20.77,20.77,0,0,0-.07-3.09c-.27-2.15-.63-5.36-.7-6a4.85,4.85,0,0,1,8.24-1.26,4.76,4.76,0,0,1,1.08,3.55,4.84,4.84,0,0,1-7.77,3.38.44.44,0,1,0-.53.7,5.72,5.72,0,1,0-.16-9,5.78,5.78,0,0,0-1.72,2.39.44.44,0,0,0,0,.2s.42,3.71.71,6.1a20.19,20.19,0,0,1,.07,2.95,9.65,9.65,0,0,1-1.23,4.85c-.88,1.3-2.42,1.64-3.92,2a25.06,25.06,0,0,1-5.54.55h-1c-2.55,0-5.19.1-6.68-2.17s-1.42-4.95-1.42-7.67c0-.6,0-1.19,0-1.76-.05-1.82.25-14,.25-14.16a.44.44,0,0,0-.43-.45.47.47,0,0,0-.45.43c0,.5-.3,12.36-.24,14.21,0,.56,0,1.14,0,1.73,0,2.72,0,5.79,1.57,8.15s3.95,2.59,6.3,2.59"/><path d="M337.12,127.08a.44.44,0,0,0,.4-.25c0-.08.8-1.54,3.16-.92a.42.42,0,0,0,.53-.31.44.44,0,0,0-.31-.54c-3.11-.82-4.16,1.38-4.18,1.4a.44.44,0,0,0,.22.58.39.39,0,0,0,.18,0"/><path d="M352.22,127.33a.46.46,0,0,0,.27-.09.44.44,0,0,0,.07-.62c-2.53-3.24-5.28-1.53-5.31-1.52a.45.45,0,0,0-.14.61.45.45,0,0,0,.61.13c.08,0,2.12-1.28,4.15,1.32a.46.46,0,0,0,.35.17"/><path d="M343.09,151.4a.44.44,0,0,0,.44-.44v-2.29a.44.44,0,0,0-.87,0V151a.44.44,0,0,0,.43.44"/><path d="M365.37,130a.47.47,0,0,0,.17,0c.3-.11,1.81-1.08,2.67-8.68.49-4.38-2-7.51-4.63-8.35a23.57,23.57,0,0,0-8.32-.67c-2.6-5-6-6.87-8.34-7.57a10.28,10.28,0,0,0-8.19,1,9.51,9.51,0,0,0-4.81,5.88,10.05,10.05,0,0,0,.8,6.56,2.34,2.34,0,0,0-1.45,1.36,7.09,7.09,0,0,0,3.38,9,.43.43,0,0,0,.6-.17.43.43,0,0,0-.17-.59,6.19,6.19,0,0,1-3-7.86c.13-.27.61-1.13,1.24-.86a.42.42,0,0,0,.5-.11.44.44,0,0,0,.05-.52,9.64,9.64,0,0,1-1.08-6.62,8.74,8.74,0,0,1,4.41-5.33,9.42,9.42,0,0,1,7.49-.94c2.26.67,5.46,2.48,7.95,7.39a.43.43,0,0,0,.44.24,23.79,23.79,0,0,1,8.26.61c1.88.59,4.51,3.05,4,7.42-.8,7.06-2.14,8-2.16,8a.43.43,0,0,0-.23.56.45.45,0,0,0,.42.27"/><path d="M344.36,137.81a.44.44,0,1,0,0-.87c-.94,0-2.6-.18-3.05-.67a.23.23,0,0,1-.08-.19,8.16,8.16,0,0,1,.53-1.7c.68-1.78,1.71-4.48,1.07-7.07a.44.44,0,0,0-.85.21c.57,2.32-.36,4.77-1,6.55a8.26,8.26,0,0,0-.6,2,1.11,1.11,0,0,0,.32.85c.86.92,3.4.94,3.69.94"/><path d="M345.91,144a3.22,3.22,0,0,1-2.16-1.68,1.73,1.73,0,0,1,.23-1.71,2.5,2.5,0,0,1,2.26-.77c1.18.15,1.28.07,1.52-.11s.35-.26.56-1.42a2.46,2.46,0,0,1,1.41-1.93,1.7,1.7,0,0,1,1.69.28,3,3,0,0,1,.89,2.47,5.13,5.13,0,0,1-2,4.08,5,5,0,0,1-4.42.79m4.14-6.8a1.63,1.63,0,0,0-.87,1.26c-.25,1.38-.44,1.64-.9,2s-.76.45-2.15.28a1.61,1.61,0,0,0-1.46.45.84.84,0,0,0-.1.86,2.46,2.46,0,0,0,1.59,1.14,4.11,4.11,0,0,0,3.65-.65,4.24,4.24,0,0,0,1.62-3.39,2.28,2.28,0,0,0-.54-1.76,1,1,0,0,0-.57-.22.66.66,0,0,0-.27.06"/><path d="M349.55,143.59a.43.43,0,0,0,.22-.06.44.44,0,0,0,.17-.59c-1.63-2.92,1.74-4.87,1.88-4.95a.44.44,0,0,0,.17-.6.45.45,0,0,0-.6-.17c-1.48.85-3.86,3.21-2.22,6.15a.44.44,0,0,0,.38.22"/><path d="M363.29,136.82a.43.43,0,0,0,.39-.24.44.44,0,0,0-.19-.59l-3.57-1.77,3.31-3.38a.44.44,0,0,0-.62-.62L358.87,134a.47.47,0,0,0-.12.38.47.47,0,0,0,.24.32l4.11,2a.45.45,0,0,0,.19,0"/><path d="M352.86,115.88a.46.46,0,0,0,.34-.16l2.15-2.67a.44.44,0,0,0-.07-.62.43.43,0,0,0-.61.07l-2.15,2.67a.43.43,0,0,0,.06.61.44.44,0,0,0,.28.1"/><path d="M493.85,227.13c15.57,0,19.18-20.77,20.38-27.73C516,189.22,520,163.83,520,163.58a.44.44,0,0,0-.37-.5.43.43,0,0,0-.5.36c0,.26-4,25.63-5.76,35.81-1.21,7-4.86,28.16-20.88,26.95-7.13-.56-14.69-6.16-14.55-20.21a.44.44,0,0,0-.43-.44.45.45,0,0,0-.45.44c-.14,14.64,7.84,20.49,15.36,21.08.49,0,1,.06,1.43.06"/><path d="M482.1,200a.44.44,0,0,0,.44-.4,115.16,115.16,0,0,1,2.55-15.45,222.12,222.12,0,0,1,7.78-26,.43.43,0,1,0-.81-.31A219.46,219.46,0,0,0,484.23,184a118.29,118.29,0,0,0-2.56,15.57.44.44,0,0,0,.39.48h0"/><path d="M446.88,146a12.62,12.62,0,0,0,7.85-2.42c1.93-1.53,3.21-4,3.91-7.53.46-2.34.56-9.71.52-12.12a.43.43,0,0,0-.43-.43.43.43,0,0,0-.44.45,97.61,97.61,0,0,1-.51,11.93c-.65,3.32-1.83,5.62-3.59,7a11.78,11.78,0,0,1-7.31,2.22.44.44,0,0,0,0,.88"/><path d="M446.88,146a.44.44,0,0,0,0-.88,11.77,11.77,0,0,1-7.3-2.22c-1.76-1.4-2.94-3.7-3.6-7a70.93,70.93,0,0,1-.43-10.17.45.45,0,0,0-.44-.45.44.44,0,0,0-.44.43,73.92,73.92,0,0,0,.45,10.36c.7,3.53,2,6,3.91,7.53a12.64,12.64,0,0,0,7.85,2.42"/><path d="M435.7,126.18c8.32,0,16.87-7.81,19.05-10,.56,1.75,2.08,6.26,3.65,8a.45.45,0,0,0,.62,0,.44.44,0,0,0,0-.62c-1.79-2-3.65-8.33-3.67-8.4a.46.46,0,0,0-.32-.3.46.46,0,0,0-.42.12c-.1.11-9.88,10.2-18.95,10.2h-.54a.47.47,0,0,0-.46.42.44.44,0,0,0,.42.46h.59"/><path d="M446.79,161.29c3.53,0,6.78-1.46,8.28-3.73a3.6,3.6,0,0,0,.5-3.43c-1.12-2.63-1.36-10.3-1.36-10.38a.42.42,0,0,0-.45-.42.44.44,0,0,0-.43.45c0,.32.25,7.91,1.43,10.69a2.73,2.73,0,0,1-.42,2.6c-1.1,1.67-3.86,3.35-7.55,3.35s-6.25-1-7.44-2.83a3.31,3.31,0,0,1-.35-3.12c1.18-2.78,1.43-10.37,1.43-10.69a.44.44,0,0,0-.42-.45.44.44,0,0,0-.45.42c0,.08-.25,7.75-1.36,10.38a4.13,4.13,0,0,0,.42,3.94c.8,1.2,2.92,3.22,8.17,3.22"/><path d="M461,127.08a.45.45,0,0,0,.42-.31c.11-.36,2.71-9,.05-13.51a5.23,5.23,0,0,0-3.37-2.5,12,12,0,0,0-7.23-4.52c-6-1-15.56.44-17.9,7.07-1,3-1.05,6.37,0,13a.43.43,0,0,0,.5.36.43.43,0,0,0,.37-.5c-1-6.44-1-9.73,0-12.55,2.16-6.15,11.2-7.5,16.92-6.5a11.23,11.23,0,0,1,6.76,4.3.45.45,0,0,0,.27.18,4.33,4.33,0,0,1,3,2.13c2.46,4.18-.12,12.72-.14,12.81a.43.43,0,0,0,.29.54.27.27,0,0,0,.13,0"/><path d="M416,222.84a.45.45,0,0,0,.44-.4c.75-8.11.74-13.58-.06-17.2-2.82-12.79,1.71-25.52,1.75-25.65a.43.43,0,0,0-.26-.56.45.45,0,0,0-.56.26c-.05.13-4.66,13.11-1.79,26.14.78,3.53.79,8.91,0,16.93a.45.45,0,0,0,.4.48h0"/><path d="M485.6,267.89a.45.45,0,0,0,.19-.05.43.43,0,0,0,.2-.58c-2.21-4.48-10.75-49.06-7.93-61.83,2.87-13-1.74-26-1.79-26.14a.44.44,0,0,0-.82.3c.05.13,4.57,12.87,1.76,25.65s5.77,57.89,8,62.4a.45.45,0,0,0,.4.25"/><path d="M512.48,166.2c4,0,7.18-.77,7.51-2.6.26-1.44-1.13-2.86-4.12-4.23a.44.44,0,0,0-.36.8c2.51,1.14,3.79,2.31,3.62,3.27-.31,1.7-6.08,2.6-13.87,1.2a36.14,36.14,0,0,1-9.32-2.88c-2.18-1.1-3.4-2.26-3.24-3.1.09-.52.46-1.1,2.47-1.49a.44.44,0,1,0-.16-.86c-2,.38-3,1-3.18,2.2s1.05,2.69,3.72,4a37,37,0,0,0,9.56,3,42.45,42.45,0,0,0,7.37.7"/><path d="M397.55,251.06c1.53,0,3.41-2,4.75-4.06a.42.42,0,0,0-.12-.6.44.44,0,0,0-.61.12c-1.79,2.73-3.48,3.89-4.24,3.63-1.63-.56-1.65-6.4.92-13.88s6.19-12.06,7.81-11.52a.43.43,0,0,0,.56-.27.42.42,0,0,0-.27-.55c-2.77-1-6.67,5.5-8.93,12s-3.15,14-.38,15a1.51,1.51,0,0,0,.51.08"/><path d="M523.38,158.41a.58.58,0,0,0,.18,0,.51.51,0,0,0,.23-.25l16.53-44.4a.5.5,0,0,0,0-.34.51.51,0,0,0-.25-.23l-35-13a.45.45,0,0,0-.57.26L488,144.78a.43.43,0,0,0,.26.56l3.54,1.32a.44.44,0,1,0,.31-.82l-3.14-1.17,16.23-43.57,34.18,12.72L523.12,157.4l-24.08-9a.44.44,0,1,0-.31.82l24.49,9.12a.41.41,0,0,0,.16,0"/><path d="M456.07,125.67a.4.4,0,0,0,.15,0,.44.44,0,0,0,.27-.56c-.79-2.16-3.79-2.78-5.57-2.38a.44.44,0,0,0-.33.52.44.44,0,0,0,.52.33c1.46-.33,4,.22,4.55,1.83a.45.45,0,0,0,.41.29"/><path d="M446.27,139.94a6.79,6.79,0,0,0,1.91-.28.44.44,0,0,0-.27-.83s-2.14.68-3.51-.26a3.18,3.18,0,0,1-1.2-2.59.44.44,0,1,0-.87.05,4,4,0,0,0,1.58,3.27,4.17,4.17,0,0,0,2.36.64"/><path d="M469,154.22a.42.42,0,0,0,.24-.07,8.32,8.32,0,0,0,3.23-9.54,10.59,10.59,0,0,0-10-7,2.9,2.9,0,0,0-.45,0c-.52,0-.53,0-.6-.22a2.61,2.61,0,0,1,0-1,4.72,4.72,0,0,0,0-.64.44.44,0,1,0-.87,0,5.09,5.09,0,0,1,0,.54,3.68,3.68,0,0,0,0,1.32c.29.92,1,.87,1.51.83l.36,0a9.9,9.9,0,0,1,5.13,1.44,9.66,9.66,0,0,1,4.06,5,7.43,7.43,0,0,1-2.89,8.53.45.45,0,0,0-.12.61.47.47,0,0,0,.37.19"/><path d="M425.34,154.22a.47.47,0,0,0,.37-.19.45.45,0,0,0-.12-.61,7.43,7.43,0,0,1-2.89-8.53,9.66,9.66,0,0,1,4.06-5,9.86,9.86,0,0,1,5.11-1.44c.1,0,.26,0,.38,0,.49,0,1.22.1,1.5-.83a3.48,3.48,0,0,0,.06-1.32,5.09,5.09,0,0,1,0-.54.45.45,0,0,0-.43-.45.44.44,0,0,0-.44.44,4.72,4.72,0,0,0,0,.64,2.61,2.61,0,0,1,0,1c-.08.23-.08.26-.61.22l-.44,0a10.59,10.59,0,0,0-10,7,8.32,8.32,0,0,0,3.23,9.54.42.42,0,0,0,.24.07"/><path d="M371.92,215.31a.43.43,0,0,0,.43-.38.44.44,0,0,0-.37-.5,5.29,5.29,0,0,1-4.37-4.34.44.44,0,1,0-.87-.15,5.17,5.17,0,0,0,1.07,2.88,5.87,5.87,0,0,0,4.05,2.48h.06"/><path d="M374.83,205.14c.33-.07.48-.3.42-.54a10.69,10.69,0,0,0-13.68-7.72.44.44,0,0,0-.23.57.45.45,0,0,0,.58.23,9.29,9.29,0,0,1,7.76.83,9.13,9.13,0,0,1,4.72,6.29.44.44,0,0,0,.43.34"/><path d="M376.8,200.15a.42.42,0,0,0,.28-.1.44.44,0,0,0,.06-.62c-2.71-3.21-7.19-1.78-7.38-1.72a.44.44,0,0,0-.28.56.44.44,0,0,0,.55.28s4.12-1.3,6.44,1.45a.43.43,0,0,0,.33.15"/><path d="M426.71,229.62a.43.43,0,0,0,.32-.14,3.1,3.1,0,0,0,.74-3.27c-.72-2-3.28-3.47-6.69-3.91a26.85,26.85,0,0,0-7.73-.1,29.89,29.89,0,0,0-8.57,2.89l-.34.17c-.79.39-1.42.7-2.17,1.15a.43.43,0,0,0-.15.6.44.44,0,0,0,.6.15c.72-.43,1.33-.73,2.1-1.11l.35-.17a28.93,28.93,0,0,1,8.32-2.82,26.21,26.21,0,0,1,7.48.11c3,.39,5.38,1.7,6,3.34a2.24,2.24,0,0,1-.57,2.38.44.44,0,0,0,0,.62.41.41,0,0,0,.3.11"/><path d="M406.56,225a.42.42,0,0,0,.35-.18.43.43,0,0,0-.1-.61c-4.23-3-6.47-6.08-6.85-9.33-.71-6,4.74-12.26,11.63-20.21,1.36-1.57,2.78-3.2,4.2-4.89a.44.44,0,0,0-.67-.57c-1.42,1.7-2.83,3.32-4.19,4.89-7,8.11-12.6,14.52-11.84,20.88.41,3.51,2.77,6.76,7.21,9.94a.5.5,0,0,0,.26.08"/><path d="M512.48,166.2c4,0,7.18-.77,7.51-2.6.26-1.44-1.13-2.86-4.12-4.23a.44.44,0,0,0-.36.8c2.51,1.14,3.79,2.31,3.62,3.27-.31,1.7-6.08,2.6-13.87,1.2a36.14,36.14,0,0,1-9.32-2.88c-2.18-1.1-3.4-2.26-3.24-3.1.09-.52.46-1.1,2.47-1.49a.44.44,0,1,0-.16-.86c-2,.38-3,1-3.18,2.2s1.05,2.69,3.72,4a37,37,0,0,0,9.56,3,42.45,42.45,0,0,0,7.37.7"/><path d="M351.79,198.9a.44.44,0,0,0,.38-.21c1.85-3.09,4.2-4.43,7.39-4.26a6.51,6.51,0,0,1,5.12,2.62.44.44,0,0,0,.68-.56,7.41,7.41,0,0,0-5.75-2.93c-3.54-.21-6.19,1.33-8.2,4.68a.44.44,0,0,0,.16.6.43.43,0,0,0,.22.06"/><path d="M374.85,238c.72,0,1.44,0,2.14-.07a.43.43,0,0,0,.41-.46.47.47,0,0,0-.47-.41c-16.62,1.08-38.21-11-51.73-21.82a43.66,43.66,0,0,1,3.89-11.85,27.8,27.8,0,0,1,10.48-10.62l17.11,8.74a.45.45,0,0,0,.59-.2.44.44,0,0,0-.19-.59l-17.31-8.84a.47.47,0,0,0-.4,0,28.08,28.08,0,0,0-11.05,11.1,44.33,44.33,0,0,0-4,12.38.43.43,0,0,0,.15.41C337.51,226.17,358.2,238,374.85,238"/><path d="M323.6,226.86a133,133,0,0,0,15.74-1,.44.44,0,0,0,.38-.49.43.43,0,0,0-.49-.38c-.29,0-28.57,3.65-35.64-3.37-9-9-4.26-17.67,1.24-27.76l.38-.7c5.69-10.47,19-35,35-37.46a.44.44,0,0,0-.13-.87c-16.45,2.52-29.93,27.33-35.68,37.92l-.38.69c-5.43,10-10.55,19.39-1.09,28.8,3.71,3.68,12.57,4.62,20.63,4.62"/><path d="M450,135.72a.48.48,0,0,0,.29-.11,4.65,4.65,0,0,0,1.54-2.68,1.62,1.62,0,0,0-.5-1.26,1.88,1.88,0,0,0-1.38-.61,2.77,2.77,0,0,0-1.49.51c-.27-2.41-.45-5.8,0-6.54a.44.44,0,0,0-.13-.6.45.45,0,0,0-.61.12c-.87,1.34-.22,6.82-.07,7.9a.43.43,0,0,0,.74.25,2.63,2.63,0,0,1,1.52-.76,1,1,0,0,1,.76.34.83.83,0,0,1,.25.63,3.86,3.86,0,0,1-1.26,2.05.43.43,0,0,0,0,.61.44.44,0,0,0,.33.15"/><path d="M456.29,113.91a.42.42,0,0,0,.35-.18l1.41-2a.43.43,0,0,0-.1-.61.43.43,0,0,0-.61.1l-1.41,2a.44.44,0,0,0,.1.61.42.42,0,0,0,.26.08"/><path d="M346.43,137.1a.45.45,0,0,0,.3-.11c1-1,3.34-1.19,5-1.36a13,13,0,0,0,1.69-.24c1.45-.38,1.89-4.5,2-5.75l.36-1.4a.42.42,0,0,0-.11-.41,16.35,16.35,0,0,1-4.15-9.7.43.43,0,0,0-.31-.4.42.42,0,0,0-.48.15c-.19.26-4.71,6.23-13.61,4.16a.43.43,0,0,0-.52.33.44.44,0,0,0,.32.53,14.3,14.3,0,0,0,13.82-3.71,16.92,16.92,0,0,0,4.13,9.07l-.31,1.24c-.21,2.58-.84,4.91-1.35,5a12.27,12.27,0,0,1-1.56.22c-1.82.18-4.3.44-5.54,1.58a.43.43,0,0,0,0,.62.4.4,0,0,0,.32.14"/><path d="M336.83,138.28a.44.44,0,0,0,.24-.07,4.49,4.49,0,0,1,3.13-.35.44.44,0,0,0,.22-.85,5.34,5.34,0,0,0-3.83.47.43.43,0,0,0,.24.8"/><path d="M354.54,179l-7.74-12.93-6.88,9.55a.45.45,0,0,1-.49.17.44.44,0,0,1-.3-.42V156.17a.43.43,0,0,1,.08-.24l3.52-5.21a.43.43,0,0,1,.44-.19.44.44,0,0,1,.35.32l3.54,13.52,12.88-13.85a.44.44,0,0,1,.64,0l5,5.36a.45.45,0,0,1,.08.48l-10.35,22.58a.46.46,0,0,1-.4.25.44.44,0,0,1-.37-.21m5.72-27.52-12.88,13.85,7.48,12.5,9.88-21.55Zm-17.35.55-2.9,4.3V174l6.35-8.82Z"/><path d="M347.19,193.86a.44.44,0,0,0,.42-.31c2.77-9,6.08-17.22,6.11-17.3a.43.43,0,0,0-.24-.57.43.43,0,0,0-.57.24c0,.08-3.36,8.3-6.14,17.38a.45.45,0,0,0,.29.55h.13"/><path d="M338.87,191.93a.44.44,0,0,0,.44-.43,120.67,120.67,0,0,1,1.3-16.92.43.43,0,0,0-.35-.51.44.44,0,0,0-.51.35,122.56,122.56,0,0,0-1.32,17.06.44.44,0,0,0,.43.45Z"/><path d="M530.31,121.34a.44.44,0,0,0,.16-.85l-23.63-8.8a.44.44,0,0,0-.3.83l23.62,8.79.15,0"/><path d="M526.81,131.48a.43.43,0,0,0,.41-.28.44.44,0,0,0-.26-.57l-23.62-8.79a.44.44,0,0,0-.56.25.45.45,0,0,0,.26.57l23.62,8.79.15,0"/><path d="M523.31,141.62a.44.44,0,0,0,.41-.28.45.45,0,0,0-.26-.57L499.84,132a.44.44,0,0,0-.56.26.43.43,0,0,0,.25.56l23.63,8.8.15,0"/><path d="M359.58,194.43A.43.43,0,0,0,360,194a.44.44,0,0,0-.42-.46c-.09,0-9.38-.4-17.47-.57a.44.44,0,1,0,0,.87c8.09.18,17.36.57,17.45.57Z"/><path d="M304.8,208.38a.44.44,0,0,0,.42-.31c2-6.55,4.8-10.35,9.15-12.32l.85-.13C323,194.33,329.8,201,329.87,201a.43.43,0,1,0,.61-.62c-.29-.29-7.22-7-15.41-5.67l-.9.15c-4.74,2.1-7.72,6.08-9.79,12.91a.44.44,0,0,0,.29.55l.13,0"/><path d="M313.65,195.62c.36-.09.49-.34.42-.57s-.87-3.12,3.82-5.17c4.87-2.11,10.81,1.75,10.87,1.79a.44.44,0,1,0,.48-.73c-.25-.17-6.39-4.17-11.7-1.86s-4.32,6.2-4.31,6.23a.45.45,0,0,0,.42.31"/><path d="M339.32,192.58a.42.42,0,0,0,.28-.1.43.43,0,0,0,0-.61c-.11-.14-2.91-3.45-9.33-5.79a9.21,9.21,0,0,0-10.46,2.51.44.44,0,1,0,.69.53,8.23,8.23,0,0,1,9.47-2.21c6.2,2.25,8.93,5.48,9,5.52a.45.45,0,0,0,.34.15"/><path d="M446.93,254.42a.44.44,0,0,0,.44-.44V165.77a.44.44,0,0,0-.88,0V254a.44.44,0,0,0,.44.44"/><path d="M438.2,177a2.16,2.16,0,1,1,2.16,2.16A2.16,2.16,0,0,1,438.2,177m.88,0a1.28,1.28,0,1,0,1.28-1.27,1.28,1.28,0,0,0-1.28,1.27"/><path d="M438.2,199a2.16,2.16,0,1,1,2.16,2.15A2.16,2.16,0,0,1,438.2,199m.88,0a1.28,1.28,0,1,0,1.28-1.28,1.28,1.28,0,0,0-1.28,1.28"/><path d="M438.2,221a2.16,2.16,0,1,1,2.16,2.16A2.16,2.16,0,0,1,438.2,221m.88,0a1.28,1.28,0,1,0,1.28-1.27,1.28,1.28,0,0,0-1.28,1.27"/><path d="M438.2,221a2.16,2.16,0,1,1,2.16,2.16A2.16,2.16,0,0,1,438.2,221m.88,0a1.28,1.28,0,1,0,1.28-1.27,1.28,1.28,0,0,0-1.28,1.27"/><path d="M347.62,179.19A.45.45,0,0,0,348,179l4-5.52a.45.45,0,0,0-.09-.62.46.46,0,0,0-.62.1l-3.83,5.32-4.37-.41-.5-6.1a.41.41,0,0,0-.47-.41.45.45,0,0,0-.4.48l.52,6.47a.45.45,0,0,0,.4.4l5,.47h0"/><path d="M348.44,189.92a.44.44,0,0,0,.44-.47l-.82-10.73a.42.42,0,0,0-.47-.4.44.44,0,0,0-.4.47l.82,10.73a.43.43,0,0,0,.43.4"/><path d="M339.08,185.85a.46.46,0,0,0,.4-.24l3.55-7.14a.43.43,0,1,0-.78-.38l-3.56,7.13a.43.43,0,0,0,.39.63"/><path d="M358.14,112.89a.43.43,0,0,0,.4-.27c.87-2.06,1.24-3.09,1.86-4.79l.5-1.36a3.27,3.27,0,0,0,0-2.29c-.7-1.57-1.45-3.14-2.19-4.7s-1.59-3.33-2.33-5a1.63,1.63,0,0,1,.16-1.34c1.39-1.48,2.84-2.95,4.25-4.37q1.64-1.65,3.24-3.31a1,1,0,0,1,1.52-.24c3.57,1.77,6.54,3.18,9.38,4.44a3.6,3.6,0,0,0,2.46.12c3-1.1,6-2.28,9-3.52a3.71,3.71,0,0,0,1.92-1.79c1.07-2.65,2.11-5.5,3.39-9.23.3-.87.56-1.2,1.47-1.15,3.32.08,6.73.08,10.4,0,.82,0,1.2.24,1.51,1.13.51,1.48,1,2.94,1.58,4.41s1.14,3.09,1.67,4.65a3.08,3.08,0,0,0,2.21,2.12c2.93,1,5.75,2.15,8.38,3.36a3.15,3.15,0,0,0,3.05,0q2.34-1.17,4.7-2.29c1.49-.71,3-1.42,4.46-2.16a1.17,1.17,0,0,1,1.68.29c2.64,2.77,5.05,5.17,7.35,7.35.67.63.64,1,.23,1.84-1.33,2.69-2.89,5.89-4.35,9.23a3.6,3.6,0,0,0,.06,2.6l.17.41c.26.6.38.88.73,1.64a.43.43,0,0,0,.57.22.44.44,0,0,0,.22-.58l-.71-1.63-.18-.41a2.77,2.77,0,0,1-.06-1.9c1.46-3.32,3-6.51,4.33-9.19a2.08,2.08,0,0,0-.41-2.86c-2.29-2.17-4.68-4.57-7.32-7.32a2,2,0,0,0-2.71-.47c-1.47.73-2.95,1.44-4.44,2.15s-3.15,1.51-4.71,2.3a2.3,2.3,0,0,1-2.3,0c-2.65-1.22-5.5-2.35-8.46-3.38A2.26,2.26,0,0,1,409.11,84c-.53-1.57-1.1-3.12-1.68-4.67s-1.07-2.92-1.57-4.39a2.19,2.19,0,0,0-2.36-1.72c-3.66.08-7.05.07-10.35,0a2.1,2.1,0,0,0-2.33,1.74c-1.27,3.72-2.31,6.56-3.37,9.19A2.91,2.91,0,0,1,386,85.45c-2.92,1.23-5.92,2.41-8.93,3.49a2.6,2.6,0,0,1-1.8-.09c-2.83-1.26-5.8-2.66-9.35-4.42a1.88,1.88,0,0,0-2.54.41q-1.61,1.66-3.23,3.3c-1.41,1.43-2.87,2.9-4.27,4.4a2.47,2.47,0,0,0-.33,2.29c.76,1.68,1.55,3.35,2.35,5s1.48,3.12,2.19,4.69a2.4,2.4,0,0,1,0,1.63l-.49,1.36c-.62,1.69-1,2.71-1.85,4.75a.43.43,0,0,0,.24.57.33.33,0,0,0,.17,0"/><path d="M398.35,148v0A20.61,20.61,0,1,1,413,142a20.69,20.69,0,0,1-14.61,6Zm-.21-40.45a20.32,20.32,0,1,0,.05,0Z"/><path d="M398.36,152.24a25,25,0,0,0,18.33-8,.44.44,0,0,0,0-.62.45.45,0,0,0-.62,0,24,24,0,0,1-17.68,7.75,24.27,24.27,0,0,1-3.81-.3.44.44,0,0,0-.5.37.43.43,0,0,0,.36.5,26.08,26.08,0,0,0,3.95.31Z"/><path d="M382.52,146.47a.43.43,0,0,0,.33-.15.43.43,0,0,0-.05-.62,23.65,23.65,0,0,1-5.91-7.46.45.45,0,0,0-.59-.2.44.44,0,0,0-.19.59,24.64,24.64,0,0,0,6.13,7.74.42.42,0,0,0,.28.1"/><path d="M385.45,106.91a.46.46,0,0,0,.23-.06,23.61,23.61,0,0,1,12.43-3.55,24.64,24.64,0,0,1,9.53,1.86.43.43,0,0,0,.57-.23.44.44,0,0,0-.23-.58,25.58,25.58,0,0,0-9.82-1.93,24.68,24.68,0,0,0-12.94,3.68.45.45,0,0,0-.14.61.44.44,0,0,0,.37.2"/><path d="M477.3,114.07c2.42,0,4.94-.06,7.75,0a1.63,1.63,0,0,0,1.78-1.27c.94-2.87,1.76-5.21,2.57-7.37a1.85,1.85,0,0,1,.87-.9c1-.45,1.92-.87,2.88-1.29,1.2-.52,2.43-1.06,3.62-1.65a1.54,1.54,0,0,1,1.6,0c1.09.55,2.09,1,3.12,1.51.63.29,1.26.59,1.93.92a.45.45,0,0,0,.59-.21.44.44,0,0,0-.21-.58l-1.93-.93c-1-.48-2-.95-3.11-1.49a2.41,2.41,0,0,0-2.38,0c-1.17.58-2.39,1.11-3.58,1.63-1,.42-1.95.85-2.91,1.3a2.78,2.78,0,0,0-1.32,1.39c-.81,2.17-1.62,4.52-2.57,7.4a.8.8,0,0,1-.93.67c-2.83,0-5.36,0-7.72,0-.6,0-.78-.13-1-.75-.85-2.63-1.68-5-2.54-7.27a2.91,2.91,0,0,0-1.43-1.46c-2.1-1-4.35-2-6.69-2.9a2.66,2.66,0,0,0-1.91,0c-1.95.87-3.84,1.76-5.84,2.72l-1.79.84-1.24-1.26c-1.59-1.59-3.22-3.24-4.78-4.9a1.23,1.23,0,0,1,0-.89c.56-1.23,1.14-2.45,1.72-3.67s1-2.19,1.54-3.29a2.62,2.62,0,0,0,.12-1.8c-.87-2.49-1.71-4.72-2.57-6.82a2.87,2.87,0,0,0-1.44-1.47c-2.47-1-5-1.87-6.85-2.53-.53-.18-.65-.37-.64-.94,0-2.75,0-5.28,0-7.72,0-.6.15-.8.76-1,1.86-.64,4.32-1.51,6.72-2.49A3.09,3.09,0,0,0,450.94,64c.81-1.86,1.63-3.94,2.58-6.53a2.54,2.54,0,0,0,0-1.78c-.53-1.17-1.08-2.34-1.64-3.5s-1.17-2.46-1.72-3.71a1.09,1.09,0,0,1,.1-.86c1-1.1,2.09-2.18,3.15-3.25.81-.81,1.61-1.63,2.41-2.45.34-.36.52-.39,1-.16,2.58,1.28,4.86,2.36,7,3.3a2.74,2.74,0,0,0,1.91.09c2.24-.81,4.48-1.69,6.66-2.61a2.86,2.86,0,0,0,1.49-1.4c.8-2,1.57-4.09,2.52-6.85.22-.65.37-.8,1-.78,2.46.07,5,.07,7.72,0,.59,0,.8.14,1,.76.37,1.08.77,2.16,1.16,3.24s.85,2.31,1.25,3.48a2.41,2.41,0,0,0,1.71,1.65c2.16.75,4.25,1.58,6.21,2.48a2.44,2.44,0,0,0,2.36,0c1.16-.59,2.34-1.15,3.52-1.71s2.19-1,3.27-1.59a.76.76,0,0,1,1.12.19c2,2.08,3.77,3.86,5.46,5.46.44.42.43.65.14,1.23-1,2-2.14,4.37-3.22,6.85a2.72,2.72,0,0,0,0,2c.94,2.19,1.95,4.38,3,6.49a3.23,3.23,0,0,0,1.53,1.5c2.44.92,4.94,1.76,7.28,2.52.63.2.78.4.77,1-.06,2.37-.06,4.89,0,7.72,0,.57-.11.74-.65.91-2.22.72-4.84,1.59-7.41,2.56a3.15,3.15,0,0,0-1.51,1.55c-.44.92-.84,1.86-1.25,2.79-.49,1.15-1,2.33-1.57,3.45a2.68,2.68,0,0,0-.05,2.64c.55,1.09,1.07,2.2,1.59,3.31s1,2.1,1.51,3.13c.28.58.24.82-.19,1.23-1.15,1.1-2.11,2-3.34,3.28a.44.44,0,0,0,0,.62.45.45,0,0,0,.62,0c1.17-1.19,2.1-2.1,3.32-3.25a1.68,1.68,0,0,0,.36-2.25c-.51-1-1-2.08-1.5-3.12s-1-2.23-1.59-3.33a1.76,1.76,0,0,1,.05-1.85c.57-1.15,1.09-2.34,1.59-3.5.4-.93.8-1.85,1.23-2.76a2.3,2.3,0,0,1,1-1.11c2.55-1,5.16-1.83,7.37-2.54a1.59,1.59,0,0,0,1.26-1.77c0-2.81,0-5.32,0-7.68a1.67,1.67,0,0,0-1.37-1.84c-2.33-.76-4.82-1.59-7.24-2.51a2.38,2.38,0,0,1-1.06-1.07c-1.05-2.1-2.05-4.27-3-6.45a1.88,1.88,0,0,1,0-1.32c1.07-2.46,2.22-4.82,3.21-6.81a1.67,1.67,0,0,0-.33-2.26c-1.67-1.58-3.45-3.36-5.43-5.43a1.6,1.6,0,0,0-2.14-.37c-1.08.54-2.17,1.06-3.26,1.59s-2.36,1.12-3.53,1.71a1.6,1.6,0,0,1-1.61,0c-2-.91-4.1-1.76-6.29-2.52a1.58,1.58,0,0,1-1.16-1.1c-.4-1.18-.83-2.34-1.25-3.5s-.79-2.15-1.16-3.23A1.71,1.71,0,0,0,485,32.63c-2.72.06-5.23.06-7.68,0A1.7,1.7,0,0,0,475.51,34c-.94,2.74-1.71,4.84-2.5,6.81a2,2,0,0,1-1,.91c-2.16.92-4.39,1.79-6.62,2.59a1.8,1.8,0,0,1-1.25-.06c-2.09-.93-4.36-2-6.93-3.28a1.53,1.53,0,0,0-2,.33c-.79.82-1.59,1.64-2.39,2.45-1.07,1.07-2.14,2.15-3.17,3.26a1.9,1.9,0,0,0-.26,1.82c.56,1.25,1.14,2.49,1.73,3.72s1.1,2.32,1.63,3.49a1.72,1.72,0,0,1,0,1.12c-.95,2.57-1.76,4.63-2.56,6.49a2.24,2.24,0,0,1-1,1.08c-2.39,1-4.82,1.84-6.68,2.48a1.7,1.7,0,0,0-1.34,1.86c0,2.43,0,4.94,0,7.68a1.63,1.63,0,0,0,1.24,1.79c1.88.65,4.35,1.53,6.8,2.52a2,2,0,0,1,1,1c.86,2.08,1.69,4.3,2.55,6.77a1.74,1.74,0,0,1-.09,1.16c-.49,1.1-1,2.19-1.53,3.27-.59,1.23-1.17,2.46-1.72,3.69a1.93,1.93,0,0,0,.2,1.85c1.57,1.67,3.21,3.32,4.8,4.92l1.46,1.48a.42.42,0,0,0,.5.08l2.06-1c2-1,3.88-1.85,5.82-2.71a1.81,1.81,0,0,1,1.23,0c2.33.94,4.56,1.91,6.65,2.88a2.07,2.07,0,0,1,1,1c.86,2.24,1.68,4.61,2.53,7.23a1.65,1.65,0,0,0,1.76,1.36"/><path d="M481.2,88.34v0A15.44,15.44,0,1,1,492.13,62,15.44,15.44,0,0,1,481.2,88.34Zm-.15-30a14.51,14.51,0,1,0,10.46,4.26,14.53,14.53,0,0,0-10.46-4.26Z"/><path d="M499.43,78.45a.44.44,0,0,0,.42-.33,19.27,19.27,0,0,0,.71-5.25A19.52,19.52,0,0,0,498,63.13a.44.44,0,0,0-.76.44A18.74,18.74,0,0,1,499,77.89a.44.44,0,0,0,.31.54l.11,0"/><path d="M481.21,92.28a19.13,19.13,0,0,0,4.72-.58.43.43,0,0,0,.32-.53.45.45,0,0,0-.53-.32,18.59,18.59,0,0,1-22.37-13,.43.43,0,0,0-.54-.3.44.44,0,0,0-.3.54,19.43,19.43,0,0,0,18.7,14.15"/><path d="M473.2,56.13a.65.65,0,0,0,.19,0A17.88,17.88,0,0,1,481,54.4a.44.44,0,0,0,.44-.44.44.44,0,0,0-.44-.44,18.78,18.78,0,0,0-8,1.77.44.44,0,0,0-.22.58.46.46,0,0,0,.4.26"/><path d="M325.45,186.43a.44.44,0,0,0,.43-.36,47.1,47.1,0,0,1,3.51-10.66.44.44,0,0,0-.78-.41A47.09,47.09,0,0,0,325,185.9a.45.45,0,0,0,.35.52h.08"/><path d="M363.72,214.2a3.53,3.53,0,0,0,1.82-.45,4.42,4.42,0,0,0,1.9-3,13.79,13.79,0,0,0,.32-2.18,12.88,12.88,0,0,0-2.17-8.65,9.16,9.16,0,0,0-7-3.77,5.28,5.28,0,0,0-5.06,2.94.43.43,0,0,0,.23.57.45.45,0,0,0,.58-.23,4.42,4.42,0,0,1,4.24-2.4,8.29,8.29,0,0,1,6.36,3.42c2,2.59,2.1,6.16,2,8.07a11.84,11.84,0,0,1-.29,2,3.68,3.68,0,0,1-1.48,2.45,3,3,0,0,1-1.74.32,3.8,3.8,0,0,1-3.05-1.77,5.14,5.14,0,0,1-.49-2.55v-.67a10.33,10.33,0,0,0-.39-3.79,13.65,13.65,0,0,0-2.22-3.73.44.44,0,1,0-.69.54,12.51,12.51,0,0,1,2.08,3.48,9.25,9.25,0,0,1,.35,3.48l0,.68a6,6,0,0,0,.61,3,4.66,4.66,0,0,0,3.74,2.21l.42,0"/><path d="M723.45,267.6a.45.45,0,0,0,.44.45H890.43a.45.45,0,1,0,0-.89h-4.18V148.36a.61.61,0,0,1,0-.15s0-.06,0-.1l0-.06-.1-.2-27.6-37.66a.45.45,0,0,0-.72.53l27.46,37.48-20.65,19.47v-26a.45.45,0,0,0-.89,0V249.86h-102a.44.44,0,0,0-.44.44.44.44,0,0,0,.44.44H885.36v16.42H729V250.74h21.25a.42.42,0,0,0,.26-.08l.08-.12,0-.06v0l0-.09a1.42,1.42,0,0,1,0-.2V118.8l5.91-8.08a.44.44,0,0,0-.09-.62.43.43,0,0,0-.33-.08.42.42,0,0,0-.29.17L728.23,147.9a.56.56,0,0,1-.07.15l0,.07s0,0,0,.07a1.37,1.37,0,0,1,0,.23V267.16h-4.19a.44.44,0,0,0-.44.44m161.91-38.74-20.54-19.37,20.54-19.37Zm0-79.58V188.1l-20.59-19.41Zm-20.8,20.43,20.58,19.4-20.58,19.4Zm0,40.76,20.58,19.4-20.58,19.4Zm.67,39.39,20.13-19v19Zm-115.46-.59-20.58-19.4,20.58-19.4Zm0-40.76-20.58-19.4,20.58-19.4ZM729,149.28l10.1,9.52a.43.43,0,0,0,.31.12.44.44,0,0,0,.32-.14.44.44,0,0,0,0-.63l-10.56-10L749.77,120v48.48l-.08.07L729,188.1Zm0,40.84,20.55,19.37L729,228.86Zm0,40.76,20.13,19H729Z"/><path d="M853.73,128.71v-9a2,2,0,0,0-.82-1.61l-5-3.67V84a.47.47,0,1,0-.93,0v6.48H834.6V68H847v4.94a.47.47,0,0,0,.93,0V58.75a12.53,12.53,0,0,0-1-4.87l-4.31-10.3a2,2,0,0,0-1.51-1.2l5,11.86a11.68,11.68,0,0,1,.91,4.51v8.33H834.6V58.75a11.68,11.68,0,0,1,.91-4.51l5-11.86a2,2,0,0,0-1.51,1.2l-4.31,10.3a12.53,12.53,0,0,0-1,4.87v42.18L826.1,85.58V52.35a.46.46,0,1,0-.92,0V83.76l-4.37-8.88V70.42a24.72,24.72,0,0,0-11.56-20.94,3.92,3.92,0,0,0-4.17,0,24.73,24.73,0,0,0-11.57,20.94l0,4.57-4.34,8.77v-47a40.4,40.4,0,0,1,2.13-12.57l.42-1.27h9v6.5a2,2,0,0,0,2,2h9a2,2,0,0,0,2-2v-6.5h9l.42,1.27a40.7,40.7,0,0,1,2.13,12.57v4.91a.46.46,0,1,0,.92,0V36.73c0-13-7.08-27-16.83-33.29a4,4,0,0,0-4.21,0c-9.76,6.24-16.84,20.24-16.84,33.29v48.9l-7.57,15.3V58.75a12.53,12.53,0,0,0-1-4.87l-4.3-10.3a2,2,0,0,0-1.51-1.2l5,11.86a11.64,11.64,0,0,1,.9,4.51v8.33H767.31V58.75a11.67,11.67,0,0,1,.9-4.51l5-11.86a2,2,0,0,0-1.51,1.2l-4.3,10.3a12.53,12.53,0,0,0-1,4.87v55.72l-5,3.67a2,2,0,0,0-.82,1.61v9a2,2,0,0,0,1.51,1.94l4.28,1.11V148l-1.77,6.42a2.21,2.21,0,0,0,2.13,2.8H780.3a2.21,2.21,0,0,0,2.13-2.8L780.65,148V135.44l8.27,2.14v6.72a2,2,0,0,0,2,2h3.57v8.94a2,2,0,0,0,2,2h21.32a2,2,0,0,0,2-2v-8.94h3.57a2,2,0,0,0,2-2v-6.72l8.26-2.14V148l-1.76,6.42a2.21,2.21,0,0,0,2.12,2.8h13.57a2.21,2.21,0,0,0,2.13-2.8L848,148V131.76l4.27-1.11a2,2,0,0,0,1.51-1.94m-41-98.24H801.6V22.89h11.12ZM793.19,19.33c3.06-6.6,7.45-12,12.37-15.11a3,3,0,0,1,3.21,0c4.91,3.14,9.31,8.5,12.37,15.1L822.36,22H792Zm41.41,72H847v22.42l-9.41-7a8.23,8.23,0,0,1-2.49-3l-.52-1.11ZM795.75,62.63a24,24,0,0,1,9.82-12.36,3,3,0,0,1,3.18,0,24,24,0,0,1,9.82,12.36l.86,2.46H794.9ZM767.31,68h12.41V90.44H767.31Zm0,23.36h12.42l0,11.5-.5,1a8.23,8.23,0,0,1-2.49,3l-9.41,7Zm14.68,65H765.05l2.14-7.79h12.64Zm-14.67-8.72V132l12.41,3.2v12.41Zm21.61-13.53v2.54l-27.4-7.07V119.21l15.74-11.63a9.27,9.27,0,0,0,2.78-3.31L793.51,77v53.31l-1.57.24a3.56,3.56,0,0,0-3,3.5m30,22.25H795.42v-10H818.9Zm5.58-11H789.85v-11.3a2.62,2.62,0,0,1,2.62-2.62h11.91a.47.47,0,1,0,0-.93h-9.94V70.42a25.69,25.69,0,0,1,.16-2.76l.19-1.64h24.74l.19,1.64a23.34,23.34,0,0,1,.16,2.76v60.11H815.5a.47.47,0,0,0,0,.93h6.35a2.62,2.62,0,0,1,2.63,2.62Zm24.79,11H832.34l2.15-7.79h12.64Zm-14.67-8.72V135.2L847,132v15.61Zm18.2-18.06-27.39,7.07v-2.54a3.56,3.56,0,0,0-3-3.5l-1.58-.24V77l13.48,27.24a9.14,9.14,0,0,0,2.77,3.31l15.74,11.63Z"/><path d="M556.1,207.43a3.07,3.07,0,0,1-2.29-1l-3.76-4.24a3,3,0,0,1-.78-2.22,3.06,3.06,0,0,1,1-2.12l1.78-1.58a.37.37,0,0,1,.53,0,.39.39,0,0,1,0,.53l-1.78,1.58A2.29,2.29,0,0,0,550,200a2.26,2.26,0,0,0,.59,1.68l3.76,4.24a2.32,2.32,0,0,0,3.28.19l1.85-1.65a.37.37,0,0,1,.53,0,.38.38,0,0,1,0,.53l-1.85,1.65a3.09,3.09,0,0,1-2,.78"/><path d="M564.25,216.59a3.08,3.08,0,0,1-2.3-1L558.84,212a3.07,3.07,0,0,1,.25-4.34l1.77-1.58a.38.38,0,0,1,.53,0,.37.37,0,0,1,0,.53l-1.77,1.58a2.33,2.33,0,0,0-.19,3.28l3.11,3.53a2.33,2.33,0,0,0,3.28.18l1.85-1.65a.39.39,0,0,1,.53,0,.37.37,0,0,1,0,.53l-1.85,1.65a3.07,3.07,0,0,1-2,.78"/><path d="M587.05,182.52a.4.4,0,0,1-.27-.11.38.38,0,0,1,0-.53l1.33-1.26a2,2,0,0,0,.56-1.76,3.91,3.91,0,0,0-1.07-2.18l-2.92-2.37c-1.26-1.32-3-1.66-3.94-.78L579,175.16a.37.37,0,0,1-.53,0,.38.38,0,0,1,0-.53l1.73-1.63c1.23-1.16,3.46-.82,5,.78l2.93,2.36a4.65,4.65,0,0,1,1.3,2.64,2.75,2.75,0,0,1-.78,2.39l-1.34,1.26a.35.35,0,0,1-.26.1"/><path d="M560.39,202.16a.38.38,0,0,1-.3-.15.38.38,0,0,1,.07-.52l5.41-4.1a.39.39,0,0,1,.53.07.38.38,0,0,1-.08.53l-5.4,4.09a.4.4,0,0,1-.23.08"/><path d="M571.86,193.56a.36.36,0,0,1-.28-.12.38.38,0,0,1,0-.53L585,180.8a.38.38,0,1,1,.5.56l-13.41,12.1a.36.36,0,0,1-.25.1"/><path d="M571.42,205.15a.37.37,0,0,1-.28-.13.38.38,0,0,1,0-.53l13-11.58a.37.37,0,0,1,.53,0,.38.38,0,0,1,0,.53l-13,11.58a.35.35,0,0,1-.25.1"/><path d="M587.9,195.37h-.1a.38.38,0,0,1-.26-.46l2.68-9.58a.39.39,0,0,1,.47-.26.38.38,0,0,1,.26.46l-2.69,9.58a.36.36,0,0,1-.36.27"/><path d="M662.36,207.43a3,3,0,0,1-2-.78L658.47,205a.37.37,0,0,1,0-.53.38.38,0,0,1,.53,0l1.85,1.65a2.33,2.33,0,0,0,3.28-.19l3.76-4.24a2.32,2.32,0,0,0-.19-3.28l-1.77-1.58a.38.38,0,0,1,.5-.56l1.77,1.58a3.07,3.07,0,0,1,.25,4.34l-3.76,4.24a3.08,3.08,0,0,1-2.3,1"/><path d="M654.22,216.59a3.09,3.09,0,0,1-2.05-.78l-1.85-1.65a.39.39,0,0,1,0-.53.38.38,0,0,1,.53,0l1.85,1.65a2.32,2.32,0,0,0,3.28-.19l3.11-3.51a2.34,2.34,0,0,0-.18-3.29l-1.78-1.58a.38.38,0,0,1,.5-.56l1.77,1.58a3.06,3.06,0,0,1,.25,4.34l-3.11,3.52a3.06,3.06,0,0,1-2.29,1"/><path d="M631.41,182.52a.37.37,0,0,1-.26-.1l-1.33-1.26c-1.24-1.16-1-3.4.48-5l3-2.44c1.46-1.55,3.68-1.9,4.92-.74l1.73,1.63a.38.38,0,0,1,0,.53.37.37,0,0,1-.53,0l-1.73-1.63c-.93-.88-2.68-.54-3.89.75l-3,2.44c-1.18,1.25-1.41,3-.48,3.9l1.34,1.26a.38.38,0,0,1,0,.53.39.39,0,0,1-.27.11"/><path d="M625.37,254H609.65a.37.37,0,0,1-.37-.37.38.38,0,0,1,.37-.38h15.72a11.68,11.68,0,0,0,11-7.72L647,215.8a.54.54,0,0,1,.07-.13l17.39-19.18a5.22,5.22,0,0,0-.07-7.51l-17.14-13.55c-2.67-1.82-5.25-1.53-7.66.87l-11.5,9.41a.39.39,0,0,1-.33.08.4.4,0,0,1-.25-.21l-2.86-6.29c-1-2-2-3.18-3.77-3.19H597.55c-1.79,0-2.77,1.23-3.77,3.2l-2.85,6.28a.42.42,0,0,1-.26.21.38.38,0,0,1-.32-.08l-11.48-9.38c-2.44-2.43-5-2.72-7.71-.88L554,189a5.22,5.22,0,0,0-.06,7.48l17.4,19.19a.33.33,0,0,1,.07.13l10.69,29.77a11.69,11.69,0,0,0,11,7.72h15.71a.38.38,0,0,1,.38.38.37.37,0,0,1-.38.37H593.1a12.45,12.45,0,0,1-11.69-8.22l-10.66-29.7L553.42,197a6,6,0,0,1,.11-8.56l17.19-13.59c3-2.06,6-1.73,8.65.92l11.08,9L593.1,179c1.11-2.18,2.28-3.62,4.45-3.63h23.36c2.17,0,3.35,1.45,4.44,3.61l2.67,5.86,11.1-9.07c2.63-2.63,5.62-3,8.6-.92l17.19,13.58A6,6,0,0,1,665,197l-17.32,19.11-10.66,29.7A12.43,12.43,0,0,1,625.37,254"/><path d="M658.07,202.16a.35.35,0,0,1-.22-.08L652.44,198a.38.38,0,0,1,.45-.6l5.41,4.1a.37.37,0,0,1,.07.52.36.36,0,0,1-.3.15"/><path d="M645.5,192.73a.39.39,0,0,1-.25-.1l-12.31-11.27a.38.38,0,1,1,.5-.56l12.31,11.28a.37.37,0,0,1,0,.53.39.39,0,0,1-.28.12"/><path d="M647,205.15a.35.35,0,0,1-.25-.1l-13-11.58a.38.38,0,1,1,.5-.56l13,11.58a.37.37,0,0,1,0,.53.34.34,0,0,1-.28.13"/><path d="M630.56,195.37a.37.37,0,0,1-.36-.27l-2.68-9.58a.37.37,0,0,1,.72-.2l2.68,9.58a.37.37,0,0,1-.26.46h-.1"/><path d="M629.36,221.5a5.09,5.09,0,1,1,5.08-5.08,5.09,5.09,0,0,1-5.08,5.08m0-9.42a4.34,4.34,0,1,0,4.33,4.34,4.35,4.35,0,0,0-4.33-4.34"/><path d="M629.36,228.59a12.17,12.17,0,1,1,12.16-12.17,12.18,12.18,0,0,1-12.16,12.17m0-23.59a11.42,11.42,0,1,0,11.41,11.42A11.43,11.43,0,0,0,629.36,205"/><path d="M599.42,214.4a9.06,9.06,0,1,1,9.06-9.05,9.06,9.06,0,0,1-9.06,9.05m0-17.36a8.31,8.31,0,1,0,8.31,8.31,8.31,8.31,0,0,0-8.31-8.31"/><path d="M642.12,239.35a4.29,4.29,0,0,1-1.06-.14l-1.47-.41a.37.37,0,0,1-.26-.46.37.37,0,0,1,.46-.26l1.47.4a3.18,3.18,0,0,0,3.81-1.88l3.95-9.86a3.19,3.19,0,0,0-2.35-4.31l-1.1-.22a.37.37,0,1,1,.15-.73l1.1.22a3.92,3.92,0,0,1,2.89,5.32l-3.94,9.85a3.93,3.93,0,0,1-3.65,2.48"/><path d="M576.73,239.35a3.93,3.93,0,0,1-3.65-2.48L569.14,227A3.92,3.92,0,0,1,572,221.7l1.1-.22a.37.37,0,0,1,.44.29.38.38,0,0,1-.29.44l-1.11.22a3.19,3.19,0,0,0-2.34,4.31l3.95,9.86a3.17,3.17,0,0,0,3.81,1.88l1.47-.4a.37.37,0,0,1,.46.26.37.37,0,0,1-.26.46l-1.47.41a4.35,4.35,0,0,1-1.06.14"/><path d="M633.39,205.72h-.09l-32.71-8.58a.37.37,0,1,1,.19-.72L633.49,205a.37.37,0,0,1,.26.46.36.36,0,0,1-.36.28"/><path d="M605.8,247.53a.37.37,0,0,1-.3-.16.37.37,0,0,1,.09-.52l32-22.51a.37.37,0,0,1,.43.61l-32,22.51a.36.36,0,0,1-.22.07"/><path d="M586.64,238.33h0a.38.38,0,0,1-.32-.42l4.1-32.61a.38.38,0,0,1,.42-.33.39.39,0,0,1,.33.42L587,238a.37.37,0,0,1-.37.33"/><path d="M627.22,184.35h-36a.36.36,0,0,1-.37-.37.37.37,0,0,1,.37-.38h36a.38.38,0,0,1,.38.38.37.37,0,0,1-.38.37"/><path d="M620.68,176.1a.38.38,0,0,1-.38-.37V173a1.49,1.49,0,0,0-1.49-1.49h-19a1.49,1.49,0,0,0-1.49,1.49v2.77a.38.38,0,0,1-.75,0V173a2.24,2.24,0,0,1,2.24-2.24h19a2.24,2.24,0,0,1,2.24,2.24v2.77a.38.38,0,0,1-.37.37"/><path d="M294.66,163.26a.38.38,0,0,1-.26-.11L289.21,158a.39.39,0,0,1-.11-.22l-.55-4.54a.4.4,0,0,1,.11-.31l5.19-5.19a.41.41,0,0,1,.32-.11l4.44.65a.36.36,0,0,1,.21.11l4.81,4.81c.5-1.28,1.43-5-2.76-9.21-4.7-4.71-9.08-3.67-11.92-2a.38.38,0,0,1-.39-.65c4.35-2.6,8.91-1.86,12.84,2.08,5.48,5.48,2.7,10.52,2.67,10.57a.36.36,0,0,1-.28.18.35.35,0,0,1-.31-.1l-5.1-5.1-4.13-.61-4.93,4.93.51,4.23,5.1,5.1a.39.39,0,0,1,0,.53.4.4,0,0,1-.27.11"/><path d="M291.85,163.84c-1.92,0-4.56-.68-7.37-3.49-5.06-5.06-4-9.73-2.16-12.76a.36.36,0,0,1,.51-.13.37.37,0,0,1,.13.51c-2.39,4-1.69,8.11,2.05,11.84,5.06,5.07,9.29,2.84,9.47,2.75a.37.37,0,0,1,.51.14.37.37,0,0,1-.15.51,6.8,6.8,0,0,1-3,.63"/><path d="M291,140.66a.34.34,0,0,1-.26-.11L276.09,125.9a.39.39,0,0,1,0-.53.37.37,0,0,1,.53,0L291.28,140a.39.39,0,0,1,0,.53.36.36,0,0,1-.27.11"/><path d="M281.26,150.41a.34.34,0,0,1-.26-.11L269.73,139a.37.37,0,1,1,.53-.53l11.27,11.26a.39.39,0,0,1,0,.53.36.36,0,0,1-.27.11"/><path d="M243.53,117.06c-3,0-5.93-1.35-8.61-4-6.14-6.14-3-11.78-3-11.84a.37.37,0,0,1,.59-.08l5.75,5.75,4.69.69,5.58-5.58-.58-4.8-5.75-5.75a.37.37,0,0,1,.53-.53l5.84,5.84a.39.39,0,0,1,.11.22l.62,5.11a.4.4,0,0,1-.11.31l-5.84,5.84a.37.37,0,0,1-.32.11l-5-.73a.36.36,0,0,1-.21-.11L232.37,102c-.57,1.38-1.72,5.68,3.08,10.48,5.32,5.32,10.27,4.14,13.49,2.22a.37.37,0,1,1,.38.64,11.25,11.25,0,0,1-5.79,1.71"/><path d="M256,108.52a.45.45,0,0,1-.19,0,.38.38,0,0,1-.13-.52c2.71-4.54,1.91-9.17-2.31-13.38-5.72-5.73-10.52-3.21-10.72-3.1a.37.37,0,0,1-.51-.15.36.36,0,0,1,.15-.5s5.47-2.93,11.61,3.21c5.67,5.67,4.45,10.91,2.43,14.31a.39.39,0,0,1-.33.18"/><path d="M255.06,124.22a.38.38,0,0,1-.26-.11L247,116.29a.37.37,0,0,1,.53-.53l7.82,7.82a.37.37,0,0,1,0,.53.39.39,0,0,1-.27.11"/><path d="M266.58,116.23a.39.39,0,0,1-.27-.11l-9.58-9.58a.39.39,0,0,1,0-.53.4.4,0,0,1,.54,0l9.57,9.58a.37.37,0,0,1,0,.53.38.38,0,0,1-.26.11"/><path d="M289,108.56a.37.37,0,0,1-.07-.74l4.29-.91,5.58-7.49-5.66-5.66-7.48,5.58-.91,4.3a.38.38,0,1,1-.74-.16l.94-4.43a.39.39,0,0,1,.15-.23L292.91,93a.37.37,0,0,1,.48,0l6.12,6.12a.37.37,0,0,1,0,.49l-5.86,7.86a.4.4,0,0,1-.22.14l-4.44.94H289"/><path d="M269.43,128a.39.39,0,0,1-.27-.11.37.37,0,0,1,0-.53l19.48-19.48a.37.37,0,0,1,.53.53l-19.48,19.48a.38.38,0,0,1-.26.11"/><path d="M264.89,123.46a.36.36,0,0,1-.27-.11.39.39,0,0,1,0-.53l19.49-19.48a.37.37,0,0,1,.53,0,.39.39,0,0,1,0,.53l-19.49,19.48a.34.34,0,0,1-.26.11"/><path d="M269,135.44a1.13,1.13,0,0,1-.8-.33h0l-10.74-10.73a1.14,1.14,0,0,1,0-1.62l3-3a1.15,1.15,0,0,1,1.61,0l10.74,10.74a1.12,1.12,0,0,1,0,1.61l-3,3a1.1,1.1,0,0,1-.81.34m-.27-.87a.38.38,0,0,0,.55,0l3-3a.36.36,0,0,0,.12-.27.36.36,0,0,0-.12-.28l-10.74-10.74a.39.39,0,0,0-.55,0l-3,3a.4.4,0,0,0,0,.56Z"/><path d="M239.11,163a6.53,6.53,0,0,1-4.65-1.93l-3-3a6.6,6.6,0,0,1,0-9.32L248.2,132a6.59,6.59,0,0,1,9.32,0,.39.39,0,0,1,0,.53.37.37,0,0,1-.53,0,5.84,5.84,0,0,0-8.26,0L232,149.27a5.86,5.86,0,0,0,0,8.26l3,3a5.83,5.83,0,0,0,8.25,0L260,143.78a5.83,5.83,0,0,0,0-8.25.37.37,0,1,1,.53-.53,6.58,6.58,0,0,1,0,9.31l-16.78,16.78a6.54,6.54,0,0,1-4.66,1.93"/><path d="M253.86,130.86h-.16a.38.38,0,0,1-.33-.42.37.37,0,0,1,.42-.32s2.55.19,5.41-4.37a.37.37,0,1,1,.63.4c-2.75,4.4-5.3,4.72-6,4.72"/><path d="M262,139.15a.37.37,0,0,1-.36-.29c0-.1-.55-2.6,4.69-6.16a.37.37,0,0,1,.52.09.39.39,0,0,1-.1.53c-4.74,3.22-4.39,5.35-4.38,5.38a.38.38,0,0,1-.29.44H262"/><path class="cls-7" d="M48.91,201.47a.45.45,0,0,1-.45-.44l0-3.29-.83.21a13.15,13.15,0,0,1-8.37-.7l-.77-.33a4.83,4.83,0,0,1,.75-9.11l.78-.19a17.11,17.11,0,0,1,6.61-.34l1.14.16a9.61,9.61,0,0,1,7.68,6.21l.58,1.58a.46.46,0,0,1-.27.58.46.46,0,0,1-.58-.27L54.57,194a8.73,8.73,0,0,0-7-5.63l-1.14-.16a16.29,16.29,0,0,0-6.26.32l-.78.2a3.92,3.92,0,0,0-.61,7.4l.77.34a12.19,12.19,0,0,0,7.79.64l1.38-.34a.42.42,0,0,1,.39.08.43.43,0,0,1,.17.35l0,3.86a.43.43,0,0,1-.44.45Z"/><path class="cls-7" d="M126.1,260.71H76.76A45.92,45.92,0,0,1,55,255.21a17.14,17.14,0,0,1-5.63-4.91l-11-15.12a17.33,17.33,0,0,1-3.24-8.51l-.59-6a17.29,17.29,0,0,1,11.46-18l6-2.13a1.29,1.29,0,0,0,.72-.62l11.57-22.3a17.22,17.22,0,0,1,11.46-9c17-3.82,54.36-3.82,71.37,0a17.24,17.24,0,0,1,11.46,9l2.84,5.48a.45.45,0,0,1-.19.61.46.46,0,0,1-.61-.19L157.8,178a16.33,16.33,0,0,0-10.86-8.51c-16.92-3.8-54.06-3.8-71,0A16.31,16.31,0,0,0,65.11,178l-11.57,22.3a2.16,2.16,0,0,1-1.22,1.06l-6,2.13a16.38,16.38,0,0,0-10.86,17.08l.59,6a16.35,16.35,0,0,0,3.07,8.07l11,15.12a16,16,0,0,0,5.33,4.65,45,45,0,0,0,21.33,5.39H126.1a.45.45,0,0,1,0,.9"/><path class="cls-7" d="M111.55,200.47c-15.5,0-47.65-.15-48.9-1.4a.59.59,0,0,1-.16-.37.45.45,0,0,1,0-.2l9-18.65c2.18-4.53,6.69-8.27,39.91-8.27s37.74,3.74,39.92,8.26l1.55,3.21a.45.45,0,0,1-.21.6.44.44,0,0,1-.6-.21l-1.55-3.2c-2-4.09-6.45-7.76-39.11-7.76s-37.13,3.67-39.1,7.76l-8.81,18.25c3.27.73,27.75,1.2,56.22,1.06h0a.45.45,0,0,1,0,.9c-.13,0-3.35,0-8.21,0"/><path class="cls-7" d="M75.06,236.87a7.28,7.28,0,0,1-1.22-.11h0l-17-2.94c-5.49-.95-9.85-6.13-10.59-12.6a7.7,7.7,0,0,1,1.15-5c1-1.53,3-2.15,5.9-1.84,8.9.92,25.05,10.4,27.76,17.68a2.29,2.29,0,0,1-.45,2.35,7.72,7.72,0,0,1-5.51,2.43m-1.07-1a6.67,6.67,0,0,0,5.93-2.07,1.38,1.38,0,0,0,.26-1.4c-2.57-6.9-18.53-16.22-27-17.11-1.78-.18-4.1-.09-5.05,1.43a6.72,6.72,0,0,0-1,4.39c.69,6.08,4.74,10.94,9.84,11.82Z"/><path class="cls-7" d="M174.13,229.54h0a.45.45,0,0,1-.4-.49,18.46,18.46,0,0,0-12.76-19.43.44.44,0,0,1-.29-.56.45.45,0,0,1,.56-.3,19.38,19.38,0,0,1,13.39,20.38.45.45,0,0,1-.45.4"/><path class="cls-7" d="M155.32,255.51a28.3,28.3,0,1,1,20-8.28,28.22,28.22,0,0,1-20,8.28m0-55.7a27.4,27.4,0,1,0,19.38,8,27.33,27.33,0,0,0-19.38-8"/><path class="cls-7" d="M155.32,265.67a38.46,38.46,0,1,1,27.19-11.26l-.31-.32.31.32a38.21,38.21,0,0,1-27.19,11.26m0-76a37.55,37.55,0,1,0,26.56,11,37.5,37.5,0,0,0-26.56-11"/><path d="M821.65,193.18c7.05-14.92-6.35-24.43-6.49-24.53h0a.34.34,0,0,0-.44,0,.35.35,0,0,0-.1.24.83.83,0,0,0,0,.15c4.18,13.93-1.91,20.68-4.72,22.94l-.54.44v-.7a27.26,27.26,0,0,0-4.73-15.66.36.36,0,0,0-.39-.14,20.78,20.78,0,0,0-4.73,2.65l-.58.4.07-.7a77.62,77.62,0,0,1,1.89-9.27.36.36,0,0,0-.24-.43.39.39,0,0,0-.3.06,28.53,28.53,0,0,0-9.29,14.53c-2.05,8.36,3.15,16.6,4.21,18.16a.37.37,0,0,0,.52.13.35.35,0,0,0,.14-.32,24,24,0,0,1,3.1-13.19l.91-1.61-.31,1.83a46.1,46.1,0,0,0-.21,11c1,12.86,12.64,18.35,12.76,18.41a.36.36,0,0,0,.27,0,.37.37,0,0,0,.19-.18.32.32,0,0,0,0-.19c-.69-5.44.56-7.82,3.93-14.18,1.47-2.78,3.07-5.84,5-9.91M816,202.77c-3.09,5.85-4.5,8.52-4.13,13.32l.05.62-.54-.32c-3.12-1.85-10.45-7.25-11.23-17.21-.69-8.94.47-12.81,1.22-14.33a3.54,3.54,0,0,1,.45-.71.35.35,0,0,0,0-.51.34.34,0,0,0-.47,0,24.08,24.08,0,0,0-6.11,15.13l0,1.19-.57-1c-1.71-3.16-4.37-9.38-2.87-15.55a27.88,27.88,0,0,1,7.39-12.65l.82-.82-.27,1.13a47.75,47.75,0,0,0-1.46,8.67.36.36,0,0,0,.56.28,32.15,32.15,0,0,1,5.18-3.15l.25-.1.15.22c.82,1.27,4.91,8,4.23,16.16a.34.34,0,0,0,.08.26.35.35,0,0,0,.43.08c.44-.27,10.59-6.62,6.69-22.54l-.26-1,.79.73c3.14,2.9,9.81,10.77,4.86,21.84h0l-.21.47c-1.91,4.05-3.54,7.13-4.84,9.61Z"/></svg>