<svg xmlns="http://www.w3.org/2000/svg" viewBox="0 0 268.2 273.84"><defs><clipPath id="309964ad-1b44-4a91-9404-ef011d4ca233"><path fill="none" d="M161.89 4.76H216.42999999999998V64.55H161.89z"/></clipPath></defs><g id="f0451b0b-b00b-4872-b074-71818fb7e6fc" data-name="Layer 2"><g id="c46c6841-37a6-480c-8908-5f2d854f9a5f" data-name="Layer 1"><path d="M200.23,221c2.86-11.17,4.65-24.34,4.65-40.86,0-40.91-11-61.23-22-81.74l1.06-.57c11,20.5,22.13,41.19,22.12,82.31,0,16.61-1.8,29.88-4.69,41.16Z"/><path d="M160.78,262.78v-.6c0-16.61,1.8-29.88,4.69-41.16l1.17.3c-2.82,11-4.61,24-4.65,40.26h21.45v1.21Z"/><path d="M183.07,262.78l-.17-.32c-11-20.5-22.14-41.19-22.12-82.31,0-16.54,1.79-29.77,4.65-41-2.86-11.24-4.66-24.48-4.65-41v-.6h22.65v1.2H162c.12,40.5,11,60.73,22,81.14s22.14,41.19,22.12,82.31v.6Zm21.81-1.21c-.12-40.5-11-60.73-22-81.14-6.27-11.66-12.57-23.37-16.83-38.87A165.89,165.89,0,0,0,162,180.15c0,40.7,10.85,61,21.81,81.42Z"/><path d="M200.23,139c2.82-11,4.61-24,4.65-40.26H184.09v-1.2h22v.6c0,16.61-1.8,29.89-4.69,41.16Z"/><path d="M193.14 103.36H199.57V104.57H193.14z"/><path d="M167.3 103.36H179.94V104.57H167.3z"/><path d="M198.1 113.52H199.01V114.72999999999999H198.1z"/><path d="M167.85 113.52H185.19V114.72999999999999H167.85z"/><path d="M169.02 123.68H189.77V124.89H169.02z"/><path d="M170.92 133.84H193.41V135.05H170.92z"/><path d="M173.69 144H196.11V145.21H173.69z"/><path d="M177.41 154.15H197.96V155.36H177.41z"/><path d="M182.05 164.31H199.07000000000002V165.52H182.05z"/><path d="M167.79 164.31H169.10999999999999V165.52H167.79z"/><path d="M187.33 174.47H199.58V175.67H187.33z"/><path d="M167.28 174.47H174.12V175.67H167.28z"/><path d="M192.75 184.63H199.59V185.82999999999998H192.75z"/><path d="M167.28 184.63H179.53V185.82999999999998H167.28z"/><path d="M197.76 194.79H199.07999999999998V196H197.76z"/><path d="M167.85 194.79H184.81V196H167.85z"/><path d="M168.91 204.94H189.46V206.15H168.91z"/><path d="M170.75 215.1H193.17000000000002V216.29999999999998H170.75z"/><path d="M173.45 225.26H195.94V226.47H173.45z"/><path d="M177.1 235.42H197.85V236.63H177.1z"/><path d="M181.68 245.58H199.02V246.79000000000002H181.68z"/><path d="M167.85 245.58H168.76V246.79000000000002H167.85z"/><path d="M186.93 255.73H199.57V256.94H186.93z"/><path d="M167.3 255.73H173.73000000000002V256.94H167.3z"/><path d="M219.38 57.47H228.19V58.68H219.38z"/><path d="M219.38 68.12H237.97V69.33H219.38z"/><path d="M219.38 78.77H240.48V79.97999999999999H219.38z"/><path d="M219.38 89.42H241.9V90.63H219.38z"/><path d="M219.38 110.72H244.16V111.92H219.38z"/><path d="M219.38 121.37H245.15V122.58H219.38z"/><path d="M219.38 132.02H246.07V133.23000000000002H219.38z"/><path d="M219.38 142.67H246.95V143.86999999999998H219.38z"/><path d="M219.38 153.32H247.78V154.53H219.38z"/><path d="M219.38 163.97H248.57V165.17H219.38z"/><path d="M219.38 185.27H250.04V186.48000000000002H219.38z"/><path d="M219.38 206.57H251.35V207.76999999999998H219.38z"/><path d="M219.38 217.22H251.94V218.42H219.38z"/><path d="M219.38 227.87H252.47V229.08H219.38z"/><path d="M219.38 238.52H252.93V239.73000000000002H219.38z"/><path d="M213.06,262.78h-.6V43.71l.77.22h.06l.23.06.87.24c.75.21,1.82.54,3.12,1a67.94,67.94,0,0,1,9.81,4.28c7.38,4,15.5,10.29,18.25,19.83,1.36,4.75,2.94,16.6,4.59,32.44s3.33,35.59,4.85,56c3,40.87,5.42,84.38,5.42,104.38v.6Zm46.15-1.21c-.07-30.38-5.37-112.57-10.26-159.67-1.64-15.8-3.24-27.69-4.55-32.23-2.58-9-10.38-15.19-17.62-19.08a66.52,66.52,0,0,0-13.12-5.3V261.57Z"/><path d="M213.06 100.07H249.43V101.27999999999999H213.06z"/><path d="M213.06 174.62H255.64V175.83H213.06z"/><path d="M213.06 195.92H257.03V197.13H213.06z"/><path d="M213.06 249.17H259.61V250.38H213.06z"/><path d="M112,126.72h-.6V70.25h39.41v56.47Zm.6-1.2h37V71.46h-37Z"/><path d="M116.9,71.46v-12h28.36v12Zm1.21-1.21h25.95v-9.6H118.11Z"/><path d="M112,262.78h-.6v-82h39.41v82Zm.6-1.21h37V182h-37Z"/><path d="M117.63,182H117V125.51h39.41V182Zm37.6-55.26h-37v54.06h37Z"/><path d="M117.17 83.04H145V83.64H117.17z"/><path d="M117.17 90.36H145V90.96H117.17z"/><path d="M117.17 97.69H145V98.28999999999999H117.17z"/><path d="M117.17 105.02H145V105.61999999999999H117.17z"/><path d="M117.17 112.35H145V112.94999999999999H117.17z"/><path d="M117.17 119.67H145V120.27H117.17z"/><path d="M117.17 193.56H145V194.16H117.17z"/><path d="M117.17 200.89H145V201.48999999999998H117.17z"/><path d="M117.17 208.21H145V208.81H117.17z"/><path d="M117.17 215.54H145V216.14H117.17z"/><path d="M117.17 222.87H145V223.47H117.17z"/><path d="M117.17 230.19H145V230.79H117.17z"/><path d="M117.17 237.52H145V238.12H117.17z"/><path d="M117.17 244.85H145V245.45H117.17z"/><path d="M117.17 252.17H145V252.76999999999998H117.17z"/><path d="M122.81 138.3H150.64V138.9H122.81z"/><path d="M122.81 145.62H150.64V146.22H122.81z"/><path d="M122.81 152.95H150.64V153.54999999999998H122.81z"/><path d="M122.81 160.28H150.64V160.88H122.81z"/><path d="M122.81 167.61H150.64V168.21H122.81z"/><path d="M122.81 174.93H150.64V175.53H122.81z"/><path d="M100.29 145.03L100.29 96.01 111.98 96.01 111.98 97.21 101.49 97.21 101.49 143.83 117.7 143.83 117.7 145.03 100.29 145.03z"/><path d="M105.07 97.21L105.07 86.65 111.98 86.65 111.98 87.86 106.27 87.86 106.27 96.01 111.98 96.01 111.98 97.21 105.07 97.21z"/><path d="M100.29 262.78L100.29 191.65 111.98 191.65 111.98 192.85 101.49 192.85 101.49 261.57 111.98 261.57 111.98 262.78 100.29 262.78z"/><path d="M95.4 192.85L95.4 143.83 117.63 143.83 117.63 145.03 96.6 145.03 96.6 191.65 111.98 191.65 111.98 192.85 95.4 192.85z"/><path d="M105.38 107.11H111.97999999999999V107.71H105.38z"/><path d="M105.38 113.45H111.97999999999999V114.05H105.38z"/><path d="M105.38 119.79H111.97999999999999V120.39H105.38z"/><path d="M105.38 126.13H111.97999999999999V126.72999999999999H105.38z"/><path d="M105.38 132.47H117.63V133.07H105.38z"/><path d="M105.38 138.81H117.63V139.41H105.38z"/><path d="M105.38 202.75H111.97999999999999V203.35H105.38z"/><path d="M105.38 209.1H111.97999999999999V209.7H105.38z"/><path d="M105.38 215.44H111.97999999999999V216.04H105.38z"/><path d="M105.38 221.78H111.97999999999999V222.38H105.38z"/><path d="M105.38 228.12H111.97999999999999V228.72H105.38z"/><path d="M105.38 234.46H111.97999999999999V235.06H105.38z"/><path d="M105.38 240.8H111.97999999999999V241.4H105.38z"/><path d="M105.38 247.14H111.97999999999999V247.73999999999998H105.38z"/><path d="M105.38 253.48H111.97999999999999V254.07999999999998H105.38z"/><path d="M100.49 154.93H117.63V155.53H100.49z"/><path d="M100.49 161.27H117.63V161.87H100.49z"/><path d="M100.49 167.61H117.63V168.21H100.49z"/><path d="M100.49 173.96H117.63V174.56H100.49z"/><path d="M100.49 180.3H117.63V180.9H100.49z"/><path d="M100.49 186.64H111.97999999999999V187.23999999999998H100.49z"/><path d="M109,153.33l.06,3.13,3.28,6.7,6.25,21.46,9.94,5,13.07-13.8,12.4-14-7.39-19.12,5-19.06s-15.9-10.57-16.53-11-14.54-3.22-14.54-3.22l-3.4,3.53L112,122.12l.11,17.78.49,5.3-2.28,3.6Z" fill="#fff"/><path d="M34.4,31.82S16.42,69,35.59,85.46s35,4.06,36.29,2.82,10.45-3.95,21.59-32.45c0,0-13.15-1.16-31.37-8.93S34.4,31.82,34.4,31.82" fill="#e52045"/><path d="M35.61,37.48l5.52,3.06s-.8,1.59-1.82,4.29L33.92,42q.72-2.23,1.69-4.53" fill="#fff"/><path d="M36.72,82.9S26.53,69.63,32.9,45.59l5.45,2c-2.75,8.3-7.15,22.28-1.62,35.35" fill="#fff"/><path d="M112.37,124.92l-.28,11.54s.35,13.47,10.38,14.78l-.09,5.51a17.78,17.78,0,0,0,12.41.81s-2.91-6.25-.2-11.92A36.88,36.88,0,0,1,140,137s6.51,3.44,7.5-4.52-6.77-6.33-6.77-6.33l-1.64,1.48s-13.33,1.26-19.63-15.08c0,0-5.64.42-7.14,12.33" fill="#fff"/><path d="M189.47,250.33l.06,6.72s.11,3.57-2.23,4.22-5.78,1.52-5.42,3.13c.64,2.9,5.06,2,6.51,1.28a34.27,34.27,0,0,0,4-2.59s.9,7.09,2.4,9.19,3.9,1.05,4.75-.21a4.6,4.6,0,0,0,3.3,1,4,4,0,0,0,2.69-2.05,3,3,0,0,0,2.45,1.27c1.43-.18,2.27-2.42,2.27-2.42s-.05-8.66-.66-11.41-1.14-2.15-1.14-2.15l-3.65-.53L202.9,249Z" fill="#fff"/><path d="M112.36,224.15,59.85,242.6s-.28,13.15,3.85,20.61l99.69-.17s.49-21.5-10.26-34.47c0,0-15.36.92-23.2.1s-14.57-1.88-17.56-4.51" fill="#1a1a1a"/><path d="M139.14,127.67s-11.79-.82-17.34-16.06c0,0-7.37,0-9.46,12.56,0,0,0-6.73,6.41-14.34a10.64,10.64,0,0,1,2.92-2.59c4.21-1.79,8.48-1.59,17.68-.41,7.89,1,14.1,5.75,15,13.58l-4.81,27.29s-.06,1.19,4.39,4.3,7.34,7.13,3.28,13.4l-5.18-2.8s-9.89,5.32-14.62-5.89c0,0-2.5-4.66.12-11s5.09-8,5.09-8a4.07,4.07,0,0,0,3.27-1.13c1-1,1.73-2.28,1.69-5.48,0-4-2.39-5.17-4.07-5.28a5.11,5.11,0,0,0-4.39,1.79" fill="#1a1a1a"/><path d="M114.65,145.73s.7,3.92,7.82,5.51l-.09,5.51s-3.21,1.85-4.09,4.18a6.32,6.32,0,0,1-5.64-3.2c-1.61-2.91-1.42-8.61,2-12" fill="#1a1a1a"/><path d="M43.82,116.89c-.27.37,1.45,4.56,1.45,4.56l3.55,1.71-1.74-6H43.9Z" fill="#3a3a3a"/><path d="M33.16,133.19s14,5.34,19.18,3.09l1.17-2.55s8,14.58,19.19,19.53,16.62,7.9,37.36,5.06c0,0,3.39,3.77,8.11,3.06a8.85,8.85,0,0,0,1.57,4.24s-.77,18.66,6,19.38,11-17.6,11-17.6,3.58-2.54,3.85-4.32a18.6,18.6,0,0,0,11.45-.48,84.34,84.34,0,0,1,25.71,19.83c11.11,13.09,19.3,30.84,21.82,41.24s4.81,25.2,4.81,25.2l-15.47,1.52s-8.3-22.66-17.24-37.21c-9.3-15.13-17.74-19-17.74-19s-2,25.56-.84,33.91a104.32,104.32,0,0,1-24.37.46c-12.49-1.39-16.37-4.38-16.37-4.38s-6.33-11.47-8.48-19.74a99.2,99.2,0,0,1-2.7-15.74s-18.64-1.5-34.61-10.87-26.35-23.62-29.64-33.19-3.77-11.43-3.77-11.43" fill="#e52045"/><g clip-path="url(#309964ad-1b44-4a91-9404-ef011d4ca233)" opacity=".24"><path d="M161.89,29.2l23-24.44S187.6,19,197.28,28.37a96.18,96.18,0,0,0,19.15,14.42L195.9,64.55s-12.43-2-22.81-17.35-11.2-18-11.2-18" fill="#e74849"/></g><path d="M81,79.67c4.73-1.72,10.22-3.83,14.65-7.09a18.17,18.17,0,0,0,3-2.6,5.56,5.56,0,0,0,1.54-3.9,1.9,1.9,0,0,0-1.37-2l-.39-.18a9.52,9.52,0,0,0-5.67.07c-.8.22-2.81.62-2.81.62L92.67,58a11.85,11.85,0,0,1,7,.17l.76.12A8.44,8.44,0,0,1,106,65.75a11.67,11.67,0,0,1-3.09,8.17,20.45,20.45,0,0,1-3.65,3.24c-6.49,4.77-15,7.55-20.35,9.1-1.34.39-4.21,1-5.86,1.35Z" fill="#fff"/><path d="M27.12,69.22c-1-1.37-2.74-4.05-3.45-5.26a65.72,65.72,0,0,1-8-20.37,20.58,20.58,0,0,1-.44-4.86,11.67,11.67,0,0,1,3.35-8.07A8.44,8.44,0,0,1,27.67,29l.64.43a11.84,11.84,0,0,1,5.25,4.7l-2.48,6.68s-1.19-1.67-1.62-2.38a9.51,9.51,0,0,0-4.08-3.94L25,34.35a1.9,1.9,0,0,0-2.4.55A5.57,5.57,0,0,0,21,38.79a18.14,18.14,0,0,0,.38,3.92C22.4,48.12,24.75,53,27,57.53Z" fill="#fff"/><path d="M35.4,263.21a17,17,0,0,1,7.74-12.63,74.18,74.18,0,0,1,16.72-8s-.46,12.79,4.28,20.61Z" fill="#fff"/><path d="M28.36,109.42s6.19-8.12,7-8.23,7.15,1.6,8,1.81a2.83,2.83,0,0,0,2.91-3.44c1.08-.56,2.34-3.29,2.29-3.89,1.12-.23,1.72-2.07,2.15-3A8,8,0,0,0,48,90.24c-1.37-.81-6.27-2.69-6.27-2.69s7.91.27,7.82-3.68c0,0-6.26-2.06-7.6-2.05s-5.15,2.07-9,8-5.72,8.3-5.8,12.6a16.45,16.45,0,0,0,1.23,7" fill="#fff"/><path d="M45.73,104.8s-2.41,5.93-2.12,9.14l.29,3.21H46.1Z" fill="#fff"/><path d="M93.43,47.88c-.65,1.55-12.76-1.79-27.61-8.08S39.27,27.55,39.92,26s13.42,1.92,28.27,8.21S94.08,46.34,93.43,47.88" fill="#1a1a1a"/><path d="M34.4,23.16s-.81,6.37,31.48,19.46,33.74,6.73,33.74,6.73l-2.13,5.19s-2.8,5.94-35.4-7.63c-30.79-12.81-30-18.64-30-18.64Z" fill="#fff"/><path d="M11.59,114.55,9,120.28s6.47,6.37,20.28,11.45,18.69,6,23,4.54l2.49-5.8S46.36,134,26.67,123.7c-15.52-8.16-15.08-9.15-15.08-9.15" fill="#1a1a1a"/><path d="M39.32,101.81S32.09,120.24,23,119.71c0,0,10.1,5.27,16.82,6.88s9.12,2.19,11.27,1.1c0,0-7.9-5.2-7.51-13.14.58-11.78,7.76-20.79,7.76-20.79l-1.49-.35s-4.3,8.65-6.41,8.9a9.94,9.94,0,0,1-4.13-.51" fill="#fff"/><path d="M129.86,138.36s-.91-1.86-2.2-1.17-1,3-2.52,3-4.09-1.1-4.7,0,.63,4.18,5.3,4.09c0,0-.89-2.35.25-3.64a12.12,12.12,0,0,1,3.88-2.32" fill="#3a3a3a"/><path d="M144.47,56.83a.41.41,0,0,1-.29-.7l4.33-4.33a.41.41,0,0,1,.58,0,.41.41,0,0,1,0,.58l-4.33,4.33a.41.41,0,0,1-.29.12" fill="#1a1a1a"/><path d="M148.8,56.83a.41.41,0,0,1-.29-.12l-4.33-4.33a.41.41,0,0,1,0-.58.41.41,0,0,1,.58,0l4.33,4.33a.41.41,0,0,1-.29.7" fill="#1a1a1a"/><path d="M140.55,48.59a1.64,1.64,0,1,1,1.64-1.64,1.65,1.65,0,0,1-1.64,1.64m0-2.47a.83.83,0,1,0,.83.83.83.83,0,0,0-.83-.83" fill="#1a1a1a"/><path d="M185.76,156.47a1.64,1.64,0,1,1,1.64-1.64,1.65,1.65,0,0,1-1.64,1.64m0-2.47a.83.83,0,1,0,.83.83.83.83,0,0,0-.83-.83" fill="#1a1a1a"/><path d="M181.52,61.5C164.81,58.43,152.27,23.45,151.75,22a.41.41,0,0,1,.13-.45L177.66.09a.4.4,0,0,1,.42-.06.41.41,0,0,1,.24.35c1.56,25.35,26.22,41.14,26.47,41.3a.41.41,0,0,1,0,.66L181.78,61.4a.41.41,0,0,1-.26.09M152.61,22c1.2,3.29,13.45,35.63,28.8,38.7l22.48-18.59c-3.42-2.32-24.44-17.48-26.32-40.84Z" fill="#1a1a1a"/><path d="M6.78,168.94a.41.41,0,0,1-.25-.08C4.28,167.1,1.38,164.32.31,161a5.2,5.2,0,0,1,.85-5.11,19,19,0,0,1,.18-8,.41.41,0,1,1,.8.16,19.74,19.74,0,0,0-.29,7.16,6.08,6.08,0,0,1,1-.67A4.63,4.63,0,0,1,6.27,154a3.9,3.9,0,0,1,2.55,2.73,3.17,3.17,0,0,1-.91,3.4,3.26,3.26,0,0,1-3.13.22,5.71,5.71,0,0,1-3.33-3.51,4.47,4.47,0,0,0-.37,3.9c1,3.09,3.79,5.75,5.94,7.43a.41.41,0,0,1-.25.73m-4.72-12.8a5.09,5.09,0,0,0,3,3.49,2.45,2.45,0,0,0,2.35-.11A2.4,2.4,0,0,0,8,157a3.13,3.13,0,0,0-2-2.17,3.85,3.85,0,0,0-2.81.47,5.11,5.11,0,0,0-1.17.84" fill="#1a1a1a"/><path d="M172.06,90.83a.4.4,0,0,1-.31-.15c-.55-.68-1.32-1.61-2.22-2.53a11.89,11.89,0,0,1-3.78,1.08,4.48,4.48,0,0,1-3.66-.89,2.48,2.48,0,0,1-.48-3.18,2.51,2.51,0,0,1,1.89-1c2.28-.18,4.45,1.31,6.18,3a9.76,9.76,0,0,0,5.15-6.23,6.78,6.78,0,0,0-.28-3.8q-.4.29-.81.56a5.17,5.17,0,0,1-2.67,1,3.25,3.25,0,0,1-3-2.21,2.45,2.45,0,0,1,1-2.85c1.37-1,3.3-.42,4.5.63a6.35,6.35,0,0,1,1.33,1.63,33.78,33.78,0,0,0,5-5.74.41.41,0,0,1,.65.49,33.57,33.57,0,0,1-5.32,6,7.53,7.53,0,0,1,.4,4.51,10.37,10.37,0,0,1-5.33,6.67c.85.88,1.56,1.75,2.09,2.4a.41.41,0,0,1-.32.66M163.84,85h-.29a1.74,1.74,0,0,0-1.29.63,1.68,1.68,0,0,0,.37,2.11,3.71,3.71,0,0,0,3,.68,10.73,10.73,0,0,0,3.23-.89c-1.47-1.36-3.23-2.53-5-2.53m6.84-11.12a2,2,0,0,0-1.19.36,1.63,1.63,0,0,0-.7,1.94A2.45,2.45,0,0,0,171,77.83a4.43,4.43,0,0,0,2.26-.83q.47-.3.91-.63A5.44,5.44,0,0,0,173,74.82a3.7,3.7,0,0,0-2.3-.94" fill="#1a1a1a"/><path d="M137,29.05l-.36,0a2.31,2.31,0,0,1-2.1-1.62,3.23,3.23,0,0,1,0-1.53,8,8,0,0,1,3-4.66,6.73,6.73,0,0,0-6.2-3.1.39.39,0,0,1-.44-.37.41.41,0,0,1,.37-.44,7.54,7.54,0,0,1,6.94,3.43,9.25,9.25,0,0,1,5.06-1.57.45.45,0,0,1,.44.41.41.41,0,0,1-.41.4,8.53,8.53,0,0,0-4.64,1.46,12.75,12.75,0,0,1,1.34,3.26,3.89,3.89,0,0,1-.12,2.85A3.27,3.27,0,0,1,137,29.05m1-7.13A7,7,0,0,0,135.28,26a2.36,2.36,0,0,0,0,1.14,1.54,1.54,0,0,0,1.41,1.05,2.57,2.57,0,0,0,2.4-1.07,3,3,0,0,0,0-2.25,12,12,0,0,0-1.21-3" fill="#1a1a1a"/><path d="M124.65,144.72c-2.59,0-4.8-1.88-4.89-3.43a1.91,1.91,0,0,1,.49-1.48,2.66,2.66,0,0,1,2.95-.35,4.43,4.43,0,0,0,1.43.47,1,1,0,0,0,.37-.08c.35-.13.51-.19,1.14-1.44a2.71,2.71,0,0,1,2.27-1.63,1.9,1.9,0,0,1,1.55.84,3.46,3.46,0,0,1,.15,2.94,5.65,5.65,0,0,1-5.47,4.17M121.88,140a1.39,1.39,0,0,0-1,.38,1.13,1.13,0,0,0-.27.87c.06.92,1.69,2.67,4.08,2.67a4.83,4.83,0,0,0,4.69-3.6,2.83,2.83,0,0,0,0-2.22c-.65-.89-1.87-.46-2.43.67-.71,1.42-1,1.63-1.59,1.84s-.93.24-2.41-.4a2.5,2.5,0,0,0-1-.22" fill="#1a1a1a"/><path d="M142.69,138.24h-.18a4.67,4.67,0,0,1-3.19-1.48.41.41,0,1,1,.58-.57,3.88,3.88,0,0,0,2.64,1.23,4,4,0,0,0,3.18-1.48,6.28,6.28,0,0,0,1.49-3.92c.12-3.07-1.78-5.65-4.23-5.74a3.9,3.9,0,0,0-3.89,2.49.41.41,0,0,1-.74-.35,4.72,4.72,0,0,1,4.66-3c2.9.11,5.15,3.07,5,6.59a7.1,7.1,0,0,1-1.69,4.42,4.84,4.84,0,0,1-3.64,1.76" fill="#1a1a1a"/><path d="M143.64,134.5a.41.41,0,0,1-.24-.07l-2.83-2a.41.41,0,0,1-.17-.3.4.4,0,0,1,.12-.32l3-3a.41.41,0,0,1,.58.57L141.44,132l2.44,1.72a.41.41,0,0,1-.24.74" fill="#1a1a1a"/><path d="M114.6,123.61a.41.41,0,0,1-.3-.68,5,5,0,0,1,5.3-1,.41.41,0,1,1-.24.78c-2.92-.92-4.43.73-4.44.75a.4.4,0,0,1-.3.13" fill="#1a1a1a"/><path d="M119.46,138.24a.41.41,0,0,1-.28-.11,17.66,17.66,0,0,1-2.26-3,.41.41,0,0,1,.27-.61l2.73-.49a32.8,32.8,0,0,0,1.33-9.59.41.41,0,0,1,.82,0,32,32,0,0,1-1.45,10.08.41.41,0,0,1-.31.26l-2.36.43a14.09,14.09,0,0,0,1.79,2.29.41.41,0,0,1-.27.71" fill="#1a1a1a"/><path d="M125,151.75c-3.84,0-6.9-1.13-9.09-3.37-5.14-5.25-4.53-15.48-4.13-22.25.09-1.57.17-2.93.17-4a.41.41,0,1,1,.81,0c0,1.11-.08,2.48-.18,4.06-.39,6.63-1,16.64,3.9,21.64,2.17,2.22,5.28,3.27,9.25,3.11a.39.39,0,0,1,.42.39.41.41,0,0,1-.39.42H125" fill="#1a1a1a"/><path d="M139.14,128.07c-14.23-1-19.09-13-19.83-15.07-4.32.43-6.55,10.45-6.57,10.55a.41.41,0,0,1-.48.31.41.41,0,0,1-.31-.49c.1-.46,2.49-11.21,7.65-11.21a.41.41,0,0,1,.39.29c0,.14,4.27,13.72,19.18,14.79a.41.41,0,0,1,0,.81" fill="#1a1a1a"/><path d="M129.35,158.72c-5.57,0-7.22-1.66-7.28-1.73a.41.41,0,0,1-.11-.28v-5.37a.41.41,0,0,1,.82,0v5.18c.43.32,2.19,1.39,6.58,1.39a16.94,16.94,0,0,0,5.22-.74.41.41,0,1,1,.24.78,17.72,17.72,0,0,1-5.47.78" fill="#1a1a1a"/><path d="M134.63,168a5.13,5.13,0,0,1-1.35-.18c-2.92-.79-4.92-3.94-5.64-5.23-1,1.11-3.62,3.8-6,3.85a2.9,2.9,0,0,1-2.38-1.09,4.64,4.64,0,0,1-1.3-3.92c.51-3,4.08-5,4.23-5.12a.41.41,0,1,1,.4.71s-3.39,1.95-3.83,4.55a3.86,3.86,0,0,0,1.1,3.25,2.17,2.17,0,0,0,1.7.81c2.66-.06,5.84-4,5.87-4a.44.44,0,0,1,.36-.15.41.41,0,0,1,.32.23s2.15,4.46,5.4,5.34a4.79,4.79,0,0,0,4.05-.85,5.33,5.33,0,0,0,2.43-3.34.4.4,0,0,1,.48-.32.41.41,0,0,1,.32.48A6.12,6.12,0,0,1,138,166.9a6,6,0,0,1-3.37,1.14" fill="#1a1a1a"/><path d="M97.66,159.81c-24.23,0-37.47-13.53-44.5-25.88a.41.41,0,0,1,.71-.41c8,14.14,24.36,29.84,56.37,24.35a.4.4,0,0,1,.47.33.41.41,0,0,1-.33.47,75.29,75.29,0,0,1-12.71,1.13" fill="#1a1a1a"/><path d="M48.9,123.82a.41.41,0,0,1-.39-.28,46.18,46.18,0,0,1-1.62-5.92l-3-.06a.41.41,0,0,1-.4-.41.45.45,0,0,1,.42-.4l3.33.07a.41.41,0,0,1,.4.34,42.37,42.37,0,0,0,1.64,6.13.41.41,0,0,1-.26.52l-.13,0" fill="#1a1a1a"/><path d="M101.18,189.08c-16.91-1.92-57.33-11.18-68.42-55.8a.41.41,0,0,1,.3-.49.4.4,0,0,1,.49.3c11,44.12,51,53.29,67.67,55.19a.41.41,0,0,1,0,.81" fill="#1a1a1a"/><path d="M112.71,224.56a.41.41,0,0,1-.35-.2c-17.65-30-9.81-48.11-9.73-48.29a.41.41,0,0,1,.74.33c-.08.18-7.72,18,9.69,47.54a.41.41,0,0,1-.15.56.39.39,0,0,1-.21.06" fill="#1a1a1a"/><path d="M117.63,161.8c-1.95,0-8.14-.51-9.05-6.86-.95-6.53,4.24-11.26,4.46-11.46a.41.41,0,0,1,.54.61c-.05,0-5.08,4.64-4.2,10.73,1,6.76,8.44,6.18,8.76,6.15a.41.41,0,1,1,.07.81s-.23,0-.58,0" fill="#1a1a1a"/><path d="M145.22,164.21a11.38,11.38,0,0,1-9.25-4c-8.7-10.79,3.52-23.21,3.64-23.33a.41.41,0,0,1,.58.58c-.12.12-11.82,12-3.58,22.25,5.16,6.4,15.19,2.54,15.29,2.5a.41.41,0,1,1,.3.76,21.41,21.41,0,0,1-7,1.24" fill="#1a1a1a"/><path d="M157.22,165.8a.41.41,0,0,1-.34-.63c4.74-7-.43-10.9-4.21-13.71-2-1.45-3.49-2.6-3.32-3.91,2.16-16.05,4.46-25.92,4.67-26.77a12.47,12.47,0,0,0-6-10.11c-8.75-5.73-25-4.54-29.75-2.78,0,0-7.26,4-5.64,17.94a.41.41,0,0,1-.36.45.4.4,0,0,1-.45-.36c-1.69-14.54,5.8-18.61,6.12-18.78,4.89-1.81,21.56-3,30.53,2.84a13.24,13.24,0,0,1,6.33,10.81.36.36,0,0,1,0,.12c0,.1-2.42,10.07-4.66,26.75-.11.83,1.4,2,3,3.15,3.81,2.84,9.57,7.13,4.39,14.82a.4.4,0,0,1-.34.18" fill="#1a1a1a"/><path d="M204.78,256.12a.41.41,0,0,1-.39-.29l-1.95-6.7a.41.41,0,1,1,.78-.23l1.95,6.7a.41.41,0,0,1-.28.51l-.11,0" fill="#1a1a1a"/><path d="M188.92,250.79a.41.41,0,0,1-.39-.28s-1.23-3.68-3.38-9.05l-.9-2.23c-5.71-13.88-17.27-38.16-30.57-44.83a.41.41,0,1,1,.36-.73c13.54,6.79,25.21,31.27,31,45.25l.9,2.23c1.8,4.5,2.95,7.8,3.29,8.79l14.73-1.45c-.19-1.67-.38-3.26-.59-4.76-.09-.64-.19-1.28-.28-1.91-7.62-50.41-35.35-71.05-51.2-78.87a.41.41,0,0,1-.19-.55.41.41,0,0,1,.55-.19c16,7.89,44,28.7,51.65,79.48.1.63.19,1.27.28,1.92.22,1.63.44,3.37.64,5.19a.41.41,0,0,1-.09.3.4.4,0,0,1-.28.15L189,250.78h0" fill="#1a1a1a"/><path d="M98,229.5a.41.41,0,0,1-.13-.79c10.34-3.53,14.65-4.93,14.7-4.94a.42.42,0,0,1,.45.14c0,.06,5.57,6.27,40.08,4.26a.41.41,0,0,1,.43.38.41.41,0,0,1-.38.43c-32,1.86-39.32-3.21-40.56-4.35-1,.34-5.47,1.79-14.44,4.86l-.13,0" fill="#1a1a1a"/><path d="M59.85,243a.41.41,0,0,1-.14-.79l3.62-1.35c2.68-1,5.42-2,8.14-3l4.07-1.46c5.36-1.91,7.3-2.59,12.1-4.24a.41.41,0,1,1,.26.77c-4.79,1.65-6.73,2.33-12.09,4.24l-4.07,1.46c-2.73,1-5.45,2-8.14,3L60,243l-.14,0" fill="#1a1a1a"/><path d="M35.4,263.62a.42.42,0,0,1-.4-.46c1.6-11.61,11.7-15.67,20.6-19.25,1.39-.56,2.77-1.11,4.09-1.68A.41.41,0,1,1,60,243c-1.33.58-2.71,1.13-4.11,1.69-9.12,3.67-18.56,7.46-20.1,18.6a.41.41,0,0,1-.4.35" fill="#1a1a1a"/><path d="M63.7,263.32a.41.41,0,0,1-.37-.24,47.88,47.88,0,0,1-3.69-13.67,34.46,34.46,0,0,1-.19-6.85.38.38,0,0,1,.45-.36.41.41,0,0,1,.36.45,34.56,34.56,0,0,0,.19,6.68,47,47,0,0,0,3.62,13.43.41.41,0,0,1-.21.54.43.43,0,0,1-.16,0" fill="#1a1a1a"/><path d="M163.39,263.44A.41.41,0,0,1,163,263a64.26,64.26,0,0,0-4.13-23.51c-.34-.87-.69-1.68-1-2.44a34.45,34.45,0,0,0-5-8.25.41.41,0,0,1-.1-.25c-1.08-16.23.71-34.42.73-34.6a.4.4,0,0,1,.45-.36.41.41,0,0,1,.37.45,244.28,244.28,0,0,0-.74,34.32,35.77,35.77,0,0,1,5,8.35q.52,1.15,1.05,2.48A65.16,65.16,0,0,1,163.8,263a.41.41,0,0,1-.41.41" fill="#1a1a1a"/><path d="M126.17,185.42H126a4.41,4.41,0,0,1-3.13-1.55c-4.13-4.55-3.52-17.71-3.49-18.27a.42.42,0,0,1,.43-.39.41.41,0,0,1,.39.43c0,.13-.63,13.38,3.28,17.68A3.57,3.57,0,0,0,126,184.6h.17c6.66,0,10.2-17.39,10.23-17.56a.41.41,0,1,1,.8.16c-.15.75-3.71,18.22-11,18.22" fill="#1a1a1a"/><path d="M127.72,162.32a.41.41,0,0,1-.36-.21,13.12,13.12,0,0,1-1.36-3.79.41.41,0,0,1,.37-.44.38.38,0,0,1,.44.37,12.51,12.51,0,0,0,1.27,3.48.41.41,0,0,1-.17.55.42.42,0,0,1-.19,0" fill="#1a1a1a"/><path d="M133.24,129.86a.41.41,0,0,1-.34-.18c-1.16-1.76-2.31-2.6-3.3-2.5-1.57.14-2.56,2.42-2.57,2.44a.4.4,0,0,1-.53.22.41.41,0,0,1-.22-.53c0-.11,1.19-2.74,3.24-2.93,1.3-.12,2.71.84,4.06,2.87a.4.4,0,0,1-.12.56.39.39,0,0,1-.22.07" fill="#1a1a1a"/><path d="M118.86,129.29a.4.4,0,0,1-.39-.28c-.24-.73-1.1-2.65-2.14-2.73-.69-.06-1.47.73-2.26,2.26a.4.4,0,0,1-.55.18.41.41,0,0,1-.18-.55c1-1.9,2-2.79,3-2.7,1.76.14,2.75,3,2.85,3.28a.41.41,0,0,1-.26.51l-.13,0" fill="#1a1a1a"/><path d="M120.43,263.62a.42.42,0,0,1-.4-.48c1-5.17,1.73-8.11,1.74-8.14a.41.41,0,0,1,.5-.29.41.41,0,0,1,.29.5s-.77,2.94-1.73,8.08a.41.41,0,0,1-.4.33" fill="#1a1a1a"/><path d="M267.8,263.62H210.29a.41.41,0,1,1,0-.81H267.8a.41.41,0,1,1,0,.81" fill="#1a1a1a"/><path d="M182.13,263.62H19.66a.41.41,0,1,1,0-.81H182.13a.41.41,0,1,1,0,.81" fill="#1a1a1a"/><path d="M197.31,273.84a5.8,5.8,0,0,1-1.07-.11c-2.74-.52-3.86-7.43-4.17-9.86-4.62,3.65-7.57,3.16-9.25,2.08-1.36-.88-1.5-1.71-1.39-2.26.23-1.06,1.59-1.83,3.85-2.18a4.33,4.33,0,0,0,3.83-3.06l.13-8.15a.46.46,0,0,1,.42-.4.41.41,0,0,1,.4.41l-.14,8.22a5.06,5.06,0,0,1-4.51,3.78c-2.17.34-3.06,1-3.18,1.55s.28.92,1,1.4c2.17,1.41,5.24.55,8.87-2.49a.4.4,0,0,1,.42-.06.41.41,0,0,1,.25.33c.37,3.63,1.68,9.53,3.6,9.89a2.85,2.85,0,0,0,2.18-.24A1.21,1.21,0,0,0,199,272a.41.41,0,0,1,.24-.32.39.39,0,0,1,.4,0,5.08,5.08,0,0,0,3.28.88,3.94,3.94,0,0,0,2.27-1.91.41.41,0,0,1,.35-.22.39.39,0,0,1,.36.2s.95,1.52,2.15,1.15a2.33,2.33,0,0,0,1.74-2.14c.32-5.14-.28-12.94-1.76-13.17-2.49-.39-10.17.31-13.22,2a.41.41,0,1,1-.4-.71c3.25-1.84,11.12-2.55,13.75-2.14,3.11.49,2.46,13.89,2.45,14a3.16,3.16,0,0,1-2.32,2.87,2.61,2.61,0,0,1-2.71-1,4.36,4.36,0,0,1-2.49,1.8,5.37,5.37,0,0,1-3.47-.73,2,2,0,0,1-.62.71,2.9,2.9,0,0,1-1.73.49" fill="#1a1a1a"/><path d="M51.1,128.1a.4.4,0,0,1-.22-.07,15.6,15.6,0,0,1-7.34-10.6c-2-11.14,7.32-23.68,7.72-24.21a.41.41,0,0,1,.65.49c-.1.13-9.5,12.8-7.57,23.58a14.81,14.81,0,0,0,7,10.05.41.41,0,0,1-.22.75" fill="#1a1a1a"/><path d="M18.29,113.7a18.93,18.93,0,0,1-3.7-.38.41.41,0,0,1-.32-.48.4.4,0,0,1,.48-.32,14.78,14.78,0,0,0,13.32-3.4.41.41,0,1,1,.54.61,15.17,15.17,0,0,1-10.32,4" fill="#1a1a1a"/><path d="M48.91,128.81a21.54,21.54,0,0,1-4.18-.53A81.7,81.7,0,0,1,31.38,124a81.62,81.62,0,0,1-12.55-6.23c-3.47-2.2-5-3.89-4.54-5a.41.41,0,0,1,.76.31c-.16.4.55,1.69,4.22,4a80.84,80.84,0,0,0,12.42,6.17,80.74,80.74,0,0,0,13.21,4.23c4.25.88,5.67.45,5.83.05a.4.4,0,0,1,.53-.23.41.41,0,0,1,.22.53c-.26.65-1.12,1-2.57,1" fill="#1a1a1a"/><path d="M26.67,124.11a.4.4,0,0,1-.17,0,90.26,90.26,0,0,1-8.6-4.41.41.41,0,0,1,.41-.7,89.07,89.07,0,0,0,8.52,4.37.41.41,0,0,1-.17.78" fill="#1a1a1a"/><path d="M51.8,131.46a24.62,24.62,0,0,1-3.91-.38.41.41,0,0,1-.34-.47.4.4,0,0,1,.47-.33c4.46.73,6.36.23,6.65-.48.17-.41.26-2-5.54-5.75a.41.41,0,1,1,.44-.69c4.53,2.89,6.49,5.16,5.85,6.74-.37.91-1.58,1.36-3.62,1.36" fill="#1a1a1a"/><path d="M49.35,124.11a.39.39,0,0,1-.22-.06c-1.14-.73-2.42-1.48-3.81-2.23a.41.41,0,0,1,.39-.72c1.41.77,2.71,1.53,3.86,2.27a.41.41,0,0,1-.22.75" fill="#1a1a1a"/><path d="M52.65,136.26a.39.39,0,0,1-.15,0,.4.4,0,0,1-.22-.53l2.37-5.83a.41.41,0,0,1,.76.31L53,136a.41.41,0,0,1-.38.25" fill="#1a1a1a"/><path d="M11.59,115a.41.41,0,0,1-.29-.12c-1.22-1.27-1.67-2.34-1.34-3.17,1.06-2.62,8.7-1,13.16.28a.41.41,0,0,1,.29.5.41.41,0,0,1-.5.28c-8.29-2.29-11.75-1.84-12.19-.76-.2.49.22,1.31,1.17,2.3a.41.41,0,0,1-.29.69" fill="#1a1a1a"/><path d="M49.36,137.36c-4.76,0-13.27-2.43-21.08-5.6A89.35,89.35,0,0,1,12.94,124c-4.17-2.78-6-4.93-5.38-6.4l2.39-5.9a.41.41,0,0,1,.76.31l-2.39,5.91c-.31.77.86,2.6,5.08,5.41A88.58,88.58,0,0,0,28.58,131c13,5.25,22.88,6.69,23.69,4.69A.41.41,0,1,1,53,136c-.38.94-1.71,1.35-3.67,1.35" fill="#1a1a1a"/><path d="M27.12,69.62a.4.4,0,0,1-.33-.17c-.51-.72-2.23-3.19-3.08-4.62-1.5-2.52-6.52-11.49-8.3-21a23,23,0,0,1-.46-5.21,11.93,11.93,0,0,1,3.44-8.3,8.82,8.82,0,0,1,9.55-1.74l.12.05a13.09,13.09,0,0,1,5.65,4.95.41.41,0,1,1-.67.47,12.11,12.11,0,0,0-5.31-4.67l-.11,0A8,8,0,0,0,19,30.89a11.12,11.12,0,0,0-3.19,7.74,22.28,22.28,0,0,0,.45,5c1.75,9.41,6.72,18.27,8.2,20.76.83,1.4,2.54,3.85,3,4.57a.4.4,0,0,1-.1.57.39.39,0,0,1-.23.07M27,58a.41.41,0,0,1-.36-.22,56,56,0,0,1-5.45-15.09,17.67,17.67,0,0,1-.37-3.92,6.27,6.27,0,0,1,1.63-4.3A3,3,0,0,1,25.73,34c1.8.77,3.18,2.77,4.19,4.43l1.21,2-.69.43-1.21-2c-.95-1.56-2.23-3.43-3.77-4.09a2.19,2.19,0,0,0-2.49.39,5.46,5.46,0,0,0-1.38,3.74,16.81,16.81,0,0,0,.35,3.74,55.19,55.19,0,0,0,5.38,14.87.41.41,0,0,1-.18.55A.42.42,0,0,1,27,58" fill="#1a1a1a"/><path d="M72.54,88.33a.41.41,0,0,1-.08-.81c1.52-.29,4.47-.87,5.85-1.25,2.8-.75,12.53-3.65,20.34-9.18a22.38,22.38,0,0,0,3.82-3.3A11.11,11.11,0,0,0,105.58,66a8,8,0,0,0-5.14-7.18l0-.42-.15.38a14.35,14.35,0,0,0-7.61-.33.41.41,0,0,1-.16-.8,15.18,15.18,0,0,1,8.06.37l.12,0a8.83,8.83,0,0,1,5.65,7.9,11.92,11.92,0,0,1-3.31,8.36,23.1,23.1,0,0,1-4,3.42c-7.92,5.61-17.77,8.54-20.6,9.31-1.4.38-4.37,1-5.91,1.26h-.08m8.2-8.16a.41.41,0,0,1-.13-.79,58.14,58.14,0,0,0,14.67-7,16.68,16.68,0,0,0,2.86-2.44,5.46,5.46,0,0,0,1.61-3.65,2.17,2.17,0,0,0-1.48-2c-1.6-.62-3.83-.17-5.59.29-.8.21-2.72.59-2.8.61a.41.41,0,1,1-.16-.8s2-.4,2.75-.6c1.88-.49,4.27-1,6-.28a3,3,0,0,1,2,2.74,6.26,6.26,0,0,1-1.82,4.22,17.49,17.49,0,0,1-3,2.56,59,59,0,0,1-14.87,7.15l-.13,0" fill="#1a1a1a"/><path d="M29.9,77.83a.41.41,0,0,1-.37-.23,28.63,28.63,0,0,1-2.42-7,45.83,45.83,0,0,1-.28-15A78,78,0,0,1,30.5,40.55c.79-2.31,1.7-4.64,2.68-6.93l.25-.59c.23-.54.51-1.18.67-1.55a.41.41,0,0,1,.54-.2.41.41,0,0,1,.2.54c-.16.36-.44,1-.67,1.54l-.26.6c-1,2.27-1.87,4.59-2.66,6.88a77.23,77.23,0,0,0-3.64,14.91,45,45,0,0,0,.27,14.75,27.76,27.76,0,0,0,2.35,6.76.41.41,0,0,1-.36.59" fill="#1a1a1a"/><path d="M36,86.25a.41.41,0,0,1-.29-.12A30.21,30.21,0,0,1,31,80.26a.41.41,0,1,1,.69-.43,29.48,29.48,0,0,0,4.56,5.72.41.41,0,0,1-.29.7" fill="#1a1a1a"/><path d="M55.59,94.19a26.74,26.74,0,0,1-4.81-.44.41.41,0,0,1-.33-.47.4.4,0,0,1,.47-.33c7.15,1.3,14.12-.38,20.71-5A45,45,0,0,0,82,77.45a77.24,77.24,0,0,0,7.67-13.37c1-2.2,2-4.5,2.82-6.82l.3-.77c.13-.33.25-.64.38-1a.4.4,0,0,1,.52-.25.41.41,0,0,1,.25.52c-.14.39-.26.71-.39,1.05l-.29.76c-.87,2.34-1.82,4.65-2.84,6.87a78,78,0,0,1-7.75,13.51A45.88,45.88,0,0,1,72.11,88.61a28.5,28.5,0,0,1-16.51,5.57" fill="#1a1a1a"/><path d="M95.66,51.06c-6.59,0-19.41-3.79-31.19-8.57-3.31-1.34-6.53-2.75-9.56-4.19a.41.41,0,0,1,.35-.74c3,1.43,6.22,2.83,9.52,4.17,19,7.69,33.38,10.11,34.46,7.45s-10.95-11-29.92-18.65-33.38-10.1-34.46-7.45c-.28.68.39,1.84,1.86,3.26a.41.41,0,1,1-.56.59c-1.81-1.74-2.48-3.09-2.05-4.15,1.67-4.13,19.55.53,35.52,7s32,15.59,30.37,19.71c-.44,1.08-2,1.56-4.33,1.56" fill="#1a1a1a"/><path d="M93.67,56a39.36,39.36,0,0,1-7.42-.94,145.3,145.3,0,0,1-23.81-7.61c-16-6.48-32-15.59-30.36-19.71a.4.4,0,0,1,.53-.22.41.41,0,0,1,.23.53c-1.07,2.65,10.95,11,29.92,18.65A144.55,144.55,0,0,0,86.42,54.3c9.19,1.9,10.58.39,10.79-.11a.4.4,0,0,1,.53-.22.41.41,0,0,1,.22.53c-.46,1.14-2.14,1.54-4.3,1.54" fill="#1a1a1a"/><path d="M94.74,48.74a34.5,34.5,0,0,1-7.82-1.31,173.19,173.19,0,0,1-21.48-7.3c-12.05-4.89-29.5-13.36-28.16-16.66.24-.59,1-.9,2.19-.94a.4.4,0,0,1,.42.39.41.41,0,0,1-.39.42c-1.22,0-1.43.34-1.47.43-.63,1.56,9.6,8.25,27.71,15.6a172.59,172.59,0,0,0,21.37,7.27c7,1.75,9.17,1.36,9.38.84,0-.08.24-.89-3.08-3.25a.41.41,0,0,1,.47-.66c2.68,1.91,3.75,3.25,3.36,4.22-.12.3-.38.95-2.51.95" fill="#1a1a1a"/><path d="M32.46,28.34a.39.39,0,0,1-.15,0,.41.41,0,0,1-.22-.53l2-5a.4.4,0,0,1,.53-.22.41.41,0,0,1,.22.53l-2,5a.41.41,0,0,1-.38.25" fill="#1a1a1a"/><path d="M97.59,54.75a.39.39,0,0,1-.15,0,.41.41,0,0,1-.22-.53l2-5a.41.41,0,0,1,.76.31l-2,5a.41.41,0,0,1-.38.25" fill="#1a1a1a"/><path d="M28.34,109.83a.41.41,0,0,1-.38-.27c-3.07-8.61.25-13.47,3.18-17.76.5-.73,1-1.45,1.45-2.18,3.07-4.92,7.28-8.22,9.28-8.22,1.79.06,7.54,2,7.79,2.08a.41.41,0,0,1,.28.39c-.05,3.12-3.87,3.76-6.33,3.93l1.43.54a14.41,14.41,0,0,1,5,2.8A2.85,2.85,0,0,1,51,93a3,3,0,0,1-.64,1.8A2.85,2.85,0,0,1,49,96a3.7,3.7,0,0,1-.76,2.2,4.07,4.07,0,0,1-1.65,1.55,3.1,3.1,0,0,1-.12,2,3.45,3.45,0,0,1-3,1.7,8.54,8.54,0,0,1-2.77-.66c-.4-.14-.79-.29-1.17-.39a9.16,9.16,0,0,0-3.66-.42c-1.1.14-2,1.22-2.77,2.18l-.35.43c-1,1.16-1.92,2.38-2.75,3.46l-.29.34c-.26.3-.85,1-1,1.17a.4.4,0,0,1-.25.25l-.14,0M41.91,82.22c-1.59,0-5.6,3-8.63,7.83-.46.74-1,1.47-1.47,2.21-2.87,4.2-5.84,8.55-3.34,16.3l.61-.71.26-.3c.83-1.09,1.78-2.32,2.77-3.49l.35-.42c.83-1,1.87-2.3,3.3-2.48a9.85,9.85,0,0,1,4,.44c.4.11.81.26,1.23.41a7.93,7.93,0,0,0,2.49.62,2.63,2.63,0,0,0,2.29-1.28,2.74,2.74,0,0,0,0-1.75.41.41,0,0,1,.34-.53s.71-.13,1.5-1.33.59-1.91.59-1.91a.43.43,0,0,1,0-.44.4.4,0,0,1,.41-.15c.09,0,.55,0,1.17-.91A2.34,2.34,0,0,0,50.23,93a2.17,2.17,0,0,0-.8-1.27,13.52,13.52,0,0,0-4.69-2.63c-1.05-.41-2.11-.79-3.17-1.17a.5.5,0,0,1-.33-.49c.06-.37.31-.37,1.06-.4,2.79-.09,6.47-.49,6.79-2.89-1.22-.4-5.79-1.88-7.19-1.93" fill="#1a1a1a"/><path d="M45.93,117.3a.41.41,0,0,1-.41-.44,79.56,79.56,0,0,0-.19-12.53.41.41,0,0,1,.36-.45.4.4,0,0,1,.45.36,80.3,80.3,0,0,1,.19,12.68.41.41,0,0,1-.41.38" fill="#1a1a1a"/><path d="M199.45,272.45a.41.41,0,0,1-.4-.33l-2-10.8a.41.41,0,0,1,.32-.48.4.4,0,0,1,.47.33l2,10.8a.41.41,0,0,1-.32.48h-.07" fill="#1a1a1a"/><path d="M205.69,271.34a.41.41,0,0,1-.41-.38c0-.08-.56-8.58-1.28-10.66a.41.41,0,0,1,.77-.27c.75,2.18,1.3,10.51,1.32,10.87a.41.41,0,0,1-.38.43h0" fill="#1a1a1a"/><path d="M45.91,99.87a.41.41,0,0,1-.24-.08,23.88,23.88,0,0,0-5.89-2.66c-4.11-1.41-5.84-.09-5.86-.07a.41.41,0,0,1-.57-.06.4.4,0,0,1,.05-.57c.08-.07,2.05-1.65,6.64-.07a23.85,23.85,0,0,1,6.12,2.78.41.41,0,0,1-.25.73" fill="#1a1a1a"/><path d="M48.49,96a.4.4,0,0,1-.3-.13A16,16,0,0,0,42,92.32c-4-1.38-5.18-.64-5.2-.63a.41.41,0,0,1-.56-.08.4.4,0,0,1,.06-.55c.13-.11,1.45-1,6,.5a16.39,16.39,0,0,1,6.56,3.79.41.41,0,0,1-.3.68" fill="#1a1a1a"/><path d="M38.89,88a.41.41,0,0,1,0-.81,16.21,16.21,0,0,1,2.91,0,.41.41,0,0,1,.36.45.4.4,0,0,1-.45.36,15.59,15.59,0,0,0-2.75,0h0" fill="#1a1a1a"/><path d="M125.74,144.61a.4.4,0,0,1-.38-.26,3.84,3.84,0,0,1,.07-3.19c1.1-2.22,4.18-3.15,4.31-3.19a.4.4,0,0,1,.51.27.41.41,0,0,1-.28.51s-2.87.87-3.81,2.77a3.08,3.08,0,0,0,0,2.54.41.41,0,0,1-.23.53l-.15,0" fill="#1a1a1a"/></g></g></svg>